<?xml version="1.0" encoding="utf-8" standalone="no"?>
<!DOCTYPE svg PUBLIC "-//W3C//DTD SVG 1.1//EN"
  "http://www.w3.org/Graphics/SVG/1.1/DTD/svg11.dtd">
<svg xmlns:xlink="http://www.w3.org/1999/xlink" width="453.14375pt" height="337.752812pt" viewBox="0 0 453.14375 337.752812" xmlns="http://www.w3.org/2000/svg" version="1.1">
 <metadata>
  <rdf:RDF xmlns:dc="http://purl.org/dc/elements/1.1/" xmlns:cc="http://creativecommons.org/ns#" xmlns:rdf="http://www.w3.org/1999/02/22-rdf-syntax-ns#">
   <cc:Work>
    <dc:type rdf:resource="http://purl.org/dc/dcmitype/StillImage"/>
    <dc:date>2025-11-10T22:55:36.802438</dc:date>
    <dc:format>image/svg+xml</dc:format>
    <dc:creator>
     <cc:Agent>
      <dc:title>Matplotlib v3.10.0, https://matplotlib.org/</dc:title>
     </cc:Agent>
    </dc:creator>
   </cc:Work>
  </rdf:RDF>
 </metadata>
 <defs>
  <style type="text/css">*{stroke-linejoin: round; stroke-linecap: butt}</style>
 </defs>
 <g id="figure_1">
  <g id="patch_1">
   <path d="M 0 337.752812 
L 453.14375 337.752812 
L 453.14375 0 
L 0 0 
z
" style="fill: #ffffff"/>
  </g>
  <g id="axes_1">
   <g id="patch_2">
    <path d="M 50.14375 300.196562 
L 445.94375 300.196562 
L 445.94375 32.916562 
L 50.14375 32.916562 
z
" style="fill: #ffffff"/>
   </g>
   <g id="matplotlib.axis_1">
    <g id="xtick_1">
     <g id="line2d_1">
      <defs>
       <path id="me8d82925d5" d="M 0 0 
L 0 3.5 
" style="stroke: #000000; stroke-width: 0.8"/>
      </defs>
      <g>
       <use xlink:href="#me8d82925d5" x="68.134659" y="300.196562" style="stroke: #000000; stroke-width: 0.8"/>
      </g>
     </g>
     <g id="text_1">
      <!-- 0 -->
      <g transform="translate(64.953409 314.795) scale(0.1 -0.1)">
       <defs>
        <path id="DejaVuSans-30" d="M 2034 4250 
Q 1547 4250 1301 3770 
Q 1056 3291 1056 2328 
Q 1056 1369 1301 889 
Q 1547 409 2034 409 
Q 2525 409 2770 889 
Q 3016 1369 3016 2328 
Q 3016 3291 2770 3770 
Q 2525 4250 2034 4250 
z
M 2034 4750 
Q 2819 4750 3233 4129 
Q 3647 3509 3647 2328 
Q 3647 1150 3233 529 
Q 2819 -91 2034 -91 
Q 1250 -91 836 529 
Q 422 1150 422 2328 
Q 422 3509 836 4129 
Q 1250 4750 2034 4750 
z
" transform="scale(0.015625)"/>
       </defs>
       <use xlink:href="#DejaVuSans-30"/>
      </g>
     </g>
    </g>
    <g id="xtick_2">
     <g id="line2d_2">
      <g>
       <use xlink:href="#me8d82925d5" x="140.098295" y="300.196562" style="stroke: #000000; stroke-width: 0.8"/>
      </g>
     </g>
     <g id="text_2">
      <!-- 10 -->
      <g transform="translate(133.735795 314.795) scale(0.1 -0.1)">
       <defs>
        <path id="DejaVuSans-31" d="M 794 531 
L 1825 531 
L 1825 4091 
L 703 3866 
L 703 4441 
L 1819 4666 
L 2450 4666 
L 2450 531 
L 3481 531 
L 3481 0 
L 794 0 
L 794 531 
z
" transform="scale(0.015625)"/>
       </defs>
       <use xlink:href="#DejaVuSans-31"/>
       <use xlink:href="#DejaVuSans-30" transform="translate(63.623047 0)"/>
      </g>
     </g>
    </g>
    <g id="xtick_3">
     <g id="line2d_3">
      <g>
       <use xlink:href="#me8d82925d5" x="212.061932" y="300.196562" style="stroke: #000000; stroke-width: 0.8"/>
      </g>
     </g>
     <g id="text_3">
      <!-- 20 -->
      <g transform="translate(205.699432 314.795) scale(0.1 -0.1)">
       <defs>
        <path id="DejaVuSans-32" d="M 1228 531 
L 3431 531 
L 3431 0 
L 469 0 
L 469 531 
Q 828 903 1448 1529 
Q 2069 2156 2228 2338 
Q 2531 2678 2651 2914 
Q 2772 3150 2772 3378 
Q 2772 3750 2511 3984 
Q 2250 4219 1831 4219 
Q 1534 4219 1204 4116 
Q 875 4013 500 3803 
L 500 4441 
Q 881 4594 1212 4672 
Q 1544 4750 1819 4750 
Q 2544 4750 2975 4387 
Q 3406 4025 3406 3419 
Q 3406 3131 3298 2873 
Q 3191 2616 2906 2266 
Q 2828 2175 2409 1742 
Q 1991 1309 1228 531 
z
" transform="scale(0.015625)"/>
       </defs>
       <use xlink:href="#DejaVuSans-32"/>
       <use xlink:href="#DejaVuSans-30" transform="translate(63.623047 0)"/>
      </g>
     </g>
    </g>
    <g id="xtick_4">
     <g id="line2d_4">
      <g>
       <use xlink:href="#me8d82925d5" x="284.025568" y="300.196562" style="stroke: #000000; stroke-width: 0.8"/>
      </g>
     </g>
     <g id="text_4">
      <!-- 30 -->
      <g transform="translate(277.663068 314.795) scale(0.1 -0.1)">
       <defs>
        <path id="DejaVuSans-33" d="M 2597 2516 
Q 3050 2419 3304 2112 
Q 3559 1806 3559 1356 
Q 3559 666 3084 287 
Q 2609 -91 1734 -91 
Q 1441 -91 1130 -33 
Q 819 25 488 141 
L 488 750 
Q 750 597 1062 519 
Q 1375 441 1716 441 
Q 2309 441 2620 675 
Q 2931 909 2931 1356 
Q 2931 1769 2642 2001 
Q 2353 2234 1838 2234 
L 1294 2234 
L 1294 2753 
L 1863 2753 
Q 2328 2753 2575 2939 
Q 2822 3125 2822 3475 
Q 2822 3834 2567 4026 
Q 2313 4219 1838 4219 
Q 1578 4219 1281 4162 
Q 984 4106 628 3988 
L 628 4550 
Q 988 4650 1302 4700 
Q 1616 4750 1894 4750 
Q 2613 4750 3031 4423 
Q 3450 4097 3450 3541 
Q 3450 3153 3228 2886 
Q 3006 2619 2597 2516 
z
" transform="scale(0.015625)"/>
       </defs>
       <use xlink:href="#DejaVuSans-33"/>
       <use xlink:href="#DejaVuSans-30" transform="translate(63.623047 0)"/>
      </g>
     </g>
    </g>
    <g id="xtick_5">
     <g id="line2d_5">
      <g>
       <use xlink:href="#me8d82925d5" x="355.989205" y="300.196562" style="stroke: #000000; stroke-width: 0.8"/>
      </g>
     </g>
     <g id="text_5">
      <!-- 40 -->
      <g transform="translate(349.626705 314.795) scale(0.1 -0.1)">
       <defs>
        <path id="DejaVuSans-34" d="M 2419 4116 
L 825 1625 
L 2419 1625 
L 2419 4116 
z
M 2253 4666 
L 3047 4666 
L 3047 1625 
L 3713 1625 
L 3713 1100 
L 3047 1100 
L 3047 0 
L 2419 0 
L 2419 1100 
L 313 1100 
L 313 1709 
L 2253 4666 
z
" transform="scale(0.015625)"/>
       </defs>
       <use xlink:href="#DejaVuSans-34"/>
       <use xlink:href="#DejaVuSans-30" transform="translate(63.623047 0)"/>
      </g>
     </g>
    </g>
    <g id="xtick_6">
     <g id="line2d_6">
      <g>
       <use xlink:href="#me8d82925d5" x="427.952841" y="300.196562" style="stroke: #000000; stroke-width: 0.8"/>
      </g>
     </g>
     <g id="text_6">
      <!-- 50 -->
      <g transform="translate(421.590341 314.795) scale(0.1 -0.1)">
       <defs>
        <path id="DejaVuSans-35" d="M 691 4666 
L 3169 4666 
L 3169 4134 
L 1269 4134 
L 1269 2991 
Q 1406 3038 1543 3061 
Q 1681 3084 1819 3084 
Q 2600 3084 3056 2656 
Q 3513 2228 3513 1497 
Q 3513 744 3044 326 
Q 2575 -91 1722 -91 
Q 1428 -91 1123 -41 
Q 819 9 494 109 
L 494 744 
Q 775 591 1075 516 
Q 1375 441 1709 441 
Q 2250 441 2565 725 
Q 2881 1009 2881 1497 
Q 2881 1984 2565 2268 
Q 2250 2553 1709 2553 
Q 1456 2553 1204 2497 
Q 953 2441 691 2322 
L 691 4666 
z
" transform="scale(0.015625)"/>
       </defs>
       <use xlink:href="#DejaVuSans-35"/>
       <use xlink:href="#DejaVuSans-30" transform="translate(63.623047 0)"/>
      </g>
     </g>
    </g>
    <g id="text_7">
     <!-- Iteration -->
     <g transform="translate(226.835156 328.473125) scale(0.1 -0.1)">
      <defs>
       <path id="DejaVuSans-49" d="M 628 4666 
L 1259 4666 
L 1259 0 
L 628 0 
L 628 4666 
z
" transform="scale(0.015625)"/>
       <path id="DejaVuSans-74" d="M 1172 4494 
L 1172 3500 
L 2356 3500 
L 2356 3053 
L 1172 3053 
L 1172 1153 
Q 1172 725 1289 603 
Q 1406 481 1766 481 
L 2356 481 
L 2356 0 
L 1766 0 
Q 1100 0 847 248 
Q 594 497 594 1153 
L 594 3053 
L 172 3053 
L 172 3500 
L 594 3500 
L 594 4494 
L 1172 4494 
z
" transform="scale(0.015625)"/>
       <path id="DejaVuSans-65" d="M 3597 1894 
L 3597 1613 
L 953 1613 
Q 991 1019 1311 708 
Q 1631 397 2203 397 
Q 2534 397 2845 478 
Q 3156 559 3463 722 
L 3463 178 
Q 3153 47 2828 -22 
Q 2503 -91 2169 -91 
Q 1331 -91 842 396 
Q 353 884 353 1716 
Q 353 2575 817 3079 
Q 1281 3584 2069 3584 
Q 2775 3584 3186 3129 
Q 3597 2675 3597 1894 
z
M 3022 2063 
Q 3016 2534 2758 2815 
Q 2500 3097 2075 3097 
Q 1594 3097 1305 2825 
Q 1016 2553 972 2059 
L 3022 2063 
z
" transform="scale(0.015625)"/>
       <path id="DejaVuSans-72" d="M 2631 2963 
Q 2534 3019 2420 3045 
Q 2306 3072 2169 3072 
Q 1681 3072 1420 2755 
Q 1159 2438 1159 1844 
L 1159 0 
L 581 0 
L 581 3500 
L 1159 3500 
L 1159 2956 
Q 1341 3275 1631 3429 
Q 1922 3584 2338 3584 
Q 2397 3584 2469 3576 
Q 2541 3569 2628 3553 
L 2631 2963 
z
" transform="scale(0.015625)"/>
       <path id="DejaVuSans-61" d="M 2194 1759 
Q 1497 1759 1228 1600 
Q 959 1441 959 1056 
Q 959 750 1161 570 
Q 1363 391 1709 391 
Q 2188 391 2477 730 
Q 2766 1069 2766 1631 
L 2766 1759 
L 2194 1759 
z
M 3341 1997 
L 3341 0 
L 2766 0 
L 2766 531 
Q 2569 213 2275 61 
Q 1981 -91 1556 -91 
Q 1019 -91 701 211 
Q 384 513 384 1019 
Q 384 1609 779 1909 
Q 1175 2209 1959 2209 
L 2766 2209 
L 2766 2266 
Q 2766 2663 2505 2880 
Q 2244 3097 1772 3097 
Q 1472 3097 1187 3025 
Q 903 2953 641 2809 
L 641 3341 
Q 956 3463 1253 3523 
Q 1550 3584 1831 3584 
Q 2591 3584 2966 3190 
Q 3341 2797 3341 1997 
z
" transform="scale(0.015625)"/>
       <path id="DejaVuSans-69" d="M 603 3500 
L 1178 3500 
L 1178 0 
L 603 0 
L 603 3500 
z
M 603 4863 
L 1178 4863 
L 1178 4134 
L 603 4134 
L 603 4863 
z
" transform="scale(0.015625)"/>
       <path id="DejaVuSans-6f" d="M 1959 3097 
Q 1497 3097 1228 2736 
Q 959 2375 959 1747 
Q 959 1119 1226 758 
Q 1494 397 1959 397 
Q 2419 397 2687 759 
Q 2956 1122 2956 1747 
Q 2956 2369 2687 2733 
Q 2419 3097 1959 3097 
z
M 1959 3584 
Q 2709 3584 3137 3096 
Q 3566 2609 3566 1747 
Q 3566 888 3137 398 
Q 2709 -91 1959 -91 
Q 1206 -91 779 398 
Q 353 888 353 1747 
Q 353 2609 779 3096 
Q 1206 3584 1959 3584 
z
" transform="scale(0.015625)"/>
       <path id="DejaVuSans-6e" d="M 3513 2113 
L 3513 0 
L 2938 0 
L 2938 2094 
Q 2938 2591 2744 2837 
Q 2550 3084 2163 3084 
Q 1697 3084 1428 2787 
Q 1159 2491 1159 1978 
L 1159 0 
L 581 0 
L 581 3500 
L 1159 3500 
L 1159 2956 
Q 1366 3272 1645 3428 
Q 1925 3584 2291 3584 
Q 2894 3584 3203 3211 
Q 3513 2838 3513 2113 
z
" transform="scale(0.015625)"/>
      </defs>
      <use xlink:href="#DejaVuSans-49"/>
      <use xlink:href="#DejaVuSans-74" transform="translate(29.492188 0)"/>
      <use xlink:href="#DejaVuSans-65" transform="translate(68.701172 0)"/>
      <use xlink:href="#DejaVuSans-72" transform="translate(130.224609 0)"/>
      <use xlink:href="#DejaVuSans-61" transform="translate(171.337891 0)"/>
      <use xlink:href="#DejaVuSans-74" transform="translate(232.617188 0)"/>
      <use xlink:href="#DejaVuSans-69" transform="translate(271.826172 0)"/>
      <use xlink:href="#DejaVuSans-6f" transform="translate(299.609375 0)"/>
      <use xlink:href="#DejaVuSans-6e" transform="translate(360.791016 0)"/>
     </g>
    </g>
   </g>
   <g id="matplotlib.axis_2">
    <g id="ytick_1">
     <g id="line2d_7">
      <defs>
       <path id="mcedebc1c77" d="M 0 0 
L -3.5 0 
" style="stroke: #000000; stroke-width: 0.8"/>
      </defs>
      <g>
       <use xlink:href="#mcedebc1c77" x="50.14375" y="255.645596" style="stroke: #000000; stroke-width: 0.8"/>
      </g>
     </g>
     <g id="text_8">
      <!-- 1.12 -->
      <g transform="translate(20.878125 259.444815) scale(0.1 -0.1)">
       <defs>
        <path id="DejaVuSans-2e" d="M 684 794 
L 1344 794 
L 1344 0 
L 684 0 
L 684 794 
z
" transform="scale(0.015625)"/>
       </defs>
       <use xlink:href="#DejaVuSans-31"/>
       <use xlink:href="#DejaVuSans-2e" transform="translate(63.623047 0)"/>
       <use xlink:href="#DejaVuSans-31" transform="translate(95.410156 0)"/>
       <use xlink:href="#DejaVuSans-32" transform="translate(159.033203 0)"/>
      </g>
     </g>
    </g>
    <g id="ytick_2">
     <g id="line2d_8">
      <g>
       <use xlink:href="#mcedebc1c77" x="50.14375" y="204.987294" style="stroke: #000000; stroke-width: 0.8"/>
      </g>
     </g>
     <g id="text_9">
      <!-- 1.13 -->
      <g transform="translate(20.878125 208.786513) scale(0.1 -0.1)">
       <use xlink:href="#DejaVuSans-31"/>
       <use xlink:href="#DejaVuSans-2e" transform="translate(63.623047 0)"/>
       <use xlink:href="#DejaVuSans-31" transform="translate(95.410156 0)"/>
       <use xlink:href="#DejaVuSans-33" transform="translate(159.033203 0)"/>
      </g>
     </g>
    </g>
    <g id="ytick_3">
     <g id="line2d_9">
      <g>
       <use xlink:href="#mcedebc1c77" x="50.14375" y="154.328992" style="stroke: #000000; stroke-width: 0.8"/>
      </g>
     </g>
     <g id="text_10">
      <!-- 1.14 -->
      <g transform="translate(20.878125 158.128211) scale(0.1 -0.1)">
       <use xlink:href="#DejaVuSans-31"/>
       <use xlink:href="#DejaVuSans-2e" transform="translate(63.623047 0)"/>
       <use xlink:href="#DejaVuSans-31" transform="translate(95.410156 0)"/>
       <use xlink:href="#DejaVuSans-34" transform="translate(159.033203 0)"/>
      </g>
     </g>
    </g>
    <g id="ytick_4">
     <g id="line2d_10">
      <g>
       <use xlink:href="#mcedebc1c77" x="50.14375" y="103.670691" style="stroke: #000000; stroke-width: 0.8"/>
      </g>
     </g>
     <g id="text_11">
      <!-- 1.15 -->
      <g transform="translate(20.878125 107.469909) scale(0.1 -0.1)">
       <use xlink:href="#DejaVuSans-31"/>
       <use xlink:href="#DejaVuSans-2e" transform="translate(63.623047 0)"/>
       <use xlink:href="#DejaVuSans-31" transform="translate(95.410156 0)"/>
       <use xlink:href="#DejaVuSans-35" transform="translate(159.033203 0)"/>
      </g>
     </g>
    </g>
    <g id="ytick_5">
     <g id="line2d_11">
      <g>
       <use xlink:href="#mcedebc1c77" x="50.14375" y="53.012389" style="stroke: #000000; stroke-width: 0.8"/>
      </g>
     </g>
     <g id="text_12">
      <!-- 1.16 -->
      <g transform="translate(20.878125 56.811607) scale(0.1 -0.1)">
       <defs>
        <path id="DejaVuSans-36" d="M 2113 2584 
Q 1688 2584 1439 2293 
Q 1191 2003 1191 1497 
Q 1191 994 1439 701 
Q 1688 409 2113 409 
Q 2538 409 2786 701 
Q 3034 994 3034 1497 
Q 3034 2003 2786 2293 
Q 2538 2584 2113 2584 
z
M 3366 4563 
L 3366 3988 
Q 3128 4100 2886 4159 
Q 2644 4219 2406 4219 
Q 1781 4219 1451 3797 
Q 1122 3375 1075 2522 
Q 1259 2794 1537 2939 
Q 1816 3084 2150 3084 
Q 2853 3084 3261 2657 
Q 3669 2231 3669 1497 
Q 3669 778 3244 343 
Q 2819 -91 2113 -91 
Q 1303 -91 875 529 
Q 447 1150 447 2328 
Q 447 3434 972 4092 
Q 1497 4750 2381 4750 
Q 2619 4750 2861 4703 
Q 3103 4656 3366 4563 
z
" transform="scale(0.015625)"/>
       </defs>
       <use xlink:href="#DejaVuSans-31"/>
       <use xlink:href="#DejaVuSans-2e" transform="translate(63.623047 0)"/>
       <use xlink:href="#DejaVuSans-31" transform="translate(95.410156 0)"/>
       <use xlink:href="#DejaVuSans-36" transform="translate(159.033203 0)"/>
      </g>
     </g>
    </g>
    <g id="text_13">
     <!-- Value -->
     <g transform="translate(14.798438 180.287812) rotate(-90) scale(0.1 -0.1)">
      <defs>
       <path id="DejaVuSans-56" d="M 1831 0 
L 50 4666 
L 709 4666 
L 2188 738 
L 3669 4666 
L 4325 4666 
L 2547 0 
L 1831 0 
z
" transform="scale(0.015625)"/>
       <path id="DejaVuSans-6c" d="M 603 4863 
L 1178 4863 
L 1178 0 
L 603 0 
L 603 4863 
z
" transform="scale(0.015625)"/>
       <path id="DejaVuSans-75" d="M 544 1381 
L 544 3500 
L 1119 3500 
L 1119 1403 
Q 1119 906 1312 657 
Q 1506 409 1894 409 
Q 2359 409 2629 706 
Q 2900 1003 2900 1516 
L 2900 3500 
L 3475 3500 
L 3475 0 
L 2900 0 
L 2900 538 
Q 2691 219 2414 64 
Q 2138 -91 1772 -91 
Q 1169 -91 856 284 
Q 544 659 544 1381 
z
M 1991 3584 
L 1991 3584 
z
" transform="scale(0.015625)"/>
      </defs>
      <use xlink:href="#DejaVuSans-56"/>
      <use xlink:href="#DejaVuSans-61" transform="translate(60.658203 0)"/>
      <use xlink:href="#DejaVuSans-6c" transform="translate(121.9375 0)"/>
      <use xlink:href="#DejaVuSans-75" transform="translate(149.720703 0)"/>
      <use xlink:href="#DejaVuSans-65" transform="translate(213.099609 0)"/>
     </g>
    </g>
    <g id="text_14">
     <!-- 1e9 -->
     <g transform="translate(50.14375 29.916562) scale(0.1 -0.1)">
      <defs>
       <path id="DejaVuSans-39" d="M 703 97 
L 703 672 
Q 941 559 1184 500 
Q 1428 441 1663 441 
Q 2288 441 2617 861 
Q 2947 1281 2994 2138 
Q 2813 1869 2534 1725 
Q 2256 1581 1919 1581 
Q 1219 1581 811 2004 
Q 403 2428 403 3163 
Q 403 3881 828 4315 
Q 1253 4750 1959 4750 
Q 2769 4750 3195 4129 
Q 3622 3509 3622 2328 
Q 3622 1225 3098 567 
Q 2575 -91 1691 -91 
Q 1453 -91 1209 -44 
Q 966 3 703 97 
z
M 1959 2075 
Q 2384 2075 2632 2365 
Q 2881 2656 2881 3163 
Q 2881 3666 2632 3958 
Q 2384 4250 1959 4250 
Q 1534 4250 1286 3958 
Q 1038 3666 1038 3163 
Q 1038 2656 1286 2365 
Q 1534 2075 1959 2075 
z
" transform="scale(0.015625)"/>
      </defs>
      <use xlink:href="#DejaVuSans-31"/>
      <use xlink:href="#DejaVuSans-65" transform="translate(63.623047 0)"/>
      <use xlink:href="#DejaVuSans-39" transform="translate(125.146484 0)"/>
     </g>
    </g>
   </g>
   <g id="line2d_12">
    <path d="M 68.134659 212.211707 
L 75.331023 230.558021 
L 82.527386 204.064728 
L 89.72375 197.758321 
L 96.920114 206.614954 
L 104.116477 196.308728 
L 111.312841 195.772985 
L 118.509205 183.957275 
L 125.705568 174.00463 
L 132.901932 166.167667 
L 140.098295 159.310178 
L 147.294659 157.117163 
L 154.491023 146.90937 
L 161.687386 145.091658 
L 168.88375 138.280436 
L 176.080114 139.726067 
L 183.276477 140.373953 
L 190.472841 138.558368 
L 197.669205 129.16392 
L 204.865568 129.705985 
L 212.061932 123.909236 
L 219.258295 161.150996 
L 226.454659 170.086968 
L 233.651023 148.675875 
L 240.847386 153.547722 
L 248.04375 138.583611 
L 255.240114 144.457725 
L 262.436477 133.363384 
L 269.632841 138.544848 
L 276.829205 129.246245 
L 284.025568 132.923079 
L 291.221932 121.915293 
L 298.418295 120.3177 
L 305.614659 110.157708 
L 312.811023 136.930517 
L 320.007386 145.46373 
L 327.20375 125.26218 
L 334.400114 137.101995 
L 341.596477 120.624925 
L 348.792841 131.216641 
L 355.989205 114.731857 
L 363.185568 126.441265 
L 370.381932 108.202788 
L 377.578295 121.047597 
L 384.774659 101.849975 
L 391.971023 117.731746 
L 399.167386 95.620289 
L 406.36375 119.4865 
L 413.560114 145.383387 
L 420.756477 111.75293 
L 427.952841 87.563357 
" clip-path="url(#pe5c18cc9a3)" style="fill: none; stroke: #1f77b4; stroke-opacity: 0.2; stroke-width: 1.2; stroke-linecap: square"/>
   </g>
   <g id="line2d_13">
    <path d="M 68.134659 212.211707 
L 75.331023 212.211707 
L 82.527386 204.064728 
L 89.72375 197.758321 
L 96.920114 197.758321 
L 104.116477 196.308728 
L 111.312841 195.772985 
L 118.509205 183.957275 
L 125.705568 174.00463 
L 132.901932 166.167667 
L 140.098295 159.310178 
L 147.294659 157.117163 
L 154.491023 146.90937 
L 161.687386 145.091658 
L 168.88375 138.280436 
L 176.080114 138.280436 
L 183.276477 138.280436 
L 190.472841 138.280436 
L 197.669205 129.16392 
L 204.865568 129.16392 
L 212.061932 123.909236 
L 219.258295 123.909236 
L 226.454659 123.909236 
L 233.651023 123.909236 
L 240.847386 123.909236 
L 248.04375 123.909236 
L 255.240114 123.909236 
L 262.436477 123.909236 
L 269.632841 123.909236 
L 276.829205 123.909236 
L 284.025568 123.909236 
L 291.221932 121.915293 
L 298.418295 120.3177 
L 305.614659 110.157708 
L 312.811023 110.157708 
L 320.007386 110.157708 
L 327.20375 110.157708 
L 334.400114 110.157708 
L 341.596477 110.157708 
L 348.792841 110.157708 
L 355.989205 110.157708 
L 363.185568 110.157708 
L 370.381932 108.202788 
L 377.578295 108.202788 
L 384.774659 101.849975 
L 391.971023 101.849975 
L 399.167386 95.620289 
L 406.36375 95.620289 
L 413.560114 95.620289 
L 420.756477 95.620289 
L 427.952841 87.563357 
" clip-path="url(#pe5c18cc9a3)" style="fill: none; stroke: #1f77b4; stroke-width: 2.4; stroke-linecap: square"/>
   </g>
   <g id="line2d_14">
    <path d="M 68.134659 212.211707 
L 75.331023 260.14969 
L 82.527386 202.305236 
L 89.72375 197.509033 
L 96.920114 185.159097 
L 104.116477 188.192243 
L 111.312841 171.754478 
L 118.509205 175.426065 
L 125.705568 152.944618 
L 132.901932 157.33313 
L 140.098295 139.219686 
L 147.294659 124.484254 
L 154.491023 117.535342 
L 161.687386 107.545137 
L 168.88375 102.461015 
L 176.080114 94.538578 
L 183.276477 93.475951 
L 190.472841 85.977175 
L 197.669205 83.446602 
L 204.865568 78.767386 
L 212.061932 76.628774 
L 219.258295 72.748383 
L 226.454659 68.273849 
L 233.651023 70.61448 
L 240.847386 65.489234 
L 248.04375 66.53903 
L 255.240114 63.225119 
L 262.436477 63.84592 
L 269.632841 61.479051 
L 276.829205 61.67072 
L 284.025568 139.178994 
L 291.221932 108.616208 
L 298.418295 127.136775 
L 305.614659 83.342523 
L 312.811023 105.743471 
L 320.007386 142.057724 
L 327.20375 65.42823 
L 334.400114 58.069852 
L 341.596477 61.635554 
L 348.792841 55.982965 
L 355.989205 59.997318 
L 363.185568 54.954083 
L 370.381932 59.095827 
L 377.578295 54.695041 
L 384.774659 58.695314 
L 391.971023 54.612344 
L 399.167386 58.418126 
L 406.36375 54.662373 
L 413.560114 159.529472 
L 420.756477 129.088646 
L 427.952841 136.768911 
" clip-path="url(#pe5c18cc9a3)" style="fill: none; stroke: #ff7f0e; stroke-opacity: 0.2; stroke-width: 1.2; stroke-linecap: square"/>
   </g>
   <g id="line2d_15">
    <path d="M 68.134659 212.211707 
L 75.331023 212.211707 
L 82.527386 202.305236 
L 89.72375 197.509033 
L 96.920114 185.159097 
L 104.116477 185.159097 
L 111.312841 171.754478 
L 118.509205 171.754478 
L 125.705568 152.944618 
L 132.901932 152.944618 
L 140.098295 139.219686 
L 147.294659 124.484254 
L 154.491023 117.535342 
L 161.687386 107.545137 
L 168.88375 102.461015 
L 176.080114 94.538578 
L 183.276477 93.475951 
L 190.472841 85.977175 
L 197.669205 83.446602 
L 204.865568 78.767386 
L 212.061932 76.628774 
L 219.258295 72.748383 
L 226.454659 68.273849 
L 233.651023 68.273849 
L 240.847386 65.489234 
L 248.04375 65.489234 
L 255.240114 63.225119 
L 262.436477 63.225119 
L 269.632841 61.479051 
L 276.829205 61.479051 
L 284.025568 61.479051 
L 291.221932 61.479051 
L 298.418295 61.479051 
L 305.614659 61.479051 
L 312.811023 61.479051 
L 320.007386 61.479051 
L 327.20375 61.479051 
L 334.400114 58.069852 
L 341.596477 58.069852 
L 348.792841 55.982965 
L 355.989205 55.982965 
L 363.185568 54.954083 
L 370.381932 54.954083 
L 377.578295 54.695041 
L 384.774659 54.695041 
L 391.971023 54.612344 
L 399.167386 54.612344 
L 406.36375 54.612344 
L 413.560114 54.612344 
L 420.756477 54.612344 
L 427.952841 54.612344 
" clip-path="url(#pe5c18cc9a3)" style="fill: none; stroke: #ff7f0e; stroke-width: 2.4; stroke-linecap: square"/>
   </g>
   <g id="line2d_16">
    <path d="M 68.134659 212.211707 
L 75.331023 288.047472 
L 82.527386 201.3293 
L 89.72375 180.573997 
L 96.920114 191.887724 
L 104.116477 180.717557 
L 111.312841 164.885875 
L 118.509205 187.197267 
L 125.705568 146.864614 
L 132.901932 156.648505 
L 140.098295 139.374234 
L 147.294659 123.797667 
L 154.491023 102.710401 
L 161.687386 101.592602 
L 168.88375 85.53042 
L 176.080114 86.518902 
L 183.276477 72.298469 
L 190.472841 74.33791 
L 197.669205 65.211617 
L 204.865568 96.057849 
L 212.061932 120.422083 
L 219.258295 86.446226 
L 226.454659 100.0427 
L 233.651023 142.783211 
L 240.847386 164.663038 
L 248.04375 133.380613 
L 255.240114 131.597063 
L 262.436477 113.398023 
L 269.632841 111.310424 
L 276.829205 115.186015 
L 284.025568 101.953027 
L 291.221932 79.378086 
L 298.418295 85.81913 
L 305.614659 59.063083 
L 312.811023 49.330138 
L 320.007386 53.602956 
L 327.20375 113.153946 
L 334.400114 80.771136 
L 341.596477 58.320306 
L 348.792841 105.32184 
L 355.989205 95.020139 
L 363.185568 57.138711 
L 370.381932 80.933549 
L 377.578295 79.298897 
L 384.774659 94.838795 
L 391.971023 81.747424 
L 399.167386 52.90302 
L 406.36375 80.484749 
L 413.560114 68.656613 
L 420.756477 45.170713 
L 427.952841 45.065653 
" clip-path="url(#pe5c18cc9a3)" style="fill: none; stroke: #2ca02c; stroke-opacity: 0.2; stroke-width: 1.2; stroke-linecap: square"/>
   </g>
   <g id="line2d_17">
    <path d="M 68.134659 212.211707 
L 75.331023 212.211707 
L 82.527386 201.3293 
L 89.72375 180.573997 
L 96.920114 180.573997 
L 104.116477 180.573997 
L 111.312841 164.885875 
L 118.509205 164.885875 
L 125.705568 146.864614 
L 132.901932 146.864614 
L 140.098295 139.374234 
L 147.294659 123.797667 
L 154.491023 102.710401 
L 161.687386 101.592602 
L 168.88375 85.53042 
L 176.080114 85.53042 
L 183.276477 72.298469 
L 190.472841 72.298469 
L 197.669205 65.211617 
L 204.865568 65.211617 
L 212.061932 65.211617 
L 219.258295 65.211617 
L 226.454659 65.211617 
L 233.651023 65.211617 
L 240.847386 65.211617 
L 248.04375 65.211617 
L 255.240114 65.211617 
L 262.436477 65.211617 
L 269.632841 65.211617 
L 276.829205 65.211617 
L 284.025568 65.211617 
L 291.221932 65.211617 
L 298.418295 65.211617 
L 305.614659 59.063083 
L 312.811023 49.330138 
L 320.007386 49.330138 
L 327.20375 49.330138 
L 334.400114 49.330138 
L 341.596477 49.330138 
L 348.792841 49.330138 
L 355.989205 49.330138 
L 363.185568 49.330138 
L 370.381932 49.330138 
L 377.578295 49.330138 
L 384.774659 49.330138 
L 391.971023 49.330138 
L 399.167386 49.330138 
L 406.36375 49.330138 
L 413.560114 49.330138 
L 420.756477 45.170713 
L 427.952841 45.065653 
" clip-path="url(#pe5c18cc9a3)" style="fill: none; stroke: #2ca02c; stroke-width: 2.4; stroke-linecap: square"/>
   </g>
   <g id="patch_3">
    <path d="M 50.14375 300.196562 
L 50.14375 32.916562 
" style="fill: none; stroke: #000000; stroke-width: 0.8; stroke-linejoin: miter; stroke-linecap: square"/>
   </g>
   <g id="patch_4">
    <path d="M 445.94375 300.196562 
L 445.94375 32.916562 
" style="fill: none; stroke: #000000; stroke-width: 0.8; stroke-linejoin: miter; stroke-linecap: square"/>
   </g>
   <g id="patch_5">
    <path d="M 50.14375 300.196562 
L 445.94375 300.196562 
" style="fill: none; stroke: #000000; stroke-width: 0.8; stroke-linejoin: miter; stroke-linecap: square"/>
   </g>
   <g id="patch_6">
    <path d="M 50.14375 32.916562 
L 445.94375 32.916562 
" style="fill: none; stroke: #000000; stroke-width: 0.8; stroke-linejoin: miter; stroke-linecap: square"/>
   </g>
   <g id="text_15">
    <!-- Dual convergence across Polyak settings (T=72, window=24) -->
    <g transform="translate(63.225 16.318125) scale(0.12 -0.12)">
     <defs>
      <path id="DejaVuSans-44" d="M 1259 4147 
L 1259 519 
L 2022 519 
Q 2988 519 3436 956 
Q 3884 1394 3884 2338 
Q 3884 3275 3436 3711 
Q 2988 4147 2022 4147 
L 1259 4147 
z
M 628 4666 
L 1925 4666 
Q 3281 4666 3915 4102 
Q 4550 3538 4550 2338 
Q 4550 1131 3912 565 
Q 3275 0 1925 0 
L 628 0 
L 628 4666 
z
" transform="scale(0.015625)"/>
      <path id="DejaVuSans-20" transform="scale(0.015625)"/>
      <path id="DejaVuSans-63" d="M 3122 3366 
L 3122 2828 
Q 2878 2963 2633 3030 
Q 2388 3097 2138 3097 
Q 1578 3097 1268 2742 
Q 959 2388 959 1747 
Q 959 1106 1268 751 
Q 1578 397 2138 397 
Q 2388 397 2633 464 
Q 2878 531 3122 666 
L 3122 134 
Q 2881 22 2623 -34 
Q 2366 -91 2075 -91 
Q 1284 -91 818 406 
Q 353 903 353 1747 
Q 353 2603 823 3093 
Q 1294 3584 2113 3584 
Q 2378 3584 2631 3529 
Q 2884 3475 3122 3366 
z
" transform="scale(0.015625)"/>
      <path id="DejaVuSans-76" d="M 191 3500 
L 800 3500 
L 1894 563 
L 2988 3500 
L 3597 3500 
L 2284 0 
L 1503 0 
L 191 3500 
z
" transform="scale(0.015625)"/>
      <path id="DejaVuSans-67" d="M 2906 1791 
Q 2906 2416 2648 2759 
Q 2391 3103 1925 3103 
Q 1463 3103 1205 2759 
Q 947 2416 947 1791 
Q 947 1169 1205 825 
Q 1463 481 1925 481 
Q 2391 481 2648 825 
Q 2906 1169 2906 1791 
z
M 3481 434 
Q 3481 -459 3084 -895 
Q 2688 -1331 1869 -1331 
Q 1566 -1331 1297 -1286 
Q 1028 -1241 775 -1147 
L 775 -588 
Q 1028 -725 1275 -790 
Q 1522 -856 1778 -856 
Q 2344 -856 2625 -561 
Q 2906 -266 2906 331 
L 2906 616 
Q 2728 306 2450 153 
Q 2172 0 1784 0 
Q 1141 0 747 490 
Q 353 981 353 1791 
Q 353 2603 747 3093 
Q 1141 3584 1784 3584 
Q 2172 3584 2450 3431 
Q 2728 3278 2906 2969 
L 2906 3500 
L 3481 3500 
L 3481 434 
z
" transform="scale(0.015625)"/>
      <path id="DejaVuSans-73" d="M 2834 3397 
L 2834 2853 
Q 2591 2978 2328 3040 
Q 2066 3103 1784 3103 
Q 1356 3103 1142 2972 
Q 928 2841 928 2578 
Q 928 2378 1081 2264 
Q 1234 2150 1697 2047 
L 1894 2003 
Q 2506 1872 2764 1633 
Q 3022 1394 3022 966 
Q 3022 478 2636 193 
Q 2250 -91 1575 -91 
Q 1294 -91 989 -36 
Q 684 19 347 128 
L 347 722 
Q 666 556 975 473 
Q 1284 391 1588 391 
Q 1994 391 2212 530 
Q 2431 669 2431 922 
Q 2431 1156 2273 1281 
Q 2116 1406 1581 1522 
L 1381 1569 
Q 847 1681 609 1914 
Q 372 2147 372 2553 
Q 372 3047 722 3315 
Q 1072 3584 1716 3584 
Q 2034 3584 2315 3537 
Q 2597 3491 2834 3397 
z
" transform="scale(0.015625)"/>
      <path id="DejaVuSans-50" d="M 1259 4147 
L 1259 2394 
L 2053 2394 
Q 2494 2394 2734 2622 
Q 2975 2850 2975 3272 
Q 2975 3691 2734 3919 
Q 2494 4147 2053 4147 
L 1259 4147 
z
M 628 4666 
L 2053 4666 
Q 2838 4666 3239 4311 
Q 3641 3956 3641 3272 
Q 3641 2581 3239 2228 
Q 2838 1875 2053 1875 
L 1259 1875 
L 1259 0 
L 628 0 
L 628 4666 
z
" transform="scale(0.015625)"/>
      <path id="DejaVuSans-79" d="M 2059 -325 
Q 1816 -950 1584 -1140 
Q 1353 -1331 966 -1331 
L 506 -1331 
L 506 -850 
L 844 -850 
Q 1081 -850 1212 -737 
Q 1344 -625 1503 -206 
L 1606 56 
L 191 3500 
L 800 3500 
L 1894 763 
L 2988 3500 
L 3597 3500 
L 2059 -325 
z
" transform="scale(0.015625)"/>
      <path id="DejaVuSans-6b" d="M 581 4863 
L 1159 4863 
L 1159 1991 
L 2875 3500 
L 3609 3500 
L 1753 1863 
L 3688 0 
L 2938 0 
L 1159 1709 
L 1159 0 
L 581 0 
L 581 4863 
z
" transform="scale(0.015625)"/>
      <path id="DejaVuSans-28" d="M 1984 4856 
Q 1566 4138 1362 3434 
Q 1159 2731 1159 2009 
Q 1159 1288 1364 580 
Q 1569 -128 1984 -844 
L 1484 -844 
Q 1016 -109 783 600 
Q 550 1309 550 2009 
Q 550 2706 781 3412 
Q 1013 4119 1484 4856 
L 1984 4856 
z
" transform="scale(0.015625)"/>
      <path id="DejaVuSans-54" d="M -19 4666 
L 3928 4666 
L 3928 4134 
L 2272 4134 
L 2272 0 
L 1638 0 
L 1638 4134 
L -19 4134 
L -19 4666 
z
" transform="scale(0.015625)"/>
      <path id="DejaVuSans-3d" d="M 678 2906 
L 4684 2906 
L 4684 2381 
L 678 2381 
L 678 2906 
z
M 678 1631 
L 4684 1631 
L 4684 1100 
L 678 1100 
L 678 1631 
z
" transform="scale(0.015625)"/>
      <path id="DejaVuSans-37" d="M 525 4666 
L 3525 4666 
L 3525 4397 
L 1831 0 
L 1172 0 
L 2766 4134 
L 525 4134 
L 525 4666 
z
" transform="scale(0.015625)"/>
      <path id="DejaVuSans-2c" d="M 750 794 
L 1409 794 
L 1409 256 
L 897 -744 
L 494 -744 
L 750 256 
L 750 794 
z
" transform="scale(0.015625)"/>
      <path id="DejaVuSans-77" d="M 269 3500 
L 844 3500 
L 1563 769 
L 2278 3500 
L 2956 3500 
L 3675 769 
L 4391 3500 
L 4966 3500 
L 4050 0 
L 3372 0 
L 2619 2869 
L 1863 0 
L 1184 0 
L 269 3500 
z
" transform="scale(0.015625)"/>
      <path id="DejaVuSans-64" d="M 2906 2969 
L 2906 4863 
L 3481 4863 
L 3481 0 
L 2906 0 
L 2906 525 
Q 2725 213 2448 61 
Q 2172 -91 1784 -91 
Q 1150 -91 751 415 
Q 353 922 353 1747 
Q 353 2572 751 3078 
Q 1150 3584 1784 3584 
Q 2172 3584 2448 3432 
Q 2725 3281 2906 2969 
z
M 947 1747 
Q 947 1113 1208 752 
Q 1469 391 1925 391 
Q 2381 391 2643 752 
Q 2906 1113 2906 1747 
Q 2906 2381 2643 2742 
Q 2381 3103 1925 3103 
Q 1469 3103 1208 2742 
Q 947 2381 947 1747 
z
" transform="scale(0.015625)"/>
      <path id="DejaVuSans-29" d="M 513 4856 
L 1013 4856 
Q 1481 4119 1714 3412 
Q 1947 2706 1947 2009 
Q 1947 1309 1714 600 
Q 1481 -109 1013 -844 
L 513 -844 
Q 928 -128 1133 580 
Q 1338 1288 1338 2009 
Q 1338 2731 1133 3434 
Q 928 4138 513 4856 
z
" transform="scale(0.015625)"/>
     </defs>
     <use xlink:href="#DejaVuSans-44"/>
     <use xlink:href="#DejaVuSans-75" transform="translate(77.001953 0)"/>
     <use xlink:href="#DejaVuSans-61" transform="translate(140.380859 0)"/>
     <use xlink:href="#DejaVuSans-6c" transform="translate(201.660156 0)"/>
     <use xlink:href="#DejaVuSans-20" transform="translate(229.443359 0)"/>
     <use xlink:href="#DejaVuSans-63" transform="translate(261.230469 0)"/>
     <use xlink:href="#DejaVuSans-6f" transform="translate(316.210938 0)"/>
     <use xlink:href="#DejaVuSans-6e" transform="translate(377.392578 0)"/>
     <use xlink:href="#DejaVuSans-76" transform="translate(440.771484 0)"/>
     <use xlink:href="#DejaVuSans-65" transform="translate(499.951172 0)"/>
     <use xlink:href="#DejaVuSans-72" transform="translate(561.474609 0)"/>
     <use xlink:href="#DejaVuSans-67" transform="translate(600.837891 0)"/>
     <use xlink:href="#DejaVuSans-65" transform="translate(664.314453 0)"/>
     <use xlink:href="#DejaVuSans-6e" transform="translate(725.837891 0)"/>
     <use xlink:href="#DejaVuSans-63" transform="translate(789.216797 0)"/>
     <use xlink:href="#DejaVuSans-65" transform="translate(844.197266 0)"/>
     <use xlink:href="#DejaVuSans-20" transform="translate(905.720703 0)"/>
     <use xlink:href="#DejaVuSans-61" transform="translate(937.507812 0)"/>
     <use xlink:href="#DejaVuSans-63" transform="translate(998.787109 0)"/>
     <use xlink:href="#DejaVuSans-72" transform="translate(1053.767578 0)"/>
     <use xlink:href="#DejaVuSans-6f" transform="translate(1092.630859 0)"/>
     <use xlink:href="#DejaVuSans-73" transform="translate(1153.8125 0)"/>
     <use xlink:href="#DejaVuSans-73" transform="translate(1205.912109 0)"/>
     <use xlink:href="#DejaVuSans-20" transform="translate(1258.011719 0)"/>
     <use xlink:href="#DejaVuSans-50" transform="translate(1289.798828 0)"/>
     <use xlink:href="#DejaVuSans-6f" transform="translate(1346.476562 0)"/>
     <use xlink:href="#DejaVuSans-6c" transform="translate(1407.658203 0)"/>
     <use xlink:href="#DejaVuSans-79" transform="translate(1435.441406 0)"/>
     <use xlink:href="#DejaVuSans-61" transform="translate(1494.621094 0)"/>
     <use xlink:href="#DejaVuSans-6b" transform="translate(1555.900391 0)"/>
     <use xlink:href="#DejaVuSans-20" transform="translate(1613.810547 0)"/>
     <use xlink:href="#DejaVuSans-73" transform="translate(1645.597656 0)"/>
     <use xlink:href="#DejaVuSans-65" transform="translate(1697.697266 0)"/>
     <use xlink:href="#DejaVuSans-74" transform="translate(1759.220703 0)"/>
     <use xlink:href="#DejaVuSans-74" transform="translate(1798.429688 0)"/>
     <use xlink:href="#DejaVuSans-69" transform="translate(1837.638672 0)"/>
     <use xlink:href="#DejaVuSans-6e" transform="translate(1865.421875 0)"/>
     <use xlink:href="#DejaVuSans-67" transform="translate(1928.800781 0)"/>
     <use xlink:href="#DejaVuSans-73" transform="translate(1992.277344 0)"/>
     <use xlink:href="#DejaVuSans-20" transform="translate(2044.376953 0)"/>
     <use xlink:href="#DejaVuSans-28" transform="translate(2076.164062 0)"/>
     <use xlink:href="#DejaVuSans-54" transform="translate(2115.177734 0)"/>
     <use xlink:href="#DejaVuSans-3d" transform="translate(2176.261719 0)"/>
     <use xlink:href="#DejaVuSans-37" transform="translate(2260.050781 0)"/>
     <use xlink:href="#DejaVuSans-32" transform="translate(2323.673828 0)"/>
     <use xlink:href="#DejaVuSans-2c" transform="translate(2387.296875 0)"/>
     <use xlink:href="#DejaVuSans-20" transform="translate(2419.083984 0)"/>
     <use xlink:href="#DejaVuSans-77" transform="translate(2450.871094 0)"/>
     <use xlink:href="#DejaVuSans-69" transform="translate(2532.658203 0)"/>
     <use xlink:href="#DejaVuSans-6e" transform="translate(2560.441406 0)"/>
     <use xlink:href="#DejaVuSans-64" transform="translate(2623.820312 0)"/>
     <use xlink:href="#DejaVuSans-6f" transform="translate(2687.296875 0)"/>
     <use xlink:href="#DejaVuSans-77" transform="translate(2748.478516 0)"/>
     <use xlink:href="#DejaVuSans-3d" transform="translate(2830.265625 0)"/>
     <use xlink:href="#DejaVuSans-32" transform="translate(2914.054688 0)"/>
     <use xlink:href="#DejaVuSans-34" transform="translate(2977.677734 0)"/>
     <use xlink:href="#DejaVuSans-29" transform="translate(3041.300781 0)"/>
    </g>
   </g>
   <g id="legend_1">
    <g id="patch_7">
     <path d="M 341.456562 295.696562 
L 439.64375 295.696562 
Q 441.44375 295.696562 441.44375 293.896562 
L 441.44375 247.017812 
Q 441.44375 245.217812 439.64375 245.217812 
L 341.456562 245.217812 
Q 339.656562 245.217812 339.656562 247.017812 
L 339.656562 293.896562 
Q 339.656562 295.696562 341.456562 295.696562 
z
" style="fill: #ffffff; opacity: 0.9; stroke: #cccccc; stroke-linejoin: miter"/>
    </g>
    <g id="line2d_18">
     <path d="M 345.056562 255.822344 
L 354.056562 255.822344 
L 363.056562 255.822344 
" style="fill: none; stroke: #1f77b4; stroke-width: 2.4; stroke-linecap: square"/>
    </g>
    <g id="text_16">
     <!-- γ=0.2, ĥγ=1.0 -->
     <g transform="translate(370.256562 258.972344) scale(0.09 -0.09)">
      <defs>
       <path id="DejaVuSans-3b3" d="M 1128 2950 
L 1894 788 
L 2988 3500 
L 3597 3500 
L 2181 0 
L 2181 -1331 
L 1606 -1331 
L 1606 0 
L 688 2613 
Q 550 3006 253 3006 
L 100 3006 
L 100 3500 
L 319 3500 
Q 934 3500 1128 2950 
z
" transform="scale(0.015625)"/>
       <path id="DejaVuSans-125" d="M 575 5941 
L 1163 5941 
L 1822 5110 
L 1388 5110 
L 869 5666 
L 350 5110 
L -84 5110 
L 575 5941 
z
M 3513 2113 
L 3513 0 
L 2938 0 
L 2938 2094 
Q 2938 2591 2744 2837 
Q 2550 3084 2163 3084 
Q 1697 3084 1428 2787 
Q 1159 2491 1159 1978 
L 1159 0 
L 581 0 
L 581 4863 
L 1159 4863 
L 1159 2956 
Q 1366 3272 1645 3428 
Q 1925 3584 2291 3584 
Q 2894 3584 3203 3211 
Q 3513 2838 3513 2113 
z
" transform="scale(0.015625)"/>
      </defs>
      <use xlink:href="#DejaVuSans-3b3"/>
      <use xlink:href="#DejaVuSans-3d" transform="translate(59.179688 0)"/>
      <use xlink:href="#DejaVuSans-30" transform="translate(142.96875 0)"/>
      <use xlink:href="#DejaVuSans-2e" transform="translate(206.591797 0)"/>
      <use xlink:href="#DejaVuSans-32" transform="translate(238.378906 0)"/>
      <use xlink:href="#DejaVuSans-2c" transform="translate(302.001953 0)"/>
      <use xlink:href="#DejaVuSans-20" transform="translate(333.789062 0)"/>
      <use xlink:href="#DejaVuSans-125" transform="translate(365.576172 0)"/>
      <use xlink:href="#DejaVuSans-3b3" transform="translate(428.955078 0)"/>
      <use xlink:href="#DejaVuSans-3d" transform="translate(488.134766 0)"/>
      <use xlink:href="#DejaVuSans-31" transform="translate(571.923828 0)"/>
      <use xlink:href="#DejaVuSans-2e" transform="translate(635.546875 0)"/>
      <use xlink:href="#DejaVuSans-30" transform="translate(667.333984 0)"/>
     </g>
    </g>
    <g id="line2d_19">
     <path d="M 345.056562 270.548594 
L 354.056562 270.548594 
L 363.056562 270.548594 
" style="fill: none; stroke: #ff7f0e; stroke-width: 2.4; stroke-linecap: square"/>
    </g>
    <g id="text_17">
     <!-- γ=0.4, ĥγ=1.0 -->
     <g transform="translate(370.256562 273.698594) scale(0.09 -0.09)">
      <use xlink:href="#DejaVuSans-3b3"/>
      <use xlink:href="#DejaVuSans-3d" transform="translate(59.179688 0)"/>
      <use xlink:href="#DejaVuSans-30" transform="translate(142.96875 0)"/>
      <use xlink:href="#DejaVuSans-2e" transform="translate(206.591797 0)"/>
      <use xlink:href="#DejaVuSans-34" transform="translate(238.378906 0)"/>
      <use xlink:href="#DejaVuSans-2c" transform="translate(302.001953 0)"/>
      <use xlink:href="#DejaVuSans-20" transform="translate(333.789062 0)"/>
      <use xlink:href="#DejaVuSans-125" transform="translate(365.576172 0)"/>
      <use xlink:href="#DejaVuSans-3b3" transform="translate(428.955078 0)"/>
      <use xlink:href="#DejaVuSans-3d" transform="translate(488.134766 0)"/>
      <use xlink:href="#DejaVuSans-31" transform="translate(571.923828 0)"/>
      <use xlink:href="#DejaVuSans-2e" transform="translate(635.546875 0)"/>
      <use xlink:href="#DejaVuSans-30" transform="translate(667.333984 0)"/>
     </g>
    </g>
    <g id="line2d_20">
     <path d="M 345.056562 285.274844 
L 354.056562 285.274844 
L 363.056562 285.274844 
" style="fill: none; stroke: #2ca02c; stroke-width: 2.4; stroke-linecap: square"/>
    </g>
    <g id="text_18">
     <!-- γ=0.6, ĥγ=1.0 -->
     <g transform="translate(370.256562 288.424844) scale(0.09 -0.09)">
      <use xlink:href="#DejaVuSans-3b3"/>
      <use xlink:href="#DejaVuSans-3d" transform="translate(59.179688 0)"/>
      <use xlink:href="#DejaVuSans-30" transform="translate(142.96875 0)"/>
      <use xlink:href="#DejaVuSans-2e" transform="translate(206.591797 0)"/>
      <use xlink:href="#DejaVuSans-36" transform="translate(238.378906 0)"/>
      <use xlink:href="#DejaVuSans-2c" transform="translate(302.001953 0)"/>
      <use xlink:href="#DejaVuSans-20" transform="translate(333.789062 0)"/>
      <use xlink:href="#DejaVuSans-125" transform="translate(365.576172 0)"/>
      <use xlink:href="#DejaVuSans-3b3" transform="translate(428.955078 0)"/>
      <use xlink:href="#DejaVuSans-3d" transform="translate(488.134766 0)"/>
      <use xlink:href="#DejaVuSans-31" transform="translate(571.923828 0)"/>
      <use xlink:href="#DejaVuSans-2e" transform="translate(635.546875 0)"/>
      <use xlink:href="#DejaVuSans-30" transform="translate(667.333984 0)"/>
     </g>
    </g>
   </g>
  </g>
 </g>
 <defs>
  <clipPath id="pe5c18cc9a3">
   <rect x="50.14375" y="32.916562" width="395.8" height="267.28"/>
  </clipPath>
 </defs>
</svg>
