<?xml version="1.0" encoding="utf-8" standalone="no"?>
<!DOCTYPE svg PUBLIC "-//W3C//DTD SVG 1.1//EN"
  "http://www.w3.org/Graphics/SVG/1.1/DTD/svg11.dtd">
<svg xmlns:xlink="http://www.w3.org/1999/xlink" width="720pt" height="432pt" viewBox="0 0 720 432" xmlns="http://www.w3.org/2000/svg" version="1.1">
 <metadata>
  <rdf:RDF xmlns:dc="http://purl.org/dc/elements/1.1/" xmlns:cc="http://creativecommons.org/ns#" xmlns:rdf="http://www.w3.org/1999/02/22-rdf-syntax-ns#">
   <cc:Work>
    <dc:type rdf:resource="http://purl.org/dc/dcmitype/StillImage"/>
    <dc:date>2025-11-11T01:33:04.302246</dc:date>
    <dc:format>image/svg+xml</dc:format>
    <dc:creator>
     <cc:Agent>
      <dc:title>Matplotlib v3.10.0, https://matplotlib.org/</dc:title>
     </cc:Agent>
    </dc:creator>
   </cc:Work>
  </rdf:RDF>
 </metadata>
 <defs>
  <style type="text/css">*{stroke-linejoin: round; stroke-linecap: butt}</style>
 </defs>
 <g id="figure_1">
  <g id="patch_1">
   <path d="M 0 432 
L 720 432 
L 720 0 
L 0 0 
z
" style="fill: #ffffff"/>
  </g>
  <g id="axes_1">
   <g id="patch_2">
    <path d="M 51.05 390.04 
L 703.779179 390.04 
L 703.779179 25.44 
L 51.05 25.44 
z
" style="fill: #ffffff"/>
   </g>
   <g id="matplotlib.axis_1">
    <g id="xtick_1">
     <g id="line2d_1">
      <defs>
       <path id="m170aeba11c" d="M 0 0 
L 0 3.5 
" style="stroke: #000000; stroke-width: 0.8"/>
      </defs>
      <g>
       <use xlink:href="#m170aeba11c" x="78.948194" y="390.04" style="stroke: #000000; stroke-width: 0.8"/>
      </g>
     </g>
     <g id="text_1">
      <!-- 0 -->
      <g transform="translate(75.766944 404.638438) scale(0.1 -0.1)">
       <defs>
        <path id="DejaVuSans-30" d="M 2034 4250 
Q 1547 4250 1301 3770 
Q 1056 3291 1056 2328 
Q 1056 1369 1301 889 
Q 1547 409 2034 409 
Q 2525 409 2770 889 
Q 3016 1369 3016 2328 
Q 3016 3291 2770 3770 
Q 2525 4250 2034 4250 
z
M 2034 4750 
Q 2819 4750 3233 4129 
Q 3647 3509 3647 2328 
Q 3647 1150 3233 529 
Q 2819 -91 2034 -91 
Q 1250 -91 836 529 
Q 422 1150 422 2328 
Q 422 3509 836 4129 
Q 1250 4750 2034 4750 
z
" transform="scale(0.015625)"/>
       </defs>
       <use xlink:href="#DejaVuSans-30"/>
      </g>
     </g>
    </g>
    <g id="xtick_2">
     <g id="line2d_2">
      <g>
       <use xlink:href="#m170aeba11c" x="167.51389" y="390.04" style="stroke: #000000; stroke-width: 0.8"/>
      </g>
     </g>
     <g id="text_2">
      <!-- 50 -->
      <g transform="translate(161.15139 404.638438) scale(0.1 -0.1)">
       <defs>
        <path id="DejaVuSans-35" d="M 691 4666 
L 3169 4666 
L 3169 4134 
L 1269 4134 
L 1269 2991 
Q 1406 3038 1543 3061 
Q 1681 3084 1819 3084 
Q 2600 3084 3056 2656 
Q 3513 2228 3513 1497 
Q 3513 744 3044 326 
Q 2575 -91 1722 -91 
Q 1428 -91 1123 -41 
Q 819 9 494 109 
L 494 744 
Q 775 591 1075 516 
Q 1375 441 1709 441 
Q 2250 441 2565 725 
Q 2881 1009 2881 1497 
Q 2881 1984 2565 2268 
Q 2250 2553 1709 2553 
Q 1456 2553 1204 2497 
Q 953 2441 691 2322 
L 691 4666 
z
" transform="scale(0.015625)"/>
       </defs>
       <use xlink:href="#DejaVuSans-35"/>
       <use xlink:href="#DejaVuSans-30" transform="translate(63.623047 0)"/>
      </g>
     </g>
    </g>
    <g id="xtick_3">
     <g id="line2d_3">
      <g>
       <use xlink:href="#m170aeba11c" x="256.079586" y="390.04" style="stroke: #000000; stroke-width: 0.8"/>
      </g>
     </g>
     <g id="text_3">
      <!-- 100 -->
      <g transform="translate(246.535836 404.638438) scale(0.1 -0.1)">
       <defs>
        <path id="DejaVuSans-31" d="M 794 531 
L 1825 531 
L 1825 4091 
L 703 3866 
L 703 4441 
L 1819 4666 
L 2450 4666 
L 2450 531 
L 3481 531 
L 3481 0 
L 794 0 
L 794 531 
z
" transform="scale(0.015625)"/>
       </defs>
       <use xlink:href="#DejaVuSans-31"/>
       <use xlink:href="#DejaVuSans-30" transform="translate(63.623047 0)"/>
       <use xlink:href="#DejaVuSans-30" transform="translate(127.246094 0)"/>
      </g>
     </g>
    </g>
    <g id="xtick_4">
     <g id="line2d_4">
      <g>
       <use xlink:href="#m170aeba11c" x="344.645282" y="390.04" style="stroke: #000000; stroke-width: 0.8"/>
      </g>
     </g>
     <g id="text_4">
      <!-- 150 -->
      <g transform="translate(335.101532 404.638438) scale(0.1 -0.1)">
       <use xlink:href="#DejaVuSans-31"/>
       <use xlink:href="#DejaVuSans-35" transform="translate(63.623047 0)"/>
       <use xlink:href="#DejaVuSans-30" transform="translate(127.246094 0)"/>
      </g>
     </g>
    </g>
    <g id="xtick_5">
     <g id="line2d_5">
      <g>
       <use xlink:href="#m170aeba11c" x="433.210978" y="390.04" style="stroke: #000000; stroke-width: 0.8"/>
      </g>
     </g>
     <g id="text_5">
      <!-- 200 -->
      <g transform="translate(423.667228 404.638438) scale(0.1 -0.1)">
       <defs>
        <path id="DejaVuSans-32" d="M 1228 531 
L 3431 531 
L 3431 0 
L 469 0 
L 469 531 
Q 828 903 1448 1529 
Q 2069 2156 2228 2338 
Q 2531 2678 2651 2914 
Q 2772 3150 2772 3378 
Q 2772 3750 2511 3984 
Q 2250 4219 1831 4219 
Q 1534 4219 1204 4116 
Q 875 4013 500 3803 
L 500 4441 
Q 881 4594 1212 4672 
Q 1544 4750 1819 4750 
Q 2544 4750 2975 4387 
Q 3406 4025 3406 3419 
Q 3406 3131 3298 2873 
Q 3191 2616 2906 2266 
Q 2828 2175 2409 1742 
Q 1991 1309 1228 531 
z
" transform="scale(0.015625)"/>
       </defs>
       <use xlink:href="#DejaVuSans-32"/>
       <use xlink:href="#DejaVuSans-30" transform="translate(63.623047 0)"/>
       <use xlink:href="#DejaVuSans-30" transform="translate(127.246094 0)"/>
      </g>
     </g>
    </g>
    <g id="xtick_6">
     <g id="line2d_6">
      <g>
       <use xlink:href="#m170aeba11c" x="521.776674" y="390.04" style="stroke: #000000; stroke-width: 0.8"/>
      </g>
     </g>
     <g id="text_6">
      <!-- 250 -->
      <g transform="translate(512.232924 404.638438) scale(0.1 -0.1)">
       <use xlink:href="#DejaVuSans-32"/>
       <use xlink:href="#DejaVuSans-35" transform="translate(63.623047 0)"/>
       <use xlink:href="#DejaVuSans-30" transform="translate(127.246094 0)"/>
      </g>
     </g>
    </g>
    <g id="xtick_7">
     <g id="line2d_7">
      <g>
       <use xlink:href="#m170aeba11c" x="610.34237" y="390.04" style="stroke: #000000; stroke-width: 0.8"/>
      </g>
     </g>
     <g id="text_7">
      <!-- 300 -->
      <g transform="translate(600.79862 404.638438) scale(0.1 -0.1)">
       <defs>
        <path id="DejaVuSans-33" d="M 2597 2516 
Q 3050 2419 3304 2112 
Q 3559 1806 3559 1356 
Q 3559 666 3084 287 
Q 2609 -91 1734 -91 
Q 1441 -91 1130 -33 
Q 819 25 488 141 
L 488 750 
Q 750 597 1062 519 
Q 1375 441 1716 441 
Q 2309 441 2620 675 
Q 2931 909 2931 1356 
Q 2931 1769 2642 2001 
Q 2353 2234 1838 2234 
L 1294 2234 
L 1294 2753 
L 1863 2753 
Q 2328 2753 2575 2939 
Q 2822 3125 2822 3475 
Q 2822 3834 2567 4026 
Q 2313 4219 1838 4219 
Q 1578 4219 1281 4162 
Q 984 4106 628 3988 
L 628 4550 
Q 988 4650 1302 4700 
Q 1616 4750 1894 4750 
Q 2613 4750 3031 4423 
Q 3450 4097 3450 3541 
Q 3450 3153 3228 2886 
Q 3006 2619 2597 2516 
z
" transform="scale(0.015625)"/>
       </defs>
       <use xlink:href="#DejaVuSans-33"/>
       <use xlink:href="#DejaVuSans-30" transform="translate(63.623047 0)"/>
       <use xlink:href="#DejaVuSans-30" transform="translate(127.246094 0)"/>
      </g>
     </g>
    </g>
    <g id="xtick_8">
     <g id="line2d_8">
      <g>
       <use xlink:href="#m170aeba11c" x="698.908066" y="390.04" style="stroke: #000000; stroke-width: 0.8"/>
      </g>
     </g>
     <g id="text_8">
      <!-- 350 -->
      <g transform="translate(689.364316 404.638438) scale(0.1 -0.1)">
       <use xlink:href="#DejaVuSans-33"/>
       <use xlink:href="#DejaVuSans-35" transform="translate(63.623047 0)"/>
       <use xlink:href="#DejaVuSans-30" transform="translate(127.246094 0)"/>
      </g>
     </g>
    </g>
    <g id="text_9">
     <!-- Time (t) -->
     <g transform="translate(357.730215 418.316562) scale(0.1 -0.1)">
      <defs>
       <path id="DejaVuSans-54" d="M -19 4666 
L 3928 4666 
L 3928 4134 
L 2272 4134 
L 2272 0 
L 1638 0 
L 1638 4134 
L -19 4134 
L -19 4666 
z
" transform="scale(0.015625)"/>
       <path id="DejaVuSans-69" d="M 603 3500 
L 1178 3500 
L 1178 0 
L 603 0 
L 603 3500 
z
M 603 4863 
L 1178 4863 
L 1178 4134 
L 603 4134 
L 603 4863 
z
" transform="scale(0.015625)"/>
       <path id="DejaVuSans-6d" d="M 3328 2828 
Q 3544 3216 3844 3400 
Q 4144 3584 4550 3584 
Q 5097 3584 5394 3201 
Q 5691 2819 5691 2113 
L 5691 0 
L 5113 0 
L 5113 2094 
Q 5113 2597 4934 2840 
Q 4756 3084 4391 3084 
Q 3944 3084 3684 2787 
Q 3425 2491 3425 1978 
L 3425 0 
L 2847 0 
L 2847 2094 
Q 2847 2600 2669 2842 
Q 2491 3084 2119 3084 
Q 1678 3084 1418 2786 
Q 1159 2488 1159 1978 
L 1159 0 
L 581 0 
L 581 3500 
L 1159 3500 
L 1159 2956 
Q 1356 3278 1631 3431 
Q 1906 3584 2284 3584 
Q 2666 3584 2933 3390 
Q 3200 3197 3328 2828 
z
" transform="scale(0.015625)"/>
       <path id="DejaVuSans-65" d="M 3597 1894 
L 3597 1613 
L 953 1613 
Q 991 1019 1311 708 
Q 1631 397 2203 397 
Q 2534 397 2845 478 
Q 3156 559 3463 722 
L 3463 178 
Q 3153 47 2828 -22 
Q 2503 -91 2169 -91 
Q 1331 -91 842 396 
Q 353 884 353 1716 
Q 353 2575 817 3079 
Q 1281 3584 2069 3584 
Q 2775 3584 3186 3129 
Q 3597 2675 3597 1894 
z
M 3022 2063 
Q 3016 2534 2758 2815 
Q 2500 3097 2075 3097 
Q 1594 3097 1305 2825 
Q 1016 2553 972 2059 
L 3022 2063 
z
" transform="scale(0.015625)"/>
       <path id="DejaVuSans-20" transform="scale(0.015625)"/>
       <path id="DejaVuSans-28" d="M 1984 4856 
Q 1566 4138 1362 3434 
Q 1159 2731 1159 2009 
Q 1159 1288 1364 580 
Q 1569 -128 1984 -844 
L 1484 -844 
Q 1016 -109 783 600 
Q 550 1309 550 2009 
Q 550 2706 781 3412 
Q 1013 4119 1484 4856 
L 1984 4856 
z
" transform="scale(0.015625)"/>
       <path id="DejaVuSans-74" d="M 1172 4494 
L 1172 3500 
L 2356 3500 
L 2356 3053 
L 1172 3053 
L 1172 1153 
Q 1172 725 1289 603 
Q 1406 481 1766 481 
L 2356 481 
L 2356 0 
L 1766 0 
Q 1100 0 847 248 
Q 594 497 594 1153 
L 594 3053 
L 172 3053 
L 172 3500 
L 594 3500 
L 594 4494 
L 1172 4494 
z
" transform="scale(0.015625)"/>
       <path id="DejaVuSans-29" d="M 513 4856 
L 1013 4856 
Q 1481 4119 1714 3412 
Q 1947 2706 1947 2009 
Q 1947 1309 1714 600 
Q 1481 -109 1013 -844 
L 513 -844 
Q 928 -128 1133 580 
Q 1338 1288 1338 2009 
Q 1338 2731 1133 3434 
Q 928 4138 513 4856 
z
" transform="scale(0.015625)"/>
      </defs>
      <use xlink:href="#DejaVuSans-54"/>
      <use xlink:href="#DejaVuSans-69" transform="translate(57.958984 0)"/>
      <use xlink:href="#DejaVuSans-6d" transform="translate(85.742188 0)"/>
      <use xlink:href="#DejaVuSans-65" transform="translate(183.154297 0)"/>
      <use xlink:href="#DejaVuSans-20" transform="translate(244.677734 0)"/>
      <use xlink:href="#DejaVuSans-28" transform="translate(276.464844 0)"/>
      <use xlink:href="#DejaVuSans-74" transform="translate(315.478516 0)"/>
      <use xlink:href="#DejaVuSans-29" transform="translate(354.6875 0)"/>
     </g>
    </g>
   </g>
   <g id="matplotlib.axis_2">
    <g id="ytick_1">
     <g id="line2d_9">
      <defs>
       <path id="me56822c2cd" d="M 0 0 
L -3.5 0 
" style="stroke: #000000; stroke-width: 0.8"/>
      </defs>
      <g>
       <use xlink:href="#me56822c2cd" x="51.05" y="373.467273" style="stroke: #000000; stroke-width: 0.8"/>
      </g>
     </g>
     <g id="text_10">
      <!-- 0 -->
      <g transform="translate(37.6875 377.266491) scale(0.1 -0.1)">
       <use xlink:href="#DejaVuSans-30"/>
      </g>
     </g>
    </g>
    <g id="ytick_2">
     <g id="line2d_10">
      <g>
       <use xlink:href="#me56822c2cd" x="51.05" y="320.480535" style="stroke: #000000; stroke-width: 0.8"/>
      </g>
     </g>
     <g id="text_11">
      <!-- 50 -->
      <g transform="translate(31.325 324.279754) scale(0.1 -0.1)">
       <use xlink:href="#DejaVuSans-35"/>
       <use xlink:href="#DejaVuSans-30" transform="translate(63.623047 0)"/>
      </g>
     </g>
    </g>
    <g id="ytick_3">
     <g id="line2d_11">
      <g>
       <use xlink:href="#me56822c2cd" x="51.05" y="267.493798" style="stroke: #000000; stroke-width: 0.8"/>
      </g>
     </g>
     <g id="text_12">
      <!-- 100 -->
      <g transform="translate(24.9625 271.293016) scale(0.1 -0.1)">
       <use xlink:href="#DejaVuSans-31"/>
       <use xlink:href="#DejaVuSans-30" transform="translate(63.623047 0)"/>
       <use xlink:href="#DejaVuSans-30" transform="translate(127.246094 0)"/>
      </g>
     </g>
    </g>
    <g id="ytick_4">
     <g id="line2d_12">
      <g>
       <use xlink:href="#me56822c2cd" x="51.05" y="214.50706" style="stroke: #000000; stroke-width: 0.8"/>
      </g>
     </g>
     <g id="text_13">
      <!-- 150 -->
      <g transform="translate(24.9625 218.306279) scale(0.1 -0.1)">
       <use xlink:href="#DejaVuSans-31"/>
       <use xlink:href="#DejaVuSans-35" transform="translate(63.623047 0)"/>
       <use xlink:href="#DejaVuSans-30" transform="translate(127.246094 0)"/>
      </g>
     </g>
    </g>
    <g id="ytick_5">
     <g id="line2d_13">
      <g>
       <use xlink:href="#me56822c2cd" x="51.05" y="161.520323" style="stroke: #000000; stroke-width: 0.8"/>
      </g>
     </g>
     <g id="text_14">
      <!-- 200 -->
      <g transform="translate(24.9625 165.319542) scale(0.1 -0.1)">
       <use xlink:href="#DejaVuSans-32"/>
       <use xlink:href="#DejaVuSans-30" transform="translate(63.623047 0)"/>
       <use xlink:href="#DejaVuSans-30" transform="translate(127.246094 0)"/>
      </g>
     </g>
    </g>
    <g id="ytick_6">
     <g id="line2d_14">
      <g>
       <use xlink:href="#me56822c2cd" x="51.05" y="108.533585" style="stroke: #000000; stroke-width: 0.8"/>
      </g>
     </g>
     <g id="text_15">
      <!-- 250 -->
      <g transform="translate(24.9625 112.332804) scale(0.1 -0.1)">
       <use xlink:href="#DejaVuSans-32"/>
       <use xlink:href="#DejaVuSans-35" transform="translate(63.623047 0)"/>
       <use xlink:href="#DejaVuSans-30" transform="translate(127.246094 0)"/>
      </g>
     </g>
    </g>
    <g id="ytick_7">
     <g id="line2d_15">
      <g>
       <use xlink:href="#me56822c2cd" x="51.05" y="55.546848" style="stroke: #000000; stroke-width: 0.8"/>
      </g>
     </g>
     <g id="text_16">
      <!-- 300 -->
      <g transform="translate(24.9625 59.346067) scale(0.1 -0.1)">
       <use xlink:href="#DejaVuSans-33"/>
       <use xlink:href="#DejaVuSans-30" transform="translate(63.623047 0)"/>
       <use xlink:href="#DejaVuSans-30" transform="translate(127.246094 0)"/>
      </g>
     </g>
    </g>
    <g id="text_17">
     <!-- SoC -->
     <g transform="translate(18.882812 217.465) rotate(-90) scale(0.1 -0.1)">
      <defs>
       <path id="DejaVuSans-53" d="M 3425 4513 
L 3425 3897 
Q 3066 4069 2747 4153 
Q 2428 4238 2131 4238 
Q 1616 4238 1336 4038 
Q 1056 3838 1056 3469 
Q 1056 3159 1242 3001 
Q 1428 2844 1947 2747 
L 2328 2669 
Q 3034 2534 3370 2195 
Q 3706 1856 3706 1288 
Q 3706 609 3251 259 
Q 2797 -91 1919 -91 
Q 1588 -91 1214 -16 
Q 841 59 441 206 
L 441 856 
Q 825 641 1194 531 
Q 1563 422 1919 422 
Q 2459 422 2753 634 
Q 3047 847 3047 1241 
Q 3047 1584 2836 1778 
Q 2625 1972 2144 2069 
L 1759 2144 
Q 1053 2284 737 2584 
Q 422 2884 422 3419 
Q 422 4038 858 4394 
Q 1294 4750 2059 4750 
Q 2388 4750 2728 4690 
Q 3069 4631 3425 4513 
z
" transform="scale(0.015625)"/>
       <path id="DejaVuSans-6f" d="M 1959 3097 
Q 1497 3097 1228 2736 
Q 959 2375 959 1747 
Q 959 1119 1226 758 
Q 1494 397 1959 397 
Q 2419 397 2687 759 
Q 2956 1122 2956 1747 
Q 2956 2369 2687 2733 
Q 2419 3097 1959 3097 
z
M 1959 3584 
Q 2709 3584 3137 3096 
Q 3566 2609 3566 1747 
Q 3566 888 3137 398 
Q 2709 -91 1959 -91 
Q 1206 -91 779 398 
Q 353 888 353 1747 
Q 353 2609 779 3096 
Q 1206 3584 1959 3584 
z
" transform="scale(0.015625)"/>
       <path id="DejaVuSans-43" d="M 4122 4306 
L 4122 3641 
Q 3803 3938 3442 4084 
Q 3081 4231 2675 4231 
Q 1875 4231 1450 3742 
Q 1025 3253 1025 2328 
Q 1025 1406 1450 917 
Q 1875 428 2675 428 
Q 3081 428 3442 575 
Q 3803 722 4122 1019 
L 4122 359 
Q 3791 134 3420 21 
Q 3050 -91 2638 -91 
Q 1578 -91 968 557 
Q 359 1206 359 2328 
Q 359 3453 968 4101 
Q 1578 4750 2638 4750 
Q 3056 4750 3426 4639 
Q 3797 4528 4122 4306 
z
" transform="scale(0.015625)"/>
      </defs>
      <use xlink:href="#DejaVuSans-53"/>
      <use xlink:href="#DejaVuSans-6f" transform="translate(63.476562 0)"/>
      <use xlink:href="#DejaVuSans-43" transform="translate(124.658203 0)"/>
     </g>
    </g>
   </g>
   <g id="line2d_16">
    <path d="M 80.719508 214.880206 
L 674.109671 214.880206 
L 674.109671 214.880206 
" clip-path="url(#p8927dc2a0a)" style="fill: none; stroke: #1f77b4; stroke-width: 1.8; stroke-linecap: square"/>
   </g>
   <g id="line2d_17">
    <path d="M 80.719508 214.880206 
L 674.109671 214.880206 
L 674.109671 214.880206 
" clip-path="url(#p8927dc2a0a)" style="fill: none; stroke: #ff7f0e; stroke-width: 1.8; stroke-linecap: square"/>
   </g>
   <g id="line2d_18">
    <path d="M 80.719508 214.880206 
L 674.109671 214.880206 
L 674.109671 214.880206 
" clip-path="url(#p8927dc2a0a)" style="fill: none; stroke: #2ca02c; stroke-width: 1.8; stroke-linecap: square"/>
   </g>
   <g id="line2d_19">
    <path d="M 80.719508 214.880206 
L 674.109671 214.880206 
L 674.109671 214.880206 
" clip-path="url(#p8927dc2a0a)" style="fill: none; stroke: #d62728; stroke-width: 1.8; stroke-linecap: square"/>
   </g>
   <g id="line2d_20">
    <path d="M 80.719508 214.880206 
L 93.118706 214.880206 
L 94.890019 221.336125 
L 98.432647 221.336125 
L 100.203961 183.55851 
L 101.975275 159.570779 
L 103.746589 137.389874 
L 105.517903 137.389874 
L 107.289217 117.339992 
L 109.060531 103.981596 
L 110.831845 86.445391 
L 112.603159 86.445391 
L 114.374473 102.767714 
L 117.9171 102.767714 
L 119.688414 156.144256 
L 121.459728 214.880206 
L 126.77367 214.880206 
L 128.544984 259.74078 
L 130.316298 280.77187 
L 132.087612 307.041892 
L 133.858926 355.404319 
L 139.172867 355.404319 
L 140.944181 317.277135 
L 142.715495 317.277135 
L 146.258123 235.670946 
L 149.800751 235.670946 
L 151.572065 219.441269 
L 153.343379 191.082796 
L 160.428634 191.082796 
L 162.199948 213.149266 
L 163.971262 214.880206 
L 174.599146 214.880206 
L 176.37046 271.544636 
L 181.684402 271.544636 
L 183.455715 237.510101 
L 185.227029 223.581663 
L 186.998343 200.68187 
L 188.769657 158.491654 
L 190.540971 138.214637 
L 192.312285 100.055493 
L 202.940169 100.055493 
L 206.482796 214.880206 
L 208.25411 214.880206 
L 210.025424 242.3628 
L 211.796738 283.555725 
L 213.568052 283.555725 
L 215.339366 301.529744 
L 224.195936 301.529744 
L 225.967249 264.260236 
L 227.738563 261.710618 
L 231.281191 177.820851 
L 233.052505 177.820851 
L 234.823819 150.747496 
L 236.595133 148.542947 
L 241.909075 148.542947 
L 243.680389 156.144256 
L 247.223017 156.144256 
L 248.99433 214.880206 
L 250.765644 244.038356 
L 252.536958 280.0862 
L 257.8509 280.0862 
L 259.622214 285.340983 
L 261.393528 344.076933 
L 266.70747 344.076933 
L 268.478784 337.852608 
L 270.250097 290.317687 
L 272.021411 255.311999 
L 273.792725 207.735879 
L 287.963237 207.735879 
L 289.734551 214.880206 
L 303.905062 214.880206 
L 305.676376 237.907747 
L 307.44769 274.180587 
L 309.219004 267.934571 
L 310.990318 267.934571 
L 312.761632 229.751233 
L 314.532945 229.751233 
L 316.304259 183.386684 
L 318.075573 141.026338 
L 319.846887 141.026338 
L 321.618201 101.628365 
L 330.474771 101.628365 
L 332.246085 156.144256 
L 334.017399 214.880206 
L 341.102654 214.880206 
L 342.873968 227.78848 
L 348.18791 227.78848 
L 349.959224 276.787576 
L 351.730538 276.787576 
L 353.501852 251.733614 
L 355.273166 219.848121 
L 357.044479 219.848121 
L 358.815793 217.368873 
L 362.358421 143.826553 
L 372.986305 143.826553 
L 374.757619 202.562503 
L 376.528933 214.880206 
L 378.300247 224.86973 
L 380.07156 224.86973 
L 381.842874 243.141253 
L 383.614188 262.635017 
L 385.385502 262.635017 
L 388.92813 351.463245 
L 390.699444 363.168987 
L 392.470758 365.180238 
L 394.242072 352.521039 
L 396.013386 342.785916 
L 397.7847 315.614283 
L 399.556014 274.662078 
L 401.327327 230.306932 
L 406.641269 230.306932 
L 408.412583 205.783285 
L 413.726525 205.783285 
L 415.497839 214.880206 
L 426.125722 214.880206 
L 429.66835 317.544443 
L 436.753606 317.544443 
L 438.52492 299.882404 
L 440.296234 263.299601 
L 443.838862 263.299601 
L 445.610175 229.916693 
L 449.152803 229.916693 
L 450.924117 214.880206 
L 468.637256 214.880206 
L 470.40857 246.786332 
L 472.179884 246.786332 
L 473.951198 249.895645 
L 481.036454 249.895645 
L 482.807768 242.140625 
L 488.121709 242.140625 
L 489.893023 214.880206 
L 509.377477 214.880206 
L 511.14879 239.462968 
L 512.920104 239.462968 
L 514.691418 251.651282 
L 523.547988 251.651282 
L 527.090616 190.806151 
L 528.86193 190.806151 
L 530.633244 156.144256 
L 544.803755 156.144256 
L 546.575069 214.880206 
L 548.346383 248.889335 
L 551.889011 287.027699 
L 553.660324 307.521677 
L 555.431638 311.287526 
L 557.202952 316.222115 
L 564.288208 316.222115 
L 566.059522 293.408273 
L 567.830836 293.408273 
L 569.60215 260.179671 
L 571.373464 213.389636 
L 573.144778 208.639123 
L 574.916092 208.639123 
L 576.687405 166.40712 
L 578.458719 155.400741 
L 585.543975 155.400741 
L 587.315289 158.855712 
L 589.086603 214.880206 
L 590.857917 247.954962 
L 596.171859 247.954962 
L 597.943172 254.251586 
L 599.714486 274.807774 
L 608.571056 274.807774 
L 610.34237 227.231654 
L 612.113684 209.999128 
L 613.884998 182.77582 
L 615.656312 141.470403 
L 617.427626 141.470403 
L 619.198939 108.724853 
L 628.055509 108.724853 
L 629.826823 167.460803 
L 631.598137 181.407831 
L 643.997334 181.407831 
L 645.768648 187.725 
L 649.311276 187.725 
L 651.08259 158.106892 
L 652.853904 123.151173 
L 654.625218 98.157811 
L 656.396532 98.157811 
L 658.167846 58.159291 
L 667.024415 58.159291 
L 668.795729 80.753293 
L 670.567043 98.699326 
L 674.109671 214.880206 
L 674.109671 214.880206 
" clip-path="url(#p8927dc2a0a)" style="fill: none; stroke: #9467bd; stroke-width: 1.8; stroke-linecap: square"/>
   </g>
   <g id="line2d_21">
    <path d="M 80.719508 214.880206 
L 674.109671 214.880206 
L 674.109671 214.880206 
" clip-path="url(#p8927dc2a0a)" style="fill: none; stroke: #8c564b; stroke-width: 1.8; stroke-linecap: square"/>
   </g>
   <g id="line2d_22">
    <path d="M 80.719508 56.29314 
L 674.109671 56.29314 
L 674.109671 56.29314 
" clip-path="url(#p8927dc2a0a)" style="fill: none; stroke: #e377c2; stroke-width: 1.8; stroke-linecap: square"/>
   </g>
   <g id="line2d_23">
    <path d="M 80.719508 56.29314 
L 252.536958 56.29314 
L 254.308272 50.352695 
L 256.079586 45.927011 
L 257.8509 43.000394 
L 259.622214 42.012727 
L 282.649295 42.012727 
L 284.420609 48.320187 
L 286.191923 50.654687 
L 287.963237 56.29314 
L 291.505864 56.29314 
L 293.277178 55.384453 
L 295.048492 49.30106 
L 296.819806 45.78822 
L 310.990318 45.78822 
L 312.761632 46.097331 
L 314.532945 49.33354 
L 316.304259 51.303154 
L 330.474771 51.303154 
L 332.246085 56.29314 
L 674.109671 56.29314 
L 674.109671 56.29314 
" clip-path="url(#p8927dc2a0a)" style="fill: none; stroke: #7f7f7f; stroke-width: 1.8; stroke-linecap: square"/>
   </g>
   <g id="line2d_24">
    <path d="M 80.719508 56.29314 
L 674.109671 56.29314 
L 674.109671 56.29314 
" clip-path="url(#p8927dc2a0a)" style="fill: none; stroke: #bcbd22; stroke-width: 1.8; stroke-linecap: square"/>
   </g>
   <g id="line2d_25">
    <path d="M 80.719508 284.658516 
L 674.109671 284.658516 
L 674.109671 284.658516 
" clip-path="url(#p8927dc2a0a)" style="fill: none; stroke: #17becf; stroke-width: 1.8; stroke-linecap: square"/>
   </g>
   <g id="line2d_26">
    <path d="M 80.719508 284.658516 
L 674.109671 284.658516 
L 674.109671 284.658516 
" clip-path="url(#p8927dc2a0a)" style="fill: none; stroke: #1f77b4; stroke-width: 1.8; stroke-linecap: square"/>
   </g>
   <g id="line2d_27">
    <path d="M 80.719508 284.658516 
L 674.109671 284.658516 
L 674.109671 284.658516 
" clip-path="url(#p8927dc2a0a)" style="fill: none; stroke: #ff7f0e; stroke-width: 1.8; stroke-linecap: square"/>
   </g>
   <g id="line2d_28">
    <path d="M 80.719508 284.658516 
L 94.890019 284.658516 
L 96.661333 274.623251 
L 98.432647 236.594001 
L 103.746589 236.594001 
L 105.517903 196.63006 
L 110.831845 196.63006 
L 112.603159 206.748893 
L 114.374473 206.748893 
L 116.145787 250.860165 
L 117.9171 275.229591 
L 119.688414 275.229591 
L 121.459728 284.658516 
L 128.544984 284.658516 
L 130.316298 289.437382 
L 140.944181 289.437382 
L 142.715495 271.097431 
L 146.258123 271.097431 
L 149.800751 235.320317 
L 162.199948 235.320317 
L 163.971262 284.658516 
L 176.37046 284.658516 
L 178.141774 293.289318 
L 179.913088 305.331642 
L 181.684402 274.809604 
L 183.455715 274.809604 
L 185.227029 249.533993 
L 192.312285 249.533993 
L 194.083599 239.257046 
L 195.854913 223.190865 
L 201.168855 223.190865 
L 202.940169 272.529064 
L 204.711482 272.529064 
L 206.482796 284.658516 
L 208.25411 315.055195 
L 215.339366 315.055195 
L 217.11068 348.658262 
L 222.424622 348.658262 
L 224.195936 336.14052 
L 225.967249 336.14052 
L 227.738563 296.17658 
L 231.281191 296.17658 
L 233.052505 256.212639 
L 234.823819 256.212639 
L 236.595133 216.248698 
L 238.366447 211.600202 
L 241.909075 211.600202 
L 243.680389 248.309272 
L 247.223017 248.309272 
L 248.99433 284.658516 
L 252.536958 284.658516 
L 254.308272 289.517216 
L 259.622214 289.517216 
L 261.393528 308.052665 
L 266.70747 308.052665 
L 268.478784 268.088724 
L 270.250097 266.788846 
L 272.021411 266.788846 
L 273.792725 264.178437 
L 275.564039 248.374617 
L 277.335353 230.004776 
L 279.106667 195.849758 
L 287.963237 195.849758 
L 289.734551 235.320317 
L 291.505864 284.658516 
L 302.133748 284.658516 
L 303.905062 306.503733 
L 305.676376 338.939775 
L 309.219004 338.939775 
L 310.990318 307.025075 
L 312.761632 307.025075 
L 314.532945 267.061135 
L 318.075573 267.061135 
L 319.846887 227.097194 
L 328.703457 227.097194 
L 330.474771 269.223209 
L 332.246085 269.223209 
L 334.017399 284.658516 
L 342.873968 284.658516 
L 344.645282 286.39087 
L 348.18791 286.39087 
L 349.959224 305.46942 
L 355.273166 305.46942 
L 357.044479 286.765623 
L 358.815793 246.801682 
L 362.358421 246.801682 
L 364.129735 218.480901 
L 372.986305 218.480901 
L 374.757619 235.320317 
L 376.528933 284.658516 
L 378.300247 293.081559 
L 383.614188 293.081559 
L 385.385502 315.395143 
L 401.327327 315.395143 
L 403.098641 280.076184 
L 406.641269 204.795212 
L 411.955211 204.795212 
L 413.726525 219.607384 
L 415.497839 219.607384 
L 417.269153 235.320317 
L 419.040467 284.658516 
L 420.811781 312.302919 
L 422.583094 312.302919 
L 424.354408 324.129074 
L 429.66835 324.129074 
L 431.439664 373.467273 
L 440.296234 373.467273 
L 443.838862 297.540136 
L 445.610175 297.540136 
L 447.381489 284.187378 
L 449.152803 250.393101 
L 458.009373 250.393101 
L 459.780687 252.291684 
L 461.552001 284.658516 
L 468.637256 284.658516 
L 470.40857 291.616318 
L 472.179884 310.246501 
L 473.951198 359.5847 
L 475.722512 364.86603 
L 479.26514 364.86603 
L 481.036454 341.499404 
L 482.807768 341.499404 
L 484.579082 315.200181 
L 486.350396 308.244713 
L 488.121709 284.658516 
L 511.14879 284.658516 
L 512.920104 318.691024 
L 514.691418 366.648067 
L 521.776674 366.648067 
L 523.547988 355.441584 
L 527.090616 355.441584 
L 528.86193 333.897629 
L 530.633244 333.897629 
L 532.404557 300.186916 
L 534.175871 284.658516 
L 546.575069 284.658516 
L 548.346383 333.996714 
L 555.431638 333.996714 
L 557.202952 361.045483 
L 562.516894 361.045483 
L 564.288208 373.467273 
L 566.059522 373.467273 
L 567.830836 347.123284 
L 571.373464 347.123284 
L 573.144778 310.78714 
L 574.916092 270.8232 
L 582.001347 270.8232 
L 583.772661 281.093229 
L 585.543975 284.658516 
L 599.714486 284.658516 
L 601.4858 289.70165 
L 603.257114 293.853803 
L 606.799742 293.853803 
L 608.571056 267.055357 
L 610.34237 267.055357 
L 612.113684 233.018468 
L 615.656312 233.018468 
L 617.427626 214.296734 
L 619.198939 214.296734 
L 620.970253 201.606609 
L 629.826823 201.606609 
L 631.598137 250.944808 
L 647.539962 250.944808 
L 649.311276 300.283006 
L 654.625218 300.283006 
L 656.396532 276.012192 
L 658.167846 276.012192 
L 659.93916 237.90094 
L 661.710474 203.02762 
L 668.795729 203.02762 
L 670.567043 252.365818 
L 672.338357 252.365818 
L 674.109671 284.658516 
L 674.109671 284.658516 
" clip-path="url(#p8927dc2a0a)" style="fill: none; stroke: #2ca02c; stroke-width: 1.8; stroke-linecap: square"/>
   </g>
   <g id="line2d_29">
    <path d="M 80.719508 284.658516 
L 89.576078 284.658516 
L 91.347392 285.95991 
L 94.890019 286.051681 
L 114.374473 286.051681 
L 116.145787 284.658516 
L 121.459728 284.658516 
L 123.231042 289.122691 
L 125.002356 291.255924 
L 126.77367 292.108958 
L 128.544984 292.520174 
L 132.087612 293.64046 
L 133.858926 294.063875 
L 135.63024 294.923745 
L 137.401554 293.323448 
L 139.172867 292.278081 
L 140.944181 292.745235 
L 142.715495 292.893608 
L 144.486809 294.016518 
L 146.258123 294.866812 
L 148.029437 294.020178 
L 149.800751 292.196625 
L 153.343379 287.836667 
L 155.114693 285.467795 
L 156.886007 283.794834 
L 158.657321 284.212107 
L 160.428634 284.212107 
L 162.199948 284.540618 
L 163.971262 284.658516 
L 259.622214 284.658516 
L 261.393528 281.482138 
L 270.250097 281.482138 
L 272.021411 287.868859 
L 273.792725 300.377871 
L 275.564039 309.151601 
L 277.335353 315.536485 
L 279.106667 319.573344 
L 286.191923 319.573344 
L 287.963237 303.829949 
L 289.734551 284.658516 
L 341.102654 284.658516 
L 342.873968 282.566187 
L 344.645282 281.038598 
L 346.416596 281.261797 
L 348.18791 281.936361 
L 349.959224 280.214194 
L 351.730538 280.239326 
L 355.273166 287.499133 
L 357.044479 294.856127 
L 360.587107 313.665293 
L 362.358421 316.218722 
L 364.129735 317.818212 
L 365.901049 313.644558 
L 367.672363 305.360527 
L 369.443677 295.334721 
L 371.214991 286.275127 
L 372.986305 280.155954 
L 374.757619 280.155954 
L 376.528933 284.658516 
L 378.300247 290.543702 
L 380.07156 295.740331 
L 381.842874 299.532268 
L 383.614188 301.377858 
L 387.156816 302.64181 
L 388.92813 304.678953 
L 390.699444 304.678953 
L 392.470758 303.919911 
L 394.242072 302.880416 
L 396.013386 301.979091 
L 397.7847 300.340872 
L 406.641269 300.340872 
L 408.412583 298.242689 
L 410.183897 298.242689 
L 411.955211 289.472856 
L 413.726525 289.472856 
L 415.497839 284.658516 
L 419.040467 284.658516 
L 420.811781 293.614814 
L 422.583094 299.688739 
L 424.354408 308.092738 
L 426.125722 311.03933 
L 427.897036 307.288964 
L 431.439664 307.288964 
L 433.210978 287.638698 
L 450.924117 287.638698 
L 452.695431 284.658516 
L 461.552001 284.658516 
L 463.323315 281.444224 
L 465.094629 283.39015 
L 468.637256 283.39015 
L 472.179884 285.642079 
L 475.722512 289.015402 
L 479.26514 286.237217 
L 481.036454 285.853425 
L 482.807768 291.498327 
L 484.579082 294.223801 
L 486.350396 296.430788 
L 488.121709 297.562547 
L 491.664337 292.800771 
L 493.435651 290.284153 
L 495.206965 288.072812 
L 496.978279 287.405112 
L 498.749593 284.259239 
L 502.292221 284.259239 
L 504.063535 284.658516 
L 534.175871 284.658516 
L 535.947185 285.109191 
L 543.032441 285.109191 
L 544.803755 284.658516 
L 674.109671 284.658516 
L 674.109671 284.658516 
" clip-path="url(#p8927dc2a0a)" style="fill: none; stroke: #d62728; stroke-width: 1.8; stroke-linecap: square"/>
   </g>
   <g id="line2d_30">
    <path d="M 80.719508 284.658516 
L 100.203961 284.658516 
L 103.746589 245.169315 
L 105.517903 242.685104 
L 109.060531 202.721163 
L 110.831845 202.721163 
L 112.603159 210.651218 
L 114.374473 235.320317 
L 116.145787 235.320317 
L 117.9171 259.989416 
L 119.688414 259.989416 
L 121.459728 284.658516 
L 128.544984 284.658516 
L 132.087612 333.996714 
L 137.401554 333.996714 
L 139.172867 328.225431 
L 140.944181 328.225431 
L 142.715495 308.24346 
L 146.258123 308.24346 
L 149.800751 268.27952 
L 151.572065 259.989416 
L 160.428634 259.989416 
L 162.199948 284.658516 
L 176.37046 284.658516 
L 178.141774 309.327615 
L 185.227029 309.327615 
L 186.998343 295.585039 
L 188.769657 295.585039 
L 190.540971 275.603068 
L 194.083599 275.603068 
L 195.854913 255.621098 
L 199.397541 255.621098 
L 201.168855 258.105054 
L 202.940169 259.989416 
L 204.711482 259.989416 
L 206.482796 284.658516 
L 208.25411 294.591648 
L 211.796738 294.591648 
L 213.568052 313.261589 
L 231.281191 313.261589 
L 233.052505 304.640486 
L 234.823819 284.658516 
L 254.308272 284.658516 
L 256.079586 287.649482 
L 257.8509 291.158436 
L 261.393528 291.158436 
L 263.164842 311.66071 
L 264.936156 311.66071 
L 266.70747 312.372719 
L 270.250097 312.372719 
L 272.021411 292.390749 
L 273.792725 292.390749 
L 275.564039 272.408779 
L 277.335353 254.952993 
L 287.963237 254.952993 
L 289.734551 279.622092 
L 291.505864 284.658516 
L 309.219004 284.658516 
L 310.990318 282.50013 
L 312.761632 282.50013 
L 314.532945 282.198614 
L 318.075573 282.198614 
L 319.846887 279.971387 
L 321.618201 279.971387 
L 323.389515 259.989416 
L 332.246085 259.989416 
L 334.017399 284.658516 
L 355.273166 284.658516 
L 357.044479 264.676545 
L 362.358421 264.676545 
L 364.129735 259.989416 
L 374.757619 259.989416 
L 376.528933 284.658516 
L 378.300247 284.658516 
L 380.07156 301.629242 
L 394.242072 301.629242 
L 396.013386 281.647271 
L 401.327327 281.647271 
L 403.098641 275.912256 
L 417.269153 275.912256 
L 419.040467 284.658516 
L 420.811781 309.327615 
L 422.583094 309.327615 
L 424.354408 322.545201 
L 429.66835 322.545201 
L 431.439664 323.012106 
L 434.982292 323.012106 
L 436.753606 318.166889 
L 438.52492 298.643554 
L 445.610175 298.643554 
L 447.381489 279.971387 
L 449.152803 279.971387 
L 450.924117 259.989416 
L 458.009373 259.989416 
L 459.780687 284.658516 
L 468.637256 284.658516 
L 472.179884 333.996714 
L 473.951198 344.604427 
L 481.036454 344.604427 
L 482.807768 324.622456 
L 484.579082 324.622456 
L 486.350396 304.640486 
L 489.893023 304.640486 
L 491.664337 284.658516 
L 511.14879 284.658516 
L 512.920104 309.327615 
L 521.776674 309.327615 
L 523.547988 289.345644 
L 527.090616 289.345644 
L 528.86193 281.003044 
L 532.404557 281.003044 
L 534.175871 261.021074 
L 544.803755 261.021074 
L 546.575069 284.658516 
L 553.660324 284.658516 
L 555.431638 309.327615 
L 557.202952 309.327615 
L 558.974266 316.123988 
L 560.74558 318.519924 
L 564.288208 318.519924 
L 569.60215 258.574013 
L 573.144778 258.574013 
L 574.916092 255.142129 
L 576.687405 255.142129 
L 578.458719 235.320317 
L 582.001347 235.320317 
L 585.543975 284.658516 
L 590.857917 284.658516 
L 592.629231 308.625772 
L 594.400545 315.76252 
L 596.171859 322.142972 
L 606.799742 322.180324 
L 608.571056 302.198354 
L 610.34237 299.928706 
L 612.113684 299.928706 
L 613.884998 279.946735 
L 615.656312 279.946735 
L 617.427626 259.964765 
L 619.198939 259.964765 
L 620.970253 239.982795 
L 628.055509 239.982795 
L 629.826823 257.745301 
L 631.598137 282.4144 
L 645.768648 282.4144 
L 647.539962 290.000304 
L 649.311276 296.78343 
L 652.853904 296.78343 
L 654.625218 279.971387 
L 656.396532 259.989416 
L 670.567043 259.989416 
L 672.338357 284.658516 
L 674.109671 284.658516 
L 674.109671 284.658516 
" clip-path="url(#p8927dc2a0a)" style="fill: none; stroke: #9467bd; stroke-width: 1.8; stroke-linecap: square"/>
   </g>
   <g id="line2d_31">
    <path d="M 80.719508 284.658516 
L 674.109671 284.658516 
L 674.109671 284.658516 
" clip-path="url(#p8927dc2a0a)" style="fill: none; stroke: #8c564b; stroke-width: 1.8; stroke-linecap: square"/>
   </g>
   <g id="line2d_32">
    <path d="M 80.719508 284.658516 
L 674.109671 284.658516 
L 674.109671 284.658516 
" clip-path="url(#p8927dc2a0a)" style="fill: none; stroke: #e377c2; stroke-width: 1.8; stroke-linecap: square"/>
   </g>
   <g id="line2d_33">
    <path d="M 80.719508 284.658516 
L 674.109671 284.658516 
L 674.109671 284.658516 
" clip-path="url(#p8927dc2a0a)" style="fill: none; stroke: #7f7f7f; stroke-width: 1.8; stroke-linecap: square"/>
   </g>
   <g id="patch_3">
    <path d="M 51.05 390.04 
L 51.05 25.44 
" style="fill: none; stroke: #000000; stroke-width: 0.8; stroke-linejoin: miter; stroke-linecap: square"/>
   </g>
   <g id="patch_4">
    <path d="M 703.779179 390.04 
L 703.779179 25.44 
" style="fill: none; stroke: #000000; stroke-width: 0.8; stroke-linejoin: miter; stroke-linecap: square"/>
   </g>
   <g id="patch_5">
    <path d="M 51.05 390.04 
L 703.779179 390.04 
" style="fill: none; stroke: #000000; stroke-width: 0.8; stroke-linejoin: miter; stroke-linecap: square"/>
   </g>
   <g id="patch_6">
    <path d="M 51.05 25.44 
L 703.779179 25.44 
" style="fill: none; stroke: #000000; stroke-width: 0.8; stroke-linejoin: miter; stroke-linecap: square"/>
   </g>
   <g id="text_18">
    <!-- SoC by battery (T=336, F=24, L=24) -->
    <g transform="translate(266.18959 19.44) scale(0.12 -0.12)">
     <defs>
      <path id="DejaVuSans-62" d="M 3116 1747 
Q 3116 2381 2855 2742 
Q 2594 3103 2138 3103 
Q 1681 3103 1420 2742 
Q 1159 2381 1159 1747 
Q 1159 1113 1420 752 
Q 1681 391 2138 391 
Q 2594 391 2855 752 
Q 3116 1113 3116 1747 
z
M 1159 2969 
Q 1341 3281 1617 3432 
Q 1894 3584 2278 3584 
Q 2916 3584 3314 3078 
Q 3713 2572 3713 1747 
Q 3713 922 3314 415 
Q 2916 -91 2278 -91 
Q 1894 -91 1617 61 
Q 1341 213 1159 525 
L 1159 0 
L 581 0 
L 581 4863 
L 1159 4863 
L 1159 2969 
z
" transform="scale(0.015625)"/>
      <path id="DejaVuSans-79" d="M 2059 -325 
Q 1816 -950 1584 -1140 
Q 1353 -1331 966 -1331 
L 506 -1331 
L 506 -850 
L 844 -850 
Q 1081 -850 1212 -737 
Q 1344 -625 1503 -206 
L 1606 56 
L 191 3500 
L 800 3500 
L 1894 763 
L 2988 3500 
L 3597 3500 
L 2059 -325 
z
" transform="scale(0.015625)"/>
      <path id="DejaVuSans-61" d="M 2194 1759 
Q 1497 1759 1228 1600 
Q 959 1441 959 1056 
Q 959 750 1161 570 
Q 1363 391 1709 391 
Q 2188 391 2477 730 
Q 2766 1069 2766 1631 
L 2766 1759 
L 2194 1759 
z
M 3341 1997 
L 3341 0 
L 2766 0 
L 2766 531 
Q 2569 213 2275 61 
Q 1981 -91 1556 -91 
Q 1019 -91 701 211 
Q 384 513 384 1019 
Q 384 1609 779 1909 
Q 1175 2209 1959 2209 
L 2766 2209 
L 2766 2266 
Q 2766 2663 2505 2880 
Q 2244 3097 1772 3097 
Q 1472 3097 1187 3025 
Q 903 2953 641 2809 
L 641 3341 
Q 956 3463 1253 3523 
Q 1550 3584 1831 3584 
Q 2591 3584 2966 3190 
Q 3341 2797 3341 1997 
z
" transform="scale(0.015625)"/>
      <path id="DejaVuSans-72" d="M 2631 2963 
Q 2534 3019 2420 3045 
Q 2306 3072 2169 3072 
Q 1681 3072 1420 2755 
Q 1159 2438 1159 1844 
L 1159 0 
L 581 0 
L 581 3500 
L 1159 3500 
L 1159 2956 
Q 1341 3275 1631 3429 
Q 1922 3584 2338 3584 
Q 2397 3584 2469 3576 
Q 2541 3569 2628 3553 
L 2631 2963 
z
" transform="scale(0.015625)"/>
      <path id="DejaVuSans-3d" d="M 678 2906 
L 4684 2906 
L 4684 2381 
L 678 2381 
L 678 2906 
z
M 678 1631 
L 4684 1631 
L 4684 1100 
L 678 1100 
L 678 1631 
z
" transform="scale(0.015625)"/>
      <path id="DejaVuSans-36" d="M 2113 2584 
Q 1688 2584 1439 2293 
Q 1191 2003 1191 1497 
Q 1191 994 1439 701 
Q 1688 409 2113 409 
Q 2538 409 2786 701 
Q 3034 994 3034 1497 
Q 3034 2003 2786 2293 
Q 2538 2584 2113 2584 
z
M 3366 4563 
L 3366 3988 
Q 3128 4100 2886 4159 
Q 2644 4219 2406 4219 
Q 1781 4219 1451 3797 
Q 1122 3375 1075 2522 
Q 1259 2794 1537 2939 
Q 1816 3084 2150 3084 
Q 2853 3084 3261 2657 
Q 3669 2231 3669 1497 
Q 3669 778 3244 343 
Q 2819 -91 2113 -91 
Q 1303 -91 875 529 
Q 447 1150 447 2328 
Q 447 3434 972 4092 
Q 1497 4750 2381 4750 
Q 2619 4750 2861 4703 
Q 3103 4656 3366 4563 
z
" transform="scale(0.015625)"/>
      <path id="DejaVuSans-2c" d="M 750 794 
L 1409 794 
L 1409 256 
L 897 -744 
L 494 -744 
L 750 256 
L 750 794 
z
" transform="scale(0.015625)"/>
      <path id="DejaVuSans-46" d="M 628 4666 
L 3309 4666 
L 3309 4134 
L 1259 4134 
L 1259 2759 
L 3109 2759 
L 3109 2228 
L 1259 2228 
L 1259 0 
L 628 0 
L 628 4666 
z
" transform="scale(0.015625)"/>
      <path id="DejaVuSans-34" d="M 2419 4116 
L 825 1625 
L 2419 1625 
L 2419 4116 
z
M 2253 4666 
L 3047 4666 
L 3047 1625 
L 3713 1625 
L 3713 1100 
L 3047 1100 
L 3047 0 
L 2419 0 
L 2419 1100 
L 313 1100 
L 313 1709 
L 2253 4666 
z
" transform="scale(0.015625)"/>
      <path id="DejaVuSans-4c" d="M 628 4666 
L 1259 4666 
L 1259 531 
L 3531 531 
L 3531 0 
L 628 0 
L 628 4666 
z
" transform="scale(0.015625)"/>
     </defs>
     <use xlink:href="#DejaVuSans-53"/>
     <use xlink:href="#DejaVuSans-6f" transform="translate(63.476562 0)"/>
     <use xlink:href="#DejaVuSans-43" transform="translate(124.658203 0)"/>
     <use xlink:href="#DejaVuSans-20" transform="translate(194.482422 0)"/>
     <use xlink:href="#DejaVuSans-62" transform="translate(226.269531 0)"/>
     <use xlink:href="#DejaVuSans-79" transform="translate(289.746094 0)"/>
     <use xlink:href="#DejaVuSans-20" transform="translate(348.925781 0)"/>
     <use xlink:href="#DejaVuSans-62" transform="translate(380.712891 0)"/>
     <use xlink:href="#DejaVuSans-61" transform="translate(444.189453 0)"/>
     <use xlink:href="#DejaVuSans-74" transform="translate(505.46875 0)"/>
     <use xlink:href="#DejaVuSans-74" transform="translate(544.677734 0)"/>
     <use xlink:href="#DejaVuSans-65" transform="translate(583.886719 0)"/>
     <use xlink:href="#DejaVuSans-72" transform="translate(645.410156 0)"/>
     <use xlink:href="#DejaVuSans-79" transform="translate(686.523438 0)"/>
     <use xlink:href="#DejaVuSans-20" transform="translate(745.703125 0)"/>
     <use xlink:href="#DejaVuSans-28" transform="translate(777.490234 0)"/>
     <use xlink:href="#DejaVuSans-54" transform="translate(816.503906 0)"/>
     <use xlink:href="#DejaVuSans-3d" transform="translate(877.587891 0)"/>
     <use xlink:href="#DejaVuSans-33" transform="translate(961.376953 0)"/>
     <use xlink:href="#DejaVuSans-33" transform="translate(1025 0)"/>
     <use xlink:href="#DejaVuSans-36" transform="translate(1088.623047 0)"/>
     <use xlink:href="#DejaVuSans-2c" transform="translate(1152.246094 0)"/>
     <use xlink:href="#DejaVuSans-20" transform="translate(1184.033203 0)"/>
     <use xlink:href="#DejaVuSans-46" transform="translate(1215.820312 0)"/>
     <use xlink:href="#DejaVuSans-3d" transform="translate(1273.339844 0)"/>
     <use xlink:href="#DejaVuSans-32" transform="translate(1357.128906 0)"/>
     <use xlink:href="#DejaVuSans-34" transform="translate(1420.751953 0)"/>
     <use xlink:href="#DejaVuSans-2c" transform="translate(1484.375 0)"/>
     <use xlink:href="#DejaVuSans-20" transform="translate(1516.162109 0)"/>
     <use xlink:href="#DejaVuSans-4c" transform="translate(1547.949219 0)"/>
     <use xlink:href="#DejaVuSans-3d" transform="translate(1603.662109 0)"/>
     <use xlink:href="#DejaVuSans-32" transform="translate(1687.451172 0)"/>
     <use xlink:href="#DejaVuSans-34" transform="translate(1751.074219 0)"/>
     <use xlink:href="#DejaVuSans-29" transform="translate(1814.697266 0)"/>
    </g>
   </g>
  </g>
 </g>
 <defs>
  <clipPath id="p8927dc2a0a">
   <rect x="51.05" y="25.44" width="652.729179" height="364.6"/>
  </clipPath>
 </defs>
</svg>
