<?xml version="1.0" encoding="utf-8" standalone="no"?>
<!DOCTYPE svg PUBLIC "-//W3C//DTD SVG 1.1//EN"
  "http://www.w3.org/Graphics/SVG/1.1/DTD/svg11.dtd">
<svg xmlns:xlink="http://www.w3.org/1999/xlink" width="720pt" height="432pt" viewBox="0 0 720 432" xmlns="http://www.w3.org/2000/svg" version="1.1">
 <metadata>
  <rdf:RDF xmlns:dc="http://purl.org/dc/elements/1.1/" xmlns:cc="http://creativecommons.org/ns#" xmlns:rdf="http://www.w3.org/1999/02/22-rdf-syntax-ns#">
   <cc:Work>
    <dc:type rdf:resource="http://purl.org/dc/dcmitype/StillImage"/>
    <dc:date>2025-11-10T23:49:24.907918</dc:date>
    <dc:format>image/svg+xml</dc:format>
    <dc:creator>
     <cc:Agent>
      <dc:title>Matplotlib v3.10.0, https://matplotlib.org/</dc:title>
     </cc:Agent>
    </dc:creator>
   </cc:Work>
  </rdf:RDF>
 </metadata>
 <defs>
  <style type="text/css">*{stroke-linejoin: round; stroke-linecap: butt}</style>
 </defs>
 <g id="figure_1">
  <g id="patch_1">
   <path d="M 0 432 
L 720 432 
L 720 0 
L 0 0 
z
" style="fill: #ffffff"/>
  </g>
  <g id="axes_1">
   <g id="patch_2">
    <path d="M 51.05 390.04 
L 703.715708 390.04 
L 703.715708 25.44 
L 51.05 25.44 
z
" style="fill: #ffffff"/>
   </g>
   <g id="matplotlib.axis_1">
    <g id="xtick_1">
     <g id="line2d_1">
      <defs>
       <path id="m1169ee4428" d="M 0 0 
L 0 3.5 
" style="stroke: #000000; stroke-width: 0.8"/>
      </defs>
      <g>
       <use xlink:href="#m1169ee4428" x="77.163734" y="390.04" style="stroke: #000000; stroke-width: 0.8"/>
      </g>
     </g>
     <g id="text_1">
      <!-- 0 -->
      <g transform="translate(73.982484 404.638438) scale(0.1 -0.1)">
       <defs>
        <path id="DejaVuSans-30" d="M 2034 4250 
Q 1547 4250 1301 3770 
Q 1056 3291 1056 2328 
Q 1056 1369 1301 889 
Q 1547 409 2034 409 
Q 2525 409 2770 889 
Q 3016 1369 3016 2328 
Q 3016 3291 2770 3770 
Q 2525 4250 2034 4250 
z
M 2034 4750 
Q 2819 4750 3233 4129 
Q 3647 3509 3647 2328 
Q 3647 1150 3233 529 
Q 2819 -91 2034 -91 
Q 1250 -91 836 529 
Q 422 1150 422 2328 
Q 422 3509 836 4129 
Q 1250 4750 2034 4750 
z
" transform="scale(0.015625)"/>
       </defs>
       <use xlink:href="#DejaVuSans-30"/>
      </g>
     </g>
    </g>
    <g id="xtick_2">
     <g id="line2d_2">
      <g>
       <use xlink:href="#m1169ee4428" x="165.985959" y="390.04" style="stroke: #000000; stroke-width: 0.8"/>
      </g>
     </g>
     <g id="text_2">
      <!-- 25 -->
      <g transform="translate(159.623459 404.638438) scale(0.1 -0.1)">
       <defs>
        <path id="DejaVuSans-32" d="M 1228 531 
L 3431 531 
L 3431 0 
L 469 0 
L 469 531 
Q 828 903 1448 1529 
Q 2069 2156 2228 2338 
Q 2531 2678 2651 2914 
Q 2772 3150 2772 3378 
Q 2772 3750 2511 3984 
Q 2250 4219 1831 4219 
Q 1534 4219 1204 4116 
Q 875 4013 500 3803 
L 500 4441 
Q 881 4594 1212 4672 
Q 1544 4750 1819 4750 
Q 2544 4750 2975 4387 
Q 3406 4025 3406 3419 
Q 3406 3131 3298 2873 
Q 3191 2616 2906 2266 
Q 2828 2175 2409 1742 
Q 1991 1309 1228 531 
z
" transform="scale(0.015625)"/>
        <path id="DejaVuSans-35" d="M 691 4666 
L 3169 4666 
L 3169 4134 
L 1269 4134 
L 1269 2991 
Q 1406 3038 1543 3061 
Q 1681 3084 1819 3084 
Q 2600 3084 3056 2656 
Q 3513 2228 3513 1497 
Q 3513 744 3044 326 
Q 2575 -91 1722 -91 
Q 1428 -91 1123 -41 
Q 819 9 494 109 
L 494 744 
Q 775 591 1075 516 
Q 1375 441 1709 441 
Q 2250 441 2565 725 
Q 2881 1009 2881 1497 
Q 2881 1984 2565 2268 
Q 2250 2553 1709 2553 
Q 1456 2553 1204 2497 
Q 953 2441 691 2322 
L 691 4666 
z
" transform="scale(0.015625)"/>
       </defs>
       <use xlink:href="#DejaVuSans-32"/>
       <use xlink:href="#DejaVuSans-35" transform="translate(63.623047 0)"/>
      </g>
     </g>
    </g>
    <g id="xtick_3">
     <g id="line2d_3">
      <g>
       <use xlink:href="#m1169ee4428" x="254.808184" y="390.04" style="stroke: #000000; stroke-width: 0.8"/>
      </g>
     </g>
     <g id="text_3">
      <!-- 50 -->
      <g transform="translate(248.445684 404.638438) scale(0.1 -0.1)">
       <use xlink:href="#DejaVuSans-35"/>
       <use xlink:href="#DejaVuSans-30" transform="translate(63.623047 0)"/>
      </g>
     </g>
    </g>
    <g id="xtick_4">
     <g id="line2d_4">
      <g>
       <use xlink:href="#m1169ee4428" x="343.630408" y="390.04" style="stroke: #000000; stroke-width: 0.8"/>
      </g>
     </g>
     <g id="text_4">
      <!-- 75 -->
      <g transform="translate(337.267908 404.638438) scale(0.1 -0.1)">
       <defs>
        <path id="DejaVuSans-37" d="M 525 4666 
L 3525 4666 
L 3525 4397 
L 1831 0 
L 1172 0 
L 2766 4134 
L 525 4134 
L 525 4666 
z
" transform="scale(0.015625)"/>
       </defs>
       <use xlink:href="#DejaVuSans-37"/>
       <use xlink:href="#DejaVuSans-35" transform="translate(63.623047 0)"/>
      </g>
     </g>
    </g>
    <g id="xtick_5">
     <g id="line2d_5">
      <g>
       <use xlink:href="#m1169ee4428" x="432.452633" y="390.04" style="stroke: #000000; stroke-width: 0.8"/>
      </g>
     </g>
     <g id="text_5">
      <!-- 100 -->
      <g transform="translate(422.908883 404.638438) scale(0.1 -0.1)">
       <defs>
        <path id="DejaVuSans-31" d="M 794 531 
L 1825 531 
L 1825 4091 
L 703 3866 
L 703 4441 
L 1819 4666 
L 2450 4666 
L 2450 531 
L 3481 531 
L 3481 0 
L 794 0 
L 794 531 
z
" transform="scale(0.015625)"/>
       </defs>
       <use xlink:href="#DejaVuSans-31"/>
       <use xlink:href="#DejaVuSans-30" transform="translate(63.623047 0)"/>
       <use xlink:href="#DejaVuSans-30" transform="translate(127.246094 0)"/>
      </g>
     </g>
    </g>
    <g id="xtick_6">
     <g id="line2d_6">
      <g>
       <use xlink:href="#m1169ee4428" x="521.274858" y="390.04" style="stroke: #000000; stroke-width: 0.8"/>
      </g>
     </g>
     <g id="text_6">
      <!-- 125 -->
      <g transform="translate(511.731108 404.638438) scale(0.1 -0.1)">
       <use xlink:href="#DejaVuSans-31"/>
       <use xlink:href="#DejaVuSans-32" transform="translate(63.623047 0)"/>
       <use xlink:href="#DejaVuSans-35" transform="translate(127.246094 0)"/>
      </g>
     </g>
    </g>
    <g id="xtick_7">
     <g id="line2d_7">
      <g>
       <use xlink:href="#m1169ee4428" x="610.097083" y="390.04" style="stroke: #000000; stroke-width: 0.8"/>
      </g>
     </g>
     <g id="text_7">
      <!-- 150 -->
      <g transform="translate(600.553333 404.638438) scale(0.1 -0.1)">
       <use xlink:href="#DejaVuSans-31"/>
       <use xlink:href="#DejaVuSans-35" transform="translate(63.623047 0)"/>
       <use xlink:href="#DejaVuSans-30" transform="translate(127.246094 0)"/>
      </g>
     </g>
    </g>
    <g id="xtick_8">
     <g id="line2d_8">
      <g>
       <use xlink:href="#m1169ee4428" x="698.919308" y="390.04" style="stroke: #000000; stroke-width: 0.8"/>
      </g>
     </g>
     <g id="text_8">
      <!-- 175 -->
      <g transform="translate(689.375558 404.638438) scale(0.1 -0.1)">
       <use xlink:href="#DejaVuSans-31"/>
       <use xlink:href="#DejaVuSans-37" transform="translate(63.623047 0)"/>
       <use xlink:href="#DejaVuSans-35" transform="translate(127.246094 0)"/>
      </g>
     </g>
    </g>
    <g id="text_9">
     <!-- Time (t) -->
     <g transform="translate(357.698479 418.316562) scale(0.1 -0.1)">
      <defs>
       <path id="DejaVuSans-54" d="M -19 4666 
L 3928 4666 
L 3928 4134 
L 2272 4134 
L 2272 0 
L 1638 0 
L 1638 4134 
L -19 4134 
L -19 4666 
z
" transform="scale(0.015625)"/>
       <path id="DejaVuSans-69" d="M 603 3500 
L 1178 3500 
L 1178 0 
L 603 0 
L 603 3500 
z
M 603 4863 
L 1178 4863 
L 1178 4134 
L 603 4134 
L 603 4863 
z
" transform="scale(0.015625)"/>
       <path id="DejaVuSans-6d" d="M 3328 2828 
Q 3544 3216 3844 3400 
Q 4144 3584 4550 3584 
Q 5097 3584 5394 3201 
Q 5691 2819 5691 2113 
L 5691 0 
L 5113 0 
L 5113 2094 
Q 5113 2597 4934 2840 
Q 4756 3084 4391 3084 
Q 3944 3084 3684 2787 
Q 3425 2491 3425 1978 
L 3425 0 
L 2847 0 
L 2847 2094 
Q 2847 2600 2669 2842 
Q 2491 3084 2119 3084 
Q 1678 3084 1418 2786 
Q 1159 2488 1159 1978 
L 1159 0 
L 581 0 
L 581 3500 
L 1159 3500 
L 1159 2956 
Q 1356 3278 1631 3431 
Q 1906 3584 2284 3584 
Q 2666 3584 2933 3390 
Q 3200 3197 3328 2828 
z
" transform="scale(0.015625)"/>
       <path id="DejaVuSans-65" d="M 3597 1894 
L 3597 1613 
L 953 1613 
Q 991 1019 1311 708 
Q 1631 397 2203 397 
Q 2534 397 2845 478 
Q 3156 559 3463 722 
L 3463 178 
Q 3153 47 2828 -22 
Q 2503 -91 2169 -91 
Q 1331 -91 842 396 
Q 353 884 353 1716 
Q 353 2575 817 3079 
Q 1281 3584 2069 3584 
Q 2775 3584 3186 3129 
Q 3597 2675 3597 1894 
z
M 3022 2063 
Q 3016 2534 2758 2815 
Q 2500 3097 2075 3097 
Q 1594 3097 1305 2825 
Q 1016 2553 972 2059 
L 3022 2063 
z
" transform="scale(0.015625)"/>
       <path id="DejaVuSans-20" transform="scale(0.015625)"/>
       <path id="DejaVuSans-28" d="M 1984 4856 
Q 1566 4138 1362 3434 
Q 1159 2731 1159 2009 
Q 1159 1288 1364 580 
Q 1569 -128 1984 -844 
L 1484 -844 
Q 1016 -109 783 600 
Q 550 1309 550 2009 
Q 550 2706 781 3412 
Q 1013 4119 1484 4856 
L 1984 4856 
z
" transform="scale(0.015625)"/>
       <path id="DejaVuSans-74" d="M 1172 4494 
L 1172 3500 
L 2356 3500 
L 2356 3053 
L 1172 3053 
L 1172 1153 
Q 1172 725 1289 603 
Q 1406 481 1766 481 
L 2356 481 
L 2356 0 
L 1766 0 
Q 1100 0 847 248 
Q 594 497 594 1153 
L 594 3053 
L 172 3053 
L 172 3500 
L 594 3500 
L 594 4494 
L 1172 4494 
z
" transform="scale(0.015625)"/>
       <path id="DejaVuSans-29" d="M 513 4856 
L 1013 4856 
Q 1481 4119 1714 3412 
Q 1947 2706 1947 2009 
Q 1947 1309 1714 600 
Q 1481 -109 1013 -844 
L 513 -844 
Q 928 -128 1133 580 
Q 1338 1288 1338 2009 
Q 1338 2731 1133 3434 
Q 928 4138 513 4856 
z
" transform="scale(0.015625)"/>
      </defs>
      <use xlink:href="#DejaVuSans-54"/>
      <use xlink:href="#DejaVuSans-69" transform="translate(57.958984 0)"/>
      <use xlink:href="#DejaVuSans-6d" transform="translate(85.742188 0)"/>
      <use xlink:href="#DejaVuSans-65" transform="translate(183.154297 0)"/>
      <use xlink:href="#DejaVuSans-20" transform="translate(244.677734 0)"/>
      <use xlink:href="#DejaVuSans-28" transform="translate(276.464844 0)"/>
      <use xlink:href="#DejaVuSans-74" transform="translate(315.478516 0)"/>
      <use xlink:href="#DejaVuSans-29" transform="translate(354.6875 0)"/>
     </g>
    </g>
   </g>
   <g id="matplotlib.axis_2">
    <g id="ytick_1">
     <g id="line2d_9">
      <defs>
       <path id="mbf2ebcdfc9" d="M 0 0 
L -3.5 0 
" style="stroke: #000000; stroke-width: 0.8"/>
      </defs>
      <g>
       <use xlink:href="#mbf2ebcdfc9" x="51.05" y="373.467273" style="stroke: #000000; stroke-width: 0.8"/>
      </g>
     </g>
     <g id="text_10">
      <!-- 0 -->
      <g transform="translate(37.6875 377.266491) scale(0.1 -0.1)">
       <use xlink:href="#DejaVuSans-30"/>
      </g>
     </g>
    </g>
    <g id="ytick_2">
     <g id="line2d_10">
      <g>
       <use xlink:href="#mbf2ebcdfc9" x="51.05" y="318.094866" style="stroke: #000000; stroke-width: 0.8"/>
      </g>
     </g>
     <g id="text_11">
      <!-- 50 -->
      <g transform="translate(31.325 321.894085) scale(0.1 -0.1)">
       <use xlink:href="#DejaVuSans-35"/>
       <use xlink:href="#DejaVuSans-30" transform="translate(63.623047 0)"/>
      </g>
     </g>
    </g>
    <g id="ytick_3">
     <g id="line2d_11">
      <g>
       <use xlink:href="#mbf2ebcdfc9" x="51.05" y="262.72246" style="stroke: #000000; stroke-width: 0.8"/>
      </g>
     </g>
     <g id="text_12">
      <!-- 100 -->
      <g transform="translate(24.9625 266.521679) scale(0.1 -0.1)">
       <use xlink:href="#DejaVuSans-31"/>
       <use xlink:href="#DejaVuSans-30" transform="translate(63.623047 0)"/>
       <use xlink:href="#DejaVuSans-30" transform="translate(127.246094 0)"/>
      </g>
     </g>
    </g>
    <g id="ytick_4">
     <g id="line2d_12">
      <g>
       <use xlink:href="#mbf2ebcdfc9" x="51.05" y="207.350053" style="stroke: #000000; stroke-width: 0.8"/>
      </g>
     </g>
     <g id="text_13">
      <!-- 150 -->
      <g transform="translate(24.9625 211.149272) scale(0.1 -0.1)">
       <use xlink:href="#DejaVuSans-31"/>
       <use xlink:href="#DejaVuSans-35" transform="translate(63.623047 0)"/>
       <use xlink:href="#DejaVuSans-30" transform="translate(127.246094 0)"/>
      </g>
     </g>
    </g>
    <g id="ytick_5">
     <g id="line2d_13">
      <g>
       <use xlink:href="#mbf2ebcdfc9" x="51.05" y="151.977647" style="stroke: #000000; stroke-width: 0.8"/>
      </g>
     </g>
     <g id="text_14">
      <!-- 200 -->
      <g transform="translate(24.9625 155.776866) scale(0.1 -0.1)">
       <use xlink:href="#DejaVuSans-32"/>
       <use xlink:href="#DejaVuSans-30" transform="translate(63.623047 0)"/>
       <use xlink:href="#DejaVuSans-30" transform="translate(127.246094 0)"/>
      </g>
     </g>
    </g>
    <g id="ytick_6">
     <g id="line2d_14">
      <g>
       <use xlink:href="#mbf2ebcdfc9" x="51.05" y="96.605241" style="stroke: #000000; stroke-width: 0.8"/>
      </g>
     </g>
     <g id="text_15">
      <!-- 250 -->
      <g transform="translate(24.9625 100.404459) scale(0.1 -0.1)">
       <use xlink:href="#DejaVuSans-32"/>
       <use xlink:href="#DejaVuSans-35" transform="translate(63.623047 0)"/>
       <use xlink:href="#DejaVuSans-30" transform="translate(127.246094 0)"/>
      </g>
     </g>
    </g>
    <g id="ytick_7">
     <g id="line2d_15">
      <g>
       <use xlink:href="#mbf2ebcdfc9" x="51.05" y="41.232834" style="stroke: #000000; stroke-width: 0.8"/>
      </g>
     </g>
     <g id="text_16">
      <!-- 300 -->
      <g transform="translate(24.9625 45.032053) scale(0.1 -0.1)">
       <defs>
        <path id="DejaVuSans-33" d="M 2597 2516 
Q 3050 2419 3304 2112 
Q 3559 1806 3559 1356 
Q 3559 666 3084 287 
Q 2609 -91 1734 -91 
Q 1441 -91 1130 -33 
Q 819 25 488 141 
L 488 750 
Q 750 597 1062 519 
Q 1375 441 1716 441 
Q 2309 441 2620 675 
Q 2931 909 2931 1356 
Q 2931 1769 2642 2001 
Q 2353 2234 1838 2234 
L 1294 2234 
L 1294 2753 
L 1863 2753 
Q 2328 2753 2575 2939 
Q 2822 3125 2822 3475 
Q 2822 3834 2567 4026 
Q 2313 4219 1838 4219 
Q 1578 4219 1281 4162 
Q 984 4106 628 3988 
L 628 4550 
Q 988 4650 1302 4700 
Q 1616 4750 1894 4750 
Q 2613 4750 3031 4423 
Q 3450 4097 3450 3541 
Q 3450 3153 3228 2886 
Q 3006 2619 2597 2516 
z
" transform="scale(0.015625)"/>
       </defs>
       <use xlink:href="#DejaVuSans-33"/>
       <use xlink:href="#DejaVuSans-30" transform="translate(63.623047 0)"/>
       <use xlink:href="#DejaVuSans-30" transform="translate(127.246094 0)"/>
      </g>
     </g>
    </g>
    <g id="text_17">
     <!-- SoC -->
     <g transform="translate(18.882812 217.465) rotate(-90) scale(0.1 -0.1)">
      <defs>
       <path id="DejaVuSans-53" d="M 3425 4513 
L 3425 3897 
Q 3066 4069 2747 4153 
Q 2428 4238 2131 4238 
Q 1616 4238 1336 4038 
Q 1056 3838 1056 3469 
Q 1056 3159 1242 3001 
Q 1428 2844 1947 2747 
L 2328 2669 
Q 3034 2534 3370 2195 
Q 3706 1856 3706 1288 
Q 3706 609 3251 259 
Q 2797 -91 1919 -91 
Q 1588 -91 1214 -16 
Q 841 59 441 206 
L 441 856 
Q 825 641 1194 531 
Q 1563 422 1919 422 
Q 2459 422 2753 634 
Q 3047 847 3047 1241 
Q 3047 1584 2836 1778 
Q 2625 1972 2144 2069 
L 1759 2144 
Q 1053 2284 737 2584 
Q 422 2884 422 3419 
Q 422 4038 858 4394 
Q 1294 4750 2059 4750 
Q 2388 4750 2728 4690 
Q 3069 4631 3425 4513 
z
" transform="scale(0.015625)"/>
       <path id="DejaVuSans-6f" d="M 1959 3097 
Q 1497 3097 1228 2736 
Q 959 2375 959 1747 
Q 959 1119 1226 758 
Q 1494 397 1959 397 
Q 2419 397 2687 759 
Q 2956 1122 2956 1747 
Q 2956 2369 2687 2733 
Q 2419 3097 1959 3097 
z
M 1959 3584 
Q 2709 3584 3137 3096 
Q 3566 2609 3566 1747 
Q 3566 888 3137 398 
Q 2709 -91 1959 -91 
Q 1206 -91 779 398 
Q 353 888 353 1747 
Q 353 2609 779 3096 
Q 1206 3584 1959 3584 
z
" transform="scale(0.015625)"/>
       <path id="DejaVuSans-43" d="M 4122 4306 
L 4122 3641 
Q 3803 3938 3442 4084 
Q 3081 4231 2675 4231 
Q 1875 4231 1450 3742 
Q 1025 3253 1025 2328 
Q 1025 1406 1450 917 
Q 1875 428 2675 428 
Q 3081 428 3442 575 
Q 3803 722 4122 1019 
L 4122 359 
Q 3791 134 3420 21 
Q 3050 -91 2638 -91 
Q 1578 -91 968 557 
Q 359 1206 359 2328 
Q 359 3453 968 4101 
Q 1578 4750 2638 4750 
Q 3056 4750 3426 4639 
Q 3797 4528 4122 4306 
z
" transform="scale(0.015625)"/>
      </defs>
      <use xlink:href="#DejaVuSans-53"/>
      <use xlink:href="#DejaVuSans-6f" transform="translate(63.476562 0)"/>
      <use xlink:href="#DejaVuSans-43" transform="translate(124.658203 0)"/>
     </g>
    </g>
   </g>
   <g id="line2d_16">
    <path d="M 80.716623 207.74 
L 674.049085 207.74 
L 674.049085 207.74 
" clip-path="url(#p1964c8fd84)" style="fill: none; stroke: #1f77b4; stroke-width: 1.8; stroke-linecap: square"/>
   </g>
   <g id="line2d_17">
    <path d="M 80.716623 207.74 
L 674.049085 207.74 
L 674.049085 207.74 
" clip-path="url(#p1964c8fd84)" style="fill: none; stroke: #ff7f0e; stroke-width: 1.8; stroke-linecap: square"/>
   </g>
   <g id="line2d_18">
    <path d="M 80.716623 207.74 
L 674.049085 207.74 
L 674.049085 207.74 
" clip-path="url(#p1964c8fd84)" style="fill: none; stroke: #2ca02c; stroke-width: 1.8; stroke-linecap: square"/>
   </g>
   <g id="line2d_19">
    <path d="M 80.716623 207.74 
L 674.049085 207.74 
L 674.049085 207.74 
" clip-path="url(#p1964c8fd84)" style="fill: none; stroke: #d62728; stroke-width: 1.8; stroke-linecap: square"/>
   </g>
   <g id="line2d_20">
    <path d="M 80.716623 207.74 
L 87.822401 207.74 
L 91.37529 222.238819 
L 94.928179 271.18093 
L 109.139735 271.18093 
L 112.692624 262.412261 
L 116.245513 224.838096 
L 119.798402 207.74 
L 123.351291 160.417838 
L 130.457069 160.417838 
L 134.009958 137.965375 
L 137.562847 118.459675 
L 141.115736 118.459675 
L 144.668625 132.190586 
L 148.221514 144.906979 
L 151.774403 182.806295 
L 158.880181 182.806295 
L 162.43307 207.74 
L 205.067738 207.74 
L 208.620627 193.902344 
L 215.726405 193.902344 
L 219.279294 154.32767 
L 244.149517 154.32767 
L 247.702406 207.74 
L 251.255295 235.33292 
L 261.913962 235.33292 
L 265.466851 236.266967 
L 279.678407 236.266967 
L 283.231296 226.891753 
L 286.784185 207.74 
L 290.337074 207.74 
L 293.889963 206.680492 
L 297.442852 158.330705 
L 300.995741 113.140287 
L 325.865963 113.140287 
L 329.418852 146.359529 
L 332.971741 207.74 
L 375.606409 207.74 
L 379.159298 162.442806 
L 382.712187 158.78174 
L 386.265076 131.068213 
L 389.817965 93.54548 
L 393.370854 52.212602 
L 400.476632 52.212602 
L 407.58241 146.359529 
L 414.688188 146.359529 
L 418.241077 207.74 
L 436.005522 207.74 
L 439.558411 256.42626 
L 443.1113 299.716401 
L 450.217078 299.716401 
L 453.769967 276.897065 
L 457.322856 232.533114 
L 460.875745 207.74 
L 464.428634 167.207137 
L 467.981523 150.061135 
L 471.534412 112.650502 
L 475.087301 112.650502 
L 478.64019 99.074251 
L 492.851746 99.074251 
L 496.404635 122.392016 
L 499.957524 172.218038 
L 503.510413 207.74 
L 510.616191 207.74 
L 514.16908 221.884128 
L 517.721969 221.884128 
L 521.274858 238.705127 
L 535.486414 238.705127 
L 539.039303 234.569209 
L 542.592192 229.924801 
L 546.145081 207.74 
L 549.69797 207.74 
L 553.250859 162.284299 
L 556.803748 162.284299 
L 560.356637 124.457293 
L 563.909526 124.457293 
L 567.462415 102.585242 
L 571.015304 132.94627 
L 581.673971 132.94627 
L 585.22686 178.147177 
L 588.779749 207.74 
L 592.332638 212.889568 
L 606.544194 212.889568 
L 610.097083 223.374822 
L 613.649972 283.397925 
L 627.861528 283.397925 
L 631.414417 245.897941 
L 642.073084 245.897941 
L 645.625973 207.74 
L 674.049085 207.74 
L 674.049085 207.74 
" clip-path="url(#p1964c8fd84)" style="fill: none; stroke: #9467bd; stroke-width: 1.8; stroke-linecap: square"/>
   </g>
   <g id="line2d_21">
    <path d="M 80.716623 207.74 
L 674.049085 207.74 
L 674.049085 207.74 
" clip-path="url(#p1964c8fd84)" style="fill: none; stroke: #8c564b; stroke-width: 1.8; stroke-linecap: square"/>
   </g>
   <g id="line2d_22">
    <path d="M 80.716623 42.012727 
L 674.049085 42.012727 
L 674.049085 42.012727 
" clip-path="url(#p1964c8fd84)" style="fill: none; stroke: #e377c2; stroke-width: 1.8; stroke-linecap: square"/>
   </g>
   <g id="line2d_23">
    <path d="M 80.716623 42.012727 
L 283.231296 42.012727 
L 286.784185 42.360457 
L 290.337074 42.012727 
L 674.049085 42.012727 
L 674.049085 42.012727 
" clip-path="url(#p1964c8fd84)" style="fill: none; stroke: #7f7f7f; stroke-width: 1.8; stroke-linecap: square"/>
   </g>
   <g id="line2d_24">
    <path d="M 80.716623 42.012727 
L 674.049085 42.012727 
L 674.049085 42.012727 
" clip-path="url(#p1964c8fd84)" style="fill: none; stroke: #bcbd22; stroke-width: 1.8; stroke-linecap: square"/>
   </g>
   <g id="line2d_25">
    <path d="M 80.716623 280.66 
L 674.049085 280.66 
L 674.049085 280.66 
" clip-path="url(#p1964c8fd84)" style="fill: none; stroke: #17becf; stroke-width: 1.8; stroke-linecap: square"/>
   </g>
   <g id="line2d_26">
    <path d="M 80.716623 280.66 
L 674.049085 280.66 
L 674.049085 280.66 
" clip-path="url(#p1964c8fd84)" style="fill: none; stroke: #1f77b4; stroke-width: 1.8; stroke-linecap: square"/>
   </g>
   <g id="line2d_27">
    <path d="M 80.716623 280.66 
L 674.049085 280.66 
L 674.049085 280.66 
" clip-path="url(#p1964c8fd84)" style="fill: none; stroke: #ff7f0e; stroke-width: 1.8; stroke-linecap: square"/>
   </g>
   <g id="line2d_28">
    <path d="M 80.716623 280.66 
L 94.928179 280.66 
L 98.481068 303.751194 
L 116.245513 303.751194 
L 119.798402 280.66 
L 123.351291 280.66 
L 126.90418 256.916101 
L 130.457069 215.152829 
L 134.009958 196.778923 
L 137.562847 196.778923 
L 141.115736 187.852727 
L 144.668625 193.242276 
L 151.774403 193.242276 
L 155.327292 237.983281 
L 158.880181 280.66 
L 176.644626 280.66 
L 183.750404 335.196989 
L 197.96196 335.196989 
L 201.514849 315.088278 
L 205.067738 280.66 
L 208.620627 255.452137 
L 212.173516 232.192752 
L 215.726405 214.659066 
L 219.279294 214.659066 
L 222.832183 209.409388 
L 229.937961 209.409388 
L 233.49085 211.153989 
L 237.043739 211.153989 
L 240.596628 232.66571 
L 244.149517 280.66 
L 265.466851 280.66 
L 269.01974 308.571254 
L 283.231296 308.571254 
L 286.784185 306.128721 
L 290.337074 280.66 
L 293.889963 242.659399 
L 300.995741 242.659399 
L 304.54863 221.532537 
L 308.101519 221.532537 
L 311.654408 187.852727 
L 322.313074 187.852727 
L 325.865963 233.423713 
L 329.418852 280.66 
L 332.971741 280.66 
L 336.52463 306.791957 
L 340.077519 322.54919 
L 343.630408 348.051519 
L 361.394853 348.051519 
L 364.947742 342.282503 
L 368.500631 342.282503 
L 372.05352 309.838403 
L 375.606409 280.66 
L 379.159298 280.66 
L 382.712187 238.896727 
L 386.265076 238.896727 
L 389.817965 230.165754 
L 393.370854 230.165754 
L 396.923743 207.649122 
L 407.58241 207.649122 
L 411.135299 229.959503 
L 414.688188 280.66 
L 418.241077 280.66 
L 421.793966 301.974272 
L 457.322856 301.974272 
L 460.875745 280.66 
L 464.428634 280.66 
L 467.981523 245.363645 
L 471.534412 245.363645 
L 475.087301 229.100404 
L 499.957524 229.100404 
L 503.510413 280.66 
L 507.063302 280.66 
L 510.616191 294.036047 
L 539.039303 294.036047 
L 542.592192 280.66 
L 546.145081 280.66 
L 549.69797 257.927698 
L 553.250859 257.927698 
L 556.803748 223.35094 
L 560.356637 220.673975 
L 563.909526 203.685867 
L 571.015304 203.685867 
L 574.568193 234.060155 
L 578.121082 234.060155 
L 581.673971 280.66 
L 599.438416 280.66 
L 602.991305 309.546538 
L 606.544194 342.379249 
L 610.097083 373.467273 
L 624.308639 373.467273 
L 627.861528 336.885895 
L 631.414417 336.885895 
L 634.967306 316.363805 
L 638.520195 289.358467 
L 642.073084 270.800764 
L 645.625973 270.800764 
L 649.178862 256.899307 
L 666.943307 256.899307 
L 670.496196 280.66 
L 674.049085 280.66 
L 674.049085 280.66 
" clip-path="url(#p1964c8fd84)" style="fill: none; stroke: #2ca02c; stroke-width: 1.8; stroke-linecap: square"/>
   </g>
   <g id="line2d_29">
    <path d="M 80.716623 280.66 
L 119.798402 280.66 
L 123.351291 278.336399 
L 126.90418 278.053186 
L 130.457069 282.722489 
L 134.009958 284.252136 
L 137.562847 284.252136 
L 141.115736 283.91657 
L 144.668625 280.32404 
L 148.221514 277.579468 
L 151.774403 276.494077 
L 155.327292 277.116229 
L 158.880181 280.66 
L 165.985959 280.66 
L 169.538848 281.811577 
L 176.644626 281.811577 
L 183.750404 282.982303 
L 187.303293 283.424782 
L 190.856182 283.424782 
L 194.409071 281.752433 
L 197.96196 280.66 
L 205.067738 280.66 
L 208.620627 281.833467 
L 212.173516 282.722045 
L 215.726405 282.722045 
L 219.279294 280.816389 
L 226.385072 280.816389 
L 229.937961 279.757432 
L 233.49085 279.757432 
L 237.043739 280.193493 
L 240.596628 280.193493 
L 244.149517 280.536794 
L 247.702406 280.66 
L 460.875745 280.66 
L 464.428634 287.334276 
L 467.981523 300.406493 
L 471.534412 309.57525 
L 475.087301 316.247606 
L 478.64019 320.466221 
L 492.851746 320.466221 
L 496.404635 320.227804 
L 503.510413 280.66 
L 588.779749 280.66 
L 592.332638 270.512447 
L 610.097083 270.512447 
L 613.649972 270.745695 
L 617.202861 271.450631 
L 624.308639 271.476895 
L 627.861528 275.187397 
L 631.414417 279.063567 
L 634.967306 286.751802 
L 638.520195 296.299864 
L 642.073084 306.407829 
L 645.625973 309.076223 
L 649.178862 310.747729 
L 652.731751 310.747729 
L 656.28464 304.371351 
L 659.837529 289.626536 
L 663.390418 275.954716 
L 670.496196 275.954716 
L 674.049085 280.66 
L 674.049085 280.66 
" clip-path="url(#p1964c8fd84)" style="fill: none; stroke: #d62728; stroke-width: 1.8; stroke-linecap: square"/>
   </g>
   <g id="line2d_30">
    <path d="M 80.716623 280.66 
L 94.928179 280.66 
L 98.481068 306.439798 
L 109.139735 306.439798 
L 112.692624 285.558162 
L 116.245513 280.66 
L 123.351291 280.66 
L 126.90418 259.778364 
L 130.457069 257.670141 
L 134.009958 257.670141 
L 137.562847 236.788504 
L 141.115736 229.100404 
L 144.668625 229.100404 
L 148.221514 254.880202 
L 158.880181 254.880202 
L 162.43307 280.66 
L 180.197515 280.66 
L 183.750404 306.439798 
L 194.409071 306.439798 
L 197.96196 300.361633 
L 201.514849 280.66 
L 205.067738 280.66 
L 208.620627 277.8021 
L 215.726405 236.038827 
L 219.279294 236.038827 
L 222.832183 215.157191 
L 226.385072 203.320606 
L 229.937961 203.320606 
L 240.596628 280.66 
L 247.702406 280.66 
L 251.255295 306.439798 
L 261.913962 306.439798 
L 265.466851 317.525111 
L 269.01974 343.304909 
L 279.678407 343.304909 
L 290.337074 280.66 
L 300.995741 280.66 
L 304.54863 259.778364 
L 308.101519 259.778364 
L 311.654408 254.997155 
L 329.418852 254.997155 
L 340.077519 332.219596 
L 364.947742 332.219596 
L 368.500631 311.455169 
L 372.05352 301.541636 
L 375.606409 280.66 
L 382.712187 280.66 
L 386.265076 259.778364 
L 407.58241 259.778364 
L 411.135299 280.66 
L 432.452633 280.66 
L 436.005522 306.439798 
L 450.217078 306.439798 
L 453.769967 285.558162 
L 457.322856 285.558162 
L 460.875745 280.66 
L 464.428634 263.728665 
L 471.534412 263.728665 
L 475.087301 242.847028 
L 489.298857 242.847028 
L 492.851746 254.880202 
L 496.404635 254.880202 
L 499.957524 280.66 
L 503.510413 280.66 
L 507.063302 294.11816 
L 514.16908 294.11816 
L 517.721969 308.511733 
L 521.274858 308.511733 
L 524.827747 323.860579 
L 528.380636 333.259351 
L 531.933525 333.259351 
L 535.486414 330.122401 
L 539.039303 322.423273 
L 549.69797 259.778364 
L 553.250859 259.778364 
L 556.803748 253.543389 
L 560.356637 253.543389 
L 563.909526 232.661752 
L 574.568193 232.661752 
L 578.121082 254.880202 
L 585.22686 254.880202 
L 588.779749 280.66 
L 592.332638 280.66 
L 595.885527 286.411109 
L 599.438416 290.388729 
L 602.991305 290.388729 
L 606.544194 316.168527 
L 610.097083 335.92463 
L 620.75575 335.92463 
L 624.308639 318.548912 
L 631.414417 318.548912 
L 634.967306 297.667276 
L 638.520195 280.739325 
L 642.073084 259.857689 
L 645.625973 259.857689 
L 649.178862 238.976052 
L 666.943307 238.976052 
L 670.496196 264.75585 
L 674.049085 280.66 
L 674.049085 280.66 
" clip-path="url(#p1964c8fd84)" style="fill: none; stroke: #9467bd; stroke-width: 1.8; stroke-linecap: square"/>
   </g>
   <g id="line2d_31">
    <path d="M 80.716623 280.66 
L 674.049085 280.66 
L 674.049085 280.66 
" clip-path="url(#p1964c8fd84)" style="fill: none; stroke: #8c564b; stroke-width: 1.8; stroke-linecap: square"/>
   </g>
   <g id="line2d_32">
    <path d="M 80.716623 280.66 
L 674.049085 280.66 
L 674.049085 280.66 
" clip-path="url(#p1964c8fd84)" style="fill: none; stroke: #e377c2; stroke-width: 1.8; stroke-linecap: square"/>
   </g>
   <g id="line2d_33">
    <path d="M 80.716623 280.66 
L 674.049085 280.66 
L 674.049085 280.66 
" clip-path="url(#p1964c8fd84)" style="fill: none; stroke: #7f7f7f; stroke-width: 1.8; stroke-linecap: square"/>
   </g>
   <g id="patch_3">
    <path d="M 51.05 390.04 
L 51.05 25.44 
" style="fill: none; stroke: #000000; stroke-width: 0.8; stroke-linejoin: miter; stroke-linecap: square"/>
   </g>
   <g id="patch_4">
    <path d="M 703.715708 390.04 
L 703.715708 25.44 
" style="fill: none; stroke: #000000; stroke-width: 0.8; stroke-linejoin: miter; stroke-linecap: square"/>
   </g>
   <g id="patch_5">
    <path d="M 51.05 390.04 
L 703.715708 390.04 
" style="fill: none; stroke: #000000; stroke-width: 0.8; stroke-linejoin: miter; stroke-linecap: square"/>
   </g>
   <g id="patch_6">
    <path d="M 51.05 25.44 
L 703.715708 25.44 
" style="fill: none; stroke: #000000; stroke-width: 0.8; stroke-linejoin: miter; stroke-linecap: square"/>
   </g>
   <g id="text_18">
    <!-- SoC by battery (T=168, F=12, L=12) -->
    <g transform="translate(266.157854 19.44) scale(0.12 -0.12)">
     <defs>
      <path id="DejaVuSans-62" d="M 3116 1747 
Q 3116 2381 2855 2742 
Q 2594 3103 2138 3103 
Q 1681 3103 1420 2742 
Q 1159 2381 1159 1747 
Q 1159 1113 1420 752 
Q 1681 391 2138 391 
Q 2594 391 2855 752 
Q 3116 1113 3116 1747 
z
M 1159 2969 
Q 1341 3281 1617 3432 
Q 1894 3584 2278 3584 
Q 2916 3584 3314 3078 
Q 3713 2572 3713 1747 
Q 3713 922 3314 415 
Q 2916 -91 2278 -91 
Q 1894 -91 1617 61 
Q 1341 213 1159 525 
L 1159 0 
L 581 0 
L 581 4863 
L 1159 4863 
L 1159 2969 
z
" transform="scale(0.015625)"/>
      <path id="DejaVuSans-79" d="M 2059 -325 
Q 1816 -950 1584 -1140 
Q 1353 -1331 966 -1331 
L 506 -1331 
L 506 -850 
L 844 -850 
Q 1081 -850 1212 -737 
Q 1344 -625 1503 -206 
L 1606 56 
L 191 3500 
L 800 3500 
L 1894 763 
L 2988 3500 
L 3597 3500 
L 2059 -325 
z
" transform="scale(0.015625)"/>
      <path id="DejaVuSans-61" d="M 2194 1759 
Q 1497 1759 1228 1600 
Q 959 1441 959 1056 
Q 959 750 1161 570 
Q 1363 391 1709 391 
Q 2188 391 2477 730 
Q 2766 1069 2766 1631 
L 2766 1759 
L 2194 1759 
z
M 3341 1997 
L 3341 0 
L 2766 0 
L 2766 531 
Q 2569 213 2275 61 
Q 1981 -91 1556 -91 
Q 1019 -91 701 211 
Q 384 513 384 1019 
Q 384 1609 779 1909 
Q 1175 2209 1959 2209 
L 2766 2209 
L 2766 2266 
Q 2766 2663 2505 2880 
Q 2244 3097 1772 3097 
Q 1472 3097 1187 3025 
Q 903 2953 641 2809 
L 641 3341 
Q 956 3463 1253 3523 
Q 1550 3584 1831 3584 
Q 2591 3584 2966 3190 
Q 3341 2797 3341 1997 
z
" transform="scale(0.015625)"/>
      <path id="DejaVuSans-72" d="M 2631 2963 
Q 2534 3019 2420 3045 
Q 2306 3072 2169 3072 
Q 1681 3072 1420 2755 
Q 1159 2438 1159 1844 
L 1159 0 
L 581 0 
L 581 3500 
L 1159 3500 
L 1159 2956 
Q 1341 3275 1631 3429 
Q 1922 3584 2338 3584 
Q 2397 3584 2469 3576 
Q 2541 3569 2628 3553 
L 2631 2963 
z
" transform="scale(0.015625)"/>
      <path id="DejaVuSans-3d" d="M 678 2906 
L 4684 2906 
L 4684 2381 
L 678 2381 
L 678 2906 
z
M 678 1631 
L 4684 1631 
L 4684 1100 
L 678 1100 
L 678 1631 
z
" transform="scale(0.015625)"/>
      <path id="DejaVuSans-36" d="M 2113 2584 
Q 1688 2584 1439 2293 
Q 1191 2003 1191 1497 
Q 1191 994 1439 701 
Q 1688 409 2113 409 
Q 2538 409 2786 701 
Q 3034 994 3034 1497 
Q 3034 2003 2786 2293 
Q 2538 2584 2113 2584 
z
M 3366 4563 
L 3366 3988 
Q 3128 4100 2886 4159 
Q 2644 4219 2406 4219 
Q 1781 4219 1451 3797 
Q 1122 3375 1075 2522 
Q 1259 2794 1537 2939 
Q 1816 3084 2150 3084 
Q 2853 3084 3261 2657 
Q 3669 2231 3669 1497 
Q 3669 778 3244 343 
Q 2819 -91 2113 -91 
Q 1303 -91 875 529 
Q 447 1150 447 2328 
Q 447 3434 972 4092 
Q 1497 4750 2381 4750 
Q 2619 4750 2861 4703 
Q 3103 4656 3366 4563 
z
" transform="scale(0.015625)"/>
      <path id="DejaVuSans-38" d="M 2034 2216 
Q 1584 2216 1326 1975 
Q 1069 1734 1069 1313 
Q 1069 891 1326 650 
Q 1584 409 2034 409 
Q 2484 409 2743 651 
Q 3003 894 3003 1313 
Q 3003 1734 2745 1975 
Q 2488 2216 2034 2216 
z
M 1403 2484 
Q 997 2584 770 2862 
Q 544 3141 544 3541 
Q 544 4100 942 4425 
Q 1341 4750 2034 4750 
Q 2731 4750 3128 4425 
Q 3525 4100 3525 3541 
Q 3525 3141 3298 2862 
Q 3072 2584 2669 2484 
Q 3125 2378 3379 2068 
Q 3634 1759 3634 1313 
Q 3634 634 3220 271 
Q 2806 -91 2034 -91 
Q 1263 -91 848 271 
Q 434 634 434 1313 
Q 434 1759 690 2068 
Q 947 2378 1403 2484 
z
M 1172 3481 
Q 1172 3119 1398 2916 
Q 1625 2713 2034 2713 
Q 2441 2713 2670 2916 
Q 2900 3119 2900 3481 
Q 2900 3844 2670 4047 
Q 2441 4250 2034 4250 
Q 1625 4250 1398 4047 
Q 1172 3844 1172 3481 
z
" transform="scale(0.015625)"/>
      <path id="DejaVuSans-2c" d="M 750 794 
L 1409 794 
L 1409 256 
L 897 -744 
L 494 -744 
L 750 256 
L 750 794 
z
" transform="scale(0.015625)"/>
      <path id="DejaVuSans-46" d="M 628 4666 
L 3309 4666 
L 3309 4134 
L 1259 4134 
L 1259 2759 
L 3109 2759 
L 3109 2228 
L 1259 2228 
L 1259 0 
L 628 0 
L 628 4666 
z
" transform="scale(0.015625)"/>
      <path id="DejaVuSans-4c" d="M 628 4666 
L 1259 4666 
L 1259 531 
L 3531 531 
L 3531 0 
L 628 0 
L 628 4666 
z
" transform="scale(0.015625)"/>
     </defs>
     <use xlink:href="#DejaVuSans-53"/>
     <use xlink:href="#DejaVuSans-6f" transform="translate(63.476562 0)"/>
     <use xlink:href="#DejaVuSans-43" transform="translate(124.658203 0)"/>
     <use xlink:href="#DejaVuSans-20" transform="translate(194.482422 0)"/>
     <use xlink:href="#DejaVuSans-62" transform="translate(226.269531 0)"/>
     <use xlink:href="#DejaVuSans-79" transform="translate(289.746094 0)"/>
     <use xlink:href="#DejaVuSans-20" transform="translate(348.925781 0)"/>
     <use xlink:href="#DejaVuSans-62" transform="translate(380.712891 0)"/>
     <use xlink:href="#DejaVuSans-61" transform="translate(444.189453 0)"/>
     <use xlink:href="#DejaVuSans-74" transform="translate(505.46875 0)"/>
     <use xlink:href="#DejaVuSans-74" transform="translate(544.677734 0)"/>
     <use xlink:href="#DejaVuSans-65" transform="translate(583.886719 0)"/>
     <use xlink:href="#DejaVuSans-72" transform="translate(645.410156 0)"/>
     <use xlink:href="#DejaVuSans-79" transform="translate(686.523438 0)"/>
     <use xlink:href="#DejaVuSans-20" transform="translate(745.703125 0)"/>
     <use xlink:href="#DejaVuSans-28" transform="translate(777.490234 0)"/>
     <use xlink:href="#DejaVuSans-54" transform="translate(816.503906 0)"/>
     <use xlink:href="#DejaVuSans-3d" transform="translate(877.587891 0)"/>
     <use xlink:href="#DejaVuSans-31" transform="translate(961.376953 0)"/>
     <use xlink:href="#DejaVuSans-36" transform="translate(1025 0)"/>
     <use xlink:href="#DejaVuSans-38" transform="translate(1088.623047 0)"/>
     <use xlink:href="#DejaVuSans-2c" transform="translate(1152.246094 0)"/>
     <use xlink:href="#DejaVuSans-20" transform="translate(1184.033203 0)"/>
     <use xlink:href="#DejaVuSans-46" transform="translate(1215.820312 0)"/>
     <use xlink:href="#DejaVuSans-3d" transform="translate(1273.339844 0)"/>
     <use xlink:href="#DejaVuSans-31" transform="translate(1357.128906 0)"/>
     <use xlink:href="#DejaVuSans-32" transform="translate(1420.751953 0)"/>
     <use xlink:href="#DejaVuSans-2c" transform="translate(1484.375 0)"/>
     <use xlink:href="#DejaVuSans-20" transform="translate(1516.162109 0)"/>
     <use xlink:href="#DejaVuSans-4c" transform="translate(1547.949219 0)"/>
     <use xlink:href="#DejaVuSans-3d" transform="translate(1603.662109 0)"/>
     <use xlink:href="#DejaVuSans-31" transform="translate(1687.451172 0)"/>
     <use xlink:href="#DejaVuSans-32" transform="translate(1751.074219 0)"/>
     <use xlink:href="#DejaVuSans-29" transform="translate(1814.697266 0)"/>
    </g>
   </g>
  </g>
 </g>
 <defs>
  <clipPath id="p1964c8fd84">
   <rect x="51.05" y="25.44" width="652.665708" height="364.6"/>
  </clipPath>
 </defs>
</svg>
