<?xml version="1.0" encoding="utf-8" standalone="no"?>
<!DOCTYPE svg PUBLIC "-//W3C//DTD SVG 1.1//EN"
  "http://www.w3.org/Graphics/SVG/1.1/DTD/svg11.dtd">
<svg xmlns:xlink="http://www.w3.org/1999/xlink" width="720pt" height="432pt" viewBox="0 0 720 432" xmlns="http://www.w3.org/2000/svg" version="1.1">
 <metadata>
  <rdf:RDF xmlns:dc="http://purl.org/dc/elements/1.1/" xmlns:cc="http://creativecommons.org/ns#" xmlns:rdf="http://www.w3.org/1999/02/22-rdf-syntax-ns#">
   <cc:Work>
    <dc:type rdf:resource="http://purl.org/dc/dcmitype/StillImage"/>
    <dc:date>2025-11-11T01:05:14.180039</dc:date>
    <dc:format>image/svg+xml</dc:format>
    <dc:creator>
     <cc:Agent>
      <dc:title>Matplotlib v3.10.0, https://matplotlib.org/</dc:title>
     </cc:Agent>
    </dc:creator>
   </cc:Work>
  </rdf:RDF>
 </metadata>
 <defs>
  <style type="text/css">*{stroke-linejoin: round; stroke-linecap: butt}</style>
 </defs>
 <g id="figure_1">
  <g id="patch_1">
   <path d="M 0 432 
L 720 432 
L 720 0 
L 0 0 
z
" style="fill: #ffffff"/>
  </g>
  <g id="axes_1">
   <g id="patch_2">
    <path d="M 51.05 390.04 
L 703.779179 390.04 
L 703.779179 25.44 
L 51.05 25.44 
z
" style="fill: #ffffff"/>
   </g>
   <g id="matplotlib.axis_1">
    <g id="xtick_1">
     <g id="line2d_1">
      <defs>
       <path id="md7f10c7730" d="M 0 0 
L 0 3.5 
" style="stroke: #000000; stroke-width: 0.8"/>
      </defs>
      <g>
       <use xlink:href="#md7f10c7730" x="78.948194" y="390.04" style="stroke: #000000; stroke-width: 0.8"/>
      </g>
     </g>
     <g id="text_1">
      <!-- 0 -->
      <g transform="translate(75.766944 404.638438) scale(0.1 -0.1)">
       <defs>
        <path id="DejaVuSans-30" d="M 2034 4250 
Q 1547 4250 1301 3770 
Q 1056 3291 1056 2328 
Q 1056 1369 1301 889 
Q 1547 409 2034 409 
Q 2525 409 2770 889 
Q 3016 1369 3016 2328 
Q 3016 3291 2770 3770 
Q 2525 4250 2034 4250 
z
M 2034 4750 
Q 2819 4750 3233 4129 
Q 3647 3509 3647 2328 
Q 3647 1150 3233 529 
Q 2819 -91 2034 -91 
Q 1250 -91 836 529 
Q 422 1150 422 2328 
Q 422 3509 836 4129 
Q 1250 4750 2034 4750 
z
" transform="scale(0.015625)"/>
       </defs>
       <use xlink:href="#DejaVuSans-30"/>
      </g>
     </g>
    </g>
    <g id="xtick_2">
     <g id="line2d_2">
      <g>
       <use xlink:href="#md7f10c7730" x="167.51389" y="390.04" style="stroke: #000000; stroke-width: 0.8"/>
      </g>
     </g>
     <g id="text_2">
      <!-- 50 -->
      <g transform="translate(161.15139 404.638438) scale(0.1 -0.1)">
       <defs>
        <path id="DejaVuSans-35" d="M 691 4666 
L 3169 4666 
L 3169 4134 
L 1269 4134 
L 1269 2991 
Q 1406 3038 1543 3061 
Q 1681 3084 1819 3084 
Q 2600 3084 3056 2656 
Q 3513 2228 3513 1497 
Q 3513 744 3044 326 
Q 2575 -91 1722 -91 
Q 1428 -91 1123 -41 
Q 819 9 494 109 
L 494 744 
Q 775 591 1075 516 
Q 1375 441 1709 441 
Q 2250 441 2565 725 
Q 2881 1009 2881 1497 
Q 2881 1984 2565 2268 
Q 2250 2553 1709 2553 
Q 1456 2553 1204 2497 
Q 953 2441 691 2322 
L 691 4666 
z
" transform="scale(0.015625)"/>
       </defs>
       <use xlink:href="#DejaVuSans-35"/>
       <use xlink:href="#DejaVuSans-30" transform="translate(63.623047 0)"/>
      </g>
     </g>
    </g>
    <g id="xtick_3">
     <g id="line2d_3">
      <g>
       <use xlink:href="#md7f10c7730" x="256.079586" y="390.04" style="stroke: #000000; stroke-width: 0.8"/>
      </g>
     </g>
     <g id="text_3">
      <!-- 100 -->
      <g transform="translate(246.535836 404.638438) scale(0.1 -0.1)">
       <defs>
        <path id="DejaVuSans-31" d="M 794 531 
L 1825 531 
L 1825 4091 
L 703 3866 
L 703 4441 
L 1819 4666 
L 2450 4666 
L 2450 531 
L 3481 531 
L 3481 0 
L 794 0 
L 794 531 
z
" transform="scale(0.015625)"/>
       </defs>
       <use xlink:href="#DejaVuSans-31"/>
       <use xlink:href="#DejaVuSans-30" transform="translate(63.623047 0)"/>
       <use xlink:href="#DejaVuSans-30" transform="translate(127.246094 0)"/>
      </g>
     </g>
    </g>
    <g id="xtick_4">
     <g id="line2d_4">
      <g>
       <use xlink:href="#md7f10c7730" x="344.645282" y="390.04" style="stroke: #000000; stroke-width: 0.8"/>
      </g>
     </g>
     <g id="text_4">
      <!-- 150 -->
      <g transform="translate(335.101532 404.638438) scale(0.1 -0.1)">
       <use xlink:href="#DejaVuSans-31"/>
       <use xlink:href="#DejaVuSans-35" transform="translate(63.623047 0)"/>
       <use xlink:href="#DejaVuSans-30" transform="translate(127.246094 0)"/>
      </g>
     </g>
    </g>
    <g id="xtick_5">
     <g id="line2d_5">
      <g>
       <use xlink:href="#md7f10c7730" x="433.210978" y="390.04" style="stroke: #000000; stroke-width: 0.8"/>
      </g>
     </g>
     <g id="text_5">
      <!-- 200 -->
      <g transform="translate(423.667228 404.638438) scale(0.1 -0.1)">
       <defs>
        <path id="DejaVuSans-32" d="M 1228 531 
L 3431 531 
L 3431 0 
L 469 0 
L 469 531 
Q 828 903 1448 1529 
Q 2069 2156 2228 2338 
Q 2531 2678 2651 2914 
Q 2772 3150 2772 3378 
Q 2772 3750 2511 3984 
Q 2250 4219 1831 4219 
Q 1534 4219 1204 4116 
Q 875 4013 500 3803 
L 500 4441 
Q 881 4594 1212 4672 
Q 1544 4750 1819 4750 
Q 2544 4750 2975 4387 
Q 3406 4025 3406 3419 
Q 3406 3131 3298 2873 
Q 3191 2616 2906 2266 
Q 2828 2175 2409 1742 
Q 1991 1309 1228 531 
z
" transform="scale(0.015625)"/>
       </defs>
       <use xlink:href="#DejaVuSans-32"/>
       <use xlink:href="#DejaVuSans-30" transform="translate(63.623047 0)"/>
       <use xlink:href="#DejaVuSans-30" transform="translate(127.246094 0)"/>
      </g>
     </g>
    </g>
    <g id="xtick_6">
     <g id="line2d_6">
      <g>
       <use xlink:href="#md7f10c7730" x="521.776674" y="390.04" style="stroke: #000000; stroke-width: 0.8"/>
      </g>
     </g>
     <g id="text_6">
      <!-- 250 -->
      <g transform="translate(512.232924 404.638438) scale(0.1 -0.1)">
       <use xlink:href="#DejaVuSans-32"/>
       <use xlink:href="#DejaVuSans-35" transform="translate(63.623047 0)"/>
       <use xlink:href="#DejaVuSans-30" transform="translate(127.246094 0)"/>
      </g>
     </g>
    </g>
    <g id="xtick_7">
     <g id="line2d_7">
      <g>
       <use xlink:href="#md7f10c7730" x="610.34237" y="390.04" style="stroke: #000000; stroke-width: 0.8"/>
      </g>
     </g>
     <g id="text_7">
      <!-- 300 -->
      <g transform="translate(600.79862 404.638438) scale(0.1 -0.1)">
       <defs>
        <path id="DejaVuSans-33" d="M 2597 2516 
Q 3050 2419 3304 2112 
Q 3559 1806 3559 1356 
Q 3559 666 3084 287 
Q 2609 -91 1734 -91 
Q 1441 -91 1130 -33 
Q 819 25 488 141 
L 488 750 
Q 750 597 1062 519 
Q 1375 441 1716 441 
Q 2309 441 2620 675 
Q 2931 909 2931 1356 
Q 2931 1769 2642 2001 
Q 2353 2234 1838 2234 
L 1294 2234 
L 1294 2753 
L 1863 2753 
Q 2328 2753 2575 2939 
Q 2822 3125 2822 3475 
Q 2822 3834 2567 4026 
Q 2313 4219 1838 4219 
Q 1578 4219 1281 4162 
Q 984 4106 628 3988 
L 628 4550 
Q 988 4650 1302 4700 
Q 1616 4750 1894 4750 
Q 2613 4750 3031 4423 
Q 3450 4097 3450 3541 
Q 3450 3153 3228 2886 
Q 3006 2619 2597 2516 
z
" transform="scale(0.015625)"/>
       </defs>
       <use xlink:href="#DejaVuSans-33"/>
       <use xlink:href="#DejaVuSans-30" transform="translate(63.623047 0)"/>
       <use xlink:href="#DejaVuSans-30" transform="translate(127.246094 0)"/>
      </g>
     </g>
    </g>
    <g id="xtick_8">
     <g id="line2d_8">
      <g>
       <use xlink:href="#md7f10c7730" x="698.908066" y="390.04" style="stroke: #000000; stroke-width: 0.8"/>
      </g>
     </g>
     <g id="text_8">
      <!-- 350 -->
      <g transform="translate(689.364316 404.638438) scale(0.1 -0.1)">
       <use xlink:href="#DejaVuSans-33"/>
       <use xlink:href="#DejaVuSans-35" transform="translate(63.623047 0)"/>
       <use xlink:href="#DejaVuSans-30" transform="translate(127.246094 0)"/>
      </g>
     </g>
    </g>
    <g id="text_9">
     <!-- Time (t) -->
     <g transform="translate(357.730215 418.316562) scale(0.1 -0.1)">
      <defs>
       <path id="DejaVuSans-54" d="M -19 4666 
L 3928 4666 
L 3928 4134 
L 2272 4134 
L 2272 0 
L 1638 0 
L 1638 4134 
L -19 4134 
L -19 4666 
z
" transform="scale(0.015625)"/>
       <path id="DejaVuSans-69" d="M 603 3500 
L 1178 3500 
L 1178 0 
L 603 0 
L 603 3500 
z
M 603 4863 
L 1178 4863 
L 1178 4134 
L 603 4134 
L 603 4863 
z
" transform="scale(0.015625)"/>
       <path id="DejaVuSans-6d" d="M 3328 2828 
Q 3544 3216 3844 3400 
Q 4144 3584 4550 3584 
Q 5097 3584 5394 3201 
Q 5691 2819 5691 2113 
L 5691 0 
L 5113 0 
L 5113 2094 
Q 5113 2597 4934 2840 
Q 4756 3084 4391 3084 
Q 3944 3084 3684 2787 
Q 3425 2491 3425 1978 
L 3425 0 
L 2847 0 
L 2847 2094 
Q 2847 2600 2669 2842 
Q 2491 3084 2119 3084 
Q 1678 3084 1418 2786 
Q 1159 2488 1159 1978 
L 1159 0 
L 581 0 
L 581 3500 
L 1159 3500 
L 1159 2956 
Q 1356 3278 1631 3431 
Q 1906 3584 2284 3584 
Q 2666 3584 2933 3390 
Q 3200 3197 3328 2828 
z
" transform="scale(0.015625)"/>
       <path id="DejaVuSans-65" d="M 3597 1894 
L 3597 1613 
L 953 1613 
Q 991 1019 1311 708 
Q 1631 397 2203 397 
Q 2534 397 2845 478 
Q 3156 559 3463 722 
L 3463 178 
Q 3153 47 2828 -22 
Q 2503 -91 2169 -91 
Q 1331 -91 842 396 
Q 353 884 353 1716 
Q 353 2575 817 3079 
Q 1281 3584 2069 3584 
Q 2775 3584 3186 3129 
Q 3597 2675 3597 1894 
z
M 3022 2063 
Q 3016 2534 2758 2815 
Q 2500 3097 2075 3097 
Q 1594 3097 1305 2825 
Q 1016 2553 972 2059 
L 3022 2063 
z
" transform="scale(0.015625)"/>
       <path id="DejaVuSans-20" transform="scale(0.015625)"/>
       <path id="DejaVuSans-28" d="M 1984 4856 
Q 1566 4138 1362 3434 
Q 1159 2731 1159 2009 
Q 1159 1288 1364 580 
Q 1569 -128 1984 -844 
L 1484 -844 
Q 1016 -109 783 600 
Q 550 1309 550 2009 
Q 550 2706 781 3412 
Q 1013 4119 1484 4856 
L 1984 4856 
z
" transform="scale(0.015625)"/>
       <path id="DejaVuSans-74" d="M 1172 4494 
L 1172 3500 
L 2356 3500 
L 2356 3053 
L 1172 3053 
L 1172 1153 
Q 1172 725 1289 603 
Q 1406 481 1766 481 
L 2356 481 
L 2356 0 
L 1766 0 
Q 1100 0 847 248 
Q 594 497 594 1153 
L 594 3053 
L 172 3053 
L 172 3500 
L 594 3500 
L 594 4494 
L 1172 4494 
z
" transform="scale(0.015625)"/>
       <path id="DejaVuSans-29" d="M 513 4856 
L 1013 4856 
Q 1481 4119 1714 3412 
Q 1947 2706 1947 2009 
Q 1947 1309 1714 600 
Q 1481 -109 1013 -844 
L 513 -844 
Q 928 -128 1133 580 
Q 1338 1288 1338 2009 
Q 1338 2731 1133 3434 
Q 928 4138 513 4856 
z
" transform="scale(0.015625)"/>
      </defs>
      <use xlink:href="#DejaVuSans-54"/>
      <use xlink:href="#DejaVuSans-69" transform="translate(57.958984 0)"/>
      <use xlink:href="#DejaVuSans-6d" transform="translate(85.742188 0)"/>
      <use xlink:href="#DejaVuSans-65" transform="translate(183.154297 0)"/>
      <use xlink:href="#DejaVuSans-20" transform="translate(244.677734 0)"/>
      <use xlink:href="#DejaVuSans-28" transform="translate(276.464844 0)"/>
      <use xlink:href="#DejaVuSans-74" transform="translate(315.478516 0)"/>
      <use xlink:href="#DejaVuSans-29" transform="translate(354.6875 0)"/>
     </g>
    </g>
   </g>
   <g id="matplotlib.axis_2">
    <g id="ytick_1">
     <g id="line2d_9">
      <defs>
       <path id="mdc466b7eaa" d="M 0 0 
L -3.5 0 
" style="stroke: #000000; stroke-width: 0.8"/>
      </defs>
      <g>
       <use xlink:href="#mdc466b7eaa" x="51.05" y="379.689239" style="stroke: #000000; stroke-width: 0.8"/>
      </g>
     </g>
     <g id="text_10">
      <!-- 0 -->
      <g transform="translate(37.6875 383.488458) scale(0.1 -0.1)">
       <use xlink:href="#DejaVuSans-30"/>
      </g>
     </g>
    </g>
    <g id="ytick_2">
     <g id="line2d_10">
      <g>
       <use xlink:href="#mdc466b7eaa" x="51.05" y="328.701787" style="stroke: #000000; stroke-width: 0.8"/>
      </g>
     </g>
     <g id="text_11">
      <!-- 50 -->
      <g transform="translate(31.325 332.501006) scale(0.1 -0.1)">
       <use xlink:href="#DejaVuSans-35"/>
       <use xlink:href="#DejaVuSans-30" transform="translate(63.623047 0)"/>
      </g>
     </g>
    </g>
    <g id="ytick_3">
     <g id="line2d_11">
      <g>
       <use xlink:href="#mdc466b7eaa" x="51.05" y="277.714335" style="stroke: #000000; stroke-width: 0.8"/>
      </g>
     </g>
     <g id="text_12">
      <!-- 100 -->
      <g transform="translate(24.9625 281.513554) scale(0.1 -0.1)">
       <use xlink:href="#DejaVuSans-31"/>
       <use xlink:href="#DejaVuSans-30" transform="translate(63.623047 0)"/>
       <use xlink:href="#DejaVuSans-30" transform="translate(127.246094 0)"/>
      </g>
     </g>
    </g>
    <g id="ytick_4">
     <g id="line2d_12">
      <g>
       <use xlink:href="#mdc466b7eaa" x="51.05" y="226.726883" style="stroke: #000000; stroke-width: 0.8"/>
      </g>
     </g>
     <g id="text_13">
      <!-- 150 -->
      <g transform="translate(24.9625 230.526102) scale(0.1 -0.1)">
       <use xlink:href="#DejaVuSans-31"/>
       <use xlink:href="#DejaVuSans-35" transform="translate(63.623047 0)"/>
       <use xlink:href="#DejaVuSans-30" transform="translate(127.246094 0)"/>
      </g>
     </g>
    </g>
    <g id="ytick_5">
     <g id="line2d_13">
      <g>
       <use xlink:href="#mdc466b7eaa" x="51.05" y="175.739431" style="stroke: #000000; stroke-width: 0.8"/>
      </g>
     </g>
     <g id="text_14">
      <!-- 200 -->
      <g transform="translate(24.9625 179.53865) scale(0.1 -0.1)">
       <use xlink:href="#DejaVuSans-32"/>
       <use xlink:href="#DejaVuSans-30" transform="translate(63.623047 0)"/>
       <use xlink:href="#DejaVuSans-30" transform="translate(127.246094 0)"/>
      </g>
     </g>
    </g>
    <g id="ytick_6">
     <g id="line2d_14">
      <g>
       <use xlink:href="#mdc466b7eaa" x="51.05" y="124.751979" style="stroke: #000000; stroke-width: 0.8"/>
      </g>
     </g>
     <g id="text_15">
      <!-- 250 -->
      <g transform="translate(24.9625 128.551198) scale(0.1 -0.1)">
       <use xlink:href="#DejaVuSans-32"/>
       <use xlink:href="#DejaVuSans-35" transform="translate(63.623047 0)"/>
       <use xlink:href="#DejaVuSans-30" transform="translate(127.246094 0)"/>
      </g>
     </g>
    </g>
    <g id="ytick_7">
     <g id="line2d_15">
      <g>
       <use xlink:href="#mdc466b7eaa" x="51.05" y="73.764527" style="stroke: #000000; stroke-width: 0.8"/>
      </g>
     </g>
     <g id="text_16">
      <!-- 300 -->
      <g transform="translate(24.9625 77.563746) scale(0.1 -0.1)">
       <use xlink:href="#DejaVuSans-33"/>
       <use xlink:href="#DejaVuSans-30" transform="translate(63.623047 0)"/>
       <use xlink:href="#DejaVuSans-30" transform="translate(127.246094 0)"/>
      </g>
     </g>
    </g>
    <g id="text_17">
     <!-- SoC -->
     <g transform="translate(18.882812 217.465) rotate(-90) scale(0.1 -0.1)">
      <defs>
       <path id="DejaVuSans-53" d="M 3425 4513 
L 3425 3897 
Q 3066 4069 2747 4153 
Q 2428 4238 2131 4238 
Q 1616 4238 1336 4038 
Q 1056 3838 1056 3469 
Q 1056 3159 1242 3001 
Q 1428 2844 1947 2747 
L 2328 2669 
Q 3034 2534 3370 2195 
Q 3706 1856 3706 1288 
Q 3706 609 3251 259 
Q 2797 -91 1919 -91 
Q 1588 -91 1214 -16 
Q 841 59 441 206 
L 441 856 
Q 825 641 1194 531 
Q 1563 422 1919 422 
Q 2459 422 2753 634 
Q 3047 847 3047 1241 
Q 3047 1584 2836 1778 
Q 2625 1972 2144 2069 
L 1759 2144 
Q 1053 2284 737 2584 
Q 422 2884 422 3419 
Q 422 4038 858 4394 
Q 1294 4750 2059 4750 
Q 2388 4750 2728 4690 
Q 3069 4631 3425 4513 
z
" transform="scale(0.015625)"/>
       <path id="DejaVuSans-6f" d="M 1959 3097 
Q 1497 3097 1228 2736 
Q 959 2375 959 1747 
Q 959 1119 1226 758 
Q 1494 397 1959 397 
Q 2419 397 2687 759 
Q 2956 1122 2956 1747 
Q 2956 2369 2687 2733 
Q 2419 3097 1959 3097 
z
M 1959 3584 
Q 2709 3584 3137 3096 
Q 3566 2609 3566 1747 
Q 3566 888 3137 398 
Q 2709 -91 1959 -91 
Q 1206 -91 779 398 
Q 353 888 353 1747 
Q 353 2609 779 3096 
Q 1206 3584 1959 3584 
z
" transform="scale(0.015625)"/>
       <path id="DejaVuSans-43" d="M 4122 4306 
L 4122 3641 
Q 3803 3938 3442 4084 
Q 3081 4231 2675 4231 
Q 1875 4231 1450 3742 
Q 1025 3253 1025 2328 
Q 1025 1406 1450 917 
Q 1875 428 2675 428 
Q 3081 428 3442 575 
Q 3803 722 4122 1019 
L 4122 359 
Q 3791 134 3420 21 
Q 3050 -91 2638 -91 
Q 1578 -91 968 557 
Q 359 1206 359 2328 
Q 359 3453 968 4101 
Q 1578 4750 2638 4750 
Q 3056 4750 3426 4639 
Q 3797 4528 4122 4306 
z
" transform="scale(0.015625)"/>
      </defs>
      <use xlink:href="#DejaVuSans-53"/>
      <use xlink:href="#DejaVuSans-6f" transform="translate(63.476562 0)"/>
      <use xlink:href="#DejaVuSans-43" transform="translate(124.658203 0)"/>
     </g>
    </g>
   </g>
   <g id="line2d_16">
    <path d="M 80.719508 227.08595 
L 674.109671 227.08595 
L 674.109671 227.08595 
" clip-path="url(#pace8f697ad)" style="fill: none; stroke: #1f77b4; stroke-width: 1.8; stroke-linecap: square"/>
   </g>
   <g id="line2d_17">
    <path d="M 80.719508 227.08595 
L 674.109671 227.08595 
L 674.109671 227.08595 
" clip-path="url(#pace8f697ad)" style="fill: none; stroke: #ff7f0e; stroke-width: 1.8; stroke-linecap: square"/>
   </g>
   <g id="line2d_18">
    <path d="M 80.719508 227.08595 
L 674.109671 227.08595 
L 674.109671 227.08595 
" clip-path="url(#pace8f697ad)" style="fill: none; stroke: #2ca02c; stroke-width: 1.8; stroke-linecap: square"/>
   </g>
   <g id="line2d_19">
    <path d="M 80.719508 227.08595 
L 674.109671 227.08595 
L 674.109671 227.08595 
" clip-path="url(#pace8f697ad)" style="fill: none; stroke: #d62728; stroke-width: 1.8; stroke-linecap: square"/>
   </g>
   <g id="line2d_20">
    <path d="M 80.719508 227.08595 
L 87.804764 227.08595 
L 89.576078 271.384123 
L 96.661333 271.384123 
L 98.432647 232.263831 
L 100.203961 227.08595 
L 101.975275 211.941507 
L 103.746589 170.873849 
L 105.517903 170.873849 
L 107.289217 145.995369 
L 109.060531 128.022641 
L 110.831845 128.022641 
L 112.603159 145.536831 
L 114.374473 145.536831 
L 116.145787 180.388462 
L 119.688414 180.388462 
L 121.459728 227.08595 
L 130.316298 227.08595 
L 132.087612 276.10301 
L 139.172867 276.10301 
L 140.944181 239.476841 
L 142.715495 227.08595 
L 148.029437 227.08595 
L 149.800751 202.55181 
L 151.572065 197.692868 
L 155.114693 197.692868 
L 156.886007 227.08595 
L 172.827832 227.08595 
L 174.599146 276.525194 
L 181.684402 276.525194 
L 183.455715 237.41295 
L 185.227029 227.08595 
L 186.998343 186.14807 
L 188.769657 183.924846 
L 190.540971 146.129471 
L 192.312285 111.030664 
L 194.083599 111.030664 
L 195.854913 110.063519 
L 197.626227 110.063519 
L 199.397541 122.763795 
L 202.940169 206.10458 
L 204.711482 227.08595 
L 208.25411 227.08595 
L 210.025424 265.790969 
L 225.967249 265.790969 
L 227.738563 227.08595 
L 229.509877 226.56156 
L 231.281191 184.734385 
L 233.052505 184.734385 
L 234.823819 142.143521 
L 236.595133 104.083803 
L 238.366447 92.37082 
L 240.137761 92.37082 
L 241.909075 111.760784 
L 243.680389 155.323939 
L 245.451703 180.400888 
L 247.223017 227.08595 
L 252.536958 227.08595 
L 254.308272 265.715904 
L 261.393528 265.715904 
L 263.164842 275.942602 
L 264.936156 275.942602 
L 266.70747 274.156365 
L 268.478784 235.607353 
L 270.250097 227.08595 
L 272.021411 224.473104 
L 277.335353 126.547573 
L 279.106667 114.046476 
L 287.963237 114.046476 
L 291.505864 227.08595 
L 293.277178 238.793398 
L 295.048492 238.793398 
L 298.59112 263.946285 
L 302.133748 263.946285 
L 303.905062 271.88084 
L 307.44769 271.88084 
L 309.219004 266.741945 
L 310.990318 266.741945 
L 312.761632 227.08595 
L 314.532945 200.939281 
L 316.304259 197.539258 
L 318.075573 197.539258 
L 319.846887 160.242806 
L 321.618201 125.371976 
L 323.389515 105.231977 
L 325.160829 133.188708 
L 328.703457 133.188708 
L 330.474771 176.098301 
L 332.246085 176.098301 
L 334.017399 227.08595 
L 342.873968 227.08595 
L 344.645282 283.558256 
L 349.959224 283.558256 
L 351.730538 267.54677 
L 353.501852 257.578479 
L 355.273166 227.08595 
L 358.815793 189.616549 
L 360.587107 162.313416 
L 362.358421 126.895995 
L 364.129735 116.833034 
L 371.214991 116.833034 
L 372.986305 153.986503 
L 374.757619 199.596944 
L 376.528933 227.08595 
L 383.614188 227.08595 
L 385.385502 280.869622 
L 392.470758 280.869622 
L 394.242072 265.995932 
L 396.013386 247.650479 
L 399.556014 206.215709 
L 401.327327 206.215709 
L 403.098641 175.388326 
L 404.869955 150.293162 
L 406.641269 150.293162 
L 408.412583 122.986056 
L 415.497839 122.986056 
L 417.269153 170.566213 
L 419.040467 227.08595 
L 422.583094 227.08595 
L 424.354408 245.903338 
L 436.753606 245.903338 
L 438.52492 238.619129 
L 440.296234 227.08595 
L 443.838862 156.524954 
L 445.610175 155.761861 
L 449.152803 155.761861 
L 450.924117 143.218973 
L 456.238059 143.218973 
L 458.009373 170.566213 
L 459.780687 227.08595 
L 470.40857 227.08595 
L 472.179884 234.685521 
L 481.036454 234.685521 
L 482.807768 227.08595 
L 486.350396 175.876506 
L 488.121709 170.413075 
L 489.893023 144.184137 
L 491.664337 136.585847 
L 500.520907 136.585847 
L 502.292221 170.566213 
L 504.063535 227.08595 
L 525.319302 227.08595 
L 527.090616 217.147429 
L 528.86193 188.478193 
L 530.633244 156.039506 
L 534.175871 156.039506 
L 535.947185 170.566213 
L 544.803755 170.566213 
L 546.575069 227.08595 
L 548.346383 253.669069 
L 550.117697 253.669069 
L 551.889011 262.711099 
L 553.660324 262.711099 
L 555.431638 272.562378 
L 564.288208 272.562378 
L 566.059522 231.122404 
L 567.830836 227.08595 
L 569.60215 207.537658 
L 571.373464 162.374217 
L 573.144778 162.374217 
L 576.687405 80.035499 
L 578.458719 74.48266 
L 582.001347 74.48266 
L 585.543975 187.522134 
L 587.315289 227.08595 
L 596.171859 227.08595 
L 597.943172 233.104045 
L 599.714486 253.264487 
L 606.799742 253.264487 
L 608.571056 227.08595 
L 610.34237 227.08595 
L 612.113684 191.266528 
L 613.884998 165.075575 
L 615.656312 165.075575 
L 617.427626 127.836017 
L 628.055509 127.836017 
L 629.826823 130.388749 
L 631.598137 172.692401 
L 633.369451 172.692401 
L 635.140765 229.212137 
L 636.912079 248.00981 
L 638.683393 269.464342 
L 640.454707 269.464342 
L 642.22602 280.240769 
L 643.997334 335.105017 
L 645.768648 341.333546 
L 649.311276 341.333546 
L 651.08259 311.794913 
L 652.853904 311.794913 
L 654.625218 271.567077 
L 656.396532 253.641732 
L 659.93916 178.490823 
L 661.710474 144.93557 
L 670.567043 144.93557 
L 672.338357 201.455307 
L 674.109671 227.08595 
L 674.109671 227.08595 
" clip-path="url(#pace8f697ad)" style="fill: none; stroke: #9467bd; stroke-width: 1.8; stroke-linecap: square"/>
   </g>
   <g id="line2d_21">
    <path d="M 80.719508 227.08595 
L 674.109671 227.08595 
L 674.109671 227.08595 
" clip-path="url(#pace8f697ad)" style="fill: none; stroke: #8c564b; stroke-width: 1.8; stroke-linecap: square"/>
   </g>
   <g id="line2d_22">
    <path d="M 80.719508 74.48266 
L 674.109671 74.48266 
L 674.109671 74.48266 
" clip-path="url(#pace8f697ad)" style="fill: none; stroke: #e377c2; stroke-width: 1.8; stroke-linecap: square"/>
   </g>
   <g id="line2d_23">
    <path d="M 80.719508 74.48266 
L 181.684402 74.48266 
L 183.455715 74.802853 
L 185.227029 74.48266 
L 190.540971 74.48266 
L 192.312285 78.335957 
L 194.083599 80.174816 
L 195.854913 82.368687 
L 197.626227 76.418112 
L 199.397541 65.14487 
L 201.168855 54.971369 
L 202.940169 42.012727 
L 204.711482 72.438254 
L 206.482796 74.48266 
L 674.109671 74.48266 
L 674.109671 74.48266 
" clip-path="url(#pace8f697ad)" style="fill: none; stroke: #7f7f7f; stroke-width: 1.8; stroke-linecap: square"/>
   </g>
   <g id="line2d_24">
    <path d="M 80.719508 74.48266 
L 674.109671 74.48266 
L 674.109671 74.48266 
" clip-path="url(#pace8f697ad)" style="fill: none; stroke: #bcbd22; stroke-width: 1.8; stroke-linecap: square"/>
   </g>
   <g id="line2d_25">
    <path d="M 80.719508 294.231397 
L 674.109671 294.231397 
L 674.109671 294.231397 
" clip-path="url(#pace8f697ad)" style="fill: none; stroke: #17becf; stroke-width: 1.8; stroke-linecap: square"/>
   </g>
   <g id="line2d_26">
    <path d="M 80.719508 294.231397 
L 674.109671 294.231397 
L 674.109671 294.231397 
" clip-path="url(#pace8f697ad)" style="fill: none; stroke: #1f77b4; stroke-width: 1.8; stroke-linecap: square"/>
   </g>
   <g id="line2d_27">
    <path d="M 80.719508 294.231397 
L 674.109671 294.231397 
L 674.109671 294.231397 
" clip-path="url(#pace8f697ad)" style="fill: none; stroke: #ff7f0e; stroke-width: 1.8; stroke-linecap: square"/>
   </g>
   <g id="line2d_28">
    <path d="M 80.719508 294.231397 
L 84.262136 294.231397 
L 86.03345 314.490108 
L 87.804764 354.709692 
L 94.890019 354.709692 
L 96.661333 326.057713 
L 98.432647 326.057713 
L 100.203961 294.231397 
L 101.975275 285.053913 
L 103.746589 285.053913 
L 105.517903 246.597884 
L 112.603159 246.597884 
L 114.374473 261.221932 
L 116.145787 261.221932 
L 117.9171 278.672547 
L 119.688414 294.231397 
L 128.544984 294.231397 
L 130.316298 319.139235 
L 137.401554 319.139235 
L 139.172867 313.542401 
L 140.944181 313.542401 
L 144.486809 274.874335 
L 146.258123 236.418306 
L 148.029437 208.773555 
L 156.886007 208.773555 
L 158.657321 248.332334 
L 160.428634 248.332334 
L 162.199948 268.787656 
L 163.971262 294.231397 
L 165.742576 341.707976 
L 171.056518 341.707976 
L 172.827832 352.73856 
L 179.913088 352.73856 
L 181.684402 326.584258 
L 183.455715 326.584258 
L 185.227029 294.231397 
L 186.998343 294.231397 
L 188.769657 255.775368 
L 194.083599 255.775368 
L 195.854913 230.302151 
L 197.626227 246.754818 
L 204.711482 246.754818 
L 206.482796 294.231397 
L 215.339366 294.231397 
L 217.11068 320.603325 
L 224.195936 320.603325 
L 225.967249 294.231397 
L 227.738563 294.231397 
L 229.509877 272.273704 
L 231.281191 272.273704 
L 233.052505 246.754818 
L 247.223017 246.754818 
L 248.99433 294.231397 
L 250.765644 294.231397 
L 252.536958 333.6509 
L 254.308272 333.6509 
L 256.079586 369.326949 
L 257.8509 373.467273 
L 264.936156 373.467273 
L 266.70747 335.011244 
L 268.478784 332.687426 
L 270.250097 294.231397 
L 272.021411 263.158395 
L 286.191923 263.158395 
L 287.963237 294.231397 
L 293.277178 294.231397 
L 295.048492 305.901312 
L 298.59112 305.901312 
L 300.362434 320.954111 
L 307.44769 320.954111 
L 309.219004 319.300889 
L 310.990318 294.231397 
L 314.532945 294.231397 
L 316.304259 255.775368 
L 318.075573 227.920344 
L 325.160829 227.920344 
L 326.932143 255.889285 
L 328.703457 276.348251 
L 330.474771 276.348251 
L 332.246085 294.231397 
L 344.645282 294.231397 
L 346.416596 317.947265 
L 351.730538 317.947265 
L 353.501852 294.231397 
L 362.358421 294.231397 
L 364.129735 272.144714 
L 365.901049 272.144714 
L 367.672363 294.231397 
L 399.556014 294.231397 
L 401.327327 269.922334 
L 403.098641 269.922334 
L 404.869955 260.255561 
L 406.641269 225.442135 
L 411.955211 225.442135 
L 413.726525 267.931635 
L 415.497839 294.231397 
L 443.838862 294.231397 
L 445.610175 281.226322 
L 447.381489 246.754818 
L 459.780687 246.754818 
L 461.552001 294.231397 
L 514.691418 294.231397 
L 516.462732 307.769828 
L 521.776674 307.769828 
L 523.547988 301.375845 
L 525.319302 294.231397 
L 530.633244 294.231397 
L 532.404557 275.863562 
L 534.175871 248.591364 
L 543.032441 248.591364 
L 544.803755 294.231397 
L 548.346383 294.231397 
L 550.117697 308.307933 
L 555.431638 308.307933 
L 557.202952 318.552321 
L 558.974266 325.838772 
L 566.059522 325.838772 
L 567.830836 294.231397 
L 569.60215 267.091517 
L 571.373464 267.091517 
L 573.144778 246.754818 
L 587.315289 246.754818 
L 589.086603 294.231397 
L 590.857917 302.302178 
L 592.629231 319.468138 
L 594.400545 326.330534 
L 596.171859 332.4466 
L 599.714486 332.4466 
L 601.4858 337.297621 
L 606.799742 337.297621 
L 608.571056 332.687426 
L 610.34237 294.231397 
L 613.884998 294.231397 
L 615.656312 255.775368 
L 631.598137 255.775368 
L 633.369451 259.360417 
L 638.683393 259.360417 
L 642.22602 352.526703 
L 651.08259 352.526703 
L 652.853904 318.894219 
L 654.625218 318.894219 
L 656.396532 294.231397 
L 674.109671 294.231397 
L 674.109671 294.231397 
" clip-path="url(#pace8f697ad)" style="fill: none; stroke: #2ca02c; stroke-width: 1.8; stroke-linecap: square"/>
   </g>
   <g id="line2d_29">
    <path d="M 80.719508 294.231397 
L 100.203961 294.231397 
L 101.975275 292.091803 
L 103.746589 291.831017 
L 105.517903 291.831017 
L 107.289217 293.239532 
L 109.060531 293.239532 
L 110.831845 292.930539 
L 112.603159 289.622503 
L 114.374473 287.095274 
L 116.145787 286.095835 
L 117.9171 290.07888 
L 119.688414 290.07888 
L 121.459728 294.231397 
L 126.77367 294.231397 
L 128.544984 294.627098 
L 132.087612 295.705113 
L 133.858926 296.112553 
L 135.63024 296.777235 
L 137.401554 295.23732 
L 139.172867 294.231397 
L 142.715495 294.231397 
L 144.486809 295.311937 
L 146.258123 296.130149 
L 148.029437 295.679794 
L 153.343379 295.679794 
L 155.114693 293.400304 
L 156.886007 293.400304 
L 158.657321 293.801833 
L 160.428634 293.801833 
L 162.199948 294.117948 
L 163.971262 294.231397 
L 270.250097 294.231397 
L 272.021411 300.377136 
L 273.792725 312.41416 
L 275.564039 320.856842 
L 277.335353 327.000812 
L 279.106667 330.885354 
L 286.191923 330.885354 
L 287.963237 312.217756 
L 289.734551 312.217756 
L 291.505864 294.231397 
L 335.788712 294.231397 
L 337.560026 288.043016 
L 341.102654 288.043016 
L 342.873968 286.95705 
L 344.645282 286.357443 
L 346.416596 286.572219 
L 348.18791 287.221332 
L 351.730538 287.245515 
L 355.273166 294.231397 
L 357.044479 301.310799 
L 360.587107 319.410261 
L 362.358421 321.867344 
L 364.129735 323.406482 
L 365.901049 319.390308 
L 367.672363 310.504888 
L 369.443677 310.504888 
L 371.214991 297.915743 
L 372.986305 290.182126 
L 374.757619 289.898726 
L 376.528933 294.231397 
L 378.300247 299.894525 
L 380.07156 304.895075 
L 381.842874 308.543936 
L 383.614188 310.319889 
L 387.156816 311.53615 
L 388.92813 313.496427 
L 390.699444 313.496427 
L 392.470758 312.766025 
L 394.242072 311.765753 
L 396.013386 304.053252 
L 397.7847 294.231397 
L 401.327327 294.231397 
L 403.098641 289.15531 
L 404.869955 289.15531 
L 406.641269 285.160641 
L 415.497839 285.160641 
L 417.269153 288.420439 
L 419.040467 294.231397 
L 420.811781 302.849758 
L 422.583094 308.694503 
L 424.354408 316.781405 
L 426.125722 319.616816 
L 436.753606 319.565476 
L 438.52492 294.231397 
L 461.552001 294.231397 
L 463.323315 291.138387 
L 465.094629 291.138387 
L 466.865942 291.29337 
L 468.637256 291.861066 
L 472.179884 294.028025 
L 475.722512 297.274067 
L 479.26514 294.600708 
L 481.036454 294.231397 
L 482.807768 294.231397 
L 484.579082 296.854034 
L 486.350396 298.977748 
L 488.121709 300.066803 
L 489.893023 299.700641 
L 495.206965 292.800558 
L 496.978279 292.800558 
L 498.749593 291.8905 
L 500.520907 292.91247 
L 502.292221 293.501821 
L 504.063535 294.231397 
L 505.834849 294.49962 
L 512.920104 294.49962 
L 514.691418 295.383271 
L 516.462732 296.794799 
L 518.234046 296.794799 
L 520.00536 295.613106 
L 521.776674 294.646143 
L 523.547988 294.231397 
L 525.319302 294.231397 
L 527.090616 296.198254 
L 530.633244 306.778063 
L 535.947185 306.778063 
L 537.718499 302.392408 
L 539.489813 294.231397 
L 674.109671 294.231397 
L 674.109671 294.231397 
" clip-path="url(#pace8f697ad)" style="fill: none; stroke: #d62728; stroke-width: 1.8; stroke-linecap: square"/>
   </g>
   <g id="line2d_30">
    <path d="M 80.719508 294.231397 
L 100.203961 294.231397 
L 101.975275 275.003383 
L 103.746589 275.003383 
L 105.517903 273.081556 
L 107.289217 260.381717 
L 110.831845 223.016529 
L 112.603159 223.016529 
L 114.374473 246.754818 
L 116.145787 246.754818 
L 119.688414 294.231397 
L 142.715495 294.231397 
L 144.486809 275.003383 
L 146.258123 272.813929 
L 148.029437 265.085476 
L 149.800751 253.17887 
L 151.572065 233.950855 
L 153.343379 223.016529 
L 158.657321 223.016529 
L 163.971262 294.231397 
L 165.742576 295.900938 
L 179.913088 295.900938 
L 181.684402 294.231397 
L 192.312285 294.231397 
L 194.083599 277.926239 
L 195.854913 268.897008 
L 202.940169 268.897008 
L 204.711482 292.635297 
L 206.482796 294.231397 
L 210.025424 294.231397 
L 211.796738 317.969687 
L 224.195936 317.969687 
L 225.967249 301.610276 
L 227.738563 294.231397 
L 229.509877 275.003383 
L 231.281191 275.003383 
L 233.052505 255.775368 
L 236.595133 255.775368 
L 238.366447 246.754818 
L 240.137761 246.754818 
L 241.909075 270.493108 
L 247.223017 270.493108 
L 248.99433 294.231397 
L 270.250097 294.231397 
L 272.021411 275.003383 
L 273.792725 259.439915 
L 284.420609 259.439915 
L 286.191923 270.493108 
L 287.963237 294.231397 
L 300.362434 294.231397 
L 302.133748 307.821358 
L 305.676376 307.821358 
L 307.44769 304.983331 
L 309.219004 304.983331 
L 310.990318 294.231397 
L 312.761632 294.231397 
L 314.532945 280.217926 
L 316.304259 280.217926 
L 318.075573 270.493108 
L 330.474771 270.493108 
L 332.246085 294.231397 
L 355.273166 294.231397 
L 358.815793 255.775368 
L 360.587107 246.754818 
L 365.901049 246.754818 
L 367.672363 270.493108 
L 374.757619 270.493108 
L 376.528933 294.231397 
L 385.385502 294.231397 
L 387.156816 311.542013 
L 394.242072 311.542013 
L 396.013386 294.231397 
L 397.7847 294.231397 
L 401.327327 255.775368 
L 403.098641 246.754818 
L 413.726525 246.754818 
L 415.497839 270.493108 
L 417.269153 270.493108 
L 419.040467 294.231397 
L 427.897036 294.231397 
L 429.66835 317.969687 
L 436.753606 317.969687 
L 438.52492 313.459412 
L 440.296234 294.231397 
L 443.838862 294.231397 
L 445.610175 275.003383 
L 449.152803 275.003383 
L 450.924117 257.624568 
L 458.009373 257.624568 
L 459.780687 270.493108 
L 461.552001 294.231397 
L 468.637256 294.231397 
L 470.40857 300.856713 
L 472.179884 300.856713 
L 473.951198 307.098095 
L 475.722512 308.182879 
L 481.036454 308.182879 
L 482.807768 294.231397 
L 486.350396 294.231397 
L 488.121709 277.029378 
L 495.206965 277.029378 
L 496.978279 270.493108 
L 502.292221 270.493108 
L 504.063535 294.231397 
L 509.377477 294.231397 
L 511.14879 311.902305 
L 512.920104 321.449774 
L 514.691418 330.270345 
L 521.776674 330.270345 
L 523.547988 313.459412 
L 527.090616 275.003383 
L 528.86193 275.003383 
L 530.633244 274.101102 
L 532.404557 260.314039 
L 535.947185 260.314039 
L 537.718499 270.493108 
L 541.261127 270.493108 
L 543.032441 294.231397 
L 551.889011 294.231397 
L 553.660324 303.311447 
L 566.059522 303.311447 
L 567.830836 294.231397 
L 569.60215 289.721122 
L 571.373464 289.721122 
L 573.144778 270.493108 
L 587.315289 270.493108 
L 590.857917 317.969687 
L 606.799742 317.969687 
L 608.571056 303.740808 
L 610.34237 294.231397 
L 612.113684 280.716255 
L 613.884998 261.48824 
L 615.656312 260.19785 
L 617.427626 260.19785 
L 620.970253 221.741821 
L 631.598137 221.741821 
L 633.369451 245.48011 
L 635.140765 250.194334 
L 640.454707 250.194334 
L 642.22602 273.932624 
L 670.567043 273.932624 
L 672.338357 294.231397 
L 674.109671 294.231397 
L 674.109671 294.231397 
" clip-path="url(#pace8f697ad)" style="fill: none; stroke: #9467bd; stroke-width: 1.8; stroke-linecap: square"/>
   </g>
   <g id="line2d_31">
    <path d="M 80.719508 294.231397 
L 674.109671 294.231397 
L 674.109671 294.231397 
" clip-path="url(#pace8f697ad)" style="fill: none; stroke: #8c564b; stroke-width: 1.8; stroke-linecap: square"/>
   </g>
   <g id="line2d_32">
    <path d="M 80.719508 294.231397 
L 674.109671 294.231397 
L 674.109671 294.231397 
" clip-path="url(#pace8f697ad)" style="fill: none; stroke: #e377c2; stroke-width: 1.8; stroke-linecap: square"/>
   </g>
   <g id="line2d_33">
    <path d="M 80.719508 294.231397 
L 674.109671 294.231397 
L 674.109671 294.231397 
" clip-path="url(#pace8f697ad)" style="fill: none; stroke: #7f7f7f; stroke-width: 1.8; stroke-linecap: square"/>
   </g>
   <g id="patch_3">
    <path d="M 51.05 390.04 
L 51.05 25.44 
" style="fill: none; stroke: #000000; stroke-width: 0.8; stroke-linejoin: miter; stroke-linecap: square"/>
   </g>
   <g id="patch_4">
    <path d="M 703.779179 390.04 
L 703.779179 25.44 
" style="fill: none; stroke: #000000; stroke-width: 0.8; stroke-linejoin: miter; stroke-linecap: square"/>
   </g>
   <g id="patch_5">
    <path d="M 51.05 390.04 
L 703.779179 390.04 
" style="fill: none; stroke: #000000; stroke-width: 0.8; stroke-linejoin: miter; stroke-linecap: square"/>
   </g>
   <g id="patch_6">
    <path d="M 51.05 25.44 
L 703.779179 25.44 
" style="fill: none; stroke: #000000; stroke-width: 0.8; stroke-linejoin: miter; stroke-linecap: square"/>
   </g>
   <g id="text_18">
    <!-- SoC by battery (T=336, F=12, L=24) -->
    <g transform="translate(266.18959 19.44) scale(0.12 -0.12)">
     <defs>
      <path id="DejaVuSans-62" d="M 3116 1747 
Q 3116 2381 2855 2742 
Q 2594 3103 2138 3103 
Q 1681 3103 1420 2742 
Q 1159 2381 1159 1747 
Q 1159 1113 1420 752 
Q 1681 391 2138 391 
Q 2594 391 2855 752 
Q 3116 1113 3116 1747 
z
M 1159 2969 
Q 1341 3281 1617 3432 
Q 1894 3584 2278 3584 
Q 2916 3584 3314 3078 
Q 3713 2572 3713 1747 
Q 3713 922 3314 415 
Q 2916 -91 2278 -91 
Q 1894 -91 1617 61 
Q 1341 213 1159 525 
L 1159 0 
L 581 0 
L 581 4863 
L 1159 4863 
L 1159 2969 
z
" transform="scale(0.015625)"/>
      <path id="DejaVuSans-79" d="M 2059 -325 
Q 1816 -950 1584 -1140 
Q 1353 -1331 966 -1331 
L 506 -1331 
L 506 -850 
L 844 -850 
Q 1081 -850 1212 -737 
Q 1344 -625 1503 -206 
L 1606 56 
L 191 3500 
L 800 3500 
L 1894 763 
L 2988 3500 
L 3597 3500 
L 2059 -325 
z
" transform="scale(0.015625)"/>
      <path id="DejaVuSans-61" d="M 2194 1759 
Q 1497 1759 1228 1600 
Q 959 1441 959 1056 
Q 959 750 1161 570 
Q 1363 391 1709 391 
Q 2188 391 2477 730 
Q 2766 1069 2766 1631 
L 2766 1759 
L 2194 1759 
z
M 3341 1997 
L 3341 0 
L 2766 0 
L 2766 531 
Q 2569 213 2275 61 
Q 1981 -91 1556 -91 
Q 1019 -91 701 211 
Q 384 513 384 1019 
Q 384 1609 779 1909 
Q 1175 2209 1959 2209 
L 2766 2209 
L 2766 2266 
Q 2766 2663 2505 2880 
Q 2244 3097 1772 3097 
Q 1472 3097 1187 3025 
Q 903 2953 641 2809 
L 641 3341 
Q 956 3463 1253 3523 
Q 1550 3584 1831 3584 
Q 2591 3584 2966 3190 
Q 3341 2797 3341 1997 
z
" transform="scale(0.015625)"/>
      <path id="DejaVuSans-72" d="M 2631 2963 
Q 2534 3019 2420 3045 
Q 2306 3072 2169 3072 
Q 1681 3072 1420 2755 
Q 1159 2438 1159 1844 
L 1159 0 
L 581 0 
L 581 3500 
L 1159 3500 
L 1159 2956 
Q 1341 3275 1631 3429 
Q 1922 3584 2338 3584 
Q 2397 3584 2469 3576 
Q 2541 3569 2628 3553 
L 2631 2963 
z
" transform="scale(0.015625)"/>
      <path id="DejaVuSans-3d" d="M 678 2906 
L 4684 2906 
L 4684 2381 
L 678 2381 
L 678 2906 
z
M 678 1631 
L 4684 1631 
L 4684 1100 
L 678 1100 
L 678 1631 
z
" transform="scale(0.015625)"/>
      <path id="DejaVuSans-36" d="M 2113 2584 
Q 1688 2584 1439 2293 
Q 1191 2003 1191 1497 
Q 1191 994 1439 701 
Q 1688 409 2113 409 
Q 2538 409 2786 701 
Q 3034 994 3034 1497 
Q 3034 2003 2786 2293 
Q 2538 2584 2113 2584 
z
M 3366 4563 
L 3366 3988 
Q 3128 4100 2886 4159 
Q 2644 4219 2406 4219 
Q 1781 4219 1451 3797 
Q 1122 3375 1075 2522 
Q 1259 2794 1537 2939 
Q 1816 3084 2150 3084 
Q 2853 3084 3261 2657 
Q 3669 2231 3669 1497 
Q 3669 778 3244 343 
Q 2819 -91 2113 -91 
Q 1303 -91 875 529 
Q 447 1150 447 2328 
Q 447 3434 972 4092 
Q 1497 4750 2381 4750 
Q 2619 4750 2861 4703 
Q 3103 4656 3366 4563 
z
" transform="scale(0.015625)"/>
      <path id="DejaVuSans-2c" d="M 750 794 
L 1409 794 
L 1409 256 
L 897 -744 
L 494 -744 
L 750 256 
L 750 794 
z
" transform="scale(0.015625)"/>
      <path id="DejaVuSans-46" d="M 628 4666 
L 3309 4666 
L 3309 4134 
L 1259 4134 
L 1259 2759 
L 3109 2759 
L 3109 2228 
L 1259 2228 
L 1259 0 
L 628 0 
L 628 4666 
z
" transform="scale(0.015625)"/>
      <path id="DejaVuSans-4c" d="M 628 4666 
L 1259 4666 
L 1259 531 
L 3531 531 
L 3531 0 
L 628 0 
L 628 4666 
z
" transform="scale(0.015625)"/>
      <path id="DejaVuSans-34" d="M 2419 4116 
L 825 1625 
L 2419 1625 
L 2419 4116 
z
M 2253 4666 
L 3047 4666 
L 3047 1625 
L 3713 1625 
L 3713 1100 
L 3047 1100 
L 3047 0 
L 2419 0 
L 2419 1100 
L 313 1100 
L 313 1709 
L 2253 4666 
z
" transform="scale(0.015625)"/>
     </defs>
     <use xlink:href="#DejaVuSans-53"/>
     <use xlink:href="#DejaVuSans-6f" transform="translate(63.476562 0)"/>
     <use xlink:href="#DejaVuSans-43" transform="translate(124.658203 0)"/>
     <use xlink:href="#DejaVuSans-20" transform="translate(194.482422 0)"/>
     <use xlink:href="#DejaVuSans-62" transform="translate(226.269531 0)"/>
     <use xlink:href="#DejaVuSans-79" transform="translate(289.746094 0)"/>
     <use xlink:href="#DejaVuSans-20" transform="translate(348.925781 0)"/>
     <use xlink:href="#DejaVuSans-62" transform="translate(380.712891 0)"/>
     <use xlink:href="#DejaVuSans-61" transform="translate(444.189453 0)"/>
     <use xlink:href="#DejaVuSans-74" transform="translate(505.46875 0)"/>
     <use xlink:href="#DejaVuSans-74" transform="translate(544.677734 0)"/>
     <use xlink:href="#DejaVuSans-65" transform="translate(583.886719 0)"/>
     <use xlink:href="#DejaVuSans-72" transform="translate(645.410156 0)"/>
     <use xlink:href="#DejaVuSans-79" transform="translate(686.523438 0)"/>
     <use xlink:href="#DejaVuSans-20" transform="translate(745.703125 0)"/>
     <use xlink:href="#DejaVuSans-28" transform="translate(777.490234 0)"/>
     <use xlink:href="#DejaVuSans-54" transform="translate(816.503906 0)"/>
     <use xlink:href="#DejaVuSans-3d" transform="translate(877.587891 0)"/>
     <use xlink:href="#DejaVuSans-33" transform="translate(961.376953 0)"/>
     <use xlink:href="#DejaVuSans-33" transform="translate(1025 0)"/>
     <use xlink:href="#DejaVuSans-36" transform="translate(1088.623047 0)"/>
     <use xlink:href="#DejaVuSans-2c" transform="translate(1152.246094 0)"/>
     <use xlink:href="#DejaVuSans-20" transform="translate(1184.033203 0)"/>
     <use xlink:href="#DejaVuSans-46" transform="translate(1215.820312 0)"/>
     <use xlink:href="#DejaVuSans-3d" transform="translate(1273.339844 0)"/>
     <use xlink:href="#DejaVuSans-31" transform="translate(1357.128906 0)"/>
     <use xlink:href="#DejaVuSans-32" transform="translate(1420.751953 0)"/>
     <use xlink:href="#DejaVuSans-2c" transform="translate(1484.375 0)"/>
     <use xlink:href="#DejaVuSans-20" transform="translate(1516.162109 0)"/>
     <use xlink:href="#DejaVuSans-4c" transform="translate(1547.949219 0)"/>
     <use xlink:href="#DejaVuSans-3d" transform="translate(1603.662109 0)"/>
     <use xlink:href="#DejaVuSans-32" transform="translate(1687.451172 0)"/>
     <use xlink:href="#DejaVuSans-34" transform="translate(1751.074219 0)"/>
     <use xlink:href="#DejaVuSans-29" transform="translate(1814.697266 0)"/>
    </g>
   </g>
  </g>
 </g>
 <defs>
  <clipPath id="pace8f697ad">
   <rect x="51.05" y="25.44" width="652.729179" height="364.6"/>
  </clipPath>
 </defs>
</svg>
