<?xml version="1.0" encoding="utf-8" standalone="no"?>
<!DOCTYPE svg PUBLIC "-//W3C//DTD SVG 1.1//EN"
  "http://www.w3.org/Graphics/SVG/1.1/DTD/svg11.dtd">
<svg xmlns:xlink="http://www.w3.org/1999/xlink" width="720pt" height="432pt" viewBox="0 0 720 432" xmlns="http://www.w3.org/2000/svg" version="1.1">
 <metadata>
  <rdf:RDF xmlns:dc="http://purl.org/dc/elements/1.1/" xmlns:cc="http://creativecommons.org/ns#" xmlns:rdf="http://www.w3.org/1999/02/22-rdf-syntax-ns#">
   <cc:Work>
    <dc:type rdf:resource="http://purl.org/dc/dcmitype/StillImage"/>
    <dc:date>2025-11-11T00:54:56.599834</dc:date>
    <dc:format>image/svg+xml</dc:format>
    <dc:creator>
     <cc:Agent>
      <dc:title>Matplotlib v3.10.0, https://matplotlib.org/</dc:title>
     </cc:Agent>
    </dc:creator>
   </cc:Work>
  </rdf:RDF>
 </metadata>
 <defs>
  <style type="text/css">*{stroke-linejoin: round; stroke-linecap: butt}</style>
 </defs>
 <g id="figure_1">
  <g id="patch_1">
   <path d="M 0 432 
L 720 432 
L 720 0 
L 0 0 
z
" style="fill: #ffffff"/>
  </g>
  <g id="axes_1">
   <g id="patch_2">
    <path d="M 51.05 390.04 
L 703.779179 390.04 
L 703.779179 25.44 
L 51.05 25.44 
z
" style="fill: #ffffff"/>
   </g>
   <g id="matplotlib.axis_1">
    <g id="xtick_1">
     <g id="line2d_1">
      <defs>
       <path id="m11e18335ba" d="M 0 0 
L 0 3.5 
" style="stroke: #000000; stroke-width: 0.8"/>
      </defs>
      <g>
       <use xlink:href="#m11e18335ba" x="78.948194" y="390.04" style="stroke: #000000; stroke-width: 0.8"/>
      </g>
     </g>
     <g id="text_1">
      <!-- 0 -->
      <g transform="translate(75.766944 404.638438) scale(0.1 -0.1)">
       <defs>
        <path id="DejaVuSans-30" d="M 2034 4250 
Q 1547 4250 1301 3770 
Q 1056 3291 1056 2328 
Q 1056 1369 1301 889 
Q 1547 409 2034 409 
Q 2525 409 2770 889 
Q 3016 1369 3016 2328 
Q 3016 3291 2770 3770 
Q 2525 4250 2034 4250 
z
M 2034 4750 
Q 2819 4750 3233 4129 
Q 3647 3509 3647 2328 
Q 3647 1150 3233 529 
Q 2819 -91 2034 -91 
Q 1250 -91 836 529 
Q 422 1150 422 2328 
Q 422 3509 836 4129 
Q 1250 4750 2034 4750 
z
" transform="scale(0.015625)"/>
       </defs>
       <use xlink:href="#DejaVuSans-30"/>
      </g>
     </g>
    </g>
    <g id="xtick_2">
     <g id="line2d_2">
      <g>
       <use xlink:href="#m11e18335ba" x="167.51389" y="390.04" style="stroke: #000000; stroke-width: 0.8"/>
      </g>
     </g>
     <g id="text_2">
      <!-- 50 -->
      <g transform="translate(161.15139 404.638438) scale(0.1 -0.1)">
       <defs>
        <path id="DejaVuSans-35" d="M 691 4666 
L 3169 4666 
L 3169 4134 
L 1269 4134 
L 1269 2991 
Q 1406 3038 1543 3061 
Q 1681 3084 1819 3084 
Q 2600 3084 3056 2656 
Q 3513 2228 3513 1497 
Q 3513 744 3044 326 
Q 2575 -91 1722 -91 
Q 1428 -91 1123 -41 
Q 819 9 494 109 
L 494 744 
Q 775 591 1075 516 
Q 1375 441 1709 441 
Q 2250 441 2565 725 
Q 2881 1009 2881 1497 
Q 2881 1984 2565 2268 
Q 2250 2553 1709 2553 
Q 1456 2553 1204 2497 
Q 953 2441 691 2322 
L 691 4666 
z
" transform="scale(0.015625)"/>
       </defs>
       <use xlink:href="#DejaVuSans-35"/>
       <use xlink:href="#DejaVuSans-30" transform="translate(63.623047 0)"/>
      </g>
     </g>
    </g>
    <g id="xtick_3">
     <g id="line2d_3">
      <g>
       <use xlink:href="#m11e18335ba" x="256.079586" y="390.04" style="stroke: #000000; stroke-width: 0.8"/>
      </g>
     </g>
     <g id="text_3">
      <!-- 100 -->
      <g transform="translate(246.535836 404.638438) scale(0.1 -0.1)">
       <defs>
        <path id="DejaVuSans-31" d="M 794 531 
L 1825 531 
L 1825 4091 
L 703 3866 
L 703 4441 
L 1819 4666 
L 2450 4666 
L 2450 531 
L 3481 531 
L 3481 0 
L 794 0 
L 794 531 
z
" transform="scale(0.015625)"/>
       </defs>
       <use xlink:href="#DejaVuSans-31"/>
       <use xlink:href="#DejaVuSans-30" transform="translate(63.623047 0)"/>
       <use xlink:href="#DejaVuSans-30" transform="translate(127.246094 0)"/>
      </g>
     </g>
    </g>
    <g id="xtick_4">
     <g id="line2d_4">
      <g>
       <use xlink:href="#m11e18335ba" x="344.645282" y="390.04" style="stroke: #000000; stroke-width: 0.8"/>
      </g>
     </g>
     <g id="text_4">
      <!-- 150 -->
      <g transform="translate(335.101532 404.638438) scale(0.1 -0.1)">
       <use xlink:href="#DejaVuSans-31"/>
       <use xlink:href="#DejaVuSans-35" transform="translate(63.623047 0)"/>
       <use xlink:href="#DejaVuSans-30" transform="translate(127.246094 0)"/>
      </g>
     </g>
    </g>
    <g id="xtick_5">
     <g id="line2d_5">
      <g>
       <use xlink:href="#m11e18335ba" x="433.210978" y="390.04" style="stroke: #000000; stroke-width: 0.8"/>
      </g>
     </g>
     <g id="text_5">
      <!-- 200 -->
      <g transform="translate(423.667228 404.638438) scale(0.1 -0.1)">
       <defs>
        <path id="DejaVuSans-32" d="M 1228 531 
L 3431 531 
L 3431 0 
L 469 0 
L 469 531 
Q 828 903 1448 1529 
Q 2069 2156 2228 2338 
Q 2531 2678 2651 2914 
Q 2772 3150 2772 3378 
Q 2772 3750 2511 3984 
Q 2250 4219 1831 4219 
Q 1534 4219 1204 4116 
Q 875 4013 500 3803 
L 500 4441 
Q 881 4594 1212 4672 
Q 1544 4750 1819 4750 
Q 2544 4750 2975 4387 
Q 3406 4025 3406 3419 
Q 3406 3131 3298 2873 
Q 3191 2616 2906 2266 
Q 2828 2175 2409 1742 
Q 1991 1309 1228 531 
z
" transform="scale(0.015625)"/>
       </defs>
       <use xlink:href="#DejaVuSans-32"/>
       <use xlink:href="#DejaVuSans-30" transform="translate(63.623047 0)"/>
       <use xlink:href="#DejaVuSans-30" transform="translate(127.246094 0)"/>
      </g>
     </g>
    </g>
    <g id="xtick_6">
     <g id="line2d_6">
      <g>
       <use xlink:href="#m11e18335ba" x="521.776674" y="390.04" style="stroke: #000000; stroke-width: 0.8"/>
      </g>
     </g>
     <g id="text_6">
      <!-- 250 -->
      <g transform="translate(512.232924 404.638438) scale(0.1 -0.1)">
       <use xlink:href="#DejaVuSans-32"/>
       <use xlink:href="#DejaVuSans-35" transform="translate(63.623047 0)"/>
       <use xlink:href="#DejaVuSans-30" transform="translate(127.246094 0)"/>
      </g>
     </g>
    </g>
    <g id="xtick_7">
     <g id="line2d_7">
      <g>
       <use xlink:href="#m11e18335ba" x="610.34237" y="390.04" style="stroke: #000000; stroke-width: 0.8"/>
      </g>
     </g>
     <g id="text_7">
      <!-- 300 -->
      <g transform="translate(600.79862 404.638438) scale(0.1 -0.1)">
       <defs>
        <path id="DejaVuSans-33" d="M 2597 2516 
Q 3050 2419 3304 2112 
Q 3559 1806 3559 1356 
Q 3559 666 3084 287 
Q 2609 -91 1734 -91 
Q 1441 -91 1130 -33 
Q 819 25 488 141 
L 488 750 
Q 750 597 1062 519 
Q 1375 441 1716 441 
Q 2309 441 2620 675 
Q 2931 909 2931 1356 
Q 2931 1769 2642 2001 
Q 2353 2234 1838 2234 
L 1294 2234 
L 1294 2753 
L 1863 2753 
Q 2328 2753 2575 2939 
Q 2822 3125 2822 3475 
Q 2822 3834 2567 4026 
Q 2313 4219 1838 4219 
Q 1578 4219 1281 4162 
Q 984 4106 628 3988 
L 628 4550 
Q 988 4650 1302 4700 
Q 1616 4750 1894 4750 
Q 2613 4750 3031 4423 
Q 3450 4097 3450 3541 
Q 3450 3153 3228 2886 
Q 3006 2619 2597 2516 
z
" transform="scale(0.015625)"/>
       </defs>
       <use xlink:href="#DejaVuSans-33"/>
       <use xlink:href="#DejaVuSans-30" transform="translate(63.623047 0)"/>
       <use xlink:href="#DejaVuSans-30" transform="translate(127.246094 0)"/>
      </g>
     </g>
    </g>
    <g id="xtick_8">
     <g id="line2d_8">
      <g>
       <use xlink:href="#m11e18335ba" x="698.908066" y="390.04" style="stroke: #000000; stroke-width: 0.8"/>
      </g>
     </g>
     <g id="text_8">
      <!-- 350 -->
      <g transform="translate(689.364316 404.638438) scale(0.1 -0.1)">
       <use xlink:href="#DejaVuSans-33"/>
       <use xlink:href="#DejaVuSans-35" transform="translate(63.623047 0)"/>
       <use xlink:href="#DejaVuSans-30" transform="translate(127.246094 0)"/>
      </g>
     </g>
    </g>
    <g id="text_9">
     <!-- Time (t) -->
     <g transform="translate(357.730215 418.316562) scale(0.1 -0.1)">
      <defs>
       <path id="DejaVuSans-54" d="M -19 4666 
L 3928 4666 
L 3928 4134 
L 2272 4134 
L 2272 0 
L 1638 0 
L 1638 4134 
L -19 4134 
L -19 4666 
z
" transform="scale(0.015625)"/>
       <path id="DejaVuSans-69" d="M 603 3500 
L 1178 3500 
L 1178 0 
L 603 0 
L 603 3500 
z
M 603 4863 
L 1178 4863 
L 1178 4134 
L 603 4134 
L 603 4863 
z
" transform="scale(0.015625)"/>
       <path id="DejaVuSans-6d" d="M 3328 2828 
Q 3544 3216 3844 3400 
Q 4144 3584 4550 3584 
Q 5097 3584 5394 3201 
Q 5691 2819 5691 2113 
L 5691 0 
L 5113 0 
L 5113 2094 
Q 5113 2597 4934 2840 
Q 4756 3084 4391 3084 
Q 3944 3084 3684 2787 
Q 3425 2491 3425 1978 
L 3425 0 
L 2847 0 
L 2847 2094 
Q 2847 2600 2669 2842 
Q 2491 3084 2119 3084 
Q 1678 3084 1418 2786 
Q 1159 2488 1159 1978 
L 1159 0 
L 581 0 
L 581 3500 
L 1159 3500 
L 1159 2956 
Q 1356 3278 1631 3431 
Q 1906 3584 2284 3584 
Q 2666 3584 2933 3390 
Q 3200 3197 3328 2828 
z
" transform="scale(0.015625)"/>
       <path id="DejaVuSans-65" d="M 3597 1894 
L 3597 1613 
L 953 1613 
Q 991 1019 1311 708 
Q 1631 397 2203 397 
Q 2534 397 2845 478 
Q 3156 559 3463 722 
L 3463 178 
Q 3153 47 2828 -22 
Q 2503 -91 2169 -91 
Q 1331 -91 842 396 
Q 353 884 353 1716 
Q 353 2575 817 3079 
Q 1281 3584 2069 3584 
Q 2775 3584 3186 3129 
Q 3597 2675 3597 1894 
z
M 3022 2063 
Q 3016 2534 2758 2815 
Q 2500 3097 2075 3097 
Q 1594 3097 1305 2825 
Q 1016 2553 972 2059 
L 3022 2063 
z
" transform="scale(0.015625)"/>
       <path id="DejaVuSans-20" transform="scale(0.015625)"/>
       <path id="DejaVuSans-28" d="M 1984 4856 
Q 1566 4138 1362 3434 
Q 1159 2731 1159 2009 
Q 1159 1288 1364 580 
Q 1569 -128 1984 -844 
L 1484 -844 
Q 1016 -109 783 600 
Q 550 1309 550 2009 
Q 550 2706 781 3412 
Q 1013 4119 1484 4856 
L 1984 4856 
z
" transform="scale(0.015625)"/>
       <path id="DejaVuSans-74" d="M 1172 4494 
L 1172 3500 
L 2356 3500 
L 2356 3053 
L 1172 3053 
L 1172 1153 
Q 1172 725 1289 603 
Q 1406 481 1766 481 
L 2356 481 
L 2356 0 
L 1766 0 
Q 1100 0 847 248 
Q 594 497 594 1153 
L 594 3053 
L 172 3053 
L 172 3500 
L 594 3500 
L 594 4494 
L 1172 4494 
z
" transform="scale(0.015625)"/>
       <path id="DejaVuSans-29" d="M 513 4856 
L 1013 4856 
Q 1481 4119 1714 3412 
Q 1947 2706 1947 2009 
Q 1947 1309 1714 600 
Q 1481 -109 1013 -844 
L 513 -844 
Q 928 -128 1133 580 
Q 1338 1288 1338 2009 
Q 1338 2731 1133 3434 
Q 928 4138 513 4856 
z
" transform="scale(0.015625)"/>
      </defs>
      <use xlink:href="#DejaVuSans-54"/>
      <use xlink:href="#DejaVuSans-69" transform="translate(57.958984 0)"/>
      <use xlink:href="#DejaVuSans-6d" transform="translate(85.742188 0)"/>
      <use xlink:href="#DejaVuSans-65" transform="translate(183.154297 0)"/>
      <use xlink:href="#DejaVuSans-20" transform="translate(244.677734 0)"/>
      <use xlink:href="#DejaVuSans-28" transform="translate(276.464844 0)"/>
      <use xlink:href="#DejaVuSans-74" transform="translate(315.478516 0)"/>
      <use xlink:href="#DejaVuSans-29" transform="translate(354.6875 0)"/>
     </g>
    </g>
   </g>
   <g id="matplotlib.axis_2">
    <g id="ytick_1">
     <g id="line2d_9">
      <defs>
       <path id="mf91029e40c" d="M 0 0 
L -3.5 0 
" style="stroke: #000000; stroke-width: 0.8"/>
      </defs>
      <g>
       <use xlink:href="#mf91029e40c" x="51.05" y="387.077892" style="stroke: #000000; stroke-width: 0.8"/>
      </g>
     </g>
     <g id="text_10">
      <!-- 0 -->
      <g transform="translate(37.6875 390.877111) scale(0.1 -0.1)">
       <use xlink:href="#DejaVuSans-30"/>
      </g>
     </g>
    </g>
    <g id="ytick_2">
     <g id="line2d_10">
      <g>
       <use xlink:href="#mf91029e40c" x="51.05" y="332.49429" style="stroke: #000000; stroke-width: 0.8"/>
      </g>
     </g>
     <g id="text_11">
      <!-- 50 -->
      <g transform="translate(31.325 336.293509) scale(0.1 -0.1)">
       <use xlink:href="#DejaVuSans-35"/>
       <use xlink:href="#DejaVuSans-30" transform="translate(63.623047 0)"/>
      </g>
     </g>
    </g>
    <g id="ytick_3">
     <g id="line2d_11">
      <g>
       <use xlink:href="#mf91029e40c" x="51.05" y="277.910688" style="stroke: #000000; stroke-width: 0.8"/>
      </g>
     </g>
     <g id="text_12">
      <!-- 100 -->
      <g transform="translate(24.9625 281.709906) scale(0.1 -0.1)">
       <use xlink:href="#DejaVuSans-31"/>
       <use xlink:href="#DejaVuSans-30" transform="translate(63.623047 0)"/>
       <use xlink:href="#DejaVuSans-30" transform="translate(127.246094 0)"/>
      </g>
     </g>
    </g>
    <g id="ytick_4">
     <g id="line2d_12">
      <g>
       <use xlink:href="#mf91029e40c" x="51.05" y="223.327085" style="stroke: #000000; stroke-width: 0.8"/>
      </g>
     </g>
     <g id="text_13">
      <!-- 150 -->
      <g transform="translate(24.9625 227.126304) scale(0.1 -0.1)">
       <use xlink:href="#DejaVuSans-31"/>
       <use xlink:href="#DejaVuSans-35" transform="translate(63.623047 0)"/>
       <use xlink:href="#DejaVuSans-30" transform="translate(127.246094 0)"/>
      </g>
     </g>
    </g>
    <g id="ytick_5">
     <g id="line2d_13">
      <g>
       <use xlink:href="#mf91029e40c" x="51.05" y="168.743483" style="stroke: #000000; stroke-width: 0.8"/>
      </g>
     </g>
     <g id="text_14">
      <!-- 200 -->
      <g transform="translate(24.9625 172.542702) scale(0.1 -0.1)">
       <use xlink:href="#DejaVuSans-32"/>
       <use xlink:href="#DejaVuSans-30" transform="translate(63.623047 0)"/>
       <use xlink:href="#DejaVuSans-30" transform="translate(127.246094 0)"/>
      </g>
     </g>
    </g>
    <g id="ytick_6">
     <g id="line2d_14">
      <g>
       <use xlink:href="#mf91029e40c" x="51.05" y="114.159881" style="stroke: #000000; stroke-width: 0.8"/>
      </g>
     </g>
     <g id="text_15">
      <!-- 250 -->
      <g transform="translate(24.9625 117.9591) scale(0.1 -0.1)">
       <use xlink:href="#DejaVuSans-32"/>
       <use xlink:href="#DejaVuSans-35" transform="translate(63.623047 0)"/>
       <use xlink:href="#DejaVuSans-30" transform="translate(127.246094 0)"/>
      </g>
     </g>
    </g>
    <g id="ytick_7">
     <g id="line2d_15">
      <g>
       <use xlink:href="#mf91029e40c" x="51.05" y="59.576279" style="stroke: #000000; stroke-width: 0.8"/>
      </g>
     </g>
     <g id="text_16">
      <!-- 300 -->
      <g transform="translate(24.9625 63.375497) scale(0.1 -0.1)">
       <use xlink:href="#DejaVuSans-33"/>
       <use xlink:href="#DejaVuSans-30" transform="translate(63.623047 0)"/>
       <use xlink:href="#DejaVuSans-30" transform="translate(127.246094 0)"/>
      </g>
     </g>
    </g>
    <g id="text_17">
     <!-- SoC -->
     <g transform="translate(18.882812 217.465) rotate(-90) scale(0.1 -0.1)">
      <defs>
       <path id="DejaVuSans-53" d="M 3425 4513 
L 3425 3897 
Q 3066 4069 2747 4153 
Q 2428 4238 2131 4238 
Q 1616 4238 1336 4038 
Q 1056 3838 1056 3469 
Q 1056 3159 1242 3001 
Q 1428 2844 1947 2747 
L 2328 2669 
Q 3034 2534 3370 2195 
Q 3706 1856 3706 1288 
Q 3706 609 3251 259 
Q 2797 -91 1919 -91 
Q 1588 -91 1214 -16 
Q 841 59 441 206 
L 441 856 
Q 825 641 1194 531 
Q 1563 422 1919 422 
Q 2459 422 2753 634 
Q 3047 847 3047 1241 
Q 3047 1584 2836 1778 
Q 2625 1972 2144 2069 
L 1759 2144 
Q 1053 2284 737 2584 
Q 422 2884 422 3419 
Q 422 4038 858 4394 
Q 1294 4750 2059 4750 
Q 2388 4750 2728 4690 
Q 3069 4631 3425 4513 
z
" transform="scale(0.015625)"/>
       <path id="DejaVuSans-6f" d="M 1959 3097 
Q 1497 3097 1228 2736 
Q 959 2375 959 1747 
Q 959 1119 1226 758 
Q 1494 397 1959 397 
Q 2419 397 2687 759 
Q 2956 1122 2956 1747 
Q 2956 2369 2687 2733 
Q 2419 3097 1959 3097 
z
M 1959 3584 
Q 2709 3584 3137 3096 
Q 3566 2609 3566 1747 
Q 3566 888 3137 398 
Q 2709 -91 1959 -91 
Q 1206 -91 779 398 
Q 353 888 353 1747 
Q 353 2609 779 3096 
Q 1206 3584 1959 3584 
z
" transform="scale(0.015625)"/>
       <path id="DejaVuSans-43" d="M 4122 4306 
L 4122 3641 
Q 3803 3938 3442 4084 
Q 3081 4231 2675 4231 
Q 1875 4231 1450 3742 
Q 1025 3253 1025 2328 
Q 1025 1406 1450 917 
Q 1875 428 2675 428 
Q 3081 428 3442 575 
Q 3803 722 4122 1019 
L 4122 359 
Q 3791 134 3420 21 
Q 3050 -91 2638 -91 
Q 1578 -91 968 557 
Q 359 1206 359 2328 
Q 359 3453 968 4101 
Q 1578 4750 2638 4750 
Q 3056 4750 3426 4639 
Q 3797 4528 4122 4306 
z
" transform="scale(0.015625)"/>
      </defs>
      <use xlink:href="#DejaVuSans-53"/>
      <use xlink:href="#DejaVuSans-6f" transform="translate(63.476562 0)"/>
      <use xlink:href="#DejaVuSans-43" transform="translate(124.658203 0)"/>
     </g>
    </g>
   </g>
   <g id="line2d_16">
    <path d="M 80.719508 223.711477 
L 674.109671 223.711477 
L 674.109671 223.711477 
" clip-path="url(#pbdac876f6c)" style="fill: none; stroke: #1f77b4; stroke-width: 1.8; stroke-linecap: square"/>
   </g>
   <g id="line2d_17">
    <path d="M 80.719508 223.711477 
L 674.109671 223.711477 
L 674.109671 223.711477 
" clip-path="url(#pbdac876f6c)" style="fill: none; stroke: #ff7f0e; stroke-width: 1.8; stroke-linecap: square"/>
   </g>
   <g id="line2d_18">
    <path d="M 80.719508 223.711477 
L 674.109671 223.711477 
L 674.109671 223.711477 
" clip-path="url(#pbdac876f6c)" style="fill: none; stroke: #2ca02c; stroke-width: 1.8; stroke-linecap: square"/>
   </g>
   <g id="line2d_19">
    <path d="M 80.719508 223.711477 
L 674.109671 223.711477 
L 674.109671 223.711477 
" clip-path="url(#pbdac876f6c)" style="fill: none; stroke: #d62728; stroke-width: 1.8; stroke-linecap: square"/>
   </g>
   <g id="line2d_20">
    <path d="M 80.719508 223.711477 
L 84.262136 223.711477 
L 86.03345 238.003754 
L 87.804764 286.248664 
L 94.890019 286.248664 
L 96.661333 277.604908 
L 98.432647 240.566003 
L 100.203961 223.711477 
L 101.975275 177.06344 
L 105.517903 177.06344 
L 107.289217 154.930822 
L 109.060531 135.702989 
L 110.831845 135.702989 
L 112.603159 149.238298 
L 114.374473 161.773539 
L 116.145787 199.132964 
L 119.688414 199.132964 
L 121.459728 223.711477 
L 142.715495 223.711477 
L 144.486809 210.070945 
L 148.029437 210.070945 
L 149.800751 171.060029 
L 162.199948 171.060029 
L 163.971262 223.711477 
L 165.742576 250.911324 
L 171.056518 250.911324 
L 172.827832 251.832065 
L 179.913088 251.832065 
L 181.684402 242.590405 
L 183.455715 223.711477 
L 185.227029 223.711477 
L 186.998343 222.667062 
L 188.769657 175.006039 
L 190.540971 130.459378 
L 202.940169 130.459378 
L 204.711482 163.205397 
L 206.482796 223.711477 
L 227.738563 223.711477 
L 229.509877 179.059561 
L 231.281191 175.450648 
L 233.052505 148.131913 
L 234.823819 111.143707 
L 236.595133 70.399634 
L 240.137761 70.399634 
L 243.680389 163.205397 
L 247.223017 163.205397 
L 248.99433 223.711477 
L 257.8509 223.711477 
L 259.622214 271.70418 
L 261.393528 314.377633 
L 264.936156 314.377633 
L 266.70747 291.883369 
L 268.478784 248.151402 
L 270.250097 223.711477 
L 272.021411 183.756022 
L 273.792725 166.854273 
L 275.564039 129.976571 
L 277.335353 129.976571 
L 279.106667 116.593719 
L 286.191923 116.593719 
L 287.963237 139.579312 
L 289.734551 188.69554 
L 291.505864 223.711477 
L 295.048492 223.711477 
L 296.819806 237.654116 
L 298.59112 237.654116 
L 300.362434 254.235493 
L 307.44769 254.235493 
L 309.219004 250.158492 
L 310.990318 245.580245 
L 312.761632 223.711477 
L 314.532945 223.711477 
L 316.304259 178.903312 
L 318.075573 178.903312 
L 319.846887 141.615169 
L 321.618201 141.615169 
L 323.389515 120.054694 
L 325.160829 149.983216 
L 330.474771 149.983216 
L 332.246085 194.540217 
L 334.017399 223.711477 
L 357.044479 223.711477 
L 358.815793 183.231222 
L 360.587107 152.372773 
L 362.358421 114.457358 
L 364.129735 80.040196 
L 365.901049 80.040196 
L 367.672363 129.097209 
L 369.443677 152.979348 
L 371.214991 152.979348 
L 372.986305 168.871115 
L 374.757619 168.871115 
L 376.528933 223.711477 
L 383.614188 223.711477 
L 385.385502 281.288517 
L 387.156816 299.820053 
L 392.470758 299.820053 
L 394.242072 283.897319 
L 396.013386 245.726424 
L 397.7847 223.711477 
L 399.556014 223.711477 
L 401.327327 177.103724 
L 403.098641 157.589379 
L 404.869955 120.37568 
L 406.641269 103.691028 
L 408.412583 83.979139 
L 413.726525 83.979139 
L 415.497839 112.133827 
L 417.269153 163.205397 
L 419.040467 223.711477 
L 429.66835 223.711477 
L 431.439664 231.88113 
L 436.753606 231.88113 
L 438.52492 223.711477 
L 440.296234 223.711477 
L 442.067548 184.688707 
L 443.838862 184.688707 
L 445.610175 170.416282 
L 447.381489 167.477932 
L 452.695431 167.477932 
L 454.466745 198.792901 
L 458.009373 198.792901 
L 459.780687 223.711477 
L 470.40857 223.711477 
L 472.179884 245.361688 
L 481.036454 245.361688 
L 482.807768 223.711477 
L 509.377477 223.711477 
L 511.14879 242.867137 
L 512.920104 255.850789 
L 514.691418 263.626091 
L 521.776674 263.626091 
L 523.547988 251.943992 
L 525.319302 223.711477 
L 527.090616 192.487823 
L 532.404557 192.487823 
L 534.175871 156.277181 
L 535.947185 179.800151 
L 537.718499 220.459039 
L 544.803755 220.459039 
L 548.346383 226.756166 
L 555.431638 226.756166 
L 557.202952 277.917617 
L 562.516894 277.917617 
L 564.288208 273.984027 
L 566.059522 271.595863 
L 569.60215 176.281106 
L 573.144778 176.281106 
L 574.916092 131.552808 
L 576.687405 131.552808 
L 578.458719 107.848858 
L 585.543975 107.848858 
L 587.315289 163.205397 
L 589.086603 223.711477 
L 590.857917 233.578601 
L 592.629231 233.578601 
L 594.400545 240.925744 
L 596.171859 281.766614 
L 597.943172 300.086033 
L 599.714486 308.954642 
L 601.4858 314.14895 
L 606.799742 314.14895 
L 608.571056 272.721402 
L 612.113684 174.701552 
L 613.884998 167.247436 
L 615.656312 124.697628 
L 617.427626 109.055867 
L 626.284195 109.055867 
L 628.055509 124.104978 
L 629.826823 184.611058 
L 631.598137 223.711477 
L 647.539962 223.711477 
L 649.311276 222.639367 
L 651.08259 183.980486 
L 654.625218 183.980486 
L 656.396532 140.449162 
L 658.167846 140.449162 
L 659.93916 105.7796 
L 661.710474 94.659467 
L 667.024415 94.659467 
L 668.795729 139.373861 
L 670.567043 139.373861 
L 672.338357 199.879941 
L 674.109671 223.711477 
L 674.109671 223.711477 
" clip-path="url(#pbdac876f6c)" style="fill: none; stroke: #9467bd; stroke-width: 1.8; stroke-linecap: square"/>
   </g>
   <g id="line2d_21">
    <path d="M 80.719508 223.711477 
L 674.109671 223.711477 
L 674.109671 223.711477 
" clip-path="url(#pbdac876f6c)" style="fill: none; stroke: #8c564b; stroke-width: 1.8; stroke-linecap: square"/>
   </g>
   <g id="line2d_22">
    <path d="M 80.719508 60.345062 
L 674.109671 60.345062 
L 674.109671 60.345062 
" clip-path="url(#pbdac876f6c)" style="fill: none; stroke: #e377c2; stroke-width: 1.8; stroke-linecap: square"/>
   </g>
   <g id="line2d_23">
    <path d="M 80.719508 60.345062 
L 181.684402 60.345062 
L 183.455715 60.687837 
L 185.227029 60.345062 
L 567.830836 60.345062 
L 569.60215 76.423381 
L 571.373464 85.611072 
L 573.144778 102.877617 
L 574.916092 102.877617 
L 576.687405 117.106316 
L 578.458719 122.630312 
L 580.230033 120.304781 
L 583.772661 92.101609 
L 585.543975 76.072919 
L 587.315289 77.140453 
L 589.086603 60.345062 
L 613.884998 60.345062 
L 615.656312 83.385222 
L 619.198939 83.385222 
L 620.970253 80.904639 
L 622.741567 72.895872 
L 624.512881 62.888638 
L 626.284195 53.611768 
L 628.055509 46.146002 
L 629.826823 53.905172 
L 631.598137 60.345062 
L 633.369451 64.447325 
L 649.311276 64.447325 
L 651.08259 93.562222 
L 652.853904 108.139565 
L 656.396532 108.139565 
L 658.167846 109.102158 
L 659.93916 109.102158 
L 661.710474 98.199142 
L 665.253101 74.118136 
L 670.567043 42.012727 
L 672.338357 60.345062 
L 674.109671 60.345062 
L 674.109671 60.345062 
" clip-path="url(#pbdac876f6c)" style="fill: none; stroke: #7f7f7f; stroke-width: 1.8; stroke-linecap: square"/>
   </g>
   <g id="line2d_24">
    <path d="M 80.719508 60.345062 
L 674.109671 60.345062 
L 674.109671 60.345062 
" clip-path="url(#pbdac876f6c)" style="fill: none; stroke: #bcbd22; stroke-width: 1.8; stroke-linecap: square"/>
   </g>
   <g id="line2d_25">
    <path d="M 80.719508 295.5927 
L 674.109671 295.5927 
L 674.109671 295.5927 
" clip-path="url(#pbdac876f6c)" style="fill: none; stroke: #17becf; stroke-width: 1.8; stroke-linecap: square"/>
   </g>
   <g id="line2d_26">
    <path d="M 80.719508 295.5927 
L 674.109671 295.5927 
L 674.109671 295.5927 
" clip-path="url(#pbdac876f6c)" style="fill: none; stroke: #1f77b4; stroke-width: 1.8; stroke-linecap: square"/>
   </g>
   <g id="line2d_27">
    <path d="M 80.719508 295.5927 
L 674.109671 295.5927 
L 674.109671 295.5927 
" clip-path="url(#pbdac876f6c)" style="fill: none; stroke: #ff7f0e; stroke-width: 1.8; stroke-linecap: square"/>
   </g>
   <g id="line2d_28">
    <path d="M 80.719508 295.5927 
L 87.804764 295.5927 
L 89.576078 318.354949 
L 98.432647 318.354949 
L 100.203961 295.5927 
L 101.975275 295.5927 
L 103.746589 272.187043 
L 105.517903 231.018707 
L 107.289217 212.906545 
L 109.060531 212.906545 
L 110.831845 204.107507 
L 112.603159 209.42028 
L 116.145787 209.42028 
L 119.688414 295.5927 
L 128.544984 295.5927 
L 132.087612 349.352785 
L 139.172867 349.352785 
L 140.944181 329.530532 
L 142.715495 295.5927 
L 144.486809 270.743933 
L 146.258123 247.815889 
L 148.029437 230.531978 
L 149.800751 230.531978 
L 151.572065 225.357084 
L 155.114693 225.357084 
L 156.886007 227.076832 
L 158.657321 227.076832 
L 160.428634 248.282109 
L 162.199948 295.5927 
L 172.827832 295.5927 
L 174.599146 323.106345 
L 181.684402 323.106345 
L 183.455715 320.698607 
L 185.227029 295.5927 
L 186.998343 258.133434 
L 190.540971 258.133434 
L 192.312285 237.307534 
L 194.083599 237.307534 
L 195.854913 204.107507 
L 201.168855 204.107507 
L 204.711482 295.5927 
L 206.482796 295.5927 
L 208.25411 321.352396 
L 210.025424 336.88516 
L 211.796738 362.024197 
L 220.653308 362.024197 
L 222.424622 356.337363 
L 224.195936 356.337363 
L 225.967249 324.355443 
L 227.738563 295.5927 
L 229.509877 295.5927 
L 231.281191 254.424363 
L 233.052505 254.424363 
L 234.823819 245.817766 
L 236.595133 245.817766 
L 238.366447 223.621894 
L 243.680389 223.621894 
L 245.451703 245.614453 
L 247.223017 295.5927 
L 248.99433 295.5927 
L 250.765644 316.603341 
L 268.478784 316.603341 
L 270.250097 295.5927 
L 272.021411 295.5927 
L 273.792725 260.799156 
L 275.564039 260.799156 
L 277.335353 244.767593 
L 289.734551 244.767593 
L 291.505864 295.5927 
L 293.277178 295.5927 
L 295.048492 308.778199 
L 309.219004 308.778199 
L 310.990318 295.5927 
L 312.761632 295.5927 
L 314.532945 273.18423 
L 316.304259 273.18423 
L 318.075573 239.100032 
L 319.846887 236.461202 
L 321.618201 219.715096 
L 325.160829 219.715096 
L 326.932143 249.65669 
L 328.703457 249.65669 
L 330.474771 295.5927 
L 342.873968 295.5927 
L 344.645282 330.63545 
L 346.416596 356.024 
L 349.959224 356.024 
L 351.730538 338.883222 
L 353.501852 307.651702 
L 355.273166 295.5927 
L 357.044479 254.792496 
L 358.815793 254.792496 
L 360.587107 246.765349 
L 372.986305 246.765349 
L 374.757619 295.5927 
L 397.7847 295.5927 
L 399.556014 273.250479 
L 401.327327 273.250479 
L 403.098641 250.106411 
L 411.955211 250.106411 
L 413.726525 295.5927 
L 420.811781 295.5927 
L 422.583094 308.98886 
L 426.125722 308.98886 
L 427.897036 318.396756 
L 434.982292 318.396756 
L 436.753606 308.561223 
L 438.52492 308.119388 
L 440.296234 295.5927 
L 442.067548 295.5927 
L 443.838862 281.19079 
L 445.610175 281.19079 
L 447.381489 271.727945 
L 449.152803 257.574456 
L 450.924117 221.501903 
L 456.238059 221.501903 
L 458.009373 244.767593 
L 459.780687 244.767593 
L 461.552001 295.5927 
L 468.637256 295.5927 
L 470.40857 308.4992 
L 472.179884 308.4992 
L 473.951198 317.642209 
L 475.722512 321.076207 
L 479.26514 321.076207 
L 481.036454 297.005614 
L 482.807768 295.5927 
L 484.579082 289.086431 
L 486.350396 281.921534 
L 488.121709 257.62554 
L 489.893023 229.541328 
L 500.520907 229.541328 
L 502.292221 244.767593 
L 504.063535 295.5927 
L 514.691418 295.5927 
L 516.462732 308.752161 
L 521.776674 308.752161 
L 523.547988 295.5927 
L 527.090616 295.5927 
L 528.86193 274.876191 
L 530.633244 259.772491 
L 532.404557 225.351638 
L 534.175871 224.999337 
L 539.489813 224.999337 
L 541.261127 243.916245 
L 543.032441 243.916245 
L 544.803755 244.767593 
L 548.346383 346.417807 
L 553.660324 346.417807 
L 555.431638 373.467273 
L 562.516894 373.467273 
L 564.288208 336.761036 
L 566.059522 295.5927 
L 569.60215 295.5927 
L 571.373464 267.815899 
L 573.144778 245.69748 
L 574.916092 245.69748 
L 576.687405 204.529144 
L 578.458719 204.107507 
L 582.001347 204.107507 
L 583.772661 254.932614 
L 585.543975 295.5927 
L 590.857917 295.5927 
L 592.629231 304.696382 
L 606.799742 304.696382 
L 608.571056 297.931222 
L 610.34237 295.5927 
L 612.113684 291.788484 
L 613.884998 250.620147 
L 615.656312 250.620147 
L 617.427626 226.395721 
L 628.055509 226.395721 
L 629.826823 244.767593 
L 631.598137 295.5927 
L 651.08259 295.5927 
L 652.853904 255.856379 
L 654.625218 220.794659 
L 656.396532 220.794659 
L 658.167846 204.107507 
L 668.795729 204.107507 
L 670.567043 252.535592 
L 672.338357 252.535592 
L 674.109671 295.5927 
L 674.109671 295.5927 
" clip-path="url(#pbdac876f6c)" style="fill: none; stroke: #2ca02c; stroke-width: 1.8; stroke-linecap: square"/>
   </g>
   <g id="line2d_29">
    <path d="M 80.719508 295.5927 
L 100.203961 295.5927 
L 101.975275 293.3022 
L 103.746589 293.02302 
L 105.517903 297.625807 
L 107.289217 299.133664 
L 109.060531 299.133664 
L 110.831845 298.802879 
L 112.603159 295.261526 
L 114.374473 292.556052 
L 116.145787 291.486122 
L 117.9171 292.099411 
L 119.688414 295.5927 
L 123.231042 295.5927 
L 125.002356 296.727872 
L 128.544984 296.727872 
L 132.087612 297.88192 
L 133.858926 298.318096 
L 135.63024 298.318096 
L 137.401554 296.66957 
L 139.172867 295.5927 
L 142.715495 295.5927 
L 144.486809 296.74945 
L 146.258123 297.62537 
L 148.029437 297.62537 
L 149.800751 295.746861 
L 153.343379 295.746861 
L 155.114693 294.702989 
L 156.886007 294.702989 
L 158.657321 295.132838 
L 160.428634 295.132838 
L 162.199948 295.471249 
L 163.971262 295.5927 
L 270.250097 295.5927 
L 272.021411 302.171898 
L 273.792725 315.057895 
L 275.564039 324.096039 
L 277.335353 330.673345 
L 279.106667 334.831864 
L 286.191923 334.831864 
L 287.963237 334.596843 
L 291.505864 295.5927 
L 335.788712 295.5927 
L 337.560026 288.967852 
L 341.102654 288.967852 
L 342.873968 287.805291 
L 344.645282 287.163394 
L 346.416596 287.393319 
L 348.18791 288.088213 
L 351.730538 288.114103 
L 355.273166 295.5927 
L 357.044479 303.171412 
L 360.587107 322.547431 
L 362.358421 325.177812 
L 364.129735 326.825507 
L 365.901049 322.526071 
L 367.672363 310.884557 
L 369.443677 296.349789 
L 371.214991 291.257833 
L 372.986305 291.257833 
L 374.757619 290.954444 
L 376.528933 295.5927 
L 378.300247 301.655248 
L 380.07156 307.008488 
L 381.842874 310.914704 
L 383.614188 312.815914 
L 387.156816 314.117958 
L 388.92813 316.216494 
L 390.699444 316.216494 
L 392.470758 314.768263 
L 394.242072 307.035779 
L 396.013386 306.107291 
L 397.7847 295.5927 
L 410.183897 295.5927 
L 411.955211 289.222735 
L 413.726525 289.222735 
L 415.497839 285.882182 
L 417.269153 289.371893 
L 419.040467 295.5927 
L 420.811781 304.818914 
L 422.583094 311.07589 
L 424.354408 319.733161 
L 426.125722 322.768555 
L 427.897036 322.620525 
L 429.66835 320.78248 
L 431.439664 318.047916 
L 433.210978 314.29643 
L 434.982292 295.5927 
L 461.552001 295.5927 
L 463.323315 292.281539 
L 465.094629 292.281539 
L 466.865942 295.857672 
L 468.637256 295.857672 
L 472.179884 298.177467 
L 473.951198 298.849969 
L 475.722512 298.849969 
L 479.26514 295.988058 
L 481.036454 295.5927 
L 482.807768 295.5927 
L 484.579082 298.400311 
L 486.350396 300.673811 
L 488.121709 301.839678 
L 489.893023 299.450696 
L 491.664337 298.919839 
L 493.435651 296.327378 
L 496.978279 296.327378 
L 498.749593 293.086698 
L 500.520907 294.180749 
L 502.292221 294.811667 
L 504.063535 295.5927 
L 511.14879 295.5927 
L 512.920104 295.879841 
L 514.691418 296.825815 
L 516.462732 298.336898 
L 518.234046 298.336898 
L 520.00536 297.07186 
L 521.776674 296.036698 
L 523.547988 295.5927 
L 525.319302 295.5927 
L 527.090616 297.698278 
L 530.633244 309.024283 
L 539.489813 309.024283 
L 541.261127 295.5927 
L 674.109671 295.5927 
L 674.109671 295.5927 
" clip-path="url(#pbdac876f6c)" style="fill: none; stroke: #d62728; stroke-width: 1.8; stroke-linecap: square"/>
   </g>
   <g id="line2d_30">
    <path d="M 80.719508 295.5927 
L 87.804764 295.5927 
L 89.576078 321.005253 
L 94.890019 321.005253 
L 96.661333 300.421085 
L 98.432647 295.5927 
L 101.975275 295.5927 
L 103.746589 275.008531 
L 105.517903 272.930341 
L 107.289217 272.930341 
L 109.060531 252.346173 
L 110.831845 244.767593 
L 112.603159 244.767593 
L 114.374473 270.180146 
L 119.688414 270.180146 
L 121.459728 295.5927 
L 130.316298 295.5927 
L 132.087612 321.005253 
L 137.401554 321.005253 
L 139.172867 315.013674 
L 140.944181 295.5927 
L 142.715495 295.5927 
L 144.486809 292.775512 
L 148.029437 251.607175 
L 149.800751 251.607175 
L 151.572065 231.023007 
L 153.343379 219.355039 
L 155.114693 219.355039 
L 160.428634 295.5927 
L 163.971262 295.5927 
L 165.742576 321.005253 
L 171.056518 321.005253 
L 172.827832 331.932651 
L 174.599146 357.345205 
L 179.913088 357.345205 
L 185.227029 295.5927 
L 190.540971 295.5927 
L 192.312285 275.008531 
L 194.083599 275.008531 
L 195.854913 270.295433 
L 204.711482 270.295433 
L 210.025424 346.417807 
L 222.424622 346.417807 
L 224.195936 325.949178 
L 225.967249 316.176868 
L 227.738563 295.5927 
L 231.281191 295.5927 
L 233.052505 275.008531 
L 243.680389 275.008531 
L 245.451703 295.5927 
L 256.079586 295.5927 
L 257.8509 321.005253 
L 264.936156 321.005253 
L 266.70747 300.421085 
L 268.478784 300.421085 
L 270.250097 295.5927 
L 272.021411 278.902559 
L 275.564039 278.902559 
L 277.335353 258.31839 
L 284.420609 258.31839 
L 286.191923 270.180146 
L 287.963237 270.180146 
L 289.734551 295.5927 
L 291.505864 295.5927 
L 293.277178 308.859142 
L 296.819806 308.859142 
L 298.59112 323.047672 
L 300.362434 323.047672 
L 302.133748 338.177867 
L 303.905062 347.44275 
L 305.676376 347.44275 
L 307.44769 344.350487 
L 309.219004 336.761036 
L 314.532945 275.008531 
L 316.304259 275.008531 
L 318.075573 268.862376 
L 319.846887 268.862376 
L 321.618201 248.278208 
L 326.932143 248.278208 
L 328.703457 270.180146 
L 332.246085 270.180146 
L 334.017399 295.5927 
L 342.873968 295.5927 
L 344.645282 321.005253 
L 351.730538 321.005253 
L 353.501852 316.176868 
L 355.273166 295.5927 
L 397.7847 295.5927 
L 399.556014 275.008531 
L 404.869955 275.008531 
L 406.641269 254.424363 
L 408.412583 244.767593 
L 413.726525 244.767593 
L 415.497839 270.180146 
L 417.269153 270.180146 
L 419.040467 295.5927 
L 420.811781 309.262 
L 422.583094 309.262 
L 426.125722 328.142208 
L 427.897036 328.142208 
L 429.66835 339.121975 
L 433.210978 339.121975 
L 434.982292 338.66487 
L 436.753606 336.761036 
L 440.296234 295.5927 
L 442.067548 295.5927 
L 449.152803 213.607642 
L 454.466745 213.607642 
L 459.780687 289.845303 
L 461.552001 295.5927 
L 482.807768 295.5927 
L 486.350396 254.424363 
L 489.893023 254.424363 
L 491.664337 246.138449 
L 500.520907 246.138449 
L 504.063535 295.5927 
L 527.090616 295.5927 
L 528.86193 285.519431 
L 530.633244 264.935263 
L 537.718499 264.935263 
L 539.489813 270.180146 
L 543.032441 270.180146 
L 544.803755 295.5927 
L 567.830836 295.5927 
L 569.60215 288.205335 
L 573.144778 247.036998 
L 574.916092 247.036998 
L 576.687405 244.767593 
L 583.772661 244.767593 
L 587.315289 295.5927 
L 647.539962 295.5927 
L 649.311276 275.008531 
L 652.853904 275.008531 
L 654.625218 266.564959 
L 656.396532 266.564959 
L 658.167846 245.980791 
L 659.93916 245.980791 
L 661.710474 225.396623 
L 668.795729 225.396623 
L 670.567043 246.097586 
L 674.109671 295.5927 
L 674.109671 295.5927 
" clip-path="url(#pbdac876f6c)" style="fill: none; stroke: #9467bd; stroke-width: 1.8; stroke-linecap: square"/>
   </g>
   <g id="line2d_31">
    <path d="M 80.719508 295.5927 
L 674.109671 295.5927 
L 674.109671 295.5927 
" clip-path="url(#pbdac876f6c)" style="fill: none; stroke: #8c564b; stroke-width: 1.8; stroke-linecap: square"/>
   </g>
   <g id="line2d_32">
    <path d="M 80.719508 295.5927 
L 674.109671 295.5927 
L 674.109671 295.5927 
" clip-path="url(#pbdac876f6c)" style="fill: none; stroke: #e377c2; stroke-width: 1.8; stroke-linecap: square"/>
   </g>
   <g id="line2d_33">
    <path d="M 80.719508 295.5927 
L 674.109671 295.5927 
L 674.109671 295.5927 
" clip-path="url(#pbdac876f6c)" style="fill: none; stroke: #7f7f7f; stroke-width: 1.8; stroke-linecap: square"/>
   </g>
   <g id="patch_3">
    <path d="M 51.05 390.04 
L 51.05 25.44 
" style="fill: none; stroke: #000000; stroke-width: 0.8; stroke-linejoin: miter; stroke-linecap: square"/>
   </g>
   <g id="patch_4">
    <path d="M 703.779179 390.04 
L 703.779179 25.44 
" style="fill: none; stroke: #000000; stroke-width: 0.8; stroke-linejoin: miter; stroke-linecap: square"/>
   </g>
   <g id="patch_5">
    <path d="M 51.05 390.04 
L 703.779179 390.04 
" style="fill: none; stroke: #000000; stroke-width: 0.8; stroke-linejoin: miter; stroke-linecap: square"/>
   </g>
   <g id="patch_6">
    <path d="M 51.05 25.44 
L 703.779179 25.44 
" style="fill: none; stroke: #000000; stroke-width: 0.8; stroke-linejoin: miter; stroke-linecap: square"/>
   </g>
   <g id="text_18">
    <!-- SoC by battery (T=336, F=12, L=12) -->
    <g transform="translate(266.18959 19.44) scale(0.12 -0.12)">
     <defs>
      <path id="DejaVuSans-62" d="M 3116 1747 
Q 3116 2381 2855 2742 
Q 2594 3103 2138 3103 
Q 1681 3103 1420 2742 
Q 1159 2381 1159 1747 
Q 1159 1113 1420 752 
Q 1681 391 2138 391 
Q 2594 391 2855 752 
Q 3116 1113 3116 1747 
z
M 1159 2969 
Q 1341 3281 1617 3432 
Q 1894 3584 2278 3584 
Q 2916 3584 3314 3078 
Q 3713 2572 3713 1747 
Q 3713 922 3314 415 
Q 2916 -91 2278 -91 
Q 1894 -91 1617 61 
Q 1341 213 1159 525 
L 1159 0 
L 581 0 
L 581 4863 
L 1159 4863 
L 1159 2969 
z
" transform="scale(0.015625)"/>
      <path id="DejaVuSans-79" d="M 2059 -325 
Q 1816 -950 1584 -1140 
Q 1353 -1331 966 -1331 
L 506 -1331 
L 506 -850 
L 844 -850 
Q 1081 -850 1212 -737 
Q 1344 -625 1503 -206 
L 1606 56 
L 191 3500 
L 800 3500 
L 1894 763 
L 2988 3500 
L 3597 3500 
L 2059 -325 
z
" transform="scale(0.015625)"/>
      <path id="DejaVuSans-61" d="M 2194 1759 
Q 1497 1759 1228 1600 
Q 959 1441 959 1056 
Q 959 750 1161 570 
Q 1363 391 1709 391 
Q 2188 391 2477 730 
Q 2766 1069 2766 1631 
L 2766 1759 
L 2194 1759 
z
M 3341 1997 
L 3341 0 
L 2766 0 
L 2766 531 
Q 2569 213 2275 61 
Q 1981 -91 1556 -91 
Q 1019 -91 701 211 
Q 384 513 384 1019 
Q 384 1609 779 1909 
Q 1175 2209 1959 2209 
L 2766 2209 
L 2766 2266 
Q 2766 2663 2505 2880 
Q 2244 3097 1772 3097 
Q 1472 3097 1187 3025 
Q 903 2953 641 2809 
L 641 3341 
Q 956 3463 1253 3523 
Q 1550 3584 1831 3584 
Q 2591 3584 2966 3190 
Q 3341 2797 3341 1997 
z
" transform="scale(0.015625)"/>
      <path id="DejaVuSans-72" d="M 2631 2963 
Q 2534 3019 2420 3045 
Q 2306 3072 2169 3072 
Q 1681 3072 1420 2755 
Q 1159 2438 1159 1844 
L 1159 0 
L 581 0 
L 581 3500 
L 1159 3500 
L 1159 2956 
Q 1341 3275 1631 3429 
Q 1922 3584 2338 3584 
Q 2397 3584 2469 3576 
Q 2541 3569 2628 3553 
L 2631 2963 
z
" transform="scale(0.015625)"/>
      <path id="DejaVuSans-3d" d="M 678 2906 
L 4684 2906 
L 4684 2381 
L 678 2381 
L 678 2906 
z
M 678 1631 
L 4684 1631 
L 4684 1100 
L 678 1100 
L 678 1631 
z
" transform="scale(0.015625)"/>
      <path id="DejaVuSans-36" d="M 2113 2584 
Q 1688 2584 1439 2293 
Q 1191 2003 1191 1497 
Q 1191 994 1439 701 
Q 1688 409 2113 409 
Q 2538 409 2786 701 
Q 3034 994 3034 1497 
Q 3034 2003 2786 2293 
Q 2538 2584 2113 2584 
z
M 3366 4563 
L 3366 3988 
Q 3128 4100 2886 4159 
Q 2644 4219 2406 4219 
Q 1781 4219 1451 3797 
Q 1122 3375 1075 2522 
Q 1259 2794 1537 2939 
Q 1816 3084 2150 3084 
Q 2853 3084 3261 2657 
Q 3669 2231 3669 1497 
Q 3669 778 3244 343 
Q 2819 -91 2113 -91 
Q 1303 -91 875 529 
Q 447 1150 447 2328 
Q 447 3434 972 4092 
Q 1497 4750 2381 4750 
Q 2619 4750 2861 4703 
Q 3103 4656 3366 4563 
z
" transform="scale(0.015625)"/>
      <path id="DejaVuSans-2c" d="M 750 794 
L 1409 794 
L 1409 256 
L 897 -744 
L 494 -744 
L 750 256 
L 750 794 
z
" transform="scale(0.015625)"/>
      <path id="DejaVuSans-46" d="M 628 4666 
L 3309 4666 
L 3309 4134 
L 1259 4134 
L 1259 2759 
L 3109 2759 
L 3109 2228 
L 1259 2228 
L 1259 0 
L 628 0 
L 628 4666 
z
" transform="scale(0.015625)"/>
      <path id="DejaVuSans-4c" d="M 628 4666 
L 1259 4666 
L 1259 531 
L 3531 531 
L 3531 0 
L 628 0 
L 628 4666 
z
" transform="scale(0.015625)"/>
     </defs>
     <use xlink:href="#DejaVuSans-53"/>
     <use xlink:href="#DejaVuSans-6f" transform="translate(63.476562 0)"/>
     <use xlink:href="#DejaVuSans-43" transform="translate(124.658203 0)"/>
     <use xlink:href="#DejaVuSans-20" transform="translate(194.482422 0)"/>
     <use xlink:href="#DejaVuSans-62" transform="translate(226.269531 0)"/>
     <use xlink:href="#DejaVuSans-79" transform="translate(289.746094 0)"/>
     <use xlink:href="#DejaVuSans-20" transform="translate(348.925781 0)"/>
     <use xlink:href="#DejaVuSans-62" transform="translate(380.712891 0)"/>
     <use xlink:href="#DejaVuSans-61" transform="translate(444.189453 0)"/>
     <use xlink:href="#DejaVuSans-74" transform="translate(505.46875 0)"/>
     <use xlink:href="#DejaVuSans-74" transform="translate(544.677734 0)"/>
     <use xlink:href="#DejaVuSans-65" transform="translate(583.886719 0)"/>
     <use xlink:href="#DejaVuSans-72" transform="translate(645.410156 0)"/>
     <use xlink:href="#DejaVuSans-79" transform="translate(686.523438 0)"/>
     <use xlink:href="#DejaVuSans-20" transform="translate(745.703125 0)"/>
     <use xlink:href="#DejaVuSans-28" transform="translate(777.490234 0)"/>
     <use xlink:href="#DejaVuSans-54" transform="translate(816.503906 0)"/>
     <use xlink:href="#DejaVuSans-3d" transform="translate(877.587891 0)"/>
     <use xlink:href="#DejaVuSans-33" transform="translate(961.376953 0)"/>
     <use xlink:href="#DejaVuSans-33" transform="translate(1025 0)"/>
     <use xlink:href="#DejaVuSans-36" transform="translate(1088.623047 0)"/>
     <use xlink:href="#DejaVuSans-2c" transform="translate(1152.246094 0)"/>
     <use xlink:href="#DejaVuSans-20" transform="translate(1184.033203 0)"/>
     <use xlink:href="#DejaVuSans-46" transform="translate(1215.820312 0)"/>
     <use xlink:href="#DejaVuSans-3d" transform="translate(1273.339844 0)"/>
     <use xlink:href="#DejaVuSans-31" transform="translate(1357.128906 0)"/>
     <use xlink:href="#DejaVuSans-32" transform="translate(1420.751953 0)"/>
     <use xlink:href="#DejaVuSans-2c" transform="translate(1484.375 0)"/>
     <use xlink:href="#DejaVuSans-20" transform="translate(1516.162109 0)"/>
     <use xlink:href="#DejaVuSans-4c" transform="translate(1547.949219 0)"/>
     <use xlink:href="#DejaVuSans-3d" transform="translate(1603.662109 0)"/>
     <use xlink:href="#DejaVuSans-31" transform="translate(1687.451172 0)"/>
     <use xlink:href="#DejaVuSans-32" transform="translate(1751.074219 0)"/>
     <use xlink:href="#DejaVuSans-29" transform="translate(1814.697266 0)"/>
    </g>
   </g>
  </g>
 </g>
 <defs>
  <clipPath id="pbdac876f6c">
   <rect x="51.05" y="25.44" width="652.729179" height="364.6"/>
  </clipPath>
 </defs>
</svg>
