<?xml version="1.0" encoding="utf-8" standalone="no"?>
<!DOCTYPE svg PUBLIC "-//W3C//DTD SVG 1.1//EN"
  "http://www.w3.org/Graphics/SVG/1.1/DTD/svg11.dtd">
<svg xmlns:xlink="http://www.w3.org/1999/xlink" width="720pt" height="432pt" viewBox="0 0 720 432" xmlns="http://www.w3.org/2000/svg" version="1.1">
 <metadata>
  <rdf:RDF xmlns:dc="http://purl.org/dc/elements/1.1/" xmlns:cc="http://creativecommons.org/ns#" xmlns:rdf="http://www.w3.org/1999/02/22-rdf-syntax-ns#">
   <cc:Work>
    <dc:type rdf:resource="http://purl.org/dc/dcmitype/StillImage"/>
    <dc:date>2025-11-11T00:45:37.331789</dc:date>
    <dc:format>image/svg+xml</dc:format>
    <dc:creator>
     <cc:Agent>
      <dc:title>Matplotlib v3.10.0, https://matplotlib.org/</dc:title>
     </cc:Agent>
    </dc:creator>
   </cc:Work>
  </rdf:RDF>
 </metadata>
 <defs>
  <style type="text/css">*{stroke-linejoin: round; stroke-linecap: butt}</style>
 </defs>
 <g id="figure_1">
  <g id="patch_1">
   <path d="M 0 432 
L 720 432 
L 720 0 
L 0 0 
z
" style="fill: #ffffff"/>
  </g>
  <g id="axes_1">
   <g id="patch_2">
    <path d="M 51.05 390.04 
L 703.779179 390.04 
L 703.779179 25.44 
L 51.05 25.44 
z
" style="fill: #ffffff"/>
   </g>
   <g id="matplotlib.axis_1">
    <g id="xtick_1">
     <g id="line2d_1">
      <defs>
       <path id="md0fa1134e2" d="M 0 0 
L 0 3.5 
" style="stroke: #000000; stroke-width: 0.8"/>
      </defs>
      <g>
       <use xlink:href="#md0fa1134e2" x="78.948194" y="390.04" style="stroke: #000000; stroke-width: 0.8"/>
      </g>
     </g>
     <g id="text_1">
      <!-- 0 -->
      <g transform="translate(75.766944 404.638438) scale(0.1 -0.1)">
       <defs>
        <path id="DejaVuSans-30" d="M 2034 4250 
Q 1547 4250 1301 3770 
Q 1056 3291 1056 2328 
Q 1056 1369 1301 889 
Q 1547 409 2034 409 
Q 2525 409 2770 889 
Q 3016 1369 3016 2328 
Q 3016 3291 2770 3770 
Q 2525 4250 2034 4250 
z
M 2034 4750 
Q 2819 4750 3233 4129 
Q 3647 3509 3647 2328 
Q 3647 1150 3233 529 
Q 2819 -91 2034 -91 
Q 1250 -91 836 529 
Q 422 1150 422 2328 
Q 422 3509 836 4129 
Q 1250 4750 2034 4750 
z
" transform="scale(0.015625)"/>
       </defs>
       <use xlink:href="#DejaVuSans-30"/>
      </g>
     </g>
    </g>
    <g id="xtick_2">
     <g id="line2d_2">
      <g>
       <use xlink:href="#md0fa1134e2" x="167.51389" y="390.04" style="stroke: #000000; stroke-width: 0.8"/>
      </g>
     </g>
     <g id="text_2">
      <!-- 50 -->
      <g transform="translate(161.15139 404.638438) scale(0.1 -0.1)">
       <defs>
        <path id="DejaVuSans-35" d="M 691 4666 
L 3169 4666 
L 3169 4134 
L 1269 4134 
L 1269 2991 
Q 1406 3038 1543 3061 
Q 1681 3084 1819 3084 
Q 2600 3084 3056 2656 
Q 3513 2228 3513 1497 
Q 3513 744 3044 326 
Q 2575 -91 1722 -91 
Q 1428 -91 1123 -41 
Q 819 9 494 109 
L 494 744 
Q 775 591 1075 516 
Q 1375 441 1709 441 
Q 2250 441 2565 725 
Q 2881 1009 2881 1497 
Q 2881 1984 2565 2268 
Q 2250 2553 1709 2553 
Q 1456 2553 1204 2497 
Q 953 2441 691 2322 
L 691 4666 
z
" transform="scale(0.015625)"/>
       </defs>
       <use xlink:href="#DejaVuSans-35"/>
       <use xlink:href="#DejaVuSans-30" transform="translate(63.623047 0)"/>
      </g>
     </g>
    </g>
    <g id="xtick_3">
     <g id="line2d_3">
      <g>
       <use xlink:href="#md0fa1134e2" x="256.079586" y="390.04" style="stroke: #000000; stroke-width: 0.8"/>
      </g>
     </g>
     <g id="text_3">
      <!-- 100 -->
      <g transform="translate(246.535836 404.638438) scale(0.1 -0.1)">
       <defs>
        <path id="DejaVuSans-31" d="M 794 531 
L 1825 531 
L 1825 4091 
L 703 3866 
L 703 4441 
L 1819 4666 
L 2450 4666 
L 2450 531 
L 3481 531 
L 3481 0 
L 794 0 
L 794 531 
z
" transform="scale(0.015625)"/>
       </defs>
       <use xlink:href="#DejaVuSans-31"/>
       <use xlink:href="#DejaVuSans-30" transform="translate(63.623047 0)"/>
       <use xlink:href="#DejaVuSans-30" transform="translate(127.246094 0)"/>
      </g>
     </g>
    </g>
    <g id="xtick_4">
     <g id="line2d_4">
      <g>
       <use xlink:href="#md0fa1134e2" x="344.645282" y="390.04" style="stroke: #000000; stroke-width: 0.8"/>
      </g>
     </g>
     <g id="text_4">
      <!-- 150 -->
      <g transform="translate(335.101532 404.638438) scale(0.1 -0.1)">
       <use xlink:href="#DejaVuSans-31"/>
       <use xlink:href="#DejaVuSans-35" transform="translate(63.623047 0)"/>
       <use xlink:href="#DejaVuSans-30" transform="translate(127.246094 0)"/>
      </g>
     </g>
    </g>
    <g id="xtick_5">
     <g id="line2d_5">
      <g>
       <use xlink:href="#md0fa1134e2" x="433.210978" y="390.04" style="stroke: #000000; stroke-width: 0.8"/>
      </g>
     </g>
     <g id="text_5">
      <!-- 200 -->
      <g transform="translate(423.667228 404.638438) scale(0.1 -0.1)">
       <defs>
        <path id="DejaVuSans-32" d="M 1228 531 
L 3431 531 
L 3431 0 
L 469 0 
L 469 531 
Q 828 903 1448 1529 
Q 2069 2156 2228 2338 
Q 2531 2678 2651 2914 
Q 2772 3150 2772 3378 
Q 2772 3750 2511 3984 
Q 2250 4219 1831 4219 
Q 1534 4219 1204 4116 
Q 875 4013 500 3803 
L 500 4441 
Q 881 4594 1212 4672 
Q 1544 4750 1819 4750 
Q 2544 4750 2975 4387 
Q 3406 4025 3406 3419 
Q 3406 3131 3298 2873 
Q 3191 2616 2906 2266 
Q 2828 2175 2409 1742 
Q 1991 1309 1228 531 
z
" transform="scale(0.015625)"/>
       </defs>
       <use xlink:href="#DejaVuSans-32"/>
       <use xlink:href="#DejaVuSans-30" transform="translate(63.623047 0)"/>
       <use xlink:href="#DejaVuSans-30" transform="translate(127.246094 0)"/>
      </g>
     </g>
    </g>
    <g id="xtick_6">
     <g id="line2d_6">
      <g>
       <use xlink:href="#md0fa1134e2" x="521.776674" y="390.04" style="stroke: #000000; stroke-width: 0.8"/>
      </g>
     </g>
     <g id="text_6">
      <!-- 250 -->
      <g transform="translate(512.232924 404.638438) scale(0.1 -0.1)">
       <use xlink:href="#DejaVuSans-32"/>
       <use xlink:href="#DejaVuSans-35" transform="translate(63.623047 0)"/>
       <use xlink:href="#DejaVuSans-30" transform="translate(127.246094 0)"/>
      </g>
     </g>
    </g>
    <g id="xtick_7">
     <g id="line2d_7">
      <g>
       <use xlink:href="#md0fa1134e2" x="610.34237" y="390.04" style="stroke: #000000; stroke-width: 0.8"/>
      </g>
     </g>
     <g id="text_7">
      <!-- 300 -->
      <g transform="translate(600.79862 404.638438) scale(0.1 -0.1)">
       <defs>
        <path id="DejaVuSans-33" d="M 2597 2516 
Q 3050 2419 3304 2112 
Q 3559 1806 3559 1356 
Q 3559 666 3084 287 
Q 2609 -91 1734 -91 
Q 1441 -91 1130 -33 
Q 819 25 488 141 
L 488 750 
Q 750 597 1062 519 
Q 1375 441 1716 441 
Q 2309 441 2620 675 
Q 2931 909 2931 1356 
Q 2931 1769 2642 2001 
Q 2353 2234 1838 2234 
L 1294 2234 
L 1294 2753 
L 1863 2753 
Q 2328 2753 2575 2939 
Q 2822 3125 2822 3475 
Q 2822 3834 2567 4026 
Q 2313 4219 1838 4219 
Q 1578 4219 1281 4162 
Q 984 4106 628 3988 
L 628 4550 
Q 988 4650 1302 4700 
Q 1616 4750 1894 4750 
Q 2613 4750 3031 4423 
Q 3450 4097 3450 3541 
Q 3450 3153 3228 2886 
Q 3006 2619 2597 2516 
z
" transform="scale(0.015625)"/>
       </defs>
       <use xlink:href="#DejaVuSans-33"/>
       <use xlink:href="#DejaVuSans-30" transform="translate(63.623047 0)"/>
       <use xlink:href="#DejaVuSans-30" transform="translate(127.246094 0)"/>
      </g>
     </g>
    </g>
    <g id="xtick_8">
     <g id="line2d_8">
      <g>
       <use xlink:href="#md0fa1134e2" x="698.908066" y="390.04" style="stroke: #000000; stroke-width: 0.8"/>
      </g>
     </g>
     <g id="text_8">
      <!-- 350 -->
      <g transform="translate(689.364316 404.638438) scale(0.1 -0.1)">
       <use xlink:href="#DejaVuSans-33"/>
       <use xlink:href="#DejaVuSans-35" transform="translate(63.623047 0)"/>
       <use xlink:href="#DejaVuSans-30" transform="translate(127.246094 0)"/>
      </g>
     </g>
    </g>
    <g id="text_9">
     <!-- Time (t) -->
     <g transform="translate(357.730215 418.316562) scale(0.1 -0.1)">
      <defs>
       <path id="DejaVuSans-54" d="M -19 4666 
L 3928 4666 
L 3928 4134 
L 2272 4134 
L 2272 0 
L 1638 0 
L 1638 4134 
L -19 4134 
L -19 4666 
z
" transform="scale(0.015625)"/>
       <path id="DejaVuSans-69" d="M 603 3500 
L 1178 3500 
L 1178 0 
L 603 0 
L 603 3500 
z
M 603 4863 
L 1178 4863 
L 1178 4134 
L 603 4134 
L 603 4863 
z
" transform="scale(0.015625)"/>
       <path id="DejaVuSans-6d" d="M 3328 2828 
Q 3544 3216 3844 3400 
Q 4144 3584 4550 3584 
Q 5097 3584 5394 3201 
Q 5691 2819 5691 2113 
L 5691 0 
L 5113 0 
L 5113 2094 
Q 5113 2597 4934 2840 
Q 4756 3084 4391 3084 
Q 3944 3084 3684 2787 
Q 3425 2491 3425 1978 
L 3425 0 
L 2847 0 
L 2847 2094 
Q 2847 2600 2669 2842 
Q 2491 3084 2119 3084 
Q 1678 3084 1418 2786 
Q 1159 2488 1159 1978 
L 1159 0 
L 581 0 
L 581 3500 
L 1159 3500 
L 1159 2956 
Q 1356 3278 1631 3431 
Q 1906 3584 2284 3584 
Q 2666 3584 2933 3390 
Q 3200 3197 3328 2828 
z
" transform="scale(0.015625)"/>
       <path id="DejaVuSans-65" d="M 3597 1894 
L 3597 1613 
L 953 1613 
Q 991 1019 1311 708 
Q 1631 397 2203 397 
Q 2534 397 2845 478 
Q 3156 559 3463 722 
L 3463 178 
Q 3153 47 2828 -22 
Q 2503 -91 2169 -91 
Q 1331 -91 842 396 
Q 353 884 353 1716 
Q 353 2575 817 3079 
Q 1281 3584 2069 3584 
Q 2775 3584 3186 3129 
Q 3597 2675 3597 1894 
z
M 3022 2063 
Q 3016 2534 2758 2815 
Q 2500 3097 2075 3097 
Q 1594 3097 1305 2825 
Q 1016 2553 972 2059 
L 3022 2063 
z
" transform="scale(0.015625)"/>
       <path id="DejaVuSans-20" transform="scale(0.015625)"/>
       <path id="DejaVuSans-28" d="M 1984 4856 
Q 1566 4138 1362 3434 
Q 1159 2731 1159 2009 
Q 1159 1288 1364 580 
Q 1569 -128 1984 -844 
L 1484 -844 
Q 1016 -109 783 600 
Q 550 1309 550 2009 
Q 550 2706 781 3412 
Q 1013 4119 1484 4856 
L 1984 4856 
z
" transform="scale(0.015625)"/>
       <path id="DejaVuSans-74" d="M 1172 4494 
L 1172 3500 
L 2356 3500 
L 2356 3053 
L 1172 3053 
L 1172 1153 
Q 1172 725 1289 603 
Q 1406 481 1766 481 
L 2356 481 
L 2356 0 
L 1766 0 
Q 1100 0 847 248 
Q 594 497 594 1153 
L 594 3053 
L 172 3053 
L 172 3500 
L 594 3500 
L 594 4494 
L 1172 4494 
z
" transform="scale(0.015625)"/>
       <path id="DejaVuSans-29" d="M 513 4856 
L 1013 4856 
Q 1481 4119 1714 3412 
Q 1947 2706 1947 2009 
Q 1947 1309 1714 600 
Q 1481 -109 1013 -844 
L 513 -844 
Q 928 -128 1133 580 
Q 1338 1288 1338 2009 
Q 1338 2731 1133 3434 
Q 928 4138 513 4856 
z
" transform="scale(0.015625)"/>
      </defs>
      <use xlink:href="#DejaVuSans-54"/>
      <use xlink:href="#DejaVuSans-69" transform="translate(57.958984 0)"/>
      <use xlink:href="#DejaVuSans-6d" transform="translate(85.742188 0)"/>
      <use xlink:href="#DejaVuSans-65" transform="translate(183.154297 0)"/>
      <use xlink:href="#DejaVuSans-20" transform="translate(244.677734 0)"/>
      <use xlink:href="#DejaVuSans-28" transform="translate(276.464844 0)"/>
      <use xlink:href="#DejaVuSans-74" transform="translate(315.478516 0)"/>
      <use xlink:href="#DejaVuSans-29" transform="translate(354.6875 0)"/>
     </g>
    </g>
   </g>
   <g id="matplotlib.axis_2">
    <g id="ytick_1">
     <g id="line2d_9">
      <defs>
       <path id="mb6a192a8d3" d="M 0 0 
L -3.5 0 
" style="stroke: #000000; stroke-width: 0.8"/>
      </defs>
      <g>
       <use xlink:href="#mb6a192a8d3" x="51.05" y="344.86938" style="stroke: #000000; stroke-width: 0.8"/>
      </g>
     </g>
     <g id="text_10">
      <!-- 50 -->
      <g transform="translate(31.325 348.668599) scale(0.1 -0.1)">
       <use xlink:href="#DejaVuSans-35"/>
       <use xlink:href="#DejaVuSans-30" transform="translate(63.623047 0)"/>
      </g>
     </g>
    </g>
    <g id="ytick_2">
     <g id="line2d_10">
      <g>
       <use xlink:href="#mb6a192a8d3" x="51.05" y="294.295432" style="stroke: #000000; stroke-width: 0.8"/>
      </g>
     </g>
     <g id="text_11">
      <!-- 100 -->
      <g transform="translate(24.9625 298.094651) scale(0.1 -0.1)">
       <use xlink:href="#DejaVuSans-31"/>
       <use xlink:href="#DejaVuSans-30" transform="translate(63.623047 0)"/>
       <use xlink:href="#DejaVuSans-30" transform="translate(127.246094 0)"/>
      </g>
     </g>
    </g>
    <g id="ytick_3">
     <g id="line2d_11">
      <g>
       <use xlink:href="#mb6a192a8d3" x="51.05" y="243.721484" style="stroke: #000000; stroke-width: 0.8"/>
      </g>
     </g>
     <g id="text_12">
      <!-- 150 -->
      <g transform="translate(24.9625 247.520702) scale(0.1 -0.1)">
       <use xlink:href="#DejaVuSans-31"/>
       <use xlink:href="#DejaVuSans-35" transform="translate(63.623047 0)"/>
       <use xlink:href="#DejaVuSans-30" transform="translate(127.246094 0)"/>
      </g>
     </g>
    </g>
    <g id="ytick_4">
     <g id="line2d_12">
      <g>
       <use xlink:href="#mb6a192a8d3" x="51.05" y="193.147535" style="stroke: #000000; stroke-width: 0.8"/>
      </g>
     </g>
     <g id="text_13">
      <!-- 200 -->
      <g transform="translate(24.9625 196.946754) scale(0.1 -0.1)">
       <use xlink:href="#DejaVuSans-32"/>
       <use xlink:href="#DejaVuSans-30" transform="translate(63.623047 0)"/>
       <use xlink:href="#DejaVuSans-30" transform="translate(127.246094 0)"/>
      </g>
     </g>
    </g>
    <g id="ytick_5">
     <g id="line2d_13">
      <g>
       <use xlink:href="#mb6a192a8d3" x="51.05" y="142.573587" style="stroke: #000000; stroke-width: 0.8"/>
      </g>
     </g>
     <g id="text_14">
      <!-- 250 -->
      <g transform="translate(24.9625 146.372806) scale(0.1 -0.1)">
       <use xlink:href="#DejaVuSans-32"/>
       <use xlink:href="#DejaVuSans-35" transform="translate(63.623047 0)"/>
       <use xlink:href="#DejaVuSans-30" transform="translate(127.246094 0)"/>
      </g>
     </g>
    </g>
    <g id="ytick_6">
     <g id="line2d_14">
      <g>
       <use xlink:href="#mb6a192a8d3" x="51.05" y="91.999639" style="stroke: #000000; stroke-width: 0.8"/>
      </g>
     </g>
     <g id="text_15">
      <!-- 300 -->
      <g transform="translate(24.9625 95.798857) scale(0.1 -0.1)">
       <use xlink:href="#DejaVuSans-33"/>
       <use xlink:href="#DejaVuSans-30" transform="translate(63.623047 0)"/>
       <use xlink:href="#DejaVuSans-30" transform="translate(127.246094 0)"/>
      </g>
     </g>
    </g>
    <g id="ytick_7">
     <g id="line2d_15">
      <g>
       <use xlink:href="#mb6a192a8d3" x="51.05" y="41.42569" style="stroke: #000000; stroke-width: 0.8"/>
      </g>
     </g>
     <g id="text_16">
      <!-- 350 -->
      <g transform="translate(24.9625 45.224909) scale(0.1 -0.1)">
       <use xlink:href="#DejaVuSans-33"/>
       <use xlink:href="#DejaVuSans-35" transform="translate(63.623047 0)"/>
       <use xlink:href="#DejaVuSans-30" transform="translate(127.246094 0)"/>
      </g>
     </g>
    </g>
    <g id="text_17">
     <!-- SoC -->
     <g transform="translate(18.882812 217.465) rotate(-90) scale(0.1 -0.1)">
      <defs>
       <path id="DejaVuSans-53" d="M 3425 4513 
L 3425 3897 
Q 3066 4069 2747 4153 
Q 2428 4238 2131 4238 
Q 1616 4238 1336 4038 
Q 1056 3838 1056 3469 
Q 1056 3159 1242 3001 
Q 1428 2844 1947 2747 
L 2328 2669 
Q 3034 2534 3370 2195 
Q 3706 1856 3706 1288 
Q 3706 609 3251 259 
Q 2797 -91 1919 -91 
Q 1588 -91 1214 -16 
Q 841 59 441 206 
L 441 856 
Q 825 641 1194 531 
Q 1563 422 1919 422 
Q 2459 422 2753 634 
Q 3047 847 3047 1241 
Q 3047 1584 2836 1778 
Q 2625 1972 2144 2069 
L 1759 2144 
Q 1053 2284 737 2584 
Q 422 2884 422 3419 
Q 422 4038 858 4394 
Q 1294 4750 2059 4750 
Q 2388 4750 2728 4690 
Q 3069 4631 3425 4513 
z
" transform="scale(0.015625)"/>
       <path id="DejaVuSans-6f" d="M 1959 3097 
Q 1497 3097 1228 2736 
Q 959 2375 959 1747 
Q 959 1119 1226 758 
Q 1494 397 1959 397 
Q 2419 397 2687 759 
Q 2956 1122 2956 1747 
Q 2956 2369 2687 2733 
Q 2419 3097 1959 3097 
z
M 1959 3584 
Q 2709 3584 3137 3096 
Q 3566 2609 3566 1747 
Q 3566 888 3137 398 
Q 2709 -91 1959 -91 
Q 1206 -91 779 398 
Q 353 888 353 1747 
Q 353 2609 779 3096 
Q 1206 3584 1959 3584 
z
" transform="scale(0.015625)"/>
       <path id="DejaVuSans-43" d="M 4122 4306 
L 4122 3641 
Q 3803 3938 3442 4084 
Q 3081 4231 2675 4231 
Q 1875 4231 1450 3742 
Q 1025 3253 1025 2328 
Q 1025 1406 1450 917 
Q 1875 428 2675 428 
Q 3081 428 3442 575 
Q 3803 722 4122 1019 
L 4122 359 
Q 3791 134 3420 21 
Q 3050 -91 2638 -91 
Q 1578 -91 968 557 
Q 359 1206 359 2328 
Q 359 3453 968 4101 
Q 1578 4750 2638 4750 
Q 3056 4750 3426 4639 
Q 3797 4528 4122 4306 
z
" transform="scale(0.015625)"/>
      </defs>
      <use xlink:href="#DejaVuSans-53"/>
      <use xlink:href="#DejaVuSans-6f" transform="translate(63.476562 0)"/>
      <use xlink:href="#DejaVuSans-43" transform="translate(124.658203 0)"/>
     </g>
    </g>
   </g>
   <g id="line2d_16">
    <path d="M 80.719508 244.077638 
L 674.109671 244.077638 
L 674.109671 244.077638 
" clip-path="url(#p1074689b47)" style="fill: none; stroke: #1f77b4; stroke-width: 1.8; stroke-linecap: square"/>
   </g>
   <g id="line2d_17">
    <path d="M 80.719508 244.077638 
L 674.109671 244.077638 
L 674.109671 244.077638 
" clip-path="url(#p1074689b47)" style="fill: none; stroke: #ff7f0e; stroke-width: 1.8; stroke-linecap: square"/>
   </g>
   <g id="line2d_18">
    <path d="M 80.719508 244.077638 
L 674.109671 244.077638 
L 674.109671 244.077638 
" clip-path="url(#p1074689b47)" style="fill: none; stroke: #2ca02c; stroke-width: 1.8; stroke-linecap: square"/>
   </g>
   <g id="line2d_19">
    <path d="M 80.719508 244.077638 
L 674.109671 244.077638 
L 674.109671 244.077638 
" clip-path="url(#p1074689b47)" style="fill: none; stroke: #d62728; stroke-width: 1.8; stroke-linecap: square"/>
   </g>
   <g id="line2d_20">
    <path d="M 80.719508 244.077638 
L 86.03345 244.077638 
L 87.804764 280.94062 
L 94.890019 280.94062 
L 96.661333 280.452916 
L 98.432647 244.077638 
L 100.203961 244.077638 
L 103.746589 162.303395 
L 105.517903 157.319938 
L 107.289217 119.583153 
L 110.831845 119.583153 
L 112.603159 123.951628 
L 114.374473 158.780419 
L 117.9171 158.780419 
L 119.688414 197.758862 
L 121.459728 244.077638 
L 128.544984 244.077638 
L 130.316298 268.813352 
L 132.087612 317.432888 
L 137.401554 317.432888 
L 139.172867 311.882894 
L 140.944181 275.522433 
L 142.715495 244.077638 
L 144.486809 214.755939 
L 146.258123 214.755939 
L 148.029437 179.646155 
L 151.572065 179.646155 
L 153.343379 170.994493 
L 155.114693 170.994493 
L 156.886007 178.760529 
L 158.657321 218.839684 
L 162.199948 218.839684 
L 163.971262 244.077638 
L 165.742576 292.825187 
L 171.056518 292.825187 
L 172.827832 303.811496 
L 174.599146 352.849792 
L 179.913088 352.849792 
L 181.684402 325.251599 
L 183.455715 286.411369 
L 185.227029 244.077638 
L 186.998343 222.543838 
L 188.769657 191.288196 
L 194.083599 191.288196 
L 195.854913 163.765845 
L 197.626227 163.765845 
L 199.397541 176.363123 
L 201.168855 176.363123 
L 202.940169 218.948708 
L 204.711482 218.948708 
L 206.482796 244.077638 
L 210.025424 244.077638 
L 211.796738 289.552902 
L 224.195936 289.552902 
L 225.967249 251.643646 
L 227.738563 244.077638 
L 229.509877 221.803889 
L 231.281191 221.803889 
L 233.052505 215.50865 
L 234.823819 173.285965 
L 236.595133 160.153384 
L 241.909075 160.153384 
L 243.680389 203.363245 
L 245.451703 239.757487 
L 247.223017 244.077638 
L 250.765644 244.077638 
L 254.308272 321.494121 
L 256.079586 333.335067 
L 264.936156 333.335067 
L 266.70747 301.999604 
L 268.478784 261.45825 
L 270.250097 244.077638 
L 272.021411 202.738962 
L 273.792725 157.329255 
L 275.564039 123.16055 
L 277.335353 97.690989 
L 286.191923 97.690989 
L 289.734551 188.016271 
L 291.505864 244.077638 
L 296.819806 281.530024 
L 300.362434 281.530024 
L 302.133748 295.549085 
L 305.676376 295.549085 
L 307.44769 292.683976 
L 309.219004 281.847409 
L 310.990318 246.316493 
L 312.761632 244.077638 
L 314.532945 223.315271 
L 316.304259 200.870744 
L 318.075573 200.870744 
L 319.846887 166.068649 
L 321.618201 150.552695 
L 323.389515 150.552695 
L 326.932143 184.304832 
L 328.703457 202.793748 
L 330.474771 202.793748 
L 332.246085 244.077638 
L 344.645282 244.077638 
L 346.416596 267.601172 
L 351.730538 267.601172 
L 353.501852 244.077638 
L 357.044479 244.077638 
L 358.815793 242.15794 
L 360.587107 206.175021 
L 362.358421 206.175021 
L 364.129735 174.40522 
L 372.986305 174.40522 
L 374.757619 219.645765 
L 376.528933 244.077638 
L 383.614188 244.077638 
L 385.385502 273.879355 
L 392.470758 273.879355 
L 396.013386 244.077638 
L 399.556014 244.077638 
L 401.327327 200.82512 
L 403.098641 161.997388 
L 404.869955 147.19789 
L 408.412583 93.645806 
L 413.726525 93.645806 
L 415.497839 143.278053 
L 417.269153 188.016271 
L 419.040467 244.077638 
L 443.838862 244.077638 
L 445.610175 237.854723 
L 449.152803 175.213807 
L 450.924117 141.792396 
L 454.466745 141.792396 
L 456.238059 170.103867 
L 458.009373 215.206207 
L 459.780687 215.206207 
L 461.552001 244.077638 
L 484.579082 244.077638 
L 486.350396 241.392674 
L 488.121709 241.392674 
L 489.893023 215.371499 
L 491.664337 207.694259 
L 500.520907 207.694259 
L 502.292221 244.077638 
L 509.377477 244.077638 
L 511.14879 274.16882 
L 521.776674 274.16882 
L 523.547988 251.810604 
L 525.319302 244.077638 
L 527.090616 244.077638 
L 528.86193 235.87157 
L 532.404557 235.87157 
L 534.175871 208.820547 
L 544.803755 208.820547 
L 546.575069 244.077638 
L 548.346383 270.445171 
L 551.889011 270.445171 
L 553.660324 279.451583 
L 555.431638 279.451583 
L 557.202952 289.61289 
L 558.974266 296.840249 
L 564.288208 296.840249 
L 566.059522 255.736349 
L 567.830836 244.077638 
L 569.60215 198.667931 
L 571.373464 198.667931 
L 573.144778 174.382907 
L 576.687405 92.711948 
L 583.772661 92.711948 
L 585.543975 148.773315 
L 587.315289 200.078376 
L 589.086603 244.077638 
L 590.857917 244.077638 
L 592.629231 259.89489 
L 608.571056 259.89489 
L 610.34237 244.077638 
L 612.113684 234.34696 
L 613.884998 208.368338 
L 615.656312 188.016271 
L 629.826823 188.016271 
L 631.598137 244.077638 
L 647.539962 244.077638 
L 649.311276 223.9891 
L 652.853904 223.9891 
L 654.625218 202.686943 
L 656.396532 162.92273 
L 658.167846 128.173268 
L 659.93916 114.704165 
L 665.253101 114.704165 
L 667.024415 130.248941 
L 668.795729 157.555212 
L 670.567043 157.555212 
L 672.338357 188.016271 
L 674.109671 244.077638 
L 674.109671 244.077638 
" clip-path="url(#p1074689b47)" style="fill: none; stroke: #9467bd; stroke-width: 1.8; stroke-linecap: square"/>
   </g>
   <g id="line2d_21">
    <path d="M 80.719508 244.077638 
L 109.060531 244.077638 
L 110.831845 214.193839 
L 674.109671 214.193839 
L 674.109671 214.193839 
" clip-path="url(#p1074689b47)" style="fill: none; stroke: #8c564b; stroke-width: 1.8; stroke-linecap: square"/>
   </g>
   <g id="line2d_22">
    <path d="M 80.719508 92.711948 
L 674.109671 92.711948 
L 674.109671 92.711948 
" clip-path="url(#p1074689b47)" style="fill: none; stroke: #e377c2; stroke-width: 1.8; stroke-linecap: square"/>
   </g>
   <g id="line2d_23">
    <path d="M 80.719508 92.711948 
L 167.51389 92.711948 
L 169.285204 93.029543 
L 183.455715 93.029543 
L 185.227029 92.711948 
L 190.540971 92.711948 
L 192.312285 96.533995 
L 194.083599 98.357941 
L 195.854913 100.53402 
L 197.626227 94.631703 
L 199.397541 83.449886 
L 201.168855 73.358891 
L 202.940169 60.505343 
L 204.711482 90.684122 
L 206.482796 92.711948 
L 613.884998 92.711948 
L 615.656312 114.059602 
L 619.198939 114.059602 
L 620.970253 111.76124 
L 622.741567 104.340789 
L 624.512881 95.068676 
L 626.284195 86.473275 
L 628.055509 79.555936 
L 629.826823 86.745126 
L 631.598137 92.711948 
L 633.369451 96.512863 
L 636.912079 96.512863 
L 638.683393 92.711948 
L 649.311276 92.711948 
L 651.08259 93.547362 
L 656.396532 93.547362 
L 658.167846 94.439244 
L 659.93916 94.439244 
L 661.710474 84.337152 
L 665.253101 62.025111 
L 667.024415 51.953078 
L 668.795729 51.953078 
L 670.567043 42.012727 
L 672.338357 48.559798 
L 674.109671 92.711948 
L 674.109671 92.711948 
" clip-path="url(#p1074689b47)" style="fill: none; stroke: #7f7f7f; stroke-width: 1.8; stroke-linecap: square"/>
   </g>
   <g id="line2d_24">
    <path d="M 80.719508 92.711948 
L 674.109671 92.711948 
L 674.109671 92.711948 
" clip-path="url(#p1074689b47)" style="fill: none; stroke: #bcbd22; stroke-width: 1.8; stroke-linecap: square"/>
   </g>
   <g id="line2d_25">
    <path d="M 80.719508 310.678542 
L 674.109671 310.678542 
L 674.109671 310.678542 
" clip-path="url(#p1074689b47)" style="fill: none; stroke: #17becf; stroke-width: 1.8; stroke-linecap: square"/>
   </g>
   <g id="line2d_26">
    <path d="M 80.719508 310.678542 
L 674.109671 310.678542 
L 674.109671 310.678542 
" clip-path="url(#p1074689b47)" style="fill: none; stroke: #1f77b4; stroke-width: 1.8; stroke-linecap: square"/>
   </g>
   <g id="line2d_27">
    <path d="M 80.719508 310.678542 
L 674.109671 310.678542 
L 674.109671 310.678542 
" clip-path="url(#p1074689b47)" style="fill: none; stroke: #ff7f0e; stroke-width: 1.8; stroke-linecap: square"/>
   </g>
   <g id="line2d_28">
    <path d="M 80.719508 310.678542 
L 89.576078 310.678542 
L 91.347392 332.440947 
L 94.890019 332.440947 
L 96.661333 323.333878 
L 98.432647 323.333878 
L 100.203961 310.678542 
L 103.746589 310.678542 
L 105.517903 274.434211 
L 107.289217 274.434211 
L 110.831845 236.403768 
L 114.374473 236.403768 
L 116.145787 269.971087 
L 117.9171 310.678542 
L 144.486809 310.678542 
L 146.258123 289.515319 
L 148.029437 289.515319 
L 149.800751 272.43465 
L 151.572065 248.098606 
L 153.343379 245.655335 
L 155.114693 247.195581 
L 158.657321 247.195581 
L 160.428634 266.843337 
L 162.199948 310.678542 
L 188.769657 310.678542 
L 190.540971 273.189684 
L 192.312285 257.447602 
L 194.083599 257.447602 
L 195.854913 249.788015 
L 199.397541 249.788015 
L 201.168855 266.321555 
L 202.940169 266.321555 
L 204.711482 310.678542 
L 208.25411 310.678542 
L 210.025424 327.140177 
L 215.339366 327.140177 
L 217.11068 353.298231 
L 224.195936 353.298231 
L 225.967249 348.822696 
L 227.738563 310.678542 
L 229.509877 310.678542 
L 231.281191 288.286337 
L 233.052505 250.142183 
L 234.823819 250.142183 
L 236.595133 238.87099 
L 238.366447 225.913755 
L 240.137761 225.913755 
L 241.909075 245.146469 
L 245.451703 245.146469 
L 247.223017 263.586994 
L 248.99433 310.678542 
L 261.393528 310.678542 
L 263.164842 320.822303 
L 268.478784 320.822303 
L 270.250097 310.678542 
L 272.021411 310.678542 
L 273.792725 308.187763 
L 275.564039 308.187763 
L 277.335353 299.71499 
L 284.420609 299.71499 
L 286.191923 310.678542 
L 296.819806 310.678542 
L 298.59112 320.117704 
L 302.133748 320.117704 
L 303.905062 328.701999 
L 310.990318 328.701999 
L 312.761632 310.678542 
L 316.304259 310.678542 
L 318.075573 286.82456 
L 319.846887 284.632674 
L 321.618201 284.632674 
L 323.389515 264.656009 
L 328.703457 264.656009 
L 330.474771 283.650172 
L 332.246085 283.650172 
L 334.017399 310.678542 
L 342.873968 310.678542 
L 344.645282 343.147088 
L 349.959224 343.147088 
L 351.730538 327.265454 
L 353.501852 321.851703 
L 355.273166 310.678542 
L 357.044479 291.953061 
L 358.815793 260.766455 
L 360.587107 260.766455 
L 362.358421 225.913755 
L 365.901049 225.913755 
L 367.672363 253.953789 
L 371.214991 253.953789 
L 372.986305 284.298569 
L 374.757619 284.298569 
L 376.528933 310.678542 
L 385.385502 310.678542 
L 387.156816 327.831665 
L 394.242072 327.831665 
L 396.013386 326.602597 
L 397.7847 310.678542 
L 399.556014 272.534388 
L 404.869955 272.534388 
L 406.641269 268.541954 
L 411.955211 268.541954 
L 413.726525 310.678542 
L 420.811781 310.678542 
L 422.583094 335.663866 
L 436.753606 335.663866 
L 438.52492 319.248804 
L 440.296234 310.678542 
L 442.067548 279.038611 
L 443.838862 245.329002 
L 445.610175 238.76382 
L 452.695431 238.76382 
L 454.466745 264.04469 
L 458.009373 264.04469 
L 459.780687 310.678542 
L 470.40857 310.678542 
L 472.179884 333.920092 
L 479.26514 333.920092 
L 481.036454 330.689777 
L 484.579082 290.051837 
L 486.350396 267.026152 
L 488.121709 263.586994 
L 502.292221 263.586994 
L 504.063535 310.678542 
L 512.920104 310.678542 
L 514.691418 329.10416 
L 523.547988 329.10416 
L 525.319302 310.678542 
L 527.090616 281.748545 
L 528.86193 273.346597 
L 530.633244 240.276021 
L 532.404557 227.453974 
L 534.175871 227.453974 
L 535.947185 241.862871 
L 543.032441 241.862871 
L 544.803755 263.586994 
L 546.575069 310.678542 
L 548.346383 310.678542 
L 550.117697 324.640918 
L 551.889011 333.609617 
L 566.059522 333.609617 
L 567.830836 310.678542 
L 569.60215 305.305017 
L 571.373464 279.579924 
L 573.144778 273.568496 
L 576.687405 273.568496 
L 578.458719 263.586994 
L 582.001347 263.586994 
L 583.772661 310.678542 
L 589.086603 310.678542 
L 590.857917 342.229644 
L 592.629231 342.229644 
L 594.400545 349.036386 
L 597.943172 349.036386 
L 599.714486 369.880708 
L 606.799742 369.880708 
L 608.571056 331.736554 
L 610.34237 310.678542 
L 612.113684 272.534388 
L 615.656312 272.534388 
L 617.427626 248.376175 
L 626.284195 248.376175 
L 628.055509 263.586994 
L 629.826823 310.678542 
L 638.683393 310.678542 
L 640.454707 351.687623 
L 649.311276 351.687623 
L 652.853904 279.068777 
L 659.93916 279.068777 
L 661.710474 249.494662 
L 668.795729 249.494662 
L 670.567043 283.092798 
L 672.338357 303.356095 
L 674.109671 310.678542 
L 674.109671 310.678542 
" clip-path="url(#p1074689b47)" style="fill: none; stroke: #2ca02c; stroke-width: 1.8; stroke-linecap: square"/>
   </g>
   <g id="line2d_29">
    <path d="M 80.719508 310.678542 
L 103.746589 310.678542 
L 107.289217 373.467273 
L 110.831845 373.467273 
L 112.603159 361.537414 
L 116.145787 310.678542 
L 125.002356 310.678542 
L 126.77367 311.337834 
L 128.544984 311.730326 
L 132.087612 312.799599 
L 133.858926 313.203733 
L 135.63024 313.203733 
L 137.401554 311.676307 
L 139.172867 310.678542 
L 142.715495 310.678542 
L 144.486809 311.750319 
L 146.258123 312.561894 
L 148.029437 312.115192 
L 153.343379 312.115192 
L 155.114693 309.854189 
L 156.886007 309.854189 
L 158.657321 310.252461 
L 160.428634 310.252461 
L 162.199948 310.566013 
L 163.971262 310.678542 
L 270.250097 310.678542 
L 272.021411 316.774439 
L 273.792725 328.713844 
L 275.564039 337.088056 
L 277.335353 343.1822 
L 279.106667 347.035238 
L 280.877981 344.066896 
L 282.649295 335.579757 
L 284.420609 330.681259 
L 287.963237 330.681259 
L 289.734551 312.38281 
L 291.505864 310.678542 
L 337.560026 310.678542 
L 339.33134 310.297512 
L 341.102654 306.323526 
L 342.873968 304.326473 
L 344.645282 302.868445 
L 346.416596 303.081479 
L 348.18791 303.725327 
L 351.730538 303.749315 
L 355.273166 310.678542 
L 357.044479 317.70053 
L 360.587107 335.653207 
L 362.358421 338.090363 
L 364.129735 339.61702 
L 365.901049 335.633416 
L 367.672363 326.538955 
L 369.443677 326.538955 
L 371.214991 314.051906 
L 372.986305 306.381008 
L 374.757619 306.381008 
L 376.528933 310.678542 
L 378.300247 316.295742 
L 380.07156 321.255739 
L 381.842874 324.875008 
L 383.614188 326.636557 
L 387.156816 327.842954 
L 388.92813 329.787334 
L 390.699444 329.787334 
L 392.470758 329.062856 
L 394.242072 328.070695 
L 396.013386 320.420743 
L 397.7847 310.678542 
L 408.412583 310.678542 
L 410.183897 304.580737 
L 411.955211 304.580737 
L 413.726525 301.681349 
L 415.497839 301.681349 
L 417.269153 304.91471 
L 419.040467 310.678542 
L 420.811781 319.227009 
L 422.583094 325.024353 
L 424.354408 333.045671 
L 426.125722 335.858087 
L 427.897036 335.720931 
L 436.753606 335.720931 
L 438.52492 310.678542 
L 461.552001 310.678542 
L 463.323315 307.610615 
L 465.094629 307.610615 
L 466.865942 309.392664 
L 468.637256 309.955756 
L 472.179884 312.105141 
L 473.951198 313.696535 
L 475.722512 313.696535 
L 479.26514 311.044857 
L 481.036454 310.678542 
L 482.807768 310.678542 
L 484.579082 313.279909 
L 486.350396 315.3864 
L 488.121709 316.466623 
L 491.664337 311.921678 
L 493.435651 309.519656 
L 495.206965 308.356629 
L 498.749593 308.356629 
L 500.520907 309.370311 
L 502.292221 309.954883 
L 504.063535 310.678542 
L 511.14879 310.678542 
L 512.920104 310.94459 
L 514.691418 311.821074 
L 516.462732 313.221154 
L 518.234046 313.221154 
L 520.00536 312.049045 
L 521.776674 311.089924 
L 523.547988 310.678542 
L 525.319302 310.678542 
L 527.090616 312.629447 
L 530.633244 323.123456 
L 539.489813 323.123456 
L 541.261127 310.678542 
L 674.109671 310.678542 
L 674.109671 310.678542 
" clip-path="url(#p1074689b47)" style="fill: none; stroke: #d62728; stroke-width: 1.8; stroke-linecap: square"/>
   </g>
   <g id="line2d_30">
    <path d="M 80.719508 310.678542 
L 142.715495 310.678542 
L 144.486809 301.731148 
L 146.258123 282.659071 
L 148.029437 282.659071 
L 149.800751 263.586994 
L 158.657321 263.586994 
L 160.428634 287.132768 
L 162.199948 287.132768 
L 163.971262 310.678542 
L 185.227029 310.678542 
L 186.998343 291.606465 
L 188.769657 282.512759 
L 190.540971 282.512759 
L 192.312285 263.440682 
L 194.083599 247.267756 
L 195.854913 247.267756 
L 197.626227 263.586994 
L 199.397541 263.586994 
L 201.168855 287.132768 
L 204.711482 287.132768 
L 206.482796 310.678542 
L 227.738563 310.678542 
L 231.281191 272.534388 
L 234.823819 272.534388 
L 236.595133 259.113297 
L 238.366447 240.04122 
L 240.137761 240.04122 
L 241.909075 263.586994 
L 245.451703 263.586994 
L 248.99433 310.678542 
L 254.308272 310.678542 
L 256.079586 334.224316 
L 257.8509 338.331062 
L 264.936156 338.331062 
L 266.70747 329.750619 
L 268.478784 329.750619 
L 270.250097 310.678542 
L 272.021411 299.532482 
L 277.335353 299.532482 
L 279.106667 287.132768 
L 287.963237 287.132768 
L 289.734551 310.678542 
L 296.819806 310.678542 
L 298.59112 314.387115 
L 300.362434 329.750619 
L 310.990318 329.750619 
L 316.304259 272.534388 
L 318.075573 259.113297 
L 319.846887 259.113297 
L 321.618201 240.04122 
L 325.160829 240.04122 
L 326.932143 263.586994 
L 328.703457 263.586994 
L 330.474771 287.132768 
L 332.246085 287.132768 
L 334.017399 310.678542 
L 342.873968 310.678542 
L 344.645282 334.224316 
L 351.730538 334.224316 
L 353.501852 329.750619 
L 357.044479 291.606465 
L 358.815793 287.132768 
L 369.443677 287.132768 
L 371.214991 310.678542 
L 383.614188 310.678542 
L 385.385502 334.224316 
L 394.242072 334.224316 
L 396.013386 315.152239 
L 397.7847 310.678542 
L 399.556014 308.969082 
L 403.098641 308.969082 
L 404.869955 289.897005 
L 406.641269 287.132768 
L 417.269153 287.132768 
L 419.040467 310.678542 
L 420.811781 310.678542 
L 422.583094 334.224316 
L 424.354408 350.44274 
L 434.982292 350.44274 
L 436.753606 345.781182 
L 438.52492 326.709105 
L 440.296234 310.678542 
L 442.067548 306.204845 
L 443.838862 306.204845 
L 445.610175 287.132768 
L 459.780687 287.132768 
L 461.552001 310.678542 
L 468.637256 310.678542 
L 470.40857 322.636944 
L 472.179884 322.636944 
L 473.951198 331.108317 
L 479.26514 331.108317 
L 481.036454 312.03624 
L 482.807768 310.678542 
L 484.579082 306.204845 
L 486.350396 306.204845 
L 488.121709 287.132768 
L 502.292221 287.132768 
L 504.063535 310.678542 
L 527.090616 310.678542 
L 528.86193 298.849826 
L 530.633244 298.849826 
L 532.404557 279.777749 
L 535.947185 279.777749 
L 537.718499 287.132768 
L 543.032441 287.132768 
L 544.803755 310.678542 
L 553.660324 310.678542 
L 555.431638 320.449928 
L 566.059522 320.449928 
L 567.830836 310.678542 
L 569.60215 310.678542 
L 571.373464 291.606465 
L 573.144778 282.659071 
L 576.687405 282.659071 
L 578.458719 263.586994 
L 585.543975 263.586994 
L 589.086603 310.678542 
L 594.400545 310.678542 
L 597.943172 322.714296 
L 599.714486 322.714296 
L 601.4858 327.888091 
L 606.799742 327.888091 
L 608.571056 321.379722 
L 610.34237 310.678542 
L 612.113684 309.618905 
L 615.656312 271.474751 
L 617.427626 258.695305 
L 624.512881 258.695305 
L 626.284195 263.586994 
L 628.055509 287.132768 
L 629.826823 287.132768 
L 631.598137 310.678542 
L 652.853904 310.678542 
L 654.625218 291.606465 
L 658.167846 291.606465 
L 659.93916 272.534388 
L 668.795729 272.534388 
L 670.567043 287.132768 
L 672.338357 287.132768 
L 674.109671 310.678542 
L 674.109671 310.678542 
" clip-path="url(#p1074689b47)" style="fill: none; stroke: #9467bd; stroke-width: 1.8; stroke-linecap: square"/>
   </g>
   <g id="line2d_31">
    <path d="M 80.719508 310.678542 
L 674.109671 310.678542 
L 674.109671 310.678542 
" clip-path="url(#p1074689b47)" style="fill: none; stroke: #8c564b; stroke-width: 1.8; stroke-linecap: square"/>
   </g>
   <g id="line2d_32">
    <path d="M 80.719508 310.678542 
L 674.109671 310.678542 
L 674.109671 310.678542 
" clip-path="url(#p1074689b47)" style="fill: none; stroke: #e377c2; stroke-width: 1.8; stroke-linecap: square"/>
   </g>
   <g id="line2d_33">
    <path d="M 80.719508 310.678542 
L 674.109671 310.678542 
L 674.109671 310.678542 
" clip-path="url(#p1074689b47)" style="fill: none; stroke: #7f7f7f; stroke-width: 1.8; stroke-linecap: square"/>
   </g>
   <g id="patch_3">
    <path d="M 51.05 390.04 
L 51.05 25.44 
" style="fill: none; stroke: #000000; stroke-width: 0.8; stroke-linejoin: miter; stroke-linecap: square"/>
   </g>
   <g id="patch_4">
    <path d="M 703.779179 390.04 
L 703.779179 25.44 
" style="fill: none; stroke: #000000; stroke-width: 0.8; stroke-linejoin: miter; stroke-linecap: square"/>
   </g>
   <g id="patch_5">
    <path d="M 51.05 390.04 
L 703.779179 390.04 
" style="fill: none; stroke: #000000; stroke-width: 0.8; stroke-linejoin: miter; stroke-linecap: square"/>
   </g>
   <g id="patch_6">
    <path d="M 51.05 25.44 
L 703.779179 25.44 
" style="fill: none; stroke: #000000; stroke-width: 0.8; stroke-linejoin: miter; stroke-linecap: square"/>
   </g>
   <g id="text_18">
    <!-- SoC by battery (T=336, F=12, L=8) -->
    <g transform="translate(270.00709 19.44) scale(0.12 -0.12)">
     <defs>
      <path id="DejaVuSans-62" d="M 3116 1747 
Q 3116 2381 2855 2742 
Q 2594 3103 2138 3103 
Q 1681 3103 1420 2742 
Q 1159 2381 1159 1747 
Q 1159 1113 1420 752 
Q 1681 391 2138 391 
Q 2594 391 2855 752 
Q 3116 1113 3116 1747 
z
M 1159 2969 
Q 1341 3281 1617 3432 
Q 1894 3584 2278 3584 
Q 2916 3584 3314 3078 
Q 3713 2572 3713 1747 
Q 3713 922 3314 415 
Q 2916 -91 2278 -91 
Q 1894 -91 1617 61 
Q 1341 213 1159 525 
L 1159 0 
L 581 0 
L 581 4863 
L 1159 4863 
L 1159 2969 
z
" transform="scale(0.015625)"/>
      <path id="DejaVuSans-79" d="M 2059 -325 
Q 1816 -950 1584 -1140 
Q 1353 -1331 966 -1331 
L 506 -1331 
L 506 -850 
L 844 -850 
Q 1081 -850 1212 -737 
Q 1344 -625 1503 -206 
L 1606 56 
L 191 3500 
L 800 3500 
L 1894 763 
L 2988 3500 
L 3597 3500 
L 2059 -325 
z
" transform="scale(0.015625)"/>
      <path id="DejaVuSans-61" d="M 2194 1759 
Q 1497 1759 1228 1600 
Q 959 1441 959 1056 
Q 959 750 1161 570 
Q 1363 391 1709 391 
Q 2188 391 2477 730 
Q 2766 1069 2766 1631 
L 2766 1759 
L 2194 1759 
z
M 3341 1997 
L 3341 0 
L 2766 0 
L 2766 531 
Q 2569 213 2275 61 
Q 1981 -91 1556 -91 
Q 1019 -91 701 211 
Q 384 513 384 1019 
Q 384 1609 779 1909 
Q 1175 2209 1959 2209 
L 2766 2209 
L 2766 2266 
Q 2766 2663 2505 2880 
Q 2244 3097 1772 3097 
Q 1472 3097 1187 3025 
Q 903 2953 641 2809 
L 641 3341 
Q 956 3463 1253 3523 
Q 1550 3584 1831 3584 
Q 2591 3584 2966 3190 
Q 3341 2797 3341 1997 
z
" transform="scale(0.015625)"/>
      <path id="DejaVuSans-72" d="M 2631 2963 
Q 2534 3019 2420 3045 
Q 2306 3072 2169 3072 
Q 1681 3072 1420 2755 
Q 1159 2438 1159 1844 
L 1159 0 
L 581 0 
L 581 3500 
L 1159 3500 
L 1159 2956 
Q 1341 3275 1631 3429 
Q 1922 3584 2338 3584 
Q 2397 3584 2469 3576 
Q 2541 3569 2628 3553 
L 2631 2963 
z
" transform="scale(0.015625)"/>
      <path id="DejaVuSans-3d" d="M 678 2906 
L 4684 2906 
L 4684 2381 
L 678 2381 
L 678 2906 
z
M 678 1631 
L 4684 1631 
L 4684 1100 
L 678 1100 
L 678 1631 
z
" transform="scale(0.015625)"/>
      <path id="DejaVuSans-36" d="M 2113 2584 
Q 1688 2584 1439 2293 
Q 1191 2003 1191 1497 
Q 1191 994 1439 701 
Q 1688 409 2113 409 
Q 2538 409 2786 701 
Q 3034 994 3034 1497 
Q 3034 2003 2786 2293 
Q 2538 2584 2113 2584 
z
M 3366 4563 
L 3366 3988 
Q 3128 4100 2886 4159 
Q 2644 4219 2406 4219 
Q 1781 4219 1451 3797 
Q 1122 3375 1075 2522 
Q 1259 2794 1537 2939 
Q 1816 3084 2150 3084 
Q 2853 3084 3261 2657 
Q 3669 2231 3669 1497 
Q 3669 778 3244 343 
Q 2819 -91 2113 -91 
Q 1303 -91 875 529 
Q 447 1150 447 2328 
Q 447 3434 972 4092 
Q 1497 4750 2381 4750 
Q 2619 4750 2861 4703 
Q 3103 4656 3366 4563 
z
" transform="scale(0.015625)"/>
      <path id="DejaVuSans-2c" d="M 750 794 
L 1409 794 
L 1409 256 
L 897 -744 
L 494 -744 
L 750 256 
L 750 794 
z
" transform="scale(0.015625)"/>
      <path id="DejaVuSans-46" d="M 628 4666 
L 3309 4666 
L 3309 4134 
L 1259 4134 
L 1259 2759 
L 3109 2759 
L 3109 2228 
L 1259 2228 
L 1259 0 
L 628 0 
L 628 4666 
z
" transform="scale(0.015625)"/>
      <path id="DejaVuSans-4c" d="M 628 4666 
L 1259 4666 
L 1259 531 
L 3531 531 
L 3531 0 
L 628 0 
L 628 4666 
z
" transform="scale(0.015625)"/>
      <path id="DejaVuSans-38" d="M 2034 2216 
Q 1584 2216 1326 1975 
Q 1069 1734 1069 1313 
Q 1069 891 1326 650 
Q 1584 409 2034 409 
Q 2484 409 2743 651 
Q 3003 894 3003 1313 
Q 3003 1734 2745 1975 
Q 2488 2216 2034 2216 
z
M 1403 2484 
Q 997 2584 770 2862 
Q 544 3141 544 3541 
Q 544 4100 942 4425 
Q 1341 4750 2034 4750 
Q 2731 4750 3128 4425 
Q 3525 4100 3525 3541 
Q 3525 3141 3298 2862 
Q 3072 2584 2669 2484 
Q 3125 2378 3379 2068 
Q 3634 1759 3634 1313 
Q 3634 634 3220 271 
Q 2806 -91 2034 -91 
Q 1263 -91 848 271 
Q 434 634 434 1313 
Q 434 1759 690 2068 
Q 947 2378 1403 2484 
z
M 1172 3481 
Q 1172 3119 1398 2916 
Q 1625 2713 2034 2713 
Q 2441 2713 2670 2916 
Q 2900 3119 2900 3481 
Q 2900 3844 2670 4047 
Q 2441 4250 2034 4250 
Q 1625 4250 1398 4047 
Q 1172 3844 1172 3481 
z
" transform="scale(0.015625)"/>
     </defs>
     <use xlink:href="#DejaVuSans-53"/>
     <use xlink:href="#DejaVuSans-6f" transform="translate(63.476562 0)"/>
     <use xlink:href="#DejaVuSans-43" transform="translate(124.658203 0)"/>
     <use xlink:href="#DejaVuSans-20" transform="translate(194.482422 0)"/>
     <use xlink:href="#DejaVuSans-62" transform="translate(226.269531 0)"/>
     <use xlink:href="#DejaVuSans-79" transform="translate(289.746094 0)"/>
     <use xlink:href="#DejaVuSans-20" transform="translate(348.925781 0)"/>
     <use xlink:href="#DejaVuSans-62" transform="translate(380.712891 0)"/>
     <use xlink:href="#DejaVuSans-61" transform="translate(444.189453 0)"/>
     <use xlink:href="#DejaVuSans-74" transform="translate(505.46875 0)"/>
     <use xlink:href="#DejaVuSans-74" transform="translate(544.677734 0)"/>
     <use xlink:href="#DejaVuSans-65" transform="translate(583.886719 0)"/>
     <use xlink:href="#DejaVuSans-72" transform="translate(645.410156 0)"/>
     <use xlink:href="#DejaVuSans-79" transform="translate(686.523438 0)"/>
     <use xlink:href="#DejaVuSans-20" transform="translate(745.703125 0)"/>
     <use xlink:href="#DejaVuSans-28" transform="translate(777.490234 0)"/>
     <use xlink:href="#DejaVuSans-54" transform="translate(816.503906 0)"/>
     <use xlink:href="#DejaVuSans-3d" transform="translate(877.587891 0)"/>
     <use xlink:href="#DejaVuSans-33" transform="translate(961.376953 0)"/>
     <use xlink:href="#DejaVuSans-33" transform="translate(1025 0)"/>
     <use xlink:href="#DejaVuSans-36" transform="translate(1088.623047 0)"/>
     <use xlink:href="#DejaVuSans-2c" transform="translate(1152.246094 0)"/>
     <use xlink:href="#DejaVuSans-20" transform="translate(1184.033203 0)"/>
     <use xlink:href="#DejaVuSans-46" transform="translate(1215.820312 0)"/>
     <use xlink:href="#DejaVuSans-3d" transform="translate(1273.339844 0)"/>
     <use xlink:href="#DejaVuSans-31" transform="translate(1357.128906 0)"/>
     <use xlink:href="#DejaVuSans-32" transform="translate(1420.751953 0)"/>
     <use xlink:href="#DejaVuSans-2c" transform="translate(1484.375 0)"/>
     <use xlink:href="#DejaVuSans-20" transform="translate(1516.162109 0)"/>
     <use xlink:href="#DejaVuSans-4c" transform="translate(1547.949219 0)"/>
     <use xlink:href="#DejaVuSans-3d" transform="translate(1603.662109 0)"/>
     <use xlink:href="#DejaVuSans-38" transform="translate(1687.451172 0)"/>
     <use xlink:href="#DejaVuSans-29" transform="translate(1751.074219 0)"/>
    </g>
   </g>
  </g>
 </g>
 <defs>
  <clipPath id="p1074689b47">
   <rect x="51.05" y="25.44" width="652.729179" height="364.6"/>
  </clipPath>
 </defs>
</svg>
