<?xml version="1.0" encoding="utf-8" standalone="no"?>
<!DOCTYPE svg PUBLIC "-//W3C//DTD SVG 1.1//EN"
  "http://www.w3.org/Graphics/SVG/1.1/DTD/svg11.dtd">
<svg xmlns:xlink="http://www.w3.org/1999/xlink" width="252.82pt" height="173.332pt" viewBox="0 0 252.82 173.332" xmlns="http://www.w3.org/2000/svg" version="1.1">
 <metadata>
  <rdf:RDF xmlns:dc="http://purl.org/dc/elements/1.1/" xmlns:cc="http://creativecommons.org/ns#" xmlns:rdf="http://www.w3.org/1999/02/22-rdf-syntax-ns#">
   <cc:Work>
    <dc:type rdf:resource="http://purl.org/dc/dcmitype/StillImage"/>
    <dc:date>2026-02-05T18:38:17.067060</dc:date>
    <dc:format>image/svg+xml</dc:format>
    <dc:creator>
     <cc:Agent>
      <dc:title>Matplotlib v3.7.2, https://matplotlib.org/</dc:title>
     </cc:Agent>
    </dc:creator>
   </cc:Work>
  </rdf:RDF>
 </metadata>
 <defs>
  <style type="text/css">*{stroke-linejoin: round; stroke-linecap: butt}</style>
 </defs>
 <g id="figure_1">
  <g id="patch_1">
   <path d="M 0 173.332 
L 252.82 173.332 
L 252.82 0 
L 0 0 
z
" style="fill: #ffffff"/>
  </g>
  <g id="axes_1">
   <g id="patch_2">
    <path d="M 42.48 42.869189 
L 203.76 42.869189 
L 203.76 7.2 
L 42.48 7.2 
z
" style="fill: #ffffff"/>
   </g>
   <g id="matplotlib.axis_1">
    <g id="xtick_1">
     <g id="line2d_1">
      <defs>
       <path id="m72be5e046b" d="M 0 0 
L 0 3.5 
" style="stroke: #000000; stroke-width: 0.8"/>
      </defs>
      <g>
       <use xlink:href="#m72be5e046b" x="47.745864" y="42.869189" style="stroke: #000000; stroke-width: 0.8"/>
      </g>
     </g>
    </g>
    <g id="xtick_2">
     <g id="line2d_2">
      <g>
       <use xlink:href="#m72be5e046b" x="89.046761" y="42.869189" style="stroke: #000000; stroke-width: 0.8"/>
      </g>
     </g>
    </g>
    <g id="xtick_3">
     <g id="line2d_3">
      <g>
       <use xlink:href="#m72be5e046b" x="130.347657" y="42.869189" style="stroke: #000000; stroke-width: 0.8"/>
      </g>
     </g>
    </g>
    <g id="xtick_4">
     <g id="line2d_4">
      <g>
       <use xlink:href="#m72be5e046b" x="171.648553" y="42.869189" style="stroke: #000000; stroke-width: 0.8"/>
      </g>
     </g>
    </g>
   </g>
   <g id="matplotlib.axis_2">
    <g id="ytick_1">
     <g id="line2d_5">
      <defs>
       <path id="m542eb83943" d="M 0 0 
L -3.5 0 
" style="stroke: #000000; stroke-width: 0.8"/>
      </defs>
      <g>
       <use xlink:href="#m542eb83943" x="42.48" y="41.247862" style="stroke: #000000; stroke-width: 0.8"/>
      </g>
     </g>
     <g id="text_1">
      <!-- 0 -->
      <g transform="translate(31.02625 43.907316) scale(0.07 -0.07)">
       <defs>
        <path id="DejaVuSans-30" d="M 2034 4250 
Q 1547 4250 1301 3770 
Q 1056 3291 1056 2328 
Q 1056 1369 1301 889 
Q 1547 409 2034 409 
Q 2525 409 2770 889 
Q 3016 1369 3016 2328 
Q 3016 3291 2770 3770 
Q 2525 4250 2034 4250 
z
M 2034 4750 
Q 2819 4750 3233 4129 
Q 3647 3509 3647 2328 
Q 3647 1150 3233 529 
Q 2819 -91 2034 -91 
Q 1250 -91 836 529 
Q 422 1150 422 2328 
Q 422 3509 836 4129 
Q 1250 4750 2034 4750 
z
" transform="scale(0.015625)"/>
       </defs>
       <use xlink:href="#DejaVuSans-30"/>
      </g>
     </g>
    </g>
    <g id="ytick_2">
     <g id="line2d_6">
      <g>
       <use xlink:href="#m542eb83943" x="42.48" y="19.579307" style="stroke: #000000; stroke-width: 0.8"/>
      </g>
     </g>
     <g id="text_2">
      <!-- 200 -->
      <g transform="translate(22.11875 22.23876) scale(0.07 -0.07)">
       <defs>
        <path id="DejaVuSans-32" d="M 1228 531 
L 3431 531 
L 3431 0 
L 469 0 
L 469 531 
Q 828 903 1448 1529 
Q 2069 2156 2228 2338 
Q 2531 2678 2651 2914 
Q 2772 3150 2772 3378 
Q 2772 3750 2511 3984 
Q 2250 4219 1831 4219 
Q 1534 4219 1204 4116 
Q 875 4013 500 3803 
L 500 4441 
Q 881 4594 1212 4672 
Q 1544 4750 1819 4750 
Q 2544 4750 2975 4387 
Q 3406 4025 3406 3419 
Q 3406 3131 3298 2873 
Q 3191 2616 2906 2266 
Q 2828 2175 2409 1742 
Q 1991 1309 1228 531 
z
" transform="scale(0.015625)"/>
       </defs>
       <use xlink:href="#DejaVuSans-32"/>
       <use xlink:href="#DejaVuSans-30" x="63.623047"/>
       <use xlink:href="#DejaVuSans-30" x="127.246094"/>
      </g>
     </g>
    </g>
   </g>
   <g id="line2d_7">
    <path d="M 49.810909 25.034595 
L 51.875954 25.257844 
L 53.940999 25.257844 
L 56.006044 25.750368 
L 58.071088 26.34819 
L 60.136133 26.34819 
L 62.201178 26.34819 
L 64.266223 26.34819 
L 66.331268 26.34819 
L 68.396312 26.34819 
L 70.461357 22.193021 
L 72.526402 20.30435 
L 74.591447 20.30435 
L 76.656492 15.535342 
L 78.721536 10.843529 
L 80.786581 10.123235 
L 82.851626 10.123235 
L 84.916671 8.821327 
L 86.981716 8.821327 
L 89.046761 8.821327 
L 91.111805 8.821327 
L 93.17685 8.821327 
L 95.241895 14.826241 
L 97.30694 14.826241 
L 99.371985 15.517425 
L 101.437029 15.517425 
L 103.502074 19.003519 
L 105.567119 21.544128 
L 107.632164 26.329544 
L 109.697209 26.329544 
L 111.762254 26.329544 
L 113.827298 26.587946 
L 115.892343 28.630694 
L 117.957388 28.630694 
L 120.022433 28.630694 
L 122.087478 25.275299 
L 124.152522 25.275299 
L 126.217567 21.033949 
L 128.282612 16.862887 
L 130.347657 13.15848 
L 132.412702 12.064187 
L 134.477746 8.997839 
L 136.542791 8.997839 
L 138.607836 8.997839 
L 140.672881 8.997839 
L 142.737926 8.997839 
L 144.802971 15.002753 
L 146.868015 20.805428 
L 148.93306 21.803141 
L 150.998105 23.960455 
L 153.06315 23.960455 
L 155.128195 28.085239 
L 157.193239 34.090153 
L 159.258284 40.095067 
L 161.323329 40.095067 
L 163.388374 40.103214 
L 165.453419 40.103214 
L 167.518464 41.247862 
L 169.583508 40.62933 
L 171.648553 40.62933 
L 173.713598 36.854427 
L 175.778643 36.854427 
L 177.843688 32.435334 
L 179.908732 28.318046 
L 181.973777 25.034595 
L 184.038822 25.034595 
L 186.103867 25.034595 
L 188.168912 25.034595 
L 190.233956 25.034595 
L 192.299001 25.034595 
L 194.364046 25.034595 
L 196.429091 25.034595 
" clip-path="url(#pde8ff0b783)" style="fill: none; stroke: #1f77b4; stroke-width: 1.1; stroke-linecap: square"/>
   </g>
   <g id="line2d_8">
    <path d="M 49.810909 25.034595 
L 51.875954 25.034595 
L 53.940999 25.034595 
L 56.006044 25.034595 
L 58.071088 25.034595 
L 60.136133 25.034595 
L 62.201178 25.034595 
L 64.266223 31.039509 
L 66.331268 37.044423 
L 68.396312 37.044423 
L 70.461357 33.021103 
L 72.526402 29.239109 
L 74.591447 26.257648 
L 76.656492 21.485693 
L 78.721536 21.485693 
L 80.786581 17.121464 
L 82.851626 15.550162 
L 84.916671 14.248254 
L 86.981716 14.248254 
L 89.046761 14.248254 
L 91.111805 14.248254 
L 93.17685 14.248254 
L 95.241895 19.029681 
L 97.30694 25.034595 
L 99.371985 25.034595 
L 101.437029 25.034595 
L 103.502074 30.130397 
L 105.567119 30.130397 
L 107.632164 30.130397 
L 109.697209 30.130397 
L 111.762254 30.130397 
L 113.827298 30.130397 
L 115.892343 30.130397 
L 117.957388 30.130397 
L 120.022433 30.130397 
L 122.087478 30.130397 
L 124.152522 28.075635 
L 126.217567 28.075635 
L 128.282612 24.316414 
L 130.347657 20.444878 
L 132.412702 19.955106 
L 134.477746 19.955106 
L 136.542791 19.955106 
L 138.607836 19.955106 
L 140.672881 19.955106 
L 142.737926 19.955106 
L 144.802971 19.955106 
L 146.868015 19.955106 
L 148.93306 19.955106 
L 150.998105 19.955106 
L 153.06315 19.955106 
L 155.128195 19.955106 
L 157.193239 19.955106 
L 159.258284 19.955106 
L 161.323329 19.955106 
L 163.388374 25.96002 
L 165.453419 28.661024 
L 167.518464 33.502444 
L 169.583508 33.502444 
L 171.648553 31.04475 
L 173.713598 27.269847 
L 175.778643 27.269847 
L 177.843688 22.850754 
L 179.908732 18.733466 
L 181.973777 18.733466 
L 184.038822 18.733466 
L 186.103867 18.733466 
L 188.168912 18.733466 
L 190.233956 18.733466 
L 192.299001 18.733466 
L 194.364046 19.029681 
L 196.429091 25.034595 
" clip-path="url(#pde8ff0b783)" style="fill: none; stroke-dasharray: 4.07,1.76; stroke-dashoffset: 0; stroke: #1f77b4; stroke-width: 1.1"/>
   </g>
   <g id="patch_3">
    <path d="M 42.48 42.869189 
L 42.48 7.2 
" style="fill: none; stroke: #000000; stroke-width: 0.8; stroke-linejoin: miter; stroke-linecap: square"/>
   </g>
   <g id="patch_4">
    <path d="M 203.76 42.869189 
L 203.76 7.2 
" style="fill: none; stroke: #000000; stroke-width: 0.8; stroke-linejoin: miter; stroke-linecap: square"/>
   </g>
   <g id="patch_5">
    <path d="M 42.48 42.869189 
L 203.76 42.869189 
" style="fill: none; stroke: #000000; stroke-width: 0.8; stroke-linejoin: miter; stroke-linecap: square"/>
   </g>
   <g id="patch_6">
    <path d="M 42.48 7.2 
L 203.76 7.2 
" style="fill: none; stroke: #000000; stroke-width: 0.8; stroke-linejoin: miter; stroke-linecap: square"/>
   </g>
   <g id="text_3">
    <!-- ESS-1 -->
    <g transform="translate(206.9856 27.242095) scale(0.08 -0.08)">
     <defs>
      <path id="DejaVuSans-45" d="M 628 4666 
L 3578 4666 
L 3578 4134 
L 1259 4134 
L 1259 2753 
L 3481 2753 
L 3481 2222 
L 1259 2222 
L 1259 531 
L 3634 531 
L 3634 0 
L 628 0 
L 628 4666 
z
" transform="scale(0.015625)"/>
      <path id="DejaVuSans-53" d="M 3425 4513 
L 3425 3897 
Q 3066 4069 2747 4153 
Q 2428 4238 2131 4238 
Q 1616 4238 1336 4038 
Q 1056 3838 1056 3469 
Q 1056 3159 1242 3001 
Q 1428 2844 1947 2747 
L 2328 2669 
Q 3034 2534 3370 2195 
Q 3706 1856 3706 1288 
Q 3706 609 3251 259 
Q 2797 -91 1919 -91 
Q 1588 -91 1214 -16 
Q 841 59 441 206 
L 441 856 
Q 825 641 1194 531 
Q 1563 422 1919 422 
Q 2459 422 2753 634 
Q 3047 847 3047 1241 
Q 3047 1584 2836 1778 
Q 2625 1972 2144 2069 
L 1759 2144 
Q 1053 2284 737 2584 
Q 422 2884 422 3419 
Q 422 4038 858 4394 
Q 1294 4750 2059 4750 
Q 2388 4750 2728 4690 
Q 3069 4631 3425 4513 
z
" transform="scale(0.015625)"/>
      <path id="DejaVuSans-2d" d="M 313 2009 
L 1997 2009 
L 1997 1497 
L 313 1497 
L 313 2009 
z
" transform="scale(0.015625)"/>
      <path id="DejaVuSans-31" d="M 794 531 
L 1825 531 
L 1825 4091 
L 703 3866 
L 703 4441 
L 1819 4666 
L 2450 4666 
L 2450 531 
L 3481 531 
L 3481 0 
L 794 0 
L 794 531 
z
" transform="scale(0.015625)"/>
     </defs>
     <use xlink:href="#DejaVuSans-45"/>
     <use xlink:href="#DejaVuSans-53" x="63.183594"/>
     <use xlink:href="#DejaVuSans-53" x="126.660156"/>
     <use xlink:href="#DejaVuSans-2d" x="190.136719"/>
     <use xlink:href="#DejaVuSans-31" x="226.220703"/>
    </g>
   </g>
  </g>
  <g id="axes_2">
   <g id="patch_7">
    <path d="M 42.48 91.022595 
L 203.76 91.022595 
L 203.76 55.353405 
L 42.48 55.353405 
z
" style="fill: #ffffff"/>
   </g>
   <g id="matplotlib.axis_3">
    <g id="xtick_5">
     <g id="line2d_9">
      <g>
       <use xlink:href="#m72be5e046b" x="47.745864" y="91.022595" style="stroke: #000000; stroke-width: 0.8"/>
      </g>
     </g>
    </g>
    <g id="xtick_6">
     <g id="line2d_10">
      <g>
       <use xlink:href="#m72be5e046b" x="89.046761" y="91.022595" style="stroke: #000000; stroke-width: 0.8"/>
      </g>
     </g>
    </g>
    <g id="xtick_7">
     <g id="line2d_11">
      <g>
       <use xlink:href="#m72be5e046b" x="130.347657" y="91.022595" style="stroke: #000000; stroke-width: 0.8"/>
      </g>
     </g>
    </g>
    <g id="xtick_8">
     <g id="line2d_12">
      <g>
       <use xlink:href="#m72be5e046b" x="171.648553" y="91.022595" style="stroke: #000000; stroke-width: 0.8"/>
      </g>
     </g>
    </g>
   </g>
   <g id="matplotlib.axis_4">
    <g id="ytick_3">
     <g id="line2d_13">
      <g>
       <use xlink:href="#m542eb83943" x="42.48" y="80.346688" style="stroke: #000000; stroke-width: 0.8"/>
      </g>
     </g>
     <g id="text_4">
      <!-- 50 -->
      <g transform="translate(26.5725 83.006141) scale(0.07 -0.07)">
       <defs>
        <path id="DejaVuSans-35" d="M 691 4666 
L 3169 4666 
L 3169 4134 
L 1269 4134 
L 1269 2991 
Q 1406 3038 1543 3061 
Q 1681 3084 1819 3084 
Q 2600 3084 3056 2656 
Q 3513 2228 3513 1497 
Q 3513 744 3044 326 
Q 2575 -91 1722 -91 
Q 1428 -91 1123 -41 
Q 819 9 494 109 
L 494 744 
Q 775 591 1075 516 
Q 1375 441 1709 441 
Q 2250 441 2565 725 
Q 2881 1009 2881 1497 
Q 2881 1984 2565 2268 
Q 2250 2553 1709 2553 
Q 1456 2553 1204 2497 
Q 953 2441 691 2322 
L 691 4666 
z
" transform="scale(0.015625)"/>
       </defs>
       <use xlink:href="#DejaVuSans-35"/>
       <use xlink:href="#DejaVuSans-30" x="63.623047"/>
      </g>
     </g>
    </g>
    <g id="ytick_4">
     <g id="line2d_14">
      <g>
       <use xlink:href="#m542eb83943" x="42.48" y="69.435283" style="stroke: #000000; stroke-width: 0.8"/>
      </g>
     </g>
     <g id="text_5">
      <!-- 100 -->
      <g transform="translate(22.11875 72.094736) scale(0.07 -0.07)">
       <use xlink:href="#DejaVuSans-31"/>
       <use xlink:href="#DejaVuSans-30" x="63.623047"/>
       <use xlink:href="#DejaVuSans-30" x="127.246094"/>
      </g>
     </g>
    </g>
    <g id="ytick_5">
     <g id="line2d_15">
      <g>
       <use xlink:href="#m542eb83943" x="42.48" y="58.523879" style="stroke: #000000; stroke-width: 0.8"/>
      </g>
     </g>
     <g id="text_6">
      <!-- 150 -->
      <g transform="translate(22.11875 61.183332) scale(0.07 -0.07)">
       <use xlink:href="#DejaVuSans-31"/>
       <use xlink:href="#DejaVuSans-35" x="63.623047"/>
       <use xlink:href="#DejaVuSans-30" x="127.246094"/>
      </g>
     </g>
    </g>
   </g>
   <g id="line2d_16">
    <path d="M 49.810909 72.969964 
L 51.875954 72.969964 
L 53.940999 72.969964 
L 56.006044 72.969964 
L 58.071088 72.969964 
L 60.136133 72.969964 
L 62.201178 72.969964 
L 64.266223 72.969964 
L 66.331268 72.969964 
L 68.396312 77.593454 
L 70.461357 77.593454 
L 72.526402 77.593454 
L 74.591447 71.594287 
L 76.656492 71.594287 
L 78.721536 71.594287 
L 80.786581 64.254537 
L 82.851626 56.974732 
L 84.916671 56.974732 
L 86.981716 56.974732 
L 89.046761 56.974732 
L 91.111805 56.974732 
L 93.17685 56.974732 
L 95.241895 59.590347 
L 97.30694 59.590347 
L 99.371985 59.590347 
L 101.437029 59.590347 
L 103.502074 59.590347 
L 105.567119 59.590347 
L 107.632164 59.590347 
L 109.697209 66.092247 
L 111.762254 67.61115 
L 113.827298 67.61115 
L 115.892343 67.61115 
L 117.957388 71.178939 
L 120.022433 68.42892 
L 122.087478 68.42892 
L 124.152522 64.929942 
L 126.217567 64.929942 
L 128.282612 64.929942 
L 130.347657 64.929942 
L 132.412702 64.929942 
L 134.477746 64.929942 
L 136.542791 64.929942 
L 138.607836 64.929942 
L 140.672881 64.929942 
L 142.737926 64.929942 
L 144.802971 68.511924 
L 146.868015 68.511924 
L 148.93306 78.671996 
L 150.998105 78.671996 
L 153.06315 80.40975 
L 155.128195 80.40975 
L 157.193239 82.393224 
L 159.258284 83.84221 
L 161.323329 85.213947 
L 163.388374 85.213947 
L 165.453419 85.213947 
L 167.518464 85.213947 
L 169.583508 82.910575 
L 171.648553 77.960195 
L 173.713598 77.960195 
L 175.778643 69.730537 
L 177.843688 69.730537 
L 179.908732 69.730537 
L 181.973777 69.730537 
L 184.038822 62.177237 
L 186.103867 62.177237 
L 188.168912 62.177237 
L 190.233956 62.177237 
L 192.299001 62.177237 
L 194.364046 62.809892 
L 196.429091 72.969964 
" clip-path="url(#pa9df569d0b)" style="fill: none; stroke: #1f77b4; stroke-width: 1.1; stroke-linecap: square"/>
   </g>
   <g id="line2d_17">
    <path d="M 49.810909 72.969964 
L 51.875954 72.969964 
L 53.940999 72.969964 
L 56.006044 72.969964 
L 58.071088 72.969964 
L 60.136133 72.969964 
L 62.201178 72.969964 
L 64.266223 72.969964 
L 66.331268 72.969964 
L 68.396312 81.501076 
L 70.461357 81.501076 
L 72.526402 81.199622 
L 74.591447 81.199622 
L 76.656492 81.199622 
L 78.721536 72.969964 
L 80.786581 72.969964 
L 82.851626 72.969964 
L 84.916671 72.969964 
L 86.981716 72.969964 
L 89.046761 72.969964 
L 91.111805 72.969964 
L 93.17685 72.969964 
L 95.241895 72.969964 
L 97.30694 72.969964 
L 99.371985 72.969964 
L 101.437029 75.120139 
L 103.502074 75.120139 
L 105.567119 75.120139 
L 107.632164 75.120139 
L 109.697209 80.539506 
L 111.762254 89.401268 
L 113.827298 89.401268 
L 115.892343 89.401268 
L 117.957388 89.401268 
L 120.022433 81.551186 
L 122.087478 73.661133 
L 124.152522 73.661133 
L 126.217567 65.431475 
L 128.282612 65.431475 
L 130.347657 65.431475 
L 132.412702 65.431475 
L 134.477746 65.431475 
L 136.542791 65.431475 
L 138.607836 65.431475 
L 140.672881 65.431475 
L 142.737926 65.431475 
L 144.802971 65.431475 
L 146.868015 65.431475 
L 148.93306 65.431475 
L 150.998105 65.431475 
L 153.06315 65.431475 
L 155.128195 65.431475 
L 157.193239 65.431475 
L 159.258284 65.431475 
L 161.323329 65.431475 
L 163.388374 65.431475 
L 165.453419 73.572685 
L 167.518464 73.572685 
L 169.583508 73.572685 
L 171.648553 73.572685 
L 173.713598 73.572685 
L 175.778643 65.343027 
L 177.843688 65.343027 
L 179.908732 65.343027 
L 181.973777 65.343027 
L 184.038822 57.759075 
L 186.103867 57.759075 
L 188.168912 57.759075 
L 190.233956 57.759075 
L 192.299001 57.759075 
L 194.364046 67.919146 
L 196.429091 72.969964 
" clip-path="url(#pa9df569d0b)" style="fill: none; stroke-dasharray: 4.07,1.76; stroke-dashoffset: 0; stroke: #1f77b4; stroke-width: 1.1"/>
   </g>
   <g id="patch_8">
    <path d="M 42.48 91.022595 
L 42.48 55.353405 
" style="fill: none; stroke: #000000; stroke-width: 0.8; stroke-linejoin: miter; stroke-linecap: square"/>
   </g>
   <g id="patch_9">
    <path d="M 203.76 91.022595 
L 203.76 55.353405 
" style="fill: none; stroke: #000000; stroke-width: 0.8; stroke-linejoin: miter; stroke-linecap: square"/>
   </g>
   <g id="patch_10">
    <path d="M 42.48 91.022595 
L 203.76 91.022595 
" style="fill: none; stroke: #000000; stroke-width: 0.8; stroke-linejoin: miter; stroke-linecap: square"/>
   </g>
   <g id="patch_11">
    <path d="M 42.48 55.353405 
L 203.76 55.353405 
" style="fill: none; stroke: #000000; stroke-width: 0.8; stroke-linejoin: miter; stroke-linecap: square"/>
   </g>
   <g id="text_7">
    <!-- ESS-2 -->
    <g transform="translate(206.9856 75.3955) scale(0.08 -0.08)">
     <use xlink:href="#DejaVuSans-45"/>
     <use xlink:href="#DejaVuSans-53" x="63.183594"/>
     <use xlink:href="#DejaVuSans-53" x="126.660156"/>
     <use xlink:href="#DejaVuSans-2d" x="190.136719"/>
     <use xlink:href="#DejaVuSans-32" x="226.220703"/>
    </g>
   </g>
  </g>
  <g id="axes_3">
   <g id="patch_12">
    <path d="M 42.48 139.176 
L 203.76 139.176 
L 203.76 103.506811 
L 42.48 103.506811 
z
" style="fill: #ffffff"/>
   </g>
   <g id="matplotlib.axis_5">
    <g id="xtick_9">
     <g id="line2d_18">
      <g>
       <use xlink:href="#m72be5e046b" x="47.745864" y="139.176" style="stroke: #000000; stroke-width: 0.8"/>
      </g>
     </g>
     <g id="text_8">
      <!-- 0 -->
      <g transform="translate(45.518989 151.494906) scale(0.07 -0.07)">
       <use xlink:href="#DejaVuSans-30"/>
      </g>
     </g>
    </g>
    <g id="xtick_10">
     <g id="line2d_19">
      <g>
       <use xlink:href="#m72be5e046b" x="89.046761" y="139.176" style="stroke: #000000; stroke-width: 0.8"/>
      </g>
     </g>
     <g id="text_9">
      <!-- 20 -->
      <g transform="translate(84.593011 151.494906) scale(0.07 -0.07)">
       <use xlink:href="#DejaVuSans-32"/>
       <use xlink:href="#DejaVuSans-30" x="63.623047"/>
      </g>
     </g>
    </g>
    <g id="xtick_11">
     <g id="line2d_20">
      <g>
       <use xlink:href="#m72be5e046b" x="130.347657" y="139.176" style="stroke: #000000; stroke-width: 0.8"/>
      </g>
     </g>
     <g id="text_10">
      <!-- 40 -->
      <g transform="translate(125.893907 151.494906) scale(0.07 -0.07)">
       <defs>
        <path id="DejaVuSans-34" d="M 2419 4116 
L 825 1625 
L 2419 1625 
L 2419 4116 
z
M 2253 4666 
L 3047 4666 
L 3047 1625 
L 3713 1625 
L 3713 1100 
L 3047 1100 
L 3047 0 
L 2419 0 
L 2419 1100 
L 313 1100 
L 313 1709 
L 2253 4666 
z
" transform="scale(0.015625)"/>
       </defs>
       <use xlink:href="#DejaVuSans-34"/>
       <use xlink:href="#DejaVuSans-30" x="63.623047"/>
      </g>
     </g>
    </g>
    <g id="xtick_12">
     <g id="line2d_21">
      <g>
       <use xlink:href="#m72be5e046b" x="171.648553" y="139.176" style="stroke: #000000; stroke-width: 0.8"/>
      </g>
     </g>
     <g id="text_11">
      <!-- 60 -->
      <g transform="translate(167.194803 151.494906) scale(0.07 -0.07)">
       <defs>
        <path id="DejaVuSans-36" d="M 2113 2584 
Q 1688 2584 1439 2293 
Q 1191 2003 1191 1497 
Q 1191 994 1439 701 
Q 1688 409 2113 409 
Q 2538 409 2786 701 
Q 3034 994 3034 1497 
Q 3034 2003 2786 2293 
Q 2538 2584 2113 2584 
z
M 3366 4563 
L 3366 3988 
Q 3128 4100 2886 4159 
Q 2644 4219 2406 4219 
Q 1781 4219 1451 3797 
Q 1122 3375 1075 2522 
Q 1259 2794 1537 2939 
Q 1816 3084 2150 3084 
Q 2853 3084 3261 2657 
Q 3669 2231 3669 1497 
Q 3669 778 3244 343 
Q 2819 -91 2113 -91 
Q 1303 -91 875 529 
Q 447 1150 447 2328 
Q 447 3434 972 4092 
Q 1497 4750 2381 4750 
Q 2619 4750 2861 4703 
Q 3103 4656 3366 4563 
z
" transform="scale(0.015625)"/>
       </defs>
       <use xlink:href="#DejaVuSans-36"/>
       <use xlink:href="#DejaVuSans-30" x="63.623047"/>
      </g>
     </g>
    </g>
    <g id="text_12">
     <!-- Time (hr) -->
     <g transform="translate(104.76125 163.029437) scale(0.08 -0.08)">
      <defs>
       <path id="DejaVuSans-54" d="M -19 4666 
L 3928 4666 
L 3928 4134 
L 2272 4134 
L 2272 0 
L 1638 0 
L 1638 4134 
L -19 4134 
L -19 4666 
z
" transform="scale(0.015625)"/>
       <path id="DejaVuSans-69" d="M 603 3500 
L 1178 3500 
L 1178 0 
L 603 0 
L 603 3500 
z
M 603 4863 
L 1178 4863 
L 1178 4134 
L 603 4134 
L 603 4863 
z
" transform="scale(0.015625)"/>
       <path id="DejaVuSans-6d" d="M 3328 2828 
Q 3544 3216 3844 3400 
Q 4144 3584 4550 3584 
Q 5097 3584 5394 3201 
Q 5691 2819 5691 2113 
L 5691 0 
L 5113 0 
L 5113 2094 
Q 5113 2597 4934 2840 
Q 4756 3084 4391 3084 
Q 3944 3084 3684 2787 
Q 3425 2491 3425 1978 
L 3425 0 
L 2847 0 
L 2847 2094 
Q 2847 2600 2669 2842 
Q 2491 3084 2119 3084 
Q 1678 3084 1418 2786 
Q 1159 2488 1159 1978 
L 1159 0 
L 581 0 
L 581 3500 
L 1159 3500 
L 1159 2956 
Q 1356 3278 1631 3431 
Q 1906 3584 2284 3584 
Q 2666 3584 2933 3390 
Q 3200 3197 3328 2828 
z
" transform="scale(0.015625)"/>
       <path id="DejaVuSans-65" d="M 3597 1894 
L 3597 1613 
L 953 1613 
Q 991 1019 1311 708 
Q 1631 397 2203 397 
Q 2534 397 2845 478 
Q 3156 559 3463 722 
L 3463 178 
Q 3153 47 2828 -22 
Q 2503 -91 2169 -91 
Q 1331 -91 842 396 
Q 353 884 353 1716 
Q 353 2575 817 3079 
Q 1281 3584 2069 3584 
Q 2775 3584 3186 3129 
Q 3597 2675 3597 1894 
z
M 3022 2063 
Q 3016 2534 2758 2815 
Q 2500 3097 2075 3097 
Q 1594 3097 1305 2825 
Q 1016 2553 972 2059 
L 3022 2063 
z
" transform="scale(0.015625)"/>
       <path id="DejaVuSans-20" transform="scale(0.015625)"/>
       <path id="DejaVuSans-28" d="M 1984 4856 
Q 1566 4138 1362 3434 
Q 1159 2731 1159 2009 
Q 1159 1288 1364 580 
Q 1569 -128 1984 -844 
L 1484 -844 
Q 1016 -109 783 600 
Q 550 1309 550 2009 
Q 550 2706 781 3412 
Q 1013 4119 1484 4856 
L 1984 4856 
z
" transform="scale(0.015625)"/>
       <path id="DejaVuSans-68" d="M 3513 2113 
L 3513 0 
L 2938 0 
L 2938 2094 
Q 2938 2591 2744 2837 
Q 2550 3084 2163 3084 
Q 1697 3084 1428 2787 
Q 1159 2491 1159 1978 
L 1159 0 
L 581 0 
L 581 4863 
L 1159 4863 
L 1159 2956 
Q 1366 3272 1645 3428 
Q 1925 3584 2291 3584 
Q 2894 3584 3203 3211 
Q 3513 2838 3513 2113 
z
" transform="scale(0.015625)"/>
       <path id="DejaVuSans-72" d="M 2631 2963 
Q 2534 3019 2420 3045 
Q 2306 3072 2169 3072 
Q 1681 3072 1420 2755 
Q 1159 2438 1159 1844 
L 1159 0 
L 581 0 
L 581 3500 
L 1159 3500 
L 1159 2956 
Q 1341 3275 1631 3429 
Q 1922 3584 2338 3584 
Q 2397 3584 2469 3576 
Q 2541 3569 2628 3553 
L 2631 2963 
z
" transform="scale(0.015625)"/>
       <path id="DejaVuSans-29" d="M 513 4856 
L 1013 4856 
Q 1481 4119 1714 3412 
Q 1947 2706 1947 2009 
Q 1947 1309 1714 600 
Q 1481 -109 1013 -844 
L 513 -844 
Q 928 -128 1133 580 
Q 1338 1288 1338 2009 
Q 1338 2731 1133 3434 
Q 928 4138 513 4856 
z
" transform="scale(0.015625)"/>
      </defs>
      <use xlink:href="#DejaVuSans-54"/>
      <use xlink:href="#DejaVuSans-69" x="57.958984"/>
      <use xlink:href="#DejaVuSans-6d" x="85.742188"/>
      <use xlink:href="#DejaVuSans-65" x="183.154297"/>
      <use xlink:href="#DejaVuSans-20" x="244.677734"/>
      <use xlink:href="#DejaVuSans-28" x="276.464844"/>
      <use xlink:href="#DejaVuSans-68" x="315.478516"/>
      <use xlink:href="#DejaVuSans-72" x="378.857422"/>
      <use xlink:href="#DejaVuSans-29" x="419.970703"/>
     </g>
    </g>
   </g>
   <g id="matplotlib.axis_6">
    <g id="ytick_6">
     <g id="line2d_22">
      <g>
       <use xlink:href="#m542eb83943" x="42.48" y="131.463568" style="stroke: #000000; stroke-width: 0.8"/>
      </g>
     </g>
     <g id="text_13">
      <!-- 50 -->
      <g transform="translate(26.5725 134.123021) scale(0.07 -0.07)">
       <use xlink:href="#DejaVuSans-35"/>
       <use xlink:href="#DejaVuSans-30" x="63.623047"/>
      </g>
     </g>
    </g>
    <g id="ytick_7">
     <g id="line2d_23">
      <g>
       <use xlink:href="#m542eb83943" x="42.48" y="114.379752" style="stroke: #000000; stroke-width: 0.8"/>
      </g>
     </g>
     <g id="text_14">
      <!-- 100 -->
      <g transform="translate(22.11875 117.039206) scale(0.07 -0.07)">
       <use xlink:href="#DejaVuSans-31"/>
       <use xlink:href="#DejaVuSans-30" x="63.623047"/>
       <use xlink:href="#DejaVuSans-30" x="127.246094"/>
      </g>
     </g>
    </g>
   </g>
   <g id="line2d_24">
    <path d="M 49.810909 121.297565 
L 51.875954 121.297565 
L 53.940999 123.186264 
L 56.006044 123.186264 
L 58.071088 123.186264 
L 60.136133 125.045073 
L 62.201178 126.630681 
L 64.266223 126.630681 
L 66.331268 126.630681 
L 68.396312 126.630681 
L 70.461357 126.630681 
L 72.526402 120.188158 
L 74.591447 113.745634 
L 76.656492 113.745634 
L 78.721536 113.745634 
L 80.786581 113.745634 
L 82.851626 113.745634 
L 84.916671 107.303111 
L 86.981716 107.303111 
L 89.046761 107.303111 
L 91.111805 107.303111 
L 93.17685 107.303111 
L 95.241895 107.303111 
L 97.30694 109.89179 
L 99.371985 109.89179 
L 101.437029 117.383978 
L 103.502074 117.383978 
L 105.567119 117.383978 
L 107.632164 117.383978 
L 109.697209 125.337711 
L 111.762254 125.337711 
L 113.827298 125.337711 
L 115.892343 125.337711 
L 117.957388 125.337711 
L 120.022433 125.337711 
L 122.087478 125.337711 
L 124.152522 118.895187 
L 126.217567 118.895187 
L 128.282612 118.895187 
L 130.347657 118.895187 
L 132.412702 112.452664 
L 134.477746 112.452664 
L 136.542791 112.452664 
L 138.607836 112.452664 
L 140.672881 112.452664 
L 142.737926 112.452664 
L 144.802971 112.452664 
L 146.868015 112.452664 
L 148.93306 112.452664 
L 150.998105 112.452664 
L 153.06315 120.406396 
L 155.128195 120.406396 
L 157.193239 120.406396 
L 159.258284 120.406396 
L 161.323329 120.406396 
L 163.388374 120.406396 
L 165.453419 120.406396 
L 167.518464 125.95602 
L 169.583508 125.95602 
L 171.648553 119.513496 
L 173.713598 119.513496 
L 175.778643 117.489108 
L 177.843688 117.489108 
L 179.908732 117.489108 
L 181.973777 117.489108 
L 184.038822 117.441118 
L 186.103867 117.441118 
L 188.168912 117.441118 
L 190.233956 117.441118 
L 192.299001 117.441118 
L 194.364046 117.441118 
L 196.429091 119.913946 
" clip-path="url(#p6fd53d88b2)" style="fill: none; stroke: #1f77b4; stroke-width: 1.1; stroke-linecap: square"/>
   </g>
   <g id="line2d_25">
    <path d="M 49.810909 119.913946 
L 51.875954 119.913946 
L 53.940999 119.913946 
L 56.006044 119.913946 
L 58.071088 119.913946 
L 60.136133 119.913946 
L 62.201178 119.913946 
L 64.266223 124.594781 
L 66.331268 126.783346 
L 68.396312 126.783346 
L 70.461357 126.367538 
L 72.526402 126.367538 
L 74.591447 119.925014 
L 76.656492 119.925014 
L 78.721536 118.013184 
L 80.786581 118.013184 
L 82.851626 111.570661 
L 84.916671 105.128138 
L 86.981716 105.128138 
L 89.046761 105.128138 
L 91.111805 105.128138 
L 93.17685 105.128138 
L 95.241895 113.08187 
L 97.30694 119.913946 
L 99.371985 119.913946 
L 101.437029 127.867679 
L 103.502074 127.867679 
L 105.567119 127.867679 
L 107.632164 127.867679 
L 109.697209 135.821411 
L 111.762254 137.554673 
L 113.827298 137.554673 
L 115.892343 137.554673 
L 117.957388 135.613038 
L 120.022433 135.613038 
L 122.087478 135.613038 
L 124.152522 129.170515 
L 126.217567 128.463498 
L 128.282612 128.463498 
L 130.347657 128.463498 
L 132.412702 122.020975 
L 134.477746 115.578452 
L 136.542791 115.578452 
L 138.607836 115.578452 
L 140.672881 115.578452 
L 142.737926 115.578452 
L 144.802971 115.578452 
L 146.868015 115.578452 
L 148.93306 115.578452 
L 150.998105 115.578452 
L 153.06315 115.578452 
L 155.128195 115.578452 
L 157.193239 115.578452 
L 159.258284 115.578452 
L 161.323329 115.578452 
L 163.388374 120.542768 
L 165.453419 120.542768 
L 167.518464 120.542768 
L 169.583508 119.018314 
L 171.648553 112.575791 
L 173.713598 112.575791 
L 175.778643 110.551541 
L 177.843688 110.551541 
L 179.908732 110.551541 
L 181.973777 110.551541 
L 184.038822 110.551541 
L 186.103867 110.551541 
L 188.168912 110.551541 
L 190.233956 110.551541 
L 192.299001 111.960214 
L 194.364046 119.913946 
L 196.429091 119.913946 
" clip-path="url(#p6fd53d88b2)" style="fill: none; stroke-dasharray: 4.07,1.76; stroke-dashoffset: 0; stroke: #1f77b4; stroke-width: 1.1"/>
   </g>
   <g id="patch_13">
    <path d="M 42.48 139.176 
L 42.48 103.506811 
" style="fill: none; stroke: #000000; stroke-width: 0.8; stroke-linejoin: miter; stroke-linecap: square"/>
   </g>
   <g id="patch_14">
    <path d="M 203.76 139.176 
L 203.76 103.506811 
" style="fill: none; stroke: #000000; stroke-width: 0.8; stroke-linejoin: miter; stroke-linecap: square"/>
   </g>
   <g id="patch_15">
    <path d="M 42.48 139.176 
L 203.76 139.176 
" style="fill: none; stroke: #000000; stroke-width: 0.8; stroke-linejoin: miter; stroke-linecap: square"/>
   </g>
   <g id="patch_16">
    <path d="M 42.48 103.506811 
L 203.76 103.506811 
" style="fill: none; stroke: #000000; stroke-width: 0.8; stroke-linejoin: miter; stroke-linecap: square"/>
   </g>
   <g id="text_15">
    <!-- ESS-3 -->
    <g transform="translate(206.9856 123.548905) scale(0.08 -0.08)">
     <defs>
      <path id="DejaVuSans-33" d="M 2597 2516 
Q 3050 2419 3304 2112 
Q 3559 1806 3559 1356 
Q 3559 666 3084 287 
Q 2609 -91 1734 -91 
Q 1441 -91 1130 -33 
Q 819 25 488 141 
L 488 750 
Q 750 597 1062 519 
Q 1375 441 1716 441 
Q 2309 441 2620 675 
Q 2931 909 2931 1356 
Q 2931 1769 2642 2001 
Q 2353 2234 1838 2234 
L 1294 2234 
L 1294 2753 
L 1863 2753 
Q 2328 2753 2575 2939 
Q 2822 3125 2822 3475 
Q 2822 3834 2567 4026 
Q 2313 4219 1838 4219 
Q 1578 4219 1281 4162 
Q 984 4106 628 3988 
L 628 4550 
Q 988 4650 1302 4700 
Q 1616 4750 1894 4750 
Q 2613 4750 3031 4423 
Q 3450 4097 3450 3541 
Q 3450 3153 3228 2886 
Q 3006 2619 2597 2516 
z
" transform="scale(0.015625)"/>
     </defs>
     <use xlink:href="#DejaVuSans-45"/>
     <use xlink:href="#DejaVuSans-53" x="63.183594"/>
     <use xlink:href="#DejaVuSans-53" x="126.660156"/>
     <use xlink:href="#DejaVuSans-2d" x="190.136719"/>
     <use xlink:href="#DejaVuSans-33" x="226.220703"/>
    </g>
   </g>
  </g>
  <g id="text_16">
   <!-- SoC (MWh) -->
   <g transform="translate(13.27875 110.52975) rotate(-90) scale(0.08 -0.08)">
    <defs>
     <path id="DejaVuSans-6f" d="M 1959 3097 
Q 1497 3097 1228 2736 
Q 959 2375 959 1747 
Q 959 1119 1226 758 
Q 1494 397 1959 397 
Q 2419 397 2687 759 
Q 2956 1122 2956 1747 
Q 2956 2369 2687 2733 
Q 2419 3097 1959 3097 
z
M 1959 3584 
Q 2709 3584 3137 3096 
Q 3566 2609 3566 1747 
Q 3566 888 3137 398 
Q 2709 -91 1959 -91 
Q 1206 -91 779 398 
Q 353 888 353 1747 
Q 353 2609 779 3096 
Q 1206 3584 1959 3584 
z
" transform="scale(0.015625)"/>
     <path id="DejaVuSans-43" d="M 4122 4306 
L 4122 3641 
Q 3803 3938 3442 4084 
Q 3081 4231 2675 4231 
Q 1875 4231 1450 3742 
Q 1025 3253 1025 2328 
Q 1025 1406 1450 917 
Q 1875 428 2675 428 
Q 3081 428 3442 575 
Q 3803 722 4122 1019 
L 4122 359 
Q 3791 134 3420 21 
Q 3050 -91 2638 -91 
Q 1578 -91 968 557 
Q 359 1206 359 2328 
Q 359 3453 968 4101 
Q 1578 4750 2638 4750 
Q 3056 4750 3426 4639 
Q 3797 4528 4122 4306 
z
" transform="scale(0.015625)"/>
     <path id="DejaVuSans-4d" d="M 628 4666 
L 1569 4666 
L 2759 1491 
L 3956 4666 
L 4897 4666 
L 4897 0 
L 4281 0 
L 4281 4097 
L 3078 897 
L 2444 897 
L 1241 4097 
L 1241 0 
L 628 0 
L 628 4666 
z
" transform="scale(0.015625)"/>
     <path id="DejaVuSans-57" d="M 213 4666 
L 850 4666 
L 1831 722 
L 2809 4666 
L 3519 4666 
L 4500 722 
L 5478 4666 
L 6119 4666 
L 4947 0 
L 4153 0 
L 3169 4050 
L 2175 0 
L 1381 0 
L 213 4666 
z
" transform="scale(0.015625)"/>
    </defs>
    <use xlink:href="#DejaVuSans-53"/>
    <use xlink:href="#DejaVuSans-6f" x="63.476562"/>
    <use xlink:href="#DejaVuSans-43" x="124.658203"/>
    <use xlink:href="#DejaVuSans-20" x="194.482422"/>
    <use xlink:href="#DejaVuSans-28" x="226.269531"/>
    <use xlink:href="#DejaVuSans-4d" x="265.283203"/>
    <use xlink:href="#DejaVuSans-57" x="351.5625"/>
    <use xlink:href="#DejaVuSans-68" x="450.439453"/>
    <use xlink:href="#DejaVuSans-29" x="513.818359"/>
   </g>
  </g>
  <g id="legend_1">
   <g id="line2d_26">
    <path d="M 204.177813 149.151531 
L 211.177813 149.151531 
L 218.177813 149.151531 
" style="fill: none; stroke: #1f77b4; stroke-width: 1.1; stroke-linecap: square"/>
   </g>
   <g id="text_17">
    <!-- Mono -->
    <g transform="translate(223.777813 151.601531) scale(0.07 -0.07)">
     <defs>
      <path id="DejaVuSans-6e" d="M 3513 2113 
L 3513 0 
L 2938 0 
L 2938 2094 
Q 2938 2591 2744 2837 
Q 2550 3084 2163 3084 
Q 1697 3084 1428 2787 
Q 1159 2491 1159 1978 
L 1159 0 
L 581 0 
L 581 3500 
L 1159 3500 
L 1159 2956 
Q 1366 3272 1645 3428 
Q 1925 3584 2291 3584 
Q 2894 3584 3203 3211 
Q 3513 2838 3513 2113 
z
" transform="scale(0.015625)"/>
     </defs>
     <use xlink:href="#DejaVuSans-4d"/>
     <use xlink:href="#DejaVuSans-6f" x="86.279297"/>
     <use xlink:href="#DejaVuSans-6e" x="147.460938"/>
     <use xlink:href="#DejaVuSans-6f" x="210.839844"/>
    </g>
   </g>
   <g id="line2d_27">
    <path d="M 204.177813 159.426219 
L 211.177813 159.426219 
L 218.177813 159.426219 
" style="fill: none; stroke-dasharray: 4.07,1.76; stroke-dashoffset: 0; stroke: #1f77b4; stroke-width: 1.1"/>
   </g>
   <g id="text_18">
    <!-- RH -->
    <g transform="translate(223.777813 161.876219) scale(0.07 -0.07)">
     <defs>
      <path id="DejaVuSans-52" d="M 2841 2188 
Q 3044 2119 3236 1894 
Q 3428 1669 3622 1275 
L 4263 0 
L 3584 0 
L 2988 1197 
Q 2756 1666 2539 1819 
Q 2322 1972 1947 1972 
L 1259 1972 
L 1259 0 
L 628 0 
L 628 4666 
L 2053 4666 
Q 2853 4666 3247 4331 
Q 3641 3997 3641 3322 
Q 3641 2881 3436 2590 
Q 3231 2300 2841 2188 
z
M 1259 4147 
L 1259 2491 
L 2053 2491 
Q 2509 2491 2742 2702 
Q 2975 2913 2975 3322 
Q 2975 3731 2742 3939 
Q 2509 4147 2053 4147 
L 1259 4147 
z
" transform="scale(0.015625)"/>
      <path id="DejaVuSans-48" d="M 628 4666 
L 1259 4666 
L 1259 2753 
L 3553 2753 
L 3553 4666 
L 4184 4666 
L 4184 0 
L 3553 0 
L 3553 2222 
L 1259 2222 
L 1259 0 
L 628 0 
L 628 4666 
z
" transform="scale(0.015625)"/>
     </defs>
     <use xlink:href="#DejaVuSans-52"/>
     <use xlink:href="#DejaVuSans-48" x="69.482422"/>
    </g>
   </g>
  </g>
 </g>
 <defs>
  <clipPath id="pde8ff0b783">
   <rect x="42.48" y="7.2" width="161.28" height="35.669189"/>
  </clipPath>
  <clipPath id="pa9df569d0b">
   <rect x="42.48" y="55.353405" width="161.28" height="35.669189"/>
  </clipPath>
  <clipPath id="p6fd53d88b2">
   <rect x="42.48" y="103.506811" width="161.28" height="35.669189"/>
  </clipPath>
 </defs>
</svg>
