<?xml version="1.0" encoding="utf-8" standalone="no"?>
<!DOCTYPE svg PUBLIC "-//W3C//DTD SVG 1.1//EN"
  "http://www.w3.org/Graphics/SVG/1.1/DTD/svg11.dtd">
<svg xmlns:xlink="http://www.w3.org/1999/xlink" width="748.08pt" height="532.8pt" viewBox="0 0 748.08 532.8" xmlns="http://www.w3.org/2000/svg" version="1.1">
 <metadata>
  <rdf:RDF xmlns:dc="http://purl.org/dc/elements/1.1/" xmlns:cc="http://creativecommons.org/ns#" xmlns:rdf="http://www.w3.org/1999/02/22-rdf-syntax-ns#">
   <cc:Work>
    <dc:type rdf:resource="http://purl.org/dc/dcmitype/StillImage"/>
    <dc:date>2025-11-11T16:47:05.342095</dc:date>
    <dc:format>image/svg+xml</dc:format>
    <dc:creator>
     <cc:Agent>
      <dc:title>Matplotlib v3.10.0, https://matplotlib.org/</dc:title>
     </cc:Agent>
    </dc:creator>
   </cc:Work>
  </rdf:RDF>
 </metadata>
 <defs>
  <style type="text/css">*{stroke-linejoin: round; stroke-linecap: butt}</style>
 </defs>
 <g id="figure_1">
  <g id="patch_1">
   <path d="M 0 532.8 
L 748.08 532.8 
L 748.08 0 
L 0 0 
z
" style="fill: #ffffff"/>
  </g>
  <g id="axes_1">
   <g id="patch_2">
    <path d="M 53.04095 481.049333 
L 736.8588 481.049333 
L 736.8588 31.376 
L 53.04095 31.376 
z
" style="fill: #ffffff"/>
   </g>
   <g id="matplotlib.axis_1">
    <g id="xtick_1">
     <g id="line2d_1">
      <defs>
       <path id="m5609445b78" d="M 0 0 
L 0 3.5 
" style="stroke: #000000; stroke-width: 0.8"/>
      </defs>
      <g>
       <use xlink:href="#m5609445b78" x="75.367909" y="481.049333" style="stroke: #000000; stroke-width: 0.8"/>
      </g>
     </g>
     <g id="text_1">
      <!-- 0 -->
      <g transform="translate(72.186659 495.647771) scale(0.1 -0.1)">
       <defs>
        <path id="DejaVuSans-30" d="M 2034 4250 
Q 1547 4250 1301 3770 
Q 1056 3291 1056 2328 
Q 1056 1369 1301 889 
Q 1547 409 2034 409 
Q 2525 409 2770 889 
Q 3016 1369 3016 2328 
Q 3016 3291 2770 3770 
Q 2525 4250 2034 4250 
z
M 2034 4750 
Q 2819 4750 3233 4129 
Q 3647 3509 3647 2328 
Q 3647 1150 3233 529 
Q 2819 -91 2034 -91 
Q 1250 -91 836 529 
Q 422 1150 422 2328 
Q 422 3509 836 4129 
Q 1250 4750 2034 4750 
z
" transform="scale(0.015625)"/>
       </defs>
       <use xlink:href="#DejaVuSans-30"/>
      </g>
     </g>
    </g>
    <g id="xtick_2">
     <g id="line2d_2">
      <g>
       <use xlink:href="#m5609445b78" x="162.924612" y="481.049333" style="stroke: #000000; stroke-width: 0.8"/>
      </g>
     </g>
     <g id="text_2">
      <!-- 10 -->
      <g transform="translate(156.562112 495.647771) scale(0.1 -0.1)">
       <defs>
        <path id="DejaVuSans-31" d="M 794 531 
L 1825 531 
L 1825 4091 
L 703 3866 
L 703 4441 
L 1819 4666 
L 2450 4666 
L 2450 531 
L 3481 531 
L 3481 0 
L 794 0 
L 794 531 
z
" transform="scale(0.015625)"/>
       </defs>
       <use xlink:href="#DejaVuSans-31"/>
       <use xlink:href="#DejaVuSans-30" transform="translate(63.623047 0)"/>
      </g>
     </g>
    </g>
    <g id="xtick_3">
     <g id="line2d_3">
      <g>
       <use xlink:href="#m5609445b78" x="250.481315" y="481.049333" style="stroke: #000000; stroke-width: 0.8"/>
      </g>
     </g>
     <g id="text_3">
      <!-- 20 -->
      <g transform="translate(244.118815 495.647771) scale(0.1 -0.1)">
       <defs>
        <path id="DejaVuSans-32" d="M 1228 531 
L 3431 531 
L 3431 0 
L 469 0 
L 469 531 
Q 828 903 1448 1529 
Q 2069 2156 2228 2338 
Q 2531 2678 2651 2914 
Q 2772 3150 2772 3378 
Q 2772 3750 2511 3984 
Q 2250 4219 1831 4219 
Q 1534 4219 1204 4116 
Q 875 4013 500 3803 
L 500 4441 
Q 881 4594 1212 4672 
Q 1544 4750 1819 4750 
Q 2544 4750 2975 4387 
Q 3406 4025 3406 3419 
Q 3406 3131 3298 2873 
Q 3191 2616 2906 2266 
Q 2828 2175 2409 1742 
Q 1991 1309 1228 531 
z
" transform="scale(0.015625)"/>
       </defs>
       <use xlink:href="#DejaVuSans-32"/>
       <use xlink:href="#DejaVuSans-30" transform="translate(63.623047 0)"/>
      </g>
     </g>
    </g>
    <g id="xtick_4">
     <g id="line2d_4">
      <g>
       <use xlink:href="#m5609445b78" x="338.038018" y="481.049333" style="stroke: #000000; stroke-width: 0.8"/>
      </g>
     </g>
     <g id="text_4">
      <!-- 30 -->
      <g transform="translate(331.675518 495.647771) scale(0.1 -0.1)">
       <defs>
        <path id="DejaVuSans-33" d="M 2597 2516 
Q 3050 2419 3304 2112 
Q 3559 1806 3559 1356 
Q 3559 666 3084 287 
Q 2609 -91 1734 -91 
Q 1441 -91 1130 -33 
Q 819 25 488 141 
L 488 750 
Q 750 597 1062 519 
Q 1375 441 1716 441 
Q 2309 441 2620 675 
Q 2931 909 2931 1356 
Q 2931 1769 2642 2001 
Q 2353 2234 1838 2234 
L 1294 2234 
L 1294 2753 
L 1863 2753 
Q 2328 2753 2575 2939 
Q 2822 3125 2822 3475 
Q 2822 3834 2567 4026 
Q 2313 4219 1838 4219 
Q 1578 4219 1281 4162 
Q 984 4106 628 3988 
L 628 4550 
Q 988 4650 1302 4700 
Q 1616 4750 1894 4750 
Q 2613 4750 3031 4423 
Q 3450 4097 3450 3541 
Q 3450 3153 3228 2886 
Q 3006 2619 2597 2516 
z
" transform="scale(0.015625)"/>
       </defs>
       <use xlink:href="#DejaVuSans-33"/>
       <use xlink:href="#DejaVuSans-30" transform="translate(63.623047 0)"/>
      </g>
     </g>
    </g>
    <g id="xtick_5">
     <g id="line2d_5">
      <g>
       <use xlink:href="#m5609445b78" x="425.594721" y="481.049333" style="stroke: #000000; stroke-width: 0.8"/>
      </g>
     </g>
     <g id="text_5">
      <!-- 40 -->
      <g transform="translate(419.232221 495.647771) scale(0.1 -0.1)">
       <defs>
        <path id="DejaVuSans-34" d="M 2419 4116 
L 825 1625 
L 2419 1625 
L 2419 4116 
z
M 2253 4666 
L 3047 4666 
L 3047 1625 
L 3713 1625 
L 3713 1100 
L 3047 1100 
L 3047 0 
L 2419 0 
L 2419 1100 
L 313 1100 
L 313 1709 
L 2253 4666 
z
" transform="scale(0.015625)"/>
       </defs>
       <use xlink:href="#DejaVuSans-34"/>
       <use xlink:href="#DejaVuSans-30" transform="translate(63.623047 0)"/>
      </g>
     </g>
    </g>
    <g id="xtick_6">
     <g id="line2d_6">
      <g>
       <use xlink:href="#m5609445b78" x="513.151424" y="481.049333" style="stroke: #000000; stroke-width: 0.8"/>
      </g>
     </g>
     <g id="text_6">
      <!-- 50 -->
      <g transform="translate(506.788924 495.647771) scale(0.1 -0.1)">
       <defs>
        <path id="DejaVuSans-35" d="M 691 4666 
L 3169 4666 
L 3169 4134 
L 1269 4134 
L 1269 2991 
Q 1406 3038 1543 3061 
Q 1681 3084 1819 3084 
Q 2600 3084 3056 2656 
Q 3513 2228 3513 1497 
Q 3513 744 3044 326 
Q 2575 -91 1722 -91 
Q 1428 -91 1123 -41 
Q 819 9 494 109 
L 494 744 
Q 775 591 1075 516 
Q 1375 441 1709 441 
Q 2250 441 2565 725 
Q 2881 1009 2881 1497 
Q 2881 1984 2565 2268 
Q 2250 2553 1709 2553 
Q 1456 2553 1204 2497 
Q 953 2441 691 2322 
L 691 4666 
z
" transform="scale(0.015625)"/>
       </defs>
       <use xlink:href="#DejaVuSans-35"/>
       <use xlink:href="#DejaVuSans-30" transform="translate(63.623047 0)"/>
      </g>
     </g>
    </g>
    <g id="xtick_7">
     <g id="line2d_7">
      <g>
       <use xlink:href="#m5609445b78" x="600.708127" y="481.049333" style="stroke: #000000; stroke-width: 0.8"/>
      </g>
     </g>
     <g id="text_7">
      <!-- 60 -->
      <g transform="translate(594.345627 495.647771) scale(0.1 -0.1)">
       <defs>
        <path id="DejaVuSans-36" d="M 2113 2584 
Q 1688 2584 1439 2293 
Q 1191 2003 1191 1497 
Q 1191 994 1439 701 
Q 1688 409 2113 409 
Q 2538 409 2786 701 
Q 3034 994 3034 1497 
Q 3034 2003 2786 2293 
Q 2538 2584 2113 2584 
z
M 3366 4563 
L 3366 3988 
Q 3128 4100 2886 4159 
Q 2644 4219 2406 4219 
Q 1781 4219 1451 3797 
Q 1122 3375 1075 2522 
Q 1259 2794 1537 2939 
Q 1816 3084 2150 3084 
Q 2853 3084 3261 2657 
Q 3669 2231 3669 1497 
Q 3669 778 3244 343 
Q 2819 -91 2113 -91 
Q 1303 -91 875 529 
Q 447 1150 447 2328 
Q 447 3434 972 4092 
Q 1497 4750 2381 4750 
Q 2619 4750 2861 4703 
Q 3103 4656 3366 4563 
z
" transform="scale(0.015625)"/>
       </defs>
       <use xlink:href="#DejaVuSans-36"/>
       <use xlink:href="#DejaVuSans-30" transform="translate(63.623047 0)"/>
      </g>
     </g>
    </g>
    <g id="xtick_8">
     <g id="line2d_8">
      <g>
       <use xlink:href="#m5609445b78" x="688.26483" y="481.049333" style="stroke: #000000; stroke-width: 0.8"/>
      </g>
     </g>
     <g id="text_8">
      <!-- 70 -->
      <g transform="translate(681.90233 495.647771) scale(0.1 -0.1)">
       <defs>
        <path id="DejaVuSans-37" d="M 525 4666 
L 3525 4666 
L 3525 4397 
L 1831 0 
L 1172 0 
L 2766 4134 
L 525 4134 
L 525 4666 
z
" transform="scale(0.015625)"/>
       </defs>
       <use xlink:href="#DejaVuSans-37"/>
       <use xlink:href="#DejaVuSans-30" transform="translate(63.623047 0)"/>
      </g>
     </g>
    </g>
    <g id="text_9">
     <!-- Time (t) -->
     <g transform="translate(375.2655 509.325896) scale(0.1 -0.1)">
      <defs>
       <path id="DejaVuSans-54" d="M -19 4666 
L 3928 4666 
L 3928 4134 
L 2272 4134 
L 2272 0 
L 1638 0 
L 1638 4134 
L -19 4134 
L -19 4666 
z
" transform="scale(0.015625)"/>
       <path id="DejaVuSans-69" d="M 603 3500 
L 1178 3500 
L 1178 0 
L 603 0 
L 603 3500 
z
M 603 4863 
L 1178 4863 
L 1178 4134 
L 603 4134 
L 603 4863 
z
" transform="scale(0.015625)"/>
       <path id="DejaVuSans-6d" d="M 3328 2828 
Q 3544 3216 3844 3400 
Q 4144 3584 4550 3584 
Q 5097 3584 5394 3201 
Q 5691 2819 5691 2113 
L 5691 0 
L 5113 0 
L 5113 2094 
Q 5113 2597 4934 2840 
Q 4756 3084 4391 3084 
Q 3944 3084 3684 2787 
Q 3425 2491 3425 1978 
L 3425 0 
L 2847 0 
L 2847 2094 
Q 2847 2600 2669 2842 
Q 2491 3084 2119 3084 
Q 1678 3084 1418 2786 
Q 1159 2488 1159 1978 
L 1159 0 
L 581 0 
L 581 3500 
L 1159 3500 
L 1159 2956 
Q 1356 3278 1631 3431 
Q 1906 3584 2284 3584 
Q 2666 3584 2933 3390 
Q 3200 3197 3328 2828 
z
" transform="scale(0.015625)"/>
       <path id="DejaVuSans-65" d="M 3597 1894 
L 3597 1613 
L 953 1613 
Q 991 1019 1311 708 
Q 1631 397 2203 397 
Q 2534 397 2845 478 
Q 3156 559 3463 722 
L 3463 178 
Q 3153 47 2828 -22 
Q 2503 -91 2169 -91 
Q 1331 -91 842 396 
Q 353 884 353 1716 
Q 353 2575 817 3079 
Q 1281 3584 2069 3584 
Q 2775 3584 3186 3129 
Q 3597 2675 3597 1894 
z
M 3022 2063 
Q 3016 2534 2758 2815 
Q 2500 3097 2075 3097 
Q 1594 3097 1305 2825 
Q 1016 2553 972 2059 
L 3022 2063 
z
" transform="scale(0.015625)"/>
       <path id="DejaVuSans-20" transform="scale(0.015625)"/>
       <path id="DejaVuSans-28" d="M 1984 4856 
Q 1566 4138 1362 3434 
Q 1159 2731 1159 2009 
Q 1159 1288 1364 580 
Q 1569 -128 1984 -844 
L 1484 -844 
Q 1016 -109 783 600 
Q 550 1309 550 2009 
Q 550 2706 781 3412 
Q 1013 4119 1484 4856 
L 1984 4856 
z
" transform="scale(0.015625)"/>
       <path id="DejaVuSans-74" d="M 1172 4494 
L 1172 3500 
L 2356 3500 
L 2356 3053 
L 1172 3053 
L 1172 1153 
Q 1172 725 1289 603 
Q 1406 481 1766 481 
L 2356 481 
L 2356 0 
L 1766 0 
Q 1100 0 847 248 
Q 594 497 594 1153 
L 594 3053 
L 172 3053 
L 172 3500 
L 594 3500 
L 594 4494 
L 1172 4494 
z
" transform="scale(0.015625)"/>
       <path id="DejaVuSans-29" d="M 513 4856 
L 1013 4856 
Q 1481 4119 1714 3412 
Q 1947 2706 1947 2009 
Q 1947 1309 1714 600 
Q 1481 -109 1013 -844 
L 513 -844 
Q 928 -128 1133 580 
Q 1338 1288 1338 2009 
Q 1338 2731 1133 3434 
Q 928 4138 513 4856 
z
" transform="scale(0.015625)"/>
      </defs>
      <use xlink:href="#DejaVuSans-54"/>
      <use xlink:href="#DejaVuSans-69" transform="translate(57.958984 0)"/>
      <use xlink:href="#DejaVuSans-6d" transform="translate(85.742188 0)"/>
      <use xlink:href="#DejaVuSans-65" transform="translate(183.154297 0)"/>
      <use xlink:href="#DejaVuSans-20" transform="translate(244.677734 0)"/>
      <use xlink:href="#DejaVuSans-28" transform="translate(276.464844 0)"/>
      <use xlink:href="#DejaVuSans-74" transform="translate(315.478516 0)"/>
      <use xlink:href="#DejaVuSans-29" transform="translate(354.6875 0)"/>
     </g>
    </g>
   </g>
   <g id="matplotlib.axis_2">
    <g id="ytick_1">
     <g id="line2d_9">
      <defs>
       <path id="m1d5181d997" d="M 0 0 
L -3.5 0 
" style="stroke: #000000; stroke-width: 0.8"/>
      </defs>
      <g>
       <use xlink:href="#m1d5181d997" x="53.04095" y="464.906402" style="stroke: #000000; stroke-width: 0.8"/>
      </g>
     </g>
     <g id="text_10">
      <!-- 0 -->
      <g transform="translate(39.67845 468.705621) scale(0.1 -0.1)">
       <use xlink:href="#DejaVuSans-30"/>
      </g>
     </g>
    </g>
    <g id="ytick_2">
     <g id="line2d_10">
      <g>
       <use xlink:href="#m1d5181d997" x="53.04095" y="397.043514" style="stroke: #000000; stroke-width: 0.8"/>
      </g>
     </g>
     <g id="text_11">
      <!-- 50 -->
      <g transform="translate(33.31595 400.842733) scale(0.1 -0.1)">
       <use xlink:href="#DejaVuSans-35"/>
       <use xlink:href="#DejaVuSans-30" transform="translate(63.623047 0)"/>
      </g>
     </g>
    </g>
    <g id="ytick_3">
     <g id="line2d_11">
      <g>
       <use xlink:href="#m1d5181d997" x="53.04095" y="329.180626" style="stroke: #000000; stroke-width: 0.8"/>
      </g>
     </g>
     <g id="text_12">
      <!-- 100 -->
      <g transform="translate(26.95345 332.979844) scale(0.1 -0.1)">
       <use xlink:href="#DejaVuSans-31"/>
       <use xlink:href="#DejaVuSans-30" transform="translate(63.623047 0)"/>
       <use xlink:href="#DejaVuSans-30" transform="translate(127.246094 0)"/>
      </g>
     </g>
    </g>
    <g id="ytick_4">
     <g id="line2d_12">
      <g>
       <use xlink:href="#m1d5181d997" x="53.04095" y="261.317738" style="stroke: #000000; stroke-width: 0.8"/>
      </g>
     </g>
     <g id="text_13">
      <!-- 150 -->
      <g transform="translate(26.95345 265.116956) scale(0.1 -0.1)">
       <use xlink:href="#DejaVuSans-31"/>
       <use xlink:href="#DejaVuSans-35" transform="translate(63.623047 0)"/>
       <use xlink:href="#DejaVuSans-30" transform="translate(127.246094 0)"/>
      </g>
     </g>
    </g>
    <g id="ytick_5">
     <g id="line2d_13">
      <g>
       <use xlink:href="#m1d5181d997" x="53.04095" y="193.454849" style="stroke: #000000; stroke-width: 0.8"/>
      </g>
     </g>
     <g id="text_14">
      <!-- 200 -->
      <g transform="translate(26.95345 197.254068) scale(0.1 -0.1)">
       <use xlink:href="#DejaVuSans-32"/>
       <use xlink:href="#DejaVuSans-30" transform="translate(63.623047 0)"/>
       <use xlink:href="#DejaVuSans-30" transform="translate(127.246094 0)"/>
      </g>
     </g>
    </g>
    <g id="ytick_6">
     <g id="line2d_14">
      <g>
       <use xlink:href="#m1d5181d997" x="53.04095" y="125.591961" style="stroke: #000000; stroke-width: 0.8"/>
      </g>
     </g>
     <g id="text_15">
      <!-- 250 -->
      <g transform="translate(26.95345 129.39118) scale(0.1 -0.1)">
       <use xlink:href="#DejaVuSans-32"/>
       <use xlink:href="#DejaVuSans-35" transform="translate(63.623047 0)"/>
       <use xlink:href="#DejaVuSans-30" transform="translate(127.246094 0)"/>
      </g>
     </g>
    </g>
    <g id="ytick_7">
     <g id="line2d_15">
      <g>
       <use xlink:href="#m1d5181d997" x="53.04095" y="57.729073" style="stroke: #000000; stroke-width: 0.8"/>
      </g>
     </g>
     <g id="text_16">
      <!-- 300 -->
      <g transform="translate(26.95345 61.528292) scale(0.1 -0.1)">
       <use xlink:href="#DejaVuSans-33"/>
       <use xlink:href="#DejaVuSans-30" transform="translate(63.623047 0)"/>
       <use xlink:href="#DejaVuSans-30" transform="translate(127.246094 0)"/>
      </g>
     </g>
    </g>
    <g id="text_17">
     <!-- SoC -->
     <g transform="translate(20.873763 265.937667) rotate(-90) scale(0.1 -0.1)">
      <defs>
       <path id="DejaVuSans-53" d="M 3425 4513 
L 3425 3897 
Q 3066 4069 2747 4153 
Q 2428 4238 2131 4238 
Q 1616 4238 1336 4038 
Q 1056 3838 1056 3469 
Q 1056 3159 1242 3001 
Q 1428 2844 1947 2747 
L 2328 2669 
Q 3034 2534 3370 2195 
Q 3706 1856 3706 1288 
Q 3706 609 3251 259 
Q 2797 -91 1919 -91 
Q 1588 -91 1214 -16 
Q 841 59 441 206 
L 441 856 
Q 825 641 1194 531 
Q 1563 422 1919 422 
Q 2459 422 2753 634 
Q 3047 847 3047 1241 
Q 3047 1584 2836 1778 
Q 2625 1972 2144 2069 
L 1759 2144 
Q 1053 2284 737 2584 
Q 422 2884 422 3419 
Q 422 4038 858 4394 
Q 1294 4750 2059 4750 
Q 2388 4750 2728 4690 
Q 3069 4631 3425 4513 
z
" transform="scale(0.015625)"/>
       <path id="DejaVuSans-6f" d="M 1959 3097 
Q 1497 3097 1228 2736 
Q 959 2375 959 1747 
Q 959 1119 1226 758 
Q 1494 397 1959 397 
Q 2419 397 2687 759 
Q 2956 1122 2956 1747 
Q 2956 2369 2687 2733 
Q 2419 3097 1959 3097 
z
M 1959 3584 
Q 2709 3584 3137 3096 
Q 3566 2609 3566 1747 
Q 3566 888 3137 398 
Q 2709 -91 1959 -91 
Q 1206 -91 779 398 
Q 353 888 353 1747 
Q 353 2609 779 3096 
Q 1206 3584 1959 3584 
z
" transform="scale(0.015625)"/>
       <path id="DejaVuSans-43" d="M 4122 4306 
L 4122 3641 
Q 3803 3938 3442 4084 
Q 3081 4231 2675 4231 
Q 1875 4231 1450 3742 
Q 1025 3253 1025 2328 
Q 1025 1406 1450 917 
Q 1875 428 2675 428 
Q 3081 428 3442 575 
Q 3803 722 4122 1019 
L 4122 359 
Q 3791 134 3420 21 
Q 3050 -91 2638 -91 
Q 1578 -91 968 557 
Q 359 1206 359 2328 
Q 359 3453 968 4101 
Q 1578 4750 2638 4750 
Q 3056 4750 3426 4639 
Q 3797 4528 4122 4306 
z
" transform="scale(0.015625)"/>
      </defs>
      <use xlink:href="#DejaVuSans-53"/>
      <use xlink:href="#DejaVuSans-6f" transform="translate(63.476562 0)"/>
      <use xlink:href="#DejaVuSans-43" transform="translate(124.658203 0)"/>
     </g>
    </g>
   </g>
   <g id="line2d_16">
    <path d="M 84.12358 261.795645 
L 92.87925 261.795645 
L 101.63492 261.795645 
L 110.39059 261.795645 
L 119.146261 261.795645 
L 127.901931 261.795645 
L 136.657601 261.795645 
L 145.413272 261.795645 
L 154.168942 261.795645 
L 162.924612 261.795645 
L 171.680282 261.795645 
L 180.435953 261.795645 
L 189.191623 261.795645 
L 197.947293 261.795645 
L 206.702964 261.795645 
L 215.458634 261.795645 
L 224.214304 261.795645 
L 232.969975 261.795645 
L 241.725645 261.795645 
L 250.481315 261.795645 
L 259.236985 261.795645 
L 267.992656 261.795645 
L 276.748326 261.795645 
L 285.503996 261.795645 
L 294.259667 261.795645 
L 303.015337 261.795645 
L 311.771007 261.795645 
L 320.526677 261.795645 
L 329.282348 261.795645 
L 338.038018 261.795645 
L 346.793688 261.795645 
L 355.549359 261.795645 
L 364.305029 261.795645 
L 373.060699 261.795645 
L 381.81637 261.795645 
L 390.57204 261.795645 
L 399.32771 261.795645 
L 408.08338 261.795645 
L 416.839051 261.795645 
L 425.594721 261.795645 
L 434.350391 261.795645 
L 443.106062 261.795645 
L 451.861732 261.795645 
L 460.617402 261.795645 
L 469.373073 261.795645 
L 478.128743 261.795645 
L 486.884413 261.795645 
L 495.640083 261.795645 
L 504.395754 261.795645 
L 513.151424 261.795645 
L 521.907094 261.795645 
L 530.662765 261.795645 
L 539.418435 261.795645 
L 548.174105 261.795645 
L 556.929775 261.795645 
L 565.685446 261.795645 
L 574.441116 261.795645 
L 583.196786 261.795645 
L 591.952457 261.795645 
L 600.708127 261.795645 
L 609.463797 261.795645 
L 618.219468 261.795645 
L 626.975138 261.795645 
L 635.730808 261.795645 
L 644.486478 261.795645 
L 653.242149 261.795645 
L 661.997819 261.795645 
L 670.753489 261.795645 
L 679.50916 261.795645 
L 688.26483 261.795645 
L 697.0205 261.795645 
L 705.77617 261.795645 
" clip-path="url(#p5dc175127a)" style="fill: none; stroke: #1f77b4; stroke-width: 1.8; stroke-linecap: square"/>
   </g>
   <g id="line2d_17">
    <path d="M 84.12358 261.795645 
L 92.87925 261.795645 
L 101.63492 261.795645 
L 110.39059 261.795645 
L 119.146261 261.795645 
L 127.901931 261.795645 
L 136.657601 261.795645 
L 145.413272 261.795645 
L 154.168942 261.795645 
L 162.924612 261.795645 
L 171.680282 261.795645 
L 180.435953 261.795645 
L 189.191623 261.795645 
L 197.947293 261.795645 
L 206.702964 261.795645 
L 215.458634 261.795645 
L 224.214304 261.795645 
L 232.969975 261.795645 
L 241.725645 261.795645 
L 250.481315 261.795645 
L 259.236985 261.795645 
L 267.992656 261.795645 
L 276.748326 261.795645 
L 285.503996 261.795645 
L 294.259667 261.795645 
L 303.015337 261.795645 
L 311.771007 261.795645 
L 320.526677 261.795645 
L 329.282348 261.795645 
L 338.038018 261.795645 
L 346.793688 261.795645 
L 355.549359 261.795645 
L 364.305029 261.795645 
L 373.060699 261.795645 
L 381.81637 261.795645 
L 390.57204 261.795645 
L 399.32771 261.795645 
L 408.08338 261.795645 
L 416.839051 261.795645 
L 425.594721 261.795645 
L 434.350391 261.795645 
L 443.106062 261.795645 
L 451.861732 261.795645 
L 460.617402 261.795645 
L 469.373073 261.795645 
L 478.128743 261.795645 
L 486.884413 261.795645 
L 495.640083 261.795645 
L 504.395754 261.795645 
L 513.151424 261.795645 
L 521.907094 261.795645 
L 530.662765 261.795645 
L 539.418435 261.795645 
L 548.174105 261.795645 
L 556.929775 261.795645 
L 565.685446 261.795645 
L 574.441116 261.795645 
L 583.196786 261.795645 
L 591.952457 261.795645 
L 600.708127 261.795645 
L 609.463797 261.795645 
L 618.219468 261.795645 
L 626.975138 261.795645 
L 635.730808 261.795645 
L 644.486478 261.795645 
L 653.242149 261.795645 
L 661.997819 261.795645 
L 670.753489 261.795645 
L 679.50916 261.795645 
L 688.26483 261.795645 
L 697.0205 261.795645 
L 705.77617 261.795645 
" clip-path="url(#p5dc175127a)" style="fill: none; stroke: #ff7f0e; stroke-width: 1.8; stroke-linecap: square"/>
   </g>
   <g id="line2d_18">
    <path d="M 84.12358 261.795645 
L 92.87925 261.795645 
L 101.63492 261.795645 
L 110.39059 261.795645 
L 119.146261 261.795645 
L 127.901931 261.795645 
L 136.657601 261.795645 
L 145.413272 261.795645 
L 154.168942 261.795645 
L 162.924612 261.795645 
L 171.680282 261.795645 
L 180.435953 261.795645 
L 189.191623 261.795645 
L 197.947293 261.795645 
L 206.702964 261.795645 
L 215.458634 261.795645 
L 224.214304 261.795645 
L 232.969975 261.795645 
L 241.725645 261.795645 
L 250.481315 261.795645 
L 259.236985 261.795645 
L 267.992656 261.795645 
L 276.748326 261.795645 
L 285.503996 261.795645 
L 294.259667 261.795645 
L 303.015337 261.795645 
L 311.771007 261.795645 
L 320.526677 261.795645 
L 329.282348 261.795645 
L 338.038018 261.795645 
L 346.793688 261.795645 
L 355.549359 261.795645 
L 364.305029 261.795645 
L 373.060699 261.795645 
L 381.81637 261.795645 
L 390.57204 261.795645 
L 399.32771 261.795645 
L 408.08338 261.795645 
L 416.839051 261.795645 
L 425.594721 261.795645 
L 434.350391 261.795645 
L 443.106062 261.795645 
L 451.861732 261.795645 
L 460.617402 261.795645 
L 469.373073 261.795645 
L 478.128743 261.795645 
L 486.884413 261.795645 
L 495.640083 261.795645 
L 504.395754 261.795645 
L 513.151424 261.795645 
L 521.907094 261.795645 
L 530.662765 261.795645 
L 539.418435 261.795645 
L 548.174105 261.795645 
L 556.929775 261.795645 
L 565.685446 261.795645 
L 574.441116 261.795645 
L 583.196786 261.795645 
L 591.952457 261.795645 
L 600.708127 261.795645 
L 609.463797 261.795645 
L 618.219468 261.795645 
L 626.975138 261.795645 
L 635.730808 261.795645 
L 644.486478 261.795645 
L 653.242149 261.795645 
L 661.997819 261.795645 
L 670.753489 261.795645 
L 679.50916 261.795645 
L 688.26483 261.795645 
L 697.0205 261.795645 
L 705.77617 261.795645 
" clip-path="url(#p5dc175127a)" style="fill: none; stroke: #2ca02c; stroke-width: 1.8; stroke-linecap: square"/>
   </g>
   <g id="line2d_19">
    <path d="M 84.12358 261.795645 
L 92.87925 261.795645 
L 101.63492 261.795645 
L 110.39059 261.795645 
L 119.146261 261.795645 
L 127.901931 261.795645 
L 136.657601 261.795645 
L 145.413272 261.795645 
L 154.168942 261.795645 
L 162.924612 261.795645 
L 171.680282 261.795645 
L 180.435953 261.795645 
L 189.191623 261.795645 
L 197.947293 261.795645 
L 206.702964 261.795645 
L 215.458634 261.795645 
L 224.214304 261.795645 
L 232.969975 261.795645 
L 241.725645 261.795645 
L 250.481315 261.795645 
L 259.236985 261.795645 
L 267.992656 261.795645 
L 276.748326 261.795645 
L 285.503996 261.795645 
L 294.259667 261.795645 
L 303.015337 261.795645 
L 311.771007 261.795645 
L 320.526677 261.795645 
L 329.282348 261.795645 
L 338.038018 261.795645 
L 346.793688 261.795645 
L 355.549359 261.795645 
L 364.305029 261.795645 
L 373.060699 261.795645 
L 381.81637 261.795645 
L 390.57204 261.795645 
L 399.32771 261.795645 
L 408.08338 261.795645 
L 416.839051 261.795645 
L 425.594721 261.795645 
L 434.350391 261.795645 
L 443.106062 261.795645 
L 451.861732 261.795645 
L 460.617402 261.795645 
L 469.373073 261.795645 
L 478.128743 261.795645 
L 486.884413 261.795645 
L 495.640083 261.795645 
L 504.395754 261.795645 
L 513.151424 261.795645 
L 521.907094 261.795645 
L 530.662765 261.795645 
L 539.418435 261.795645 
L 548.174105 261.795645 
L 556.929775 261.795645 
L 565.685446 261.795645 
L 574.441116 261.795645 
L 583.196786 261.795645 
L 591.952457 261.795645 
L 600.708127 261.795645 
L 609.463797 261.795645 
L 618.219468 261.795645 
L 626.975138 261.795645 
L 635.730808 261.795645 
L 644.486478 261.795645 
L 653.242149 261.795645 
L 661.997819 261.795645 
L 670.753489 261.795645 
L 679.50916 261.795645 
L 688.26483 261.795645 
L 697.0205 261.795645 
L 705.77617 261.795645 
" clip-path="url(#p5dc175127a)" style="fill: none; stroke: #d62728; stroke-width: 1.8; stroke-linecap: square"/>
   </g>
   <g id="line2d_20">
    <path d="M 84.12358 267.272226 
L 92.87925 267.272226 
L 101.63492 274.771709 
L 110.39059 274.771709 
L 119.146261 274.771709 
L 127.901931 282.155548 
L 136.657601 288.454139 
L 145.413272 288.454139 
L 154.168942 288.454139 
L 162.924612 288.454139 
L 171.680282 288.454139 
L 180.435953 239.201972 
L 189.191623 201.890477 
L 197.947293 201.890477 
L 206.702964 168.706019 
L 215.458634 139.62535 
L 224.214304 100.586417 
L 232.969975 58.684888 
L 241.725645 58.684888 
L 250.481315 58.684888 
L 259.236985 58.684888 
L 267.992656 58.684888 
L 276.748326 133.911095 
L 285.503996 144.194233 
L 294.259667 144.194233 
L 303.015337 173.955823 
L 311.771007 186.032656 
L 320.526677 186.032656 
L 329.282348 214.386657 
L 338.038018 286.419874 
L 346.793688 286.419874 
L 355.549359 286.419874 
L 364.305029 286.419874 
L 373.060699 286.419874 
L 381.81637 286.419874 
L 390.57204 244.385371 
L 399.32771 244.385371 
L 408.08338 191.252103 
L 416.839051 138.999374 
L 425.594721 138.999374 
L 434.350391 99.698725 
L 443.106062 99.698725 
L 451.861732 99.698725 
L 460.617402 99.698725 
L 469.373073 99.698725 
L 478.128743 99.698725 
L 486.884413 99.698725 
L 495.640083 169.89576 
L 504.395754 243.554659 
L 513.151424 243.554659 
L 521.907094 252.104099 
L 530.662765 301.881805 
L 539.418435 301.881805 
L 548.174105 320.75504 
L 556.929775 320.75504 
L 565.685446 320.75504 
L 574.441116 320.75504 
L 583.196786 357.1396 
L 591.952457 335.065273 
L 600.708127 278.684699 
L 609.463797 278.684699 
L 618.219468 219.459761 
L 626.975138 164.099836 
L 635.730808 112.520747 
L 644.486478 112.520747 
L 653.242149 112.520747 
L 661.997819 112.520747 
L 670.753489 112.520747 
L 679.50916 112.520747 
L 688.26483 112.520747 
L 697.0205 187.746954 
L 705.77617 261.795645 
" clip-path="url(#p5dc175127a)" style="fill: none; stroke: #9467bd; stroke-width: 1.8; stroke-linecap: square"/>
   </g>
   <g id="line2d_21">
    <path d="M 84.12358 261.795645 
L 92.87925 261.795645 
L 101.63492 261.795645 
L 110.39059 261.795645 
L 119.146261 261.795645 
L 127.901931 261.795645 
L 136.657601 261.795645 
L 145.413272 261.795645 
L 154.168942 261.795645 
L 162.924612 261.795645 
L 171.680282 261.795645 
L 180.435953 261.795645 
L 189.191623 261.795645 
L 197.947293 261.795645 
L 206.702964 261.795645 
L 215.458634 261.795645 
L 224.214304 261.795645 
L 232.969975 261.795645 
L 241.725645 261.795645 
L 250.481315 261.795645 
L 259.236985 261.795645 
L 267.992656 261.795645 
L 276.748326 261.795645 
L 285.503996 261.795645 
L 294.259667 261.795645 
L 303.015337 261.795645 
L 311.771007 261.795645 
L 320.526677 261.795645 
L 329.282348 261.795645 
L 338.038018 261.795645 
L 346.793688 261.795645 
L 355.549359 261.795645 
L 364.305029 261.795645 
L 373.060699 261.795645 
L 381.81637 261.795645 
L 390.57204 261.795645 
L 399.32771 261.795645 
L 408.08338 261.795645 
L 416.839051 261.795645 
L 425.594721 261.795645 
L 434.350391 261.795645 
L 443.106062 261.795645 
L 451.861732 261.795645 
L 460.617402 261.795645 
L 469.373073 261.795645 
L 478.128743 261.795645 
L 486.884413 261.795645 
L 495.640083 261.795645 
L 504.395754 261.795645 
L 513.151424 261.795645 
L 521.907094 261.795645 
L 530.662765 261.795645 
L 539.418435 261.795645 
L 548.174105 261.795645 
L 556.929775 261.795645 
L 565.685446 261.795645 
L 574.441116 261.795645 
L 583.196786 261.795645 
L 591.952457 261.795645 
L 600.708127 261.795645 
L 609.463797 261.795645 
L 618.219468 261.795645 
L 626.975138 261.795645 
L 635.730808 261.795645 
L 644.486478 261.795645 
L 653.242149 261.795645 
L 661.997819 261.795645 
L 670.753489 261.795645 
L 679.50916 261.795645 
L 688.26483 261.795645 
L 697.0205 261.795645 
L 705.77617 261.795645 
" clip-path="url(#p5dc175127a)" style="fill: none; stroke: #8c564b; stroke-width: 1.8; stroke-linecap: square"/>
   </g>
   <g id="line2d_22">
    <path d="M 84.12358 58.684888 
L 92.87925 58.684888 
L 101.63492 58.684888 
L 110.39059 58.684888 
L 119.146261 58.684888 
L 127.901931 58.684888 
L 136.657601 58.684888 
L 145.413272 58.684888 
L 154.168942 58.684888 
L 162.924612 58.684888 
L 171.680282 58.684888 
L 180.435953 58.684888 
L 189.191623 58.684888 
L 197.947293 58.684888 
L 206.702964 58.684888 
L 215.458634 58.684888 
L 224.214304 58.684888 
L 232.969975 58.684888 
L 241.725645 58.684888 
L 250.481315 58.684888 
L 259.236985 58.684888 
L 267.992656 58.684888 
L 276.748326 58.684888 
L 285.503996 58.684888 
L 294.259667 58.684888 
L 303.015337 58.684888 
L 311.771007 58.684888 
L 320.526677 58.684888 
L 329.282348 58.684888 
L 338.038018 58.684888 
L 346.793688 58.684888 
L 355.549359 58.684888 
L 364.305029 58.684888 
L 373.060699 58.684888 
L 381.81637 58.684888 
L 390.57204 58.684888 
L 399.32771 58.684888 
L 408.08338 58.684888 
L 416.839051 58.684888 
L 425.594721 58.684888 
L 434.350391 58.684888 
L 443.106062 58.684888 
L 451.861732 58.684888 
L 460.617402 58.684888 
L 469.373073 58.684888 
L 478.128743 58.684888 
L 486.884413 58.684888 
L 495.640083 58.684888 
L 504.395754 58.684888 
L 513.151424 58.684888 
L 521.907094 58.684888 
L 530.662765 58.684888 
L 539.418435 58.684888 
L 548.174105 58.684888 
L 556.929775 58.684888 
L 565.685446 58.684888 
L 574.441116 58.684888 
L 583.196786 58.684888 
L 591.952457 58.684888 
L 600.708127 58.684888 
L 609.463797 58.684888 
L 618.219468 58.684888 
L 626.975138 58.684888 
L 635.730808 58.684888 
L 644.486478 58.684888 
L 653.242149 58.684888 
L 661.997819 58.684888 
L 670.753489 58.684888 
L 679.50916 58.684888 
L 688.26483 58.684888 
L 697.0205 58.684888 
L 705.77617 58.684888 
" clip-path="url(#p5dc175127a)" style="fill: none; stroke: #e377c2; stroke-width: 1.8; stroke-linecap: square"/>
   </g>
   <g id="line2d_23">
    <path d="M 84.12358 58.684888 
L 92.87925 58.684888 
L 101.63492 58.684888 
L 110.39059 58.684888 
L 119.146261 58.684888 
L 127.901931 58.684888 
L 136.657601 58.684888 
L 145.413272 58.684888 
L 154.168942 58.684888 
L 162.924612 58.684888 
L 171.680282 58.684888 
L 180.435953 58.684888 
L 189.191623 58.684888 
L 197.947293 58.684888 
L 206.702964 58.684888 
L 215.458634 58.684888 
L 224.214304 58.684888 
L 232.969975 58.684888 
L 241.725645 58.684888 
L 250.481315 58.684888 
L 259.236985 58.684888 
L 267.992656 58.684888 
L 276.748326 58.684888 
L 285.503996 58.684888 
L 294.259667 58.684888 
L 303.015337 58.684888 
L 311.771007 58.684888 
L 320.526677 58.684888 
L 329.282348 58.684888 
L 338.038018 58.684888 
L 346.793688 58.684888 
L 355.549359 58.684888 
L 364.305029 58.684888 
L 373.060699 58.684888 
L 381.81637 58.684888 
L 390.57204 58.684888 
L 399.32771 58.684888 
L 408.08338 58.684888 
L 416.839051 58.684888 
L 425.594721 58.684888 
L 434.350391 58.684888 
L 443.106062 58.684888 
L 451.861732 58.684888 
L 460.617402 58.684888 
L 469.373073 58.684888 
L 478.128743 58.684888 
L 486.884413 58.684888 
L 495.640083 58.684888 
L 504.395754 71.330515 
L 513.151424 71.330515 
L 521.907094 82.161706 
L 530.662765 87.922422 
L 539.418435 87.922422 
L 548.174105 87.922422 
L 556.929775 94.664191 
L 565.685446 94.664191 
L 574.441116 104.799187 
L 583.196786 113.258215 
L 591.952457 119.975296 
L 600.708127 119.549128 
L 609.463797 113.123315 
L 618.219468 107.407444 
L 626.975138 105.528364 
L 635.730808 105.528364 
L 644.486478 105.528364 
L 653.242149 105.528364 
L 661.997819 97.608312 
L 670.753489 82.603939 
L 679.50916 69.063291 
L 688.26483 51.815697 
L 697.0205 58.684888 
L 705.77617 58.684888 
" clip-path="url(#p5dc175127a)" style="fill: none; stroke: #7f7f7f; stroke-width: 1.8; stroke-linecap: square"/>
   </g>
   <g id="line2d_24">
    <path d="M 84.12358 58.684888 
L 92.87925 58.684888 
L 101.63492 58.684888 
L 110.39059 58.684888 
L 119.146261 58.684888 
L 127.901931 58.684888 
L 136.657601 58.684888 
L 145.413272 58.684888 
L 154.168942 58.684888 
L 162.924612 58.684888 
L 171.680282 58.684888 
L 180.435953 58.684888 
L 189.191623 58.684888 
L 197.947293 58.684888 
L 206.702964 58.684888 
L 215.458634 58.684888 
L 224.214304 58.684888 
L 232.969975 58.684888 
L 241.725645 58.684888 
L 250.481315 58.684888 
L 259.236985 58.684888 
L 267.992656 58.684888 
L 276.748326 58.684888 
L 285.503996 58.684888 
L 294.259667 58.684888 
L 303.015337 58.684888 
L 311.771007 58.684888 
L 320.526677 58.684888 
L 329.282348 58.684888 
L 338.038018 58.684888 
L 346.793688 58.684888 
L 355.549359 58.684888 
L 364.305029 58.684888 
L 373.060699 58.684888 
L 381.81637 58.684888 
L 390.57204 58.684888 
L 399.32771 58.684888 
L 408.08338 58.684888 
L 416.839051 58.684888 
L 425.594721 58.684888 
L 434.350391 58.684888 
L 443.106062 58.684888 
L 451.861732 58.684888 
L 460.617402 58.684888 
L 469.373073 58.684888 
L 478.128743 58.684888 
L 486.884413 58.684888 
L 495.640083 58.684888 
L 504.395754 58.684888 
L 513.151424 58.684888 
L 521.907094 58.684888 
L 530.662765 58.684888 
L 539.418435 58.684888 
L 548.174105 58.684888 
L 556.929775 58.684888 
L 565.685446 58.684888 
L 574.441116 58.684888 
L 583.196786 58.684888 
L 591.952457 58.684888 
L 600.708127 58.684888 
L 609.463797 58.684888 
L 618.219468 58.684888 
L 626.975138 58.684888 
L 635.730808 58.684888 
L 644.486478 58.684888 
L 653.242149 58.684888 
L 661.997819 58.684888 
L 670.753489 58.684888 
L 679.50916 58.684888 
L 688.26483 58.684888 
L 697.0205 58.684888 
L 705.77617 58.684888 
" clip-path="url(#p5dc175127a)" style="fill: none; stroke: #bcbd22; stroke-width: 1.8; stroke-linecap: square"/>
   </g>
   <g id="line2d_25">
    <path d="M 84.12358 351.164378 
L 92.87925 351.164378 
L 101.63492 351.164378 
L 110.39059 351.164378 
L 119.146261 351.164378 
L 127.901931 351.164378 
L 136.657601 351.164378 
L 145.413272 351.164378 
L 154.168942 351.164378 
L 162.924612 351.164378 
L 171.680282 351.164378 
L 180.435953 351.164378 
L 189.191623 351.164378 
L 197.947293 351.164378 
L 206.702964 351.164378 
L 215.458634 351.164378 
L 224.214304 351.164378 
L 232.969975 351.164378 
L 241.725645 351.164378 
L 250.481315 351.164378 
L 259.236985 351.164378 
L 267.992656 351.164378 
L 276.748326 351.164378 
L 285.503996 351.164378 
L 294.259667 351.164378 
L 303.015337 351.164378 
L 311.771007 351.164378 
L 320.526677 351.164378 
L 329.282348 351.164378 
L 338.038018 351.164378 
L 346.793688 351.164378 
L 355.549359 351.164378 
L 364.305029 351.164378 
L 373.060699 351.164378 
L 381.81637 351.164378 
L 390.57204 351.164378 
L 399.32771 351.164378 
L 408.08338 351.164378 
L 416.839051 351.164378 
L 425.594721 351.164378 
L 434.350391 351.164378 
L 443.106062 351.164378 
L 451.861732 351.164378 
L 460.617402 351.164378 
L 469.373073 351.164378 
L 478.128743 351.164378 
L 486.884413 351.164378 
L 495.640083 351.164378 
L 504.395754 351.164378 
L 513.151424 351.164378 
L 521.907094 351.164378 
L 530.662765 351.164378 
L 539.418435 351.164378 
L 548.174105 351.164378 
L 556.929775 351.164378 
L 565.685446 351.164378 
L 574.441116 351.164378 
L 583.196786 351.164378 
L 591.952457 351.164378 
L 600.708127 351.164378 
L 609.463797 351.164378 
L 618.219468 351.164378 
L 626.975138 351.164378 
L 635.730808 351.164378 
L 644.486478 351.164378 
L 653.242149 351.164378 
L 661.997819 351.164378 
L 670.753489 351.164378 
L 679.50916 351.164378 
L 688.26483 351.164378 
L 697.0205 351.164378 
L 705.77617 351.164378 
" clip-path="url(#p5dc175127a)" style="fill: none; stroke: #17becf; stroke-width: 1.8; stroke-linecap: square"/>
   </g>
   <g id="line2d_26">
    <path d="M 84.12358 351.164378 
L 92.87925 351.164378 
L 101.63492 351.164378 
L 110.39059 351.164378 
L 119.146261 351.164378 
L 127.901931 351.164378 
L 136.657601 351.164378 
L 145.413272 351.164378 
L 154.168942 351.164378 
L 162.924612 351.164378 
L 171.680282 351.164378 
L 180.435953 351.164378 
L 189.191623 351.164378 
L 197.947293 351.164378 
L 206.702964 351.164378 
L 215.458634 351.164378 
L 224.214304 351.164378 
L 232.969975 351.164378 
L 241.725645 351.164378 
L 250.481315 351.164378 
L 259.236985 351.164378 
L 267.992656 351.164378 
L 276.748326 351.164378 
L 285.503996 351.164378 
L 294.259667 351.164378 
L 303.015337 351.164378 
L 311.771007 351.164378 
L 320.526677 351.164378 
L 329.282348 351.164378 
L 338.038018 351.164378 
L 346.793688 351.164378 
L 355.549359 351.164378 
L 364.305029 351.164378 
L 373.060699 351.164378 
L 381.81637 351.164378 
L 390.57204 351.164378 
L 399.32771 351.164378 
L 408.08338 351.164378 
L 416.839051 351.164378 
L 425.594721 351.164378 
L 434.350391 351.164378 
L 443.106062 351.164378 
L 451.861732 351.164378 
L 460.617402 351.164378 
L 469.373073 351.164378 
L 478.128743 351.164378 
L 486.884413 351.164378 
L 495.640083 351.164378 
L 504.395754 351.164378 
L 513.151424 351.164378 
L 521.907094 351.164378 
L 530.662765 351.164378 
L 539.418435 351.164378 
L 548.174105 351.164378 
L 556.929775 351.164378 
L 565.685446 351.164378 
L 574.441116 351.164378 
L 583.196786 351.164378 
L 591.952457 351.164378 
L 600.708127 351.164378 
L 609.463797 351.164378 
L 618.219468 351.164378 
L 626.975138 351.164378 
L 635.730808 351.164378 
L 644.486478 351.164378 
L 653.242149 351.164378 
L 661.997819 351.164378 
L 670.753489 351.164378 
L 679.50916 351.164378 
L 688.26483 351.164378 
L 697.0205 351.164378 
L 705.77617 351.164378 
" clip-path="url(#p5dc175127a)" style="fill: none; stroke: #1f77b4; stroke-width: 1.8; stroke-linecap: square"/>
   </g>
   <g id="line2d_27">
    <path d="M 84.12358 351.164378 
L 92.87925 351.164378 
L 101.63492 351.164378 
L 110.39059 351.164378 
L 119.146261 351.164378 
L 127.901931 351.164378 
L 136.657601 351.164378 
L 145.413272 351.164378 
L 154.168942 351.164378 
L 162.924612 351.164378 
L 171.680282 351.164378 
L 180.435953 351.164378 
L 189.191623 351.164378 
L 197.947293 351.164378 
L 206.702964 351.164378 
L 215.458634 351.164378 
L 224.214304 351.164378 
L 232.969975 351.164378 
L 241.725645 351.164378 
L 250.481315 351.164378 
L 259.236985 351.164378 
L 267.992656 351.164378 
L 276.748326 351.164378 
L 285.503996 351.164378 
L 294.259667 351.164378 
L 303.015337 351.164378 
L 311.771007 351.164378 
L 320.526677 351.164378 
L 329.282348 351.164378 
L 338.038018 351.164378 
L 346.793688 351.164378 
L 355.549359 351.164378 
L 364.305029 351.164378 
L 373.060699 351.164378 
L 381.81637 351.164378 
L 390.57204 351.164378 
L 399.32771 351.164378 
L 408.08338 351.164378 
L 416.839051 351.164378 
L 425.594721 351.164378 
L 434.350391 351.164378 
L 443.106062 351.164378 
L 451.861732 351.164378 
L 460.617402 351.164378 
L 469.373073 351.164378 
L 478.128743 351.164378 
L 486.884413 351.164378 
L 495.640083 351.164378 
L 504.395754 351.164378 
L 513.151424 351.164378 
L 521.907094 351.164378 
L 530.662765 351.164378 
L 539.418435 351.164378 
L 548.174105 351.164378 
L 556.929775 351.164378 
L 565.685446 351.164378 
L 574.441116 351.164378 
L 583.196786 351.164378 
L 591.952457 351.164378 
L 600.708127 351.164378 
L 609.463797 351.164378 
L 618.219468 351.164378 
L 626.975138 351.164378 
L 635.730808 351.164378 
L 644.486478 351.164378 
L 653.242149 351.164378 
L 661.997819 351.164378 
L 670.753489 351.164378 
L 679.50916 351.164378 
L 688.26483 351.164378 
L 697.0205 351.164378 
L 705.77617 351.164378 
" clip-path="url(#p5dc175127a)" style="fill: none; stroke: #ff7f0e; stroke-width: 1.8; stroke-linecap: square"/>
   </g>
   <g id="line2d_28">
    <path d="M 84.12358 351.164378 
L 92.87925 351.164378 
L 101.63492 351.164378 
L 110.39059 351.164378 
L 119.146261 358.648702 
L 127.901931 358.648702 
L 136.657601 358.648702 
L 145.413272 358.648702 
L 154.168942 358.648702 
L 162.924612 387.40425 
L 171.680282 349.447905 
L 180.435953 349.447905 
L 189.191623 349.447905 
L 197.947293 315.296398 
L 206.702964 315.296398 
L 215.458634 315.296398 
L 224.214304 315.296398 
L 232.969975 315.296398 
L 241.725645 315.296398 
L 250.481315 315.296398 
L 259.236985 315.296398 
L 267.992656 315.296398 
L 276.748326 315.296398 
L 285.503996 315.296398 
L 294.259667 323.955167 
L 303.015337 323.955167 
L 311.771007 323.955167 
L 320.526677 324.187494 
L 329.282348 324.187494 
L 338.038018 324.187494 
L 346.793688 324.187494 
L 355.549359 324.187494 
L 364.305029 324.187494 
L 373.060699 324.187494 
L 381.81637 307.0839 
L 390.57204 307.0839 
L 399.32771 264.041028 
L 408.08338 264.041028 
L 416.839051 264.041028 
L 425.594721 243.216873 
L 434.350391 243.216873 
L 443.106062 243.216873 
L 451.861732 243.216873 
L 460.617402 243.216873 
L 469.373073 243.216873 
L 478.128743 243.216873 
L 486.884413 269.103071 
L 495.640083 269.103071 
L 504.395754 269.103071 
L 513.151424 294.507521 
L 521.907094 326.612059 
L 530.662765 326.612059 
L 539.418435 389.802072 
L 548.174105 452.992086 
L 556.929775 460.609636 
L 565.685446 460.609636 
L 574.441116 460.609636 
L 583.196786 460.609636 
L 591.952457 460.609636 
L 600.708127 460.609636 
L 609.463797 413.319765 
L 618.219468 413.319765 
L 626.975138 413.319765 
L 635.730808 413.319765 
L 644.486478 372.186523 
L 653.242149 350.610499 
L 661.997819 350.610499 
L 670.753489 350.610499 
L 679.50916 350.610499 
L 688.26483 351.164378 
L 697.0205 351.164378 
L 705.77617 351.164378 
" clip-path="url(#p5dc175127a)" style="fill: none; stroke: #2ca02c; stroke-width: 1.8; stroke-linecap: square"/>
   </g>
   <g id="line2d_29">
    <path d="M 84.12358 350.668343 
L 92.87925 349.914248 
L 101.63492 349.502894 
L 110.39059 345.738337 
L 119.146261 341.92131 
L 127.901931 341.92131 
L 136.657601 341.92131 
L 145.413272 335.763914 
L 154.168942 326.589431 
L 162.924612 326.589431 
L 171.680282 319.750474 
L 180.435953 319.750474 
L 189.191623 319.750474 
L 197.947293 319.750474 
L 206.702964 325.473042 
L 215.458634 327.347736 
L 224.214304 329.800991 
L 232.969975 329.389731 
L 241.725645 324.986825 
L 250.481315 324.986825 
L 259.236985 324.986825 
L 267.992656 330.288148 
L 276.748326 334.631296 
L 285.503996 340.850422 
L 294.259667 346.567925 
L 303.015337 349.300069 
L 311.771007 350.392594 
L 320.526677 350.91926 
L 329.282348 351.631069 
L 338.038018 352.354069 
L 346.793688 352.896359 
L 355.549359 353.997639 
L 364.305029 351.948055 
L 373.060699 351.948055 
L 381.81637 352.546363 
L 390.57204 352.736392 
L 399.32771 354.174561 
L 408.08338 355.263578 
L 416.839051 355.263578 
L 425.594721 352.928058 
L 434.350391 352.928058 
L 443.106062 350.058216 
L 451.861732 350.058216 
L 460.617402 350.058216 
L 469.373073 350.59264 
L 478.128743 350.59264 
L 486.884413 351.01338 
L 495.640083 351.164378 
L 504.395754 351.164378 
L 513.151424 351.164378 
L 521.907094 351.164378 
L 530.662765 351.164378 
L 539.418435 351.164378 
L 548.174105 351.164378 
L 556.929775 351.164378 
L 565.685446 351.164378 
L 574.441116 351.164378 
L 583.196786 351.164378 
L 591.952457 351.164378 
L 600.708127 351.164378 
L 609.463797 351.164378 
L 618.219468 351.164378 
L 626.975138 351.164378 
L 635.730808 351.164378 
L 644.486478 351.164378 
L 653.242149 351.164378 
L 661.997819 351.164378 
L 670.753489 351.164378 
L 679.50916 351.164378 
L 688.26483 351.164378 
L 697.0205 351.164378 
L 705.77617 351.164378 
" clip-path="url(#p5dc175127a)" style="fill: none; stroke: #d62728; stroke-width: 1.8; stroke-linecap: square"/>
   </g>
   <g id="line2d_30">
    <path d="M 84.12358 351.164378 
L 92.87925 353.955475 
L 101.63492 353.955475 
L 110.39059 360.124886 
L 119.146261 360.124886 
L 127.901931 360.124886 
L 136.657601 360.124886 
L 145.413272 360.124886 
L 154.168942 360.124886 
L 162.924612 360.124886 
L 171.680282 346.027592 
L 180.435953 346.027592 
L 189.191623 320.435636 
L 197.947293 294.843681 
L 206.702964 269.251726 
L 215.458634 243.65977 
L 224.214304 237.422354 
L 232.969975 237.422354 
L 241.725645 237.422354 
L 250.481315 237.422354 
L 259.236985 237.422354 
L 267.992656 237.422354 
L 276.748326 253.69003 
L 285.503996 253.69003 
L 294.259667 253.69003 
L 303.015337 253.69003 
L 311.771007 285.285037 
L 320.526677 316.880044 
L 329.282348 348.47505 
L 338.038018 348.47505 
L 346.793688 357.921787 
L 355.549359 361.158912 
L 364.305029 361.158912 
L 373.060699 361.158912 
L 381.81637 361.158912 
L 390.57204 361.158912 
L 399.32771 356.848125 
L 408.08338 356.848125 
L 416.839051 356.848125 
L 425.594721 331.256169 
L 434.350391 331.256169 
L 443.106062 305.664214 
L 451.861732 305.664214 
L 460.617402 305.664214 
L 469.373073 305.664214 
L 478.128743 305.664214 
L 486.884413 337.259221 
L 495.640083 337.259221 
L 504.395754 337.259221 
L 513.151424 337.259221 
L 521.907094 337.259221 
L 530.662765 337.259221 
L 539.418435 359.706673 
L 548.174105 359.706673 
L 556.929775 359.706673 
L 565.685446 359.706673 
L 574.441116 359.706673 
L 583.196786 359.706673 
L 591.952457 359.706673 
L 600.708127 359.706673 
L 609.463797 359.706673 
L 618.219468 359.706673 
L 626.975138 359.706673 
L 635.730808 359.706673 
L 644.486478 359.706673 
L 653.242149 334.114718 
L 661.997819 334.114718 
L 670.753489 334.114718 
L 679.50916 334.114718 
L 688.26483 334.114718 
L 697.0205 351.164378 
L 705.77617 351.164378 
" clip-path="url(#p5dc175127a)" style="fill: none; stroke: #9467bd; stroke-width: 1.8; stroke-linecap: square"/>
   </g>
   <g id="line2d_31">
    <path d="M 84.12358 351.164378 
L 92.87925 351.164378 
L 101.63492 351.164378 
L 110.39059 351.164378 
L 119.146261 351.164378 
L 127.901931 351.164378 
L 136.657601 351.164378 
L 145.413272 351.164378 
L 154.168942 351.164378 
L 162.924612 351.164378 
L 171.680282 351.164378 
L 180.435953 351.164378 
L 189.191623 351.164378 
L 197.947293 351.164378 
L 206.702964 351.164378 
L 215.458634 351.164378 
L 224.214304 351.164378 
L 232.969975 351.164378 
L 241.725645 351.164378 
L 250.481315 351.164378 
L 259.236985 351.164378 
L 267.992656 351.164378 
L 276.748326 351.164378 
L 285.503996 351.164378 
L 294.259667 351.164378 
L 303.015337 351.164378 
L 311.771007 351.164378 
L 320.526677 351.164378 
L 329.282348 351.164378 
L 338.038018 351.164378 
L 346.793688 351.164378 
L 355.549359 351.164378 
L 364.305029 351.164378 
L 373.060699 351.164378 
L 381.81637 351.164378 
L 390.57204 351.164378 
L 399.32771 351.164378 
L 408.08338 351.164378 
L 416.839051 351.164378 
L 425.594721 351.164378 
L 434.350391 351.164378 
L 443.106062 351.164378 
L 451.861732 351.164378 
L 460.617402 351.164378 
L 469.373073 351.164378 
L 478.128743 351.164378 
L 486.884413 351.164378 
L 495.640083 351.164378 
L 504.395754 351.164378 
L 513.151424 351.164378 
L 521.907094 351.164378 
L 530.662765 351.164378 
L 539.418435 351.164378 
L 548.174105 351.164378 
L 556.929775 351.164378 
L 565.685446 351.164378 
L 574.441116 351.164378 
L 583.196786 351.164378 
L 591.952457 351.164378 
L 600.708127 351.164378 
L 609.463797 351.164378 
L 618.219468 351.164378 
L 626.975138 351.164378 
L 635.730808 351.164378 
L 644.486478 351.164378 
L 653.242149 351.164378 
L 661.997819 351.164378 
L 670.753489 351.164378 
L 679.50916 351.164378 
L 688.26483 351.164378 
L 697.0205 351.164378 
L 705.77617 351.164378 
" clip-path="url(#p5dc175127a)" style="fill: none; stroke: #8c564b; stroke-width: 1.8; stroke-linecap: square"/>
   </g>
   <g id="line2d_32">
    <path d="M 84.12358 351.164378 
L 92.87925 351.164378 
L 101.63492 351.164378 
L 110.39059 351.164378 
L 119.146261 351.164378 
L 127.901931 351.164378 
L 136.657601 351.164378 
L 145.413272 351.164378 
L 154.168942 351.164378 
L 162.924612 351.164378 
L 171.680282 351.164378 
L 180.435953 351.164378 
L 189.191623 351.164378 
L 197.947293 351.164378 
L 206.702964 351.164378 
L 215.458634 351.164378 
L 224.214304 351.164378 
L 232.969975 351.164378 
L 241.725645 351.164378 
L 250.481315 351.164378 
L 259.236985 351.164378 
L 267.992656 351.164378 
L 276.748326 351.164378 
L 285.503996 351.164378 
L 294.259667 351.164378 
L 303.015337 351.164378 
L 311.771007 351.164378 
L 320.526677 351.164378 
L 329.282348 351.164378 
L 338.038018 351.164378 
L 346.793688 351.164378 
L 355.549359 351.164378 
L 364.305029 351.164378 
L 373.060699 351.164378 
L 381.81637 351.164378 
L 390.57204 351.164378 
L 399.32771 351.164378 
L 408.08338 351.164378 
L 416.839051 351.164378 
L 425.594721 351.164378 
L 434.350391 351.164378 
L 443.106062 351.164378 
L 451.861732 351.164378 
L 460.617402 351.164378 
L 469.373073 351.164378 
L 478.128743 351.164378 
L 486.884413 351.164378 
L 495.640083 351.164378 
L 504.395754 351.164378 
L 513.151424 351.164378 
L 521.907094 351.164378 
L 530.662765 351.164378 
L 539.418435 351.164378 
L 548.174105 351.164378 
L 556.929775 351.164378 
L 565.685446 351.164378 
L 574.441116 351.164378 
L 583.196786 351.164378 
L 591.952457 351.164378 
L 600.708127 351.164378 
L 609.463797 351.164378 
L 618.219468 351.164378 
L 626.975138 351.164378 
L 635.730808 351.164378 
L 644.486478 351.164378 
L 653.242149 351.164378 
L 661.997819 351.164378 
L 670.753489 351.164378 
L 679.50916 351.164378 
L 688.26483 351.164378 
L 697.0205 351.164378 
L 705.77617 351.164378 
" clip-path="url(#p5dc175127a)" style="fill: none; stroke: #e377c2; stroke-width: 1.8; stroke-linecap: square"/>
   </g>
   <g id="line2d_33">
    <path d="M 84.12358 351.164378 
L 92.87925 351.164378 
L 101.63492 351.164378 
L 110.39059 351.164378 
L 119.146261 351.164378 
L 127.901931 351.164378 
L 136.657601 351.164378 
L 145.413272 351.164378 
L 154.168942 351.164378 
L 162.924612 351.164378 
L 171.680282 351.164378 
L 180.435953 351.164378 
L 189.191623 351.164378 
L 197.947293 351.164378 
L 206.702964 351.164378 
L 215.458634 351.164378 
L 224.214304 351.164378 
L 232.969975 351.164378 
L 241.725645 351.164378 
L 250.481315 351.164378 
L 259.236985 351.164378 
L 267.992656 351.164378 
L 276.748326 351.164378 
L 285.503996 351.164378 
L 294.259667 351.164378 
L 303.015337 351.164378 
L 311.771007 351.164378 
L 320.526677 351.164378 
L 329.282348 351.164378 
L 338.038018 351.164378 
L 346.793688 351.164378 
L 355.549359 351.164378 
L 364.305029 351.164378 
L 373.060699 351.164378 
L 381.81637 351.164378 
L 390.57204 351.164378 
L 399.32771 351.164378 
L 408.08338 351.164378 
L 416.839051 351.164378 
L 425.594721 351.164378 
L 434.350391 351.164378 
L 443.106062 351.164378 
L 451.861732 351.164378 
L 460.617402 351.164378 
L 469.373073 351.164378 
L 478.128743 351.164378 
L 486.884413 351.164378 
L 495.640083 351.164378 
L 504.395754 351.164378 
L 513.151424 351.164378 
L 521.907094 351.164378 
L 530.662765 351.164378 
L 539.418435 351.164378 
L 548.174105 351.164378 
L 556.929775 351.164378 
L 565.685446 351.164378 
L 574.441116 351.164378 
L 583.196786 351.164378 
L 591.952457 351.164378 
L 600.708127 351.164378 
L 609.463797 351.164378 
L 618.219468 351.164378 
L 626.975138 351.164378 
L 635.730808 351.164378 
L 644.486478 351.164378 
L 653.242149 351.164378 
L 661.997819 351.164378 
L 670.753489 351.164378 
L 679.50916 351.164378 
L 688.26483 351.164378 
L 697.0205 351.164378 
L 705.77617 351.164378 
" clip-path="url(#p5dc175127a)" style="fill: none; stroke: #7f7f7f; stroke-width: 1.8; stroke-linecap: square"/>
   </g>
   <g id="patch_3">
    <path d="M 53.04095 481.049333 
L 53.04095 31.376 
" style="fill: none; stroke: #000000; stroke-width: 0.8; stroke-linejoin: miter; stroke-linecap: square"/>
   </g>
   <g id="patch_4">
    <path d="M 736.8588 481.049333 
L 736.8588 31.376 
" style="fill: none; stroke: #000000; stroke-width: 0.8; stroke-linejoin: miter; stroke-linecap: square"/>
   </g>
   <g id="patch_5">
    <path d="M 53.04095 481.049333 
L 736.8588 481.049333 
" style="fill: none; stroke: #000000; stroke-width: 0.8; stroke-linejoin: miter; stroke-linecap: square"/>
   </g>
   <g id="patch_6">
    <path d="M 53.04095 31.376 
L 736.8588 31.376 
" style="fill: none; stroke: #000000; stroke-width: 0.8; stroke-linejoin: miter; stroke-linecap: square"/>
   </g>
   <g id="text_18">
    <!-- SoC by battery (T=72, Monolithic UC) -->
    <g transform="translate(282.21175 25.376) scale(0.12 -0.12)">
     <defs>
      <path id="DejaVuSans-62" d="M 3116 1747 
Q 3116 2381 2855 2742 
Q 2594 3103 2138 3103 
Q 1681 3103 1420 2742 
Q 1159 2381 1159 1747 
Q 1159 1113 1420 752 
Q 1681 391 2138 391 
Q 2594 391 2855 752 
Q 3116 1113 3116 1747 
z
M 1159 2969 
Q 1341 3281 1617 3432 
Q 1894 3584 2278 3584 
Q 2916 3584 3314 3078 
Q 3713 2572 3713 1747 
Q 3713 922 3314 415 
Q 2916 -91 2278 -91 
Q 1894 -91 1617 61 
Q 1341 213 1159 525 
L 1159 0 
L 581 0 
L 581 4863 
L 1159 4863 
L 1159 2969 
z
" transform="scale(0.015625)"/>
      <path id="DejaVuSans-79" d="M 2059 -325 
Q 1816 -950 1584 -1140 
Q 1353 -1331 966 -1331 
L 506 -1331 
L 506 -850 
L 844 -850 
Q 1081 -850 1212 -737 
Q 1344 -625 1503 -206 
L 1606 56 
L 191 3500 
L 800 3500 
L 1894 763 
L 2988 3500 
L 3597 3500 
L 2059 -325 
z
" transform="scale(0.015625)"/>
      <path id="DejaVuSans-61" d="M 2194 1759 
Q 1497 1759 1228 1600 
Q 959 1441 959 1056 
Q 959 750 1161 570 
Q 1363 391 1709 391 
Q 2188 391 2477 730 
Q 2766 1069 2766 1631 
L 2766 1759 
L 2194 1759 
z
M 3341 1997 
L 3341 0 
L 2766 0 
L 2766 531 
Q 2569 213 2275 61 
Q 1981 -91 1556 -91 
Q 1019 -91 701 211 
Q 384 513 384 1019 
Q 384 1609 779 1909 
Q 1175 2209 1959 2209 
L 2766 2209 
L 2766 2266 
Q 2766 2663 2505 2880 
Q 2244 3097 1772 3097 
Q 1472 3097 1187 3025 
Q 903 2953 641 2809 
L 641 3341 
Q 956 3463 1253 3523 
Q 1550 3584 1831 3584 
Q 2591 3584 2966 3190 
Q 3341 2797 3341 1997 
z
" transform="scale(0.015625)"/>
      <path id="DejaVuSans-72" d="M 2631 2963 
Q 2534 3019 2420 3045 
Q 2306 3072 2169 3072 
Q 1681 3072 1420 2755 
Q 1159 2438 1159 1844 
L 1159 0 
L 581 0 
L 581 3500 
L 1159 3500 
L 1159 2956 
Q 1341 3275 1631 3429 
Q 1922 3584 2338 3584 
Q 2397 3584 2469 3576 
Q 2541 3569 2628 3553 
L 2631 2963 
z
" transform="scale(0.015625)"/>
      <path id="DejaVuSans-3d" d="M 678 2906 
L 4684 2906 
L 4684 2381 
L 678 2381 
L 678 2906 
z
M 678 1631 
L 4684 1631 
L 4684 1100 
L 678 1100 
L 678 1631 
z
" transform="scale(0.015625)"/>
      <path id="DejaVuSans-2c" d="M 750 794 
L 1409 794 
L 1409 256 
L 897 -744 
L 494 -744 
L 750 256 
L 750 794 
z
" transform="scale(0.015625)"/>
      <path id="DejaVuSans-4d" d="M 628 4666 
L 1569 4666 
L 2759 1491 
L 3956 4666 
L 4897 4666 
L 4897 0 
L 4281 0 
L 4281 4097 
L 3078 897 
L 2444 897 
L 1241 4097 
L 1241 0 
L 628 0 
L 628 4666 
z
" transform="scale(0.015625)"/>
      <path id="DejaVuSans-6e" d="M 3513 2113 
L 3513 0 
L 2938 0 
L 2938 2094 
Q 2938 2591 2744 2837 
Q 2550 3084 2163 3084 
Q 1697 3084 1428 2787 
Q 1159 2491 1159 1978 
L 1159 0 
L 581 0 
L 581 3500 
L 1159 3500 
L 1159 2956 
Q 1366 3272 1645 3428 
Q 1925 3584 2291 3584 
Q 2894 3584 3203 3211 
Q 3513 2838 3513 2113 
z
" transform="scale(0.015625)"/>
      <path id="DejaVuSans-6c" d="M 603 4863 
L 1178 4863 
L 1178 0 
L 603 0 
L 603 4863 
z
" transform="scale(0.015625)"/>
      <path id="DejaVuSans-68" d="M 3513 2113 
L 3513 0 
L 2938 0 
L 2938 2094 
Q 2938 2591 2744 2837 
Q 2550 3084 2163 3084 
Q 1697 3084 1428 2787 
Q 1159 2491 1159 1978 
L 1159 0 
L 581 0 
L 581 4863 
L 1159 4863 
L 1159 2956 
Q 1366 3272 1645 3428 
Q 1925 3584 2291 3584 
Q 2894 3584 3203 3211 
Q 3513 2838 3513 2113 
z
" transform="scale(0.015625)"/>
      <path id="DejaVuSans-63" d="M 3122 3366 
L 3122 2828 
Q 2878 2963 2633 3030 
Q 2388 3097 2138 3097 
Q 1578 3097 1268 2742 
Q 959 2388 959 1747 
Q 959 1106 1268 751 
Q 1578 397 2138 397 
Q 2388 397 2633 464 
Q 2878 531 3122 666 
L 3122 134 
Q 2881 22 2623 -34 
Q 2366 -91 2075 -91 
Q 1284 -91 818 406 
Q 353 903 353 1747 
Q 353 2603 823 3093 
Q 1294 3584 2113 3584 
Q 2378 3584 2631 3529 
Q 2884 3475 3122 3366 
z
" transform="scale(0.015625)"/>
      <path id="DejaVuSans-55" d="M 556 4666 
L 1191 4666 
L 1191 1831 
Q 1191 1081 1462 751 
Q 1734 422 2344 422 
Q 2950 422 3222 751 
Q 3494 1081 3494 1831 
L 3494 4666 
L 4128 4666 
L 4128 1753 
Q 4128 841 3676 375 
Q 3225 -91 2344 -91 
Q 1459 -91 1007 375 
Q 556 841 556 1753 
L 556 4666 
z
" transform="scale(0.015625)"/>
     </defs>
     <use xlink:href="#DejaVuSans-53"/>
     <use xlink:href="#DejaVuSans-6f" transform="translate(63.476562 0)"/>
     <use xlink:href="#DejaVuSans-43" transform="translate(124.658203 0)"/>
     <use xlink:href="#DejaVuSans-20" transform="translate(194.482422 0)"/>
     <use xlink:href="#DejaVuSans-62" transform="translate(226.269531 0)"/>
     <use xlink:href="#DejaVuSans-79" transform="translate(289.746094 0)"/>
     <use xlink:href="#DejaVuSans-20" transform="translate(348.925781 0)"/>
     <use xlink:href="#DejaVuSans-62" transform="translate(380.712891 0)"/>
     <use xlink:href="#DejaVuSans-61" transform="translate(444.189453 0)"/>
     <use xlink:href="#DejaVuSans-74" transform="translate(505.46875 0)"/>
     <use xlink:href="#DejaVuSans-74" transform="translate(544.677734 0)"/>
     <use xlink:href="#DejaVuSans-65" transform="translate(583.886719 0)"/>
     <use xlink:href="#DejaVuSans-72" transform="translate(645.410156 0)"/>
     <use xlink:href="#DejaVuSans-79" transform="translate(686.523438 0)"/>
     <use xlink:href="#DejaVuSans-20" transform="translate(745.703125 0)"/>
     <use xlink:href="#DejaVuSans-28" transform="translate(777.490234 0)"/>
     <use xlink:href="#DejaVuSans-54" transform="translate(816.503906 0)"/>
     <use xlink:href="#DejaVuSans-3d" transform="translate(877.587891 0)"/>
     <use xlink:href="#DejaVuSans-37" transform="translate(961.376953 0)"/>
     <use xlink:href="#DejaVuSans-32" transform="translate(1025 0)"/>
     <use xlink:href="#DejaVuSans-2c" transform="translate(1088.623047 0)"/>
     <use xlink:href="#DejaVuSans-20" transform="translate(1120.410156 0)"/>
     <use xlink:href="#DejaVuSans-4d" transform="translate(1152.197266 0)"/>
     <use xlink:href="#DejaVuSans-6f" transform="translate(1238.476562 0)"/>
     <use xlink:href="#DejaVuSans-6e" transform="translate(1299.658203 0)"/>
     <use xlink:href="#DejaVuSans-6f" transform="translate(1363.037109 0)"/>
     <use xlink:href="#DejaVuSans-6c" transform="translate(1424.21875 0)"/>
     <use xlink:href="#DejaVuSans-69" transform="translate(1452.001953 0)"/>
     <use xlink:href="#DejaVuSans-74" transform="translate(1479.785156 0)"/>
     <use xlink:href="#DejaVuSans-68" transform="translate(1518.994141 0)"/>
     <use xlink:href="#DejaVuSans-69" transform="translate(1582.373047 0)"/>
     <use xlink:href="#DejaVuSans-63" transform="translate(1610.15625 0)"/>
     <use xlink:href="#DejaVuSans-20" transform="translate(1665.136719 0)"/>
     <use xlink:href="#DejaVuSans-55" transform="translate(1696.923828 0)"/>
     <use xlink:href="#DejaVuSans-43" transform="translate(1770.117188 0)"/>
     <use xlink:href="#DejaVuSans-29" transform="translate(1839.941406 0)"/>
    </g>
   </g>
  </g>
 </g>
 <defs>
  <clipPath id="p5dc175127a">
   <rect x="53.04095" y="31.376" width="683.81785" height="449.673333"/>
  </clipPath>
 </defs>
</svg>
