<?xml version="1.0" encoding="utf-8" standalone="no"?>
<!DOCTYPE svg PUBLIC "-//W3C//DTD SVG 1.1//EN"
  "http://www.w3.org/Graphics/SVG/1.1/DTD/svg11.dtd">
<svg xmlns:xlink="http://www.w3.org/1999/xlink" width="720pt" height="488.88pt" viewBox="0 0 720 488.88" xmlns="http://www.w3.org/2000/svg" version="1.1">
 <metadata>
  <rdf:RDF xmlns:dc="http://purl.org/dc/elements/1.1/" xmlns:cc="http://creativecommons.org/ns#" xmlns:rdf="http://www.w3.org/1999/02/22-rdf-syntax-ns#">
   <cc:Work>
    <dc:type rdf:resource="http://purl.org/dc/dcmitype/StillImage"/>
    <dc:date>2025-11-12T00:42:11.337764</dc:date>
    <dc:format>image/svg+xml</dc:format>
    <dc:creator>
     <cc:Agent>
      <dc:title>Matplotlib v3.10.0, https://matplotlib.org/</dc:title>
     </cc:Agent>
    </dc:creator>
   </cc:Work>
  </rdf:RDF>
 </metadata>
 <defs>
  <style type="text/css">*{stroke-linejoin: round; stroke-linecap: butt}</style>
 </defs>
 <g id="figure_1">
  <g id="patch_1">
   <path d="M 0 488.88 
L 720 488.88 
L 720 0 
L 0 0 
z
" style="fill: #ffffff"/>
  </g>
  <g id="axes_1">
   <g id="patch_2">
    <path d="M 50.915 441.395267 
L 709.2 441.395267 
L 709.2 29.6044 
L 50.915 29.6044 
z
" style="fill: #ffffff"/>
   </g>
   <g id="matplotlib.axis_1">
    <g id="xtick_1">
     <g id="line2d_1">
      <defs>
       <path id="m8761eeb69b" d="M 0 0 
L 0 3.5 
" style="stroke: #000000; stroke-width: 0.8"/>
      </defs>
      <g>
       <use xlink:href="#m8761eeb69b" x="72.4083" y="441.395267" style="stroke: #000000; stroke-width: 0.8"/>
      </g>
     </g>
     <g id="text_1">
      <!-- 0 -->
      <g transform="translate(69.22705 455.993704) scale(0.1 -0.1)">
       <defs>
        <path id="DejaVuSans-30" d="M 2034 4250 
Q 1547 4250 1301 3770 
Q 1056 3291 1056 2328 
Q 1056 1369 1301 889 
Q 1547 409 2034 409 
Q 2525 409 2770 889 
Q 3016 1369 3016 2328 
Q 3016 3291 2770 3770 
Q 2525 4250 2034 4250 
z
M 2034 4750 
Q 2819 4750 3233 4129 
Q 3647 3509 3647 2328 
Q 3647 1150 3233 529 
Q 2819 -91 2034 -91 
Q 1250 -91 836 529 
Q 422 1150 422 2328 
Q 422 3509 836 4129 
Q 1250 4750 2034 4750 
z
" transform="scale(0.015625)"/>
       </defs>
       <use xlink:href="#DejaVuSans-30"/>
      </g>
     </g>
    </g>
    <g id="xtick_2">
     <g id="line2d_2">
      <g>
       <use xlink:href="#m8761eeb69b" x="156.695752" y="441.395267" style="stroke: #000000; stroke-width: 0.8"/>
      </g>
     </g>
     <g id="text_2">
      <!-- 10 -->
      <g transform="translate(150.333252 455.993704) scale(0.1 -0.1)">
       <defs>
        <path id="DejaVuSans-31" d="M 794 531 
L 1825 531 
L 1825 4091 
L 703 3866 
L 703 4441 
L 1819 4666 
L 2450 4666 
L 2450 531 
L 3481 531 
L 3481 0 
L 794 0 
L 794 531 
z
" transform="scale(0.015625)"/>
       </defs>
       <use xlink:href="#DejaVuSans-31"/>
       <use xlink:href="#DejaVuSans-30" transform="translate(63.623047 0)"/>
      </g>
     </g>
    </g>
    <g id="xtick_3">
     <g id="line2d_3">
      <g>
       <use xlink:href="#m8761eeb69b" x="240.983204" y="441.395267" style="stroke: #000000; stroke-width: 0.8"/>
      </g>
     </g>
     <g id="text_3">
      <!-- 20 -->
      <g transform="translate(234.620704 455.993704) scale(0.1 -0.1)">
       <defs>
        <path id="DejaVuSans-32" d="M 1228 531 
L 3431 531 
L 3431 0 
L 469 0 
L 469 531 
Q 828 903 1448 1529 
Q 2069 2156 2228 2338 
Q 2531 2678 2651 2914 
Q 2772 3150 2772 3378 
Q 2772 3750 2511 3984 
Q 2250 4219 1831 4219 
Q 1534 4219 1204 4116 
Q 875 4013 500 3803 
L 500 4441 
Q 881 4594 1212 4672 
Q 1544 4750 1819 4750 
Q 2544 4750 2975 4387 
Q 3406 4025 3406 3419 
Q 3406 3131 3298 2873 
Q 3191 2616 2906 2266 
Q 2828 2175 2409 1742 
Q 1991 1309 1228 531 
z
" transform="scale(0.015625)"/>
       </defs>
       <use xlink:href="#DejaVuSans-32"/>
       <use xlink:href="#DejaVuSans-30" transform="translate(63.623047 0)"/>
      </g>
     </g>
    </g>
    <g id="xtick_4">
     <g id="line2d_4">
      <g>
       <use xlink:href="#m8761eeb69b" x="325.270656" y="441.395267" style="stroke: #000000; stroke-width: 0.8"/>
      </g>
     </g>
     <g id="text_4">
      <!-- 30 -->
      <g transform="translate(318.908156 455.993704) scale(0.1 -0.1)">
       <defs>
        <path id="DejaVuSans-33" d="M 2597 2516 
Q 3050 2419 3304 2112 
Q 3559 1806 3559 1356 
Q 3559 666 3084 287 
Q 2609 -91 1734 -91 
Q 1441 -91 1130 -33 
Q 819 25 488 141 
L 488 750 
Q 750 597 1062 519 
Q 1375 441 1716 441 
Q 2309 441 2620 675 
Q 2931 909 2931 1356 
Q 2931 1769 2642 2001 
Q 2353 2234 1838 2234 
L 1294 2234 
L 1294 2753 
L 1863 2753 
Q 2328 2753 2575 2939 
Q 2822 3125 2822 3475 
Q 2822 3834 2567 4026 
Q 2313 4219 1838 4219 
Q 1578 4219 1281 4162 
Q 984 4106 628 3988 
L 628 4550 
Q 988 4650 1302 4700 
Q 1616 4750 1894 4750 
Q 2613 4750 3031 4423 
Q 3450 4097 3450 3541 
Q 3450 3153 3228 2886 
Q 3006 2619 2597 2516 
z
" transform="scale(0.015625)"/>
       </defs>
       <use xlink:href="#DejaVuSans-33"/>
       <use xlink:href="#DejaVuSans-30" transform="translate(63.623047 0)"/>
      </g>
     </g>
    </g>
    <g id="xtick_5">
     <g id="line2d_5">
      <g>
       <use xlink:href="#m8761eeb69b" x="409.558108" y="441.395267" style="stroke: #000000; stroke-width: 0.8"/>
      </g>
     </g>
     <g id="text_5">
      <!-- 40 -->
      <g transform="translate(403.195608 455.993704) scale(0.1 -0.1)">
       <defs>
        <path id="DejaVuSans-34" d="M 2419 4116 
L 825 1625 
L 2419 1625 
L 2419 4116 
z
M 2253 4666 
L 3047 4666 
L 3047 1625 
L 3713 1625 
L 3713 1100 
L 3047 1100 
L 3047 0 
L 2419 0 
L 2419 1100 
L 313 1100 
L 313 1709 
L 2253 4666 
z
" transform="scale(0.015625)"/>
       </defs>
       <use xlink:href="#DejaVuSans-34"/>
       <use xlink:href="#DejaVuSans-30" transform="translate(63.623047 0)"/>
      </g>
     </g>
    </g>
    <g id="xtick_6">
     <g id="line2d_6">
      <g>
       <use xlink:href="#m8761eeb69b" x="493.84556" y="441.395267" style="stroke: #000000; stroke-width: 0.8"/>
      </g>
     </g>
     <g id="text_6">
      <!-- 50 -->
      <g transform="translate(487.48306 455.993704) scale(0.1 -0.1)">
       <defs>
        <path id="DejaVuSans-35" d="M 691 4666 
L 3169 4666 
L 3169 4134 
L 1269 4134 
L 1269 2991 
Q 1406 3038 1543 3061 
Q 1681 3084 1819 3084 
Q 2600 3084 3056 2656 
Q 3513 2228 3513 1497 
Q 3513 744 3044 326 
Q 2575 -91 1722 -91 
Q 1428 -91 1123 -41 
Q 819 9 494 109 
L 494 744 
Q 775 591 1075 516 
Q 1375 441 1709 441 
Q 2250 441 2565 725 
Q 2881 1009 2881 1497 
Q 2881 1984 2565 2268 
Q 2250 2553 1709 2553 
Q 1456 2553 1204 2497 
Q 953 2441 691 2322 
L 691 4666 
z
" transform="scale(0.015625)"/>
       </defs>
       <use xlink:href="#DejaVuSans-35"/>
       <use xlink:href="#DejaVuSans-30" transform="translate(63.623047 0)"/>
      </g>
     </g>
    </g>
    <g id="xtick_7">
     <g id="line2d_7">
      <g>
       <use xlink:href="#m8761eeb69b" x="578.133012" y="441.395267" style="stroke: #000000; stroke-width: 0.8"/>
      </g>
     </g>
     <g id="text_7">
      <!-- 60 -->
      <g transform="translate(571.770512 455.993704) scale(0.1 -0.1)">
       <defs>
        <path id="DejaVuSans-36" d="M 2113 2584 
Q 1688 2584 1439 2293 
Q 1191 2003 1191 1497 
Q 1191 994 1439 701 
Q 1688 409 2113 409 
Q 2538 409 2786 701 
Q 3034 994 3034 1497 
Q 3034 2003 2786 2293 
Q 2538 2584 2113 2584 
z
M 3366 4563 
L 3366 3988 
Q 3128 4100 2886 4159 
Q 2644 4219 2406 4219 
Q 1781 4219 1451 3797 
Q 1122 3375 1075 2522 
Q 1259 2794 1537 2939 
Q 1816 3084 2150 3084 
Q 2853 3084 3261 2657 
Q 3669 2231 3669 1497 
Q 3669 778 3244 343 
Q 2819 -91 2113 -91 
Q 1303 -91 875 529 
Q 447 1150 447 2328 
Q 447 3434 972 4092 
Q 1497 4750 2381 4750 
Q 2619 4750 2861 4703 
Q 3103 4656 3366 4563 
z
" transform="scale(0.015625)"/>
       </defs>
       <use xlink:href="#DejaVuSans-36"/>
       <use xlink:href="#DejaVuSans-30" transform="translate(63.623047 0)"/>
      </g>
     </g>
    </g>
    <g id="xtick_8">
     <g id="line2d_8">
      <g>
       <use xlink:href="#m8761eeb69b" x="662.420464" y="441.395267" style="stroke: #000000; stroke-width: 0.8"/>
      </g>
     </g>
     <g id="text_8">
      <!-- 70 -->
      <g transform="translate(656.057964 455.993704) scale(0.1 -0.1)">
       <defs>
        <path id="DejaVuSans-37" d="M 525 4666 
L 3525 4666 
L 3525 4397 
L 1831 0 
L 1172 0 
L 2766 4134 
L 525 4134 
L 525 4666 
z
" transform="scale(0.015625)"/>
       </defs>
       <use xlink:href="#DejaVuSans-37"/>
       <use xlink:href="#DejaVuSans-30" transform="translate(63.623047 0)"/>
      </g>
     </g>
    </g>
    <g id="text_9">
     <!-- Time (t) -->
     <g transform="translate(360.373125 469.671829) scale(0.1 -0.1)">
      <defs>
       <path id="DejaVuSans-54" d="M -19 4666 
L 3928 4666 
L 3928 4134 
L 2272 4134 
L 2272 0 
L 1638 0 
L 1638 4134 
L -19 4134 
L -19 4666 
z
" transform="scale(0.015625)"/>
       <path id="DejaVuSans-69" d="M 603 3500 
L 1178 3500 
L 1178 0 
L 603 0 
L 603 3500 
z
M 603 4863 
L 1178 4863 
L 1178 4134 
L 603 4134 
L 603 4863 
z
" transform="scale(0.015625)"/>
       <path id="DejaVuSans-6d" d="M 3328 2828 
Q 3544 3216 3844 3400 
Q 4144 3584 4550 3584 
Q 5097 3584 5394 3201 
Q 5691 2819 5691 2113 
L 5691 0 
L 5113 0 
L 5113 2094 
Q 5113 2597 4934 2840 
Q 4756 3084 4391 3084 
Q 3944 3084 3684 2787 
Q 3425 2491 3425 1978 
L 3425 0 
L 2847 0 
L 2847 2094 
Q 2847 2600 2669 2842 
Q 2491 3084 2119 3084 
Q 1678 3084 1418 2786 
Q 1159 2488 1159 1978 
L 1159 0 
L 581 0 
L 581 3500 
L 1159 3500 
L 1159 2956 
Q 1356 3278 1631 3431 
Q 1906 3584 2284 3584 
Q 2666 3584 2933 3390 
Q 3200 3197 3328 2828 
z
" transform="scale(0.015625)"/>
       <path id="DejaVuSans-65" d="M 3597 1894 
L 3597 1613 
L 953 1613 
Q 991 1019 1311 708 
Q 1631 397 2203 397 
Q 2534 397 2845 478 
Q 3156 559 3463 722 
L 3463 178 
Q 3153 47 2828 -22 
Q 2503 -91 2169 -91 
Q 1331 -91 842 396 
Q 353 884 353 1716 
Q 353 2575 817 3079 
Q 1281 3584 2069 3584 
Q 2775 3584 3186 3129 
Q 3597 2675 3597 1894 
z
M 3022 2063 
Q 3016 2534 2758 2815 
Q 2500 3097 2075 3097 
Q 1594 3097 1305 2825 
Q 1016 2553 972 2059 
L 3022 2063 
z
" transform="scale(0.015625)"/>
       <path id="DejaVuSans-20" transform="scale(0.015625)"/>
       <path id="DejaVuSans-28" d="M 1984 4856 
Q 1566 4138 1362 3434 
Q 1159 2731 1159 2009 
Q 1159 1288 1364 580 
Q 1569 -128 1984 -844 
L 1484 -844 
Q 1016 -109 783 600 
Q 550 1309 550 2009 
Q 550 2706 781 3412 
Q 1013 4119 1484 4856 
L 1984 4856 
z
" transform="scale(0.015625)"/>
       <path id="DejaVuSans-74" d="M 1172 4494 
L 1172 3500 
L 2356 3500 
L 2356 3053 
L 1172 3053 
L 1172 1153 
Q 1172 725 1289 603 
Q 1406 481 1766 481 
L 2356 481 
L 2356 0 
L 1766 0 
Q 1100 0 847 248 
Q 594 497 594 1153 
L 594 3053 
L 172 3053 
L 172 3500 
L 594 3500 
L 594 4494 
L 1172 4494 
z
" transform="scale(0.015625)"/>
       <path id="DejaVuSans-29" d="M 513 4856 
L 1013 4856 
Q 1481 4119 1714 3412 
Q 1947 2706 1947 2009 
Q 1947 1309 1714 600 
Q 1481 -109 1013 -844 
L 513 -844 
Q 928 -128 1133 580 
Q 1338 1288 1338 2009 
Q 1338 2731 1133 3434 
Q 928 4138 513 4856 
z
" transform="scale(0.015625)"/>
      </defs>
      <use xlink:href="#DejaVuSans-54"/>
      <use xlink:href="#DejaVuSans-69" transform="translate(57.958984 0)"/>
      <use xlink:href="#DejaVuSans-6d" transform="translate(85.742188 0)"/>
      <use xlink:href="#DejaVuSans-65" transform="translate(183.154297 0)"/>
      <use xlink:href="#DejaVuSans-20" transform="translate(244.677734 0)"/>
      <use xlink:href="#DejaVuSans-28" transform="translate(276.464844 0)"/>
      <use xlink:href="#DejaVuSans-74" transform="translate(315.478516 0)"/>
      <use xlink:href="#DejaVuSans-29" transform="translate(354.6875 0)"/>
     </g>
    </g>
   </g>
   <g id="matplotlib.axis_2">
    <g id="ytick_1">
     <g id="line2d_9">
      <defs>
       <path id="m49b099b9ba" d="M 0 0 
L -3.5 0 
" style="stroke: #000000; stroke-width: 0.8"/>
      </defs>
      <g>
       <use xlink:href="#m49b099b9ba" x="50.915" y="385.268302" style="stroke: #000000; stroke-width: 0.8"/>
      </g>
     </g>
     <g id="text_10">
      <!-- 50 -->
      <g transform="translate(31.19 389.067521) scale(0.1 -0.1)">
       <use xlink:href="#DejaVuSans-35"/>
       <use xlink:href="#DejaVuSans-30" transform="translate(63.623047 0)"/>
      </g>
     </g>
    </g>
    <g id="ytick_2">
     <g id="line2d_10">
      <g>
       <use xlink:href="#m49b099b9ba" x="50.915" y="317.68871" style="stroke: #000000; stroke-width: 0.8"/>
      </g>
     </g>
     <g id="text_11">
      <!-- 100 -->
      <g transform="translate(24.8275 321.487928) scale(0.1 -0.1)">
       <use xlink:href="#DejaVuSans-31"/>
       <use xlink:href="#DejaVuSans-30" transform="translate(63.623047 0)"/>
       <use xlink:href="#DejaVuSans-30" transform="translate(127.246094 0)"/>
      </g>
     </g>
    </g>
    <g id="ytick_3">
     <g id="line2d_11">
      <g>
       <use xlink:href="#m49b099b9ba" x="50.915" y="250.109118" style="stroke: #000000; stroke-width: 0.8"/>
      </g>
     </g>
     <g id="text_12">
      <!-- 150 -->
      <g transform="translate(24.8275 253.908336) scale(0.1 -0.1)">
       <use xlink:href="#DejaVuSans-31"/>
       <use xlink:href="#DejaVuSans-35" transform="translate(63.623047 0)"/>
       <use xlink:href="#DejaVuSans-30" transform="translate(127.246094 0)"/>
      </g>
     </g>
    </g>
    <g id="ytick_4">
     <g id="line2d_12">
      <g>
       <use xlink:href="#m49b099b9ba" x="50.915" y="182.529526" style="stroke: #000000; stroke-width: 0.8"/>
      </g>
     </g>
     <g id="text_13">
      <!-- 200 -->
      <g transform="translate(24.8275 186.328744) scale(0.1 -0.1)">
       <use xlink:href="#DejaVuSans-32"/>
       <use xlink:href="#DejaVuSans-30" transform="translate(63.623047 0)"/>
       <use xlink:href="#DejaVuSans-30" transform="translate(127.246094 0)"/>
      </g>
     </g>
    </g>
    <g id="ytick_5">
     <g id="line2d_13">
      <g>
       <use xlink:href="#m49b099b9ba" x="50.915" y="114.949934" style="stroke: #000000; stroke-width: 0.8"/>
      </g>
     </g>
     <g id="text_14">
      <!-- 250 -->
      <g transform="translate(24.8275 118.749152) scale(0.1 -0.1)">
       <use xlink:href="#DejaVuSans-32"/>
       <use xlink:href="#DejaVuSans-35" transform="translate(63.623047 0)"/>
       <use xlink:href="#DejaVuSans-30" transform="translate(127.246094 0)"/>
      </g>
     </g>
    </g>
    <g id="ytick_6">
     <g id="line2d_14">
      <g>
       <use xlink:href="#m49b099b9ba" x="50.915" y="47.370341" style="stroke: #000000; stroke-width: 0.8"/>
      </g>
     </g>
     <g id="text_15">
      <!-- 300 -->
      <g transform="translate(24.8275 51.16956) scale(0.1 -0.1)">
       <use xlink:href="#DejaVuSans-33"/>
       <use xlink:href="#DejaVuSans-30" transform="translate(63.623047 0)"/>
       <use xlink:href="#DejaVuSans-30" transform="translate(127.246094 0)"/>
      </g>
     </g>
    </g>
    <g id="text_16">
     <!-- SoC -->
     <g transform="translate(18.747812 245.224833) rotate(-90) scale(0.1 -0.1)">
      <defs>
       <path id="DejaVuSans-53" d="M 3425 4513 
L 3425 3897 
Q 3066 4069 2747 4153 
Q 2428 4238 2131 4238 
Q 1616 4238 1336 4038 
Q 1056 3838 1056 3469 
Q 1056 3159 1242 3001 
Q 1428 2844 1947 2747 
L 2328 2669 
Q 3034 2534 3370 2195 
Q 3706 1856 3706 1288 
Q 3706 609 3251 259 
Q 2797 -91 1919 -91 
Q 1588 -91 1214 -16 
Q 841 59 441 206 
L 441 856 
Q 825 641 1194 531 
Q 1563 422 1919 422 
Q 2459 422 2753 634 
Q 3047 847 3047 1241 
Q 3047 1584 2836 1778 
Q 2625 1972 2144 2069 
L 1759 2144 
Q 1053 2284 737 2584 
Q 422 2884 422 3419 
Q 422 4038 858 4394 
Q 1294 4750 2059 4750 
Q 2388 4750 2728 4690 
Q 3069 4631 3425 4513 
z
" transform="scale(0.015625)"/>
       <path id="DejaVuSans-6f" d="M 1959 3097 
Q 1497 3097 1228 2736 
Q 959 2375 959 1747 
Q 959 1119 1226 758 
Q 1494 397 1959 397 
Q 2419 397 2687 759 
Q 2956 1122 2956 1747 
Q 2956 2369 2687 2733 
Q 2419 3097 1959 3097 
z
M 1959 3584 
Q 2709 3584 3137 3096 
Q 3566 2609 3566 1747 
Q 3566 888 3137 398 
Q 2709 -91 1959 -91 
Q 1206 -91 779 398 
Q 353 888 353 1747 
Q 353 2609 779 3096 
Q 1206 3584 1959 3584 
z
" transform="scale(0.015625)"/>
       <path id="DejaVuSans-43" d="M 4122 4306 
L 4122 3641 
Q 3803 3938 3442 4084 
Q 3081 4231 2675 4231 
Q 1875 4231 1450 3742 
Q 1025 3253 1025 2328 
Q 1025 1406 1450 917 
Q 1875 428 2675 428 
Q 3081 428 3442 575 
Q 3803 722 4122 1019 
L 4122 359 
Q 3791 134 3420 21 
Q 3050 -91 2638 -91 
Q 1578 -91 968 557 
Q 359 1206 359 2328 
Q 359 3453 968 4101 
Q 1578 4750 2638 4750 
Q 3056 4750 3426 4639 
Q 3797 4528 4122 4306 
z
" transform="scale(0.015625)"/>
      </defs>
      <use xlink:href="#DejaVuSans-53"/>
      <use xlink:href="#DejaVuSans-6f" transform="translate(63.476562 0)"/>
      <use xlink:href="#DejaVuSans-43" transform="translate(124.658203 0)"/>
     </g>
    </g>
   </g>
   <g id="line2d_15">
    <path d="M 80.837045 250.58503 
L 89.265791 250.58503 
L 97.694536 250.58503 
L 106.123281 250.58503 
L 114.552026 250.58503 
L 122.980771 250.58503 
L 131.409517 250.58503 
L 139.838262 250.58503 
L 148.267007 250.58503 
L 156.695752 250.58503 
L 165.124497 250.58503 
L 173.553243 250.58503 
L 181.981988 250.58503 
L 190.410733 250.58503 
L 198.839478 250.58503 
L 207.268223 250.58503 
L 215.696969 250.58503 
L 224.125714 250.58503 
L 232.554459 250.58503 
L 240.983204 250.58503 
L 249.411949 250.58503 
L 257.840695 250.58503 
L 266.26944 250.58503 
L 274.698185 250.58503 
L 283.12693 250.58503 
L 291.555675 250.58503 
L 299.984421 250.58503 
L 308.413166 250.58503 
L 316.841911 250.58503 
L 325.270656 250.58503 
L 333.699401 250.58503 
L 342.128147 250.58503 
L 350.556892 250.58503 
L 358.985637 250.58503 
L 367.414382 250.58503 
L 375.843127 250.58503 
L 384.271873 250.58503 
L 392.700618 250.58503 
L 401.129363 250.58503 
L 409.558108 250.58503 
L 417.986853 250.58503 
L 426.415599 250.58503 
L 434.844344 250.58503 
L 443.273089 250.58503 
L 451.701834 250.58503 
L 460.130579 250.58503 
L 468.559325 250.58503 
L 476.98807 250.58503 
L 485.416815 250.58503 
L 493.84556 250.58503 
L 502.274305 250.58503 
L 510.703051 250.58503 
L 519.131796 250.58503 
L 527.560541 250.58503 
L 535.989286 250.58503 
L 544.418031 250.58503 
L 552.846777 250.58503 
L 561.275522 250.58503 
L 569.704267 250.58503 
L 578.133012 250.58503 
L 586.561757 250.58503 
L 594.990503 250.58503 
L 603.419248 250.58503 
L 611.847993 250.58503 
L 620.276738 250.58503 
L 628.705483 250.58503 
L 637.134229 250.58503 
L 645.562974 250.58503 
L 653.991719 250.58503 
L 662.420464 250.58503 
L 670.849209 250.58503 
L 679.277955 250.58503 
" clip-path="url(#p20ba5ebae0)" style="fill: none; stroke: #1f77b4; stroke-width: 1.8; stroke-linecap: square"/>
   </g>
   <g id="line2d_16">
    <path d="M 80.837045 250.58503 
L 89.265791 250.58503 
L 97.694536 250.58503 
L 106.123281 250.58503 
L 114.552026 250.58503 
L 122.980771 250.58503 
L 131.409517 250.58503 
L 139.838262 250.58503 
L 148.267007 250.58503 
L 156.695752 250.58503 
L 165.124497 250.58503 
L 173.553243 250.58503 
L 181.981988 250.58503 
L 190.410733 250.58503 
L 198.839478 250.58503 
L 207.268223 250.58503 
L 215.696969 250.58503 
L 224.125714 250.58503 
L 232.554459 250.58503 
L 240.983204 250.58503 
L 249.411949 250.58503 
L 257.840695 250.58503 
L 266.26944 250.58503 
L 274.698185 250.58503 
L 283.12693 250.58503 
L 291.555675 250.58503 
L 299.984421 250.58503 
L 308.413166 250.58503 
L 316.841911 250.58503 
L 325.270656 250.58503 
L 333.699401 250.58503 
L 342.128147 250.58503 
L 350.556892 250.58503 
L 358.985637 250.58503 
L 367.414382 250.58503 
L 375.843127 250.58503 
L 384.271873 250.58503 
L 392.700618 250.58503 
L 401.129363 250.58503 
L 409.558108 250.58503 
L 417.986853 250.58503 
L 426.415599 250.58503 
L 434.844344 250.58503 
L 443.273089 250.58503 
L 451.701834 250.58503 
L 460.130579 250.58503 
L 468.559325 250.58503 
L 476.98807 250.58503 
L 485.416815 250.58503 
L 493.84556 250.58503 
L 502.274305 250.58503 
L 510.703051 250.58503 
L 519.131796 250.58503 
L 527.560541 250.58503 
L 535.989286 250.58503 
L 544.418031 250.58503 
L 552.846777 250.58503 
L 561.275522 250.58503 
L 569.704267 250.58503 
L 578.133012 250.58503 
L 586.561757 250.58503 
L 594.990503 250.58503 
L 603.419248 250.58503 
L 611.847993 250.58503 
L 620.276738 250.58503 
L 628.705483 250.58503 
L 637.134229 250.58503 
L 645.562974 250.58503 
L 653.991719 250.58503 
L 662.420464 250.58503 
L 670.849209 250.58503 
L 679.277955 250.58503 
" clip-path="url(#p20ba5ebae0)" style="fill: none; stroke: #ff7f0e; stroke-width: 1.8; stroke-linecap: square"/>
   </g>
   <g id="line2d_17">
    <path d="M 80.837045 250.58503 
L 89.265791 250.58503 
L 97.694536 250.58503 
L 106.123281 250.58503 
L 114.552026 250.58503 
L 122.980771 250.58503 
L 131.409517 250.58503 
L 139.838262 250.58503 
L 148.267007 250.58503 
L 156.695752 250.58503 
L 165.124497 250.58503 
L 173.553243 250.58503 
L 181.981988 250.58503 
L 190.410733 250.58503 
L 198.839478 250.58503 
L 207.268223 250.58503 
L 215.696969 250.58503 
L 224.125714 250.58503 
L 232.554459 250.58503 
L 240.983204 250.58503 
L 249.411949 250.58503 
L 257.840695 250.58503 
L 266.26944 250.58503 
L 274.698185 250.58503 
L 283.12693 250.58503 
L 291.555675 250.58503 
L 299.984421 250.58503 
L 308.413166 250.58503 
L 316.841911 250.58503 
L 325.270656 250.58503 
L 333.699401 250.58503 
L 342.128147 250.58503 
L 350.556892 250.58503 
L 358.985637 250.58503 
L 367.414382 250.58503 
L 375.843127 250.58503 
L 384.271873 250.58503 
L 392.700618 250.58503 
L 401.129363 250.58503 
L 409.558108 250.58503 
L 417.986853 250.58503 
L 426.415599 250.58503 
L 434.844344 250.58503 
L 443.273089 250.58503 
L 451.701834 250.58503 
L 460.130579 250.58503 
L 468.559325 250.58503 
L 476.98807 250.58503 
L 485.416815 250.58503 
L 493.84556 250.58503 
L 502.274305 250.58503 
L 510.703051 250.58503 
L 519.131796 250.58503 
L 527.560541 250.58503 
L 535.989286 250.58503 
L 544.418031 250.58503 
L 552.846777 250.58503 
L 561.275522 250.58503 
L 569.704267 250.58503 
L 578.133012 250.58503 
L 586.561757 250.58503 
L 594.990503 250.58503 
L 603.419248 250.58503 
L 611.847993 250.58503 
L 620.276738 250.58503 
L 628.705483 250.58503 
L 637.134229 250.58503 
L 645.562974 250.58503 
L 653.991719 250.58503 
L 662.420464 250.58503 
L 670.849209 250.58503 
L 679.277955 250.58503 
" clip-path="url(#p20ba5ebae0)" style="fill: none; stroke: #2ca02c; stroke-width: 1.8; stroke-linecap: square"/>
   </g>
   <g id="line2d_18">
    <path d="M 80.837045 250.58503 
L 89.265791 250.58503 
L 97.694536 250.58503 
L 106.123281 250.58503 
L 114.552026 250.58503 
L 122.980771 250.58503 
L 131.409517 250.58503 
L 139.838262 250.58503 
L 148.267007 250.58503 
L 156.695752 250.58503 
L 165.124497 250.58503 
L 173.553243 250.58503 
L 181.981988 250.58503 
L 190.410733 250.58503 
L 198.839478 250.58503 
L 207.268223 250.58503 
L 215.696969 250.58503 
L 224.125714 250.58503 
L 232.554459 250.58503 
L 240.983204 250.58503 
L 249.411949 250.58503 
L 257.840695 250.58503 
L 266.26944 250.58503 
L 274.698185 250.58503 
L 283.12693 250.58503 
L 291.555675 250.58503 
L 299.984421 250.58503 
L 308.413166 250.58503 
L 316.841911 250.58503 
L 325.270656 250.58503 
L 333.699401 250.58503 
L 342.128147 250.58503 
L 350.556892 250.58503 
L 358.985637 250.58503 
L 367.414382 250.58503 
L 375.843127 250.58503 
L 384.271873 250.58503 
L 392.700618 250.58503 
L 401.129363 250.58503 
L 409.558108 250.58503 
L 417.986853 250.58503 
L 426.415599 250.58503 
L 434.844344 250.58503 
L 443.273089 250.58503 
L 451.701834 250.58503 
L 460.130579 250.58503 
L 468.559325 250.58503 
L 476.98807 250.58503 
L 485.416815 250.58503 
L 493.84556 250.58503 
L 502.274305 250.58503 
L 510.703051 250.58503 
L 519.131796 250.58503 
L 527.560541 250.58503 
L 535.989286 250.58503 
L 544.418031 250.58503 
L 552.846777 250.58503 
L 561.275522 250.58503 
L 569.704267 250.58503 
L 578.133012 250.58503 
L 586.561757 250.58503 
L 594.990503 250.58503 
L 603.419248 250.58503 
L 611.847993 250.58503 
L 620.276738 250.58503 
L 628.705483 250.58503 
L 637.134229 250.58503 
L 645.562974 250.58503 
L 653.991719 250.58503 
L 662.420464 250.58503 
L 670.849209 250.58503 
L 679.277955 250.58503 
" clip-path="url(#p20ba5ebae0)" style="fill: none; stroke: #d62728; stroke-width: 1.8; stroke-linecap: square"/>
   </g>
   <g id="line2d_19">
    <path d="M 80.837045 250.58503 
L 89.265791 250.58503 
L 97.694536 250.58503 
L 106.123281 256.535457 
L 114.552026 257.105485 
L 122.980771 257.105485 
L 131.409517 257.105485 
L 139.838262 304.46995 
L 148.267007 356.203445 
L 156.695752 418.94415 
L 165.124497 418.94415 
L 173.553243 418.94415 
L 181.981988 381.790093 
L 190.410733 326.216515 
L 198.839478 293.170997 
L 207.268223 238.725762 
L 215.696969 238.725762 
L 224.125714 238.725762 
L 232.554459 238.725762 
L 240.983204 238.725762 
L 249.411949 238.725762 
L 257.840695 238.725762 
L 266.26944 238.725762 
L 274.698185 250.58503 
L 283.12693 250.58503 
L 291.555675 250.58503 
L 299.984421 220.1888 
L 308.413166 189.314549 
L 316.841911 189.314549 
L 325.270656 189.314549 
L 333.699401 189.314549 
L 342.128147 189.314549 
L 350.556892 189.314549 
L 358.985637 189.314549 
L 367.414382 175.917051 
L 375.843127 175.917051 
L 384.271873 124.813335 
L 392.700618 71.14419 
L 401.129363 71.14419 
L 409.558108 48.322167 
L 417.986853 48.322167 
L 426.415599 48.322167 
L 434.844344 48.322167 
L 443.273089 51.619536 
L 451.701834 51.619536 
L 460.130579 86.141244 
L 468.559325 86.141244 
L 476.98807 86.141244 
L 485.416815 86.141244 
L 493.84556 86.141244 
L 502.274305 86.141244 
L 510.703051 86.141244 
L 519.131796 86.141244 
L 527.560541 86.141244 
L 535.989286 101.187571 
L 544.418031 101.187571 
L 552.846777 101.187571 
L 561.275522 176.099743 
L 569.704267 176.099743 
L 578.133012 176.099743 
L 586.561757 162.719556 
L 594.990503 162.719556 
L 603.419248 162.719556 
L 611.847993 113.794239 
L 620.276738 113.794239 
L 628.705483 68.720923 
L 637.134229 68.720923 
L 645.562974 68.720923 
L 653.991719 68.720923 
L 662.420464 124.170981 
L 670.849209 175.672859 
L 679.277955 250.58503 
" clip-path="url(#p20ba5ebae0)" style="fill: none; stroke: #9467bd; stroke-width: 1.8; stroke-linecap: square"/>
   </g>
   <g id="line2d_20">
    <path d="M 80.837045 250.58503 
L 89.265791 250.58503 
L 97.694536 250.58503 
L 106.123281 250.58503 
L 114.552026 250.58503 
L 122.980771 250.58503 
L 131.409517 250.58503 
L 139.838262 250.58503 
L 148.267007 250.58503 
L 156.695752 250.58503 
L 165.124497 250.58503 
L 173.553243 250.58503 
L 181.981988 250.58503 
L 190.410733 250.58503 
L 198.839478 250.58503 
L 207.268223 250.58503 
L 215.696969 250.58503 
L 224.125714 250.58503 
L 232.554459 250.58503 
L 240.983204 250.58503 
L 249.411949 250.58503 
L 257.840695 250.58503 
L 266.26944 250.58503 
L 274.698185 250.58503 
L 283.12693 250.58503 
L 291.555675 250.58503 
L 299.984421 250.58503 
L 308.413166 250.58503 
L 316.841911 250.58503 
L 325.270656 250.58503 
L 333.699401 250.58503 
L 342.128147 250.58503 
L 350.556892 250.58503 
L 358.985637 250.58503 
L 367.414382 250.58503 
L 375.843127 250.58503 
L 384.271873 250.58503 
L 392.700618 250.58503 
L 401.129363 250.58503 
L 409.558108 250.58503 
L 417.986853 250.58503 
L 426.415599 250.58503 
L 434.844344 250.58503 
L 443.273089 250.58503 
L 451.701834 250.58503 
L 460.130579 250.58503 
L 468.559325 250.58503 
L 476.98807 250.58503 
L 485.416815 250.58503 
L 493.84556 250.58503 
L 502.274305 250.58503 
L 510.703051 250.58503 
L 519.131796 250.58503 
L 527.560541 250.58503 
L 535.989286 250.58503 
L 544.418031 250.58503 
L 552.846777 250.58503 
L 561.275522 250.58503 
L 569.704267 250.58503 
L 578.133012 250.58503 
L 586.561757 250.58503 
L 594.990503 250.58503 
L 603.419248 250.58503 
L 611.847993 250.58503 
L 620.276738 250.58503 
L 628.705483 250.58503 
L 637.134229 250.58503 
L 645.562974 250.58503 
L 653.991719 250.58503 
L 662.420464 250.58503 
L 670.849209 250.58503 
L 679.277955 250.58503 
" clip-path="url(#p20ba5ebae0)" style="fill: none; stroke: #8c564b; stroke-width: 1.8; stroke-linecap: square"/>
   </g>
   <g id="line2d_21">
    <path d="M 80.837045 48.322167 
L 89.265791 48.322167 
L 97.694536 48.322167 
L 106.123281 48.322167 
L 114.552026 48.322167 
L 122.980771 48.322167 
L 131.409517 48.322167 
L 139.838262 48.322167 
L 148.267007 48.322167 
L 156.695752 48.322167 
L 165.124497 48.322167 
L 173.553243 48.322167 
L 181.981988 48.322167 
L 190.410733 48.322167 
L 198.839478 48.322167 
L 207.268223 48.322167 
L 215.696969 48.322167 
L 224.125714 48.322167 
L 232.554459 48.322167 
L 240.983204 48.322167 
L 249.411949 48.322167 
L 257.840695 48.322167 
L 266.26944 48.322167 
L 274.698185 48.322167 
L 283.12693 48.322167 
L 291.555675 48.322167 
L 299.984421 48.322167 
L 308.413166 48.322167 
L 316.841911 48.322167 
L 325.270656 48.322167 
L 333.699401 48.322167 
L 342.128147 48.322167 
L 350.556892 48.322167 
L 358.985637 48.322167 
L 367.414382 48.322167 
L 375.843127 48.322167 
L 384.271873 48.322167 
L 392.700618 48.322167 
L 401.129363 48.322167 
L 409.558108 48.322167 
L 417.986853 48.322167 
L 426.415599 48.322167 
L 434.844344 48.322167 
L 443.273089 48.322167 
L 451.701834 48.322167 
L 460.130579 48.322167 
L 468.559325 48.322167 
L 476.98807 48.322167 
L 485.416815 48.322167 
L 493.84556 48.322167 
L 502.274305 48.322167 
L 510.703051 48.322167 
L 519.131796 48.322167 
L 527.560541 48.322167 
L 535.989286 48.322167 
L 544.418031 48.322167 
L 552.846777 48.322167 
L 561.275522 48.322167 
L 569.704267 48.322167 
L 578.133012 48.322167 
L 586.561757 48.322167 
L 594.990503 48.322167 
L 603.419248 48.322167 
L 611.847993 48.322167 
L 620.276738 48.322167 
L 628.705483 48.322167 
L 637.134229 48.322167 
L 645.562974 48.322167 
L 653.991719 48.322167 
L 662.420464 48.322167 
L 670.849209 48.322167 
L 679.277955 48.322167 
" clip-path="url(#p20ba5ebae0)" style="fill: none; stroke: #e377c2; stroke-width: 1.8; stroke-linecap: square"/>
   </g>
   <g id="line2d_22">
    <path d="M 80.837045 48.322167 
L 89.265791 48.322167 
L 97.694536 48.322167 
L 106.123281 48.322167 
L 114.552026 48.322167 
L 122.980771 48.322167 
L 131.409517 48.322167 
L 139.838262 48.322167 
L 148.267007 48.322167 
L 156.695752 48.322167 
L 165.124497 48.322167 
L 173.553243 48.322167 
L 181.981988 48.322167 
L 190.410733 48.322167 
L 198.839478 48.322167 
L 207.268223 48.322167 
L 215.696969 48.322167 
L 224.125714 48.322167 
L 232.554459 48.322167 
L 240.983204 48.322167 
L 249.411949 48.322167 
L 257.840695 48.322167 
L 266.26944 48.322167 
L 274.698185 48.322167 
L 283.12693 48.322167 
L 291.555675 48.322167 
L 299.984421 48.322167 
L 308.413166 48.322167 
L 316.841911 48.322167 
L 325.270656 48.322167 
L 333.699401 48.322167 
L 342.128147 48.322167 
L 350.556892 48.322167 
L 358.985637 48.322167 
L 367.414382 48.322167 
L 375.843127 48.322167 
L 384.271873 48.322167 
L 392.700618 48.322167 
L 401.129363 48.322167 
L 409.558108 48.322167 
L 417.986853 48.322167 
L 426.415599 48.322167 
L 434.844344 48.322167 
L 443.273089 48.322167 
L 451.701834 48.322167 
L 460.130579 48.322167 
L 468.559325 48.322167 
L 476.98807 48.322167 
L 485.416815 48.322167 
L 493.84556 48.322167 
L 502.274305 48.322167 
L 510.703051 48.322167 
L 519.131796 48.322167 
L 527.560541 48.322167 
L 535.989286 48.322167 
L 544.418031 48.322167 
L 552.846777 48.322167 
L 561.275522 48.322167 
L 569.704267 48.322167 
L 578.133012 48.322167 
L 586.561757 48.322167 
L 594.990503 48.322167 
L 603.419248 48.322167 
L 611.847993 48.322167 
L 620.276738 48.322167 
L 628.705483 48.322167 
L 637.134229 48.322167 
L 645.562974 48.322167 
L 653.991719 48.322167 
L 662.420464 48.322167 
L 670.849209 48.322167 
L 679.277955 48.322167 
" clip-path="url(#p20ba5ebae0)" style="fill: none; stroke: #7f7f7f; stroke-width: 1.8; stroke-linecap: square"/>
   </g>
   <g id="line2d_23">
    <path d="M 80.837045 48.322167 
L 89.265791 48.322167 
L 97.694536 48.322167 
L 106.123281 48.322167 
L 114.552026 48.322167 
L 122.980771 48.322167 
L 131.409517 48.322167 
L 139.838262 48.322167 
L 148.267007 48.322167 
L 156.695752 48.322167 
L 165.124497 48.322167 
L 173.553243 48.322167 
L 181.981988 48.322167 
L 190.410733 48.322167 
L 198.839478 48.322167 
L 207.268223 48.322167 
L 215.696969 48.322167 
L 224.125714 48.322167 
L 232.554459 48.322167 
L 240.983204 48.322167 
L 249.411949 48.322167 
L 257.840695 48.322167 
L 266.26944 48.322167 
L 274.698185 48.322167 
L 283.12693 48.322167 
L 291.555675 48.322167 
L 299.984421 48.322167 
L 308.413166 48.322167 
L 316.841911 48.322167 
L 325.270656 48.322167 
L 333.699401 48.322167 
L 342.128147 48.322167 
L 350.556892 48.322167 
L 358.985637 48.322167 
L 367.414382 48.322167 
L 375.843127 48.322167 
L 384.271873 48.322167 
L 392.700618 48.322167 
L 401.129363 48.322167 
L 409.558108 48.322167 
L 417.986853 48.322167 
L 426.415599 48.322167 
L 434.844344 48.322167 
L 443.273089 48.322167 
L 451.701834 48.322167 
L 460.130579 48.322167 
L 468.559325 48.322167 
L 476.98807 48.322167 
L 485.416815 48.322167 
L 493.84556 48.322167 
L 502.274305 48.322167 
L 510.703051 48.322167 
L 519.131796 48.322167 
L 527.560541 48.322167 
L 535.989286 48.322167 
L 544.418031 48.322167 
L 552.846777 48.322167 
L 561.275522 48.322167 
L 569.704267 48.322167 
L 578.133012 48.322167 
L 586.561757 48.322167 
L 594.990503 48.322167 
L 603.419248 48.322167 
L 611.847993 48.322167 
L 620.276738 48.322167 
L 628.705483 48.322167 
L 637.134229 48.322167 
L 645.562974 48.322167 
L 653.991719 48.322167 
L 662.420464 48.322167 
L 670.849209 48.322167 
L 679.277955 48.322167 
" clip-path="url(#p20ba5ebae0)" style="fill: none; stroke: #bcbd22; stroke-width: 1.8; stroke-linecap: square"/>
   </g>
   <g id="line2d_24">
    <path d="M 80.837045 339.58069 
L 89.265791 339.58069 
L 97.694536 339.58069 
L 106.123281 339.58069 
L 114.552026 339.58069 
L 122.980771 339.58069 
L 131.409517 339.58069 
L 139.838262 339.58069 
L 148.267007 339.58069 
L 156.695752 339.58069 
L 165.124497 339.58069 
L 173.553243 339.58069 
L 181.981988 339.58069 
L 190.410733 339.58069 
L 198.839478 339.58069 
L 207.268223 339.58069 
L 215.696969 339.58069 
L 224.125714 339.58069 
L 232.554459 339.58069 
L 240.983204 339.58069 
L 249.411949 339.58069 
L 257.840695 339.58069 
L 266.26944 339.58069 
L 274.698185 339.58069 
L 283.12693 339.58069 
L 291.555675 339.58069 
L 299.984421 339.58069 
L 308.413166 339.58069 
L 316.841911 339.58069 
L 325.270656 339.58069 
L 333.699401 339.58069 
L 342.128147 339.58069 
L 350.556892 339.58069 
L 358.985637 339.58069 
L 367.414382 339.58069 
L 375.843127 339.58069 
L 384.271873 339.58069 
L 392.700618 339.58069 
L 401.129363 339.58069 
L 409.558108 339.58069 
L 417.986853 339.58069 
L 426.415599 339.58069 
L 434.844344 339.58069 
L 443.273089 339.58069 
L 451.701834 339.58069 
L 460.130579 339.58069 
L 468.559325 339.58069 
L 476.98807 339.58069 
L 485.416815 339.58069 
L 493.84556 339.58069 
L 502.274305 339.58069 
L 510.703051 339.58069 
L 519.131796 339.58069 
L 527.560541 339.58069 
L 535.989286 339.58069 
L 544.418031 339.58069 
L 552.846777 339.58069 
L 561.275522 339.58069 
L 569.704267 339.58069 
L 578.133012 339.58069 
L 586.561757 339.58069 
L 594.990503 339.58069 
L 603.419248 339.58069 
L 611.847993 339.58069 
L 620.276738 339.58069 
L 628.705483 339.58069 
L 637.134229 339.58069 
L 645.562974 339.58069 
L 653.991719 339.58069 
L 662.420464 339.58069 
L 670.849209 339.58069 
L 679.277955 339.58069 
" clip-path="url(#p20ba5ebae0)" style="fill: none; stroke: #17becf; stroke-width: 1.8; stroke-linecap: square"/>
   </g>
   <g id="line2d_25">
    <path d="M 80.837045 339.58069 
L 89.265791 339.58069 
L 97.694536 339.58069 
L 106.123281 339.58069 
L 114.552026 339.58069 
L 122.980771 339.58069 
L 131.409517 339.58069 
L 139.838262 339.58069 
L 148.267007 339.58069 
L 156.695752 339.58069 
L 165.124497 339.58069 
L 173.553243 339.58069 
L 181.981988 339.58069 
L 190.410733 339.58069 
L 198.839478 339.58069 
L 207.268223 339.58069 
L 215.696969 339.58069 
L 224.125714 339.58069 
L 232.554459 339.58069 
L 240.983204 339.58069 
L 249.411949 339.58069 
L 257.840695 339.58069 
L 266.26944 339.58069 
L 274.698185 339.58069 
L 283.12693 339.58069 
L 291.555675 339.58069 
L 299.984421 339.58069 
L 308.413166 339.58069 
L 316.841911 339.58069 
L 325.270656 339.58069 
L 333.699401 339.58069 
L 342.128147 339.58069 
L 350.556892 339.58069 
L 358.985637 339.58069 
L 367.414382 339.58069 
L 375.843127 339.58069 
L 384.271873 339.58069 
L 392.700618 339.58069 
L 401.129363 339.58069 
L 409.558108 339.58069 
L 417.986853 339.58069 
L 426.415599 339.58069 
L 434.844344 339.58069 
L 443.273089 339.58069 
L 451.701834 339.58069 
L 460.130579 339.58069 
L 468.559325 339.58069 
L 476.98807 339.58069 
L 485.416815 339.58069 
L 493.84556 339.58069 
L 502.274305 339.58069 
L 510.703051 339.58069 
L 519.131796 339.58069 
L 527.560541 339.58069 
L 535.989286 339.58069 
L 544.418031 339.58069 
L 552.846777 339.58069 
L 561.275522 339.58069 
L 569.704267 339.58069 
L 578.133012 339.58069 
L 586.561757 339.58069 
L 594.990503 339.58069 
L 603.419248 339.58069 
L 611.847993 339.58069 
L 620.276738 339.58069 
L 628.705483 339.58069 
L 637.134229 339.58069 
L 645.562974 339.58069 
L 653.991719 339.58069 
L 662.420464 339.58069 
L 670.849209 339.58069 
L 679.277955 339.58069 
" clip-path="url(#p20ba5ebae0)" style="fill: none; stroke: #1f77b4; stroke-width: 1.8; stroke-linecap: square"/>
   </g>
   <g id="line2d_26">
    <path d="M 80.837045 339.58069 
L 89.265791 339.58069 
L 97.694536 339.58069 
L 106.123281 339.58069 
L 114.552026 339.58069 
L 122.980771 339.58069 
L 131.409517 339.58069 
L 139.838262 339.58069 
L 148.267007 339.58069 
L 156.695752 339.58069 
L 165.124497 339.58069 
L 173.553243 339.58069 
L 181.981988 339.58069 
L 190.410733 339.58069 
L 198.839478 339.58069 
L 207.268223 339.58069 
L 215.696969 339.58069 
L 224.125714 339.58069 
L 232.554459 339.58069 
L 240.983204 339.58069 
L 249.411949 339.58069 
L 257.840695 339.58069 
L 266.26944 339.58069 
L 274.698185 339.58069 
L 283.12693 339.58069 
L 291.555675 339.58069 
L 299.984421 339.58069 
L 308.413166 339.58069 
L 316.841911 339.58069 
L 325.270656 339.58069 
L 333.699401 339.58069 
L 342.128147 339.58069 
L 350.556892 339.58069 
L 358.985637 339.58069 
L 367.414382 339.58069 
L 375.843127 339.58069 
L 384.271873 339.58069 
L 392.700618 339.58069 
L 401.129363 339.58069 
L 409.558108 339.58069 
L 417.986853 339.58069 
L 426.415599 339.58069 
L 434.844344 339.58069 
L 443.273089 339.58069 
L 451.701834 339.58069 
L 460.130579 339.58069 
L 468.559325 339.58069 
L 476.98807 339.58069 
L 485.416815 339.58069 
L 493.84556 339.58069 
L 502.274305 339.58069 
L 510.703051 339.58069 
L 519.131796 339.58069 
L 527.560541 339.58069 
L 535.989286 339.58069 
L 544.418031 339.58069 
L 552.846777 339.58069 
L 561.275522 339.58069 
L 569.704267 339.58069 
L 578.133012 339.58069 
L 586.561757 339.58069 
L 594.990503 339.58069 
L 603.419248 339.58069 
L 611.847993 339.58069 
L 620.276738 339.58069 
L 628.705483 339.58069 
L 637.134229 339.58069 
L 645.562974 339.58069 
L 653.991719 339.58069 
L 662.420464 339.58069 
L 670.849209 339.58069 
L 679.277955 339.58069 
" clip-path="url(#p20ba5ebae0)" style="fill: none; stroke: #ff7f0e; stroke-width: 1.8; stroke-linecap: square"/>
   </g>
   <g id="line2d_27">
    <path d="M 80.837045 339.58069 
L 89.265791 343.795919 
L 97.694536 389.159482 
L 106.123281 389.159482 
L 114.552026 389.159482 
L 122.980771 416.618105 
L 131.409517 422.6775 
L 139.838262 422.6775 
L 148.267007 422.6775 
L 156.695752 422.6775 
L 165.124497 390.108902 
L 173.553243 366.546624 
L 181.981988 366.546624 
L 190.410733 366.546624 
L 198.839478 366.546624 
L 207.268223 366.546624 
L 215.696969 321.426016 
L 224.125714 279.696671 
L 232.554459 279.696671 
L 240.983204 279.696671 
L 249.411949 279.696671 
L 257.840695 279.696671 
L 266.26944 339.58069 
L 274.698185 339.58069 
L 283.12693 339.58069 
L 291.555675 339.58069 
L 299.984421 339.58069 
L 308.413166 339.58069 
L 316.841911 339.58069 
L 325.270656 339.58069 
L 333.699401 339.58069 
L 342.128147 339.58069 
L 350.556892 339.58069 
L 358.985637 339.58069 
L 367.414382 304.360037 
L 375.843127 280.388247 
L 384.271873 280.388247 
L 392.700618 280.388247 
L 401.129363 258.921926 
L 409.558108 258.921926 
L 417.986853 226.313487 
L 426.415599 226.313487 
L 434.844344 226.313487 
L 443.273089 226.313487 
L 451.701834 226.313487 
L 460.130579 226.313487 
L 468.559325 266.228198 
L 476.98807 266.228198 
L 485.416815 266.228198 
L 493.84556 266.228198 
L 502.274305 266.228198 
L 510.703051 266.228198 
L 519.131796 266.228198 
L 527.560541 266.228198 
L 535.989286 266.228198 
L 544.418031 318.206752 
L 552.846777 318.206752 
L 561.275522 318.206752 
L 569.704267 318.206752 
L 578.133012 293.487795 
L 586.561757 293.487795 
L 594.990503 263.724456 
L 603.419248 231.58628 
L 611.847993 231.58628 
L 620.276738 231.58628 
L 628.705483 231.58628 
L 637.134229 231.58628 
L 645.562974 231.58628 
L 653.991719 231.58628 
L 662.420464 232.960592 
L 670.849209 295.886816 
L 679.277955 339.58069 
" clip-path="url(#p20ba5ebae0)" style="fill: none; stroke: #2ca02c; stroke-width: 1.8; stroke-linecap: square"/>
   </g>
   <g id="line2d_28">
    <path d="M 80.837045 339.58069 
L 89.265791 339.58069 
L 97.694536 338.093038 
L 106.123281 304.112877 
L 114.552026 304.112877 
L 122.980771 304.112877 
L 131.409517 304.112877 
L 139.838262 270.132716 
L 148.267007 256.561014 
L 156.695752 244.699875 
L 165.124497 244.699875 
L 173.553243 244.699875 
L 181.981988 244.699875 
L 190.410733 244.699875 
L 198.839478 244.699875 
L 207.268223 244.699875 
L 215.696969 244.699875 
L 224.125714 244.699875 
L 232.554459 244.699875 
L 240.983204 244.699875 
L 249.411949 244.699875 
L 257.840695 244.699875 
L 266.26944 244.699875 
L 274.698185 244.699875 
L 283.12693 244.699875 
L 291.555675 244.699875 
L 299.984421 244.699875 
L 308.413166 244.699875 
L 316.841911 244.699875 
L 325.270656 244.699875 
L 333.699401 244.699875 
L 342.128147 244.699875 
L 350.556892 227.646753 
L 358.985637 226.313487 
L 367.414382 226.313487 
L 375.843127 226.313487 
L 384.271873 226.313487 
L 392.700618 226.313487 
L 401.129363 226.313487 
L 409.558108 226.313487 
L 417.986853 226.313487 
L 426.415599 226.313487 
L 434.844344 226.313487 
L 443.273089 226.313487 
L 451.701834 226.313487 
L 460.130579 226.313487 
L 468.559325 226.313487 
L 476.98807 226.313487 
L 485.416815 226.313487 
L 493.84556 226.313487 
L 502.274305 226.313487 
L 510.703051 226.313487 
L 519.131796 226.313487 
L 527.560541 226.313487 
L 535.989286 231.596976 
L 544.418031 240.850718 
L 552.846777 241.679124 
L 561.275522 241.679124 
L 569.704267 251.768977 
L 578.133012 261.853909 
L 586.561757 264.726976 
L 594.990503 274.516373 
L 603.419248 289.78612 
L 611.847993 289.78612 
L 620.276738 289.78612 
L 628.705483 289.78612 
L 637.134229 289.78612 
L 645.562974 289.78612 
L 653.991719 289.78612 
L 662.420464 313.549815 
L 670.849209 320.516322 
L 679.277955 339.58069 
" clip-path="url(#p20ba5ebae0)" style="fill: none; stroke: #d62728; stroke-width: 1.8; stroke-linecap: square"/>
   </g>
   <g id="line2d_29">
    <path d="M 80.837045 344.829131 
L 89.265791 344.829131 
L 97.694536 344.829131 
L 106.123281 344.829131 
L 114.552026 376.292243 
L 122.980771 376.292243 
L 131.409517 376.292243 
L 139.838262 376.292243 
L 148.267007 407.755355 
L 156.695752 407.755355 
L 165.124497 388.488343 
L 173.553243 363.003222 
L 181.981988 337.518101 
L 190.410733 333.602699 
L 198.839478 308.117578 
L 207.268223 308.117578 
L 215.696969 308.117578 
L 224.125714 308.117578 
L 232.554459 308.117578 
L 240.983204 308.117578 
L 249.411949 308.117578 
L 257.840695 308.117578 
L 266.26944 339.58069 
L 274.698185 339.58069 
L 283.12693 339.58069 
L 291.555675 320.72509 
L 299.984421 320.72509 
L 308.413166 320.72509 
L 316.841911 320.72509 
L 325.270656 320.72509 
L 333.699401 320.72509 
L 342.128147 320.72509 
L 350.556892 320.72509 
L 358.985637 310.378273 
L 367.414382 310.378273 
L 375.843127 292.663695 
L 384.271873 292.663695 
L 392.700618 292.663695 
L 401.129363 267.178574 
L 409.558108 241.693454 
L 417.986853 241.693454 
L 426.415599 226.313487 
L 434.844344 226.313487 
L 443.273089 257.776599 
L 451.701834 257.776599 
L 460.130579 289.239711 
L 468.559325 320.702823 
L 476.98807 320.702823 
L 485.416815 320.702823 
L 493.84556 320.702823 
L 502.274305 320.702823 
L 510.703051 320.702823 
L 519.131796 320.702823 
L 527.560541 320.702823 
L 535.989286 352.165935 
L 544.418031 352.165935 
L 552.846777 376.935807 
L 561.275522 376.935807 
L 569.704267 405.027628 
L 578.133012 379.542507 
L 586.561757 354.057386 
L 594.990503 328.572265 
L 603.419248 308.117578 
L 611.847993 308.117578 
L 620.276738 308.117578 
L 628.705483 308.117578 
L 637.134229 308.117578 
L 645.562974 308.117578 
L 653.991719 308.117578 
L 662.420464 339.58069 
L 670.849209 339.58069 
L 679.277955 339.58069 
" clip-path="url(#p20ba5ebae0)" style="fill: none; stroke: #9467bd; stroke-width: 1.8; stroke-linecap: square"/>
   </g>
   <g id="line2d_30">
    <path d="M 80.837045 339.58069 
L 89.265791 339.58069 
L 97.694536 339.58069 
L 106.123281 339.58069 
L 114.552026 339.58069 
L 122.980771 339.58069 
L 131.409517 339.58069 
L 139.838262 339.58069 
L 148.267007 339.58069 
L 156.695752 339.58069 
L 165.124497 339.58069 
L 173.553243 339.58069 
L 181.981988 339.58069 
L 190.410733 339.58069 
L 198.839478 339.58069 
L 207.268223 339.58069 
L 215.696969 339.58069 
L 224.125714 339.58069 
L 232.554459 339.58069 
L 240.983204 339.58069 
L 249.411949 339.58069 
L 257.840695 339.58069 
L 266.26944 339.58069 
L 274.698185 339.58069 
L 283.12693 339.58069 
L 291.555675 339.58069 
L 299.984421 339.58069 
L 308.413166 339.58069 
L 316.841911 339.58069 
L 325.270656 339.58069 
L 333.699401 339.58069 
L 342.128147 339.58069 
L 350.556892 339.58069 
L 358.985637 339.58069 
L 367.414382 339.58069 
L 375.843127 339.58069 
L 384.271873 339.58069 
L 392.700618 339.58069 
L 401.129363 339.58069 
L 409.558108 339.58069 
L 417.986853 339.58069 
L 426.415599 339.58069 
L 434.844344 339.58069 
L 443.273089 339.58069 
L 451.701834 339.58069 
L 460.130579 339.58069 
L 468.559325 339.58069 
L 476.98807 339.58069 
L 485.416815 339.58069 
L 493.84556 339.58069 
L 502.274305 339.58069 
L 510.703051 339.58069 
L 519.131796 339.58069 
L 527.560541 339.58069 
L 535.989286 339.58069 
L 544.418031 339.58069 
L 552.846777 339.58069 
L 561.275522 339.58069 
L 569.704267 339.58069 
L 578.133012 339.58069 
L 586.561757 339.58069 
L 594.990503 339.58069 
L 603.419248 339.58069 
L 611.847993 339.58069 
L 620.276738 339.58069 
L 628.705483 339.58069 
L 637.134229 339.58069 
L 645.562974 339.58069 
L 653.991719 339.58069 
L 662.420464 339.58069 
L 670.849209 339.58069 
L 679.277955 339.58069 
" clip-path="url(#p20ba5ebae0)" style="fill: none; stroke: #8c564b; stroke-width: 1.8; stroke-linecap: square"/>
   </g>
   <g id="line2d_31">
    <path d="M 80.837045 339.58069 
L 89.265791 339.58069 
L 97.694536 339.58069 
L 106.123281 339.58069 
L 114.552026 339.58069 
L 122.980771 339.58069 
L 131.409517 339.58069 
L 139.838262 339.58069 
L 148.267007 339.58069 
L 156.695752 339.58069 
L 165.124497 339.58069 
L 173.553243 339.58069 
L 181.981988 339.58069 
L 190.410733 339.58069 
L 198.839478 339.58069 
L 207.268223 339.58069 
L 215.696969 339.58069 
L 224.125714 339.58069 
L 232.554459 339.58069 
L 240.983204 339.58069 
L 249.411949 339.58069 
L 257.840695 339.58069 
L 266.26944 339.58069 
L 274.698185 339.58069 
L 283.12693 339.58069 
L 291.555675 339.58069 
L 299.984421 339.58069 
L 308.413166 339.58069 
L 316.841911 339.58069 
L 325.270656 339.58069 
L 333.699401 339.58069 
L 342.128147 339.58069 
L 350.556892 339.58069 
L 358.985637 339.58069 
L 367.414382 339.58069 
L 375.843127 339.58069 
L 384.271873 339.58069 
L 392.700618 339.58069 
L 401.129363 339.58069 
L 409.558108 339.58069 
L 417.986853 339.58069 
L 426.415599 339.58069 
L 434.844344 339.58069 
L 443.273089 339.58069 
L 451.701834 339.58069 
L 460.130579 339.58069 
L 468.559325 339.58069 
L 476.98807 339.58069 
L 485.416815 339.58069 
L 493.84556 339.58069 
L 502.274305 339.58069 
L 510.703051 339.58069 
L 519.131796 339.58069 
L 527.560541 339.58069 
L 535.989286 339.58069 
L 544.418031 339.58069 
L 552.846777 339.58069 
L 561.275522 339.58069 
L 569.704267 339.58069 
L 578.133012 339.58069 
L 586.561757 339.58069 
L 594.990503 339.58069 
L 603.419248 339.58069 
L 611.847993 339.58069 
L 620.276738 339.58069 
L 628.705483 339.58069 
L 637.134229 339.58069 
L 645.562974 339.58069 
L 653.991719 339.58069 
L 662.420464 339.58069 
L 670.849209 339.58069 
L 679.277955 339.58069 
" clip-path="url(#p20ba5ebae0)" style="fill: none; stroke: #e377c2; stroke-width: 1.8; stroke-linecap: square"/>
   </g>
   <g id="line2d_32">
    <path d="M 80.837045 339.58069 
L 89.265791 339.58069 
L 97.694536 339.58069 
L 106.123281 339.58069 
L 114.552026 339.58069 
L 122.980771 339.58069 
L 131.409517 339.58069 
L 139.838262 339.58069 
L 148.267007 339.58069 
L 156.695752 339.58069 
L 165.124497 339.58069 
L 173.553243 339.58069 
L 181.981988 339.58069 
L 190.410733 339.58069 
L 198.839478 339.58069 
L 207.268223 339.58069 
L 215.696969 339.58069 
L 224.125714 339.58069 
L 232.554459 339.58069 
L 240.983204 339.58069 
L 249.411949 339.58069 
L 257.840695 339.58069 
L 266.26944 339.58069 
L 274.698185 339.58069 
L 283.12693 339.58069 
L 291.555675 339.58069 
L 299.984421 339.58069 
L 308.413166 339.58069 
L 316.841911 339.58069 
L 325.270656 339.58069 
L 333.699401 339.58069 
L 342.128147 339.58069 
L 350.556892 339.58069 
L 358.985637 339.58069 
L 367.414382 339.58069 
L 375.843127 339.58069 
L 384.271873 339.58069 
L 392.700618 339.58069 
L 401.129363 339.58069 
L 409.558108 339.58069 
L 417.986853 339.58069 
L 426.415599 339.58069 
L 434.844344 339.58069 
L 443.273089 339.58069 
L 451.701834 339.58069 
L 460.130579 339.58069 
L 468.559325 339.58069 
L 476.98807 339.58069 
L 485.416815 339.58069 
L 493.84556 339.58069 
L 502.274305 339.58069 
L 510.703051 339.58069 
L 519.131796 339.58069 
L 527.560541 339.58069 
L 535.989286 339.58069 
L 544.418031 339.58069 
L 552.846777 339.58069 
L 561.275522 339.58069 
L 569.704267 339.58069 
L 578.133012 339.58069 
L 586.561757 339.58069 
L 594.990503 339.58069 
L 603.419248 339.58069 
L 611.847993 339.58069 
L 620.276738 339.58069 
L 628.705483 339.58069 
L 637.134229 339.58069 
L 645.562974 339.58069 
L 653.991719 339.58069 
L 662.420464 339.58069 
L 670.849209 339.58069 
L 679.277955 339.58069 
" clip-path="url(#p20ba5ebae0)" style="fill: none; stroke: #7f7f7f; stroke-width: 1.8; stroke-linecap: square"/>
   </g>
   <g id="patch_3">
    <path d="M 50.915 441.395267 
L 50.915 29.6044 
" style="fill: none; stroke: #000000; stroke-width: 0.8; stroke-linejoin: miter; stroke-linecap: square"/>
   </g>
   <g id="patch_4">
    <path d="M 709.2 441.395267 
L 709.2 29.6044 
" style="fill: none; stroke: #000000; stroke-width: 0.8; stroke-linejoin: miter; stroke-linecap: square"/>
   </g>
   <g id="patch_5">
    <path d="M 50.915 441.395267 
L 709.2 441.395267 
" style="fill: none; stroke: #000000; stroke-width: 0.8; stroke-linejoin: miter; stroke-linecap: square"/>
   </g>
   <g id="patch_6">
    <path d="M 50.915 29.6044 
L 709.2 29.6044 
" style="fill: none; stroke: #000000; stroke-width: 0.8; stroke-linejoin: miter; stroke-linecap: square"/>
   </g>
   <g id="text_17">
    <!-- SoC by battery (T=72, F = 24, L = 12) -->
    <g transform="translate(265.0225 23.6044) scale(0.12 -0.12)">
     <defs>
      <path id="DejaVuSans-62" d="M 3116 1747 
Q 3116 2381 2855 2742 
Q 2594 3103 2138 3103 
Q 1681 3103 1420 2742 
Q 1159 2381 1159 1747 
Q 1159 1113 1420 752 
Q 1681 391 2138 391 
Q 2594 391 2855 752 
Q 3116 1113 3116 1747 
z
M 1159 2969 
Q 1341 3281 1617 3432 
Q 1894 3584 2278 3584 
Q 2916 3584 3314 3078 
Q 3713 2572 3713 1747 
Q 3713 922 3314 415 
Q 2916 -91 2278 -91 
Q 1894 -91 1617 61 
Q 1341 213 1159 525 
L 1159 0 
L 581 0 
L 581 4863 
L 1159 4863 
L 1159 2969 
z
" transform="scale(0.015625)"/>
      <path id="DejaVuSans-79" d="M 2059 -325 
Q 1816 -950 1584 -1140 
Q 1353 -1331 966 -1331 
L 506 -1331 
L 506 -850 
L 844 -850 
Q 1081 -850 1212 -737 
Q 1344 -625 1503 -206 
L 1606 56 
L 191 3500 
L 800 3500 
L 1894 763 
L 2988 3500 
L 3597 3500 
L 2059 -325 
z
" transform="scale(0.015625)"/>
      <path id="DejaVuSans-61" d="M 2194 1759 
Q 1497 1759 1228 1600 
Q 959 1441 959 1056 
Q 959 750 1161 570 
Q 1363 391 1709 391 
Q 2188 391 2477 730 
Q 2766 1069 2766 1631 
L 2766 1759 
L 2194 1759 
z
M 3341 1997 
L 3341 0 
L 2766 0 
L 2766 531 
Q 2569 213 2275 61 
Q 1981 -91 1556 -91 
Q 1019 -91 701 211 
Q 384 513 384 1019 
Q 384 1609 779 1909 
Q 1175 2209 1959 2209 
L 2766 2209 
L 2766 2266 
Q 2766 2663 2505 2880 
Q 2244 3097 1772 3097 
Q 1472 3097 1187 3025 
Q 903 2953 641 2809 
L 641 3341 
Q 956 3463 1253 3523 
Q 1550 3584 1831 3584 
Q 2591 3584 2966 3190 
Q 3341 2797 3341 1997 
z
" transform="scale(0.015625)"/>
      <path id="DejaVuSans-72" d="M 2631 2963 
Q 2534 3019 2420 3045 
Q 2306 3072 2169 3072 
Q 1681 3072 1420 2755 
Q 1159 2438 1159 1844 
L 1159 0 
L 581 0 
L 581 3500 
L 1159 3500 
L 1159 2956 
Q 1341 3275 1631 3429 
Q 1922 3584 2338 3584 
Q 2397 3584 2469 3576 
Q 2541 3569 2628 3553 
L 2631 2963 
z
" transform="scale(0.015625)"/>
      <path id="DejaVuSans-3d" d="M 678 2906 
L 4684 2906 
L 4684 2381 
L 678 2381 
L 678 2906 
z
M 678 1631 
L 4684 1631 
L 4684 1100 
L 678 1100 
L 678 1631 
z
" transform="scale(0.015625)"/>
      <path id="DejaVuSans-2c" d="M 750 794 
L 1409 794 
L 1409 256 
L 897 -744 
L 494 -744 
L 750 256 
L 750 794 
z
" transform="scale(0.015625)"/>
      <path id="DejaVuSans-46" d="M 628 4666 
L 3309 4666 
L 3309 4134 
L 1259 4134 
L 1259 2759 
L 3109 2759 
L 3109 2228 
L 1259 2228 
L 1259 0 
L 628 0 
L 628 4666 
z
" transform="scale(0.015625)"/>
      <path id="DejaVuSans-4c" d="M 628 4666 
L 1259 4666 
L 1259 531 
L 3531 531 
L 3531 0 
L 628 0 
L 628 4666 
z
" transform="scale(0.015625)"/>
     </defs>
     <use xlink:href="#DejaVuSans-53"/>
     <use xlink:href="#DejaVuSans-6f" transform="translate(63.476562 0)"/>
     <use xlink:href="#DejaVuSans-43" transform="translate(124.658203 0)"/>
     <use xlink:href="#DejaVuSans-20" transform="translate(194.482422 0)"/>
     <use xlink:href="#DejaVuSans-62" transform="translate(226.269531 0)"/>
     <use xlink:href="#DejaVuSans-79" transform="translate(289.746094 0)"/>
     <use xlink:href="#DejaVuSans-20" transform="translate(348.925781 0)"/>
     <use xlink:href="#DejaVuSans-62" transform="translate(380.712891 0)"/>
     <use xlink:href="#DejaVuSans-61" transform="translate(444.189453 0)"/>
     <use xlink:href="#DejaVuSans-74" transform="translate(505.46875 0)"/>
     <use xlink:href="#DejaVuSans-74" transform="translate(544.677734 0)"/>
     <use xlink:href="#DejaVuSans-65" transform="translate(583.886719 0)"/>
     <use xlink:href="#DejaVuSans-72" transform="translate(645.410156 0)"/>
     <use xlink:href="#DejaVuSans-79" transform="translate(686.523438 0)"/>
     <use xlink:href="#DejaVuSans-20" transform="translate(745.703125 0)"/>
     <use xlink:href="#DejaVuSans-28" transform="translate(777.490234 0)"/>
     <use xlink:href="#DejaVuSans-54" transform="translate(816.503906 0)"/>
     <use xlink:href="#DejaVuSans-3d" transform="translate(877.587891 0)"/>
     <use xlink:href="#DejaVuSans-37" transform="translate(961.376953 0)"/>
     <use xlink:href="#DejaVuSans-32" transform="translate(1025 0)"/>
     <use xlink:href="#DejaVuSans-2c" transform="translate(1088.623047 0)"/>
     <use xlink:href="#DejaVuSans-20" transform="translate(1120.410156 0)"/>
     <use xlink:href="#DejaVuSans-46" transform="translate(1152.197266 0)"/>
     <use xlink:href="#DejaVuSans-20" transform="translate(1209.716797 0)"/>
     <use xlink:href="#DejaVuSans-3d" transform="translate(1241.503906 0)"/>
     <use xlink:href="#DejaVuSans-20" transform="translate(1325.292969 0)"/>
     <use xlink:href="#DejaVuSans-32" transform="translate(1357.080078 0)"/>
     <use xlink:href="#DejaVuSans-34" transform="translate(1420.703125 0)"/>
     <use xlink:href="#DejaVuSans-2c" transform="translate(1484.326172 0)"/>
     <use xlink:href="#DejaVuSans-20" transform="translate(1516.113281 0)"/>
     <use xlink:href="#DejaVuSans-4c" transform="translate(1547.900391 0)"/>
     <use xlink:href="#DejaVuSans-20" transform="translate(1603.613281 0)"/>
     <use xlink:href="#DejaVuSans-3d" transform="translate(1635.400391 0)"/>
     <use xlink:href="#DejaVuSans-20" transform="translate(1719.189453 0)"/>
     <use xlink:href="#DejaVuSans-31" transform="translate(1750.976562 0)"/>
     <use xlink:href="#DejaVuSans-32" transform="translate(1814.599609 0)"/>
     <use xlink:href="#DejaVuSans-29" transform="translate(1878.222656 0)"/>
    </g>
   </g>
  </g>
 </g>
 <defs>
  <clipPath id="p20ba5ebae0">
   <rect x="50.915" y="29.6044" width="658.285" height="411.790867"/>
  </clipPath>
 </defs>
</svg>
