<?xml version="1.0" encoding="utf-8" standalone="no"?>
<!DOCTYPE svg PUBLIC "-//W3C//DTD SVG 1.1//EN"
  "http://www.w3.org/Graphics/SVG/1.1/DTD/svg11.dtd">
<svg xmlns:xlink="http://www.w3.org/1999/xlink" width="699.12pt" height="560.16pt" viewBox="0 0 699.12 560.16" xmlns="http://www.w3.org/2000/svg" version="1.1">
 <metadata>
  <rdf:RDF xmlns:dc="http://purl.org/dc/elements/1.1/" xmlns:cc="http://creativecommons.org/ns#" xmlns:rdf="http://www.w3.org/1999/02/22-rdf-syntax-ns#">
   <cc:Work>
    <dc:type rdf:resource="http://purl.org/dc/dcmitype/StillImage"/>
    <dc:date>2025-11-12T01:11:06.075834</dc:date>
    <dc:format>image/svg+xml</dc:format>
    <dc:creator>
     <cc:Agent>
      <dc:title>Matplotlib v3.10.0, https://matplotlib.org/</dc:title>
     </cc:Agent>
    </dc:creator>
   </cc:Work>
  </rdf:RDF>
 </metadata>
 <defs>
  <style type="text/css">*{stroke-linejoin: round; stroke-linecap: butt}</style>
 </defs>
 <g id="figure_1">
  <g id="patch_1">
   <path d="M 0 560.16 
L 699.12 560.16 
L 699.12 0 
L 0 0 
z
" style="fill: #ffffff"/>
  </g>
  <g id="axes_1">
   <g id="patch_2">
    <path d="M 49.438465 505.751867 
L 688.6332 505.751867 
L 688.6332 33.9208 
L 49.438465 33.9208 
z
" style="fill: #ffffff"/>
   </g>
   <g id="matplotlib.axis_1">
    <g id="xtick_1">
     <g id="line2d_1">
      <defs>
       <path id="m60e0da67a4" d="M 0 0 
L 0 3.5 
" style="stroke: #000000; stroke-width: 0.8"/>
      </defs>
      <g>
       <use xlink:href="#m60e0da67a4" x="70.30846" y="505.751867" style="stroke: #000000; stroke-width: 0.8"/>
      </g>
     </g>
     <g id="text_1">
      <!-- 0 -->
      <g transform="translate(67.12721 520.350304) scale(0.1 -0.1)">
       <defs>
        <path id="DejaVuSans-30" d="M 2034 4250 
Q 1547 4250 1301 3770 
Q 1056 3291 1056 2328 
Q 1056 1369 1301 889 
Q 1547 409 2034 409 
Q 2525 409 2770 889 
Q 3016 1369 3016 2328 
Q 3016 3291 2770 3770 
Q 2525 4250 2034 4250 
z
M 2034 4750 
Q 2819 4750 3233 4129 
Q 3647 3509 3647 2328 
Q 3647 1150 3233 529 
Q 2819 -91 2034 -91 
Q 1250 -91 836 529 
Q 422 1150 422 2328 
Q 422 3509 836 4129 
Q 1250 4750 2034 4750 
z
" transform="scale(0.015625)"/>
       </defs>
       <use xlink:href="#DejaVuSans-30"/>
      </g>
     </g>
    </g>
    <g id="xtick_2">
     <g id="line2d_2">
      <g>
       <use xlink:href="#m60e0da67a4" x="152.151575" y="505.751867" style="stroke: #000000; stroke-width: 0.8"/>
      </g>
     </g>
     <g id="text_2">
      <!-- 10 -->
      <g transform="translate(145.789075 520.350304) scale(0.1 -0.1)">
       <defs>
        <path id="DejaVuSans-31" d="M 794 531 
L 1825 531 
L 1825 4091 
L 703 3866 
L 703 4441 
L 1819 4666 
L 2450 4666 
L 2450 531 
L 3481 531 
L 3481 0 
L 794 0 
L 794 531 
z
" transform="scale(0.015625)"/>
       </defs>
       <use xlink:href="#DejaVuSans-31"/>
       <use xlink:href="#DejaVuSans-30" transform="translate(63.623047 0)"/>
      </g>
     </g>
    </g>
    <g id="xtick_3">
     <g id="line2d_3">
      <g>
       <use xlink:href="#m60e0da67a4" x="233.994691" y="505.751867" style="stroke: #000000; stroke-width: 0.8"/>
      </g>
     </g>
     <g id="text_3">
      <!-- 20 -->
      <g transform="translate(227.632191 520.350304) scale(0.1 -0.1)">
       <defs>
        <path id="DejaVuSans-32" d="M 1228 531 
L 3431 531 
L 3431 0 
L 469 0 
L 469 531 
Q 828 903 1448 1529 
Q 2069 2156 2228 2338 
Q 2531 2678 2651 2914 
Q 2772 3150 2772 3378 
Q 2772 3750 2511 3984 
Q 2250 4219 1831 4219 
Q 1534 4219 1204 4116 
Q 875 4013 500 3803 
L 500 4441 
Q 881 4594 1212 4672 
Q 1544 4750 1819 4750 
Q 2544 4750 2975 4387 
Q 3406 4025 3406 3419 
Q 3406 3131 3298 2873 
Q 3191 2616 2906 2266 
Q 2828 2175 2409 1742 
Q 1991 1309 1228 531 
z
" transform="scale(0.015625)"/>
       </defs>
       <use xlink:href="#DejaVuSans-32"/>
       <use xlink:href="#DejaVuSans-30" transform="translate(63.623047 0)"/>
      </g>
     </g>
    </g>
    <g id="xtick_4">
     <g id="line2d_4">
      <g>
       <use xlink:href="#m60e0da67a4" x="315.837807" y="505.751867" style="stroke: #000000; stroke-width: 0.8"/>
      </g>
     </g>
     <g id="text_4">
      <!-- 30 -->
      <g transform="translate(309.475307 520.350304) scale(0.1 -0.1)">
       <defs>
        <path id="DejaVuSans-33" d="M 2597 2516 
Q 3050 2419 3304 2112 
Q 3559 1806 3559 1356 
Q 3559 666 3084 287 
Q 2609 -91 1734 -91 
Q 1441 -91 1130 -33 
Q 819 25 488 141 
L 488 750 
Q 750 597 1062 519 
Q 1375 441 1716 441 
Q 2309 441 2620 675 
Q 2931 909 2931 1356 
Q 2931 1769 2642 2001 
Q 2353 2234 1838 2234 
L 1294 2234 
L 1294 2753 
L 1863 2753 
Q 2328 2753 2575 2939 
Q 2822 3125 2822 3475 
Q 2822 3834 2567 4026 
Q 2313 4219 1838 4219 
Q 1578 4219 1281 4162 
Q 984 4106 628 3988 
L 628 4550 
Q 988 4650 1302 4700 
Q 1616 4750 1894 4750 
Q 2613 4750 3031 4423 
Q 3450 4097 3450 3541 
Q 3450 3153 3228 2886 
Q 3006 2619 2597 2516 
z
" transform="scale(0.015625)"/>
       </defs>
       <use xlink:href="#DejaVuSans-33"/>
       <use xlink:href="#DejaVuSans-30" transform="translate(63.623047 0)"/>
      </g>
     </g>
    </g>
    <g id="xtick_5">
     <g id="line2d_5">
      <g>
       <use xlink:href="#m60e0da67a4" x="397.680923" y="505.751867" style="stroke: #000000; stroke-width: 0.8"/>
      </g>
     </g>
     <g id="text_5">
      <!-- 40 -->
      <g transform="translate(391.318423 520.350304) scale(0.1 -0.1)">
       <defs>
        <path id="DejaVuSans-34" d="M 2419 4116 
L 825 1625 
L 2419 1625 
L 2419 4116 
z
M 2253 4666 
L 3047 4666 
L 3047 1625 
L 3713 1625 
L 3713 1100 
L 3047 1100 
L 3047 0 
L 2419 0 
L 2419 1100 
L 313 1100 
L 313 1709 
L 2253 4666 
z
" transform="scale(0.015625)"/>
       </defs>
       <use xlink:href="#DejaVuSans-34"/>
       <use xlink:href="#DejaVuSans-30" transform="translate(63.623047 0)"/>
      </g>
     </g>
    </g>
    <g id="xtick_6">
     <g id="line2d_6">
      <g>
       <use xlink:href="#m60e0da67a4" x="479.524039" y="505.751867" style="stroke: #000000; stroke-width: 0.8"/>
      </g>
     </g>
     <g id="text_6">
      <!-- 50 -->
      <g transform="translate(473.161539 520.350304) scale(0.1 -0.1)">
       <defs>
        <path id="DejaVuSans-35" d="M 691 4666 
L 3169 4666 
L 3169 4134 
L 1269 4134 
L 1269 2991 
Q 1406 3038 1543 3061 
Q 1681 3084 1819 3084 
Q 2600 3084 3056 2656 
Q 3513 2228 3513 1497 
Q 3513 744 3044 326 
Q 2575 -91 1722 -91 
Q 1428 -91 1123 -41 
Q 819 9 494 109 
L 494 744 
Q 775 591 1075 516 
Q 1375 441 1709 441 
Q 2250 441 2565 725 
Q 2881 1009 2881 1497 
Q 2881 1984 2565 2268 
Q 2250 2553 1709 2553 
Q 1456 2553 1204 2497 
Q 953 2441 691 2322 
L 691 4666 
z
" transform="scale(0.015625)"/>
       </defs>
       <use xlink:href="#DejaVuSans-35"/>
       <use xlink:href="#DejaVuSans-30" transform="translate(63.623047 0)"/>
      </g>
     </g>
    </g>
    <g id="xtick_7">
     <g id="line2d_7">
      <g>
       <use xlink:href="#m60e0da67a4" x="561.367155" y="505.751867" style="stroke: #000000; stroke-width: 0.8"/>
      </g>
     </g>
     <g id="text_7">
      <!-- 60 -->
      <g transform="translate(555.004655 520.350304) scale(0.1 -0.1)">
       <defs>
        <path id="DejaVuSans-36" d="M 2113 2584 
Q 1688 2584 1439 2293 
Q 1191 2003 1191 1497 
Q 1191 994 1439 701 
Q 1688 409 2113 409 
Q 2538 409 2786 701 
Q 3034 994 3034 1497 
Q 3034 2003 2786 2293 
Q 2538 2584 2113 2584 
z
M 3366 4563 
L 3366 3988 
Q 3128 4100 2886 4159 
Q 2644 4219 2406 4219 
Q 1781 4219 1451 3797 
Q 1122 3375 1075 2522 
Q 1259 2794 1537 2939 
Q 1816 3084 2150 3084 
Q 2853 3084 3261 2657 
Q 3669 2231 3669 1497 
Q 3669 778 3244 343 
Q 2819 -91 2113 -91 
Q 1303 -91 875 529 
Q 447 1150 447 2328 
Q 447 3434 972 4092 
Q 1497 4750 2381 4750 
Q 2619 4750 2861 4703 
Q 3103 4656 3366 4563 
z
" transform="scale(0.015625)"/>
       </defs>
       <use xlink:href="#DejaVuSans-36"/>
       <use xlink:href="#DejaVuSans-30" transform="translate(63.623047 0)"/>
      </g>
     </g>
    </g>
    <g id="xtick_8">
     <g id="line2d_8">
      <g>
       <use xlink:href="#m60e0da67a4" x="643.210271" y="505.751867" style="stroke: #000000; stroke-width: 0.8"/>
      </g>
     </g>
     <g id="text_8">
      <!-- 70 -->
      <g transform="translate(636.847771 520.350304) scale(0.1 -0.1)">
       <defs>
        <path id="DejaVuSans-37" d="M 525 4666 
L 3525 4666 
L 3525 4397 
L 1831 0 
L 1172 0 
L 2766 4134 
L 525 4134 
L 525 4666 
z
" transform="scale(0.015625)"/>
       </defs>
       <use xlink:href="#DejaVuSans-37"/>
       <use xlink:href="#DejaVuSans-30" transform="translate(63.623047 0)"/>
      </g>
     </g>
    </g>
    <g id="text_9">
     <!-- Time (t) -->
     <g transform="translate(349.351458 534.028429) scale(0.1 -0.1)">
      <defs>
       <path id="DejaVuSans-54" d="M -19 4666 
L 3928 4666 
L 3928 4134 
L 2272 4134 
L 2272 0 
L 1638 0 
L 1638 4134 
L -19 4134 
L -19 4666 
z
" transform="scale(0.015625)"/>
       <path id="DejaVuSans-69" d="M 603 3500 
L 1178 3500 
L 1178 0 
L 603 0 
L 603 3500 
z
M 603 4863 
L 1178 4863 
L 1178 4134 
L 603 4134 
L 603 4863 
z
" transform="scale(0.015625)"/>
       <path id="DejaVuSans-6d" d="M 3328 2828 
Q 3544 3216 3844 3400 
Q 4144 3584 4550 3584 
Q 5097 3584 5394 3201 
Q 5691 2819 5691 2113 
L 5691 0 
L 5113 0 
L 5113 2094 
Q 5113 2597 4934 2840 
Q 4756 3084 4391 3084 
Q 3944 3084 3684 2787 
Q 3425 2491 3425 1978 
L 3425 0 
L 2847 0 
L 2847 2094 
Q 2847 2600 2669 2842 
Q 2491 3084 2119 3084 
Q 1678 3084 1418 2786 
Q 1159 2488 1159 1978 
L 1159 0 
L 581 0 
L 581 3500 
L 1159 3500 
L 1159 2956 
Q 1356 3278 1631 3431 
Q 1906 3584 2284 3584 
Q 2666 3584 2933 3390 
Q 3200 3197 3328 2828 
z
" transform="scale(0.015625)"/>
       <path id="DejaVuSans-65" d="M 3597 1894 
L 3597 1613 
L 953 1613 
Q 991 1019 1311 708 
Q 1631 397 2203 397 
Q 2534 397 2845 478 
Q 3156 559 3463 722 
L 3463 178 
Q 3153 47 2828 -22 
Q 2503 -91 2169 -91 
Q 1331 -91 842 396 
Q 353 884 353 1716 
Q 353 2575 817 3079 
Q 1281 3584 2069 3584 
Q 2775 3584 3186 3129 
Q 3597 2675 3597 1894 
z
M 3022 2063 
Q 3016 2534 2758 2815 
Q 2500 3097 2075 3097 
Q 1594 3097 1305 2825 
Q 1016 2553 972 2059 
L 3022 2063 
z
" transform="scale(0.015625)"/>
       <path id="DejaVuSans-20" transform="scale(0.015625)"/>
       <path id="DejaVuSans-28" d="M 1984 4856 
Q 1566 4138 1362 3434 
Q 1159 2731 1159 2009 
Q 1159 1288 1364 580 
Q 1569 -128 1984 -844 
L 1484 -844 
Q 1016 -109 783 600 
Q 550 1309 550 2009 
Q 550 2706 781 3412 
Q 1013 4119 1484 4856 
L 1984 4856 
z
" transform="scale(0.015625)"/>
       <path id="DejaVuSans-74" d="M 1172 4494 
L 1172 3500 
L 2356 3500 
L 2356 3053 
L 1172 3053 
L 1172 1153 
Q 1172 725 1289 603 
Q 1406 481 1766 481 
L 2356 481 
L 2356 0 
L 1766 0 
Q 1100 0 847 248 
Q 594 497 594 1153 
L 594 3053 
L 172 3053 
L 172 3500 
L 594 3500 
L 594 4494 
L 1172 4494 
z
" transform="scale(0.015625)"/>
       <path id="DejaVuSans-29" d="M 513 4856 
L 1013 4856 
Q 1481 4119 1714 3412 
Q 1947 2706 1947 2009 
Q 1947 1309 1714 600 
Q 1481 -109 1013 -844 
L 513 -844 
Q 928 -128 1133 580 
Q 1338 1288 1338 2009 
Q 1338 2731 1133 3434 
Q 928 4138 513 4856 
z
" transform="scale(0.015625)"/>
      </defs>
      <use xlink:href="#DejaVuSans-54"/>
      <use xlink:href="#DejaVuSans-69" transform="translate(57.958984 0)"/>
      <use xlink:href="#DejaVuSans-6d" transform="translate(85.742188 0)"/>
      <use xlink:href="#DejaVuSans-65" transform="translate(183.154297 0)"/>
      <use xlink:href="#DejaVuSans-20" transform="translate(244.677734 0)"/>
      <use xlink:href="#DejaVuSans-28" transform="translate(276.464844 0)"/>
      <use xlink:href="#DejaVuSans-74" transform="translate(315.478516 0)"/>
      <use xlink:href="#DejaVuSans-29" transform="translate(354.6875 0)"/>
     </g>
    </g>
   </g>
   <g id="matplotlib.axis_2">
    <g id="ytick_1">
     <g id="line2d_9">
      <defs>
       <path id="m5f08c37ebd" d="M 0 0 
L -3.5 0 
" style="stroke: #000000; stroke-width: 0.8"/>
      </defs>
      <g>
       <use xlink:href="#m5f08c37ebd" x="49.438465" y="484.305" style="stroke: #000000; stroke-width: 0.8"/>
      </g>
     </g>
     <g id="text_10">
      <!-- 0 -->
      <g transform="translate(36.075965 488.104219) scale(0.1 -0.1)">
       <use xlink:href="#DejaVuSans-30"/>
      </g>
     </g>
    </g>
    <g id="ytick_2">
     <g id="line2d_10">
      <g>
       <use xlink:href="#m5f08c37ebd" x="49.438465" y="414.934688" style="stroke: #000000; stroke-width: 0.8"/>
      </g>
     </g>
     <g id="text_11">
      <!-- 50 -->
      <g transform="translate(29.713465 418.733907) scale(0.1 -0.1)">
       <use xlink:href="#DejaVuSans-35"/>
       <use xlink:href="#DejaVuSans-30" transform="translate(63.623047 0)"/>
      </g>
     </g>
    </g>
    <g id="ytick_3">
     <g id="line2d_11">
      <g>
       <use xlink:href="#m5f08c37ebd" x="49.438465" y="345.564377" style="stroke: #000000; stroke-width: 0.8"/>
      </g>
     </g>
     <g id="text_12">
      <!-- 100 -->
      <g transform="translate(23.350965 349.363596) scale(0.1 -0.1)">
       <use xlink:href="#DejaVuSans-31"/>
       <use xlink:href="#DejaVuSans-30" transform="translate(63.623047 0)"/>
       <use xlink:href="#DejaVuSans-30" transform="translate(127.246094 0)"/>
      </g>
     </g>
    </g>
    <g id="ytick_4">
     <g id="line2d_12">
      <g>
       <use xlink:href="#m5f08c37ebd" x="49.438465" y="276.194065" style="stroke: #000000; stroke-width: 0.8"/>
      </g>
     </g>
     <g id="text_13">
      <!-- 150 -->
      <g transform="translate(23.350965 279.993284) scale(0.1 -0.1)">
       <use xlink:href="#DejaVuSans-31"/>
       <use xlink:href="#DejaVuSans-35" transform="translate(63.623047 0)"/>
       <use xlink:href="#DejaVuSans-30" transform="translate(127.246094 0)"/>
      </g>
     </g>
    </g>
    <g id="ytick_5">
     <g id="line2d_13">
      <g>
       <use xlink:href="#m5f08c37ebd" x="49.438465" y="206.823754" style="stroke: #000000; stroke-width: 0.8"/>
      </g>
     </g>
     <g id="text_14">
      <!-- 200 -->
      <g transform="translate(23.350965 210.622973) scale(0.1 -0.1)">
       <use xlink:href="#DejaVuSans-32"/>
       <use xlink:href="#DejaVuSans-30" transform="translate(63.623047 0)"/>
       <use xlink:href="#DejaVuSans-30" transform="translate(127.246094 0)"/>
      </g>
     </g>
    </g>
    <g id="ytick_6">
     <g id="line2d_14">
      <g>
       <use xlink:href="#m5f08c37ebd" x="49.438465" y="137.453442" style="stroke: #000000; stroke-width: 0.8"/>
      </g>
     </g>
     <g id="text_15">
      <!-- 250 -->
      <g transform="translate(23.350965 141.252661) scale(0.1 -0.1)">
       <use xlink:href="#DejaVuSans-32"/>
       <use xlink:href="#DejaVuSans-35" transform="translate(63.623047 0)"/>
       <use xlink:href="#DejaVuSans-30" transform="translate(127.246094 0)"/>
      </g>
     </g>
    </g>
    <g id="ytick_7">
     <g id="line2d_15">
      <g>
       <use xlink:href="#m5f08c37ebd" x="49.438465" y="68.083131" style="stroke: #000000; stroke-width: 0.8"/>
      </g>
     </g>
     <g id="text_16">
      <!-- 300 -->
      <g transform="translate(23.350965 71.882349) scale(0.1 -0.1)">
       <use xlink:href="#DejaVuSans-33"/>
       <use xlink:href="#DejaVuSans-30" transform="translate(63.623047 0)"/>
       <use xlink:href="#DejaVuSans-30" transform="translate(127.246094 0)"/>
      </g>
     </g>
    </g>
    <g id="text_17">
     <!-- SoC -->
     <g transform="translate(17.271278 279.561333) rotate(-90) scale(0.1 -0.1)">
      <defs>
       <path id="DejaVuSans-53" d="M 3425 4513 
L 3425 3897 
Q 3066 4069 2747 4153 
Q 2428 4238 2131 4238 
Q 1616 4238 1336 4038 
Q 1056 3838 1056 3469 
Q 1056 3159 1242 3001 
Q 1428 2844 1947 2747 
L 2328 2669 
Q 3034 2534 3370 2195 
Q 3706 1856 3706 1288 
Q 3706 609 3251 259 
Q 2797 -91 1919 -91 
Q 1588 -91 1214 -16 
Q 841 59 441 206 
L 441 856 
Q 825 641 1194 531 
Q 1563 422 1919 422 
Q 2459 422 2753 634 
Q 3047 847 3047 1241 
Q 3047 1584 2836 1778 
Q 2625 1972 2144 2069 
L 1759 2144 
Q 1053 2284 737 2584 
Q 422 2884 422 3419 
Q 422 4038 858 4394 
Q 1294 4750 2059 4750 
Q 2388 4750 2728 4690 
Q 3069 4631 3425 4513 
z
" transform="scale(0.015625)"/>
       <path id="DejaVuSans-6f" d="M 1959 3097 
Q 1497 3097 1228 2736 
Q 959 2375 959 1747 
Q 959 1119 1226 758 
Q 1494 397 1959 397 
Q 2419 397 2687 759 
Q 2956 1122 2956 1747 
Q 2956 2369 2687 2733 
Q 2419 3097 1959 3097 
z
M 1959 3584 
Q 2709 3584 3137 3096 
Q 3566 2609 3566 1747 
Q 3566 888 3137 398 
Q 2709 -91 1959 -91 
Q 1206 -91 779 398 
Q 353 888 353 1747 
Q 353 2609 779 3096 
Q 1206 3584 1959 3584 
z
" transform="scale(0.015625)"/>
       <path id="DejaVuSans-43" d="M 4122 4306 
L 4122 3641 
Q 3803 3938 3442 4084 
Q 3081 4231 2675 4231 
Q 1875 4231 1450 3742 
Q 1025 3253 1025 2328 
Q 1025 1406 1450 917 
Q 1875 428 2675 428 
Q 3081 428 3442 575 
Q 3803 722 4122 1019 
L 4122 359 
Q 3791 134 3420 21 
Q 3050 -91 2638 -91 
Q 1578 -91 968 557 
Q 359 1206 359 2328 
Q 359 3453 968 4101 
Q 1578 4750 2638 4750 
Q 3056 4750 3426 4639 
Q 3797 4528 4122 4306 
z
" transform="scale(0.015625)"/>
      </defs>
      <use xlink:href="#DejaVuSans-53"/>
      <use xlink:href="#DejaVuSans-6f" transform="translate(63.476562 0)"/>
      <use xlink:href="#DejaVuSans-43" transform="translate(124.658203 0)"/>
     </g>
    </g>
   </g>
   <g id="line2d_16">
    <path d="M 78.492771 276.682589 
L 86.677083 276.682589 
L 94.861394 276.682589 
L 103.045706 276.682589 
L 111.230017 276.682589 
L 119.414329 276.682589 
L 127.598641 276.682589 
L 135.782952 276.682589 
L 143.967264 276.682589 
L 152.151575 276.682589 
L 160.335887 276.682589 
L 168.520199 276.682589 
L 176.70451 276.682589 
L 184.888822 276.682589 
L 193.073133 276.682589 
L 201.257445 276.682589 
L 209.441757 276.682589 
L 217.626068 276.682589 
L 225.81038 276.682589 
L 233.994691 276.682589 
L 242.179003 276.682589 
L 250.363314 276.682589 
L 258.547626 276.682589 
L 266.731938 276.682589 
L 274.916249 276.682589 
L 283.100561 276.682589 
L 291.284872 276.682589 
L 299.469184 276.682589 
L 307.653496 276.682589 
L 315.837807 276.682589 
L 324.022119 276.682589 
L 332.20643 276.682589 
L 340.390742 276.682589 
L 348.575054 276.682589 
L 356.759365 276.682589 
L 364.943677 276.682589 
L 373.127988 276.682589 
L 381.3123 276.682589 
L 389.496611 276.682589 
L 397.680923 276.682589 
L 405.865235 276.682589 
L 414.049546 276.682589 
L 422.233858 276.682589 
L 430.418169 276.682589 
L 438.602481 276.682589 
L 446.786793 276.682589 
L 454.971104 276.682589 
L 463.155416 276.682589 
L 471.339727 276.682589 
L 479.524039 276.682589 
L 487.708351 276.682589 
L 495.892662 276.682589 
L 504.076974 276.682589 
L 512.261285 276.682589 
L 520.445597 276.682589 
L 528.629908 276.682589 
L 536.81422 276.682589 
L 544.998532 276.682589 
L 553.182843 276.682589 
L 561.367155 276.682589 
L 569.551466 276.682589 
L 577.735778 276.682589 
L 585.92009 276.682589 
L 594.104401 276.682589 
L 602.288713 276.682589 
L 610.473024 276.682589 
L 618.657336 276.682589 
L 626.841648 276.682589 
L 635.025959 276.682589 
L 643.210271 276.682589 
L 651.394582 276.682589 
L 659.578894 276.682589 
" clip-path="url(#p3ada549574)" style="fill: none; stroke: #1f77b4; stroke-width: 1.8; stroke-linecap: square"/>
   </g>
   <g id="line2d_17">
    <path d="M 78.492771 276.682589 
L 86.677083 276.682589 
L 94.861394 276.682589 
L 103.045706 276.682589 
L 111.230017 276.682589 
L 119.414329 276.682589 
L 127.598641 276.682589 
L 135.782952 276.682589 
L 143.967264 276.682589 
L 152.151575 276.682589 
L 160.335887 276.682589 
L 168.520199 276.682589 
L 176.70451 276.682589 
L 184.888822 276.682589 
L 193.073133 276.682589 
L 201.257445 276.682589 
L 209.441757 276.682589 
L 217.626068 276.682589 
L 225.81038 276.682589 
L 233.994691 276.682589 
L 242.179003 276.682589 
L 250.363314 276.682589 
L 258.547626 276.682589 
L 266.731938 276.682589 
L 274.916249 276.682589 
L 283.100561 276.682589 
L 291.284872 276.682589 
L 299.469184 276.682589 
L 307.653496 276.682589 
L 315.837807 276.682589 
L 324.022119 276.682589 
L 332.20643 276.682589 
L 340.390742 276.682589 
L 348.575054 276.682589 
L 356.759365 276.682589 
L 364.943677 276.682589 
L 373.127988 276.682589 
L 381.3123 276.682589 
L 389.496611 276.682589 
L 397.680923 276.682589 
L 405.865235 276.682589 
L 414.049546 276.682589 
L 422.233858 276.682589 
L 430.418169 276.682589 
L 438.602481 276.682589 
L 446.786793 276.682589 
L 454.971104 276.682589 
L 463.155416 276.682589 
L 471.339727 276.682589 
L 479.524039 276.682589 
L 487.708351 276.682589 
L 495.892662 276.682589 
L 504.076974 276.682589 
L 512.261285 276.682589 
L 520.445597 276.682589 
L 528.629908 276.682589 
L 536.81422 276.682589 
L 544.998532 276.682589 
L 553.182843 276.682589 
L 561.367155 276.682589 
L 569.551466 276.682589 
L 577.735778 276.682589 
L 585.92009 276.682589 
L 594.104401 276.682589 
L 602.288713 276.682589 
L 610.473024 276.682589 
L 618.657336 276.682589 
L 626.841648 276.682589 
L 635.025959 276.682589 
L 643.210271 276.682589 
L 651.394582 276.682589 
L 659.578894 276.682589 
" clip-path="url(#p3ada549574)" style="fill: none; stroke: #ff7f0e; stroke-width: 1.8; stroke-linecap: square"/>
   </g>
   <g id="line2d_18">
    <path d="M 78.492771 276.682589 
L 86.677083 276.682589 
L 94.861394 276.682589 
L 103.045706 276.682589 
L 111.230017 276.682589 
L 119.414329 276.682589 
L 127.598641 276.682589 
L 135.782952 276.682589 
L 143.967264 276.682589 
L 152.151575 276.682589 
L 160.335887 276.682589 
L 168.520199 276.682589 
L 176.70451 276.682589 
L 184.888822 276.682589 
L 193.073133 276.682589 
L 201.257445 276.682589 
L 209.441757 276.682589 
L 217.626068 276.682589 
L 225.81038 276.682589 
L 233.994691 276.682589 
L 242.179003 276.682589 
L 250.363314 276.682589 
L 258.547626 276.682589 
L 266.731938 276.682589 
L 274.916249 276.682589 
L 283.100561 276.682589 
L 291.284872 276.682589 
L 299.469184 276.682589 
L 307.653496 276.682589 
L 315.837807 276.682589 
L 324.022119 276.682589 
L 332.20643 276.682589 
L 340.390742 276.682589 
L 348.575054 276.682589 
L 356.759365 276.682589 
L 364.943677 276.682589 
L 373.127988 276.682589 
L 381.3123 276.682589 
L 389.496611 276.682589 
L 397.680923 276.682589 
L 405.865235 276.682589 
L 414.049546 276.682589 
L 422.233858 276.682589 
L 430.418169 276.682589 
L 438.602481 276.682589 
L 446.786793 276.682589 
L 454.971104 276.682589 
L 463.155416 276.682589 
L 471.339727 276.682589 
L 479.524039 276.682589 
L 487.708351 276.682589 
L 495.892662 276.682589 
L 504.076974 276.682589 
L 512.261285 276.682589 
L 520.445597 276.682589 
L 528.629908 276.682589 
L 536.81422 276.682589 
L 544.998532 276.682589 
L 553.182843 276.682589 
L 561.367155 276.682589 
L 569.551466 276.682589 
L 577.735778 276.682589 
L 585.92009 276.682589 
L 594.104401 276.682589 
L 602.288713 276.682589 
L 610.473024 276.682589 
L 618.657336 276.682589 
L 626.841648 276.682589 
L 635.025959 276.682589 
L 643.210271 276.682589 
L 651.394582 276.682589 
L 659.578894 276.682589 
" clip-path="url(#p3ada549574)" style="fill: none; stroke: #2ca02c; stroke-width: 1.8; stroke-linecap: square"/>
   </g>
   <g id="line2d_19">
    <path d="M 78.492771 276.682589 
L 86.677083 276.682589 
L 94.861394 276.682589 
L 103.045706 276.682589 
L 111.230017 276.682589 
L 119.414329 276.682589 
L 127.598641 276.682589 
L 135.782952 276.682589 
L 143.967264 276.682589 
L 152.151575 276.682589 
L 160.335887 276.682589 
L 168.520199 276.682589 
L 176.70451 276.682589 
L 184.888822 276.682589 
L 193.073133 276.682589 
L 201.257445 276.682589 
L 209.441757 276.682589 
L 217.626068 276.682589 
L 225.81038 276.682589 
L 233.994691 276.682589 
L 242.179003 276.682589 
L 250.363314 276.682589 
L 258.547626 276.682589 
L 266.731938 276.682589 
L 274.916249 276.682589 
L 283.100561 276.682589 
L 291.284872 276.682589 
L 299.469184 276.682589 
L 307.653496 276.682589 
L 315.837807 276.682589 
L 324.022119 276.682589 
L 332.20643 276.682589 
L 340.390742 276.682589 
L 348.575054 276.682589 
L 356.759365 276.682589 
L 364.943677 276.682589 
L 373.127988 276.682589 
L 381.3123 276.682589 
L 389.496611 276.682589 
L 397.680923 276.682589 
L 405.865235 276.682589 
L 414.049546 276.682589 
L 422.233858 276.682589 
L 430.418169 276.682589 
L 438.602481 276.682589 
L 446.786793 276.682589 
L 454.971104 276.682589 
L 463.155416 276.682589 
L 471.339727 276.682589 
L 479.524039 276.682589 
L 487.708351 276.682589 
L 495.892662 276.682589 
L 504.076974 276.682589 
L 512.261285 276.682589 
L 520.445597 276.682589 
L 528.629908 276.682589 
L 536.81422 276.682589 
L 544.998532 276.682589 
L 553.182843 276.682589 
L 561.367155 276.682589 
L 569.551466 276.682589 
L 577.735778 276.682589 
L 585.92009 276.682589 
L 594.104401 276.682589 
L 602.288713 276.682589 
L 610.473024 276.682589 
L 618.657336 276.682589 
L 626.841648 276.682589 
L 635.025959 276.682589 
L 643.210271 276.682589 
L 651.394582 276.682589 
L 659.578894 276.682589 
" clip-path="url(#p3ada549574)" style="fill: none; stroke: #d62728; stroke-width: 1.8; stroke-linecap: square"/>
   </g>
   <g id="line2d_20">
    <path d="M 78.492771 276.682589 
L 86.677083 276.682589 
L 94.861394 276.682589 
L 103.045706 337.114252 
L 111.230017 398.428718 
L 119.414329 398.428718 
L 127.598641 398.428718 
L 135.782952 398.428718 
L 143.967264 398.428718 
L 152.151575 398.428718 
L 160.335887 371.379994 
L 168.520199 321.031025 
L 176.70451 287.906449 
L 184.888822 258.160195 
L 193.073133 258.160195 
L 201.257445 258.160195 
L 209.441757 245.445751 
L 217.626068 245.445751 
L 225.81038 245.445751 
L 233.994691 245.445751 
L 242.179003 245.445751 
L 250.363314 245.445751 
L 258.547626 245.445751 
L 266.731938 276.682589 
L 274.916249 276.682589 
L 283.100561 276.682589 
L 291.284872 276.682589 
L 299.469184 276.682589 
L 307.653496 276.682589 
L 315.837807 276.682589 
L 324.022119 339.998741 
L 332.20643 339.998741 
L 340.390742 339.998741 
L 348.575054 332.384042 
L 356.759365 282.509816 
L 364.943677 280.07193 
L 373.127988 279.896355 
L 381.3123 224.596675 
L 389.496611 224.596675 
L 397.680923 224.596675 
L 405.865235 224.596675 
L 414.049546 209.767853 
L 422.233858 209.767853 
L 430.418169 209.767853 
L 438.602481 209.767853 
L 446.786793 209.767853 
L 454.971104 209.767853 
L 463.155416 276.682589 
L 471.339727 311.244824 
L 479.524039 311.244824 
L 487.708351 367.08317 
L 495.892662 367.08317 
L 504.076974 373.813341 
L 512.261285 373.813341 
L 520.445597 435.837082 
L 528.629908 435.837082 
L 536.81422 435.837082 
L 544.998532 435.837082 
L 553.182843 382.619605 
L 561.367155 329.544116 
L 569.551466 273.835651 
L 577.735778 218.523906 
L 585.92009 218.523906 
L 594.104401 196.971124 
L 602.288713 149.28752 
L 610.473024 149.28752 
L 618.657336 149.28752 
L 626.841648 149.28752 
L 635.025959 149.28752 
L 643.210271 149.28752 
L 651.394582 209.925301 
L 659.578894 276.682589 
" clip-path="url(#p3ada549574)" style="fill: none; stroke: #9467bd; stroke-width: 1.8; stroke-linecap: square"/>
   </g>
   <g id="line2d_21">
    <path d="M 78.492771 276.682589 
L 86.677083 276.682589 
L 94.861394 276.682589 
L 103.045706 276.682589 
L 111.230017 276.682589 
L 119.414329 276.682589 
L 127.598641 276.682589 
L 135.782952 276.682589 
L 143.967264 276.682589 
L 152.151575 276.682589 
L 160.335887 276.682589 
L 168.520199 276.682589 
L 176.70451 276.682589 
L 184.888822 276.682589 
L 193.073133 276.682589 
L 201.257445 276.682589 
L 209.441757 276.682589 
L 217.626068 276.682589 
L 225.81038 276.682589 
L 233.994691 276.682589 
L 242.179003 276.682589 
L 250.363314 276.682589 
L 258.547626 276.682589 
L 266.731938 276.682589 
L 274.916249 276.682589 
L 283.100561 276.682589 
L 291.284872 276.682589 
L 299.469184 276.682589 
L 307.653496 276.682589 
L 315.837807 276.682589 
L 324.022119 276.682589 
L 332.20643 276.682589 
L 340.390742 276.682589 
L 348.575054 276.682589 
L 356.759365 276.682589 
L 364.943677 276.682589 
L 373.127988 276.682589 
L 381.3123 276.682589 
L 389.496611 276.682589 
L 397.680923 276.682589 
L 405.865235 276.682589 
L 414.049546 276.682589 
L 422.233858 276.682589 
L 430.418169 276.682589 
L 438.602481 276.682589 
L 446.786793 276.682589 
L 454.971104 276.682589 
L 463.155416 276.682589 
L 471.339727 276.682589 
L 479.524039 276.682589 
L 487.708351 276.682589 
L 495.892662 276.682589 
L 504.076974 276.682589 
L 512.261285 276.682589 
L 520.445597 276.682589 
L 528.629908 276.682589 
L 536.81422 276.682589 
L 544.998532 276.682589 
L 553.182843 276.682589 
L 561.367155 276.682589 
L 569.551466 276.682589 
L 577.735778 276.682589 
L 585.92009 276.682589 
L 594.104401 276.682589 
L 602.288713 276.682589 
L 610.473024 276.682589 
L 618.657336 276.682589 
L 626.841648 276.682589 
L 635.025959 276.682589 
L 643.210271 276.682589 
L 651.394582 276.682589 
L 659.578894 276.682589 
" clip-path="url(#p3ada549574)" style="fill: none; stroke: #8c564b; stroke-width: 1.8; stroke-linecap: square"/>
   </g>
   <g id="line2d_22">
    <path d="M 78.492771 69.060177 
L 86.677083 69.060177 
L 94.861394 69.060177 
L 103.045706 69.060177 
L 111.230017 69.060177 
L 119.414329 69.060177 
L 127.598641 69.060177 
L 135.782952 69.060177 
L 143.967264 69.060177 
L 152.151575 69.060177 
L 160.335887 69.060177 
L 168.520199 69.060177 
L 176.70451 69.060177 
L 184.888822 69.060177 
L 193.073133 69.060177 
L 201.257445 69.060177 
L 209.441757 69.060177 
L 217.626068 69.060177 
L 225.81038 69.060177 
L 233.994691 69.060177 
L 242.179003 69.060177 
L 250.363314 69.060177 
L 258.547626 69.060177 
L 266.731938 69.060177 
L 274.916249 69.060177 
L 283.100561 69.060177 
L 291.284872 69.060177 
L 299.469184 69.060177 
L 307.653496 69.060177 
L 315.837807 69.060177 
L 324.022119 69.060177 
L 332.20643 69.060177 
L 340.390742 69.060177 
L 348.575054 69.060177 
L 356.759365 69.060177 
L 364.943677 69.060177 
L 373.127988 69.060177 
L 381.3123 69.060177 
L 389.496611 69.060177 
L 397.680923 69.060177 
L 405.865235 69.060177 
L 414.049546 69.060177 
L 422.233858 69.060177 
L 430.418169 69.060177 
L 438.602481 69.060177 
L 446.786793 69.060177 
L 454.971104 69.060177 
L 463.155416 69.060177 
L 471.339727 69.060177 
L 479.524039 69.060177 
L 487.708351 69.060177 
L 495.892662 69.060177 
L 504.076974 69.060177 
L 512.261285 69.060177 
L 520.445597 69.060177 
L 528.629908 69.060177 
L 536.81422 69.060177 
L 544.998532 69.060177 
L 553.182843 69.060177 
L 561.367155 69.060177 
L 569.551466 69.060177 
L 577.735778 69.060177 
L 585.92009 69.060177 
L 594.104401 69.060177 
L 602.288713 69.060177 
L 610.473024 69.060177 
L 618.657336 69.060177 
L 626.841648 69.060177 
L 635.025959 69.060177 
L 643.210271 69.060177 
L 651.394582 69.060177 
L 659.578894 69.060177 
" clip-path="url(#p3ada549574)" style="fill: none; stroke: #e377c2; stroke-width: 1.8; stroke-linecap: square"/>
   </g>
   <g id="line2d_23">
    <path d="M 78.492771 69.060177 
L 86.677083 69.060177 
L 94.861394 69.060177 
L 103.045706 69.060177 
L 111.230017 69.060177 
L 119.414329 69.060177 
L 127.598641 69.060177 
L 135.782952 69.060177 
L 143.967264 69.060177 
L 152.151575 69.060177 
L 160.335887 69.060177 
L 168.520199 69.060177 
L 176.70451 69.060177 
L 184.888822 69.060177 
L 193.073133 69.060177 
L 201.257445 69.060177 
L 209.441757 69.060177 
L 217.626068 69.060177 
L 225.81038 69.060177 
L 233.994691 69.060177 
L 242.179003 69.060177 
L 250.363314 69.060177 
L 258.547626 69.060177 
L 266.731938 69.060177 
L 274.916249 69.060177 
L 283.100561 69.060177 
L 291.284872 69.060177 
L 299.469184 69.060177 
L 307.653496 69.060177 
L 315.837807 69.060177 
L 324.022119 69.060177 
L 332.20643 69.060177 
L 340.390742 69.060177 
L 348.575054 69.060177 
L 356.759365 69.060177 
L 364.943677 69.060177 
L 373.127988 69.060177 
L 381.3123 69.060177 
L 389.496611 69.060177 
L 397.680923 69.060177 
L 405.865235 69.060177 
L 414.049546 69.060177 
L 422.233858 69.060177 
L 430.418169 69.060177 
L 438.602481 69.060177 
L 446.786793 69.060177 
L 454.971104 69.060177 
L 463.155416 69.060177 
L 471.339727 69.060177 
L 479.524039 69.060177 
L 487.708351 69.060177 
L 495.892662 74.948854 
L 504.076974 78.333001 
L 512.261285 85.618081 
L 520.445597 92.509604 
L 528.629908 92.509604 
L 536.81422 101.783679 
L 544.998532 110.430606 
L 553.182843 117.296891 
L 561.367155 116.861257 
L 569.551466 110.292709 
L 577.735778 104.449872 
L 585.92009 102.529053 
L 594.104401 107.771605 
L 602.288713 110.273441 
L 610.473024 110.273441 
L 618.657336 102.177463 
L 626.841648 86.839801 
L 635.025959 72.998378 
L 643.210271 55.367667 
L 651.394582 66.278687 
L 659.578894 69.060177 
" clip-path="url(#p3ada549574)" style="fill: none; stroke: #7f7f7f; stroke-width: 1.8; stroke-linecap: square"/>
   </g>
   <g id="line2d_24">
    <path d="M 78.492771 69.060177 
L 86.677083 69.060177 
L 94.861394 69.060177 
L 103.045706 69.060177 
L 111.230017 69.060177 
L 119.414329 69.060177 
L 127.598641 69.060177 
L 135.782952 69.060177 
L 143.967264 69.060177 
L 152.151575 69.060177 
L 160.335887 69.060177 
L 168.520199 69.060177 
L 176.70451 69.060177 
L 184.888822 69.060177 
L 193.073133 69.060177 
L 201.257445 69.060177 
L 209.441757 69.060177 
L 217.626068 69.060177 
L 225.81038 69.060177 
L 233.994691 69.060177 
L 242.179003 69.060177 
L 250.363314 69.060177 
L 258.547626 69.060177 
L 266.731938 69.060177 
L 274.916249 69.060177 
L 283.100561 69.060177 
L 291.284872 69.060177 
L 299.469184 69.060177 
L 307.653496 69.060177 
L 315.837807 69.060177 
L 324.022119 69.060177 
L 332.20643 69.060177 
L 340.390742 69.060177 
L 348.575054 69.060177 
L 356.759365 69.060177 
L 364.943677 69.060177 
L 373.127988 69.060177 
L 381.3123 69.060177 
L 389.496611 69.060177 
L 397.680923 69.060177 
L 405.865235 69.060177 
L 414.049546 69.060177 
L 422.233858 69.060177 
L 430.418169 69.060177 
L 438.602481 69.060177 
L 446.786793 69.060177 
L 454.971104 69.060177 
L 463.155416 69.060177 
L 471.339727 69.060177 
L 479.524039 69.060177 
L 487.708351 69.060177 
L 495.892662 69.060177 
L 504.076974 69.060177 
L 512.261285 69.060177 
L 520.445597 69.060177 
L 528.629908 69.060177 
L 536.81422 69.060177 
L 544.998532 69.060177 
L 553.182843 69.060177 
L 561.367155 69.060177 
L 569.551466 69.060177 
L 577.735778 69.060177 
L 585.92009 69.060177 
L 594.104401 69.060177 
L 602.288713 69.060177 
L 610.473024 69.060177 
L 618.657336 69.060177 
L 626.841648 69.060177 
L 635.025959 69.060177 
L 643.210271 69.060177 
L 651.394582 69.060177 
L 659.578894 69.060177 
" clip-path="url(#p3ada549574)" style="fill: none; stroke: #bcbd22; stroke-width: 1.8; stroke-linecap: square"/>
   </g>
   <g id="line2d_25">
    <path d="M 78.492771 368.03645 
L 86.677083 368.03645 
L 94.861394 368.03645 
L 103.045706 368.03645 
L 111.230017 368.03645 
L 119.414329 368.03645 
L 127.598641 368.03645 
L 135.782952 368.03645 
L 143.967264 368.03645 
L 152.151575 368.03645 
L 160.335887 368.03645 
L 168.520199 368.03645 
L 176.70451 368.03645 
L 184.888822 368.03645 
L 193.073133 368.03645 
L 201.257445 368.03645 
L 209.441757 368.03645 
L 217.626068 368.03645 
L 225.81038 368.03645 
L 233.994691 368.03645 
L 242.179003 368.03645 
L 250.363314 368.03645 
L 258.547626 368.03645 
L 266.731938 368.03645 
L 274.916249 368.03645 
L 283.100561 368.03645 
L 291.284872 368.03645 
L 299.469184 368.03645 
L 307.653496 368.03645 
L 315.837807 368.03645 
L 324.022119 368.03645 
L 332.20643 368.03645 
L 340.390742 368.03645 
L 348.575054 368.03645 
L 356.759365 368.03645 
L 364.943677 368.03645 
L 373.127988 368.03645 
L 381.3123 368.03645 
L 389.496611 368.03645 
L 397.680923 368.03645 
L 405.865235 368.03645 
L 414.049546 368.03645 
L 422.233858 368.03645 
L 430.418169 368.03645 
L 438.602481 368.03645 
L 446.786793 368.03645 
L 454.971104 368.03645 
L 463.155416 368.03645 
L 471.339727 368.03645 
L 479.524039 368.03645 
L 487.708351 368.03645 
L 495.892662 368.03645 
L 504.076974 368.03645 
L 512.261285 368.03645 
L 520.445597 368.03645 
L 528.629908 368.03645 
L 536.81422 368.03645 
L 544.998532 368.03645 
L 553.182843 368.03645 
L 561.367155 368.03645 
L 569.551466 368.03645 
L 577.735778 368.03645 
L 585.92009 368.03645 
L 594.104401 368.03645 
L 602.288713 368.03645 
L 610.473024 368.03645 
L 618.657336 368.03645 
L 626.841648 368.03645 
L 635.025959 368.03645 
L 643.210271 368.03645 
L 651.394582 368.03645 
L 659.578894 368.03645 
" clip-path="url(#p3ada549574)" style="fill: none; stroke: #17becf; stroke-width: 1.8; stroke-linecap: square"/>
   </g>
   <g id="line2d_26">
    <path d="M 78.492771 368.03645 
L 86.677083 368.03645 
L 94.861394 368.03645 
L 103.045706 368.03645 
L 111.230017 368.03645 
L 119.414329 368.03645 
L 127.598641 368.03645 
L 135.782952 368.03645 
L 143.967264 368.03645 
L 152.151575 368.03645 
L 160.335887 368.03645 
L 168.520199 368.03645 
L 176.70451 368.03645 
L 184.888822 368.03645 
L 193.073133 368.03645 
L 201.257445 368.03645 
L 209.441757 368.03645 
L 217.626068 368.03645 
L 225.81038 368.03645 
L 233.994691 368.03645 
L 242.179003 368.03645 
L 250.363314 368.03645 
L 258.547626 368.03645 
L 266.731938 368.03645 
L 274.916249 368.03645 
L 283.100561 368.03645 
L 291.284872 368.03645 
L 299.469184 368.03645 
L 307.653496 368.03645 
L 315.837807 368.03645 
L 324.022119 368.03645 
L 332.20643 368.03645 
L 340.390742 368.03645 
L 348.575054 368.03645 
L 356.759365 368.03645 
L 364.943677 368.03645 
L 373.127988 368.03645 
L 381.3123 368.03645 
L 389.496611 368.03645 
L 397.680923 368.03645 
L 405.865235 368.03645 
L 414.049546 368.03645 
L 422.233858 368.03645 
L 430.418169 368.03645 
L 438.602481 368.03645 
L 446.786793 368.03645 
L 454.971104 368.03645 
L 463.155416 368.03645 
L 471.339727 368.03645 
L 479.524039 368.03645 
L 487.708351 368.03645 
L 495.892662 368.03645 
L 504.076974 368.03645 
L 512.261285 368.03645 
L 520.445597 368.03645 
L 528.629908 368.03645 
L 536.81422 368.03645 
L 544.998532 368.03645 
L 553.182843 368.03645 
L 561.367155 368.03645 
L 569.551466 368.03645 
L 577.735778 368.03645 
L 585.92009 368.03645 
L 594.104401 368.03645 
L 602.288713 368.03645 
L 610.473024 368.03645 
L 618.657336 368.03645 
L 626.841648 368.03645 
L 635.025959 368.03645 
L 643.210271 368.03645 
L 651.394582 368.03645 
L 659.578894 368.03645 
" clip-path="url(#p3ada549574)" style="fill: none; stroke: #1f77b4; stroke-width: 1.8; stroke-linecap: square"/>
   </g>
   <g id="line2d_27">
    <path d="M 78.492771 368.03645 
L 86.677083 368.03645 
L 94.861394 368.03645 
L 103.045706 368.03645 
L 111.230017 368.03645 
L 119.414329 368.03645 
L 127.598641 368.03645 
L 135.782952 368.03645 
L 143.967264 368.03645 
L 152.151575 368.03645 
L 160.335887 368.03645 
L 168.520199 368.03645 
L 176.70451 368.03645 
L 184.888822 368.03645 
L 193.073133 368.03645 
L 201.257445 368.03645 
L 209.441757 368.03645 
L 217.626068 368.03645 
L 225.81038 368.03645 
L 233.994691 368.03645 
L 242.179003 368.03645 
L 250.363314 368.03645 
L 258.547626 368.03645 
L 266.731938 368.03645 
L 274.916249 368.03645 
L 283.100561 368.03645 
L 291.284872 368.03645 
L 299.469184 368.03645 
L 307.653496 368.03645 
L 315.837807 368.03645 
L 324.022119 368.03645 
L 332.20643 368.03645 
L 340.390742 368.03645 
L 348.575054 368.03645 
L 356.759365 368.03645 
L 364.943677 368.03645 
L 373.127988 368.03645 
L 381.3123 368.03645 
L 389.496611 368.03645 
L 397.680923 368.03645 
L 405.865235 368.03645 
L 414.049546 368.03645 
L 422.233858 368.03645 
L 430.418169 368.03645 
L 438.602481 368.03645 
L 446.786793 368.03645 
L 454.971104 368.03645 
L 463.155416 368.03645 
L 471.339727 368.03645 
L 479.524039 368.03645 
L 487.708351 368.03645 
L 495.892662 368.03645 
L 504.076974 368.03645 
L 512.261285 368.03645 
L 520.445597 368.03645 
L 528.629908 368.03645 
L 536.81422 368.03645 
L 544.998532 368.03645 
L 553.182843 368.03645 
L 561.367155 368.03645 
L 569.551466 368.03645 
L 577.735778 368.03645 
L 585.92009 368.03645 
L 594.104401 368.03645 
L 602.288713 368.03645 
L 610.473024 368.03645 
L 618.657336 368.03645 
L 626.841648 368.03645 
L 635.025959 368.03645 
L 643.210271 368.03645 
L 651.394582 368.03645 
L 659.578894 368.03645 
" clip-path="url(#p3ada549574)" style="fill: none; stroke: #ff7f0e; stroke-width: 1.8; stroke-linecap: square"/>
   </g>
   <g id="line2d_28">
    <path d="M 78.492771 394.329194 
L 86.677083 394.329194 
L 94.861394 429.609634 
L 103.045706 429.609634 
L 111.230017 429.609634 
L 119.414329 458.538182 
L 127.598641 484.305 
L 135.782952 484.305 
L 143.967264 484.305 
L 152.151575 447.159225 
L 160.335887 447.159225 
L 168.520199 447.159225 
L 176.70451 447.159225 
L 184.888822 447.159225 
L 193.073133 418.357629 
L 201.257445 367.21053 
L 209.441757 329.327894 
L 217.626068 314.57124 
L 225.81038 314.57124 
L 233.994691 314.57124 
L 242.179003 314.57124 
L 250.363314 314.57124 
L 258.547626 368.03645 
L 266.731938 368.03645 
L 274.916249 368.03645 
L 283.100561 368.03645 
L 291.284872 368.03645 
L 299.469184 368.03645 
L 307.653496 432.630089 
L 315.837807 467.022789 
L 324.022119 467.022789 
L 332.20643 467.022789 
L 340.390742 467.022789 
L 348.575054 467.022789 
L 356.759365 467.022789 
L 364.943677 452.4895 
L 373.127988 400.168653 
L 381.3123 400.168653 
L 389.496611 368.312328 
L 397.680923 318.733347 
L 405.865235 285.996149 
L 414.049546 285.996149 
L 422.233858 285.996149 
L 430.418169 285.996149 
L 438.602481 285.996149 
L 446.786793 307.90941 
L 454.971104 368.03645 
L 463.155416 368.03645 
L 471.339727 368.03645 
L 479.524039 368.03645 
L 487.708351 368.03645 
L 495.892662 368.03645 
L 504.076974 396.471551 
L 512.261285 461.06519 
L 520.445597 461.06519 
L 528.629908 461.06519 
L 536.81422 461.06519 
L 544.998532 441.315069 
L 553.182843 441.315069 
L 561.367155 441.315069 
L 569.551466 441.315069 
L 577.735778 441.315069 
L 585.92009 416.081409 
L 594.104401 416.081409 
L 602.288713 416.081409 
L 610.473024 368.03645 
L 618.657336 368.03645 
L 626.841648 368.03645 
L 635.025959 368.03645 
L 643.210271 368.03645 
L 651.394582 368.03645 
L 659.578894 368.03645 
" clip-path="url(#p3ada549574)" style="fill: none; stroke: #2ca02c; stroke-width: 1.8; stroke-linecap: square"/>
   </g>
   <g id="line2d_29">
    <path d="M 78.492771 368.03645 
L 86.677083 367.265604 
L 94.861394 367.265604 
L 103.045706 364.562826 
L 111.230017 360.661013 
L 119.414329 356.305253 
L 127.598641 347.312654 
L 135.782952 337.756185 
L 143.967264 337.756185 
L 152.151575 337.756185 
L 160.335887 335.526557 
L 168.520199 335.526557 
L 176.70451 335.526557 
L 184.888822 335.526557 
L 193.073133 341.37624 
L 201.257445 343.292576 
L 209.441757 343.292576 
L 217.626068 343.292576 
L 225.81038 343.292576 
L 233.994691 343.292576 
L 242.179003 343.292576 
L 250.363314 348.711656 
L 258.547626 353.151277 
L 266.731938 359.508548 
L 274.916249 359.508548 
L 283.100561 362.30138 
L 291.284872 362.30138 
L 299.469184 362.30138 
L 307.653496 363.029 
L 315.837807 363.768059 
L 324.022119 364.322395 
L 332.20643 364.322395 
L 340.390742 364.322395 
L 348.575054 364.322395 
L 356.759365 364.322395 
L 364.943677 364.322395 
L 373.127988 365.792509 
L 381.3123 366.905716 
L 389.496611 366.905716 
L 397.680923 366.905716 
L 405.865235 366.905716 
L 414.049546 366.905716 
L 422.233858 366.905716 
L 430.418169 366.905716 
L 438.602481 367.452011 
L 446.786793 367.452011 
L 454.971104 367.882098 
L 463.155416 368.03645 
L 471.339727 368.03645 
L 479.524039 368.03645 
L 487.708351 368.03645 
L 495.892662 368.03645 
L 504.076974 368.03645 
L 512.261285 368.03645 
L 520.445597 368.03645 
L 528.629908 368.03645 
L 536.81422 368.03645 
L 544.998532 368.03645 
L 553.182843 368.03645 
L 561.367155 368.03645 
L 569.551466 368.03645 
L 577.735778 368.03645 
L 585.92009 368.03645 
L 594.104401 368.03645 
L 602.288713 368.03645 
L 610.473024 368.03645 
L 618.657336 368.03645 
L 626.841648 368.03645 
L 635.025959 368.03645 
L 643.210271 368.03645 
L 651.394582 368.03645 
L 659.578894 368.03645 
" clip-path="url(#p3ada549574)" style="fill: none; stroke: #d62728; stroke-width: 1.8; stroke-linecap: square"/>
   </g>
   <g id="line2d_30">
    <path d="M 78.492771 400.333269 
L 86.677083 426.862129 
L 94.861394 426.862129 
L 103.045706 426.862129 
L 111.230017 426.862129 
L 119.414329 459.158949 
L 127.598641 459.158949 
L 135.782952 459.158949 
L 143.967264 459.158949 
L 152.151575 459.158949 
L 160.335887 432.998525 
L 168.520199 432.998525 
L 176.70451 406.838101 
L 184.888822 380.677677 
L 193.073133 354.517254 
L 201.257445 354.517254 
L 209.441757 354.517254 
L 217.626068 335.73963 
L 225.81038 335.73963 
L 233.994691 335.73963 
L 242.179003 335.73963 
L 250.363314 335.73963 
L 258.547626 335.73963 
L 266.731938 368.03645 
L 274.916249 368.03645 
L 283.100561 368.03645 
L 291.284872 378.170279 
L 299.469184 378.170279 
L 307.653496 378.170279 
L 315.837807 410.467099 
L 324.022119 410.467099 
L 332.20643 410.467099 
L 340.390742 410.467099 
L 348.575054 410.467099 
L 356.759365 410.467099 
L 364.943677 384.306675 
L 373.127988 384.306675 
L 381.3123 384.306675 
L 389.496611 368.03645 
L 397.680923 368.03645 
L 405.865235 368.03645 
L 414.049546 368.03645 
L 422.233858 368.03645 
L 430.418169 368.03645 
L 438.602481 368.03645 
L 446.786793 368.03645 
L 454.971104 368.03645 
L 463.155416 368.03645 
L 471.339727 400.333269 
L 479.524039 400.333269 
L 487.708351 400.333269 
L 495.892662 400.333269 
L 504.076974 432.630089 
L 512.261285 435.295913 
L 520.445597 435.295913 
L 528.629908 435.295913 
L 536.81422 435.295913 
L 544.998532 416.746167 
L 553.182843 416.746167 
L 561.367155 416.746167 
L 569.551466 416.746167 
L 577.735778 416.746167 
L 585.92009 390.585744 
L 594.104401 364.42532 
L 602.288713 364.42532 
L 610.473024 364.42532 
L 618.657336 364.42532 
L 626.841648 364.42532 
L 635.025959 364.42532 
L 643.210271 368.03645 
L 651.394582 368.03645 
L 659.578894 368.03645 
" clip-path="url(#p3ada549574)" style="fill: none; stroke: #9467bd; stroke-width: 1.8; stroke-linecap: square"/>
   </g>
   <g id="line2d_31">
    <path d="M 78.492771 368.03645 
L 86.677083 368.03645 
L 94.861394 368.03645 
L 103.045706 368.03645 
L 111.230017 368.03645 
L 119.414329 368.03645 
L 127.598641 368.03645 
L 135.782952 368.03645 
L 143.967264 368.03645 
L 152.151575 368.03645 
L 160.335887 368.03645 
L 168.520199 368.03645 
L 176.70451 368.03645 
L 184.888822 368.03645 
L 193.073133 368.03645 
L 201.257445 368.03645 
L 209.441757 368.03645 
L 217.626068 368.03645 
L 225.81038 368.03645 
L 233.994691 368.03645 
L 242.179003 368.03645 
L 250.363314 368.03645 
L 258.547626 368.03645 
L 266.731938 368.03645 
L 274.916249 368.03645 
L 283.100561 368.03645 
L 291.284872 368.03645 
L 299.469184 368.03645 
L 307.653496 368.03645 
L 315.837807 368.03645 
L 324.022119 368.03645 
L 332.20643 368.03645 
L 340.390742 368.03645 
L 348.575054 368.03645 
L 356.759365 368.03645 
L 364.943677 368.03645 
L 373.127988 368.03645 
L 381.3123 368.03645 
L 389.496611 368.03645 
L 397.680923 368.03645 
L 405.865235 368.03645 
L 414.049546 368.03645 
L 422.233858 368.03645 
L 430.418169 368.03645 
L 438.602481 368.03645 
L 446.786793 368.03645 
L 454.971104 368.03645 
L 463.155416 368.03645 
L 471.339727 368.03645 
L 479.524039 368.03645 
L 487.708351 368.03645 
L 495.892662 368.03645 
L 504.076974 368.03645 
L 512.261285 368.03645 
L 520.445597 368.03645 
L 528.629908 368.03645 
L 536.81422 368.03645 
L 544.998532 368.03645 
L 553.182843 368.03645 
L 561.367155 368.03645 
L 569.551466 368.03645 
L 577.735778 368.03645 
L 585.92009 368.03645 
L 594.104401 368.03645 
L 602.288713 368.03645 
L 610.473024 368.03645 
L 618.657336 368.03645 
L 626.841648 368.03645 
L 635.025959 368.03645 
L 643.210271 368.03645 
L 651.394582 368.03645 
L 659.578894 368.03645 
" clip-path="url(#p3ada549574)" style="fill: none; stroke: #8c564b; stroke-width: 1.8; stroke-linecap: square"/>
   </g>
   <g id="line2d_32">
    <path d="M 78.492771 368.03645 
L 86.677083 368.03645 
L 94.861394 368.03645 
L 103.045706 368.03645 
L 111.230017 368.03645 
L 119.414329 368.03645 
L 127.598641 368.03645 
L 135.782952 368.03645 
L 143.967264 368.03645 
L 152.151575 368.03645 
L 160.335887 368.03645 
L 168.520199 368.03645 
L 176.70451 368.03645 
L 184.888822 368.03645 
L 193.073133 368.03645 
L 201.257445 368.03645 
L 209.441757 368.03645 
L 217.626068 368.03645 
L 225.81038 368.03645 
L 233.994691 368.03645 
L 242.179003 368.03645 
L 250.363314 368.03645 
L 258.547626 368.03645 
L 266.731938 368.03645 
L 274.916249 368.03645 
L 283.100561 368.03645 
L 291.284872 368.03645 
L 299.469184 368.03645 
L 307.653496 368.03645 
L 315.837807 368.03645 
L 324.022119 368.03645 
L 332.20643 368.03645 
L 340.390742 368.03645 
L 348.575054 368.03645 
L 356.759365 368.03645 
L 364.943677 368.03645 
L 373.127988 368.03645 
L 381.3123 368.03645 
L 389.496611 368.03645 
L 397.680923 368.03645 
L 405.865235 368.03645 
L 414.049546 368.03645 
L 422.233858 368.03645 
L 430.418169 368.03645 
L 438.602481 368.03645 
L 446.786793 368.03645 
L 454.971104 368.03645 
L 463.155416 368.03645 
L 471.339727 368.03645 
L 479.524039 368.03645 
L 487.708351 368.03645 
L 495.892662 368.03645 
L 504.076974 368.03645 
L 512.261285 368.03645 
L 520.445597 368.03645 
L 528.629908 368.03645 
L 536.81422 368.03645 
L 544.998532 368.03645 
L 553.182843 368.03645 
L 561.367155 368.03645 
L 569.551466 368.03645 
L 577.735778 368.03645 
L 585.92009 368.03645 
L 594.104401 368.03645 
L 602.288713 368.03645 
L 610.473024 368.03645 
L 618.657336 368.03645 
L 626.841648 368.03645 
L 635.025959 368.03645 
L 643.210271 368.03645 
L 651.394582 368.03645 
L 659.578894 368.03645 
" clip-path="url(#p3ada549574)" style="fill: none; stroke: #e377c2; stroke-width: 1.8; stroke-linecap: square"/>
   </g>
   <g id="line2d_33">
    <path d="M 78.492771 368.03645 
L 86.677083 368.03645 
L 94.861394 368.03645 
L 103.045706 368.03645 
L 111.230017 368.03645 
L 119.414329 368.03645 
L 127.598641 368.03645 
L 135.782952 368.03645 
L 143.967264 368.03645 
L 152.151575 368.03645 
L 160.335887 368.03645 
L 168.520199 368.03645 
L 176.70451 368.03645 
L 184.888822 368.03645 
L 193.073133 368.03645 
L 201.257445 368.03645 
L 209.441757 368.03645 
L 217.626068 368.03645 
L 225.81038 368.03645 
L 233.994691 368.03645 
L 242.179003 368.03645 
L 250.363314 368.03645 
L 258.547626 368.03645 
L 266.731938 368.03645 
L 274.916249 368.03645 
L 283.100561 368.03645 
L 291.284872 368.03645 
L 299.469184 368.03645 
L 307.653496 368.03645 
L 315.837807 368.03645 
L 324.022119 368.03645 
L 332.20643 368.03645 
L 340.390742 368.03645 
L 348.575054 368.03645 
L 356.759365 368.03645 
L 364.943677 368.03645 
L 373.127988 368.03645 
L 381.3123 368.03645 
L 389.496611 368.03645 
L 397.680923 368.03645 
L 405.865235 368.03645 
L 414.049546 368.03645 
L 422.233858 368.03645 
L 430.418169 368.03645 
L 438.602481 368.03645 
L 446.786793 368.03645 
L 454.971104 368.03645 
L 463.155416 368.03645 
L 471.339727 368.03645 
L 479.524039 368.03645 
L 487.708351 368.03645 
L 495.892662 368.03645 
L 504.076974 368.03645 
L 512.261285 368.03645 
L 520.445597 368.03645 
L 528.629908 368.03645 
L 536.81422 368.03645 
L 544.998532 368.03645 
L 553.182843 368.03645 
L 561.367155 368.03645 
L 569.551466 368.03645 
L 577.735778 368.03645 
L 585.92009 368.03645 
L 594.104401 368.03645 
L 602.288713 368.03645 
L 610.473024 368.03645 
L 618.657336 368.03645 
L 626.841648 368.03645 
L 635.025959 368.03645 
L 643.210271 368.03645 
L 651.394582 368.03645 
L 659.578894 368.03645 
" clip-path="url(#p3ada549574)" style="fill: none; stroke: #7f7f7f; stroke-width: 1.8; stroke-linecap: square"/>
   </g>
   <g id="patch_3">
    <path d="M 49.438465 505.751867 
L 49.438465 33.9208 
" style="fill: none; stroke: #000000; stroke-width: 0.8; stroke-linejoin: miter; stroke-linecap: square"/>
   </g>
   <g id="patch_4">
    <path d="M 688.6332 505.751867 
L 688.6332 33.9208 
" style="fill: none; stroke: #000000; stroke-width: 0.8; stroke-linejoin: miter; stroke-linecap: square"/>
   </g>
   <g id="patch_5">
    <path d="M 49.438465 505.751867 
L 688.6332 505.751867 
" style="fill: none; stroke: #000000; stroke-width: 0.8; stroke-linejoin: miter; stroke-linecap: square"/>
   </g>
   <g id="patch_6">
    <path d="M 49.438465 33.9208 
L 688.6332 33.9208 
" style="fill: none; stroke: #000000; stroke-width: 0.8; stroke-linejoin: miter; stroke-linecap: square"/>
   </g>
   <g id="text_18">
    <!-- SoC by battery (T=72, F = 12, L = 12) -->
    <g transform="translate(254.000833 27.9208) scale(0.12 -0.12)">
     <defs>
      <path id="DejaVuSans-62" d="M 3116 1747 
Q 3116 2381 2855 2742 
Q 2594 3103 2138 3103 
Q 1681 3103 1420 2742 
Q 1159 2381 1159 1747 
Q 1159 1113 1420 752 
Q 1681 391 2138 391 
Q 2594 391 2855 752 
Q 3116 1113 3116 1747 
z
M 1159 2969 
Q 1341 3281 1617 3432 
Q 1894 3584 2278 3584 
Q 2916 3584 3314 3078 
Q 3713 2572 3713 1747 
Q 3713 922 3314 415 
Q 2916 -91 2278 -91 
Q 1894 -91 1617 61 
Q 1341 213 1159 525 
L 1159 0 
L 581 0 
L 581 4863 
L 1159 4863 
L 1159 2969 
z
" transform="scale(0.015625)"/>
      <path id="DejaVuSans-79" d="M 2059 -325 
Q 1816 -950 1584 -1140 
Q 1353 -1331 966 -1331 
L 506 -1331 
L 506 -850 
L 844 -850 
Q 1081 -850 1212 -737 
Q 1344 -625 1503 -206 
L 1606 56 
L 191 3500 
L 800 3500 
L 1894 763 
L 2988 3500 
L 3597 3500 
L 2059 -325 
z
" transform="scale(0.015625)"/>
      <path id="DejaVuSans-61" d="M 2194 1759 
Q 1497 1759 1228 1600 
Q 959 1441 959 1056 
Q 959 750 1161 570 
Q 1363 391 1709 391 
Q 2188 391 2477 730 
Q 2766 1069 2766 1631 
L 2766 1759 
L 2194 1759 
z
M 3341 1997 
L 3341 0 
L 2766 0 
L 2766 531 
Q 2569 213 2275 61 
Q 1981 -91 1556 -91 
Q 1019 -91 701 211 
Q 384 513 384 1019 
Q 384 1609 779 1909 
Q 1175 2209 1959 2209 
L 2766 2209 
L 2766 2266 
Q 2766 2663 2505 2880 
Q 2244 3097 1772 3097 
Q 1472 3097 1187 3025 
Q 903 2953 641 2809 
L 641 3341 
Q 956 3463 1253 3523 
Q 1550 3584 1831 3584 
Q 2591 3584 2966 3190 
Q 3341 2797 3341 1997 
z
" transform="scale(0.015625)"/>
      <path id="DejaVuSans-72" d="M 2631 2963 
Q 2534 3019 2420 3045 
Q 2306 3072 2169 3072 
Q 1681 3072 1420 2755 
Q 1159 2438 1159 1844 
L 1159 0 
L 581 0 
L 581 3500 
L 1159 3500 
L 1159 2956 
Q 1341 3275 1631 3429 
Q 1922 3584 2338 3584 
Q 2397 3584 2469 3576 
Q 2541 3569 2628 3553 
L 2631 2963 
z
" transform="scale(0.015625)"/>
      <path id="DejaVuSans-3d" d="M 678 2906 
L 4684 2906 
L 4684 2381 
L 678 2381 
L 678 2906 
z
M 678 1631 
L 4684 1631 
L 4684 1100 
L 678 1100 
L 678 1631 
z
" transform="scale(0.015625)"/>
      <path id="DejaVuSans-2c" d="M 750 794 
L 1409 794 
L 1409 256 
L 897 -744 
L 494 -744 
L 750 256 
L 750 794 
z
" transform="scale(0.015625)"/>
      <path id="DejaVuSans-46" d="M 628 4666 
L 3309 4666 
L 3309 4134 
L 1259 4134 
L 1259 2759 
L 3109 2759 
L 3109 2228 
L 1259 2228 
L 1259 0 
L 628 0 
L 628 4666 
z
" transform="scale(0.015625)"/>
      <path id="DejaVuSans-4c" d="M 628 4666 
L 1259 4666 
L 1259 531 
L 3531 531 
L 3531 0 
L 628 0 
L 628 4666 
z
" transform="scale(0.015625)"/>
     </defs>
     <use xlink:href="#DejaVuSans-53"/>
     <use xlink:href="#DejaVuSans-6f" transform="translate(63.476562 0)"/>
     <use xlink:href="#DejaVuSans-43" transform="translate(124.658203 0)"/>
     <use xlink:href="#DejaVuSans-20" transform="translate(194.482422 0)"/>
     <use xlink:href="#DejaVuSans-62" transform="translate(226.269531 0)"/>
     <use xlink:href="#DejaVuSans-79" transform="translate(289.746094 0)"/>
     <use xlink:href="#DejaVuSans-20" transform="translate(348.925781 0)"/>
     <use xlink:href="#DejaVuSans-62" transform="translate(380.712891 0)"/>
     <use xlink:href="#DejaVuSans-61" transform="translate(444.189453 0)"/>
     <use xlink:href="#DejaVuSans-74" transform="translate(505.46875 0)"/>
     <use xlink:href="#DejaVuSans-74" transform="translate(544.677734 0)"/>
     <use xlink:href="#DejaVuSans-65" transform="translate(583.886719 0)"/>
     <use xlink:href="#DejaVuSans-72" transform="translate(645.410156 0)"/>
     <use xlink:href="#DejaVuSans-79" transform="translate(686.523438 0)"/>
     <use xlink:href="#DejaVuSans-20" transform="translate(745.703125 0)"/>
     <use xlink:href="#DejaVuSans-28" transform="translate(777.490234 0)"/>
     <use xlink:href="#DejaVuSans-54" transform="translate(816.503906 0)"/>
     <use xlink:href="#DejaVuSans-3d" transform="translate(877.587891 0)"/>
     <use xlink:href="#DejaVuSans-37" transform="translate(961.376953 0)"/>
     <use xlink:href="#DejaVuSans-32" transform="translate(1025 0)"/>
     <use xlink:href="#DejaVuSans-2c" transform="translate(1088.623047 0)"/>
     <use xlink:href="#DejaVuSans-20" transform="translate(1120.410156 0)"/>
     <use xlink:href="#DejaVuSans-46" transform="translate(1152.197266 0)"/>
     <use xlink:href="#DejaVuSans-20" transform="translate(1209.716797 0)"/>
     <use xlink:href="#DejaVuSans-3d" transform="translate(1241.503906 0)"/>
     <use xlink:href="#DejaVuSans-20" transform="translate(1325.292969 0)"/>
     <use xlink:href="#DejaVuSans-31" transform="translate(1357.080078 0)"/>
     <use xlink:href="#DejaVuSans-32" transform="translate(1420.703125 0)"/>
     <use xlink:href="#DejaVuSans-2c" transform="translate(1484.326172 0)"/>
     <use xlink:href="#DejaVuSans-20" transform="translate(1516.113281 0)"/>
     <use xlink:href="#DejaVuSans-4c" transform="translate(1547.900391 0)"/>
     <use xlink:href="#DejaVuSans-20" transform="translate(1603.613281 0)"/>
     <use xlink:href="#DejaVuSans-3d" transform="translate(1635.400391 0)"/>
     <use xlink:href="#DejaVuSans-20" transform="translate(1719.189453 0)"/>
     <use xlink:href="#DejaVuSans-31" transform="translate(1750.976562 0)"/>
     <use xlink:href="#DejaVuSans-32" transform="translate(1814.599609 0)"/>
     <use xlink:href="#DejaVuSans-29" transform="translate(1878.222656 0)"/>
    </g>
   </g>
  </g>
 </g>
 <defs>
  <clipPath id="p3ada549574">
   <rect x="49.438465" y="33.9208" width="639.194735" height="471.831067"/>
  </clipPath>
 </defs>
</svg>
