<?xml version="1.0" encoding="utf-8" standalone="no"?>
<!DOCTYPE svg PUBLIC "-//W3C//DTD SVG 1.1//EN"
  "http://www.w3.org/Graphics/SVG/1.1/DTD/svg11.dtd">
<svg xmlns:xlink="http://www.w3.org/1999/xlink" width="720pt" height="432pt" viewBox="0 0 720 432" xmlns="http://www.w3.org/2000/svg" version="1.1">
 <metadata>
  <rdf:RDF xmlns:dc="http://purl.org/dc/elements/1.1/" xmlns:cc="http://creativecommons.org/ns#" xmlns:rdf="http://www.w3.org/1999/02/22-rdf-syntax-ns#">
   <cc:Work>
    <dc:type rdf:resource="http://purl.org/dc/dcmitype/StillImage"/>
    <dc:date>2025-11-11T00:16:52.832151</dc:date>
    <dc:format>image/svg+xml</dc:format>
    <dc:creator>
     <cc:Agent>
      <dc:title>Matplotlib v3.10.0, https://matplotlib.org/</dc:title>
     </cc:Agent>
    </dc:creator>
   </cc:Work>
  </rdf:RDF>
 </metadata>
 <defs>
  <style type="text/css">*{stroke-linejoin: round; stroke-linecap: butt}</style>
 </defs>
 <g id="figure_1">
  <g id="patch_1">
   <path d="M 0 432 
L 720 432 
L 720 0 
L 0 0 
z
" style="fill: #ffffff"/>
  </g>
  <g id="axes_1">
   <g id="patch_2">
    <path d="M 51.05 390.04 
L 703.779179 390.04 
L 703.779179 25.44 
L 51.05 25.44 
z
" style="fill: #ffffff"/>
   </g>
   <g id="matplotlib.axis_1">
    <g id="xtick_1">
     <g id="line2d_1">
      <defs>
       <path id="md530cf0b0e" d="M 0 0 
L 0 3.5 
" style="stroke: #000000; stroke-width: 0.8"/>
      </defs>
      <g>
       <use xlink:href="#md530cf0b0e" x="78.948194" y="390.04" style="stroke: #000000; stroke-width: 0.8"/>
      </g>
     </g>
     <g id="text_1">
      <!-- 0 -->
      <g transform="translate(75.766944 404.638438) scale(0.1 -0.1)">
       <defs>
        <path id="DejaVuSans-30" d="M 2034 4250 
Q 1547 4250 1301 3770 
Q 1056 3291 1056 2328 
Q 1056 1369 1301 889 
Q 1547 409 2034 409 
Q 2525 409 2770 889 
Q 3016 1369 3016 2328 
Q 3016 3291 2770 3770 
Q 2525 4250 2034 4250 
z
M 2034 4750 
Q 2819 4750 3233 4129 
Q 3647 3509 3647 2328 
Q 3647 1150 3233 529 
Q 2819 -91 2034 -91 
Q 1250 -91 836 529 
Q 422 1150 422 2328 
Q 422 3509 836 4129 
Q 1250 4750 2034 4750 
z
" transform="scale(0.015625)"/>
       </defs>
       <use xlink:href="#DejaVuSans-30"/>
      </g>
     </g>
    </g>
    <g id="xtick_2">
     <g id="line2d_2">
      <g>
       <use xlink:href="#md530cf0b0e" x="167.51389" y="390.04" style="stroke: #000000; stroke-width: 0.8"/>
      </g>
     </g>
     <g id="text_2">
      <!-- 50 -->
      <g transform="translate(161.15139 404.638438) scale(0.1 -0.1)">
       <defs>
        <path id="DejaVuSans-35" d="M 691 4666 
L 3169 4666 
L 3169 4134 
L 1269 4134 
L 1269 2991 
Q 1406 3038 1543 3061 
Q 1681 3084 1819 3084 
Q 2600 3084 3056 2656 
Q 3513 2228 3513 1497 
Q 3513 744 3044 326 
Q 2575 -91 1722 -91 
Q 1428 -91 1123 -41 
Q 819 9 494 109 
L 494 744 
Q 775 591 1075 516 
Q 1375 441 1709 441 
Q 2250 441 2565 725 
Q 2881 1009 2881 1497 
Q 2881 1984 2565 2268 
Q 2250 2553 1709 2553 
Q 1456 2553 1204 2497 
Q 953 2441 691 2322 
L 691 4666 
z
" transform="scale(0.015625)"/>
       </defs>
       <use xlink:href="#DejaVuSans-35"/>
       <use xlink:href="#DejaVuSans-30" transform="translate(63.623047 0)"/>
      </g>
     </g>
    </g>
    <g id="xtick_3">
     <g id="line2d_3">
      <g>
       <use xlink:href="#md530cf0b0e" x="256.079586" y="390.04" style="stroke: #000000; stroke-width: 0.8"/>
      </g>
     </g>
     <g id="text_3">
      <!-- 100 -->
      <g transform="translate(246.535836 404.638438) scale(0.1 -0.1)">
       <defs>
        <path id="DejaVuSans-31" d="M 794 531 
L 1825 531 
L 1825 4091 
L 703 3866 
L 703 4441 
L 1819 4666 
L 2450 4666 
L 2450 531 
L 3481 531 
L 3481 0 
L 794 0 
L 794 531 
z
" transform="scale(0.015625)"/>
       </defs>
       <use xlink:href="#DejaVuSans-31"/>
       <use xlink:href="#DejaVuSans-30" transform="translate(63.623047 0)"/>
       <use xlink:href="#DejaVuSans-30" transform="translate(127.246094 0)"/>
      </g>
     </g>
    </g>
    <g id="xtick_4">
     <g id="line2d_4">
      <g>
       <use xlink:href="#md530cf0b0e" x="344.645282" y="390.04" style="stroke: #000000; stroke-width: 0.8"/>
      </g>
     </g>
     <g id="text_4">
      <!-- 150 -->
      <g transform="translate(335.101532 404.638438) scale(0.1 -0.1)">
       <use xlink:href="#DejaVuSans-31"/>
       <use xlink:href="#DejaVuSans-35" transform="translate(63.623047 0)"/>
       <use xlink:href="#DejaVuSans-30" transform="translate(127.246094 0)"/>
      </g>
     </g>
    </g>
    <g id="xtick_5">
     <g id="line2d_5">
      <g>
       <use xlink:href="#md530cf0b0e" x="433.210978" y="390.04" style="stroke: #000000; stroke-width: 0.8"/>
      </g>
     </g>
     <g id="text_5">
      <!-- 200 -->
      <g transform="translate(423.667228 404.638438) scale(0.1 -0.1)">
       <defs>
        <path id="DejaVuSans-32" d="M 1228 531 
L 3431 531 
L 3431 0 
L 469 0 
L 469 531 
Q 828 903 1448 1529 
Q 2069 2156 2228 2338 
Q 2531 2678 2651 2914 
Q 2772 3150 2772 3378 
Q 2772 3750 2511 3984 
Q 2250 4219 1831 4219 
Q 1534 4219 1204 4116 
Q 875 4013 500 3803 
L 500 4441 
Q 881 4594 1212 4672 
Q 1544 4750 1819 4750 
Q 2544 4750 2975 4387 
Q 3406 4025 3406 3419 
Q 3406 3131 3298 2873 
Q 3191 2616 2906 2266 
Q 2828 2175 2409 1742 
Q 1991 1309 1228 531 
z
" transform="scale(0.015625)"/>
       </defs>
       <use xlink:href="#DejaVuSans-32"/>
       <use xlink:href="#DejaVuSans-30" transform="translate(63.623047 0)"/>
       <use xlink:href="#DejaVuSans-30" transform="translate(127.246094 0)"/>
      </g>
     </g>
    </g>
    <g id="xtick_6">
     <g id="line2d_6">
      <g>
       <use xlink:href="#md530cf0b0e" x="521.776674" y="390.04" style="stroke: #000000; stroke-width: 0.8"/>
      </g>
     </g>
     <g id="text_6">
      <!-- 250 -->
      <g transform="translate(512.232924 404.638438) scale(0.1 -0.1)">
       <use xlink:href="#DejaVuSans-32"/>
       <use xlink:href="#DejaVuSans-35" transform="translate(63.623047 0)"/>
       <use xlink:href="#DejaVuSans-30" transform="translate(127.246094 0)"/>
      </g>
     </g>
    </g>
    <g id="xtick_7">
     <g id="line2d_7">
      <g>
       <use xlink:href="#md530cf0b0e" x="610.34237" y="390.04" style="stroke: #000000; stroke-width: 0.8"/>
      </g>
     </g>
     <g id="text_7">
      <!-- 300 -->
      <g transform="translate(600.79862 404.638438) scale(0.1 -0.1)">
       <defs>
        <path id="DejaVuSans-33" d="M 2597 2516 
Q 3050 2419 3304 2112 
Q 3559 1806 3559 1356 
Q 3559 666 3084 287 
Q 2609 -91 1734 -91 
Q 1441 -91 1130 -33 
Q 819 25 488 141 
L 488 750 
Q 750 597 1062 519 
Q 1375 441 1716 441 
Q 2309 441 2620 675 
Q 2931 909 2931 1356 
Q 2931 1769 2642 2001 
Q 2353 2234 1838 2234 
L 1294 2234 
L 1294 2753 
L 1863 2753 
Q 2328 2753 2575 2939 
Q 2822 3125 2822 3475 
Q 2822 3834 2567 4026 
Q 2313 4219 1838 4219 
Q 1578 4219 1281 4162 
Q 984 4106 628 3988 
L 628 4550 
Q 988 4650 1302 4700 
Q 1616 4750 1894 4750 
Q 2613 4750 3031 4423 
Q 3450 4097 3450 3541 
Q 3450 3153 3228 2886 
Q 3006 2619 2597 2516 
z
" transform="scale(0.015625)"/>
       </defs>
       <use xlink:href="#DejaVuSans-33"/>
       <use xlink:href="#DejaVuSans-30" transform="translate(63.623047 0)"/>
       <use xlink:href="#DejaVuSans-30" transform="translate(127.246094 0)"/>
      </g>
     </g>
    </g>
    <g id="xtick_8">
     <g id="line2d_8">
      <g>
       <use xlink:href="#md530cf0b0e" x="698.908066" y="390.04" style="stroke: #000000; stroke-width: 0.8"/>
      </g>
     </g>
     <g id="text_8">
      <!-- 350 -->
      <g transform="translate(689.364316 404.638438) scale(0.1 -0.1)">
       <use xlink:href="#DejaVuSans-33"/>
       <use xlink:href="#DejaVuSans-35" transform="translate(63.623047 0)"/>
       <use xlink:href="#DejaVuSans-30" transform="translate(127.246094 0)"/>
      </g>
     </g>
    </g>
    <g id="text_9">
     <!-- Time (t) -->
     <g transform="translate(357.730215 418.316562) scale(0.1 -0.1)">
      <defs>
       <path id="DejaVuSans-54" d="M -19 4666 
L 3928 4666 
L 3928 4134 
L 2272 4134 
L 2272 0 
L 1638 0 
L 1638 4134 
L -19 4134 
L -19 4666 
z
" transform="scale(0.015625)"/>
       <path id="DejaVuSans-69" d="M 603 3500 
L 1178 3500 
L 1178 0 
L 603 0 
L 603 3500 
z
M 603 4863 
L 1178 4863 
L 1178 4134 
L 603 4134 
L 603 4863 
z
" transform="scale(0.015625)"/>
       <path id="DejaVuSans-6d" d="M 3328 2828 
Q 3544 3216 3844 3400 
Q 4144 3584 4550 3584 
Q 5097 3584 5394 3201 
Q 5691 2819 5691 2113 
L 5691 0 
L 5113 0 
L 5113 2094 
Q 5113 2597 4934 2840 
Q 4756 3084 4391 3084 
Q 3944 3084 3684 2787 
Q 3425 2491 3425 1978 
L 3425 0 
L 2847 0 
L 2847 2094 
Q 2847 2600 2669 2842 
Q 2491 3084 2119 3084 
Q 1678 3084 1418 2786 
Q 1159 2488 1159 1978 
L 1159 0 
L 581 0 
L 581 3500 
L 1159 3500 
L 1159 2956 
Q 1356 3278 1631 3431 
Q 1906 3584 2284 3584 
Q 2666 3584 2933 3390 
Q 3200 3197 3328 2828 
z
" transform="scale(0.015625)"/>
       <path id="DejaVuSans-65" d="M 3597 1894 
L 3597 1613 
L 953 1613 
Q 991 1019 1311 708 
Q 1631 397 2203 397 
Q 2534 397 2845 478 
Q 3156 559 3463 722 
L 3463 178 
Q 3153 47 2828 -22 
Q 2503 -91 2169 -91 
Q 1331 -91 842 396 
Q 353 884 353 1716 
Q 353 2575 817 3079 
Q 1281 3584 2069 3584 
Q 2775 3584 3186 3129 
Q 3597 2675 3597 1894 
z
M 3022 2063 
Q 3016 2534 2758 2815 
Q 2500 3097 2075 3097 
Q 1594 3097 1305 2825 
Q 1016 2553 972 2059 
L 3022 2063 
z
" transform="scale(0.015625)"/>
       <path id="DejaVuSans-20" transform="scale(0.015625)"/>
       <path id="DejaVuSans-28" d="M 1984 4856 
Q 1566 4138 1362 3434 
Q 1159 2731 1159 2009 
Q 1159 1288 1364 580 
Q 1569 -128 1984 -844 
L 1484 -844 
Q 1016 -109 783 600 
Q 550 1309 550 2009 
Q 550 2706 781 3412 
Q 1013 4119 1484 4856 
L 1984 4856 
z
" transform="scale(0.015625)"/>
       <path id="DejaVuSans-74" d="M 1172 4494 
L 1172 3500 
L 2356 3500 
L 2356 3053 
L 1172 3053 
L 1172 1153 
Q 1172 725 1289 603 
Q 1406 481 1766 481 
L 2356 481 
L 2356 0 
L 1766 0 
Q 1100 0 847 248 
Q 594 497 594 1153 
L 594 3053 
L 172 3053 
L 172 3500 
L 594 3500 
L 594 4494 
L 1172 4494 
z
" transform="scale(0.015625)"/>
       <path id="DejaVuSans-29" d="M 513 4856 
L 1013 4856 
Q 1481 4119 1714 3412 
Q 1947 2706 1947 2009 
Q 1947 1309 1714 600 
Q 1481 -109 1013 -844 
L 513 -844 
Q 928 -128 1133 580 
Q 1338 1288 1338 2009 
Q 1338 2731 1133 3434 
Q 928 4138 513 4856 
z
" transform="scale(0.015625)"/>
      </defs>
      <use xlink:href="#DejaVuSans-54"/>
      <use xlink:href="#DejaVuSans-69" transform="translate(57.958984 0)"/>
      <use xlink:href="#DejaVuSans-6d" transform="translate(85.742188 0)"/>
      <use xlink:href="#DejaVuSans-65" transform="translate(183.154297 0)"/>
      <use xlink:href="#DejaVuSans-20" transform="translate(244.677734 0)"/>
      <use xlink:href="#DejaVuSans-28" transform="translate(276.464844 0)"/>
      <use xlink:href="#DejaVuSans-74" transform="translate(315.478516 0)"/>
      <use xlink:href="#DejaVuSans-29" transform="translate(354.6875 0)"/>
     </g>
    </g>
   </g>
   <g id="matplotlib.axis_2">
    <g id="ytick_1">
     <g id="line2d_9">
      <defs>
       <path id="m1d10a5c0a4" d="M 0 0 
L -3.5 0 
" style="stroke: #000000; stroke-width: 0.8"/>
      </defs>
      <g>
       <use xlink:href="#m1d10a5c0a4" x="51.05" y="373.467273" style="stroke: #000000; stroke-width: 0.8"/>
      </g>
     </g>
     <g id="text_10">
      <!-- 0 -->
      <g transform="translate(37.6875 377.266491) scale(0.1 -0.1)">
       <use xlink:href="#DejaVuSans-30"/>
      </g>
     </g>
    </g>
    <g id="ytick_2">
     <g id="line2d_10">
      <g>
       <use xlink:href="#m1d10a5c0a4" x="51.05" y="320.401005" style="stroke: #000000; stroke-width: 0.8"/>
      </g>
     </g>
     <g id="text_11">
      <!-- 50 -->
      <g transform="translate(31.325 324.200223) scale(0.1 -0.1)">
       <use xlink:href="#DejaVuSans-35"/>
       <use xlink:href="#DejaVuSans-30" transform="translate(63.623047 0)"/>
      </g>
     </g>
    </g>
    <g id="ytick_3">
     <g id="line2d_11">
      <g>
       <use xlink:href="#m1d10a5c0a4" x="51.05" y="267.334736" style="stroke: #000000; stroke-width: 0.8"/>
      </g>
     </g>
     <g id="text_12">
      <!-- 100 -->
      <g transform="translate(24.9625 271.133955) scale(0.1 -0.1)">
       <use xlink:href="#DejaVuSans-31"/>
       <use xlink:href="#DejaVuSans-30" transform="translate(63.623047 0)"/>
       <use xlink:href="#DejaVuSans-30" transform="translate(127.246094 0)"/>
      </g>
     </g>
    </g>
    <g id="ytick_4">
     <g id="line2d_12">
      <g>
       <use xlink:href="#m1d10a5c0a4" x="51.05" y="214.268468" style="stroke: #000000; stroke-width: 0.8"/>
      </g>
     </g>
     <g id="text_13">
      <!-- 150 -->
      <g transform="translate(24.9625 218.067687) scale(0.1 -0.1)">
       <use xlink:href="#DejaVuSans-31"/>
       <use xlink:href="#DejaVuSans-35" transform="translate(63.623047 0)"/>
       <use xlink:href="#DejaVuSans-30" transform="translate(127.246094 0)"/>
      </g>
     </g>
    </g>
    <g id="ytick_5">
     <g id="line2d_13">
      <g>
       <use xlink:href="#m1d10a5c0a4" x="51.05" y="161.2022" style="stroke: #000000; stroke-width: 0.8"/>
      </g>
     </g>
     <g id="text_14">
      <!-- 200 -->
      <g transform="translate(24.9625 165.001419) scale(0.1 -0.1)">
       <use xlink:href="#DejaVuSans-32"/>
       <use xlink:href="#DejaVuSans-30" transform="translate(63.623047 0)"/>
       <use xlink:href="#DejaVuSans-30" transform="translate(127.246094 0)"/>
      </g>
     </g>
    </g>
    <g id="ytick_6">
     <g id="line2d_14">
      <g>
       <use xlink:href="#m1d10a5c0a4" x="51.05" y="108.135932" style="stroke: #000000; stroke-width: 0.8"/>
      </g>
     </g>
     <g id="text_15">
      <!-- 250 -->
      <g transform="translate(24.9625 111.935151) scale(0.1 -0.1)">
       <use xlink:href="#DejaVuSans-32"/>
       <use xlink:href="#DejaVuSans-35" transform="translate(63.623047 0)"/>
       <use xlink:href="#DejaVuSans-30" transform="translate(127.246094 0)"/>
      </g>
     </g>
    </g>
    <g id="ytick_7">
     <g id="line2d_15">
      <g>
       <use xlink:href="#m1d10a5c0a4" x="51.05" y="55.069664" style="stroke: #000000; stroke-width: 0.8"/>
      </g>
     </g>
     <g id="text_16">
      <!-- 300 -->
      <g transform="translate(24.9625 58.868883) scale(0.1 -0.1)">
       <use xlink:href="#DejaVuSans-33"/>
       <use xlink:href="#DejaVuSans-30" transform="translate(63.623047 0)"/>
       <use xlink:href="#DejaVuSans-30" transform="translate(127.246094 0)"/>
      </g>
     </g>
    </g>
    <g id="text_17">
     <!-- SoC -->
     <g transform="translate(18.882812 217.465) rotate(-90) scale(0.1 -0.1)">
      <defs>
       <path id="DejaVuSans-53" d="M 3425 4513 
L 3425 3897 
Q 3066 4069 2747 4153 
Q 2428 4238 2131 4238 
Q 1616 4238 1336 4038 
Q 1056 3838 1056 3469 
Q 1056 3159 1242 3001 
Q 1428 2844 1947 2747 
L 2328 2669 
Q 3034 2534 3370 2195 
Q 3706 1856 3706 1288 
Q 3706 609 3251 259 
Q 2797 -91 1919 -91 
Q 1588 -91 1214 -16 
Q 841 59 441 206 
L 441 856 
Q 825 641 1194 531 
Q 1563 422 1919 422 
Q 2459 422 2753 634 
Q 3047 847 3047 1241 
Q 3047 1584 2836 1778 
Q 2625 1972 2144 2069 
L 1759 2144 
Q 1053 2284 737 2584 
Q 422 2884 422 3419 
Q 422 4038 858 4394 
Q 1294 4750 2059 4750 
Q 2388 4750 2728 4690 
Q 3069 4631 3425 4513 
z
" transform="scale(0.015625)"/>
       <path id="DejaVuSans-6f" d="M 1959 3097 
Q 1497 3097 1228 2736 
Q 959 2375 959 1747 
Q 959 1119 1226 758 
Q 1494 397 1959 397 
Q 2419 397 2687 759 
Q 2956 1122 2956 1747 
Q 2956 2369 2687 2733 
Q 2419 3097 1959 3097 
z
M 1959 3584 
Q 2709 3584 3137 3096 
Q 3566 2609 3566 1747 
Q 3566 888 3137 398 
Q 2709 -91 1959 -91 
Q 1206 -91 779 398 
Q 353 888 353 1747 
Q 353 2609 779 3096 
Q 1206 3584 1959 3584 
z
" transform="scale(0.015625)"/>
       <path id="DejaVuSans-43" d="M 4122 4306 
L 4122 3641 
Q 3803 3938 3442 4084 
Q 3081 4231 2675 4231 
Q 1875 4231 1450 3742 
Q 1025 3253 1025 2328 
Q 1025 1406 1450 917 
Q 1875 428 2675 428 
Q 3081 428 3442 575 
Q 3803 722 4122 1019 
L 4122 359 
Q 3791 134 3420 21 
Q 3050 -91 2638 -91 
Q 1578 -91 968 557 
Q 359 1206 359 2328 
Q 359 3453 968 4101 
Q 1578 4750 2638 4750 
Q 3056 4750 3426 4639 
Q 3797 4528 4122 4306 
z
" transform="scale(0.015625)"/>
      </defs>
      <use xlink:href="#DejaVuSans-53"/>
      <use xlink:href="#DejaVuSans-6f" transform="translate(63.476562 0)"/>
      <use xlink:href="#DejaVuSans-43" transform="translate(124.658203 0)"/>
     </g>
    </g>
   </g>
   <g id="line2d_16">
    <path d="M 80.719508 214.642174 
L 674.109671 214.642174 
L 674.109671 214.642174 
" clip-path="url(#pf93585c112)" style="fill: none; stroke: #1f77b4; stroke-width: 1.8; stroke-linecap: square"/>
   </g>
   <g id="line2d_17">
    <path d="M 80.719508 214.642174 
L 674.109671 214.642174 
L 674.109671 214.642174 
" clip-path="url(#pf93585c112)" style="fill: none; stroke: #ff7f0e; stroke-width: 1.8; stroke-linecap: square"/>
   </g>
   <g id="line2d_18">
    <path d="M 80.719508 214.642174 
L 674.109671 214.642174 
L 674.109671 214.642174 
" clip-path="url(#pf93585c112)" style="fill: none; stroke: #2ca02c; stroke-width: 1.8; stroke-linecap: square"/>
   </g>
   <g id="line2d_19">
    <path d="M 80.719508 214.642174 
L 674.109671 214.642174 
L 674.109671 214.642174 
" clip-path="url(#pf93585c112)" style="fill: none; stroke: #d62728; stroke-width: 1.8; stroke-linecap: square"/>
   </g>
   <g id="line2d_20">
    <path d="M 80.719508 214.642174 
L 93.118706 214.642174 
L 94.890019 251.832235 
L 100.203961 251.832235 
L 101.975275 214.642174 
L 149.800751 214.642174 
L 151.572065 189.496958 
L 153.343379 171.087423 
L 155.114693 167.836473 
L 160.428634 167.836473 
L 162.199948 214.642174 
L 192.312285 214.642174 
L 194.083599 213.000847 
L 204.711482 213.000847 
L 206.482796 214.642174 
L 220.653308 214.642174 
L 222.424622 252.182503 
L 224.195936 252.182503 
L 225.967249 234.467773 
L 227.738563 220.003724 
L 231.281191 220.003724 
L 233.052505 214.642174 
L 234.823819 214.642174 
L 236.595133 174.880968 
L 238.366447 164.059412 
L 247.223017 164.059412 
L 248.99433 214.642174 
L 263.164842 214.642174 
L 264.936156 252.478658 
L 268.478784 252.478658 
L 270.250097 239.239487 
L 272.021411 191.591958 
L 273.792725 179.583687 
L 275.564039 214.642174 
L 362.358421 214.642174 
L 364.129735 181.305737 
L 372.986305 181.305737 
L 374.757619 214.642174 
L 390.699444 214.642174 
L 392.470758 236.376286 
L 394.242072 277.013325 
L 399.556014 277.013325 
L 401.327327 236.016718 
L 403.098641 214.642174 
L 404.869955 214.642174 
L 406.641269 202.41552 
L 408.412583 194.133743 
L 411.955211 194.133743 
L 413.726525 214.642174 
L 477.493826 214.642174 
L 479.26514 217.869286 
L 482.807768 217.869286 
L 484.579082 214.642174 
L 489.893023 214.642174 
L 491.664337 206.678297 
L 495.206965 206.678297 
L 496.978279 202.649536 
L 498.749593 199.929602 
L 500.520907 199.929602 
L 502.292221 214.642174 
L 518.234046 214.642174 
L 520.00536 247.065946 
L 530.633244 247.065946 
L 532.404557 214.642174 
L 534.175871 179.081881 
L 539.489813 179.081881 
L 541.261127 162.109989 
L 544.803755 162.109989 
L 546.575069 214.642174 
L 560.74558 214.642174 
L 562.516894 273.466285 
L 567.830836 273.466285 
L 569.60215 225.818755 
L 571.373464 214.642174 
L 574.916092 214.642174 
L 576.687405 177.108708 
L 580.230033 155.818064 
L 587.315289 155.818064 
L 589.086603 214.642174 
L 603.257114 214.642174 
L 605.028428 251.511865 
L 606.799742 281.026058 
L 608.571056 281.026058 
L 612.113684 187.581969 
L 613.884998 177.858195 
L 615.656312 177.858195 
L 617.427626 214.642174 
L 619.198939 184.89042 
L 620.970253 160.136705 
L 629.826823 160.136705 
L 631.598137 214.642174 
L 645.768648 214.642174 
L 647.539962 219.715228 
L 649.311276 219.715228 
L 651.08259 198.741128 
L 652.853904 198.741128 
L 654.625218 179.298193 
L 656.396532 158.331278 
L 658.167846 121.867322 
L 659.93916 87.722973 
L 665.253101 87.722973 
L 667.024415 113.152204 
L 668.795729 146.289756 
L 670.567043 155.818064 
L 672.338357 155.818064 
L 674.109671 214.642174 
L 674.109671 214.642174 
" clip-path="url(#pf93585c112)" style="fill: none; stroke: #9467bd; stroke-width: 1.8; stroke-linecap: square"/>
   </g>
   <g id="line2d_21">
    <path d="M 80.719508 214.642174 
L 178.141774 214.642174 
L 181.684402 164.325726 
L 185.227029 97.962045 
L 186.998343 70.600297 
L 188.769657 55.817076 
L 192.312285 55.817076 
L 194.083599 63.081036 
L 195.854913 63.081036 
L 197.626227 61.123285 
L 202.940169 61.123285 
L 204.711482 55.817076 
L 674.109671 55.817076 
L 674.109671 55.817076 
" clip-path="url(#pf93585c112)" style="fill: none; stroke: #8c564b; stroke-width: 1.8; stroke-linecap: square"/>
   </g>
   <g id="line2d_22">
    <path d="M 80.719508 55.817076 
L 674.109671 55.817076 
L 674.109671 55.817076 
" clip-path="url(#pf93585c112)" style="fill: none; stroke: #e377c2; stroke-width: 1.8; stroke-linecap: square"/>
   </g>
   <g id="line2d_23">
    <path d="M 80.719508 55.817076 
L 178.141774 55.817076 
L 179.913088 61.021685 
L 183.455715 61.021685 
L 185.227029 58.624886 
L 186.998343 58.624886 
L 188.769657 56.689549 
L 190.540971 53.850541 
L 192.312285 55.817076 
L 195.854913 55.817076 
L 197.626227 49.902809 
L 202.940169 49.902809 
L 204.711482 55.817076 
L 206.482796 55.817076 
L 208.25411 66.381062 
L 210.025424 81.534177 
L 211.796738 76.537682 
L 213.568052 69.484694 
L 215.339366 69.484694 
L 217.11068 55.817076 
L 220.653308 55.817076 
L 222.424622 50.819913 
L 224.195936 48.797606 
L 225.967249 55.817076 
L 234.823819 55.817076 
L 236.595133 64.675489 
L 238.366447 83.850735 
L 243.680389 83.850735 
L 245.451703 68.20027 
L 247.223017 68.20027 
L 248.99433 55.817076 
L 603.257114 55.817076 
L 605.028428 52.639242 
L 606.799742 52.629557 
L 608.571056 49.135102 
L 610.34237 50.519886 
L 612.113684 50.519886 
L 613.884998 55.817076 
L 617.427626 55.817076 
L 619.198939 58.068231 
L 624.512881 58.068231 
L 626.284195 49.270957 
L 628.055509 42.012727 
L 629.826823 49.556205 
L 631.598137 55.817076 
L 674.109671 55.817076 
L 674.109671 55.817076 
" clip-path="url(#pf93585c112)" style="fill: none; stroke: #7f7f7f; stroke-width: 1.8; stroke-linecap: square"/>
   </g>
   <g id="line2d_24">
    <path d="M 80.719508 55.817076 
L 674.109671 55.817076 
L 674.109671 55.817076 
" clip-path="url(#pf93585c112)" style="fill: none; stroke: #bcbd22; stroke-width: 1.8; stroke-linecap: square"/>
   </g>
   <g id="line2d_25">
    <path d="M 80.719508 284.525218 
L 674.109671 284.525218 
L 674.109671 284.525218 
" clip-path="url(#pf93585c112)" style="fill: none; stroke: #17becf; stroke-width: 1.8; stroke-linecap: square"/>
   </g>
   <g id="line2d_26">
    <path d="M 80.719508 284.525218 
L 674.109671 284.525218 
L 674.109671 284.525218 
" clip-path="url(#pf93585c112)" style="fill: none; stroke: #1f77b4; stroke-width: 1.8; stroke-linecap: square"/>
   </g>
   <g id="line2d_27">
    <path d="M 80.719508 284.525218 
L 674.109671 284.525218 
L 674.109671 284.525218 
" clip-path="url(#pf93585c112)" style="fill: none; stroke: #ff7f0e; stroke-width: 1.8; stroke-linecap: square"/>
   </g>
   <g id="line2d_28">
    <path d="M 80.719508 284.525218 
L 94.890019 284.525218 
L 96.661333 315.998143 
L 101.975275 315.998143 
L 103.746589 306.561353 
L 105.517903 284.525218 
L 107.289217 284.525218 
L 109.060531 265.822395 
L 110.831845 263.626862 
L 119.688414 263.626862 
L 121.459728 284.525218 
L 135.63024 284.525218 
L 137.401554 327.014178 
L 139.172867 365.015507 
L 142.715495 365.015507 
L 144.486809 359.010817 
L 148.029437 284.525218 
L 178.141774 284.525218 
L 179.913088 322.143604 
L 186.998343 322.143604 
L 190.540971 284.525218 
L 192.312285 284.525218 
L 194.083599 269.708212 
L 195.854913 235.112965 
L 204.711482 235.112965 
L 206.482796 284.525218 
L 236.595133 284.525218 
L 238.366447 258.911666 
L 241.909075 258.911666 
L 243.680389 284.525218 
L 270.250097 284.525218 
L 272.021411 281.064014 
L 273.792725 246.636822 
L 275.564039 246.636822 
L 277.335353 284.525218 
L 279.106667 252.922635 
L 280.877981 235.112965 
L 289.734551 235.112965 
L 291.505864 284.525218 
L 305.676376 284.525218 
L 307.44769 333.93747 
L 309.219004 373.467273 
L 314.532945 373.467273 
L 316.304259 333.443348 
L 318.075573 324.549142 
L 319.846887 284.525218 
L 321.618201 268.240232 
L 323.389515 237.577241 
L 332.246085 237.577241 
L 334.017399 284.525218 
L 348.18791 284.525218 
L 349.959224 333.599584 
L 351.730538 351.569657 
L 353.501852 351.569657 
L 355.273166 337.598985 
L 357.044479 303.811267 
L 358.815793 284.525218 
L 404.869955 284.525218 
L 406.641269 265.07416 
L 417.269153 265.07416 
L 419.040467 284.525218 
L 433.210978 284.525218 
L 434.982292 328.712502 
L 436.753606 367.601169 
L 438.52492 367.601169 
L 440.296234 355.337303 
L 442.067548 318.14332 
L 443.838862 284.525218 
L 447.381489 284.525218 
L 449.152803 255.99535 
L 450.924117 220.924856 
L 458.009373 220.924856 
L 459.780687 235.112965 
L 461.552001 284.525218 
L 475.722512 284.525218 
L 477.493826 315.489453 
L 481.036454 315.489453 
L 482.807768 312.33282 
L 484.579082 298.561888 
L 488.121709 298.561888 
L 489.893023 284.525218 
L 518.234046 284.525218 
L 520.00536 299.130569 
L 528.86193 299.130569 
L 530.633244 284.525218 
L 560.74558 284.525218 
L 562.516894 296.233274 
L 569.60215 296.233274 
L 571.373464 284.525218 
L 651.08259 284.525218 
L 652.853904 245.890389 
L 659.93916 245.890389 
L 661.710474 214.860974 
L 668.795729 214.860974 
L 670.567043 223.868335 
L 672.338357 252.348809 
L 674.109671 284.525218 
L 674.109671 284.525218 
" clip-path="url(#pf93585c112)" style="fill: none; stroke: #2ca02c; stroke-width: 1.8; stroke-linecap: square"/>
   </g>
   <g id="line2d_29">
    <path d="M 80.719508 284.525218 
L 93.118706 284.525218 
L 94.890019 278.58444 
L 103.746589 278.58444 
L 105.517903 283.059276 
L 107.289217 284.525218 
L 109.060531 284.525218 
L 110.831845 284.203627 
L 112.603159 280.760718 
L 114.374473 278.130452 
L 116.145787 277.090264 
L 117.9171 281.129037 
L 119.688414 284.525218 
L 139.172867 284.525218 
L 140.944181 284.993072 
L 142.715495 285.141669 
L 144.486809 286.266263 
L 146.258123 287.117834 
L 148.029437 286.351507 
L 149.800751 284.525218 
L 153.343379 284.525218 
L 155.114693 283.66024 
L 156.886007 283.66024 
L 158.657321 284.078139 
L 160.428634 284.078139 
L 162.199948 284.407143 
L 163.971262 284.525218 
L 178.141774 284.525218 
L 179.913088 282.528481 
L 181.684402 280.270172 
L 263.164842 280.270172 
L 264.936156 265.304799 
L 268.478784 246.3669 
L 270.250097 246.164711 
L 272.021411 252.561019 
L 273.792725 265.088806 
L 275.564039 273.875705 
L 277.335353 280.270172 
L 279.106667 284.313091 
L 280.877981 284.313091 
L 282.649295 280.270172 
L 335.788712 280.270172 
L 337.560026 279.995115 
L 342.873968 279.995115 
L 344.645282 279.371062 
L 346.416596 279.594595 
L 348.18791 280.270172 
L 349.959224 278.545419 
L 351.730538 278.545419 
L 353.501852 280.270172 
L 362.358421 280.270172 
L 364.129735 281.872063 
L 365.901049 277.692145 
L 367.672363 275.760853 
L 374.757619 275.760853 
L 376.528933 280.270172 
L 378.300247 282.393512 
L 388.92813 282.393512 
L 390.699444 280.270172 
L 404.869955 280.270172 
L 406.641269 276.093303 
L 408.412583 270.829591 
L 415.497839 270.829591 
L 417.269153 274.222294 
L 419.040467 280.270172 
L 420.811781 289.239913 
L 422.583094 295.322955 
L 424.354408 303.739569 
L 426.125722 306.690584 
L 427.897036 302.934588 
L 429.66835 302.934588 
L 431.439664 280.270172 
L 461.552001 280.270172 
L 463.323315 277.051056 
L 468.637256 277.051056 
L 470.40857 278.14806 
L 472.179884 278.600353 
L 473.951198 280.270172 
L 475.722512 280.270172 
L 479.26514 277.487817 
L 481.036454 277.10345 
L 482.807768 282.592744 
L 488.121709 282.592744 
L 491.664337 277.833833 
L 498.749593 277.833833 
L 500.520907 278.897471 
L 502.292221 279.510851 
L 504.063535 280.270172 
L 518.234046 280.270172 
L 520.00536 279.040301 
L 521.776674 278.033914 
L 523.547988 277.602258 
L 528.86193 277.602258 
L 530.633244 281.429937 
L 532.404557 280.270172 
L 674.109671 280.270172 
L 674.109671 280.270172 
" clip-path="url(#pf93585c112)" style="fill: none; stroke: #d62728; stroke-width: 1.8; stroke-linecap: square"/>
   </g>
   <g id="line2d_30">
    <path d="M 80.719508 284.525218 
L 98.432647 284.525218 
L 100.203961 307.604856 
L 101.975275 305.248798 
L 103.746589 304.53718 
L 105.517903 284.525218 
L 107.289217 284.525218 
L 110.831845 244.501293 
L 117.9171 244.501293 
L 119.688414 269.207419 
L 121.459728 284.525218 
L 179.913088 284.525218 
L 181.684402 309.231344 
L 186.998343 309.231344 
L 188.769657 304.53718 
L 190.540971 284.525218 
L 192.312285 284.525218 
L 194.083599 264.513255 
L 197.626227 259.819091 
L 202.940169 259.819091 
L 204.711482 284.525218 
L 222.424622 284.525218 
L 224.195936 307.514616 
L 225.967249 304.53718 
L 231.281191 304.53718 
L 233.052505 284.525218 
L 307.44769 284.525218 
L 309.219004 298.804209 
L 314.532945 298.804209 
L 316.304259 291.809396 
L 318.075573 287.678063 
L 319.846887 284.525218 
L 321.618201 264.513255 
L 323.389515 259.819091 
L 330.474771 259.819091 
L 332.246085 284.525218 
L 349.959224 284.525218 
L 351.730538 309.231344 
L 355.273166 309.231344 
L 357.044479 304.53718 
L 358.815793 284.525218 
L 390.699444 284.525218 
L 392.470758 309.231344 
L 401.327327 309.231344 
L 403.098641 292.953483 
L 404.869955 284.525218 
L 406.641269 279.831054 
L 408.412583 259.819091 
L 411.955211 259.819091 
L 413.726525 284.525218 
L 447.381489 284.525218 
L 449.152803 279.210601 
L 450.924117 279.210601 
L 452.695431 259.819091 
L 458.009373 259.819091 
L 459.780687 284.525218 
L 475.722512 284.525218 
L 477.493826 304.53718 
L 481.036454 304.53718 
L 482.807768 284.525218 
L 520.00536 284.525218 
L 521.776674 300.42414 
L 528.86193 300.42414 
L 530.633244 284.525218 
L 537.718499 284.525218 
L 539.489813 270.741026 
L 541.261127 261.353584 
L 543.032441 261.353584 
L 544.803755 284.525218 
L 574.916092 284.525218 
L 576.687405 279.831054 
L 578.458719 259.819091 
L 585.543975 259.819091 
L 587.315289 284.525218 
L 619.198939 284.525218 
L 620.970253 273.763965 
L 628.055509 273.763965 
L 629.826823 284.525218 
L 645.768648 284.525218 
L 647.539962 309.231344 
L 651.08259 275.13689 
L 652.853904 275.13689 
L 656.396532 235.112965 
L 668.795729 235.112965 
L 672.338357 284.525218 
L 674.109671 284.525218 
L 674.109671 284.525218 
" clip-path="url(#pf93585c112)" style="fill: none; stroke: #9467bd; stroke-width: 1.8; stroke-linecap: square"/>
   </g>
   <g id="line2d_31">
    <path d="M 80.719508 284.525218 
L 674.109671 284.525218 
L 674.109671 284.525218 
" clip-path="url(#pf93585c112)" style="fill: none; stroke: #8c564b; stroke-width: 1.8; stroke-linecap: square"/>
   </g>
   <g id="line2d_32">
    <path d="M 80.719508 284.525218 
L 674.109671 284.525218 
L 674.109671 284.525218 
" clip-path="url(#pf93585c112)" style="fill: none; stroke: #e377c2; stroke-width: 1.8; stroke-linecap: square"/>
   </g>
   <g id="line2d_33">
    <path d="M 80.719508 284.525218 
L 674.109671 284.525218 
L 674.109671 284.525218 
" clip-path="url(#pf93585c112)" style="fill: none; stroke: #7f7f7f; stroke-width: 1.8; stroke-linecap: square"/>
   </g>
   <g id="patch_3">
    <path d="M 51.05 390.04 
L 51.05 25.44 
" style="fill: none; stroke: #000000; stroke-width: 0.8; stroke-linejoin: miter; stroke-linecap: square"/>
   </g>
   <g id="patch_4">
    <path d="M 703.779179 390.04 
L 703.779179 25.44 
" style="fill: none; stroke: #000000; stroke-width: 0.8; stroke-linejoin: miter; stroke-linecap: square"/>
   </g>
   <g id="patch_5">
    <path d="M 51.05 390.04 
L 703.779179 390.04 
" style="fill: none; stroke: #000000; stroke-width: 0.8; stroke-linejoin: miter; stroke-linecap: square"/>
   </g>
   <g id="patch_6">
    <path d="M 51.05 25.44 
L 703.779179 25.44 
" style="fill: none; stroke: #000000; stroke-width: 0.8; stroke-linejoin: miter; stroke-linecap: square"/>
   </g>
   <g id="text_18">
    <!-- SoC by battery (T=336, F=8, L=8) -->
    <g transform="translate(273.82459 19.44) scale(0.12 -0.12)">
     <defs>
      <path id="DejaVuSans-62" d="M 3116 1747 
Q 3116 2381 2855 2742 
Q 2594 3103 2138 3103 
Q 1681 3103 1420 2742 
Q 1159 2381 1159 1747 
Q 1159 1113 1420 752 
Q 1681 391 2138 391 
Q 2594 391 2855 752 
Q 3116 1113 3116 1747 
z
M 1159 2969 
Q 1341 3281 1617 3432 
Q 1894 3584 2278 3584 
Q 2916 3584 3314 3078 
Q 3713 2572 3713 1747 
Q 3713 922 3314 415 
Q 2916 -91 2278 -91 
Q 1894 -91 1617 61 
Q 1341 213 1159 525 
L 1159 0 
L 581 0 
L 581 4863 
L 1159 4863 
L 1159 2969 
z
" transform="scale(0.015625)"/>
      <path id="DejaVuSans-79" d="M 2059 -325 
Q 1816 -950 1584 -1140 
Q 1353 -1331 966 -1331 
L 506 -1331 
L 506 -850 
L 844 -850 
Q 1081 -850 1212 -737 
Q 1344 -625 1503 -206 
L 1606 56 
L 191 3500 
L 800 3500 
L 1894 763 
L 2988 3500 
L 3597 3500 
L 2059 -325 
z
" transform="scale(0.015625)"/>
      <path id="DejaVuSans-61" d="M 2194 1759 
Q 1497 1759 1228 1600 
Q 959 1441 959 1056 
Q 959 750 1161 570 
Q 1363 391 1709 391 
Q 2188 391 2477 730 
Q 2766 1069 2766 1631 
L 2766 1759 
L 2194 1759 
z
M 3341 1997 
L 3341 0 
L 2766 0 
L 2766 531 
Q 2569 213 2275 61 
Q 1981 -91 1556 -91 
Q 1019 -91 701 211 
Q 384 513 384 1019 
Q 384 1609 779 1909 
Q 1175 2209 1959 2209 
L 2766 2209 
L 2766 2266 
Q 2766 2663 2505 2880 
Q 2244 3097 1772 3097 
Q 1472 3097 1187 3025 
Q 903 2953 641 2809 
L 641 3341 
Q 956 3463 1253 3523 
Q 1550 3584 1831 3584 
Q 2591 3584 2966 3190 
Q 3341 2797 3341 1997 
z
" transform="scale(0.015625)"/>
      <path id="DejaVuSans-72" d="M 2631 2963 
Q 2534 3019 2420 3045 
Q 2306 3072 2169 3072 
Q 1681 3072 1420 2755 
Q 1159 2438 1159 1844 
L 1159 0 
L 581 0 
L 581 3500 
L 1159 3500 
L 1159 2956 
Q 1341 3275 1631 3429 
Q 1922 3584 2338 3584 
Q 2397 3584 2469 3576 
Q 2541 3569 2628 3553 
L 2631 2963 
z
" transform="scale(0.015625)"/>
      <path id="DejaVuSans-3d" d="M 678 2906 
L 4684 2906 
L 4684 2381 
L 678 2381 
L 678 2906 
z
M 678 1631 
L 4684 1631 
L 4684 1100 
L 678 1100 
L 678 1631 
z
" transform="scale(0.015625)"/>
      <path id="DejaVuSans-36" d="M 2113 2584 
Q 1688 2584 1439 2293 
Q 1191 2003 1191 1497 
Q 1191 994 1439 701 
Q 1688 409 2113 409 
Q 2538 409 2786 701 
Q 3034 994 3034 1497 
Q 3034 2003 2786 2293 
Q 2538 2584 2113 2584 
z
M 3366 4563 
L 3366 3988 
Q 3128 4100 2886 4159 
Q 2644 4219 2406 4219 
Q 1781 4219 1451 3797 
Q 1122 3375 1075 2522 
Q 1259 2794 1537 2939 
Q 1816 3084 2150 3084 
Q 2853 3084 3261 2657 
Q 3669 2231 3669 1497 
Q 3669 778 3244 343 
Q 2819 -91 2113 -91 
Q 1303 -91 875 529 
Q 447 1150 447 2328 
Q 447 3434 972 4092 
Q 1497 4750 2381 4750 
Q 2619 4750 2861 4703 
Q 3103 4656 3366 4563 
z
" transform="scale(0.015625)"/>
      <path id="DejaVuSans-2c" d="M 750 794 
L 1409 794 
L 1409 256 
L 897 -744 
L 494 -744 
L 750 256 
L 750 794 
z
" transform="scale(0.015625)"/>
      <path id="DejaVuSans-46" d="M 628 4666 
L 3309 4666 
L 3309 4134 
L 1259 4134 
L 1259 2759 
L 3109 2759 
L 3109 2228 
L 1259 2228 
L 1259 0 
L 628 0 
L 628 4666 
z
" transform="scale(0.015625)"/>
      <path id="DejaVuSans-38" d="M 2034 2216 
Q 1584 2216 1326 1975 
Q 1069 1734 1069 1313 
Q 1069 891 1326 650 
Q 1584 409 2034 409 
Q 2484 409 2743 651 
Q 3003 894 3003 1313 
Q 3003 1734 2745 1975 
Q 2488 2216 2034 2216 
z
M 1403 2484 
Q 997 2584 770 2862 
Q 544 3141 544 3541 
Q 544 4100 942 4425 
Q 1341 4750 2034 4750 
Q 2731 4750 3128 4425 
Q 3525 4100 3525 3541 
Q 3525 3141 3298 2862 
Q 3072 2584 2669 2484 
Q 3125 2378 3379 2068 
Q 3634 1759 3634 1313 
Q 3634 634 3220 271 
Q 2806 -91 2034 -91 
Q 1263 -91 848 271 
Q 434 634 434 1313 
Q 434 1759 690 2068 
Q 947 2378 1403 2484 
z
M 1172 3481 
Q 1172 3119 1398 2916 
Q 1625 2713 2034 2713 
Q 2441 2713 2670 2916 
Q 2900 3119 2900 3481 
Q 2900 3844 2670 4047 
Q 2441 4250 2034 4250 
Q 1625 4250 1398 4047 
Q 1172 3844 1172 3481 
z
" transform="scale(0.015625)"/>
      <path id="DejaVuSans-4c" d="M 628 4666 
L 1259 4666 
L 1259 531 
L 3531 531 
L 3531 0 
L 628 0 
L 628 4666 
z
" transform="scale(0.015625)"/>
     </defs>
     <use xlink:href="#DejaVuSans-53"/>
     <use xlink:href="#DejaVuSans-6f" transform="translate(63.476562 0)"/>
     <use xlink:href="#DejaVuSans-43" transform="translate(124.658203 0)"/>
     <use xlink:href="#DejaVuSans-20" transform="translate(194.482422 0)"/>
     <use xlink:href="#DejaVuSans-62" transform="translate(226.269531 0)"/>
     <use xlink:href="#DejaVuSans-79" transform="translate(289.746094 0)"/>
     <use xlink:href="#DejaVuSans-20" transform="translate(348.925781 0)"/>
     <use xlink:href="#DejaVuSans-62" transform="translate(380.712891 0)"/>
     <use xlink:href="#DejaVuSans-61" transform="translate(444.189453 0)"/>
     <use xlink:href="#DejaVuSans-74" transform="translate(505.46875 0)"/>
     <use xlink:href="#DejaVuSans-74" transform="translate(544.677734 0)"/>
     <use xlink:href="#DejaVuSans-65" transform="translate(583.886719 0)"/>
     <use xlink:href="#DejaVuSans-72" transform="translate(645.410156 0)"/>
     <use xlink:href="#DejaVuSans-79" transform="translate(686.523438 0)"/>
     <use xlink:href="#DejaVuSans-20" transform="translate(745.703125 0)"/>
     <use xlink:href="#DejaVuSans-28" transform="translate(777.490234 0)"/>
     <use xlink:href="#DejaVuSans-54" transform="translate(816.503906 0)"/>
     <use xlink:href="#DejaVuSans-3d" transform="translate(877.587891 0)"/>
     <use xlink:href="#DejaVuSans-33" transform="translate(961.376953 0)"/>
     <use xlink:href="#DejaVuSans-33" transform="translate(1025 0)"/>
     <use xlink:href="#DejaVuSans-36" transform="translate(1088.623047 0)"/>
     <use xlink:href="#DejaVuSans-2c" transform="translate(1152.246094 0)"/>
     <use xlink:href="#DejaVuSans-20" transform="translate(1184.033203 0)"/>
     <use xlink:href="#DejaVuSans-46" transform="translate(1215.820312 0)"/>
     <use xlink:href="#DejaVuSans-3d" transform="translate(1273.339844 0)"/>
     <use xlink:href="#DejaVuSans-38" transform="translate(1357.128906 0)"/>
     <use xlink:href="#DejaVuSans-2c" transform="translate(1420.751953 0)"/>
     <use xlink:href="#DejaVuSans-20" transform="translate(1452.539062 0)"/>
     <use xlink:href="#DejaVuSans-4c" transform="translate(1484.326172 0)"/>
     <use xlink:href="#DejaVuSans-3d" transform="translate(1540.039062 0)"/>
     <use xlink:href="#DejaVuSans-38" transform="translate(1623.828125 0)"/>
     <use xlink:href="#DejaVuSans-29" transform="translate(1687.451172 0)"/>
    </g>
   </g>
  </g>
 </g>
 <defs>
  <clipPath id="pf93585c112">
   <rect x="51.05" y="25.44" width="652.729179" height="364.6"/>
  </clipPath>
 </defs>
</svg>
