<?xml version="1.0" encoding="utf-8" standalone="no"?>
<!DOCTYPE svg PUBLIC "-//W3C//DTD SVG 1.1//EN"
  "http://www.w3.org/Graphics/SVG/1.1/DTD/svg11.dtd">
<svg xmlns:xlink="http://www.w3.org/1999/xlink" width="720pt" height="432pt" viewBox="0 0 720 432" xmlns="http://www.w3.org/2000/svg" version="1.1">
 <metadata>
  <rdf:RDF xmlns:dc="http://purl.org/dc/elements/1.1/" xmlns:cc="http://creativecommons.org/ns#" xmlns:rdf="http://www.w3.org/1999/02/22-rdf-syntax-ns#">
   <cc:Work>
    <dc:type rdf:resource="http://purl.org/dc/dcmitype/StillImage"/>
    <dc:date>2025-11-11T00:36:53.236379</dc:date>
    <dc:format>image/svg+xml</dc:format>
    <dc:creator>
     <cc:Agent>
      <dc:title>Matplotlib v3.10.0, https://matplotlib.org/</dc:title>
     </cc:Agent>
    </dc:creator>
   </cc:Work>
  </rdf:RDF>
 </metadata>
 <defs>
  <style type="text/css">*{stroke-linejoin: round; stroke-linecap: butt}</style>
 </defs>
 <g id="figure_1">
  <g id="patch_1">
   <path d="M 0 432 
L 720 432 
L 720 0 
L 0 0 
z
" style="fill: #ffffff"/>
  </g>
  <g id="axes_1">
   <g id="patch_2">
    <path d="M 51.05 390.04 
L 703.779179 390.04 
L 703.779179 25.44 
L 51.05 25.44 
z
" style="fill: #ffffff"/>
   </g>
   <g id="matplotlib.axis_1">
    <g id="xtick_1">
     <g id="line2d_1">
      <defs>
       <path id="mc9d8a40341" d="M 0 0 
L 0 3.5 
" style="stroke: #000000; stroke-width: 0.8"/>
      </defs>
      <g>
       <use xlink:href="#mc9d8a40341" x="78.948194" y="390.04" style="stroke: #000000; stroke-width: 0.8"/>
      </g>
     </g>
     <g id="text_1">
      <!-- 0 -->
      <g transform="translate(75.766944 404.638438) scale(0.1 -0.1)">
       <defs>
        <path id="DejaVuSans-30" d="M 2034 4250 
Q 1547 4250 1301 3770 
Q 1056 3291 1056 2328 
Q 1056 1369 1301 889 
Q 1547 409 2034 409 
Q 2525 409 2770 889 
Q 3016 1369 3016 2328 
Q 3016 3291 2770 3770 
Q 2525 4250 2034 4250 
z
M 2034 4750 
Q 2819 4750 3233 4129 
Q 3647 3509 3647 2328 
Q 3647 1150 3233 529 
Q 2819 -91 2034 -91 
Q 1250 -91 836 529 
Q 422 1150 422 2328 
Q 422 3509 836 4129 
Q 1250 4750 2034 4750 
z
" transform="scale(0.015625)"/>
       </defs>
       <use xlink:href="#DejaVuSans-30"/>
      </g>
     </g>
    </g>
    <g id="xtick_2">
     <g id="line2d_2">
      <g>
       <use xlink:href="#mc9d8a40341" x="167.51389" y="390.04" style="stroke: #000000; stroke-width: 0.8"/>
      </g>
     </g>
     <g id="text_2">
      <!-- 50 -->
      <g transform="translate(161.15139 404.638438) scale(0.1 -0.1)">
       <defs>
        <path id="DejaVuSans-35" d="M 691 4666 
L 3169 4666 
L 3169 4134 
L 1269 4134 
L 1269 2991 
Q 1406 3038 1543 3061 
Q 1681 3084 1819 3084 
Q 2600 3084 3056 2656 
Q 3513 2228 3513 1497 
Q 3513 744 3044 326 
Q 2575 -91 1722 -91 
Q 1428 -91 1123 -41 
Q 819 9 494 109 
L 494 744 
Q 775 591 1075 516 
Q 1375 441 1709 441 
Q 2250 441 2565 725 
Q 2881 1009 2881 1497 
Q 2881 1984 2565 2268 
Q 2250 2553 1709 2553 
Q 1456 2553 1204 2497 
Q 953 2441 691 2322 
L 691 4666 
z
" transform="scale(0.015625)"/>
       </defs>
       <use xlink:href="#DejaVuSans-35"/>
       <use xlink:href="#DejaVuSans-30" transform="translate(63.623047 0)"/>
      </g>
     </g>
    </g>
    <g id="xtick_3">
     <g id="line2d_3">
      <g>
       <use xlink:href="#mc9d8a40341" x="256.079586" y="390.04" style="stroke: #000000; stroke-width: 0.8"/>
      </g>
     </g>
     <g id="text_3">
      <!-- 100 -->
      <g transform="translate(246.535836 404.638438) scale(0.1 -0.1)">
       <defs>
        <path id="DejaVuSans-31" d="M 794 531 
L 1825 531 
L 1825 4091 
L 703 3866 
L 703 4441 
L 1819 4666 
L 2450 4666 
L 2450 531 
L 3481 531 
L 3481 0 
L 794 0 
L 794 531 
z
" transform="scale(0.015625)"/>
       </defs>
       <use xlink:href="#DejaVuSans-31"/>
       <use xlink:href="#DejaVuSans-30" transform="translate(63.623047 0)"/>
       <use xlink:href="#DejaVuSans-30" transform="translate(127.246094 0)"/>
      </g>
     </g>
    </g>
    <g id="xtick_4">
     <g id="line2d_4">
      <g>
       <use xlink:href="#mc9d8a40341" x="344.645282" y="390.04" style="stroke: #000000; stroke-width: 0.8"/>
      </g>
     </g>
     <g id="text_4">
      <!-- 150 -->
      <g transform="translate(335.101532 404.638438) scale(0.1 -0.1)">
       <use xlink:href="#DejaVuSans-31"/>
       <use xlink:href="#DejaVuSans-35" transform="translate(63.623047 0)"/>
       <use xlink:href="#DejaVuSans-30" transform="translate(127.246094 0)"/>
      </g>
     </g>
    </g>
    <g id="xtick_5">
     <g id="line2d_5">
      <g>
       <use xlink:href="#mc9d8a40341" x="433.210978" y="390.04" style="stroke: #000000; stroke-width: 0.8"/>
      </g>
     </g>
     <g id="text_5">
      <!-- 200 -->
      <g transform="translate(423.667228 404.638438) scale(0.1 -0.1)">
       <defs>
        <path id="DejaVuSans-32" d="M 1228 531 
L 3431 531 
L 3431 0 
L 469 0 
L 469 531 
Q 828 903 1448 1529 
Q 2069 2156 2228 2338 
Q 2531 2678 2651 2914 
Q 2772 3150 2772 3378 
Q 2772 3750 2511 3984 
Q 2250 4219 1831 4219 
Q 1534 4219 1204 4116 
Q 875 4013 500 3803 
L 500 4441 
Q 881 4594 1212 4672 
Q 1544 4750 1819 4750 
Q 2544 4750 2975 4387 
Q 3406 4025 3406 3419 
Q 3406 3131 3298 2873 
Q 3191 2616 2906 2266 
Q 2828 2175 2409 1742 
Q 1991 1309 1228 531 
z
" transform="scale(0.015625)"/>
       </defs>
       <use xlink:href="#DejaVuSans-32"/>
       <use xlink:href="#DejaVuSans-30" transform="translate(63.623047 0)"/>
       <use xlink:href="#DejaVuSans-30" transform="translate(127.246094 0)"/>
      </g>
     </g>
    </g>
    <g id="xtick_6">
     <g id="line2d_6">
      <g>
       <use xlink:href="#mc9d8a40341" x="521.776674" y="390.04" style="stroke: #000000; stroke-width: 0.8"/>
      </g>
     </g>
     <g id="text_6">
      <!-- 250 -->
      <g transform="translate(512.232924 404.638438) scale(0.1 -0.1)">
       <use xlink:href="#DejaVuSans-32"/>
       <use xlink:href="#DejaVuSans-35" transform="translate(63.623047 0)"/>
       <use xlink:href="#DejaVuSans-30" transform="translate(127.246094 0)"/>
      </g>
     </g>
    </g>
    <g id="xtick_7">
     <g id="line2d_7">
      <g>
       <use xlink:href="#mc9d8a40341" x="610.34237" y="390.04" style="stroke: #000000; stroke-width: 0.8"/>
      </g>
     </g>
     <g id="text_7">
      <!-- 300 -->
      <g transform="translate(600.79862 404.638438) scale(0.1 -0.1)">
       <defs>
        <path id="DejaVuSans-33" d="M 2597 2516 
Q 3050 2419 3304 2112 
Q 3559 1806 3559 1356 
Q 3559 666 3084 287 
Q 2609 -91 1734 -91 
Q 1441 -91 1130 -33 
Q 819 25 488 141 
L 488 750 
Q 750 597 1062 519 
Q 1375 441 1716 441 
Q 2309 441 2620 675 
Q 2931 909 2931 1356 
Q 2931 1769 2642 2001 
Q 2353 2234 1838 2234 
L 1294 2234 
L 1294 2753 
L 1863 2753 
Q 2328 2753 2575 2939 
Q 2822 3125 2822 3475 
Q 2822 3834 2567 4026 
Q 2313 4219 1838 4219 
Q 1578 4219 1281 4162 
Q 984 4106 628 3988 
L 628 4550 
Q 988 4650 1302 4700 
Q 1616 4750 1894 4750 
Q 2613 4750 3031 4423 
Q 3450 4097 3450 3541 
Q 3450 3153 3228 2886 
Q 3006 2619 2597 2516 
z
" transform="scale(0.015625)"/>
       </defs>
       <use xlink:href="#DejaVuSans-33"/>
       <use xlink:href="#DejaVuSans-30" transform="translate(63.623047 0)"/>
       <use xlink:href="#DejaVuSans-30" transform="translate(127.246094 0)"/>
      </g>
     </g>
    </g>
    <g id="xtick_8">
     <g id="line2d_8">
      <g>
       <use xlink:href="#mc9d8a40341" x="698.908066" y="390.04" style="stroke: #000000; stroke-width: 0.8"/>
      </g>
     </g>
     <g id="text_8">
      <!-- 350 -->
      <g transform="translate(689.364316 404.638438) scale(0.1 -0.1)">
       <use xlink:href="#DejaVuSans-33"/>
       <use xlink:href="#DejaVuSans-35" transform="translate(63.623047 0)"/>
       <use xlink:href="#DejaVuSans-30" transform="translate(127.246094 0)"/>
      </g>
     </g>
    </g>
    <g id="text_9">
     <!-- Time (t) -->
     <g transform="translate(357.730215 418.316562) scale(0.1 -0.1)">
      <defs>
       <path id="DejaVuSans-54" d="M -19 4666 
L 3928 4666 
L 3928 4134 
L 2272 4134 
L 2272 0 
L 1638 0 
L 1638 4134 
L -19 4134 
L -19 4666 
z
" transform="scale(0.015625)"/>
       <path id="DejaVuSans-69" d="M 603 3500 
L 1178 3500 
L 1178 0 
L 603 0 
L 603 3500 
z
M 603 4863 
L 1178 4863 
L 1178 4134 
L 603 4134 
L 603 4863 
z
" transform="scale(0.015625)"/>
       <path id="DejaVuSans-6d" d="M 3328 2828 
Q 3544 3216 3844 3400 
Q 4144 3584 4550 3584 
Q 5097 3584 5394 3201 
Q 5691 2819 5691 2113 
L 5691 0 
L 5113 0 
L 5113 2094 
Q 5113 2597 4934 2840 
Q 4756 3084 4391 3084 
Q 3944 3084 3684 2787 
Q 3425 2491 3425 1978 
L 3425 0 
L 2847 0 
L 2847 2094 
Q 2847 2600 2669 2842 
Q 2491 3084 2119 3084 
Q 1678 3084 1418 2786 
Q 1159 2488 1159 1978 
L 1159 0 
L 581 0 
L 581 3500 
L 1159 3500 
L 1159 2956 
Q 1356 3278 1631 3431 
Q 1906 3584 2284 3584 
Q 2666 3584 2933 3390 
Q 3200 3197 3328 2828 
z
" transform="scale(0.015625)"/>
       <path id="DejaVuSans-65" d="M 3597 1894 
L 3597 1613 
L 953 1613 
Q 991 1019 1311 708 
Q 1631 397 2203 397 
Q 2534 397 2845 478 
Q 3156 559 3463 722 
L 3463 178 
Q 3153 47 2828 -22 
Q 2503 -91 2169 -91 
Q 1331 -91 842 396 
Q 353 884 353 1716 
Q 353 2575 817 3079 
Q 1281 3584 2069 3584 
Q 2775 3584 3186 3129 
Q 3597 2675 3597 1894 
z
M 3022 2063 
Q 3016 2534 2758 2815 
Q 2500 3097 2075 3097 
Q 1594 3097 1305 2825 
Q 1016 2553 972 2059 
L 3022 2063 
z
" transform="scale(0.015625)"/>
       <path id="DejaVuSans-20" transform="scale(0.015625)"/>
       <path id="DejaVuSans-28" d="M 1984 4856 
Q 1566 4138 1362 3434 
Q 1159 2731 1159 2009 
Q 1159 1288 1364 580 
Q 1569 -128 1984 -844 
L 1484 -844 
Q 1016 -109 783 600 
Q 550 1309 550 2009 
Q 550 2706 781 3412 
Q 1013 4119 1484 4856 
L 1984 4856 
z
" transform="scale(0.015625)"/>
       <path id="DejaVuSans-74" d="M 1172 4494 
L 1172 3500 
L 2356 3500 
L 2356 3053 
L 1172 3053 
L 1172 1153 
Q 1172 725 1289 603 
Q 1406 481 1766 481 
L 2356 481 
L 2356 0 
L 1766 0 
Q 1100 0 847 248 
Q 594 497 594 1153 
L 594 3053 
L 172 3053 
L 172 3500 
L 594 3500 
L 594 4494 
L 1172 4494 
z
" transform="scale(0.015625)"/>
       <path id="DejaVuSans-29" d="M 513 4856 
L 1013 4856 
Q 1481 4119 1714 3412 
Q 1947 2706 1947 2009 
Q 1947 1309 1714 600 
Q 1481 -109 1013 -844 
L 513 -844 
Q 928 -128 1133 580 
Q 1338 1288 1338 2009 
Q 1338 2731 1133 3434 
Q 928 4138 513 4856 
z
" transform="scale(0.015625)"/>
      </defs>
      <use xlink:href="#DejaVuSans-54"/>
      <use xlink:href="#DejaVuSans-69" transform="translate(57.958984 0)"/>
      <use xlink:href="#DejaVuSans-6d" transform="translate(85.742188 0)"/>
      <use xlink:href="#DejaVuSans-65" transform="translate(183.154297 0)"/>
      <use xlink:href="#DejaVuSans-20" transform="translate(244.677734 0)"/>
      <use xlink:href="#DejaVuSans-28" transform="translate(276.464844 0)"/>
      <use xlink:href="#DejaVuSans-74" transform="translate(315.478516 0)"/>
      <use xlink:href="#DejaVuSans-29" transform="translate(354.6875 0)"/>
     </g>
    </g>
   </g>
   <g id="matplotlib.axis_2">
    <g id="ytick_1">
     <g id="line2d_9">
      <defs>
       <path id="me1be57c3d1" d="M 0 0 
L -3.5 0 
" style="stroke: #000000; stroke-width: 0.8"/>
      </defs>
      <g>
       <use xlink:href="#me1be57c3d1" x="51.05" y="379.432332" style="stroke: #000000; stroke-width: 0.8"/>
      </g>
     </g>
     <g id="text_10">
      <!-- 0 -->
      <g transform="translate(37.6875 383.231551) scale(0.1 -0.1)">
       <use xlink:href="#DejaVuSans-30"/>
      </g>
     </g>
    </g>
    <g id="ytick_2">
     <g id="line2d_10">
      <g>
       <use xlink:href="#me1be57c3d1" x="51.05" y="324.282125" style="stroke: #000000; stroke-width: 0.8"/>
      </g>
     </g>
     <g id="text_11">
      <!-- 50 -->
      <g transform="translate(31.325 328.081344) scale(0.1 -0.1)">
       <use xlink:href="#DejaVuSans-35"/>
       <use xlink:href="#DejaVuSans-30" transform="translate(63.623047 0)"/>
      </g>
     </g>
    </g>
    <g id="ytick_3">
     <g id="line2d_11">
      <g>
       <use xlink:href="#me1be57c3d1" x="51.05" y="269.131919" style="stroke: #000000; stroke-width: 0.8"/>
      </g>
     </g>
     <g id="text_12">
      <!-- 100 -->
      <g transform="translate(24.9625 272.931137) scale(0.1 -0.1)">
       <use xlink:href="#DejaVuSans-31"/>
       <use xlink:href="#DejaVuSans-30" transform="translate(63.623047 0)"/>
       <use xlink:href="#DejaVuSans-30" transform="translate(127.246094 0)"/>
      </g>
     </g>
    </g>
    <g id="ytick_4">
     <g id="line2d_12">
      <g>
       <use xlink:href="#me1be57c3d1" x="51.05" y="213.981712" style="stroke: #000000; stroke-width: 0.8"/>
      </g>
     </g>
     <g id="text_13">
      <!-- 150 -->
      <g transform="translate(24.9625 217.780931) scale(0.1 -0.1)">
       <use xlink:href="#DejaVuSans-31"/>
       <use xlink:href="#DejaVuSans-35" transform="translate(63.623047 0)"/>
       <use xlink:href="#DejaVuSans-30" transform="translate(127.246094 0)"/>
      </g>
     </g>
    </g>
    <g id="ytick_5">
     <g id="line2d_13">
      <g>
       <use xlink:href="#me1be57c3d1" x="51.05" y="158.831505" style="stroke: #000000; stroke-width: 0.8"/>
      </g>
     </g>
     <g id="text_14">
      <!-- 200 -->
      <g transform="translate(24.9625 162.630724) scale(0.1 -0.1)">
       <use xlink:href="#DejaVuSans-32"/>
       <use xlink:href="#DejaVuSans-30" transform="translate(63.623047 0)"/>
       <use xlink:href="#DejaVuSans-30" transform="translate(127.246094 0)"/>
      </g>
     </g>
    </g>
    <g id="ytick_6">
     <g id="line2d_14">
      <g>
       <use xlink:href="#me1be57c3d1" x="51.05" y="103.681299" style="stroke: #000000; stroke-width: 0.8"/>
      </g>
     </g>
     <g id="text_15">
      <!-- 250 -->
      <g transform="translate(24.9625 107.480517) scale(0.1 -0.1)">
       <use xlink:href="#DejaVuSans-32"/>
       <use xlink:href="#DejaVuSans-35" transform="translate(63.623047 0)"/>
       <use xlink:href="#DejaVuSans-30" transform="translate(127.246094 0)"/>
      </g>
     </g>
    </g>
    <g id="ytick_7">
     <g id="line2d_15">
      <g>
       <use xlink:href="#me1be57c3d1" x="51.05" y="48.531092" style="stroke: #000000; stroke-width: 0.8"/>
      </g>
     </g>
     <g id="text_16">
      <!-- 300 -->
      <g transform="translate(24.9625 52.330311) scale(0.1 -0.1)">
       <use xlink:href="#DejaVuSans-33"/>
       <use xlink:href="#DejaVuSans-30" transform="translate(63.623047 0)"/>
       <use xlink:href="#DejaVuSans-30" transform="translate(127.246094 0)"/>
      </g>
     </g>
    </g>
    <g id="text_17">
     <!-- SoC -->
     <g transform="translate(18.882812 217.465) rotate(-90) scale(0.1 -0.1)">
      <defs>
       <path id="DejaVuSans-53" d="M 3425 4513 
L 3425 3897 
Q 3066 4069 2747 4153 
Q 2428 4238 2131 4238 
Q 1616 4238 1336 4038 
Q 1056 3838 1056 3469 
Q 1056 3159 1242 3001 
Q 1428 2844 1947 2747 
L 2328 2669 
Q 3034 2534 3370 2195 
Q 3706 1856 3706 1288 
Q 3706 609 3251 259 
Q 2797 -91 1919 -91 
Q 1588 -91 1214 -16 
Q 841 59 441 206 
L 441 856 
Q 825 641 1194 531 
Q 1563 422 1919 422 
Q 2459 422 2753 634 
Q 3047 847 3047 1241 
Q 3047 1584 2836 1778 
Q 2625 1972 2144 2069 
L 1759 2144 
Q 1053 2284 737 2584 
Q 422 2884 422 3419 
Q 422 4038 858 4394 
Q 1294 4750 2059 4750 
Q 2388 4750 2728 4690 
Q 3069 4631 3425 4513 
z
" transform="scale(0.015625)"/>
       <path id="DejaVuSans-6f" d="M 1959 3097 
Q 1497 3097 1228 2736 
Q 959 2375 959 1747 
Q 959 1119 1226 758 
Q 1494 397 1959 397 
Q 2419 397 2687 759 
Q 2956 1122 2956 1747 
Q 2956 2369 2687 2733 
Q 2419 3097 1959 3097 
z
M 1959 3584 
Q 2709 3584 3137 3096 
Q 3566 2609 3566 1747 
Q 3566 888 3137 398 
Q 2709 -91 1959 -91 
Q 1206 -91 779 398 
Q 353 888 353 1747 
Q 353 2609 779 3096 
Q 1206 3584 1959 3584 
z
" transform="scale(0.015625)"/>
       <path id="DejaVuSans-43" d="M 4122 4306 
L 4122 3641 
Q 3803 3938 3442 4084 
Q 3081 4231 2675 4231 
Q 1875 4231 1450 3742 
Q 1025 3253 1025 2328 
Q 1025 1406 1450 917 
Q 1875 428 2675 428 
Q 3081 428 3442 575 
Q 3803 722 4122 1019 
L 4122 359 
Q 3791 134 3420 21 
Q 3050 -91 2638 -91 
Q 1578 -91 968 557 
Q 359 1206 359 2328 
Q 359 3453 968 4101 
Q 1578 4750 2638 4750 
Q 3056 4750 3426 4639 
Q 3797 4528 4122 4306 
z
" transform="scale(0.015625)"/>
      </defs>
      <use xlink:href="#DejaVuSans-53"/>
      <use xlink:href="#DejaVuSans-6f" transform="translate(63.476562 0)"/>
      <use xlink:href="#DejaVuSans-43" transform="translate(124.658203 0)"/>
     </g>
    </g>
   </g>
   <g id="line2d_16">
    <path d="M 80.719508 214.370094 
L 674.109671 214.370094 
L 674.109671 214.370094 
" clip-path="url(#pbd0ed9af2f)" style="fill: none; stroke: #1f77b4; stroke-width: 1.8; stroke-linecap: square"/>
   </g>
   <g id="line2d_17">
    <path d="M 80.719508 214.370094 
L 674.109671 214.370094 
L 674.109671 214.370094 
" clip-path="url(#pbd0ed9af2f)" style="fill: none; stroke: #ff7f0e; stroke-width: 1.8; stroke-linecap: square"/>
   </g>
   <g id="line2d_18">
    <path d="M 80.719508 214.370094 
L 674.109671 214.370094 
L 674.109671 214.370094 
" clip-path="url(#pbd0ed9af2f)" style="fill: none; stroke: #2ca02c; stroke-width: 1.8; stroke-linecap: square"/>
   </g>
   <g id="line2d_19">
    <path d="M 80.719508 214.370094 
L 674.109671 214.370094 
L 674.109671 214.370094 
" clip-path="url(#pbd0ed9af2f)" style="fill: none; stroke: #d62728; stroke-width: 1.8; stroke-linecap: square"/>
   </g>
   <g id="line2d_20">
    <path d="M 80.719508 214.370094 
L 93.118706 214.370094 
L 94.890019 275.504256 
L 101.975275 275.504256 
L 103.746589 247.72864 
L 105.517903 214.370094 
L 107.289217 214.370094 
L 109.060531 194.926501 
L 110.831845 176.964683 
L 119.688414 176.964683 
L 121.459728 214.370094 
L 135.63024 214.370094 
L 137.401554 258.527616 
L 139.172867 298.021276 
L 142.715495 298.021276 
L 146.258123 217.282146 
L 148.029437 179.023277 
L 149.800751 214.370094 
L 192.312285 214.370094 
L 194.083599 178.778477 
L 195.854913 161.325382 
L 204.711482 161.325382 
L 206.482796 214.370094 
L 220.653308 214.370094 
L 222.424622 253.384649 
L 224.195936 277.379354 
L 225.967249 277.379354 
L 227.738563 257.081706 
L 231.281191 257.081706 
L 233.052505 214.370094 
L 270.250097 214.370094 
L 272.021411 202.682435 
L 273.792725 174.951195 
L 275.564039 174.951195 
L 277.335353 214.370094 
L 305.676376 214.370094 
L 307.44769 275.504256 
L 309.219004 280.073451 
L 314.532945 280.073451 
L 316.304259 259.242437 
L 318.075573 259.242437 
L 319.846887 214.370094 
L 321.618201 184.909026 
L 332.246085 184.909026 
L 334.017399 214.370094 
L 349.959224 214.370094 
L 351.730538 258.858071 
L 353.501852 258.858071 
L 355.273166 244.197176 
L 357.044479 244.197176 
L 358.815793 214.370094 
L 392.470758 214.370094 
L 394.242072 256.602969 
L 399.556014 256.602969 
L 401.327327 223.134388 
L 403.098641 223.134388 
L 404.869955 214.370094 
L 449.152803 214.370094 
L 450.924117 179.741764 
L 458.009373 179.741764 
L 459.780687 214.370094 
L 477.493826 214.370094 
L 479.26514 217.723935 
L 482.807768 217.723935 
L 484.579082 214.370094 
L 489.893023 214.370094 
L 491.664337 206.093471 
L 495.206965 206.093471 
L 496.978279 201.906498 
L 498.749593 199.079751 
L 500.520907 199.079751 
L 502.292221 214.370094 
L 518.234046 214.370094 
L 520.00536 263.246074 
L 521.776674 279.769354 
L 528.86193 279.769354 
L 530.633244 248.067162 
L 532.404557 214.370094 
L 560.74558 214.370094 
L 562.516894 236.060132 
L 567.830836 236.060132 
L 569.60215 214.370094 
L 608.571056 214.370094 
L 610.34237 204.639133 
L 612.113684 176.141589 
L 615.656312 176.141589 
L 617.427626 214.370094 
L 628.055509 214.370094 
L 629.826823 273.412776 
L 649.311276 273.412776 
L 651.08259 240.606928 
L 652.853904 205.371461 
L 656.396532 205.371461 
L 659.93916 130.787863 
L 668.795729 130.787863 
L 670.567043 162.632312 
L 672.338357 174.719047 
L 674.109671 214.370094 
L 674.109671 214.370094 
" clip-path="url(#pbd0ed9af2f)" style="fill: none; stroke: #9467bd; stroke-width: 1.8; stroke-linecap: square"/>
   </g>
   <g id="line2d_21">
    <path d="M 80.719508 214.370094 
L 181.684402 214.370094 
L 183.455715 177.23109 
L 186.998343 148.71729 
L 188.769657 143.695377 
L 190.540971 130.949219 
L 192.312285 93.810215 
L 201.168855 93.810215 
L 202.940169 88.294667 
L 204.711482 63.200371 
L 206.482796 49.307855 
L 674.109671 49.307855 
L 674.109671 49.307855 
" clip-path="url(#pbd0ed9af2f)" style="fill: none; stroke: #8c564b; stroke-width: 1.8; stroke-linecap: square"/>
   </g>
   <g id="line2d_22">
    <path d="M 80.719508 49.307855 
L 674.109671 49.307855 
L 674.109671 49.307855 
" clip-path="url(#pbd0ed9af2f)" style="fill: none; stroke: #e377c2; stroke-width: 1.8; stroke-linecap: square"/>
   </g>
   <g id="line2d_23">
    <path d="M 80.719508 49.307855 
L 178.141774 49.307855 
L 179.913088 56.880569 
L 183.455715 56.880569 
L 185.227029 56.534235 
L 186.998343 51.312162 
L 188.769657 46.667039 
L 190.540971 45.139965 
L 192.312285 49.307855 
L 195.854913 49.307855 
L 197.626227 43.3926 
L 202.940169 43.3926 
L 204.711482 49.307855 
L 206.482796 49.307855 
L 208.25411 60.286694 
L 210.025424 76.03488 
L 211.796738 70.84217 
L 213.568052 63.512208 
L 215.339366 63.512208 
L 217.11068 49.307855 
L 220.653308 49.307855 
L 222.424622 44.114451 
L 224.195936 42.012727 
L 225.967249 49.307855 
L 234.823819 49.307855 
L 236.595133 58.514142 
L 238.366447 78.44241 
L 243.680389 78.44241 
L 245.451703 62.177343 
L 247.223017 62.177343 
L 248.99433 49.307855 
L 603.257114 49.307855 
L 605.028428 46.005226 
L 606.799742 45.995161 
L 608.571056 42.363477 
L 613.884998 42.363477 
L 615.656312 49.307855 
L 674.109671 49.307855 
L 674.109671 49.307855 
" clip-path="url(#pbd0ed9af2f)" style="fill: none; stroke: #7f7f7f; stroke-width: 1.8; stroke-linecap: square"/>
   </g>
   <g id="line2d_24">
    <path d="M 80.719508 49.307855 
L 674.109671 49.307855 
L 674.109671 49.307855 
" clip-path="url(#pbd0ed9af2f)" style="fill: none; stroke: #bcbd22; stroke-width: 1.8; stroke-linecap: square"/>
   </g>
   <g id="line2d_25">
    <path d="M 80.719508 286.997479 
L 674.109671 286.997479 
L 674.109671 286.997479 
" clip-path="url(#pbd0ed9af2f)" style="fill: none; stroke: #17becf; stroke-width: 1.8; stroke-linecap: square"/>
   </g>
   <g id="line2d_26">
    <path d="M 80.719508 286.997479 
L 674.109671 286.997479 
L 674.109671 286.997479 
" clip-path="url(#pbd0ed9af2f)" style="fill: none; stroke: #1f77b4; stroke-width: 1.8; stroke-linecap: square"/>
   </g>
   <g id="line2d_27">
    <path d="M 80.719508 286.997479 
L 674.109671 286.997479 
L 674.109671 286.997479 
" clip-path="url(#pbd0ed9af2f)" style="fill: none; stroke: #ff7f0e; stroke-width: 1.8; stroke-linecap: square"/>
   </g>
   <g id="line2d_28">
    <path d="M 80.719508 286.997479 
L 149.800751 286.997479 
L 151.572065 261.320214 
L 153.343379 238.353694 
L 160.428634 238.353694 
L 162.199948 286.997479 
L 178.141774 286.997479 
L 179.913088 338.350175 
L 186.998343 338.350175 
L 188.769657 328.593163 
L 190.540971 286.997479 
L 234.823819 286.997479 
L 238.366447 209.071969 
L 241.909075 209.071969 
L 243.680389 235.644782 
L 247.223017 235.644782 
L 248.99433 286.997479 
L 263.164842 286.997479 
L 264.936156 326.542151 
L 268.478784 326.542151 
L 270.250097 312.389622 
L 272.021411 270.793938 
L 273.792725 250.271961 
L 275.564039 286.997479 
L 277.335353 286.997479 
L 279.106667 271.894354 
L 280.877981 265.764705 
L 284.420609 265.764705 
L 286.191923 259.767085 
L 289.734551 259.767085 
L 291.505864 286.997479 
L 307.44769 286.997479 
L 309.219004 338.350175 
L 314.532945 338.350175 
L 316.304259 310.316003 
L 318.075573 286.997479 
L 319.846887 286.997479 
L 321.618201 278.7362 
L 323.389515 241.990552 
L 330.474771 241.990552 
L 332.246085 286.997479 
L 348.18791 286.997479 
L 349.959224 338.004745 
L 355.273166 338.004745 
L 357.044479 298.011661 
L 358.815793 286.997479 
L 362.358421 286.997479 
L 364.129735 252.351902 
L 372.986305 252.351902 
L 374.757619 286.997479 
L 390.699444 286.997479 
L 392.470758 335.266495 
L 399.556014 335.266495 
L 401.327327 326.128512 
L 403.098641 286.997479 
L 404.869955 286.997479 
L 406.641269 249.197261 
L 408.412583 240.007322 
L 411.955211 240.007322 
L 413.726525 286.997479 
L 433.210978 286.997479 
L 434.982292 332.926194 
L 436.753606 373.467273 
L 438.52492 373.467273 
L 440.296234 360.590389 
L 442.067548 321.93578 
L 443.838862 286.997479 
L 447.381489 286.997479 
L 449.152803 272.621746 
L 450.924117 270.802347 
L 452.695431 255.52783 
L 459.780687 255.52783 
L 461.552001 286.997479 
L 475.722512 286.997479 
L 477.493826 319.177695 
L 481.036454 319.177695 
L 482.807768 315.897099 
L 484.579082 301.585376 
L 488.121709 301.585376 
L 489.893023 286.997479 
L 532.404557 286.997479 
L 534.175871 270.838471 
L 537.718499 270.838471 
L 539.489813 263.039261 
L 541.261127 235.644782 
L 544.803755 235.644782 
L 546.575069 286.997479 
L 574.916092 286.997479 
L 576.687405 247.36069 
L 578.458719 222.108847 
L 585.543975 222.108847 
L 587.315289 242.250176 
L 589.086603 286.997479 
L 603.257114 286.997479 
L 605.028428 325.15932 
L 608.571056 325.15932 
L 610.34237 286.997479 
L 619.198939 286.997479 
L 620.970253 250.088025 
L 645.768648 250.088025 
L 647.539962 301.440722 
L 652.853904 301.440722 
L 654.625218 274.01303 
L 656.396532 232.417346 
L 658.167846 230.406581 
L 659.93916 230.406581 
L 661.710474 194.562625 
L 670.567043 194.562625 
L 672.338357 245.915322 
L 674.109671 286.997479 
L 674.109671 286.997479 
" clip-path="url(#pbd0ed9af2f)" style="fill: none; stroke: #2ca02c; stroke-width: 1.8; stroke-linecap: square"/>
   </g>
   <g id="line2d_29">
    <path d="M 80.719508 286.997479 
L 98.432647 286.935739 
L 100.203961 283.13768 
L 101.975275 280.823403 
L 103.746589 280.823403 
L 105.517903 285.473969 
L 107.289217 286.997479 
L 109.060531 286.997479 
L 110.831845 286.663259 
L 112.603159 283.085146 
L 114.374473 280.351587 
L 116.145787 279.270551 
L 117.9171 279.270551 
L 119.688414 281.943374 
L 121.459728 286.997479 
L 135.63024 286.997479 
L 137.401554 285.33184 
L 139.172867 284.303049 
L 140.944181 284.789277 
L 142.715495 284.943708 
L 144.486809 286.112466 
L 146.258123 286.997479 
L 153.343379 286.997479 
L 155.114693 286.098533 
L 156.886007 286.098533 
L 158.657321 286.532843 
L 160.428634 286.532843 
L 162.199948 286.874767 
L 163.971262 286.997479 
L 263.164842 286.997479 
L 264.936156 271.444408 
L 266.70747 262.043379 
L 268.478784 251.552679 
L 270.250097 251.552679 
L 272.021411 258.200173 
L 273.792725 271.219933 
L 275.564039 280.351898 
L 277.335353 286.997479 
L 279.106667 291.199165 
L 282.649295 291.199165 
L 284.420609 286.997479 
L 337.560026 286.997479 
L 339.33134 286.71162 
L 342.873968 286.71162 
L 344.645282 286.06306 
L 346.416596 286.295371 
L 348.18791 286.997479 
L 349.959224 285.204994 
L 351.730538 285.204994 
L 353.501852 286.997479 
L 362.358421 286.997479 
L 364.129735 288.662277 
L 365.901049 288.165766 
L 369.443677 288.165766 
L 371.214991 282.311076 
L 374.757619 282.311076 
L 376.528933 286.997479 
L 378.300247 289.204203 
L 388.92813 289.204203 
L 390.699444 286.997479 
L 404.869955 286.997479 
L 406.641269 277.542271 
L 408.412583 277.542271 
L 410.183897 277.186161 
L 415.497839 277.186161 
L 417.269153 280.712097 
L 419.040467 286.997479 
L 420.811781 296.319466 
L 422.583094 302.641392 
L 424.354408 311.38853 
L 426.125722 314.455433 
L 431.439664 314.427097 
L 433.210978 286.997479 
L 461.552001 286.997479 
L 463.323315 283.651946 
L 468.637256 283.651946 
L 473.951198 286.997479 
L 475.722512 286.997479 
L 479.26514 284.105859 
L 481.036454 283.706398 
L 482.807768 289.411259 
L 488.121709 289.411259 
L 489.893023 286.997479 
L 496.978279 286.997479 
L 498.749593 284.465464 
L 500.520907 285.570871 
L 502.292221 286.208338 
L 504.063535 286.997479 
L 518.234046 286.997479 
L 520.00536 285.71931 
L 521.776674 284.673401 
L 523.547988 284.224794 
L 525.319302 285.594622 
L 527.090616 287.722058 
L 528.86193 288.202788 
L 530.633244 288.202788 
L 532.404557 286.997479 
L 674.109671 286.997479 
L 674.109671 286.997479 
" clip-path="url(#pbd0ed9af2f)" style="fill: none; stroke: #d62728; stroke-width: 1.8; stroke-linecap: square"/>
   </g>
   <g id="line2d_30">
    <path d="M 80.719508 286.997479 
L 93.118706 286.997479 
L 94.890019 295.213306 
L 96.661333 320.889654 
L 101.975275 320.889654 
L 103.746589 300.091812 
L 105.517903 286.997479 
L 107.289217 286.997479 
L 109.060531 266.199637 
L 110.831845 261.32113 
L 117.9171 261.32113 
L 119.688414 286.997479 
L 178.141774 286.997479 
L 179.913088 305.172019 
L 186.998343 305.172019 
L 188.769657 289.762276 
L 190.540971 286.997479 
L 192.312285 286.997479 
L 194.083599 284.681619 
L 195.854913 263.883777 
L 197.626227 263.883777 
L 199.397541 261.32113 
L 202.940169 261.32113 
L 204.711482 286.997479 
L 234.823819 286.997479 
L 236.595133 285.781003 
L 247.223017 285.781003 
L 248.99433 286.997479 
L 277.335353 286.997479 
L 279.106667 268.854313 
L 280.877981 268.854313 
L 282.649295 261.32113 
L 289.734551 261.32113 
L 291.505864 286.997479 
L 406.641269 286.997479 
L 408.412583 266.783013 
L 417.269153 266.783013 
L 419.040467 286.997479 
L 447.381489 286.997479 
L 449.152803 266.199637 
L 450.924117 266.199637 
L 452.695431 261.32113 
L 459.780687 261.32113 
L 461.552001 286.997479 
L 475.722512 286.997479 
L 477.493826 307.795321 
L 481.036454 307.795321 
L 482.807768 286.997479 
L 532.404557 286.997479 
L 534.175871 266.199637 
L 537.718499 266.199637 
L 539.489813 259.673429 
L 543.032441 259.673429 
L 544.803755 283.755024 
L 546.575069 286.997479 
L 560.74558 286.997479 
L 562.516894 307.795321 
L 567.830836 307.795321 
L 569.60215 286.997479 
L 617.427626 286.997479 
L 619.198939 266.199637 
L 643.997334 266.199637 
L 645.768648 273.920651 
L 647.539962 277.21706 
L 652.853904 277.21706 
L 654.625218 264.004006 
L 656.396532 261.32113 
L 672.338357 261.32113 
L 674.109671 286.997479 
L 674.109671 286.997479 
" clip-path="url(#pbd0ed9af2f)" style="fill: none; stroke: #9467bd; stroke-width: 1.8; stroke-linecap: square"/>
   </g>
   <g id="line2d_31">
    <path d="M 80.719508 286.997479 
L 674.109671 286.997479 
L 674.109671 286.997479 
" clip-path="url(#pbd0ed9af2f)" style="fill: none; stroke: #8c564b; stroke-width: 1.8; stroke-linecap: square"/>
   </g>
   <g id="line2d_32">
    <path d="M 80.719508 286.997479 
L 674.109671 286.997479 
L 674.109671 286.997479 
" clip-path="url(#pbd0ed9af2f)" style="fill: none; stroke: #e377c2; stroke-width: 1.8; stroke-linecap: square"/>
   </g>
   <g id="line2d_33">
    <path d="M 80.719508 286.997479 
L 674.109671 286.997479 
L 674.109671 286.997479 
" clip-path="url(#pbd0ed9af2f)" style="fill: none; stroke: #7f7f7f; stroke-width: 1.8; stroke-linecap: square"/>
   </g>
   <g id="patch_3">
    <path d="M 51.05 390.04 
L 51.05 25.44 
" style="fill: none; stroke: #000000; stroke-width: 0.8; stroke-linejoin: miter; stroke-linecap: square"/>
   </g>
   <g id="patch_4">
    <path d="M 703.779179 390.04 
L 703.779179 25.44 
" style="fill: none; stroke: #000000; stroke-width: 0.8; stroke-linejoin: miter; stroke-linecap: square"/>
   </g>
   <g id="patch_5">
    <path d="M 51.05 390.04 
L 703.779179 390.04 
" style="fill: none; stroke: #000000; stroke-width: 0.8; stroke-linejoin: miter; stroke-linecap: square"/>
   </g>
   <g id="patch_6">
    <path d="M 51.05 25.44 
L 703.779179 25.44 
" style="fill: none; stroke: #000000; stroke-width: 0.8; stroke-linejoin: miter; stroke-linecap: square"/>
   </g>
   <g id="text_18">
    <!-- SoC by battery (T=336, F=8, L=24) -->
    <g transform="translate(270.00709 19.44) scale(0.12 -0.12)">
     <defs>
      <path id="DejaVuSans-62" d="M 3116 1747 
Q 3116 2381 2855 2742 
Q 2594 3103 2138 3103 
Q 1681 3103 1420 2742 
Q 1159 2381 1159 1747 
Q 1159 1113 1420 752 
Q 1681 391 2138 391 
Q 2594 391 2855 752 
Q 3116 1113 3116 1747 
z
M 1159 2969 
Q 1341 3281 1617 3432 
Q 1894 3584 2278 3584 
Q 2916 3584 3314 3078 
Q 3713 2572 3713 1747 
Q 3713 922 3314 415 
Q 2916 -91 2278 -91 
Q 1894 -91 1617 61 
Q 1341 213 1159 525 
L 1159 0 
L 581 0 
L 581 4863 
L 1159 4863 
L 1159 2969 
z
" transform="scale(0.015625)"/>
      <path id="DejaVuSans-79" d="M 2059 -325 
Q 1816 -950 1584 -1140 
Q 1353 -1331 966 -1331 
L 506 -1331 
L 506 -850 
L 844 -850 
Q 1081 -850 1212 -737 
Q 1344 -625 1503 -206 
L 1606 56 
L 191 3500 
L 800 3500 
L 1894 763 
L 2988 3500 
L 3597 3500 
L 2059 -325 
z
" transform="scale(0.015625)"/>
      <path id="DejaVuSans-61" d="M 2194 1759 
Q 1497 1759 1228 1600 
Q 959 1441 959 1056 
Q 959 750 1161 570 
Q 1363 391 1709 391 
Q 2188 391 2477 730 
Q 2766 1069 2766 1631 
L 2766 1759 
L 2194 1759 
z
M 3341 1997 
L 3341 0 
L 2766 0 
L 2766 531 
Q 2569 213 2275 61 
Q 1981 -91 1556 -91 
Q 1019 -91 701 211 
Q 384 513 384 1019 
Q 384 1609 779 1909 
Q 1175 2209 1959 2209 
L 2766 2209 
L 2766 2266 
Q 2766 2663 2505 2880 
Q 2244 3097 1772 3097 
Q 1472 3097 1187 3025 
Q 903 2953 641 2809 
L 641 3341 
Q 956 3463 1253 3523 
Q 1550 3584 1831 3584 
Q 2591 3584 2966 3190 
Q 3341 2797 3341 1997 
z
" transform="scale(0.015625)"/>
      <path id="DejaVuSans-72" d="M 2631 2963 
Q 2534 3019 2420 3045 
Q 2306 3072 2169 3072 
Q 1681 3072 1420 2755 
Q 1159 2438 1159 1844 
L 1159 0 
L 581 0 
L 581 3500 
L 1159 3500 
L 1159 2956 
Q 1341 3275 1631 3429 
Q 1922 3584 2338 3584 
Q 2397 3584 2469 3576 
Q 2541 3569 2628 3553 
L 2631 2963 
z
" transform="scale(0.015625)"/>
      <path id="DejaVuSans-3d" d="M 678 2906 
L 4684 2906 
L 4684 2381 
L 678 2381 
L 678 2906 
z
M 678 1631 
L 4684 1631 
L 4684 1100 
L 678 1100 
L 678 1631 
z
" transform="scale(0.015625)"/>
      <path id="DejaVuSans-36" d="M 2113 2584 
Q 1688 2584 1439 2293 
Q 1191 2003 1191 1497 
Q 1191 994 1439 701 
Q 1688 409 2113 409 
Q 2538 409 2786 701 
Q 3034 994 3034 1497 
Q 3034 2003 2786 2293 
Q 2538 2584 2113 2584 
z
M 3366 4563 
L 3366 3988 
Q 3128 4100 2886 4159 
Q 2644 4219 2406 4219 
Q 1781 4219 1451 3797 
Q 1122 3375 1075 2522 
Q 1259 2794 1537 2939 
Q 1816 3084 2150 3084 
Q 2853 3084 3261 2657 
Q 3669 2231 3669 1497 
Q 3669 778 3244 343 
Q 2819 -91 2113 -91 
Q 1303 -91 875 529 
Q 447 1150 447 2328 
Q 447 3434 972 4092 
Q 1497 4750 2381 4750 
Q 2619 4750 2861 4703 
Q 3103 4656 3366 4563 
z
" transform="scale(0.015625)"/>
      <path id="DejaVuSans-2c" d="M 750 794 
L 1409 794 
L 1409 256 
L 897 -744 
L 494 -744 
L 750 256 
L 750 794 
z
" transform="scale(0.015625)"/>
      <path id="DejaVuSans-46" d="M 628 4666 
L 3309 4666 
L 3309 4134 
L 1259 4134 
L 1259 2759 
L 3109 2759 
L 3109 2228 
L 1259 2228 
L 1259 0 
L 628 0 
L 628 4666 
z
" transform="scale(0.015625)"/>
      <path id="DejaVuSans-38" d="M 2034 2216 
Q 1584 2216 1326 1975 
Q 1069 1734 1069 1313 
Q 1069 891 1326 650 
Q 1584 409 2034 409 
Q 2484 409 2743 651 
Q 3003 894 3003 1313 
Q 3003 1734 2745 1975 
Q 2488 2216 2034 2216 
z
M 1403 2484 
Q 997 2584 770 2862 
Q 544 3141 544 3541 
Q 544 4100 942 4425 
Q 1341 4750 2034 4750 
Q 2731 4750 3128 4425 
Q 3525 4100 3525 3541 
Q 3525 3141 3298 2862 
Q 3072 2584 2669 2484 
Q 3125 2378 3379 2068 
Q 3634 1759 3634 1313 
Q 3634 634 3220 271 
Q 2806 -91 2034 -91 
Q 1263 -91 848 271 
Q 434 634 434 1313 
Q 434 1759 690 2068 
Q 947 2378 1403 2484 
z
M 1172 3481 
Q 1172 3119 1398 2916 
Q 1625 2713 2034 2713 
Q 2441 2713 2670 2916 
Q 2900 3119 2900 3481 
Q 2900 3844 2670 4047 
Q 2441 4250 2034 4250 
Q 1625 4250 1398 4047 
Q 1172 3844 1172 3481 
z
" transform="scale(0.015625)"/>
      <path id="DejaVuSans-4c" d="M 628 4666 
L 1259 4666 
L 1259 531 
L 3531 531 
L 3531 0 
L 628 0 
L 628 4666 
z
" transform="scale(0.015625)"/>
      <path id="DejaVuSans-34" d="M 2419 4116 
L 825 1625 
L 2419 1625 
L 2419 4116 
z
M 2253 4666 
L 3047 4666 
L 3047 1625 
L 3713 1625 
L 3713 1100 
L 3047 1100 
L 3047 0 
L 2419 0 
L 2419 1100 
L 313 1100 
L 313 1709 
L 2253 4666 
z
" transform="scale(0.015625)"/>
     </defs>
     <use xlink:href="#DejaVuSans-53"/>
     <use xlink:href="#DejaVuSans-6f" transform="translate(63.476562 0)"/>
     <use xlink:href="#DejaVuSans-43" transform="translate(124.658203 0)"/>
     <use xlink:href="#DejaVuSans-20" transform="translate(194.482422 0)"/>
     <use xlink:href="#DejaVuSans-62" transform="translate(226.269531 0)"/>
     <use xlink:href="#DejaVuSans-79" transform="translate(289.746094 0)"/>
     <use xlink:href="#DejaVuSans-20" transform="translate(348.925781 0)"/>
     <use xlink:href="#DejaVuSans-62" transform="translate(380.712891 0)"/>
     <use xlink:href="#DejaVuSans-61" transform="translate(444.189453 0)"/>
     <use xlink:href="#DejaVuSans-74" transform="translate(505.46875 0)"/>
     <use xlink:href="#DejaVuSans-74" transform="translate(544.677734 0)"/>
     <use xlink:href="#DejaVuSans-65" transform="translate(583.886719 0)"/>
     <use xlink:href="#DejaVuSans-72" transform="translate(645.410156 0)"/>
     <use xlink:href="#DejaVuSans-79" transform="translate(686.523438 0)"/>
     <use xlink:href="#DejaVuSans-20" transform="translate(745.703125 0)"/>
     <use xlink:href="#DejaVuSans-28" transform="translate(777.490234 0)"/>
     <use xlink:href="#DejaVuSans-54" transform="translate(816.503906 0)"/>
     <use xlink:href="#DejaVuSans-3d" transform="translate(877.587891 0)"/>
     <use xlink:href="#DejaVuSans-33" transform="translate(961.376953 0)"/>
     <use xlink:href="#DejaVuSans-33" transform="translate(1025 0)"/>
     <use xlink:href="#DejaVuSans-36" transform="translate(1088.623047 0)"/>
     <use xlink:href="#DejaVuSans-2c" transform="translate(1152.246094 0)"/>
     <use xlink:href="#DejaVuSans-20" transform="translate(1184.033203 0)"/>
     <use xlink:href="#DejaVuSans-46" transform="translate(1215.820312 0)"/>
     <use xlink:href="#DejaVuSans-3d" transform="translate(1273.339844 0)"/>
     <use xlink:href="#DejaVuSans-38" transform="translate(1357.128906 0)"/>
     <use xlink:href="#DejaVuSans-2c" transform="translate(1420.751953 0)"/>
     <use xlink:href="#DejaVuSans-20" transform="translate(1452.539062 0)"/>
     <use xlink:href="#DejaVuSans-4c" transform="translate(1484.326172 0)"/>
     <use xlink:href="#DejaVuSans-3d" transform="translate(1540.039062 0)"/>
     <use xlink:href="#DejaVuSans-32" transform="translate(1623.828125 0)"/>
     <use xlink:href="#DejaVuSans-34" transform="translate(1687.451172 0)"/>
     <use xlink:href="#DejaVuSans-29" transform="translate(1751.074219 0)"/>
    </g>
   </g>
  </g>
 </g>
 <defs>
  <clipPath id="pbd0ed9af2f">
   <rect x="51.05" y="25.44" width="652.729179" height="364.6"/>
  </clipPath>
 </defs>
</svg>
