<?xml version="1.0" encoding="utf-8" standalone="no"?>
<!DOCTYPE svg PUBLIC "-//W3C//DTD SVG 1.1//EN"
  "http://www.w3.org/Graphics/SVG/1.1/DTD/svg11.dtd">
<svg xmlns:xlink="http://www.w3.org/1999/xlink" width="720pt" height="432pt" viewBox="0 0 720 432" xmlns="http://www.w3.org/2000/svg" version="1.1">
 <metadata>
  <rdf:RDF xmlns:dc="http://purl.org/dc/elements/1.1/" xmlns:cc="http://creativecommons.org/ns#" xmlns:rdf="http://www.w3.org/1999/02/22-rdf-syntax-ns#">
   <cc:Work>
    <dc:type rdf:resource="http://purl.org/dc/dcmitype/StillImage"/>
    <dc:date>2025-11-10T23:58:40.030778</dc:date>
    <dc:format>image/svg+xml</dc:format>
    <dc:creator>
     <cc:Agent>
      <dc:title>Matplotlib v3.10.0, https://matplotlib.org/</dc:title>
     </cc:Agent>
    </dc:creator>
   </cc:Work>
  </rdf:RDF>
 </metadata>
 <defs>
  <style type="text/css">*{stroke-linejoin: round; stroke-linecap: butt}</style>
 </defs>
 <g id="figure_1">
  <g id="patch_1">
   <path d="M 0 432 
L 720 432 
L 720 0 
L 0 0 
z
" style="fill: #ffffff"/>
  </g>
  <g id="axes_1">
   <g id="patch_2">
    <path d="M 51.05 390.04 
L 703.715708 390.04 
L 703.715708 25.44 
L 51.05 25.44 
z
" style="fill: #ffffff"/>
   </g>
   <g id="matplotlib.axis_1">
    <g id="xtick_1">
     <g id="line2d_1">
      <defs>
       <path id="mc4a69b9823" d="M 0 0 
L 0 3.5 
" style="stroke: #000000; stroke-width: 0.8"/>
      </defs>
      <g>
       <use xlink:href="#mc4a69b9823" x="77.163734" y="390.04" style="stroke: #000000; stroke-width: 0.8"/>
      </g>
     </g>
     <g id="text_1">
      <!-- 0 -->
      <g transform="translate(73.982484 404.638438) scale(0.1 -0.1)">
       <defs>
        <path id="DejaVuSans-30" d="M 2034 4250 
Q 1547 4250 1301 3770 
Q 1056 3291 1056 2328 
Q 1056 1369 1301 889 
Q 1547 409 2034 409 
Q 2525 409 2770 889 
Q 3016 1369 3016 2328 
Q 3016 3291 2770 3770 
Q 2525 4250 2034 4250 
z
M 2034 4750 
Q 2819 4750 3233 4129 
Q 3647 3509 3647 2328 
Q 3647 1150 3233 529 
Q 2819 -91 2034 -91 
Q 1250 -91 836 529 
Q 422 1150 422 2328 
Q 422 3509 836 4129 
Q 1250 4750 2034 4750 
z
" transform="scale(0.015625)"/>
       </defs>
       <use xlink:href="#DejaVuSans-30"/>
      </g>
     </g>
    </g>
    <g id="xtick_2">
     <g id="line2d_2">
      <g>
       <use xlink:href="#mc4a69b9823" x="165.985959" y="390.04" style="stroke: #000000; stroke-width: 0.8"/>
      </g>
     </g>
     <g id="text_2">
      <!-- 25 -->
      <g transform="translate(159.623459 404.638438) scale(0.1 -0.1)">
       <defs>
        <path id="DejaVuSans-32" d="M 1228 531 
L 3431 531 
L 3431 0 
L 469 0 
L 469 531 
Q 828 903 1448 1529 
Q 2069 2156 2228 2338 
Q 2531 2678 2651 2914 
Q 2772 3150 2772 3378 
Q 2772 3750 2511 3984 
Q 2250 4219 1831 4219 
Q 1534 4219 1204 4116 
Q 875 4013 500 3803 
L 500 4441 
Q 881 4594 1212 4672 
Q 1544 4750 1819 4750 
Q 2544 4750 2975 4387 
Q 3406 4025 3406 3419 
Q 3406 3131 3298 2873 
Q 3191 2616 2906 2266 
Q 2828 2175 2409 1742 
Q 1991 1309 1228 531 
z
" transform="scale(0.015625)"/>
        <path id="DejaVuSans-35" d="M 691 4666 
L 3169 4666 
L 3169 4134 
L 1269 4134 
L 1269 2991 
Q 1406 3038 1543 3061 
Q 1681 3084 1819 3084 
Q 2600 3084 3056 2656 
Q 3513 2228 3513 1497 
Q 3513 744 3044 326 
Q 2575 -91 1722 -91 
Q 1428 -91 1123 -41 
Q 819 9 494 109 
L 494 744 
Q 775 591 1075 516 
Q 1375 441 1709 441 
Q 2250 441 2565 725 
Q 2881 1009 2881 1497 
Q 2881 1984 2565 2268 
Q 2250 2553 1709 2553 
Q 1456 2553 1204 2497 
Q 953 2441 691 2322 
L 691 4666 
z
" transform="scale(0.015625)"/>
       </defs>
       <use xlink:href="#DejaVuSans-32"/>
       <use xlink:href="#DejaVuSans-35" transform="translate(63.623047 0)"/>
      </g>
     </g>
    </g>
    <g id="xtick_3">
     <g id="line2d_3">
      <g>
       <use xlink:href="#mc4a69b9823" x="254.808184" y="390.04" style="stroke: #000000; stroke-width: 0.8"/>
      </g>
     </g>
     <g id="text_3">
      <!-- 50 -->
      <g transform="translate(248.445684 404.638438) scale(0.1 -0.1)">
       <use xlink:href="#DejaVuSans-35"/>
       <use xlink:href="#DejaVuSans-30" transform="translate(63.623047 0)"/>
      </g>
     </g>
    </g>
    <g id="xtick_4">
     <g id="line2d_4">
      <g>
       <use xlink:href="#mc4a69b9823" x="343.630408" y="390.04" style="stroke: #000000; stroke-width: 0.8"/>
      </g>
     </g>
     <g id="text_4">
      <!-- 75 -->
      <g transform="translate(337.267908 404.638438) scale(0.1 -0.1)">
       <defs>
        <path id="DejaVuSans-37" d="M 525 4666 
L 3525 4666 
L 3525 4397 
L 1831 0 
L 1172 0 
L 2766 4134 
L 525 4134 
L 525 4666 
z
" transform="scale(0.015625)"/>
       </defs>
       <use xlink:href="#DejaVuSans-37"/>
       <use xlink:href="#DejaVuSans-35" transform="translate(63.623047 0)"/>
      </g>
     </g>
    </g>
    <g id="xtick_5">
     <g id="line2d_5">
      <g>
       <use xlink:href="#mc4a69b9823" x="432.452633" y="390.04" style="stroke: #000000; stroke-width: 0.8"/>
      </g>
     </g>
     <g id="text_5">
      <!-- 100 -->
      <g transform="translate(422.908883 404.638438) scale(0.1 -0.1)">
       <defs>
        <path id="DejaVuSans-31" d="M 794 531 
L 1825 531 
L 1825 4091 
L 703 3866 
L 703 4441 
L 1819 4666 
L 2450 4666 
L 2450 531 
L 3481 531 
L 3481 0 
L 794 0 
L 794 531 
z
" transform="scale(0.015625)"/>
       </defs>
       <use xlink:href="#DejaVuSans-31"/>
       <use xlink:href="#DejaVuSans-30" transform="translate(63.623047 0)"/>
       <use xlink:href="#DejaVuSans-30" transform="translate(127.246094 0)"/>
      </g>
     </g>
    </g>
    <g id="xtick_6">
     <g id="line2d_6">
      <g>
       <use xlink:href="#mc4a69b9823" x="521.274858" y="390.04" style="stroke: #000000; stroke-width: 0.8"/>
      </g>
     </g>
     <g id="text_6">
      <!-- 125 -->
      <g transform="translate(511.731108 404.638438) scale(0.1 -0.1)">
       <use xlink:href="#DejaVuSans-31"/>
       <use xlink:href="#DejaVuSans-32" transform="translate(63.623047 0)"/>
       <use xlink:href="#DejaVuSans-35" transform="translate(127.246094 0)"/>
      </g>
     </g>
    </g>
    <g id="xtick_7">
     <g id="line2d_7">
      <g>
       <use xlink:href="#mc4a69b9823" x="610.097083" y="390.04" style="stroke: #000000; stroke-width: 0.8"/>
      </g>
     </g>
     <g id="text_7">
      <!-- 150 -->
      <g transform="translate(600.553333 404.638438) scale(0.1 -0.1)">
       <use xlink:href="#DejaVuSans-31"/>
       <use xlink:href="#DejaVuSans-35" transform="translate(63.623047 0)"/>
       <use xlink:href="#DejaVuSans-30" transform="translate(127.246094 0)"/>
      </g>
     </g>
    </g>
    <g id="xtick_8">
     <g id="line2d_8">
      <g>
       <use xlink:href="#mc4a69b9823" x="698.919308" y="390.04" style="stroke: #000000; stroke-width: 0.8"/>
      </g>
     </g>
     <g id="text_8">
      <!-- 175 -->
      <g transform="translate(689.375558 404.638438) scale(0.1 -0.1)">
       <use xlink:href="#DejaVuSans-31"/>
       <use xlink:href="#DejaVuSans-37" transform="translate(63.623047 0)"/>
       <use xlink:href="#DejaVuSans-35" transform="translate(127.246094 0)"/>
      </g>
     </g>
    </g>
    <g id="text_9">
     <!-- Time (t) -->
     <g transform="translate(357.698479 418.316562) scale(0.1 -0.1)">
      <defs>
       <path id="DejaVuSans-54" d="M -19 4666 
L 3928 4666 
L 3928 4134 
L 2272 4134 
L 2272 0 
L 1638 0 
L 1638 4134 
L -19 4134 
L -19 4666 
z
" transform="scale(0.015625)"/>
       <path id="DejaVuSans-69" d="M 603 3500 
L 1178 3500 
L 1178 0 
L 603 0 
L 603 3500 
z
M 603 4863 
L 1178 4863 
L 1178 4134 
L 603 4134 
L 603 4863 
z
" transform="scale(0.015625)"/>
       <path id="DejaVuSans-6d" d="M 3328 2828 
Q 3544 3216 3844 3400 
Q 4144 3584 4550 3584 
Q 5097 3584 5394 3201 
Q 5691 2819 5691 2113 
L 5691 0 
L 5113 0 
L 5113 2094 
Q 5113 2597 4934 2840 
Q 4756 3084 4391 3084 
Q 3944 3084 3684 2787 
Q 3425 2491 3425 1978 
L 3425 0 
L 2847 0 
L 2847 2094 
Q 2847 2600 2669 2842 
Q 2491 3084 2119 3084 
Q 1678 3084 1418 2786 
Q 1159 2488 1159 1978 
L 1159 0 
L 581 0 
L 581 3500 
L 1159 3500 
L 1159 2956 
Q 1356 3278 1631 3431 
Q 1906 3584 2284 3584 
Q 2666 3584 2933 3390 
Q 3200 3197 3328 2828 
z
" transform="scale(0.015625)"/>
       <path id="DejaVuSans-65" d="M 3597 1894 
L 3597 1613 
L 953 1613 
Q 991 1019 1311 708 
Q 1631 397 2203 397 
Q 2534 397 2845 478 
Q 3156 559 3463 722 
L 3463 178 
Q 3153 47 2828 -22 
Q 2503 -91 2169 -91 
Q 1331 -91 842 396 
Q 353 884 353 1716 
Q 353 2575 817 3079 
Q 1281 3584 2069 3584 
Q 2775 3584 3186 3129 
Q 3597 2675 3597 1894 
z
M 3022 2063 
Q 3016 2534 2758 2815 
Q 2500 3097 2075 3097 
Q 1594 3097 1305 2825 
Q 1016 2553 972 2059 
L 3022 2063 
z
" transform="scale(0.015625)"/>
       <path id="DejaVuSans-20" transform="scale(0.015625)"/>
       <path id="DejaVuSans-28" d="M 1984 4856 
Q 1566 4138 1362 3434 
Q 1159 2731 1159 2009 
Q 1159 1288 1364 580 
Q 1569 -128 1984 -844 
L 1484 -844 
Q 1016 -109 783 600 
Q 550 1309 550 2009 
Q 550 2706 781 3412 
Q 1013 4119 1484 4856 
L 1984 4856 
z
" transform="scale(0.015625)"/>
       <path id="DejaVuSans-74" d="M 1172 4494 
L 1172 3500 
L 2356 3500 
L 2356 3053 
L 1172 3053 
L 1172 1153 
Q 1172 725 1289 603 
Q 1406 481 1766 481 
L 2356 481 
L 2356 0 
L 1766 0 
Q 1100 0 847 248 
Q 594 497 594 1153 
L 594 3053 
L 172 3053 
L 172 3500 
L 594 3500 
L 594 4494 
L 1172 4494 
z
" transform="scale(0.015625)"/>
       <path id="DejaVuSans-29" d="M 513 4856 
L 1013 4856 
Q 1481 4119 1714 3412 
Q 1947 2706 1947 2009 
Q 1947 1309 1714 600 
Q 1481 -109 1013 -844 
L 513 -844 
Q 928 -128 1133 580 
Q 1338 1288 1338 2009 
Q 1338 2731 1133 3434 
Q 928 4138 513 4856 
z
" transform="scale(0.015625)"/>
      </defs>
      <use xlink:href="#DejaVuSans-54"/>
      <use xlink:href="#DejaVuSans-69" transform="translate(57.958984 0)"/>
      <use xlink:href="#DejaVuSans-6d" transform="translate(85.742188 0)"/>
      <use xlink:href="#DejaVuSans-65" transform="translate(183.154297 0)"/>
      <use xlink:href="#DejaVuSans-20" transform="translate(244.677734 0)"/>
      <use xlink:href="#DejaVuSans-28" transform="translate(276.464844 0)"/>
      <use xlink:href="#DejaVuSans-74" transform="translate(315.478516 0)"/>
      <use xlink:href="#DejaVuSans-29" transform="translate(354.6875 0)"/>
     </g>
    </g>
   </g>
   <g id="matplotlib.axis_2">
    <g id="ytick_1">
     <g id="line2d_9">
      <defs>
       <path id="m62e3f8d9d0" d="M 0 0 
L -3.5 0 
" style="stroke: #000000; stroke-width: 0.8"/>
      </defs>
      <g>
       <use xlink:href="#m62e3f8d9d0" x="51.05" y="373.467273" style="stroke: #000000; stroke-width: 0.8"/>
      </g>
     </g>
     <g id="text_10">
      <!-- 0 -->
      <g transform="translate(37.6875 377.266491) scale(0.1 -0.1)">
       <use xlink:href="#DejaVuSans-30"/>
      </g>
     </g>
    </g>
    <g id="ytick_2">
     <g id="line2d_10">
      <g>
       <use xlink:href="#m62e3f8d9d0" x="51.05" y="322.837921" style="stroke: #000000; stroke-width: 0.8"/>
      </g>
     </g>
     <g id="text_11">
      <!-- 50 -->
      <g transform="translate(31.325 326.63714) scale(0.1 -0.1)">
       <use xlink:href="#DejaVuSans-35"/>
       <use xlink:href="#DejaVuSans-30" transform="translate(63.623047 0)"/>
      </g>
     </g>
    </g>
    <g id="ytick_3">
     <g id="line2d_11">
      <g>
       <use xlink:href="#m62e3f8d9d0" x="51.05" y="272.20857" style="stroke: #000000; stroke-width: 0.8"/>
      </g>
     </g>
     <g id="text_12">
      <!-- 100 -->
      <g transform="translate(24.9625 276.007789) scale(0.1 -0.1)">
       <use xlink:href="#DejaVuSans-31"/>
       <use xlink:href="#DejaVuSans-30" transform="translate(63.623047 0)"/>
       <use xlink:href="#DejaVuSans-30" transform="translate(127.246094 0)"/>
      </g>
     </g>
    </g>
    <g id="ytick_4">
     <g id="line2d_12">
      <g>
       <use xlink:href="#m62e3f8d9d0" x="51.05" y="221.579219" style="stroke: #000000; stroke-width: 0.8"/>
      </g>
     </g>
     <g id="text_13">
      <!-- 150 -->
      <g transform="translate(24.9625 225.378438) scale(0.1 -0.1)">
       <use xlink:href="#DejaVuSans-31"/>
       <use xlink:href="#DejaVuSans-35" transform="translate(63.623047 0)"/>
       <use xlink:href="#DejaVuSans-30" transform="translate(127.246094 0)"/>
      </g>
     </g>
    </g>
    <g id="ytick_5">
     <g id="line2d_13">
      <g>
       <use xlink:href="#m62e3f8d9d0" x="51.05" y="170.949868" style="stroke: #000000; stroke-width: 0.8"/>
      </g>
     </g>
     <g id="text_14">
      <!-- 200 -->
      <g transform="translate(24.9625 174.749086) scale(0.1 -0.1)">
       <use xlink:href="#DejaVuSans-32"/>
       <use xlink:href="#DejaVuSans-30" transform="translate(63.623047 0)"/>
       <use xlink:href="#DejaVuSans-30" transform="translate(127.246094 0)"/>
      </g>
     </g>
    </g>
    <g id="ytick_6">
     <g id="line2d_14">
      <g>
       <use xlink:href="#m62e3f8d9d0" x="51.05" y="120.320516" style="stroke: #000000; stroke-width: 0.8"/>
      </g>
     </g>
     <g id="text_15">
      <!-- 250 -->
      <g transform="translate(24.9625 124.119735) scale(0.1 -0.1)">
       <use xlink:href="#DejaVuSans-32"/>
       <use xlink:href="#DejaVuSans-35" transform="translate(63.623047 0)"/>
       <use xlink:href="#DejaVuSans-30" transform="translate(127.246094 0)"/>
      </g>
     </g>
    </g>
    <g id="ytick_7">
     <g id="line2d_15">
      <g>
       <use xlink:href="#m62e3f8d9d0" x="51.05" y="69.691165" style="stroke: #000000; stroke-width: 0.8"/>
      </g>
     </g>
     <g id="text_16">
      <!-- 300 -->
      <g transform="translate(24.9625 73.490384) scale(0.1 -0.1)">
       <defs>
        <path id="DejaVuSans-33" d="M 2597 2516 
Q 3050 2419 3304 2112 
Q 3559 1806 3559 1356 
Q 3559 666 3084 287 
Q 2609 -91 1734 -91 
Q 1441 -91 1130 -33 
Q 819 25 488 141 
L 488 750 
Q 750 597 1062 519 
Q 1375 441 1716 441 
Q 2309 441 2620 675 
Q 2931 909 2931 1356 
Q 2931 1769 2642 2001 
Q 2353 2234 1838 2234 
L 1294 2234 
L 1294 2753 
L 1863 2753 
Q 2328 2753 2575 2939 
Q 2822 3125 2822 3475 
Q 2822 3834 2567 4026 
Q 2313 4219 1838 4219 
Q 1578 4219 1281 4162 
Q 984 4106 628 3988 
L 628 4550 
Q 988 4650 1302 4700 
Q 1616 4750 1894 4750 
Q 2613 4750 3031 4423 
Q 3450 4097 3450 3541 
Q 3450 3153 3228 2886 
Q 3006 2619 2597 2516 
z
" transform="scale(0.015625)"/>
       </defs>
       <use xlink:href="#DejaVuSans-33"/>
       <use xlink:href="#DejaVuSans-30" transform="translate(63.623047 0)"/>
       <use xlink:href="#DejaVuSans-30" transform="translate(127.246094 0)"/>
      </g>
     </g>
    </g>
    <g id="text_17">
     <!-- SoC -->
     <g transform="translate(18.882812 217.465) rotate(-90) scale(0.1 -0.1)">
      <defs>
       <path id="DejaVuSans-53" d="M 3425 4513 
L 3425 3897 
Q 3066 4069 2747 4153 
Q 2428 4238 2131 4238 
Q 1616 4238 1336 4038 
Q 1056 3838 1056 3469 
Q 1056 3159 1242 3001 
Q 1428 2844 1947 2747 
L 2328 2669 
Q 3034 2534 3370 2195 
Q 3706 1856 3706 1288 
Q 3706 609 3251 259 
Q 2797 -91 1919 -91 
Q 1588 -91 1214 -16 
Q 841 59 441 206 
L 441 856 
Q 825 641 1194 531 
Q 1563 422 1919 422 
Q 2459 422 2753 634 
Q 3047 847 3047 1241 
Q 3047 1584 2836 1778 
Q 2625 1972 2144 2069 
L 1759 2144 
Q 1053 2284 737 2584 
Q 422 2884 422 3419 
Q 422 4038 858 4394 
Q 1294 4750 2059 4750 
Q 2388 4750 2728 4690 
Q 3069 4631 3425 4513 
z
" transform="scale(0.015625)"/>
       <path id="DejaVuSans-6f" d="M 1959 3097 
Q 1497 3097 1228 2736 
Q 959 2375 959 1747 
Q 959 1119 1226 758 
Q 1494 397 1959 397 
Q 2419 397 2687 759 
Q 2956 1122 2956 1747 
Q 2956 2369 2687 2733 
Q 2419 3097 1959 3097 
z
M 1959 3584 
Q 2709 3584 3137 3096 
Q 3566 2609 3566 1747 
Q 3566 888 3137 398 
Q 2709 -91 1959 -91 
Q 1206 -91 779 398 
Q 353 888 353 1747 
Q 353 2609 779 3096 
Q 1206 3584 1959 3584 
z
" transform="scale(0.015625)"/>
       <path id="DejaVuSans-43" d="M 4122 4306 
L 4122 3641 
Q 3803 3938 3442 4084 
Q 3081 4231 2675 4231 
Q 1875 4231 1450 3742 
Q 1025 3253 1025 2328 
Q 1025 1406 1450 917 
Q 1875 428 2675 428 
Q 3081 428 3442 575 
Q 3803 722 4122 1019 
L 4122 359 
Q 3791 134 3420 21 
Q 3050 -91 2638 -91 
Q 1578 -91 968 557 
Q 359 1206 359 2328 
Q 359 3453 968 4101 
Q 1578 4750 2638 4750 
Q 3056 4750 3426 4639 
Q 3797 4528 4122 4306 
z
" transform="scale(0.015625)"/>
      </defs>
      <use xlink:href="#DejaVuSans-53"/>
      <use xlink:href="#DejaVuSans-6f" transform="translate(63.476562 0)"/>
      <use xlink:href="#DejaVuSans-43" transform="translate(124.658203 0)"/>
     </g>
    </g>
   </g>
   <g id="line2d_16">
    <path d="M 80.716623 221.935764 
L 674.049085 221.935764 
L 674.049085 221.935764 
" clip-path="url(#p06cedd182f)" style="fill: none; stroke: #1f77b4; stroke-width: 1.8; stroke-linecap: square"/>
   </g>
   <g id="line2d_17">
    <path d="M 80.716623 221.935764 
L 674.049085 221.935764 
L 674.049085 221.935764 
" clip-path="url(#p06cedd182f)" style="fill: none; stroke: #ff7f0e; stroke-width: 1.8; stroke-linecap: square"/>
   </g>
   <g id="line2d_18">
    <path d="M 80.716623 221.935764 
L 674.049085 221.935764 
L 674.049085 221.935764 
" clip-path="url(#p06cedd182f)" style="fill: none; stroke: #2ca02c; stroke-width: 1.8; stroke-linecap: square"/>
   </g>
   <g id="line2d_19">
    <path d="M 80.716623 221.935764 
L 674.049085 221.935764 
L 674.049085 221.935764 
" clip-path="url(#p06cedd182f)" style="fill: none; stroke: #d62728; stroke-width: 1.8; stroke-linecap: square"/>
   </g>
   <g id="line2d_20">
    <path d="M 80.716623 236.023608 
L 84.269512 236.023608 
L 87.822401 280.751487 
L 91.37529 301.267848 
L 94.928179 301.267848 
L 98.481068 322.362257 
L 102.033957 364.4367 
L 105.586846 373.467273 
L 112.692624 373.467273 
L 116.245513 330.98064 
L 119.798402 330.98064 
L 123.351291 307.108556 
L 126.90418 275.024847 
L 130.457069 258.663001 
L 134.009958 221.935764 
L 162.43307 221.935764 
L 169.538848 314.887646 
L 176.644626 314.887646 
L 180.197515 336.40275 
L 194.409071 336.40275 
L 197.96196 330.886777 
L 205.067738 258.131612 
L 215.726405 258.131612 
L 219.279294 221.935764 
L 269.01974 221.935764 
L 272.572629 278.058545 
L 276.125518 324.92855 
L 279.678407 332.126777 
L 293.889963 332.126777 
L 297.442852 287.919885 
L 300.995741 265.692022 
L 304.54863 265.692022 
L 308.101519 234.871679 
L 311.654408 218.764045 
L 322.313074 218.764045 
L 325.865963 219.165726 
L 329.418852 221.935764 
L 354.289075 221.935764 
L 357.841964 252.872998 
L 368.500631 252.872998 
L 372.05352 217.222571 
L 375.606409 217.222571 
L 379.159298 177.461775 
L 382.712187 177.461775 
L 389.817965 87.210839 
L 400.476632 87.210839 
L 404.029521 113.696886 
L 407.58241 113.696886 
L 411.135299 164.731932 
L 414.688188 200.759069 
L 418.241077 221.935764 
L 421.793966 266.972026 
L 425.346855 277.057819 
L 428.899744 277.057819 
L 432.452633 288.913803 
L 436.005522 303.556542 
L 439.558411 348.07156 
L 450.217078 348.07156 
L 453.769967 327.235724 
L 457.322856 305.149561 
L 460.875745 305.149561 
L 467.981523 215.475304 
L 471.534412 197.713285 
L 475.087301 197.713285 
L 478.64019 173.366006 
L 499.957524 173.366006 
L 503.510413 221.935764 
L 507.063302 221.935764 
L 510.616191 240.763803 
L 514.16908 240.763803 
L 517.721969 261.663586 
L 521.274858 299.185896 
L 524.827747 355.308677 
L 528.380636 367.529769 
L 546.145081 367.529769 
L 556.803748 244.195107 
L 560.356637 221.935764 
L 563.909526 221.935764 
L 567.462415 201.937289 
L 581.673971 201.937289 
L 585.22686 202.85136 
L 592.332638 202.85136 
L 595.885527 204.12415 
L 602.991305 204.12415 
L 606.544194 257.580158 
L 610.097083 266.376171 
L 613.649972 321.128653 
L 624.308639 321.128653 
L 627.861528 293.541293 
L 631.414417 259.266854 
L 634.967306 259.266854 
L 638.520195 217.967457 
L 642.073084 181.895403 
L 645.625973 165.812982 
L 670.496196 165.812982 
L 674.049085 221.935764 
L 674.049085 221.935764 
" clip-path="url(#p06cedd182f)" style="fill: none; stroke: #9467bd; stroke-width: 1.8; stroke-linecap: square"/>
   </g>
   <g id="line2d_21">
    <path d="M 80.716623 221.935764 
L 674.049085 221.935764 
L 674.049085 221.935764 
" clip-path="url(#p06cedd182f)" style="fill: none; stroke: #8c564b; stroke-width: 1.8; stroke-linecap: square"/>
   </g>
   <g id="line2d_22">
    <path d="M 80.716623 70.404254 
L 674.049085 70.404254 
L 674.049085 70.404254 
" clip-path="url(#p06cedd182f)" style="fill: none; stroke: #e377c2; stroke-width: 1.8; stroke-linecap: square"/>
   </g>
   <g id="line2d_23">
    <path d="M 80.716623 70.404254 
L 247.702406 70.404254 
L 251.255295 78.701864 
L 254.808184 86.569715 
L 258.361073 86.569715 
L 261.913962 90.867517 
L 265.466851 90.867517 
L 269.01974 96.184474 
L 272.572629 101.214195 
L 276.125518 107.261854 
L 279.678407 107.261854 
L 283.231296 113.572742 
L 286.784185 113.572742 
L 290.337074 113.254798 
L 293.889963 108.460797 
L 297.442852 104.196451 
L 300.995741 102.794556 
L 304.54863 106.62079 
L 308.101519 108.446735 
L 311.654408 108.446735 
L 315.207296 102.537952 
L 318.760185 91.343885 
L 322.313074 81.241836 
L 325.865963 68.374207 
L 329.418852 68.374207 
L 332.971741 70.404254 
L 336.52463 70.404254 
L 340.077519 72.170656 
L 343.630408 67.403611 
L 347.183297 60.674511 
L 350.736186 55.052699 
L 354.289075 42.012727 
L 368.500631 42.012727 
L 372.05352 47.2661 
L 375.606409 48.876012 
L 379.159298 48.876012 
L 382.712187 49.110177 
L 386.265076 58.062347 
L 389.817965 70.404254 
L 418.241077 70.404254 
L 421.793966 62.429766 
L 425.346855 55.704099 
L 428.899744 50.027945 
L 432.452633 45.799161 
L 436.005522 43.002749 
L 439.558411 42.059024 
L 450.217078 42.059024 
L 453.769967 49.169976 
L 489.298857 49.169976 
L 492.851746 51.400614 
L 496.404635 60.374765 
L 499.957524 70.404254 
L 503.510413 70.404254 
L 507.063302 69.535995 
L 510.616191 63.723253 
L 514.16908 60.3667 
L 542.592192 60.3667 
L 546.145081 69.743226 
L 549.69797 69.743226 
L 553.250859 70.404254 
L 674.049085 70.404254 
L 674.049085 70.404254 
" clip-path="url(#p06cedd182f)" style="fill: none; stroke: #7f7f7f; stroke-width: 1.8; stroke-linecap: square"/>
   </g>
   <g id="line2d_24">
    <path d="M 80.716623 70.404254 
L 674.049085 70.404254 
L 674.049085 70.404254 
" clip-path="url(#p06cedd182f)" style="fill: none; stroke: #bcbd22; stroke-width: 1.8; stroke-linecap: square"/>
   </g>
   <g id="line2d_25">
    <path d="M 80.716623 288.609628 
L 674.049085 288.609628 
L 674.049085 288.609628 
" clip-path="url(#p06cedd182f)" style="fill: none; stroke: #17becf; stroke-width: 1.8; stroke-linecap: square"/>
   </g>
   <g id="line2d_26">
    <path d="M 80.716623 288.609628 
L 674.049085 288.609628 
L 674.049085 288.609628 
" clip-path="url(#p06cedd182f)" style="fill: none; stroke: #1f77b4; stroke-width: 1.8; stroke-linecap: square"/>
   </g>
   <g id="line2d_27">
    <path d="M 80.716623 288.609628 
L 674.049085 288.609628 
L 674.049085 288.609628 
" clip-path="url(#p06cedd182f)" style="fill: none; stroke: #ff7f0e; stroke-width: 1.8; stroke-linecap: square"/>
   </g>
   <g id="line2d_28">
    <path d="M 80.716623 291.998223 
L 91.37529 291.998223 
L 94.928179 336.730493 
L 109.139735 336.730493 
L 112.692624 308.062634 
L 116.245513 308.062634 
L 119.798402 285.46546 
L 126.90418 285.46546 
L 130.457069 281.013151 
L 134.009958 281.013151 
L 137.562847 244.078755 
L 141.115736 242.282474 
L 158.880181 242.282474 
L 162.43307 288.609628 
L 180.197515 288.609628 
L 183.750404 335.752764 
L 187.303293 335.752764 
L 190.856182 373.467273 
L 205.067738 373.467273 
L 208.620627 335.281332 
L 212.173516 307.107896 
L 215.726405 291.088641 
L 219.279294 291.088641 
L 222.832183 267.524898 
L 240.596628 267.524898 
L 244.149517 288.609628 
L 276.125518 288.609628 
L 279.678407 308.203793 
L 283.231296 315.730362 
L 286.784185 315.730362 
L 290.337074 277.544421 
L 293.889963 260.850308 
L 300.995741 260.850308 
L 304.54863 241.466491 
L 325.865963 241.466491 
L 329.418852 288.609628 
L 372.05352 288.609628 
L 375.606409 256.281717 
L 379.159298 256.281717 
L 382.712187 234.787594 
L 389.817965 234.787594 
L 393.370854 213.221934 
L 396.923743 208.721469 
L 404.029521 208.721469 
L 407.58241 239.06827 
L 411.135299 241.466491 
L 414.688188 241.466491 
L 418.241077 288.609628 
L 425.346855 288.609628 
L 428.899744 297.784619 
L 439.558411 297.784619 
L 443.1113 337.365413 
L 446.664189 347.523376 
L 457.322856 347.523376 
L 460.875745 309.913778 
L 471.534412 309.913778 
L 475.087301 294.783395 
L 478.64019 288.609628 
L 510.616191 288.609628 
L 514.16908 308.867777 
L 517.721969 308.867777 
L 521.274858 321.330922 
L 528.380636 321.330922 
L 531.933525 325.578992 
L 539.039303 325.578992 
L 542.592192 308.920154 
L 546.145081 288.609628 
L 560.356637 288.609628 
L 563.909526 253.982542 
L 606.544194 253.982542 
L 610.097083 301.125678 
L 620.75575 301.125678 
L 624.308639 286.46522 
L 631.414417 286.46522 
L 634.967306 248.434107 
L 645.625973 248.434107 
L 649.178862 215.304043 
L 666.943307 215.304043 
L 670.496196 254.48387 
L 674.049085 288.609628 
L 674.049085 288.609628 
" clip-path="url(#p06cedd182f)" style="fill: none; stroke: #2ca02c; stroke-width: 1.8; stroke-linecap: square"/>
   </g>
   <g id="line2d_29">
    <path d="M 80.716623 288.609628 
L 94.928179 288.609628 
L 98.481068 284.622994 
L 102.033957 284.622994 
L 105.586846 276.373824 
L 109.139735 275.541094 
L 112.692624 272.867935 
L 126.90418 272.867935 
L 130.457069 277.137278 
L 134.009958 278.5359 
L 137.562847 280.36616 
L 141.115736 280.059337 
L 144.668625 276.774534 
L 151.774403 276.774534 
L 155.327292 280.729605 
L 158.880181 283.969826 
L 162.43307 288.609628 
L 165.985959 292.875191 
L 169.538848 294.913516 
L 173.091737 295.728599 
L 176.644626 296.12152 
L 183.750404 297.191964 
L 187.303293 297.596542 
L 190.856182 298.418156 
L 194.409071 296.889056 
L 197.96196 295.890198 
L 201.514849 296.336568 
L 205.067738 296.47834 
L 208.620627 297.551291 
L 212.173516 298.363756 
L 215.726405 297.554788 
L 219.279294 295.812366 
L 226.385072 291.646383 
L 229.937961 289.382902 
L 233.49085 288.055461 
L 237.043739 288.45417 
L 240.596628 288.18308 
L 244.149517 288.496975 
L 247.702406 288.609628 
L 578.121082 288.609628 
L 581.673971 263.152334 
L 585.22686 263.152334 
L 588.779749 264.86079 
L 592.332638 276.064234 
L 595.885527 289.245806 
L 599.438416 301.683874 
L 663.390418 301.683874 
L 666.943307 300.926928 
L 670.496196 288.609628 
L 674.049085 288.609628 
L 674.049085 288.609628 
" clip-path="url(#p06cedd182f)" style="fill: none; stroke: #d62728; stroke-width: 1.8; stroke-linecap: square"/>
   </g>
   <g id="line2d_30">
    <path d="M 80.716623 312.181196 
L 84.269512 324.255725 
L 87.822401 324.255725 
L 91.37529 347.827293 
L 94.928179 347.827293 
L 98.481068 371.398861 
L 102.033957 373.467273 
L 116.245513 373.467273 
L 123.351291 335.281332 
L 126.90418 326.795568 
L 130.457069 307.702598 
L 137.562847 307.702598 
L 141.115736 288.609628 
L 176.644626 288.609628 
L 180.197515 312.181196 
L 183.750404 313.710872 
L 187.303293 313.710872 
L 190.856182 315.379509 
L 201.514849 315.379509 
L 205.067738 315.140268 
L 208.620627 315.046481 
L 212.173516 303.224 
L 215.726405 284.13103 
L 222.832183 284.13103 
L 226.385072 265.038059 
L 240.596628 265.038059 
L 244.149517 288.609628 
L 269.01974 288.609628 
L 272.572629 307.879938 
L 276.125518 331.451507 
L 279.678407 338.414818 
L 283.231296 361.986386 
L 286.784185 345.606791 
L 290.337074 341.40994 
L 293.889963 322.31697 
L 297.442852 322.31697 
L 304.54863 284.13103 
L 308.101519 284.13103 
L 311.654408 265.038059 
L 325.865963 265.038059 
L 329.418852 288.609628 
L 372.05352 288.609628 
L 375.606409 280.429977 
L 379.159298 280.429977 
L 382.712187 261.337006 
L 386.265076 260.559462 
L 389.817965 260.559462 
L 393.370854 241.466491 
L 400.476632 241.466491 
L 404.029521 265.038059 
L 414.688188 265.038059 
L 418.241077 288.609628 
L 421.793966 288.609628 
L 425.346855 312.181196 
L 428.899744 326.324137 
L 436.005522 373.467273 
L 450.217078 373.467273 
L 457.322856 335.281332 
L 460.875745 330.20136 
L 464.428634 326.795568 
L 467.981523 326.795568 
L 475.087301 288.609628 
L 503.510413 288.609628 
L 507.063302 307.608023 
L 517.721969 307.608023 
L 521.274858 331.179591 
L 524.827747 349.580459 
L 539.039303 349.580459 
L 546.145081 311.394519 
L 549.69797 311.394519 
L 553.250859 307.702598 
L 556.803748 307.702598 
L 560.356637 288.609628 
L 588.779749 288.609628 
L 592.332638 288.743897 
L 599.438416 288.743897 
L 602.991305 310.303813 
L 624.308639 310.303813 
L 627.861528 304.461248 
L 642.073084 304.461248 
L 645.625973 285.368278 
L 670.496196 285.368278 
L 674.049085 288.609628 
L 674.049085 288.609628 
" clip-path="url(#p06cedd182f)" style="fill: none; stroke: #9467bd; stroke-width: 1.8; stroke-linecap: square"/>
   </g>
   <g id="line2d_31">
    <path d="M 80.716623 288.609628 
L 674.049085 288.609628 
L 674.049085 288.609628 
" clip-path="url(#p06cedd182f)" style="fill: none; stroke: #8c564b; stroke-width: 1.8; stroke-linecap: square"/>
   </g>
   <g id="line2d_32">
    <path d="M 80.716623 288.609628 
L 674.049085 288.609628 
L 674.049085 288.609628 
" clip-path="url(#p06cedd182f)" style="fill: none; stroke: #e377c2; stroke-width: 1.8; stroke-linecap: square"/>
   </g>
   <g id="line2d_33">
    <path d="M 80.716623 288.609628 
L 674.049085 288.609628 
L 674.049085 288.609628 
" clip-path="url(#p06cedd182f)" style="fill: none; stroke: #7f7f7f; stroke-width: 1.8; stroke-linecap: square"/>
   </g>
   <g id="patch_3">
    <path d="M 51.05 390.04 
L 51.05 25.44 
" style="fill: none; stroke: #000000; stroke-width: 0.8; stroke-linejoin: miter; stroke-linecap: square"/>
   </g>
   <g id="patch_4">
    <path d="M 703.715708 390.04 
L 703.715708 25.44 
" style="fill: none; stroke: #000000; stroke-width: 0.8; stroke-linejoin: miter; stroke-linecap: square"/>
   </g>
   <g id="patch_5">
    <path d="M 51.05 390.04 
L 703.715708 390.04 
" style="fill: none; stroke: #000000; stroke-width: 0.8; stroke-linejoin: miter; stroke-linecap: square"/>
   </g>
   <g id="patch_6">
    <path d="M 51.05 25.44 
L 703.715708 25.44 
" style="fill: none; stroke: #000000; stroke-width: 0.8; stroke-linejoin: miter; stroke-linecap: square"/>
   </g>
   <g id="text_18">
    <!-- SoC by battery (T=168, F=24, L=8) -->
    <g transform="translate(269.975354 19.44) scale(0.12 -0.12)">
     <defs>
      <path id="DejaVuSans-62" d="M 3116 1747 
Q 3116 2381 2855 2742 
Q 2594 3103 2138 3103 
Q 1681 3103 1420 2742 
Q 1159 2381 1159 1747 
Q 1159 1113 1420 752 
Q 1681 391 2138 391 
Q 2594 391 2855 752 
Q 3116 1113 3116 1747 
z
M 1159 2969 
Q 1341 3281 1617 3432 
Q 1894 3584 2278 3584 
Q 2916 3584 3314 3078 
Q 3713 2572 3713 1747 
Q 3713 922 3314 415 
Q 2916 -91 2278 -91 
Q 1894 -91 1617 61 
Q 1341 213 1159 525 
L 1159 0 
L 581 0 
L 581 4863 
L 1159 4863 
L 1159 2969 
z
" transform="scale(0.015625)"/>
      <path id="DejaVuSans-79" d="M 2059 -325 
Q 1816 -950 1584 -1140 
Q 1353 -1331 966 -1331 
L 506 -1331 
L 506 -850 
L 844 -850 
Q 1081 -850 1212 -737 
Q 1344 -625 1503 -206 
L 1606 56 
L 191 3500 
L 800 3500 
L 1894 763 
L 2988 3500 
L 3597 3500 
L 2059 -325 
z
" transform="scale(0.015625)"/>
      <path id="DejaVuSans-61" d="M 2194 1759 
Q 1497 1759 1228 1600 
Q 959 1441 959 1056 
Q 959 750 1161 570 
Q 1363 391 1709 391 
Q 2188 391 2477 730 
Q 2766 1069 2766 1631 
L 2766 1759 
L 2194 1759 
z
M 3341 1997 
L 3341 0 
L 2766 0 
L 2766 531 
Q 2569 213 2275 61 
Q 1981 -91 1556 -91 
Q 1019 -91 701 211 
Q 384 513 384 1019 
Q 384 1609 779 1909 
Q 1175 2209 1959 2209 
L 2766 2209 
L 2766 2266 
Q 2766 2663 2505 2880 
Q 2244 3097 1772 3097 
Q 1472 3097 1187 3025 
Q 903 2953 641 2809 
L 641 3341 
Q 956 3463 1253 3523 
Q 1550 3584 1831 3584 
Q 2591 3584 2966 3190 
Q 3341 2797 3341 1997 
z
" transform="scale(0.015625)"/>
      <path id="DejaVuSans-72" d="M 2631 2963 
Q 2534 3019 2420 3045 
Q 2306 3072 2169 3072 
Q 1681 3072 1420 2755 
Q 1159 2438 1159 1844 
L 1159 0 
L 581 0 
L 581 3500 
L 1159 3500 
L 1159 2956 
Q 1341 3275 1631 3429 
Q 1922 3584 2338 3584 
Q 2397 3584 2469 3576 
Q 2541 3569 2628 3553 
L 2631 2963 
z
" transform="scale(0.015625)"/>
      <path id="DejaVuSans-3d" d="M 678 2906 
L 4684 2906 
L 4684 2381 
L 678 2381 
L 678 2906 
z
M 678 1631 
L 4684 1631 
L 4684 1100 
L 678 1100 
L 678 1631 
z
" transform="scale(0.015625)"/>
      <path id="DejaVuSans-36" d="M 2113 2584 
Q 1688 2584 1439 2293 
Q 1191 2003 1191 1497 
Q 1191 994 1439 701 
Q 1688 409 2113 409 
Q 2538 409 2786 701 
Q 3034 994 3034 1497 
Q 3034 2003 2786 2293 
Q 2538 2584 2113 2584 
z
M 3366 4563 
L 3366 3988 
Q 3128 4100 2886 4159 
Q 2644 4219 2406 4219 
Q 1781 4219 1451 3797 
Q 1122 3375 1075 2522 
Q 1259 2794 1537 2939 
Q 1816 3084 2150 3084 
Q 2853 3084 3261 2657 
Q 3669 2231 3669 1497 
Q 3669 778 3244 343 
Q 2819 -91 2113 -91 
Q 1303 -91 875 529 
Q 447 1150 447 2328 
Q 447 3434 972 4092 
Q 1497 4750 2381 4750 
Q 2619 4750 2861 4703 
Q 3103 4656 3366 4563 
z
" transform="scale(0.015625)"/>
      <path id="DejaVuSans-38" d="M 2034 2216 
Q 1584 2216 1326 1975 
Q 1069 1734 1069 1313 
Q 1069 891 1326 650 
Q 1584 409 2034 409 
Q 2484 409 2743 651 
Q 3003 894 3003 1313 
Q 3003 1734 2745 1975 
Q 2488 2216 2034 2216 
z
M 1403 2484 
Q 997 2584 770 2862 
Q 544 3141 544 3541 
Q 544 4100 942 4425 
Q 1341 4750 2034 4750 
Q 2731 4750 3128 4425 
Q 3525 4100 3525 3541 
Q 3525 3141 3298 2862 
Q 3072 2584 2669 2484 
Q 3125 2378 3379 2068 
Q 3634 1759 3634 1313 
Q 3634 634 3220 271 
Q 2806 -91 2034 -91 
Q 1263 -91 848 271 
Q 434 634 434 1313 
Q 434 1759 690 2068 
Q 947 2378 1403 2484 
z
M 1172 3481 
Q 1172 3119 1398 2916 
Q 1625 2713 2034 2713 
Q 2441 2713 2670 2916 
Q 2900 3119 2900 3481 
Q 2900 3844 2670 4047 
Q 2441 4250 2034 4250 
Q 1625 4250 1398 4047 
Q 1172 3844 1172 3481 
z
" transform="scale(0.015625)"/>
      <path id="DejaVuSans-2c" d="M 750 794 
L 1409 794 
L 1409 256 
L 897 -744 
L 494 -744 
L 750 256 
L 750 794 
z
" transform="scale(0.015625)"/>
      <path id="DejaVuSans-46" d="M 628 4666 
L 3309 4666 
L 3309 4134 
L 1259 4134 
L 1259 2759 
L 3109 2759 
L 3109 2228 
L 1259 2228 
L 1259 0 
L 628 0 
L 628 4666 
z
" transform="scale(0.015625)"/>
      <path id="DejaVuSans-34" d="M 2419 4116 
L 825 1625 
L 2419 1625 
L 2419 4116 
z
M 2253 4666 
L 3047 4666 
L 3047 1625 
L 3713 1625 
L 3713 1100 
L 3047 1100 
L 3047 0 
L 2419 0 
L 2419 1100 
L 313 1100 
L 313 1709 
L 2253 4666 
z
" transform="scale(0.015625)"/>
      <path id="DejaVuSans-4c" d="M 628 4666 
L 1259 4666 
L 1259 531 
L 3531 531 
L 3531 0 
L 628 0 
L 628 4666 
z
" transform="scale(0.015625)"/>
     </defs>
     <use xlink:href="#DejaVuSans-53"/>
     <use xlink:href="#DejaVuSans-6f" transform="translate(63.476562 0)"/>
     <use xlink:href="#DejaVuSans-43" transform="translate(124.658203 0)"/>
     <use xlink:href="#DejaVuSans-20" transform="translate(194.482422 0)"/>
     <use xlink:href="#DejaVuSans-62" transform="translate(226.269531 0)"/>
     <use xlink:href="#DejaVuSans-79" transform="translate(289.746094 0)"/>
     <use xlink:href="#DejaVuSans-20" transform="translate(348.925781 0)"/>
     <use xlink:href="#DejaVuSans-62" transform="translate(380.712891 0)"/>
     <use xlink:href="#DejaVuSans-61" transform="translate(444.189453 0)"/>
     <use xlink:href="#DejaVuSans-74" transform="translate(505.46875 0)"/>
     <use xlink:href="#DejaVuSans-74" transform="translate(544.677734 0)"/>
     <use xlink:href="#DejaVuSans-65" transform="translate(583.886719 0)"/>
     <use xlink:href="#DejaVuSans-72" transform="translate(645.410156 0)"/>
     <use xlink:href="#DejaVuSans-79" transform="translate(686.523438 0)"/>
     <use xlink:href="#DejaVuSans-20" transform="translate(745.703125 0)"/>
     <use xlink:href="#DejaVuSans-28" transform="translate(777.490234 0)"/>
     <use xlink:href="#DejaVuSans-54" transform="translate(816.503906 0)"/>
     <use xlink:href="#DejaVuSans-3d" transform="translate(877.587891 0)"/>
     <use xlink:href="#DejaVuSans-31" transform="translate(961.376953 0)"/>
     <use xlink:href="#DejaVuSans-36" transform="translate(1025 0)"/>
     <use xlink:href="#DejaVuSans-38" transform="translate(1088.623047 0)"/>
     <use xlink:href="#DejaVuSans-2c" transform="translate(1152.246094 0)"/>
     <use xlink:href="#DejaVuSans-20" transform="translate(1184.033203 0)"/>
     <use xlink:href="#DejaVuSans-46" transform="translate(1215.820312 0)"/>
     <use xlink:href="#DejaVuSans-3d" transform="translate(1273.339844 0)"/>
     <use xlink:href="#DejaVuSans-32" transform="translate(1357.128906 0)"/>
     <use xlink:href="#DejaVuSans-34" transform="translate(1420.751953 0)"/>
     <use xlink:href="#DejaVuSans-2c" transform="translate(1484.375 0)"/>
     <use xlink:href="#DejaVuSans-20" transform="translate(1516.162109 0)"/>
     <use xlink:href="#DejaVuSans-4c" transform="translate(1547.949219 0)"/>
     <use xlink:href="#DejaVuSans-3d" transform="translate(1603.662109 0)"/>
     <use xlink:href="#DejaVuSans-38" transform="translate(1687.451172 0)"/>
     <use xlink:href="#DejaVuSans-29" transform="translate(1751.074219 0)"/>
    </g>
   </g>
  </g>
 </g>
 <defs>
  <clipPath id="p06cedd182f">
   <rect x="51.05" y="25.44" width="652.665708" height="364.6"/>
  </clipPath>
 </defs>
</svg>
