<?xml version="1.0" encoding="utf-8" standalone="no"?>
<!DOCTYPE svg PUBLIC "-//W3C//DTD SVG 1.1//EN"
  "http://www.w3.org/Graphics/SVG/1.1/DTD/svg11.dtd">
<svg xmlns:xlink="http://www.w3.org/1999/xlink" width="720pt" height="432pt" viewBox="0 0 720 432" xmlns="http://www.w3.org/2000/svg" version="1.1">
 <metadata>
  <rdf:RDF xmlns:dc="http://purl.org/dc/elements/1.1/" xmlns:cc="http://creativecommons.org/ns#" xmlns:rdf="http://www.w3.org/1999/02/22-rdf-syntax-ns#">
   <cc:Work>
    <dc:type rdf:resource="http://purl.org/dc/dcmitype/StillImage"/>
    <dc:date>2025-11-11T01:22:50.176309</dc:date>
    <dc:format>image/svg+xml</dc:format>
    <dc:creator>
     <cc:Agent>
      <dc:title>Matplotlib v3.10.0, https://matplotlib.org/</dc:title>
     </cc:Agent>
    </dc:creator>
   </cc:Work>
  </rdf:RDF>
 </metadata>
 <defs>
  <style type="text/css">*{stroke-linejoin: round; stroke-linecap: butt}</style>
 </defs>
 <g id="figure_1">
  <g id="patch_1">
   <path d="M 0 432 
L 720 432 
L 720 0 
L 0 0 
z
" style="fill: #ffffff"/>
  </g>
  <g id="axes_1">
   <g id="patch_2">
    <path d="M 51.05 390.04 
L 703.779179 390.04 
L 703.779179 25.44 
L 51.05 25.44 
z
" style="fill: #ffffff"/>
   </g>
   <g id="matplotlib.axis_1">
    <g id="xtick_1">
     <g id="line2d_1">
      <defs>
       <path id="m3fd52ee5a6" d="M 0 0 
L 0 3.5 
" style="stroke: #000000; stroke-width: 0.8"/>
      </defs>
      <g>
       <use xlink:href="#m3fd52ee5a6" x="78.948194" y="390.04" style="stroke: #000000; stroke-width: 0.8"/>
      </g>
     </g>
     <g id="text_1">
      <!-- 0 -->
      <g transform="translate(75.766944 404.638438) scale(0.1 -0.1)">
       <defs>
        <path id="DejaVuSans-30" d="M 2034 4250 
Q 1547 4250 1301 3770 
Q 1056 3291 1056 2328 
Q 1056 1369 1301 889 
Q 1547 409 2034 409 
Q 2525 409 2770 889 
Q 3016 1369 3016 2328 
Q 3016 3291 2770 3770 
Q 2525 4250 2034 4250 
z
M 2034 4750 
Q 2819 4750 3233 4129 
Q 3647 3509 3647 2328 
Q 3647 1150 3233 529 
Q 2819 -91 2034 -91 
Q 1250 -91 836 529 
Q 422 1150 422 2328 
Q 422 3509 836 4129 
Q 1250 4750 2034 4750 
z
" transform="scale(0.015625)"/>
       </defs>
       <use xlink:href="#DejaVuSans-30"/>
      </g>
     </g>
    </g>
    <g id="xtick_2">
     <g id="line2d_2">
      <g>
       <use xlink:href="#m3fd52ee5a6" x="167.51389" y="390.04" style="stroke: #000000; stroke-width: 0.8"/>
      </g>
     </g>
     <g id="text_2">
      <!-- 50 -->
      <g transform="translate(161.15139 404.638438) scale(0.1 -0.1)">
       <defs>
        <path id="DejaVuSans-35" d="M 691 4666 
L 3169 4666 
L 3169 4134 
L 1269 4134 
L 1269 2991 
Q 1406 3038 1543 3061 
Q 1681 3084 1819 3084 
Q 2600 3084 3056 2656 
Q 3513 2228 3513 1497 
Q 3513 744 3044 326 
Q 2575 -91 1722 -91 
Q 1428 -91 1123 -41 
Q 819 9 494 109 
L 494 744 
Q 775 591 1075 516 
Q 1375 441 1709 441 
Q 2250 441 2565 725 
Q 2881 1009 2881 1497 
Q 2881 1984 2565 2268 
Q 2250 2553 1709 2553 
Q 1456 2553 1204 2497 
Q 953 2441 691 2322 
L 691 4666 
z
" transform="scale(0.015625)"/>
       </defs>
       <use xlink:href="#DejaVuSans-35"/>
       <use xlink:href="#DejaVuSans-30" transform="translate(63.623047 0)"/>
      </g>
     </g>
    </g>
    <g id="xtick_3">
     <g id="line2d_3">
      <g>
       <use xlink:href="#m3fd52ee5a6" x="256.079586" y="390.04" style="stroke: #000000; stroke-width: 0.8"/>
      </g>
     </g>
     <g id="text_3">
      <!-- 100 -->
      <g transform="translate(246.535836 404.638438) scale(0.1 -0.1)">
       <defs>
        <path id="DejaVuSans-31" d="M 794 531 
L 1825 531 
L 1825 4091 
L 703 3866 
L 703 4441 
L 1819 4666 
L 2450 4666 
L 2450 531 
L 3481 531 
L 3481 0 
L 794 0 
L 794 531 
z
" transform="scale(0.015625)"/>
       </defs>
       <use xlink:href="#DejaVuSans-31"/>
       <use xlink:href="#DejaVuSans-30" transform="translate(63.623047 0)"/>
       <use xlink:href="#DejaVuSans-30" transform="translate(127.246094 0)"/>
      </g>
     </g>
    </g>
    <g id="xtick_4">
     <g id="line2d_4">
      <g>
       <use xlink:href="#m3fd52ee5a6" x="344.645282" y="390.04" style="stroke: #000000; stroke-width: 0.8"/>
      </g>
     </g>
     <g id="text_4">
      <!-- 150 -->
      <g transform="translate(335.101532 404.638438) scale(0.1 -0.1)">
       <use xlink:href="#DejaVuSans-31"/>
       <use xlink:href="#DejaVuSans-35" transform="translate(63.623047 0)"/>
       <use xlink:href="#DejaVuSans-30" transform="translate(127.246094 0)"/>
      </g>
     </g>
    </g>
    <g id="xtick_5">
     <g id="line2d_5">
      <g>
       <use xlink:href="#m3fd52ee5a6" x="433.210978" y="390.04" style="stroke: #000000; stroke-width: 0.8"/>
      </g>
     </g>
     <g id="text_5">
      <!-- 200 -->
      <g transform="translate(423.667228 404.638438) scale(0.1 -0.1)">
       <defs>
        <path id="DejaVuSans-32" d="M 1228 531 
L 3431 531 
L 3431 0 
L 469 0 
L 469 531 
Q 828 903 1448 1529 
Q 2069 2156 2228 2338 
Q 2531 2678 2651 2914 
Q 2772 3150 2772 3378 
Q 2772 3750 2511 3984 
Q 2250 4219 1831 4219 
Q 1534 4219 1204 4116 
Q 875 4013 500 3803 
L 500 4441 
Q 881 4594 1212 4672 
Q 1544 4750 1819 4750 
Q 2544 4750 2975 4387 
Q 3406 4025 3406 3419 
Q 3406 3131 3298 2873 
Q 3191 2616 2906 2266 
Q 2828 2175 2409 1742 
Q 1991 1309 1228 531 
z
" transform="scale(0.015625)"/>
       </defs>
       <use xlink:href="#DejaVuSans-32"/>
       <use xlink:href="#DejaVuSans-30" transform="translate(63.623047 0)"/>
       <use xlink:href="#DejaVuSans-30" transform="translate(127.246094 0)"/>
      </g>
     </g>
    </g>
    <g id="xtick_6">
     <g id="line2d_6">
      <g>
       <use xlink:href="#m3fd52ee5a6" x="521.776674" y="390.04" style="stroke: #000000; stroke-width: 0.8"/>
      </g>
     </g>
     <g id="text_6">
      <!-- 250 -->
      <g transform="translate(512.232924 404.638438) scale(0.1 -0.1)">
       <use xlink:href="#DejaVuSans-32"/>
       <use xlink:href="#DejaVuSans-35" transform="translate(63.623047 0)"/>
       <use xlink:href="#DejaVuSans-30" transform="translate(127.246094 0)"/>
      </g>
     </g>
    </g>
    <g id="xtick_7">
     <g id="line2d_7">
      <g>
       <use xlink:href="#m3fd52ee5a6" x="610.34237" y="390.04" style="stroke: #000000; stroke-width: 0.8"/>
      </g>
     </g>
     <g id="text_7">
      <!-- 300 -->
      <g transform="translate(600.79862 404.638438) scale(0.1 -0.1)">
       <defs>
        <path id="DejaVuSans-33" d="M 2597 2516 
Q 3050 2419 3304 2112 
Q 3559 1806 3559 1356 
Q 3559 666 3084 287 
Q 2609 -91 1734 -91 
Q 1441 -91 1130 -33 
Q 819 25 488 141 
L 488 750 
Q 750 597 1062 519 
Q 1375 441 1716 441 
Q 2309 441 2620 675 
Q 2931 909 2931 1356 
Q 2931 1769 2642 2001 
Q 2353 2234 1838 2234 
L 1294 2234 
L 1294 2753 
L 1863 2753 
Q 2328 2753 2575 2939 
Q 2822 3125 2822 3475 
Q 2822 3834 2567 4026 
Q 2313 4219 1838 4219 
Q 1578 4219 1281 4162 
Q 984 4106 628 3988 
L 628 4550 
Q 988 4650 1302 4700 
Q 1616 4750 1894 4750 
Q 2613 4750 3031 4423 
Q 3450 4097 3450 3541 
Q 3450 3153 3228 2886 
Q 3006 2619 2597 2516 
z
" transform="scale(0.015625)"/>
       </defs>
       <use xlink:href="#DejaVuSans-33"/>
       <use xlink:href="#DejaVuSans-30" transform="translate(63.623047 0)"/>
       <use xlink:href="#DejaVuSans-30" transform="translate(127.246094 0)"/>
      </g>
     </g>
    </g>
    <g id="xtick_8">
     <g id="line2d_8">
      <g>
       <use xlink:href="#m3fd52ee5a6" x="698.908066" y="390.04" style="stroke: #000000; stroke-width: 0.8"/>
      </g>
     </g>
     <g id="text_8">
      <!-- 350 -->
      <g transform="translate(689.364316 404.638438) scale(0.1 -0.1)">
       <use xlink:href="#DejaVuSans-33"/>
       <use xlink:href="#DejaVuSans-35" transform="translate(63.623047 0)"/>
       <use xlink:href="#DejaVuSans-30" transform="translate(127.246094 0)"/>
      </g>
     </g>
    </g>
    <g id="text_9">
     <!-- Time (t) -->
     <g transform="translate(357.730215 418.316562) scale(0.1 -0.1)">
      <defs>
       <path id="DejaVuSans-54" d="M -19 4666 
L 3928 4666 
L 3928 4134 
L 2272 4134 
L 2272 0 
L 1638 0 
L 1638 4134 
L -19 4134 
L -19 4666 
z
" transform="scale(0.015625)"/>
       <path id="DejaVuSans-69" d="M 603 3500 
L 1178 3500 
L 1178 0 
L 603 0 
L 603 3500 
z
M 603 4863 
L 1178 4863 
L 1178 4134 
L 603 4134 
L 603 4863 
z
" transform="scale(0.015625)"/>
       <path id="DejaVuSans-6d" d="M 3328 2828 
Q 3544 3216 3844 3400 
Q 4144 3584 4550 3584 
Q 5097 3584 5394 3201 
Q 5691 2819 5691 2113 
L 5691 0 
L 5113 0 
L 5113 2094 
Q 5113 2597 4934 2840 
Q 4756 3084 4391 3084 
Q 3944 3084 3684 2787 
Q 3425 2491 3425 1978 
L 3425 0 
L 2847 0 
L 2847 2094 
Q 2847 2600 2669 2842 
Q 2491 3084 2119 3084 
Q 1678 3084 1418 2786 
Q 1159 2488 1159 1978 
L 1159 0 
L 581 0 
L 581 3500 
L 1159 3500 
L 1159 2956 
Q 1356 3278 1631 3431 
Q 1906 3584 2284 3584 
Q 2666 3584 2933 3390 
Q 3200 3197 3328 2828 
z
" transform="scale(0.015625)"/>
       <path id="DejaVuSans-65" d="M 3597 1894 
L 3597 1613 
L 953 1613 
Q 991 1019 1311 708 
Q 1631 397 2203 397 
Q 2534 397 2845 478 
Q 3156 559 3463 722 
L 3463 178 
Q 3153 47 2828 -22 
Q 2503 -91 2169 -91 
Q 1331 -91 842 396 
Q 353 884 353 1716 
Q 353 2575 817 3079 
Q 1281 3584 2069 3584 
Q 2775 3584 3186 3129 
Q 3597 2675 3597 1894 
z
M 3022 2063 
Q 3016 2534 2758 2815 
Q 2500 3097 2075 3097 
Q 1594 3097 1305 2825 
Q 1016 2553 972 2059 
L 3022 2063 
z
" transform="scale(0.015625)"/>
       <path id="DejaVuSans-20" transform="scale(0.015625)"/>
       <path id="DejaVuSans-28" d="M 1984 4856 
Q 1566 4138 1362 3434 
Q 1159 2731 1159 2009 
Q 1159 1288 1364 580 
Q 1569 -128 1984 -844 
L 1484 -844 
Q 1016 -109 783 600 
Q 550 1309 550 2009 
Q 550 2706 781 3412 
Q 1013 4119 1484 4856 
L 1984 4856 
z
" transform="scale(0.015625)"/>
       <path id="DejaVuSans-74" d="M 1172 4494 
L 1172 3500 
L 2356 3500 
L 2356 3053 
L 1172 3053 
L 1172 1153 
Q 1172 725 1289 603 
Q 1406 481 1766 481 
L 2356 481 
L 2356 0 
L 1766 0 
Q 1100 0 847 248 
Q 594 497 594 1153 
L 594 3053 
L 172 3053 
L 172 3500 
L 594 3500 
L 594 4494 
L 1172 4494 
z
" transform="scale(0.015625)"/>
       <path id="DejaVuSans-29" d="M 513 4856 
L 1013 4856 
Q 1481 4119 1714 3412 
Q 1947 2706 1947 2009 
Q 1947 1309 1714 600 
Q 1481 -109 1013 -844 
L 513 -844 
Q 928 -128 1133 580 
Q 1338 1288 1338 2009 
Q 1338 2731 1133 3434 
Q 928 4138 513 4856 
z
" transform="scale(0.015625)"/>
      </defs>
      <use xlink:href="#DejaVuSans-54"/>
      <use xlink:href="#DejaVuSans-69" transform="translate(57.958984 0)"/>
      <use xlink:href="#DejaVuSans-6d" transform="translate(85.742188 0)"/>
      <use xlink:href="#DejaVuSans-65" transform="translate(183.154297 0)"/>
      <use xlink:href="#DejaVuSans-20" transform="translate(244.677734 0)"/>
      <use xlink:href="#DejaVuSans-28" transform="translate(276.464844 0)"/>
      <use xlink:href="#DejaVuSans-74" transform="translate(315.478516 0)"/>
      <use xlink:href="#DejaVuSans-29" transform="translate(354.6875 0)"/>
     </g>
    </g>
   </g>
   <g id="matplotlib.axis_2">
    <g id="ytick_1">
     <g id="line2d_9">
      <defs>
       <path id="m910474b905" d="M 0 0 
L -3.5 0 
" style="stroke: #000000; stroke-width: 0.8"/>
      </defs>
      <g>
       <use xlink:href="#m910474b905" x="51.05" y="373.467273" style="stroke: #000000; stroke-width: 0.8"/>
      </g>
     </g>
     <g id="text_10">
      <!-- 0 -->
      <g transform="translate(37.6875 377.266491) scale(0.1 -0.1)">
       <use xlink:href="#DejaVuSans-30"/>
      </g>
     </g>
    </g>
    <g id="ytick_2">
     <g id="line2d_10">
      <g>
       <use xlink:href="#m910474b905" x="51.05" y="322.830849" style="stroke: #000000; stroke-width: 0.8"/>
      </g>
     </g>
     <g id="text_11">
      <!-- 50 -->
      <g transform="translate(31.325 326.630067) scale(0.1 -0.1)">
       <use xlink:href="#DejaVuSans-35"/>
       <use xlink:href="#DejaVuSans-30" transform="translate(63.623047 0)"/>
      </g>
     </g>
    </g>
    <g id="ytick_3">
     <g id="line2d_11">
      <g>
       <use xlink:href="#m910474b905" x="51.05" y="272.194425" style="stroke: #000000; stroke-width: 0.8"/>
      </g>
     </g>
     <g id="text_12">
      <!-- 100 -->
      <g transform="translate(24.9625 275.993643) scale(0.1 -0.1)">
       <use xlink:href="#DejaVuSans-31"/>
       <use xlink:href="#DejaVuSans-30" transform="translate(63.623047 0)"/>
       <use xlink:href="#DejaVuSans-30" transform="translate(127.246094 0)"/>
      </g>
     </g>
    </g>
    <g id="ytick_4">
     <g id="line2d_12">
      <g>
       <use xlink:href="#m910474b905" x="51.05" y="221.558001" style="stroke: #000000; stroke-width: 0.8"/>
      </g>
     </g>
     <g id="text_13">
      <!-- 150 -->
      <g transform="translate(24.9625 225.357219) scale(0.1 -0.1)">
       <use xlink:href="#DejaVuSans-31"/>
       <use xlink:href="#DejaVuSans-35" transform="translate(63.623047 0)"/>
       <use xlink:href="#DejaVuSans-30" transform="translate(127.246094 0)"/>
      </g>
     </g>
    </g>
    <g id="ytick_5">
     <g id="line2d_13">
      <g>
       <use xlink:href="#m910474b905" x="51.05" y="170.921576" style="stroke: #000000; stroke-width: 0.8"/>
      </g>
     </g>
     <g id="text_14">
      <!-- 200 -->
      <g transform="translate(24.9625 174.720795) scale(0.1 -0.1)">
       <use xlink:href="#DejaVuSans-32"/>
       <use xlink:href="#DejaVuSans-30" transform="translate(63.623047 0)"/>
       <use xlink:href="#DejaVuSans-30" transform="translate(127.246094 0)"/>
      </g>
     </g>
    </g>
    <g id="ytick_6">
     <g id="line2d_14">
      <g>
       <use xlink:href="#m910474b905" x="51.05" y="120.285152" style="stroke: #000000; stroke-width: 0.8"/>
      </g>
     </g>
     <g id="text_15">
      <!-- 250 -->
      <g transform="translate(24.9625 124.084371) scale(0.1 -0.1)">
       <use xlink:href="#DejaVuSans-32"/>
       <use xlink:href="#DejaVuSans-35" transform="translate(63.623047 0)"/>
       <use xlink:href="#DejaVuSans-30" transform="translate(127.246094 0)"/>
      </g>
     </g>
    </g>
    <g id="ytick_7">
     <g id="line2d_15">
      <g>
       <use xlink:href="#m910474b905" x="51.05" y="69.648728" style="stroke: #000000; stroke-width: 0.8"/>
      </g>
     </g>
     <g id="text_16">
      <!-- 300 -->
      <g transform="translate(24.9625 73.447947) scale(0.1 -0.1)">
       <use xlink:href="#DejaVuSans-33"/>
       <use xlink:href="#DejaVuSans-30" transform="translate(63.623047 0)"/>
       <use xlink:href="#DejaVuSans-30" transform="translate(127.246094 0)"/>
      </g>
     </g>
    </g>
    <g id="text_17">
     <!-- SoC -->
     <g transform="translate(18.882812 217.465) rotate(-90) scale(0.1 -0.1)">
      <defs>
       <path id="DejaVuSans-53" d="M 3425 4513 
L 3425 3897 
Q 3066 4069 2747 4153 
Q 2428 4238 2131 4238 
Q 1616 4238 1336 4038 
Q 1056 3838 1056 3469 
Q 1056 3159 1242 3001 
Q 1428 2844 1947 2747 
L 2328 2669 
Q 3034 2534 3370 2195 
Q 3706 1856 3706 1288 
Q 3706 609 3251 259 
Q 2797 -91 1919 -91 
Q 1588 -91 1214 -16 
Q 841 59 441 206 
L 441 856 
Q 825 641 1194 531 
Q 1563 422 1919 422 
Q 2459 422 2753 634 
Q 3047 847 3047 1241 
Q 3047 1584 2836 1778 
Q 2625 1972 2144 2069 
L 1759 2144 
Q 1053 2284 737 2584 
Q 422 2884 422 3419 
Q 422 4038 858 4394 
Q 1294 4750 2059 4750 
Q 2388 4750 2728 4690 
Q 3069 4631 3425 4513 
z
" transform="scale(0.015625)"/>
       <path id="DejaVuSans-6f" d="M 1959 3097 
Q 1497 3097 1228 2736 
Q 959 2375 959 1747 
Q 959 1119 1226 758 
Q 1494 397 1959 397 
Q 2419 397 2687 759 
Q 2956 1122 2956 1747 
Q 2956 2369 2687 2733 
Q 2419 3097 1959 3097 
z
M 1959 3584 
Q 2709 3584 3137 3096 
Q 3566 2609 3566 1747 
Q 3566 888 3137 398 
Q 2709 -91 1959 -91 
Q 1206 -91 779 398 
Q 353 888 353 1747 
Q 353 2609 779 3096 
Q 1206 3584 1959 3584 
z
" transform="scale(0.015625)"/>
       <path id="DejaVuSans-43" d="M 4122 4306 
L 4122 3641 
Q 3803 3938 3442 4084 
Q 3081 4231 2675 4231 
Q 1875 4231 1450 3742 
Q 1025 3253 1025 2328 
Q 1025 1406 1450 917 
Q 1875 428 2675 428 
Q 3081 428 3442 575 
Q 3803 722 4122 1019 
L 4122 359 
Q 3791 134 3420 21 
Q 3050 -91 2638 -91 
Q 1578 -91 968 557 
Q 359 1206 359 2328 
Q 359 3453 968 4101 
Q 1578 4750 2638 4750 
Q 3056 4750 3426 4639 
Q 3797 4528 4122 4306 
z
" transform="scale(0.015625)"/>
      </defs>
      <use xlink:href="#DejaVuSans-53"/>
      <use xlink:href="#DejaVuSans-6f" transform="translate(63.476562 0)"/>
      <use xlink:href="#DejaVuSans-43" transform="translate(124.658203 0)"/>
     </g>
    </g>
   </g>
   <g id="line2d_16">
    <path d="M 80.719508 221.914595 
L 674.109671 221.914595 
L 674.109671 221.914595 
" clip-path="url(#p01f4f029b8)" style="fill: none; stroke: #1f77b4; stroke-width: 1.8; stroke-linecap: square"/>
   </g>
   <g id="line2d_17">
    <path d="M 80.719508 221.914595 
L 674.109671 221.914595 
L 674.109671 221.914595 
" clip-path="url(#p01f4f029b8)" style="fill: none; stroke: #ff7f0e; stroke-width: 1.8; stroke-linecap: square"/>
   </g>
   <g id="line2d_18">
    <path d="M 80.719508 221.914595 
L 674.109671 221.914595 
L 674.109671 221.914595 
" clip-path="url(#p01f4f029b8)" style="fill: none; stroke: #2ca02c; stroke-width: 1.8; stroke-linecap: square"/>
   </g>
   <g id="line2d_19">
    <path d="M 80.719508 221.914595 
L 674.109671 221.914595 
L 674.109671 221.914595 
" clip-path="url(#p01f4f029b8)" style="fill: none; stroke: #d62728; stroke-width: 1.8; stroke-linecap: square"/>
   </g>
   <g id="line2d_20">
    <path d="M 80.719508 221.914595 
L 82.490822 225.073006 
L 86.03345 225.073006 
L 87.804764 249.074981 
L 91.347392 249.074981 
L 93.118706 284.564499 
L 94.890019 299.752808 
L 96.661333 323.188662 
L 98.432647 323.188662 
L 100.203961 303.752795 
L 101.975275 275.91379 
L 103.746589 231.339546 
L 105.517903 206.579011 
L 107.289217 165.783974 
L 117.9171 165.783974 
L 119.688414 221.914595 
L 128.544984 221.914595 
L 130.316298 228.626681 
L 135.63024 228.626681 
L 137.401554 257.83218 
L 140.944181 257.83218 
L 142.715495 221.192074 
L 144.486809 221.192074 
L 146.258123 180.902042 
L 149.800751 180.902042 
L 151.572065 161.783307 
L 156.886007 161.783307 
L 158.657321 201.242636 
L 160.428634 221.914595 
L 179.913088 221.914595 
L 181.684402 215.127737 
L 183.455715 182.647566 
L 185.227029 145.268086 
L 186.998343 110.240555 
L 190.540971 110.240555 
L 192.312285 74.051134 
L 195.854913 74.051134 
L 197.626227 87.346074 
L 199.397541 87.346074 
L 201.168855 116.858268 
L 202.940169 165.783974 
L 204.711482 165.783974 
L 206.482796 221.914595 
L 208.25411 231.375773 
L 210.025424 237.647684 
L 211.796738 237.647684 
L 213.568052 243.944487 
L 217.11068 243.944487 
L 218.881994 272.090484 
L 222.424622 272.090484 
L 224.195936 279.719663 
L 225.967249 237.284757 
L 227.738563 229.601291 
L 229.509877 229.601291 
L 231.281191 203.589798 
L 233.052505 174.439352 
L 234.823819 174.439352 
L 236.595133 133.448498 
L 241.909075 133.448498 
L 243.680389 175.505773 
L 245.451703 221.914595 
L 248.99433 221.914595 
L 250.765644 228.086613 
L 252.536958 234.728306 
L 254.308272 234.728306 
L 256.079586 270.160806 
L 257.8509 270.160806 
L 259.622214 300.537121 
L 261.393528 340.123445 
L 268.478784 340.123445 
L 270.250097 303.935414 
L 272.021411 258.469611 
L 273.792725 233.344268 
L 277.335353 233.344268 
L 279.106667 221.914595 
L 295.048492 221.914595 
L 296.819806 270.848084 
L 300.362434 322.992918 
L 309.219004 322.992918 
L 310.990318 304.784728 
L 314.532945 304.784728 
L 316.304259 266.525119 
L 318.075573 266.525119 
L 319.846887 256.560373 
L 321.618201 221.914595 
L 335.788712 221.914595 
L 337.560026 272.847533 
L 346.416596 272.847533 
L 348.18791 322.224703 
L 357.044479 322.224703 
L 358.815793 281.72556 
L 360.587107 276.802533 
L 362.358421 241.774343 
L 364.129735 218.201599 
L 374.757619 218.201599 
L 376.528933 221.914595 
L 383.614188 221.914595 
L 385.385502 269.899109 
L 394.242072 269.899109 
L 396.013386 263.032612 
L 397.7847 229.227822 
L 399.556014 192.341477 
L 401.327327 149.263631 
L 403.098641 149.263631 
L 404.869955 134.489523 
L 406.641269 99.763991 
L 411.955211 99.763991 
L 413.726525 142.489648 
L 415.497839 168.564723 
L 417.269153 168.564723 
L 419.040467 221.914595 
L 420.811781 239.72936 
L 426.125722 239.72936 
L 429.66835 337.839757 
L 431.439664 373.467273 
L 436.753606 373.467273 
L 438.52492 337.931316 
L 440.296234 337.931316 
L 442.067548 332.360043 
L 443.838862 296.28162 
L 445.610175 265.185156 
L 447.381489 252.395504 
L 449.152803 220.100227 
L 458.009373 220.100227 
L 459.780687 221.914595 
L 472.179884 221.914595 
L 473.951198 228.061247 
L 481.036454 228.061247 
L 482.807768 211.408101 
L 484.579082 211.408101 
L 486.350396 204.606202 
L 488.121709 201.17885 
L 500.520907 201.17885 
L 502.292221 221.914595 
L 514.691418 221.914595 
L 516.462732 239.395359 
L 521.776674 239.395359 
L 525.319302 189.407636 
L 527.090616 189.407636 
L 528.86193 179.585045 
L 530.633244 146.598814 
L 532.404557 146.598814 
L 534.175871 113.415986 
L 543.032441 113.415986 
L 544.803755 165.783974 
L 546.575069 221.914595 
L 548.346383 255.976148 
L 553.660324 255.976148 
L 555.431638 261.258369 
L 557.202952 293.6071 
L 558.974266 300.843387 
L 560.74558 303.77307 
L 567.830836 303.77307 
L 569.60215 267.020208 
L 571.373464 267.020208 
L 573.144778 227.7113 
L 576.687405 184.053147 
L 578.458719 154.596375 
L 582.001347 154.596375 
L 583.772661 177.715987 
L 585.543975 191.331373 
L 587.315289 191.331373 
L 589.086603 221.914595 
L 590.857917 230.415566 
L 592.629231 253.740347 
L 594.400545 253.740347 
L 596.171859 259.975535 
L 605.028428 259.975535 
L 606.799742 256.970583 
L 608.571056 250.454174 
L 610.34237 221.914595 
L 612.113684 195.528456 
L 613.884998 173.336579 
L 615.656312 137.702419 
L 617.427626 137.702419 
L 619.198939 118.005856 
L 620.970253 106.104023 
L 628.055509 106.104023 
L 629.826823 150.358325 
L 631.598137 169.983082 
L 635.140765 169.983082 
L 636.912079 181.010761 
L 638.683393 181.010761 
L 640.454707 202.326386 
L 643.997334 202.326386 
L 645.768648 247.657471 
L 647.539962 275.690181 
L 649.311276 260.993669 
L 652.853904 188.277392 
L 654.625218 188.277392 
L 656.396532 148.279928 
L 658.167846 132.552035 
L 659.93916 99.971272 
L 661.710474 70.361917 
L 665.253101 70.361917 
L 667.024415 85.969777 
L 668.795729 131.650563 
L 670.567043 171.129027 
L 672.338357 221.914595 
L 674.109671 221.914595 
L 674.109671 221.914595 
" clip-path="url(#p01f4f029b8)" style="fill: none; stroke: #9467bd; stroke-width: 1.8; stroke-linecap: square"/>
   </g>
   <g id="line2d_21">
    <path d="M 80.719508 221.914595 
L 674.109671 221.914595 
L 674.109671 221.914595 
" clip-path="url(#p01f4f029b8)" style="fill: none; stroke: #8c564b; stroke-width: 1.8; stroke-linecap: square"/>
   </g>
   <g id="line2d_22">
    <path d="M 80.719508 70.361917 
L 674.109671 70.361917 
L 674.109671 70.361917 
" clip-path="url(#p01f4f029b8)" style="fill: none; stroke: #e377c2; stroke-width: 1.8; stroke-linecap: square"/>
   </g>
   <g id="line2d_23">
    <path d="M 80.719508 70.361917 
L 248.99433 70.361917 
L 250.765644 62.386315 
L 252.536958 55.659709 
L 254.308272 49.982762 
L 256.079586 45.753386 
L 257.8509 42.956584 
L 259.622214 42.012727 
L 280.877981 42.012727 
L 282.649295 51.355622 
L 286.191923 51.355622 
L 287.963237 60.331027 
L 289.734551 70.361917 
L 291.505864 70.361917 
L 293.277178 69.493536 
L 295.048492 63.679983 
L 296.819806 60.322961 
L 309.219004 60.322961 
L 310.990318 61.927142 
L 325.160829 61.927142 
L 326.932143 70.361917 
L 551.889011 70.361917 
L 553.660324 75.22053 
L 555.431638 75.22053 
L 557.202952 83.191911 
L 558.974266 83.191911 
L 560.74558 91.925376 
L 562.516894 98.516531 
L 564.288208 98.516531 
L 567.830836 121.813929 
L 569.60215 121.813929 
L 571.373464 122.893773 
L 573.144778 122.893773 
L 574.916092 129.133387 
L 578.458719 129.133387 
L 580.230033 126.976024 
L 583.772661 100.812347 
L 585.543975 85.942761 
L 587.315289 85.942761 
L 589.086603 70.361917 
L 674.109671 70.361917 
L 674.109671 70.361917 
" clip-path="url(#p01f4f029b8)" style="fill: none; stroke: #7f7f7f; stroke-width: 1.8; stroke-linecap: square"/>
   </g>
   <g id="line2d_24">
    <path d="M 80.719508 70.361917 
L 674.109671 70.361917 
L 674.109671 70.361917 
" clip-path="url(#p01f4f029b8)" style="fill: none; stroke: #bcbd22; stroke-width: 1.8; stroke-linecap: square"/>
   </g>
   <g id="line2d_25">
    <path d="M 80.719508 288.597773 
L 674.109671 288.597773 
L 674.109671 288.597773 
" clip-path="url(#p01f4f029b8)" style="fill: none; stroke: #17becf; stroke-width: 1.8; stroke-linecap: square"/>
   </g>
   <g id="line2d_26">
    <path d="M 80.719508 288.597773 
L 674.109671 288.597773 
L 674.109671 288.597773 
" clip-path="url(#p01f4f029b8)" style="fill: none; stroke: #1f77b4; stroke-width: 1.8; stroke-linecap: square"/>
   </g>
   <g id="line2d_27">
    <path d="M 80.719508 288.597773 
L 674.109671 288.597773 
L 674.109671 288.597773 
" clip-path="url(#p01f4f029b8)" style="fill: none; stroke: #ff7f0e; stroke-width: 1.8; stroke-linecap: square"/>
   </g>
   <g id="line2d_28">
    <path d="M 80.719508 288.597773 
L 82.490822 288.597773 
L 84.262136 322.588044 
L 86.03345 326.317551 
L 93.118706 326.317551 
L 94.890019 373.467273 
L 96.661333 373.467273 
L 98.432647 341.358723 
L 107.289217 341.358723 
L 109.060531 307.550495 
L 110.831845 276.283293 
L 117.9171 276.283293 
L 119.688414 288.597773 
L 121.459728 288.597773 
L 123.231042 290.771448 
L 126.77367 290.771448 
L 128.544984 296.513362 
L 133.858926 296.513362 
L 135.63024 336.922762 
L 139.172867 336.922762 
L 140.944181 300.493554 
L 142.715495 300.493554 
L 144.486809 262.720704 
L 146.258123 262.720704 
L 148.029437 246.685502 
L 149.800751 210.49606 
L 151.572065 205.950399 
L 155.114693 205.950399 
L 156.886007 244.606357 
L 160.428634 244.606357 
L 162.199948 288.597773 
L 186.998343 288.597773 
L 188.769657 266.84672 
L 190.540971 246.891804 
L 194.083599 246.891804 
L 195.854913 212.565946 
L 197.626227 212.565946 
L 199.397541 251.691143 
L 201.168855 255.858577 
L 204.711482 255.858577 
L 206.482796 288.597773 
L 210.025424 288.597773 
L 211.796738 294.82994 
L 225.967249 294.82994 
L 227.738563 256.734145 
L 229.509877 230.6686 
L 233.052505 230.6686 
L 234.823819 203.775702 
L 238.366447 203.775702 
L 240.137761 246.15443 
L 241.909075 283.240519 
L 245.451703 283.240519 
L 247.223017 288.597773 
L 248.99433 288.597773 
L 250.765644 303.890182 
L 252.536958 303.890182 
L 254.308272 330.660154 
L 256.079586 330.660154 
L 257.8509 345.304937 
L 261.393528 345.304937 
L 263.164842 355.464319 
L 264.936156 355.464319 
L 268.478784 312.536324 
L 273.792725 312.536324 
L 275.564039 275.676186 
L 277.335353 241.448051 
L 289.734551 241.448051 
L 291.505864 288.597773 
L 300.362434 288.597773 
L 302.133748 314.540884 
L 303.905062 354.866308 
L 307.44769 354.866308 
L 309.219004 327.060463 
L 310.990318 327.060463 
L 314.532945 284.731886 
L 316.304259 284.731886 
L 318.075573 266.735077 
L 319.846887 258.743259 
L 330.474771 258.743259 
L 332.246085 261.579962 
L 334.017399 288.597773 
L 335.788712 335.747495 
L 342.873968 335.747495 
L 344.645282 344.676451 
L 349.959224 344.676451 
L 351.730538 328.952011 
L 353.501852 314.59461 
L 355.273166 280.302335 
L 357.044479 242.45819 
L 358.815793 242.45819 
L 360.587107 211.31534 
L 371.214991 211.31534 
L 372.986305 219.70788 
L 374.757619 241.448051 
L 376.528933 288.597773 
L 385.385502 288.597773 
L 387.156816 335.747495 
L 394.242072 335.747495 
L 396.013386 307.212382 
L 401.327327 307.212382 
L 403.098641 269.021107 
L 406.641269 269.021107 
L 408.412583 261.266641 
L 415.497839 261.266641 
L 417.269153 288.597773 
L 419.040467 288.597773 
L 420.811781 320.776061 
L 422.583094 320.776061 
L 424.354408 367.925783 
L 426.125722 373.467273 
L 434.982292 373.467273 
L 436.753606 368.836973 
L 438.52492 368.836973 
L 440.296234 333.87686 
L 442.067548 302.967292 
L 449.152803 302.967292 
L 450.924117 288.597773 
L 465.094629 288.597773 
L 466.865942 335.747495 
L 470.40857 335.747495 
L 472.179884 341.905719 
L 473.951198 362.654207 
L 479.26514 362.654207 
L 481.036454 339.927364 
L 482.807768 339.927364 
L 484.579082 314.648231 
L 488.121709 314.648231 
L 489.893023 288.597773 
L 525.319302 288.597773 
L 527.090616 282.650741 
L 530.633244 282.650741 
L 532.404557 260.913544 
L 534.175871 260.913544 
L 535.947185 262.257349 
L 541.261127 262.257349 
L 543.032441 274.510034 
L 544.803755 274.510034 
L 546.575069 288.597773 
L 548.346383 335.747495 
L 550.117697 335.747495 
L 551.889011 356.041923 
L 553.660324 373.467273 
L 564.288208 373.467273 
L 566.059522 351.454699 
L 567.830836 326.138431 
L 569.60215 312.045416 
L 571.373464 285.110741 
L 585.543975 285.110741 
L 587.315289 288.597773 
L 592.629231 288.597773 
L 594.400545 295.575806 
L 596.171859 295.575806 
L 597.943172 301.705594 
L 599.714486 322.245617 
L 601.4858 327.257411 
L 605.028428 327.257411 
L 606.799742 326.789048 
L 608.571056 288.597773 
L 615.656312 288.597773 
L 617.427626 255.450828 
L 626.284195 255.450828 
L 628.055509 279.471269 
L 652.853904 279.471269 
L 654.625218 258.08946 
L 672.338357 258.08946 
L 674.109671 288.597773 
L 674.109671 288.597773 
" clip-path="url(#p01f4f029b8)" style="fill: none; stroke: #2ca02c; stroke-width: 1.8; stroke-linecap: square"/>
   </g>
   <g id="line2d_29">
    <path d="M 80.719508 288.597773 
L 82.490822 288.597773 
L 84.262136 288.290838 
L 86.03345 286.317963 
L 91.347392 286.317963 
L 93.118706 278.06764 
L 94.890019 277.234794 
L 96.661333 269.261754 
L 103.746589 269.261754 
L 105.517903 273.531694 
L 107.289217 274.930511 
L 109.060531 276.761026 
L 116.145787 276.761026 
L 117.9171 280.71665 
L 119.688414 283.957323 
L 121.459728 288.597773 
L 123.231042 292.863933 
L 125.002356 294.902543 
L 126.77367 295.717739 
L 128.544984 296.110715 
L 132.087612 297.181309 
L 133.858926 297.585943 
L 135.63024 298.407672 
L 137.401554 296.878358 
L 139.172867 295.879361 
L 140.944181 296.325793 
L 142.715495 296.467585 
L 144.486809 297.540686 
L 146.258123 298.353264 
L 148.029437 297.544184 
L 149.800751 295.801518 
L 153.343379 291.634952 
L 155.114693 289.371155 
L 156.886007 287.772402 
L 158.657321 288.171166 
L 160.428634 288.171166 
L 162.199948 288.485105 
L 163.971262 288.597773 
L 257.8509 288.597773 
L 259.622214 269.759151 
L 261.393528 252.196164 
L 270.250097 252.196164 
L 272.021411 258.299592 
L 273.792725 270.253746 
L 275.564039 278.638303 
L 277.335353 284.739975 
L 279.106667 288.597773 
L 341.102654 288.597773 
L 342.873968 286.598253 
L 344.645282 285.138424 
L 346.416596 285.351721 
L 348.18791 285.996365 
L 351.730538 286.020382 
L 355.273166 292.958169 
L 357.044479 299.988831 
L 360.587107 317.963686 
L 362.358421 320.403853 
L 364.129735 321.932395 
L 365.901049 321.013806 
L 367.672363 310.21414 
L 369.443677 300.633046 
L 371.214991 291.975304 
L 372.986305 284.29493 
L 374.757619 284.29493 
L 376.528933 288.597773 
L 378.300247 294.221912 
L 380.07156 299.188036 
L 381.842874 302.811776 
L 383.614188 304.575502 
L 387.156816 305.783389 
L 388.92813 307.730171 
L 390.699444 305.704056 
L 392.470758 298.968134 
L 396.013386 284.254002 
L 397.7847 282.688449 
L 413.726525 282.688449 
L 415.497839 279.589466 
L 417.269153 282.826821 
L 419.040467 288.597773 
L 420.811781 297.1568 
L 422.583094 302.961307 
L 424.354408 310.992533 
L 426.125722 313.808424 
L 427.897036 310.224411 
L 429.66835 300.357041 
L 452.695431 300.357041 
L 454.466745 288.597773 
L 461.552001 288.597773 
L 463.323315 285.526057 
L 465.094629 287.385668 
L 466.865942 290.703195 
L 468.637256 291.266982 
L 472.179884 293.419023 
L 475.722512 296.642717 
L 479.26514 293.987763 
L 481.036454 293.620995 
L 482.807768 295.515759 
L 484.579082 298.12034 
L 486.350396 300.229433 
L 488.121709 301.310991 
L 491.664337 296.760431 
L 493.435651 294.355441 
L 495.206965 292.242188 
L 496.978279 291.604105 
L 498.749593 288.597773 
L 674.109671 288.597773 
L 674.109671 288.597773 
" clip-path="url(#p01f4f029b8)" style="fill: none; stroke: #d62728; stroke-width: 1.8; stroke-linecap: square"/>
   </g>
   <g id="line2d_30">
    <path d="M 80.719508 292.530355 
L 84.262136 292.530355 
L 86.03345 293.259417 
L 87.804764 293.259417 
L 89.576078 313.833771 
L 91.347392 318.37399 
L 94.890019 318.37399 
L 96.661333 341.948851 
L 98.432647 335.217717 
L 100.203961 317.903068 
L 101.975275 298.80743 
L 103.746589 298.80743 
L 105.517903 279.711793 
L 119.688414 279.711793 
L 121.459728 288.597773 
L 123.231042 288.597773 
L 125.002356 304.47626 
L 132.087612 304.47626 
L 133.858926 324.674325 
L 137.401554 324.674325 
L 139.172867 319.02389 
L 142.715495 319.02389 
L 144.486809 318.493276 
L 146.258123 318.493276 
L 148.029437 299.397639 
L 151.572065 299.397639 
L 153.343379 288.597773 
L 174.599146 288.597773 
L 176.37046 306.304189 
L 186.998343 306.304189 
L 190.540971 268.112915 
L 192.312285 268.112915 
L 194.083599 255.359345 
L 199.397541 255.359345 
L 201.168855 265.214326 
L 202.940169 265.214326 
L 204.711482 288.597773 
L 206.482796 288.597773 
L 208.25411 312.172634 
L 213.568052 312.172634 
L 217.11068 325.781388 
L 227.738563 325.781388 
L 234.823819 249.398838 
L 236.595133 249.398838 
L 238.366447 230.303201 
L 240.137761 230.303201 
L 241.909075 241.448051 
L 245.451703 288.597773 
L 248.99433 288.597773 
L 252.536958 335.747495 
L 256.079586 335.747495 
L 257.8509 359.322356 
L 259.622214 373.467273 
L 264.936156 373.467273 
L 268.478784 335.275998 
L 270.250097 328.768495 
L 272.021411 325.362227 
L 273.792725 306.26659 
L 277.335353 306.26659 
L 279.106667 287.170953 
L 289.734551 287.170953 
L 291.505864 288.597773 
L 296.819806 288.597773 
L 302.133748 359.322356 
L 309.219004 359.322356 
L 314.532945 302.035444 
L 316.304259 298.734963 
L 319.846887 260.543689 
L 321.618201 260.543689 
L 323.389515 241.448051 
L 330.474771 241.448051 
L 334.017399 288.597773 
L 335.788712 292.35679 
L 351.730538 292.35679 
L 353.501852 273.261153 
L 362.358421 273.261153 
L 364.129735 265.022912 
L 372.986305 265.022912 
L 374.757619 288.597773 
L 385.385502 288.597773 
L 387.156816 295.63134 
L 392.470758 295.63134 
L 394.242072 283.65538 
L 397.7847 283.65538 
L 399.556014 281.014154 
L 401.327327 281.014154 
L 403.098641 279.639326 
L 404.869955 260.543689 
L 406.641269 260.543689 
L 408.412583 241.448051 
L 413.726525 241.448051 
L 417.269153 288.597773 
L 422.583094 288.597773 
L 424.354408 289.942365 
L 429.66835 289.942365 
L 431.439664 301.910765 
L 445.610175 301.910765 
L 447.381489 284.11855 
L 449.152803 284.11855 
L 450.924117 265.022912 
L 458.009373 265.022912 
L 459.780687 288.597773 
L 465.094629 288.597773 
L 466.865942 297.095278 
L 472.179884 297.095278 
L 473.951198 320.670139 
L 481.036454 320.670139 
L 482.807768 310.813084 
L 484.579082 310.813084 
L 488.121709 272.621809 
L 489.893023 272.621809 
L 491.664337 265.022912 
L 500.520907 265.022912 
L 502.292221 288.597773 
L 525.319302 288.597773 
L 527.090616 269.502136 
L 528.86193 254.107248 
L 530.633244 254.107248 
L 532.404557 241.448051 
L 541.261127 241.448051 
L 543.032441 265.022912 
L 544.803755 265.022912 
L 546.575069 288.597773 
L 548.346383 288.597773 
L 550.117697 308.313101 
L 551.889011 308.313101 
L 553.660324 312.153902 
L 555.431638 335.728763 
L 564.288208 335.728763 
L 567.830836 297.537488 
L 569.60215 297.537488 
L 571.373464 279.639326 
L 573.144778 279.639326 
L 576.687405 241.448051 
L 582.001347 241.448051 
L 583.772661 265.022912 
L 587.315289 265.022912 
L 590.857917 312.172634 
L 605.028428 312.172634 
L 606.799742 307.693411 
L 608.571056 307.693411 
L 613.884998 250.406498 
L 626.284195 250.406498 
L 628.055509 270.28508 
L 636.912079 270.28508 
L 638.683393 282.293568 
L 642.22602 282.293568 
L 643.997334 298.5217 
L 647.539962 298.5217 
L 649.311276 294.43961 
L 652.853904 294.43961 
L 654.625218 275.343973 
L 656.396532 275.343973 
L 658.167846 256.248335 
L 668.795729 256.248335 
L 670.567043 265.022912 
L 672.338357 265.022912 
L 674.109671 288.597773 
L 674.109671 288.597773 
" clip-path="url(#p01f4f029b8)" style="fill: none; stroke: #9467bd; stroke-width: 1.8; stroke-linecap: square"/>
   </g>
   <g id="line2d_31">
    <path d="M 80.719508 288.597773 
L 674.109671 288.597773 
L 674.109671 288.597773 
" clip-path="url(#p01f4f029b8)" style="fill: none; stroke: #8c564b; stroke-width: 1.8; stroke-linecap: square"/>
   </g>
   <g id="line2d_32">
    <path d="M 80.719508 288.597773 
L 674.109671 288.597773 
L 674.109671 288.597773 
" clip-path="url(#p01f4f029b8)" style="fill: none; stroke: #e377c2; stroke-width: 1.8; stroke-linecap: square"/>
   </g>
   <g id="line2d_33">
    <path d="M 80.719508 288.597773 
L 674.109671 288.597773 
L 674.109671 288.597773 
" clip-path="url(#p01f4f029b8)" style="fill: none; stroke: #7f7f7f; stroke-width: 1.8; stroke-linecap: square"/>
   </g>
   <g id="patch_3">
    <path d="M 51.05 390.04 
L 51.05 25.44 
" style="fill: none; stroke: #000000; stroke-width: 0.8; stroke-linejoin: miter; stroke-linecap: square"/>
   </g>
   <g id="patch_4">
    <path d="M 703.779179 390.04 
L 703.779179 25.44 
" style="fill: none; stroke: #000000; stroke-width: 0.8; stroke-linejoin: miter; stroke-linecap: square"/>
   </g>
   <g id="patch_5">
    <path d="M 51.05 390.04 
L 703.779179 390.04 
" style="fill: none; stroke: #000000; stroke-width: 0.8; stroke-linejoin: miter; stroke-linecap: square"/>
   </g>
   <g id="patch_6">
    <path d="M 51.05 25.44 
L 703.779179 25.44 
" style="fill: none; stroke: #000000; stroke-width: 0.8; stroke-linejoin: miter; stroke-linecap: square"/>
   </g>
   <g id="text_18">
    <!-- SoC by battery (T=336, F=24, L=12) -->
    <g transform="translate(266.18959 19.44) scale(0.12 -0.12)">
     <defs>
      <path id="DejaVuSans-62" d="M 3116 1747 
Q 3116 2381 2855 2742 
Q 2594 3103 2138 3103 
Q 1681 3103 1420 2742 
Q 1159 2381 1159 1747 
Q 1159 1113 1420 752 
Q 1681 391 2138 391 
Q 2594 391 2855 752 
Q 3116 1113 3116 1747 
z
M 1159 2969 
Q 1341 3281 1617 3432 
Q 1894 3584 2278 3584 
Q 2916 3584 3314 3078 
Q 3713 2572 3713 1747 
Q 3713 922 3314 415 
Q 2916 -91 2278 -91 
Q 1894 -91 1617 61 
Q 1341 213 1159 525 
L 1159 0 
L 581 0 
L 581 4863 
L 1159 4863 
L 1159 2969 
z
" transform="scale(0.015625)"/>
      <path id="DejaVuSans-79" d="M 2059 -325 
Q 1816 -950 1584 -1140 
Q 1353 -1331 966 -1331 
L 506 -1331 
L 506 -850 
L 844 -850 
Q 1081 -850 1212 -737 
Q 1344 -625 1503 -206 
L 1606 56 
L 191 3500 
L 800 3500 
L 1894 763 
L 2988 3500 
L 3597 3500 
L 2059 -325 
z
" transform="scale(0.015625)"/>
      <path id="DejaVuSans-61" d="M 2194 1759 
Q 1497 1759 1228 1600 
Q 959 1441 959 1056 
Q 959 750 1161 570 
Q 1363 391 1709 391 
Q 2188 391 2477 730 
Q 2766 1069 2766 1631 
L 2766 1759 
L 2194 1759 
z
M 3341 1997 
L 3341 0 
L 2766 0 
L 2766 531 
Q 2569 213 2275 61 
Q 1981 -91 1556 -91 
Q 1019 -91 701 211 
Q 384 513 384 1019 
Q 384 1609 779 1909 
Q 1175 2209 1959 2209 
L 2766 2209 
L 2766 2266 
Q 2766 2663 2505 2880 
Q 2244 3097 1772 3097 
Q 1472 3097 1187 3025 
Q 903 2953 641 2809 
L 641 3341 
Q 956 3463 1253 3523 
Q 1550 3584 1831 3584 
Q 2591 3584 2966 3190 
Q 3341 2797 3341 1997 
z
" transform="scale(0.015625)"/>
      <path id="DejaVuSans-72" d="M 2631 2963 
Q 2534 3019 2420 3045 
Q 2306 3072 2169 3072 
Q 1681 3072 1420 2755 
Q 1159 2438 1159 1844 
L 1159 0 
L 581 0 
L 581 3500 
L 1159 3500 
L 1159 2956 
Q 1341 3275 1631 3429 
Q 1922 3584 2338 3584 
Q 2397 3584 2469 3576 
Q 2541 3569 2628 3553 
L 2631 2963 
z
" transform="scale(0.015625)"/>
      <path id="DejaVuSans-3d" d="M 678 2906 
L 4684 2906 
L 4684 2381 
L 678 2381 
L 678 2906 
z
M 678 1631 
L 4684 1631 
L 4684 1100 
L 678 1100 
L 678 1631 
z
" transform="scale(0.015625)"/>
      <path id="DejaVuSans-36" d="M 2113 2584 
Q 1688 2584 1439 2293 
Q 1191 2003 1191 1497 
Q 1191 994 1439 701 
Q 1688 409 2113 409 
Q 2538 409 2786 701 
Q 3034 994 3034 1497 
Q 3034 2003 2786 2293 
Q 2538 2584 2113 2584 
z
M 3366 4563 
L 3366 3988 
Q 3128 4100 2886 4159 
Q 2644 4219 2406 4219 
Q 1781 4219 1451 3797 
Q 1122 3375 1075 2522 
Q 1259 2794 1537 2939 
Q 1816 3084 2150 3084 
Q 2853 3084 3261 2657 
Q 3669 2231 3669 1497 
Q 3669 778 3244 343 
Q 2819 -91 2113 -91 
Q 1303 -91 875 529 
Q 447 1150 447 2328 
Q 447 3434 972 4092 
Q 1497 4750 2381 4750 
Q 2619 4750 2861 4703 
Q 3103 4656 3366 4563 
z
" transform="scale(0.015625)"/>
      <path id="DejaVuSans-2c" d="M 750 794 
L 1409 794 
L 1409 256 
L 897 -744 
L 494 -744 
L 750 256 
L 750 794 
z
" transform="scale(0.015625)"/>
      <path id="DejaVuSans-46" d="M 628 4666 
L 3309 4666 
L 3309 4134 
L 1259 4134 
L 1259 2759 
L 3109 2759 
L 3109 2228 
L 1259 2228 
L 1259 0 
L 628 0 
L 628 4666 
z
" transform="scale(0.015625)"/>
      <path id="DejaVuSans-34" d="M 2419 4116 
L 825 1625 
L 2419 1625 
L 2419 4116 
z
M 2253 4666 
L 3047 4666 
L 3047 1625 
L 3713 1625 
L 3713 1100 
L 3047 1100 
L 3047 0 
L 2419 0 
L 2419 1100 
L 313 1100 
L 313 1709 
L 2253 4666 
z
" transform="scale(0.015625)"/>
      <path id="DejaVuSans-4c" d="M 628 4666 
L 1259 4666 
L 1259 531 
L 3531 531 
L 3531 0 
L 628 0 
L 628 4666 
z
" transform="scale(0.015625)"/>
     </defs>
     <use xlink:href="#DejaVuSans-53"/>
     <use xlink:href="#DejaVuSans-6f" transform="translate(63.476562 0)"/>
     <use xlink:href="#DejaVuSans-43" transform="translate(124.658203 0)"/>
     <use xlink:href="#DejaVuSans-20" transform="translate(194.482422 0)"/>
     <use xlink:href="#DejaVuSans-62" transform="translate(226.269531 0)"/>
     <use xlink:href="#DejaVuSans-79" transform="translate(289.746094 0)"/>
     <use xlink:href="#DejaVuSans-20" transform="translate(348.925781 0)"/>
     <use xlink:href="#DejaVuSans-62" transform="translate(380.712891 0)"/>
     <use xlink:href="#DejaVuSans-61" transform="translate(444.189453 0)"/>
     <use xlink:href="#DejaVuSans-74" transform="translate(505.46875 0)"/>
     <use xlink:href="#DejaVuSans-74" transform="translate(544.677734 0)"/>
     <use xlink:href="#DejaVuSans-65" transform="translate(583.886719 0)"/>
     <use xlink:href="#DejaVuSans-72" transform="translate(645.410156 0)"/>
     <use xlink:href="#DejaVuSans-79" transform="translate(686.523438 0)"/>
     <use xlink:href="#DejaVuSans-20" transform="translate(745.703125 0)"/>
     <use xlink:href="#DejaVuSans-28" transform="translate(777.490234 0)"/>
     <use xlink:href="#DejaVuSans-54" transform="translate(816.503906 0)"/>
     <use xlink:href="#DejaVuSans-3d" transform="translate(877.587891 0)"/>
     <use xlink:href="#DejaVuSans-33" transform="translate(961.376953 0)"/>
     <use xlink:href="#DejaVuSans-33" transform="translate(1025 0)"/>
     <use xlink:href="#DejaVuSans-36" transform="translate(1088.623047 0)"/>
     <use xlink:href="#DejaVuSans-2c" transform="translate(1152.246094 0)"/>
     <use xlink:href="#DejaVuSans-20" transform="translate(1184.033203 0)"/>
     <use xlink:href="#DejaVuSans-46" transform="translate(1215.820312 0)"/>
     <use xlink:href="#DejaVuSans-3d" transform="translate(1273.339844 0)"/>
     <use xlink:href="#DejaVuSans-32" transform="translate(1357.128906 0)"/>
     <use xlink:href="#DejaVuSans-34" transform="translate(1420.751953 0)"/>
     <use xlink:href="#DejaVuSans-2c" transform="translate(1484.375 0)"/>
     <use xlink:href="#DejaVuSans-20" transform="translate(1516.162109 0)"/>
     <use xlink:href="#DejaVuSans-4c" transform="translate(1547.949219 0)"/>
     <use xlink:href="#DejaVuSans-3d" transform="translate(1603.662109 0)"/>
     <use xlink:href="#DejaVuSans-31" transform="translate(1687.451172 0)"/>
     <use xlink:href="#DejaVuSans-32" transform="translate(1751.074219 0)"/>
     <use xlink:href="#DejaVuSans-29" transform="translate(1814.697266 0)"/>
    </g>
   </g>
  </g>
 </g>
 <defs>
  <clipPath id="p01f4f029b8">
   <rect x="51.05" y="25.44" width="652.729179" height="364.6"/>
  </clipPath>
 </defs>
</svg>
