<?xml version="1.0" encoding="utf-8" standalone="no"?>
<!DOCTYPE svg PUBLIC "-//W3C//DTD SVG 1.1//EN"
  "http://www.w3.org/Graphics/SVG/1.1/DTD/svg11.dtd">
<svg xmlns:xlink="http://www.w3.org/1999/xlink" width="720pt" height="432pt" viewBox="0 0 720 432" xmlns="http://www.w3.org/2000/svg" version="1.1">
 <metadata>
  <rdf:RDF xmlns:dc="http://purl.org/dc/elements/1.1/" xmlns:cc="http://creativecommons.org/ns#" xmlns:rdf="http://www.w3.org/1999/02/22-rdf-syntax-ns#">
   <cc:Work>
    <dc:type rdf:resource="http://purl.org/dc/dcmitype/StillImage"/>
    <dc:date>2025-11-10T23:21:37.144666</dc:date>
    <dc:format>image/svg+xml</dc:format>
    <dc:creator>
     <cc:Agent>
      <dc:title>Matplotlib v3.10.0, https://matplotlib.org/</dc:title>
     </cc:Agent>
    </dc:creator>
   </cc:Work>
  </rdf:RDF>
 </metadata>
 <defs>
  <style type="text/css">*{stroke-linejoin: round; stroke-linecap: butt}</style>
 </defs>
 <g id="figure_1">
  <g id="patch_1">
   <path d="M 0 432 
L 720 432 
L 720 0 
L 0 0 
z
" style="fill: #ffffff"/>
  </g>
  <g id="axes_1">
   <g id="patch_2">
    <path d="M 51.05 390.04 
L 709.2 390.04 
L 709.2 25.44 
L 51.05 25.44 
z
" style="fill: #ffffff"/>
   </g>
   <g id="matplotlib.axis_1">
    <g id="xtick_1">
     <g id="line2d_1">
      <defs>
       <path id="m983ed52a92" d="M 0 0 
L 0 3.5 
" style="stroke: #000000; stroke-width: 0.8"/>
      </defs>
      <g>
       <use xlink:href="#m983ed52a92" x="72.538892" y="390.04" style="stroke: #000000; stroke-width: 0.8"/>
      </g>
     </g>
     <g id="text_1">
      <!-- 0 -->
      <g transform="translate(69.357642 404.638438) scale(0.1 -0.1)">
       <defs>
        <path id="DejaVuSans-30" d="M 2034 4250 
Q 1547 4250 1301 3770 
Q 1056 3291 1056 2328 
Q 1056 1369 1301 889 
Q 1547 409 2034 409 
Q 2525 409 2770 889 
Q 3016 1369 3016 2328 
Q 3016 3291 2770 3770 
Q 2525 4250 2034 4250 
z
M 2034 4750 
Q 2819 4750 3233 4129 
Q 3647 3509 3647 2328 
Q 3647 1150 3233 529 
Q 2819 -91 2034 -91 
Q 1250 -91 836 529 
Q 422 1150 422 2328 
Q 422 3509 836 4129 
Q 1250 4750 2034 4750 
z
" transform="scale(0.015625)"/>
       </defs>
       <use xlink:href="#DejaVuSans-30"/>
      </g>
     </g>
    </g>
    <g id="xtick_2">
     <g id="line2d_2">
      <g>
       <use xlink:href="#m983ed52a92" x="156.809059" y="390.04" style="stroke: #000000; stroke-width: 0.8"/>
      </g>
     </g>
     <g id="text_2">
      <!-- 10 -->
      <g transform="translate(150.446559 404.638438) scale(0.1 -0.1)">
       <defs>
        <path id="DejaVuSans-31" d="M 794 531 
L 1825 531 
L 1825 4091 
L 703 3866 
L 703 4441 
L 1819 4666 
L 2450 4666 
L 2450 531 
L 3481 531 
L 3481 0 
L 794 0 
L 794 531 
z
" transform="scale(0.015625)"/>
       </defs>
       <use xlink:href="#DejaVuSans-31"/>
       <use xlink:href="#DejaVuSans-30" transform="translate(63.623047 0)"/>
      </g>
     </g>
    </g>
    <g id="xtick_3">
     <g id="line2d_3">
      <g>
       <use xlink:href="#m983ed52a92" x="241.079225" y="390.04" style="stroke: #000000; stroke-width: 0.8"/>
      </g>
     </g>
     <g id="text_3">
      <!-- 20 -->
      <g transform="translate(234.716725 404.638438) scale(0.1 -0.1)">
       <defs>
        <path id="DejaVuSans-32" d="M 1228 531 
L 3431 531 
L 3431 0 
L 469 0 
L 469 531 
Q 828 903 1448 1529 
Q 2069 2156 2228 2338 
Q 2531 2678 2651 2914 
Q 2772 3150 2772 3378 
Q 2772 3750 2511 3984 
Q 2250 4219 1831 4219 
Q 1534 4219 1204 4116 
Q 875 4013 500 3803 
L 500 4441 
Q 881 4594 1212 4672 
Q 1544 4750 1819 4750 
Q 2544 4750 2975 4387 
Q 3406 4025 3406 3419 
Q 3406 3131 3298 2873 
Q 3191 2616 2906 2266 
Q 2828 2175 2409 1742 
Q 1991 1309 1228 531 
z
" transform="scale(0.015625)"/>
       </defs>
       <use xlink:href="#DejaVuSans-32"/>
       <use xlink:href="#DejaVuSans-30" transform="translate(63.623047 0)"/>
      </g>
     </g>
    </g>
    <g id="xtick_4">
     <g id="line2d_4">
      <g>
       <use xlink:href="#m983ed52a92" x="325.349392" y="390.04" style="stroke: #000000; stroke-width: 0.8"/>
      </g>
     </g>
     <g id="text_4">
      <!-- 30 -->
      <g transform="translate(318.986892 404.638438) scale(0.1 -0.1)">
       <defs>
        <path id="DejaVuSans-33" d="M 2597 2516 
Q 3050 2419 3304 2112 
Q 3559 1806 3559 1356 
Q 3559 666 3084 287 
Q 2609 -91 1734 -91 
Q 1441 -91 1130 -33 
Q 819 25 488 141 
L 488 750 
Q 750 597 1062 519 
Q 1375 441 1716 441 
Q 2309 441 2620 675 
Q 2931 909 2931 1356 
Q 2931 1769 2642 2001 
Q 2353 2234 1838 2234 
L 1294 2234 
L 1294 2753 
L 1863 2753 
Q 2328 2753 2575 2939 
Q 2822 3125 2822 3475 
Q 2822 3834 2567 4026 
Q 2313 4219 1838 4219 
Q 1578 4219 1281 4162 
Q 984 4106 628 3988 
L 628 4550 
Q 988 4650 1302 4700 
Q 1616 4750 1894 4750 
Q 2613 4750 3031 4423 
Q 3450 4097 3450 3541 
Q 3450 3153 3228 2886 
Q 3006 2619 2597 2516 
z
" transform="scale(0.015625)"/>
       </defs>
       <use xlink:href="#DejaVuSans-33"/>
       <use xlink:href="#DejaVuSans-30" transform="translate(63.623047 0)"/>
      </g>
     </g>
    </g>
    <g id="xtick_5">
     <g id="line2d_5">
      <g>
       <use xlink:href="#m983ed52a92" x="409.619558" y="390.04" style="stroke: #000000; stroke-width: 0.8"/>
      </g>
     </g>
     <g id="text_5">
      <!-- 40 -->
      <g transform="translate(403.257058 404.638438) scale(0.1 -0.1)">
       <defs>
        <path id="DejaVuSans-34" d="M 2419 4116 
L 825 1625 
L 2419 1625 
L 2419 4116 
z
M 2253 4666 
L 3047 4666 
L 3047 1625 
L 3713 1625 
L 3713 1100 
L 3047 1100 
L 3047 0 
L 2419 0 
L 2419 1100 
L 313 1100 
L 313 1709 
L 2253 4666 
z
" transform="scale(0.015625)"/>
       </defs>
       <use xlink:href="#DejaVuSans-34"/>
       <use xlink:href="#DejaVuSans-30" transform="translate(63.623047 0)"/>
      </g>
     </g>
    </g>
    <g id="xtick_6">
     <g id="line2d_6">
      <g>
       <use xlink:href="#m983ed52a92" x="493.889725" y="390.04" style="stroke: #000000; stroke-width: 0.8"/>
      </g>
     </g>
     <g id="text_6">
      <!-- 50 -->
      <g transform="translate(487.527225 404.638438) scale(0.1 -0.1)">
       <defs>
        <path id="DejaVuSans-35" d="M 691 4666 
L 3169 4666 
L 3169 4134 
L 1269 4134 
L 1269 2991 
Q 1406 3038 1543 3061 
Q 1681 3084 1819 3084 
Q 2600 3084 3056 2656 
Q 3513 2228 3513 1497 
Q 3513 744 3044 326 
Q 2575 -91 1722 -91 
Q 1428 -91 1123 -41 
Q 819 9 494 109 
L 494 744 
Q 775 591 1075 516 
Q 1375 441 1709 441 
Q 2250 441 2565 725 
Q 2881 1009 2881 1497 
Q 2881 1984 2565 2268 
Q 2250 2553 1709 2553 
Q 1456 2553 1204 2497 
Q 953 2441 691 2322 
L 691 4666 
z
" transform="scale(0.015625)"/>
       </defs>
       <use xlink:href="#DejaVuSans-35"/>
       <use xlink:href="#DejaVuSans-30" transform="translate(63.623047 0)"/>
      </g>
     </g>
    </g>
    <g id="xtick_7">
     <g id="line2d_7">
      <g>
       <use xlink:href="#m983ed52a92" x="578.159891" y="390.04" style="stroke: #000000; stroke-width: 0.8"/>
      </g>
     </g>
     <g id="text_7">
      <!-- 60 -->
      <g transform="translate(571.797391 404.638438) scale(0.1 -0.1)">
       <defs>
        <path id="DejaVuSans-36" d="M 2113 2584 
Q 1688 2584 1439 2293 
Q 1191 2003 1191 1497 
Q 1191 994 1439 701 
Q 1688 409 2113 409 
Q 2538 409 2786 701 
Q 3034 994 3034 1497 
Q 3034 2003 2786 2293 
Q 2538 2584 2113 2584 
z
M 3366 4563 
L 3366 3988 
Q 3128 4100 2886 4159 
Q 2644 4219 2406 4219 
Q 1781 4219 1451 3797 
Q 1122 3375 1075 2522 
Q 1259 2794 1537 2939 
Q 1816 3084 2150 3084 
Q 2853 3084 3261 2657 
Q 3669 2231 3669 1497 
Q 3669 778 3244 343 
Q 2819 -91 2113 -91 
Q 1303 -91 875 529 
Q 447 1150 447 2328 
Q 447 3434 972 4092 
Q 1497 4750 2381 4750 
Q 2619 4750 2861 4703 
Q 3103 4656 3366 4563 
z
" transform="scale(0.015625)"/>
       </defs>
       <use xlink:href="#DejaVuSans-36"/>
       <use xlink:href="#DejaVuSans-30" transform="translate(63.623047 0)"/>
      </g>
     </g>
    </g>
    <g id="xtick_8">
     <g id="line2d_8">
      <g>
       <use xlink:href="#m983ed52a92" x="662.430058" y="390.04" style="stroke: #000000; stroke-width: 0.8"/>
      </g>
     </g>
     <g id="text_8">
      <!-- 70 -->
      <g transform="translate(656.067558 404.638438) scale(0.1 -0.1)">
       <defs>
        <path id="DejaVuSans-37" d="M 525 4666 
L 3525 4666 
L 3525 4397 
L 1831 0 
L 1172 0 
L 2766 4134 
L 525 4134 
L 525 4666 
z
" transform="scale(0.015625)"/>
       </defs>
       <use xlink:href="#DejaVuSans-37"/>
       <use xlink:href="#DejaVuSans-30" transform="translate(63.623047 0)"/>
      </g>
     </g>
    </g>
    <g id="text_9">
     <!-- Time (t) -->
     <g transform="translate(360.440625 418.316562) scale(0.1 -0.1)">
      <defs>
       <path id="DejaVuSans-54" d="M -19 4666 
L 3928 4666 
L 3928 4134 
L 2272 4134 
L 2272 0 
L 1638 0 
L 1638 4134 
L -19 4134 
L -19 4666 
z
" transform="scale(0.015625)"/>
       <path id="DejaVuSans-69" d="M 603 3500 
L 1178 3500 
L 1178 0 
L 603 0 
L 603 3500 
z
M 603 4863 
L 1178 4863 
L 1178 4134 
L 603 4134 
L 603 4863 
z
" transform="scale(0.015625)"/>
       <path id="DejaVuSans-6d" d="M 3328 2828 
Q 3544 3216 3844 3400 
Q 4144 3584 4550 3584 
Q 5097 3584 5394 3201 
Q 5691 2819 5691 2113 
L 5691 0 
L 5113 0 
L 5113 2094 
Q 5113 2597 4934 2840 
Q 4756 3084 4391 3084 
Q 3944 3084 3684 2787 
Q 3425 2491 3425 1978 
L 3425 0 
L 2847 0 
L 2847 2094 
Q 2847 2600 2669 2842 
Q 2491 3084 2119 3084 
Q 1678 3084 1418 2786 
Q 1159 2488 1159 1978 
L 1159 0 
L 581 0 
L 581 3500 
L 1159 3500 
L 1159 2956 
Q 1356 3278 1631 3431 
Q 1906 3584 2284 3584 
Q 2666 3584 2933 3390 
Q 3200 3197 3328 2828 
z
" transform="scale(0.015625)"/>
       <path id="DejaVuSans-65" d="M 3597 1894 
L 3597 1613 
L 953 1613 
Q 991 1019 1311 708 
Q 1631 397 2203 397 
Q 2534 397 2845 478 
Q 3156 559 3463 722 
L 3463 178 
Q 3153 47 2828 -22 
Q 2503 -91 2169 -91 
Q 1331 -91 842 396 
Q 353 884 353 1716 
Q 353 2575 817 3079 
Q 1281 3584 2069 3584 
Q 2775 3584 3186 3129 
Q 3597 2675 3597 1894 
z
M 3022 2063 
Q 3016 2534 2758 2815 
Q 2500 3097 2075 3097 
Q 1594 3097 1305 2825 
Q 1016 2553 972 2059 
L 3022 2063 
z
" transform="scale(0.015625)"/>
       <path id="DejaVuSans-20" transform="scale(0.015625)"/>
       <path id="DejaVuSans-28" d="M 1984 4856 
Q 1566 4138 1362 3434 
Q 1159 2731 1159 2009 
Q 1159 1288 1364 580 
Q 1569 -128 1984 -844 
L 1484 -844 
Q 1016 -109 783 600 
Q 550 1309 550 2009 
Q 550 2706 781 3412 
Q 1013 4119 1484 4856 
L 1984 4856 
z
" transform="scale(0.015625)"/>
       <path id="DejaVuSans-74" d="M 1172 4494 
L 1172 3500 
L 2356 3500 
L 2356 3053 
L 1172 3053 
L 1172 1153 
Q 1172 725 1289 603 
Q 1406 481 1766 481 
L 2356 481 
L 2356 0 
L 1766 0 
Q 1100 0 847 248 
Q 594 497 594 1153 
L 594 3053 
L 172 3053 
L 172 3500 
L 594 3500 
L 594 4494 
L 1172 4494 
z
" transform="scale(0.015625)"/>
       <path id="DejaVuSans-29" d="M 513 4856 
L 1013 4856 
Q 1481 4119 1714 3412 
Q 1947 2706 1947 2009 
Q 1947 1309 1714 600 
Q 1481 -109 1013 -844 
L 513 -844 
Q 928 -128 1133 580 
Q 1338 1288 1338 2009 
Q 1338 2731 1133 3434 
Q 928 4138 513 4856 
z
" transform="scale(0.015625)"/>
      </defs>
      <use xlink:href="#DejaVuSans-54"/>
      <use xlink:href="#DejaVuSans-69" transform="translate(57.958984 0)"/>
      <use xlink:href="#DejaVuSans-6d" transform="translate(85.742188 0)"/>
      <use xlink:href="#DejaVuSans-65" transform="translate(183.154297 0)"/>
      <use xlink:href="#DejaVuSans-20" transform="translate(244.677734 0)"/>
      <use xlink:href="#DejaVuSans-28" transform="translate(276.464844 0)"/>
      <use xlink:href="#DejaVuSans-74" transform="translate(315.478516 0)"/>
      <use xlink:href="#DejaVuSans-29" transform="translate(354.6875 0)"/>
     </g>
    </g>
   </g>
   <g id="matplotlib.axis_2">
    <g id="ytick_1">
     <g id="line2d_9">
      <defs>
       <path id="m1c7219c334" d="M 0 0 
L -3.5 0 
" style="stroke: #000000; stroke-width: 0.8"/>
      </defs>
      <g>
       <use xlink:href="#m1c7219c334" x="51.05" y="388.165917" style="stroke: #000000; stroke-width: 0.8"/>
      </g>
     </g>
     <g id="text_10">
      <!-- 0 -->
      <g transform="translate(37.6875 391.965136) scale(0.1 -0.1)">
       <use xlink:href="#DejaVuSans-30"/>
      </g>
     </g>
    </g>
    <g id="ytick_2">
     <g id="line2d_10">
      <g>
       <use xlink:href="#m1c7219c334" x="51.05" y="332.183952" style="stroke: #000000; stroke-width: 0.8"/>
      </g>
     </g>
     <g id="text_11">
      <!-- 50 -->
      <g transform="translate(31.325 335.983171) scale(0.1 -0.1)">
       <use xlink:href="#DejaVuSans-35"/>
       <use xlink:href="#DejaVuSans-30" transform="translate(63.623047 0)"/>
      </g>
     </g>
    </g>
    <g id="ytick_3">
     <g id="line2d_11">
      <g>
       <use xlink:href="#m1c7219c334" x="51.05" y="276.201988" style="stroke: #000000; stroke-width: 0.8"/>
      </g>
     </g>
     <g id="text_12">
      <!-- 100 -->
      <g transform="translate(24.9625 280.001207) scale(0.1 -0.1)">
       <use xlink:href="#DejaVuSans-31"/>
       <use xlink:href="#DejaVuSans-30" transform="translate(63.623047 0)"/>
       <use xlink:href="#DejaVuSans-30" transform="translate(127.246094 0)"/>
      </g>
     </g>
    </g>
    <g id="ytick_4">
     <g id="line2d_12">
      <g>
       <use xlink:href="#m1c7219c334" x="51.05" y="220.220023" style="stroke: #000000; stroke-width: 0.8"/>
      </g>
     </g>
     <g id="text_13">
      <!-- 150 -->
      <g transform="translate(24.9625 224.019242) scale(0.1 -0.1)">
       <use xlink:href="#DejaVuSans-31"/>
       <use xlink:href="#DejaVuSans-35" transform="translate(63.623047 0)"/>
       <use xlink:href="#DejaVuSans-30" transform="translate(127.246094 0)"/>
      </g>
     </g>
    </g>
    <g id="ytick_5">
     <g id="line2d_13">
      <g>
       <use xlink:href="#m1c7219c334" x="51.05" y="164.238059" style="stroke: #000000; stroke-width: 0.8"/>
      </g>
     </g>
     <g id="text_14">
      <!-- 200 -->
      <g transform="translate(24.9625 168.037277) scale(0.1 -0.1)">
       <use xlink:href="#DejaVuSans-32"/>
       <use xlink:href="#DejaVuSans-30" transform="translate(63.623047 0)"/>
       <use xlink:href="#DejaVuSans-30" transform="translate(127.246094 0)"/>
      </g>
     </g>
    </g>
    <g id="ytick_6">
     <g id="line2d_14">
      <g>
       <use xlink:href="#m1c7219c334" x="51.05" y="108.256094" style="stroke: #000000; stroke-width: 0.8"/>
      </g>
     </g>
     <g id="text_15">
      <!-- 250 -->
      <g transform="translate(24.9625 112.055313) scale(0.1 -0.1)">
       <use xlink:href="#DejaVuSans-32"/>
       <use xlink:href="#DejaVuSans-35" transform="translate(63.623047 0)"/>
       <use xlink:href="#DejaVuSans-30" transform="translate(127.246094 0)"/>
      </g>
     </g>
    </g>
    <g id="ytick_7">
     <g id="line2d_15">
      <g>
       <use xlink:href="#m1c7219c334" x="51.05" y="52.274129" style="stroke: #000000; stroke-width: 0.8"/>
      </g>
     </g>
     <g id="text_16">
      <!-- 300 -->
      <g transform="translate(24.9625 56.073348) scale(0.1 -0.1)">
       <use xlink:href="#DejaVuSans-33"/>
       <use xlink:href="#DejaVuSans-30" transform="translate(63.623047 0)"/>
       <use xlink:href="#DejaVuSans-30" transform="translate(127.246094 0)"/>
      </g>
     </g>
    </g>
    <g id="text_17">
     <!-- SoC -->
     <g transform="translate(18.882812 217.465) rotate(-90) scale(0.1 -0.1)">
      <defs>
       <path id="DejaVuSans-53" d="M 3425 4513 
L 3425 3897 
Q 3066 4069 2747 4153 
Q 2428 4238 2131 4238 
Q 1616 4238 1336 4038 
Q 1056 3838 1056 3469 
Q 1056 3159 1242 3001 
Q 1428 2844 1947 2747 
L 2328 2669 
Q 3034 2534 3370 2195 
Q 3706 1856 3706 1288 
Q 3706 609 3251 259 
Q 2797 -91 1919 -91 
Q 1588 -91 1214 -16 
Q 841 59 441 206 
L 441 856 
Q 825 641 1194 531 
Q 1563 422 1919 422 
Q 2459 422 2753 634 
Q 3047 847 3047 1241 
Q 3047 1584 2836 1778 
Q 2625 1972 2144 2069 
L 1759 2144 
Q 1053 2284 737 2584 
Q 422 2884 422 3419 
Q 422 4038 858 4394 
Q 1294 4750 2059 4750 
Q 2388 4750 2728 4690 
Q 3069 4631 3425 4513 
z
" transform="scale(0.015625)"/>
       <path id="DejaVuSans-6f" d="M 1959 3097 
Q 1497 3097 1228 2736 
Q 959 2375 959 1747 
Q 959 1119 1226 758 
Q 1494 397 1959 397 
Q 2419 397 2687 759 
Q 2956 1122 2956 1747 
Q 2956 2369 2687 2733 
Q 2419 3097 1959 3097 
z
M 1959 3584 
Q 2709 3584 3137 3096 
Q 3566 2609 3566 1747 
Q 3566 888 3137 398 
Q 2709 -91 1959 -91 
Q 1206 -91 779 398 
Q 353 888 353 1747 
Q 353 2609 779 3096 
Q 1206 3584 1959 3584 
z
" transform="scale(0.015625)"/>
       <path id="DejaVuSans-43" d="M 4122 4306 
L 4122 3641 
Q 3803 3938 3442 4084 
Q 3081 4231 2675 4231 
Q 1875 4231 1450 3742 
Q 1025 3253 1025 2328 
Q 1025 1406 1450 917 
Q 1875 428 2675 428 
Q 3081 428 3442 575 
Q 3803 722 4122 1019 
L 4122 359 
Q 3791 134 3420 21 
Q 3050 -91 2638 -91 
Q 1578 -91 968 557 
Q 359 1206 359 2328 
Q 359 3453 968 4101 
Q 1578 4750 2638 4750 
Q 3056 4750 3426 4639 
Q 3797 4528 4122 4306 
z
" transform="scale(0.015625)"/>
      </defs>
      <use xlink:href="#DejaVuSans-53"/>
      <use xlink:href="#DejaVuSans-6f" transform="translate(63.476562 0)"/>
      <use xlink:href="#DejaVuSans-43" transform="translate(124.658203 0)"/>
     </g>
    </g>
   </g>
   <g id="line2d_16">
    <path d="M 80.965909 220.614262 
L 89.392926 220.614262 
L 97.819942 220.614262 
L 106.246959 220.614262 
L 114.673976 220.614262 
L 123.100992 220.614262 
L 131.528009 220.614262 
L 139.955026 220.614262 
L 148.382042 220.614262 
L 156.809059 220.614262 
L 165.236076 220.614262 
L 173.663092 220.614262 
L 182.090109 220.614262 
L 190.517125 220.614262 
L 198.944142 220.614262 
L 207.371159 220.614262 
L 215.798175 220.614262 
L 224.225192 220.614262 
L 232.652209 220.614262 
L 241.079225 220.614262 
L 249.506242 220.614262 
L 257.933259 220.614262 
L 266.360275 220.614262 
L 274.787292 220.614262 
L 283.214309 220.614262 
L 291.641325 220.614262 
L 300.068342 220.614262 
L 308.495359 220.614262 
L 316.922375 220.614262 
L 325.349392 220.614262 
L 333.776408 220.614262 
L 342.203425 220.614262 
L 350.630442 220.614262 
L 359.057458 220.614262 
L 367.484475 220.614262 
L 375.911492 220.614262 
L 384.338508 220.614262 
L 392.765525 220.614262 
L 401.192542 220.614262 
L 409.619558 220.614262 
L 418.046575 220.614262 
L 426.473592 220.614262 
L 434.900608 220.614262 
L 443.327625 220.614262 
L 451.754641 220.614262 
L 460.181658 220.614262 
L 468.608675 220.614262 
L 477.035691 220.614262 
L 485.462708 220.614262 
L 493.889725 220.614262 
L 502.316741 220.614262 
L 510.743758 220.614262 
L 519.170775 220.614262 
L 527.597791 220.614262 
L 536.024808 220.614262 
L 544.451825 220.614262 
L 552.878841 220.614262 
L 561.305858 220.614262 
L 569.732875 220.614262 
L 578.159891 220.614262 
L 586.586908 220.614262 
L 595.013924 220.614262 
L 603.440941 220.614262 
L 611.867958 220.614262 
L 620.294974 220.614262 
L 628.721991 220.614262 
L 637.149008 220.614262 
L 645.576024 220.614262 
L 654.003041 220.614262 
L 662.430058 220.614262 
L 670.857074 220.614262 
L 679.284091 220.614262 
" clip-path="url(#p2c80722db6)" style="fill: none; stroke: #1f77b4; stroke-width: 1.8; stroke-linecap: square"/>
   </g>
   <g id="line2d_17">
    <path d="M 80.965909 220.614262 
L 89.392926 220.614262 
L 97.819942 220.614262 
L 106.246959 220.614262 
L 114.673976 220.614262 
L 123.100992 220.614262 
L 131.528009 220.614262 
L 139.955026 220.614262 
L 148.382042 220.614262 
L 156.809059 220.614262 
L 165.236076 220.614262 
L 173.663092 220.614262 
L 182.090109 220.614262 
L 190.517125 220.614262 
L 198.944142 220.614262 
L 207.371159 220.614262 
L 215.798175 220.614262 
L 224.225192 220.614262 
L 232.652209 220.614262 
L 241.079225 220.614262 
L 249.506242 220.614262 
L 257.933259 220.614262 
L 266.360275 220.614262 
L 274.787292 220.614262 
L 283.214309 220.614262 
L 291.641325 220.614262 
L 300.068342 220.614262 
L 308.495359 220.614262 
L 316.922375 220.614262 
L 325.349392 220.614262 
L 333.776408 220.614262 
L 342.203425 220.614262 
L 350.630442 220.614262 
L 359.057458 220.614262 
L 367.484475 220.614262 
L 375.911492 220.614262 
L 384.338508 220.614262 
L 392.765525 220.614262 
L 401.192542 220.614262 
L 409.619558 220.614262 
L 418.046575 220.614262 
L 426.473592 220.614262 
L 434.900608 220.614262 
L 443.327625 220.614262 
L 451.754641 220.614262 
L 460.181658 220.614262 
L 468.608675 220.614262 
L 477.035691 220.614262 
L 485.462708 220.614262 
L 493.889725 220.614262 
L 502.316741 220.614262 
L 510.743758 220.614262 
L 519.170775 220.614262 
L 527.597791 220.614262 
L 536.024808 220.614262 
L 544.451825 220.614262 
L 552.878841 220.614262 
L 561.305858 220.614262 
L 569.732875 220.614262 
L 578.159891 220.614262 
L 586.586908 220.614262 
L 595.013924 220.614262 
L 603.440941 220.614262 
L 611.867958 220.614262 
L 620.294974 220.614262 
L 628.721991 220.614262 
L 637.149008 220.614262 
L 645.576024 220.614262 
L 654.003041 220.614262 
L 662.430058 220.614262 
L 670.857074 220.614262 
L 679.284091 220.614262 
" clip-path="url(#p2c80722db6)" style="fill: none; stroke: #ff7f0e; stroke-width: 1.8; stroke-linecap: square"/>
   </g>
   <g id="line2d_18">
    <path d="M 80.965909 220.614262 
L 89.392926 220.614262 
L 97.819942 220.614262 
L 106.246959 220.614262 
L 114.673976 220.614262 
L 123.100992 220.614262 
L 131.528009 220.614262 
L 139.955026 220.614262 
L 148.382042 220.614262 
L 156.809059 220.614262 
L 165.236076 220.614262 
L 173.663092 220.614262 
L 182.090109 220.614262 
L 190.517125 220.614262 
L 198.944142 220.614262 
L 207.371159 220.614262 
L 215.798175 220.614262 
L 224.225192 220.614262 
L 232.652209 220.614262 
L 241.079225 220.614262 
L 249.506242 220.614262 
L 257.933259 220.614262 
L 266.360275 220.614262 
L 274.787292 220.614262 
L 283.214309 220.614262 
L 291.641325 220.614262 
L 300.068342 220.614262 
L 308.495359 220.614262 
L 316.922375 220.614262 
L 325.349392 220.614262 
L 333.776408 220.614262 
L 342.203425 220.614262 
L 350.630442 220.614262 
L 359.057458 220.614262 
L 367.484475 220.614262 
L 375.911492 220.614262 
L 384.338508 220.614262 
L 392.765525 220.614262 
L 401.192542 220.614262 
L 409.619558 220.614262 
L 418.046575 220.614262 
L 426.473592 220.614262 
L 434.900608 220.614262 
L 443.327625 220.614262 
L 451.754641 220.614262 
L 460.181658 220.614262 
L 468.608675 220.614262 
L 477.035691 220.614262 
L 485.462708 220.614262 
L 493.889725 220.614262 
L 502.316741 220.614262 
L 510.743758 220.614262 
L 519.170775 220.614262 
L 527.597791 220.614262 
L 536.024808 220.614262 
L 544.451825 220.614262 
L 552.878841 220.614262 
L 561.305858 220.614262 
L 569.732875 220.614262 
L 578.159891 220.614262 
L 586.586908 220.614262 
L 595.013924 220.614262 
L 603.440941 220.614262 
L 611.867958 220.614262 
L 620.294974 220.614262 
L 628.721991 220.614262 
L 637.149008 220.614262 
L 645.576024 220.614262 
L 654.003041 220.614262 
L 662.430058 220.614262 
L 670.857074 220.614262 
L 679.284091 220.614262 
" clip-path="url(#p2c80722db6)" style="fill: none; stroke: #2ca02c; stroke-width: 1.8; stroke-linecap: square"/>
   </g>
   <g id="line2d_19">
    <path d="M 80.965909 220.614262 
L 89.392926 220.614262 
L 97.819942 220.614262 
L 106.246959 220.614262 
L 114.673976 220.614262 
L 123.100992 220.614262 
L 131.528009 220.614262 
L 139.955026 220.614262 
L 148.382042 220.614262 
L 156.809059 220.614262 
L 165.236076 220.614262 
L 173.663092 220.614262 
L 182.090109 220.614262 
L 190.517125 220.614262 
L 198.944142 220.614262 
L 207.371159 220.614262 
L 215.798175 220.614262 
L 224.225192 220.614262 
L 232.652209 220.614262 
L 241.079225 220.614262 
L 249.506242 220.614262 
L 257.933259 220.614262 
L 266.360275 220.614262 
L 274.787292 220.614262 
L 283.214309 220.614262 
L 291.641325 220.614262 
L 300.068342 220.614262 
L 308.495359 220.614262 
L 316.922375 220.614262 
L 325.349392 220.614262 
L 333.776408 220.614262 
L 342.203425 220.614262 
L 350.630442 220.614262 
L 359.057458 220.614262 
L 367.484475 220.614262 
L 375.911492 220.614262 
L 384.338508 220.614262 
L 392.765525 220.614262 
L 401.192542 220.614262 
L 409.619558 220.614262 
L 418.046575 220.614262 
L 426.473592 220.614262 
L 434.900608 220.614262 
L 443.327625 220.614262 
L 451.754641 220.614262 
L 460.181658 220.614262 
L 468.608675 220.614262 
L 477.035691 220.614262 
L 485.462708 220.614262 
L 493.889725 220.614262 
L 502.316741 220.614262 
L 510.743758 220.614262 
L 519.170775 220.614262 
L 527.597791 220.614262 
L 536.024808 220.614262 
L 544.451825 220.614262 
L 552.878841 220.614262 
L 561.305858 220.614262 
L 569.732875 220.614262 
L 578.159891 220.614262 
L 586.586908 220.614262 
L 595.013924 220.614262 
L 603.440941 220.614262 
L 611.867958 220.614262 
L 620.294974 220.614262 
L 628.721991 220.614262 
L 637.149008 220.614262 
L 645.576024 220.614262 
L 654.003041 220.614262 
L 662.430058 220.614262 
L 670.857074 220.614262 
L 679.284091 220.614262 
" clip-path="url(#p2c80722db6)" style="fill: none; stroke: #d62728; stroke-width: 1.8; stroke-linecap: square"/>
   </g>
   <g id="line2d_20">
    <path d="M 80.965909 220.614262 
L 89.392926 220.614262 
L 97.819942 220.614262 
L 106.246959 220.614262 
L 114.673976 220.614262 
L 123.100992 269.251695 
L 131.528009 269.251695 
L 139.955026 269.251695 
L 148.382042 269.251695 
L 156.809059 269.251695 
L 165.236076 226.299347 
L 173.663092 220.614262 
L 182.090109 203.986335 
L 190.517125 158.895865 
L 198.944142 158.895865 
L 207.371159 131.580395 
L 215.798175 111.847136 
L 224.225192 111.847136 
L 232.652209 131.076941 
L 241.079225 131.076941 
L 249.506242 169.342488 
L 257.933259 169.342488 
L 266.360275 169.342488 
L 274.787292 220.614262 
L 283.214309 220.614262 
L 291.641325 220.614262 
L 300.068342 220.614262 
L 308.495359 220.614262 
L 316.922375 220.614262 
L 325.349392 274.432824 
L 333.776408 274.432824 
L 342.203425 274.432824 
L 350.630442 274.432824 
L 359.057458 274.432824 
L 367.484475 234.218912 
L 375.911492 220.614262 
L 384.338508 178.25022 
L 392.765525 133.666199 
L 401.192542 133.666199 
L 409.619558 133.666199 
L 418.046575 133.666199 
L 426.473592 133.666199 
L 434.900608 133.666199 
L 443.327625 133.666199 
L 451.754641 133.666199 
L 460.181658 134.991937 
L 468.608675 183.597338 
L 477.035691 211.512619 
L 485.462708 213.363122 
L 493.889725 239.206007 
L 502.316741 291.759879 
L 510.743758 318.631784 
L 519.170775 373.095599 
L 527.597791 373.095599 
L 536.024808 373.095599 
L 544.451825 373.095599 
L 552.878841 373.095599 
L 561.305858 373.095599 
L 569.732875 373.095599 
L 578.159891 373.095599 
L 586.586908 328.13828 
L 595.013924 328.13828 
L 603.440941 297.911021 
L 611.867958 259.407283 
L 620.294974 259.407283 
L 628.721991 220.614262 
L 637.149008 220.614262 
L 645.576024 220.614262 
L 654.003041 220.614262 
L 662.430058 220.614262 
L 670.857074 220.614262 
L 679.284091 220.614262 
" clip-path="url(#p2c80722db6)" style="fill: none; stroke: #9467bd; stroke-width: 1.8; stroke-linecap: square"/>
   </g>
   <g id="line2d_21">
    <path d="M 80.965909 220.614262 
L 89.392926 220.614262 
L 97.819942 220.614262 
L 106.246959 220.614262 
L 114.673976 220.614262 
L 123.100992 220.614262 
L 131.528009 220.614262 
L 139.955026 220.614262 
L 148.382042 220.614262 
L 156.809059 220.614262 
L 165.236076 220.614262 
L 173.663092 220.614262 
L 182.090109 220.614262 
L 190.517125 220.614262 
L 198.944142 220.614262 
L 207.371159 220.614262 
L 215.798175 220.614262 
L 224.225192 220.614262 
L 232.652209 220.614262 
L 241.079225 220.614262 
L 249.506242 220.614262 
L 257.933259 220.614262 
L 266.360275 220.614262 
L 274.787292 220.614262 
L 283.214309 220.614262 
L 291.641325 220.614262 
L 300.068342 220.614262 
L 308.495359 220.614262 
L 316.922375 220.614262 
L 325.349392 220.614262 
L 333.776408 220.614262 
L 342.203425 220.614262 
L 350.630442 220.614262 
L 359.057458 220.614262 
L 367.484475 220.614262 
L 375.911492 220.614262 
L 384.338508 220.614262 
L 392.765525 220.614262 
L 401.192542 220.614262 
L 409.619558 220.614262 
L 418.046575 220.614262 
L 426.473592 220.614262 
L 434.900608 220.614262 
L 443.327625 220.614262 
L 451.754641 220.614262 
L 460.181658 220.614262 
L 468.608675 220.614262 
L 477.035691 220.614262 
L 485.462708 220.614262 
L 493.889725 220.614262 
L 502.316741 220.614262 
L 510.743758 220.614262 
L 519.170775 220.614262 
L 527.597791 220.614262 
L 536.024808 220.614262 
L 544.451825 220.614262 
L 552.878841 220.614262 
L 561.305858 220.614262 
L 569.732875 220.614262 
L 578.159891 220.614262 
L 586.586908 220.614262 
L 595.013924 220.614262 
L 603.440941 220.614262 
L 611.867958 220.614262 
L 620.294974 220.614262 
L 628.721991 220.614262 
L 637.149008 220.614262 
L 645.576024 220.614262 
L 654.003041 220.614262 
L 662.430058 220.614262 
L 670.857074 220.614262 
L 679.284091 220.614262 
" clip-path="url(#p2c80722db6)" style="fill: none; stroke: #8c564b; stroke-width: 1.8; stroke-linecap: square"/>
   </g>
   <g id="line2d_22">
    <path d="M 80.965909 53.062608 
L 89.392926 53.062608 
L 97.819942 53.062608 
L 106.246959 53.062608 
L 114.673976 53.062608 
L 123.100992 53.062608 
L 131.528009 53.062608 
L 139.955026 53.062608 
L 148.382042 53.062608 
L 156.809059 53.062608 
L 165.236076 53.062608 
L 173.663092 53.062608 
L 182.090109 53.062608 
L 190.517125 53.062608 
L 198.944142 53.062608 
L 207.371159 53.062608 
L 215.798175 53.062608 
L 224.225192 53.062608 
L 232.652209 53.062608 
L 241.079225 53.062608 
L 249.506242 53.062608 
L 257.933259 53.062608 
L 266.360275 53.062608 
L 274.787292 53.062608 
L 283.214309 53.062608 
L 291.641325 53.062608 
L 300.068342 53.062608 
L 308.495359 53.062608 
L 316.922375 53.062608 
L 325.349392 53.062608 
L 333.776408 53.062608 
L 342.203425 53.062608 
L 350.630442 53.062608 
L 359.057458 53.062608 
L 367.484475 53.062608 
L 375.911492 53.062608 
L 384.338508 53.062608 
L 392.765525 53.062608 
L 401.192542 53.062608 
L 409.619558 53.062608 
L 418.046575 53.062608 
L 426.473592 53.062608 
L 434.900608 53.062608 
L 443.327625 53.062608 
L 451.754641 53.062608 
L 460.181658 53.062608 
L 468.608675 53.062608 
L 477.035691 53.062608 
L 485.462708 53.062608 
L 493.889725 53.062608 
L 502.316741 53.062608 
L 510.743758 53.062608 
L 519.170775 53.062608 
L 527.597791 53.062608 
L 536.024808 53.062608 
L 544.451825 53.062608 
L 552.878841 53.062608 
L 561.305858 53.062608 
L 569.732875 53.062608 
L 578.159891 53.062608 
L 586.586908 53.062608 
L 595.013924 53.062608 
L 603.440941 53.062608 
L 611.867958 53.062608 
L 620.294974 53.062608 
L 628.721991 53.062608 
L 637.149008 53.062608 
L 645.576024 53.062608 
L 654.003041 53.062608 
L 662.430058 53.062608 
L 670.857074 53.062608 
L 679.284091 53.062608 
" clip-path="url(#p2c80722db6)" style="fill: none; stroke: #e377c2; stroke-width: 1.8; stroke-linecap: square"/>
   </g>
   <g id="line2d_23">
    <path d="M 80.965909 53.062608 
L 89.392926 53.062608 
L 97.819942 53.062608 
L 106.246959 53.062608 
L 114.673976 53.062608 
L 123.100992 53.062608 
L 131.528009 53.062608 
L 139.955026 53.062608 
L 148.382042 53.062608 
L 156.809059 53.062608 
L 165.236076 53.062608 
L 173.663092 53.062608 
L 182.090109 53.062608 
L 190.517125 53.062608 
L 198.944142 53.062608 
L 207.371159 53.062608 
L 215.798175 53.062608 
L 224.225192 53.062608 
L 232.652209 53.062608 
L 241.079225 53.062608 
L 249.506242 53.062608 
L 257.933259 53.062608 
L 266.360275 53.062608 
L 274.787292 53.062608 
L 283.214309 53.062608 
L 291.641325 53.062608 
L 300.068342 53.062608 
L 308.495359 53.062608 
L 316.922375 53.062608 
L 325.349392 53.062608 
L 333.776408 53.062608 
L 342.203425 53.062608 
L 350.630442 53.062608 
L 359.057458 53.062608 
L 367.484475 53.062608 
L 375.911492 53.062608 
L 384.338508 53.062608 
L 392.765525 53.062608 
L 401.192542 53.062608 
L 409.619558 53.062608 
L 418.046575 53.062608 
L 426.473592 75.330406 
L 434.900608 75.330406 
L 443.327625 75.330406 
L 451.754641 75.330406 
L 460.181658 83.884872 
L 468.608675 83.884872 
L 477.035691 98.239457 
L 485.462708 98.239457 
L 493.889725 98.239457 
L 502.316741 98.239457 
L 510.743758 98.239457 
L 519.170775 98.239457 
L 527.597791 98.239457 
L 536.024808 98.239457 
L 544.451825 98.239457 
L 552.878841 98.239457 
L 561.305858 98.239457 
L 569.732875 98.239457 
L 578.159891 97.887899 
L 586.586908 92.587069 
L 595.013924 87.87189 
L 603.440941 86.321785 
L 611.867958 86.321785 
L 620.294974 86.321785 
L 628.721991 86.321785 
L 637.149008 79.788316 
L 645.576024 67.410795 
L 654.003041 56.240742 
L 662.430058 42.012727 
L 670.857074 50.81794 
L 679.284091 53.062608 
" clip-path="url(#p2c80722db6)" style="fill: none; stroke: #7f7f7f; stroke-width: 1.8; stroke-linecap: square"/>
   </g>
   <g id="line2d_24">
    <path d="M 80.965909 53.062608 
L 89.392926 53.062608 
L 97.819942 53.062608 
L 106.246959 53.062608 
L 114.673976 53.062608 
L 123.100992 53.062608 
L 131.528009 53.062608 
L 139.955026 53.062608 
L 148.382042 53.062608 
L 156.809059 53.062608 
L 165.236076 53.062608 
L 173.663092 53.062608 
L 182.090109 53.062608 
L 190.517125 53.062608 
L 198.944142 53.062608 
L 207.371159 53.062608 
L 215.798175 53.062608 
L 224.225192 53.062608 
L 232.652209 53.062608 
L 241.079225 53.062608 
L 249.506242 53.062608 
L 257.933259 53.062608 
L 266.360275 53.062608 
L 274.787292 53.062608 
L 283.214309 53.062608 
L 291.641325 53.062608 
L 300.068342 53.062608 
L 308.495359 53.062608 
L 316.922375 53.062608 
L 325.349392 53.062608 
L 333.776408 53.062608 
L 342.203425 53.062608 
L 350.630442 53.062608 
L 359.057458 53.062608 
L 367.484475 53.062608 
L 375.911492 53.062608 
L 384.338508 53.062608 
L 392.765525 53.062608 
L 401.192542 53.062608 
L 409.619558 53.062608 
L 418.046575 53.062608 
L 426.473592 53.062608 
L 434.900608 53.062608 
L 443.327625 53.062608 
L 451.754641 53.062608 
L 460.181658 53.062608 
L 468.608675 53.062608 
L 477.035691 53.062608 
L 485.462708 53.062608 
L 493.889725 53.062608 
L 502.316741 53.062608 
L 510.743758 53.062608 
L 519.170775 53.062608 
L 527.597791 53.062608 
L 536.024808 53.062608 
L 544.451825 53.062608 
L 552.878841 53.062608 
L 561.305858 53.062608 
L 569.732875 53.062608 
L 578.159891 53.062608 
L 586.586908 53.062608 
L 595.013924 53.062608 
L 603.440941 53.062608 
L 611.867958 53.062608 
L 620.294974 53.062608 
L 628.721991 53.062608 
L 637.149008 53.062608 
L 645.576024 53.062608 
L 654.003041 53.062608 
L 662.430058 53.062608 
L 670.857074 53.062608 
L 679.284091 53.062608 
" clip-path="url(#p2c80722db6)" style="fill: none; stroke: #bcbd22; stroke-width: 1.8; stroke-linecap: square"/>
   </g>
   <g id="line2d_25">
    <path d="M 80.965909 294.33699 
L 89.392926 294.33699 
L 97.819942 294.33699 
L 106.246959 294.33699 
L 114.673976 294.33699 
L 123.100992 294.33699 
L 131.528009 294.33699 
L 139.955026 294.33699 
L 148.382042 294.33699 
L 156.809059 294.33699 
L 165.236076 294.33699 
L 173.663092 294.33699 
L 182.090109 294.33699 
L 190.517125 294.33699 
L 198.944142 294.33699 
L 207.371159 294.33699 
L 215.798175 294.33699 
L 224.225192 294.33699 
L 232.652209 294.33699 
L 241.079225 294.33699 
L 249.506242 294.33699 
L 257.933259 294.33699 
L 266.360275 294.33699 
L 274.787292 294.33699 
L 283.214309 294.33699 
L 291.641325 294.33699 
L 300.068342 294.33699 
L 308.495359 294.33699 
L 316.922375 294.33699 
L 325.349392 294.33699 
L 333.776408 294.33699 
L 342.203425 294.33699 
L 350.630442 294.33699 
L 359.057458 294.33699 
L 367.484475 294.33699 
L 375.911492 294.33699 
L 384.338508 294.33699 
L 392.765525 294.33699 
L 401.192542 294.33699 
L 409.619558 294.33699 
L 418.046575 294.33699 
L 426.473592 294.33699 
L 434.900608 294.33699 
L 443.327625 294.33699 
L 451.754641 294.33699 
L 460.181658 294.33699 
L 468.608675 294.33699 
L 477.035691 294.33699 
L 485.462708 294.33699 
L 493.889725 294.33699 
L 502.316741 294.33699 
L 510.743758 294.33699 
L 519.170775 294.33699 
L 527.597791 294.33699 
L 536.024808 294.33699 
L 544.451825 294.33699 
L 552.878841 294.33699 
L 561.305858 294.33699 
L 569.732875 294.33699 
L 578.159891 294.33699 
L 586.586908 294.33699 
L 595.013924 294.33699 
L 603.440941 294.33699 
L 611.867958 294.33699 
L 620.294974 294.33699 
L 628.721991 294.33699 
L 637.149008 294.33699 
L 645.576024 294.33699 
L 654.003041 294.33699 
L 662.430058 294.33699 
L 670.857074 294.33699 
L 679.284091 294.33699 
" clip-path="url(#p2c80722db6)" style="fill: none; stroke: #17becf; stroke-width: 1.8; stroke-linecap: square"/>
   </g>
   <g id="line2d_26">
    <path d="M 80.965909 294.33699 
L 89.392926 294.33699 
L 97.819942 294.33699 
L 106.246959 294.33699 
L 114.673976 294.33699 
L 123.100992 294.33699 
L 131.528009 294.33699 
L 139.955026 294.33699 
L 148.382042 294.33699 
L 156.809059 294.33699 
L 165.236076 294.33699 
L 173.663092 294.33699 
L 182.090109 294.33699 
L 190.517125 294.33699 
L 198.944142 294.33699 
L 207.371159 294.33699 
L 215.798175 294.33699 
L 224.225192 294.33699 
L 232.652209 294.33699 
L 241.079225 294.33699 
L 249.506242 294.33699 
L 257.933259 294.33699 
L 266.360275 294.33699 
L 274.787292 294.33699 
L 283.214309 294.33699 
L 291.641325 294.33699 
L 300.068342 294.33699 
L 308.495359 294.33699 
L 316.922375 294.33699 
L 325.349392 294.33699 
L 333.776408 294.33699 
L 342.203425 294.33699 
L 350.630442 294.33699 
L 359.057458 294.33699 
L 367.484475 294.33699 
L 375.911492 294.33699 
L 384.338508 294.33699 
L 392.765525 294.33699 
L 401.192542 294.33699 
L 409.619558 294.33699 
L 418.046575 294.33699 
L 426.473592 294.33699 
L 434.900608 294.33699 
L 443.327625 294.33699 
L 451.754641 294.33699 
L 460.181658 294.33699 
L 468.608675 294.33699 
L 477.035691 294.33699 
L 485.462708 294.33699 
L 493.889725 294.33699 
L 502.316741 294.33699 
L 510.743758 294.33699 
L 519.170775 294.33699 
L 527.597791 294.33699 
L 536.024808 294.33699 
L 544.451825 294.33699 
L 552.878841 294.33699 
L 561.305858 294.33699 
L 569.732875 294.33699 
L 578.159891 294.33699 
L 586.586908 294.33699 
L 595.013924 294.33699 
L 603.440941 294.33699 
L 611.867958 294.33699 
L 620.294974 294.33699 
L 628.721991 294.33699 
L 637.149008 294.33699 
L 645.576024 294.33699 
L 654.003041 294.33699 
L 662.430058 294.33699 
L 670.857074 294.33699 
L 679.284091 294.33699 
" clip-path="url(#p2c80722db6)" style="fill: none; stroke: #1f77b4; stroke-width: 1.8; stroke-linecap: square"/>
   </g>
   <g id="line2d_27">
    <path d="M 80.965909 294.33699 
L 89.392926 294.33699 
L 97.819942 294.33699 
L 106.246959 294.33699 
L 114.673976 294.33699 
L 123.100992 294.33699 
L 131.528009 294.33699 
L 139.955026 294.33699 
L 148.382042 294.33699 
L 156.809059 294.33699 
L 165.236076 294.33699 
L 173.663092 294.33699 
L 182.090109 294.33699 
L 190.517125 294.33699 
L 198.944142 294.33699 
L 207.371159 294.33699 
L 215.798175 294.33699 
L 224.225192 294.33699 
L 232.652209 294.33699 
L 241.079225 294.33699 
L 249.506242 294.33699 
L 257.933259 294.33699 
L 266.360275 294.33699 
L 274.787292 294.33699 
L 283.214309 294.33699 
L 291.641325 294.33699 
L 300.068342 294.33699 
L 308.495359 294.33699 
L 316.922375 294.33699 
L 325.349392 294.33699 
L 333.776408 294.33699 
L 342.203425 294.33699 
L 350.630442 294.33699 
L 359.057458 294.33699 
L 367.484475 294.33699 
L 375.911492 294.33699 
L 384.338508 294.33699 
L 392.765525 294.33699 
L 401.192542 294.33699 
L 409.619558 294.33699 
L 418.046575 294.33699 
L 426.473592 294.33699 
L 434.900608 294.33699 
L 443.327625 294.33699 
L 451.754641 294.33699 
L 460.181658 294.33699 
L 468.608675 294.33699 
L 477.035691 294.33699 
L 485.462708 294.33699 
L 493.889725 294.33699 
L 502.316741 294.33699 
L 510.743758 294.33699 
L 519.170775 294.33699 
L 527.597791 294.33699 
L 536.024808 294.33699 
L 544.451825 294.33699 
L 552.878841 294.33699 
L 561.305858 294.33699 
L 569.732875 294.33699 
L 578.159891 294.33699 
L 586.586908 294.33699 
L 595.013924 294.33699 
L 603.440941 294.33699 
L 611.867958 294.33699 
L 620.294974 294.33699 
L 628.721991 294.33699 
L 637.149008 294.33699 
L 645.576024 294.33699 
L 654.003041 294.33699 
L 662.430058 294.33699 
L 670.857074 294.33699 
L 679.284091 294.33699 
" clip-path="url(#p2c80722db6)" style="fill: none; stroke: #ff7f0e; stroke-width: 1.8; stroke-linecap: square"/>
   </g>
   <g id="line2d_28">
    <path d="M 80.965909 294.33699 
L 89.392926 294.33699 
L 97.819942 294.33699 
L 106.246959 316.580157 
L 114.673976 360.739481 
L 123.100992 360.739481 
L 131.528009 360.739481 
L 139.955026 360.739481 
L 148.382042 360.739481 
L 156.809059 329.280876 
L 165.236076 329.280876 
L 173.663092 294.33699 
L 182.090109 284.260519 
L 190.517125 284.260519 
L 198.944142 242.037502 
L 207.371159 242.037502 
L 215.798175 242.037502 
L 224.225192 242.037502 
L 232.652209 242.037502 
L 241.079225 258.094059 
L 249.506242 258.094059 
L 257.933259 277.254062 
L 266.360275 294.33699 
L 274.787292 294.33699 
L 283.214309 294.33699 
L 291.641325 294.33699 
L 300.068342 294.33699 
L 308.495359 294.33699 
L 316.922375 321.684693 
L 325.349392 321.684693 
L 333.776408 321.684693 
L 342.203425 321.684693 
L 350.630442 321.684693 
L 359.057458 315.539617 
L 367.484475 315.539617 
L 375.911492 294.33699 
L 384.338508 294.33699 
L 392.765525 294.33699 
L 401.192542 276.613999 
L 409.619558 256.468345 
L 418.046575 230.402165 
L 426.473592 200.508064 
L 434.900608 200.508064 
L 443.327625 200.508064 
L 451.754641 200.508064 
L 460.181658 200.508064 
L 468.608675 200.508064 
L 477.035691 200.508064 
L 485.462708 252.635245 
L 493.889725 252.635245 
L 502.316741 252.635245 
L 510.743758 252.635245 
L 519.170775 252.635245 
L 527.597791 304.762427 
L 536.024808 354.832946 
L 544.451825 373.467273 
L 552.878841 373.467273 
L 561.305858 332.214999 
L 569.732875 310.378608 
L 578.159891 288.658682 
L 586.586908 288.658682 
L 595.013924 255.986875 
L 603.440941 255.986875 
L 611.867958 255.986875 
L 620.294974 217.505469 
L 628.721991 217.505469 
L 637.149008 217.505469 
L 645.576024 217.505469 
L 654.003041 217.505469 
L 662.430058 217.505469 
L 670.857074 266.543192 
L 679.284091 294.33699 
" clip-path="url(#p2c80722db6)" style="fill: none; stroke: #2ca02c; stroke-width: 1.8; stroke-linecap: square"/>
   </g>
   <g id="line2d_29">
    <path d="M 80.965909 294.33699 
L 89.392926 294.33699 
L 97.819942 294.33699 
L 106.246959 294.33699 
L 114.673976 294.33699 
L 123.100992 294.33699 
L 131.528009 294.33699 
L 139.955026 294.33699 
L 148.382042 294.33699 
L 156.809059 294.33699 
L 165.236076 294.33699 
L 173.663092 294.33699 
L 182.090109 291.987811 
L 190.517125 291.701479 
L 198.944142 291.701479 
L 207.371159 293.247966 
L 215.798175 293.247966 
L 224.225192 292.908706 
L 232.652209 289.276628 
L 241.079225 286.501843 
L 249.506242 285.404503 
L 257.933259 289.77771 
L 266.360275 289.77771 
L 274.787292 294.33699 
L 283.214309 294.33699 
L 291.641325 294.33699 
L 300.068342 294.33699 
L 308.495359 294.771452 
L 316.922375 295.358643 
L 325.349392 295.955065 
L 333.776408 296.402416 
L 342.203425 297.132208 
L 350.630442 295.441449 
L 359.057458 294.33699 
L 367.484475 294.33699 
L 375.911492 294.33699 
L 384.338508 295.523375 
L 392.765525 296.421735 
L 401.192542 296.421735 
L 409.619558 296.421735 
L 418.046575 296.421735 
L 426.473592 296.421735 
L 434.900608 296.421735 
L 443.327625 296.421735 
L 451.754641 296.862596 
L 460.181658 296.862596 
L 468.608675 297.209677 
L 477.035691 297.334239 
L 485.462708 297.334239 
L 493.889725 297.334239 
L 502.316741 297.334239 
L 510.743758 297.334239 
L 519.170775 297.334239 
L 527.597791 297.334239 
L 536.024808 297.334239 
L 544.451825 297.334239 
L 552.878841 297.334239 
L 561.305858 294.33699 
L 569.732875 294.33699 
L 578.159891 294.33699 
L 586.586908 294.33699 
L 595.013924 294.33699 
L 603.440941 294.33699 
L 611.867958 294.33699 
L 620.294974 294.33699 
L 628.721991 294.33699 
L 637.149008 294.33699 
L 645.576024 294.33699 
L 654.003041 294.33699 
L 662.430058 294.33699 
L 670.857074 294.33699 
L 679.284091 294.33699 
" clip-path="url(#p2c80722db6)" style="fill: none; stroke: #d62728; stroke-width: 1.8; stroke-linecap: square"/>
   </g>
   <g id="line2d_30">
    <path d="M 80.965909 294.33699 
L 89.392926 294.33699 
L 97.819942 294.33699 
L 106.246959 294.33699 
L 114.673976 294.33699 
L 123.100992 294.33699 
L 131.528009 294.33699 
L 139.955026 294.33699 
L 148.382042 294.33699 
L 156.809059 294.33699 
L 165.236076 294.33699 
L 173.663092 294.33699 
L 182.090109 273.225482 
L 190.517125 273.225482 
L 198.944142 271.115401 
L 207.371159 257.171541 
L 215.798175 236.060032 
L 224.225192 216.146218 
L 232.652209 216.146218 
L 241.079225 242.209809 
L 249.506242 242.209809 
L 257.933259 268.2734 
L 266.360275 294.33699 
L 274.787292 294.33699 
L 283.214309 294.33699 
L 291.641325 294.33699 
L 300.068342 294.33699 
L 308.495359 294.33699 
L 316.922375 294.33699 
L 325.349392 294.33699 
L 333.776408 294.33699 
L 342.203425 294.33699 
L 350.630442 294.33699 
L 359.057458 294.33699 
L 367.484475 294.33699 
L 375.911492 294.33699 
L 384.338508 294.33699 
L 392.765525 294.33699 
L 401.192542 273.225482 
L 409.619558 253.353322 
L 418.046575 253.353322 
L 426.473592 253.353322 
L 434.900608 253.353322 
L 443.327625 253.353322 
L 451.754641 253.353322 
L 460.181658 253.353322 
L 468.608675 253.353322 
L 477.035691 279.416913 
L 485.462708 279.416913 
L 493.889725 305.480504 
L 502.316741 305.480504 
L 510.743758 331.544094 
L 519.170775 331.544094 
L 527.597791 333.716231 
L 536.024808 333.716231 
L 544.451825 333.716231 
L 552.878841 333.716231 
L 561.305858 333.716231 
L 569.732875 312.604723 
L 578.159891 291.493214 
L 586.586908 291.493214 
L 595.013924 279.524717 
L 603.440941 268.2734 
L 611.867958 268.2734 
L 620.294974 268.2734 
L 628.721991 268.2734 
L 637.149008 268.2734 
L 645.576024 268.2734 
L 654.003041 268.2734 
L 662.430058 268.2734 
L 670.857074 268.2734 
L 679.284091 294.33699 
" clip-path="url(#p2c80722db6)" style="fill: none; stroke: #9467bd; stroke-width: 1.8; stroke-linecap: square"/>
   </g>
   <g id="line2d_31">
    <path d="M 80.965909 294.33699 
L 89.392926 294.33699 
L 97.819942 294.33699 
L 106.246959 294.33699 
L 114.673976 294.33699 
L 123.100992 294.33699 
L 131.528009 294.33699 
L 139.955026 294.33699 
L 148.382042 294.33699 
L 156.809059 294.33699 
L 165.236076 294.33699 
L 173.663092 294.33699 
L 182.090109 294.33699 
L 190.517125 294.33699 
L 198.944142 294.33699 
L 207.371159 294.33699 
L 215.798175 294.33699 
L 224.225192 294.33699 
L 232.652209 294.33699 
L 241.079225 294.33699 
L 249.506242 294.33699 
L 257.933259 294.33699 
L 266.360275 294.33699 
L 274.787292 294.33699 
L 283.214309 294.33699 
L 291.641325 294.33699 
L 300.068342 294.33699 
L 308.495359 294.33699 
L 316.922375 294.33699 
L 325.349392 294.33699 
L 333.776408 294.33699 
L 342.203425 294.33699 
L 350.630442 294.33699 
L 359.057458 294.33699 
L 367.484475 294.33699 
L 375.911492 294.33699 
L 384.338508 294.33699 
L 392.765525 294.33699 
L 401.192542 294.33699 
L 409.619558 294.33699 
L 418.046575 294.33699 
L 426.473592 294.33699 
L 434.900608 294.33699 
L 443.327625 294.33699 
L 451.754641 294.33699 
L 460.181658 294.33699 
L 468.608675 294.33699 
L 477.035691 294.33699 
L 485.462708 294.33699 
L 493.889725 294.33699 
L 502.316741 294.33699 
L 510.743758 294.33699 
L 519.170775 294.33699 
L 527.597791 294.33699 
L 536.024808 294.33699 
L 544.451825 294.33699 
L 552.878841 294.33699 
L 561.305858 294.33699 
L 569.732875 294.33699 
L 578.159891 294.33699 
L 586.586908 294.33699 
L 595.013924 294.33699 
L 603.440941 294.33699 
L 611.867958 294.33699 
L 620.294974 294.33699 
L 628.721991 294.33699 
L 637.149008 294.33699 
L 645.576024 294.33699 
L 654.003041 294.33699 
L 662.430058 294.33699 
L 670.857074 294.33699 
L 679.284091 294.33699 
" clip-path="url(#p2c80722db6)" style="fill: none; stroke: #8c564b; stroke-width: 1.8; stroke-linecap: square"/>
   </g>
   <g id="line2d_32">
    <path d="M 80.965909 294.33699 
L 89.392926 294.33699 
L 97.819942 294.33699 
L 106.246959 294.33699 
L 114.673976 294.33699 
L 123.100992 294.33699 
L 131.528009 294.33699 
L 139.955026 294.33699 
L 148.382042 294.33699 
L 156.809059 294.33699 
L 165.236076 294.33699 
L 173.663092 294.33699 
L 182.090109 294.33699 
L 190.517125 294.33699 
L 198.944142 294.33699 
L 207.371159 294.33699 
L 215.798175 294.33699 
L 224.225192 294.33699 
L 232.652209 294.33699 
L 241.079225 294.33699 
L 249.506242 294.33699 
L 257.933259 294.33699 
L 266.360275 294.33699 
L 274.787292 294.33699 
L 283.214309 294.33699 
L 291.641325 294.33699 
L 300.068342 294.33699 
L 308.495359 294.33699 
L 316.922375 294.33699 
L 325.349392 294.33699 
L 333.776408 294.33699 
L 342.203425 294.33699 
L 350.630442 294.33699 
L 359.057458 294.33699 
L 367.484475 294.33699 
L 375.911492 294.33699 
L 384.338508 294.33699 
L 392.765525 294.33699 
L 401.192542 294.33699 
L 409.619558 294.33699 
L 418.046575 294.33699 
L 426.473592 294.33699 
L 434.900608 294.33699 
L 443.327625 294.33699 
L 451.754641 294.33699 
L 460.181658 294.33699 
L 468.608675 294.33699 
L 477.035691 294.33699 
L 485.462708 294.33699 
L 493.889725 294.33699 
L 502.316741 294.33699 
L 510.743758 294.33699 
L 519.170775 294.33699 
L 527.597791 294.33699 
L 536.024808 294.33699 
L 544.451825 294.33699 
L 552.878841 294.33699 
L 561.305858 294.33699 
L 569.732875 294.33699 
L 578.159891 294.33699 
L 586.586908 294.33699 
L 595.013924 294.33699 
L 603.440941 294.33699 
L 611.867958 294.33699 
L 620.294974 294.33699 
L 628.721991 294.33699 
L 637.149008 294.33699 
L 645.576024 294.33699 
L 654.003041 294.33699 
L 662.430058 294.33699 
L 670.857074 294.33699 
L 679.284091 294.33699 
" clip-path="url(#p2c80722db6)" style="fill: none; stroke: #e377c2; stroke-width: 1.8; stroke-linecap: square"/>
   </g>
   <g id="line2d_33">
    <path d="M 80.965909 294.33699 
L 89.392926 294.33699 
L 97.819942 294.33699 
L 106.246959 294.33699 
L 114.673976 294.33699 
L 123.100992 294.33699 
L 131.528009 294.33699 
L 139.955026 294.33699 
L 148.382042 294.33699 
L 156.809059 294.33699 
L 165.236076 294.33699 
L 173.663092 294.33699 
L 182.090109 294.33699 
L 190.517125 294.33699 
L 198.944142 294.33699 
L 207.371159 294.33699 
L 215.798175 294.33699 
L 224.225192 294.33699 
L 232.652209 294.33699 
L 241.079225 294.33699 
L 249.506242 294.33699 
L 257.933259 294.33699 
L 266.360275 294.33699 
L 274.787292 294.33699 
L 283.214309 294.33699 
L 291.641325 294.33699 
L 300.068342 294.33699 
L 308.495359 294.33699 
L 316.922375 294.33699 
L 325.349392 294.33699 
L 333.776408 294.33699 
L 342.203425 294.33699 
L 350.630442 294.33699 
L 359.057458 294.33699 
L 367.484475 294.33699 
L 375.911492 294.33699 
L 384.338508 294.33699 
L 392.765525 294.33699 
L 401.192542 294.33699 
L 409.619558 294.33699 
L 418.046575 294.33699 
L 426.473592 294.33699 
L 434.900608 294.33699 
L 443.327625 294.33699 
L 451.754641 294.33699 
L 460.181658 294.33699 
L 468.608675 294.33699 
L 477.035691 294.33699 
L 485.462708 294.33699 
L 493.889725 294.33699 
L 502.316741 294.33699 
L 510.743758 294.33699 
L 519.170775 294.33699 
L 527.597791 294.33699 
L 536.024808 294.33699 
L 544.451825 294.33699 
L 552.878841 294.33699 
L 561.305858 294.33699 
L 569.732875 294.33699 
L 578.159891 294.33699 
L 586.586908 294.33699 
L 595.013924 294.33699 
L 603.440941 294.33699 
L 611.867958 294.33699 
L 620.294974 294.33699 
L 628.721991 294.33699 
L 637.149008 294.33699 
L 645.576024 294.33699 
L 654.003041 294.33699 
L 662.430058 294.33699 
L 670.857074 294.33699 
L 679.284091 294.33699 
" clip-path="url(#p2c80722db6)" style="fill: none; stroke: #7f7f7f; stroke-width: 1.8; stroke-linecap: square"/>
   </g>
   <g id="patch_3">
    <path d="M 51.05 390.04 
L 51.05 25.44 
" style="fill: none; stroke: #000000; stroke-width: 0.8; stroke-linejoin: miter; stroke-linecap: square"/>
   </g>
   <g id="patch_4">
    <path d="M 709.2 390.04 
L 709.2 25.44 
" style="fill: none; stroke: #000000; stroke-width: 0.8; stroke-linejoin: miter; stroke-linecap: square"/>
   </g>
   <g id="patch_5">
    <path d="M 51.05 390.04 
L 709.2 390.04 
" style="fill: none; stroke: #000000; stroke-width: 0.8; stroke-linejoin: miter; stroke-linecap: square"/>
   </g>
   <g id="patch_6">
    <path d="M 51.05 25.44 
L 709.2 25.44 
" style="fill: none; stroke: #000000; stroke-width: 0.8; stroke-linejoin: miter; stroke-linecap: square"/>
   </g>
   <g id="text_18">
    <!-- SoC by battery (T=72, F=12, L=24) -->
    <g transform="translate(272.7175 19.44) scale(0.12 -0.12)">
     <defs>
      <path id="DejaVuSans-62" d="M 3116 1747 
Q 3116 2381 2855 2742 
Q 2594 3103 2138 3103 
Q 1681 3103 1420 2742 
Q 1159 2381 1159 1747 
Q 1159 1113 1420 752 
Q 1681 391 2138 391 
Q 2594 391 2855 752 
Q 3116 1113 3116 1747 
z
M 1159 2969 
Q 1341 3281 1617 3432 
Q 1894 3584 2278 3584 
Q 2916 3584 3314 3078 
Q 3713 2572 3713 1747 
Q 3713 922 3314 415 
Q 2916 -91 2278 -91 
Q 1894 -91 1617 61 
Q 1341 213 1159 525 
L 1159 0 
L 581 0 
L 581 4863 
L 1159 4863 
L 1159 2969 
z
" transform="scale(0.015625)"/>
      <path id="DejaVuSans-79" d="M 2059 -325 
Q 1816 -950 1584 -1140 
Q 1353 -1331 966 -1331 
L 506 -1331 
L 506 -850 
L 844 -850 
Q 1081 -850 1212 -737 
Q 1344 -625 1503 -206 
L 1606 56 
L 191 3500 
L 800 3500 
L 1894 763 
L 2988 3500 
L 3597 3500 
L 2059 -325 
z
" transform="scale(0.015625)"/>
      <path id="DejaVuSans-61" d="M 2194 1759 
Q 1497 1759 1228 1600 
Q 959 1441 959 1056 
Q 959 750 1161 570 
Q 1363 391 1709 391 
Q 2188 391 2477 730 
Q 2766 1069 2766 1631 
L 2766 1759 
L 2194 1759 
z
M 3341 1997 
L 3341 0 
L 2766 0 
L 2766 531 
Q 2569 213 2275 61 
Q 1981 -91 1556 -91 
Q 1019 -91 701 211 
Q 384 513 384 1019 
Q 384 1609 779 1909 
Q 1175 2209 1959 2209 
L 2766 2209 
L 2766 2266 
Q 2766 2663 2505 2880 
Q 2244 3097 1772 3097 
Q 1472 3097 1187 3025 
Q 903 2953 641 2809 
L 641 3341 
Q 956 3463 1253 3523 
Q 1550 3584 1831 3584 
Q 2591 3584 2966 3190 
Q 3341 2797 3341 1997 
z
" transform="scale(0.015625)"/>
      <path id="DejaVuSans-72" d="M 2631 2963 
Q 2534 3019 2420 3045 
Q 2306 3072 2169 3072 
Q 1681 3072 1420 2755 
Q 1159 2438 1159 1844 
L 1159 0 
L 581 0 
L 581 3500 
L 1159 3500 
L 1159 2956 
Q 1341 3275 1631 3429 
Q 1922 3584 2338 3584 
Q 2397 3584 2469 3576 
Q 2541 3569 2628 3553 
L 2631 2963 
z
" transform="scale(0.015625)"/>
      <path id="DejaVuSans-3d" d="M 678 2906 
L 4684 2906 
L 4684 2381 
L 678 2381 
L 678 2906 
z
M 678 1631 
L 4684 1631 
L 4684 1100 
L 678 1100 
L 678 1631 
z
" transform="scale(0.015625)"/>
      <path id="DejaVuSans-2c" d="M 750 794 
L 1409 794 
L 1409 256 
L 897 -744 
L 494 -744 
L 750 256 
L 750 794 
z
" transform="scale(0.015625)"/>
      <path id="DejaVuSans-46" d="M 628 4666 
L 3309 4666 
L 3309 4134 
L 1259 4134 
L 1259 2759 
L 3109 2759 
L 3109 2228 
L 1259 2228 
L 1259 0 
L 628 0 
L 628 4666 
z
" transform="scale(0.015625)"/>
      <path id="DejaVuSans-4c" d="M 628 4666 
L 1259 4666 
L 1259 531 
L 3531 531 
L 3531 0 
L 628 0 
L 628 4666 
z
" transform="scale(0.015625)"/>
     </defs>
     <use xlink:href="#DejaVuSans-53"/>
     <use xlink:href="#DejaVuSans-6f" transform="translate(63.476562 0)"/>
     <use xlink:href="#DejaVuSans-43" transform="translate(124.658203 0)"/>
     <use xlink:href="#DejaVuSans-20" transform="translate(194.482422 0)"/>
     <use xlink:href="#DejaVuSans-62" transform="translate(226.269531 0)"/>
     <use xlink:href="#DejaVuSans-79" transform="translate(289.746094 0)"/>
     <use xlink:href="#DejaVuSans-20" transform="translate(348.925781 0)"/>
     <use xlink:href="#DejaVuSans-62" transform="translate(380.712891 0)"/>
     <use xlink:href="#DejaVuSans-61" transform="translate(444.189453 0)"/>
     <use xlink:href="#DejaVuSans-74" transform="translate(505.46875 0)"/>
     <use xlink:href="#DejaVuSans-74" transform="translate(544.677734 0)"/>
     <use xlink:href="#DejaVuSans-65" transform="translate(583.886719 0)"/>
     <use xlink:href="#DejaVuSans-72" transform="translate(645.410156 0)"/>
     <use xlink:href="#DejaVuSans-79" transform="translate(686.523438 0)"/>
     <use xlink:href="#DejaVuSans-20" transform="translate(745.703125 0)"/>
     <use xlink:href="#DejaVuSans-28" transform="translate(777.490234 0)"/>
     <use xlink:href="#DejaVuSans-54" transform="translate(816.503906 0)"/>
     <use xlink:href="#DejaVuSans-3d" transform="translate(877.587891 0)"/>
     <use xlink:href="#DejaVuSans-37" transform="translate(961.376953 0)"/>
     <use xlink:href="#DejaVuSans-32" transform="translate(1025 0)"/>
     <use xlink:href="#DejaVuSans-2c" transform="translate(1088.623047 0)"/>
     <use xlink:href="#DejaVuSans-20" transform="translate(1120.410156 0)"/>
     <use xlink:href="#DejaVuSans-46" transform="translate(1152.197266 0)"/>
     <use xlink:href="#DejaVuSans-3d" transform="translate(1209.716797 0)"/>
     <use xlink:href="#DejaVuSans-31" transform="translate(1293.505859 0)"/>
     <use xlink:href="#DejaVuSans-32" transform="translate(1357.128906 0)"/>
     <use xlink:href="#DejaVuSans-2c" transform="translate(1420.751953 0)"/>
     <use xlink:href="#DejaVuSans-20" transform="translate(1452.539062 0)"/>
     <use xlink:href="#DejaVuSans-4c" transform="translate(1484.326172 0)"/>
     <use xlink:href="#DejaVuSans-3d" transform="translate(1540.039062 0)"/>
     <use xlink:href="#DejaVuSans-32" transform="translate(1623.828125 0)"/>
     <use xlink:href="#DejaVuSans-34" transform="translate(1687.451172 0)"/>
     <use xlink:href="#DejaVuSans-29" transform="translate(1751.074219 0)"/>
    </g>
   </g>
  </g>
 </g>
 <defs>
  <clipPath id="p2c80722db6">
   <rect x="51.05" y="25.44" width="658.15" height="364.6"/>
  </clipPath>
 </defs>
</svg>
