<?xml version="1.0" encoding="utf-8" standalone="no"?>
<!DOCTYPE svg PUBLIC "-//W3C//DTD SVG 1.1//EN"
  "http://www.w3.org/Graphics/SVG/1.1/DTD/svg11.dtd">
<svg xmlns:xlink="http://www.w3.org/1999/xlink" width="253.09625pt" height="196.272219pt" viewBox="0 0 253.09625 196.272219" xmlns="http://www.w3.org/2000/svg" version="1.1">
 <metadata>
  <rdf:RDF xmlns:dc="http://purl.org/dc/elements/1.1/" xmlns:cc="http://creativecommons.org/ns#" xmlns:rdf="http://www.w3.org/1999/02/22-rdf-syntax-ns#">
   <cc:Work>
    <dc:type rdf:resource="http://purl.org/dc/dcmitype/StillImage"/>
    <dc:date>2026-02-05T21:21:29.180410</dc:date>
    <dc:format>image/svg+xml</dc:format>
    <dc:creator>
     <cc:Agent>
      <dc:title>Matplotlib v3.7.2, https://matplotlib.org/</dc:title>
     </cc:Agent>
    </dc:creator>
   </cc:Work>
  </rdf:RDF>
 </metadata>
 <defs>
  <style type="text/css">*{stroke-linejoin: round; stroke-linecap: butt}</style>
 </defs>
 <g id="figure_1">
  <g id="patch_1">
   <path d="M 0 196.272219 
L 253.09625 196.272219 
L 253.09625 0 
L 0 0 
z
" style="fill: #ffffff"/>
  </g>
  <g id="axes_1">
   <g id="patch_2">
    <path d="M 34.21625 74.114043 
L 245.89625 74.114043 
L 245.89625 7.2 
L 34.21625 7.2 
z
" style="fill: #ffffff"/>
   </g>
   <g id="matplotlib.axis_1">
    <g id="xtick_1">
     <g id="line2d_1">
      <defs>
       <path id="mede3608133" d="M 0 0 
L 0 3.5 
" style="stroke: #000000; stroke-width: 0.8"/>
      </defs>
      <g>
       <use xlink:href="#mede3608133" x="43.838068" y="74.114043" style="stroke: #000000; stroke-width: 0.8"/>
      </g>
     </g>
    </g>
    <g id="xtick_2">
     <g id="line2d_2">
      <g>
       <use xlink:href="#mede3608133" x="75.910795" y="74.114043" style="stroke: #000000; stroke-width: 0.8"/>
      </g>
     </g>
    </g>
    <g id="xtick_3">
     <g id="line2d_3">
      <g>
       <use xlink:href="#mede3608133" x="107.983523" y="74.114043" style="stroke: #000000; stroke-width: 0.8"/>
      </g>
     </g>
    </g>
    <g id="xtick_4">
     <g id="line2d_4">
      <g>
       <use xlink:href="#mede3608133" x="140.05625" y="74.114043" style="stroke: #000000; stroke-width: 0.8"/>
      </g>
     </g>
    </g>
    <g id="xtick_5">
     <g id="line2d_5">
      <g>
       <use xlink:href="#mede3608133" x="172.128977" y="74.114043" style="stroke: #000000; stroke-width: 0.8"/>
      </g>
     </g>
    </g>
    <g id="xtick_6">
     <g id="line2d_6">
      <g>
       <use xlink:href="#mede3608133" x="204.201705" y="74.114043" style="stroke: #000000; stroke-width: 0.8"/>
      </g>
     </g>
    </g>
    <g id="xtick_7">
     <g id="line2d_7">
      <g>
       <use xlink:href="#mede3608133" x="236.274432" y="74.114043" style="stroke: #000000; stroke-width: 0.8"/>
      </g>
     </g>
    </g>
   </g>
   <g id="matplotlib.axis_2">
    <g id="ytick_1">
     <g id="line2d_8">
      <defs>
       <path id="m52b5f72d03" d="M 0 0 
L -3.5 0 
" style="stroke: #000000; stroke-width: 0.8"/>
      </defs>
      <g>
       <use xlink:href="#m52b5f72d03" x="34.21625" y="74.114043" style="stroke: #000000; stroke-width: 0.8"/>
      </g>
     </g>
     <g id="text_1">
      <!-- 0 -->
      <g transform="translate(23.71625 76.544355) scale(0.07 -0.07)">
       <defs>
        <path id="TimesNewRomanPSMT-30" d="M 231 2094 
Q 231 2819 450 3342 
Q 669 3866 1031 4122 
Q 1313 4325 1613 4325 
Q 2100 4325 2488 3828 
Q 2972 3213 2972 2159 
Q 2972 1422 2759 906 
Q 2547 391 2217 158 
Q 1888 -75 1581 -75 
Q 975 -75 572 641 
Q 231 1244 231 2094 
z
M 844 2016 
Q 844 1141 1059 588 
Q 1238 122 1591 122 
Q 1759 122 1940 273 
Q 2122 425 2216 781 
Q 2359 1319 2359 2297 
Q 2359 3022 2209 3506 
Q 2097 3866 1919 4016 
Q 1791 4119 1609 4119 
Q 1397 4119 1231 3928 
Q 1006 3669 925 3112 
Q 844 2556 844 2016 
z
" transform="scale(0.015625)"/>
       </defs>
       <use xlink:href="#TimesNewRomanPSMT-30"/>
      </g>
     </g>
    </g>
    <g id="ytick_2">
     <g id="line2d_9">
      <g>
       <use xlink:href="#m52b5f72d03" x="34.21625" y="46.233191" style="stroke: #000000; stroke-width: 0.8"/>
      </g>
     </g>
     <g id="text_2">
      <!-- 5 -->
      <g transform="translate(23.71625 48.663504) scale(0.07 -0.07)">
       <defs>
        <path id="TimesNewRomanPSMT-35" d="M 2778 4238 
L 2534 3706 
L 1259 3706 
L 981 3138 
Q 1809 3016 2294 2522 
Q 2709 2097 2709 1522 
Q 2709 1188 2573 903 
Q 2438 619 2231 419 
Q 2025 219 1772 97 
Q 1413 -75 1034 -75 
Q 653 -75 479 54 
Q 306 184 306 341 
Q 306 428 378 495 
Q 450 563 559 563 
Q 641 563 702 538 
Q 763 513 909 409 
Q 1144 247 1384 247 
Q 1750 247 2026 523 
Q 2303 800 2303 1197 
Q 2303 1581 2056 1914 
Q 1809 2247 1375 2428 
Q 1034 2569 447 2591 
L 1259 4238 
L 2778 4238 
z
" transform="scale(0.015625)"/>
       </defs>
       <use xlink:href="#TimesNewRomanPSMT-35"/>
      </g>
     </g>
    </g>
    <g id="ytick_3">
     <g id="line2d_10">
      <g>
       <use xlink:href="#m52b5f72d03" x="34.21625" y="18.35234" style="stroke: #000000; stroke-width: 0.8"/>
      </g>
     </g>
     <g id="text_3">
      <!-- 10 -->
      <g transform="translate(20.21625 20.782653) scale(0.07 -0.07)">
       <defs>
        <path id="TimesNewRomanPSMT-31" d="M 750 3822 
L 1781 4325 
L 1884 4325 
L 1884 747 
Q 1884 391 1914 303 
Q 1944 216 2037 169 
Q 2131 122 2419 116 
L 2419 0 
L 825 0 
L 825 116 
Q 1125 122 1212 167 
Q 1300 213 1334 289 
Q 1369 366 1369 747 
L 1369 3034 
Q 1369 3497 1338 3628 
Q 1316 3728 1258 3775 
Q 1200 3822 1119 3822 
Q 1003 3822 797 3725 
L 750 3822 
z
" transform="scale(0.015625)"/>
       </defs>
       <use xlink:href="#TimesNewRomanPSMT-31"/>
       <use xlink:href="#TimesNewRomanPSMT-30" x="50"/>
      </g>
     </g>
    </g>
    <g id="text_4">
     <!-- Gap (%) -->
     <g transform="translate(14.505 54.317021) rotate(-90) scale(0.08 -0.08)">
      <defs>
       <path id="TimesNewRomanPSMT-47" d="M 3928 4334 
L 4038 2997 
L 3928 2997 
Q 3763 3497 3500 3750 
Q 3122 4116 2528 4116 
Q 1719 4116 1297 3475 
Q 944 2934 944 2188 
Q 944 1581 1178 1081 
Q 1413 581 1792 348 
Q 2172 116 2572 116 
Q 2806 116 3025 175 
Q 3244 234 3447 350 
L 3447 1575 
Q 3447 1894 3398 1992 
Q 3350 2091 3248 2142 
Q 3147 2194 2891 2194 
L 2891 2313 
L 4531 2313 
L 4531 2194 
L 4453 2194 
Q 4209 2194 4119 2031 
Q 4056 1916 4056 1575 
L 4056 278 
Q 3697 84 3347 -6 
Q 2997 -97 2569 -97 
Q 1341 -97 703 691 
Q 225 1281 225 2053 
Q 225 2613 494 3125 
Q 813 3734 1369 4063 
Q 1834 4334 2469 4334 
Q 2700 4334 2889 4296 
Q 3078 4259 3425 4131 
Q 3600 4066 3659 4066 
Q 3719 4066 3761 4120 
Q 3803 4175 3813 4334 
L 3928 4334 
z
" transform="scale(0.015625)"/>
       <path id="TimesNewRomanPSMT-61" d="M 1822 413 
Q 1381 72 1269 19 
Q 1100 -59 909 -59 
Q 613 -59 420 144 
Q 228 347 228 678 
Q 228 888 322 1041 
Q 450 1253 767 1440 
Q 1084 1628 1822 1897 
L 1822 2009 
Q 1822 2438 1686 2597 
Q 1550 2756 1291 2756 
Q 1094 2756 978 2650 
Q 859 2544 859 2406 
L 866 2225 
Q 866 2081 792 2003 
Q 719 1925 600 1925 
Q 484 1925 411 2006 
Q 338 2088 338 2228 
Q 338 2497 613 2722 
Q 888 2947 1384 2947 
Q 1766 2947 2009 2819 
Q 2194 2722 2281 2516 
Q 2338 2381 2338 1966 
L 2338 994 
Q 2338 584 2353 492 
Q 2369 400 2405 369 
Q 2441 338 2488 338 
Q 2538 338 2575 359 
Q 2641 400 2828 588 
L 2828 413 
Q 2478 -56 2159 -56 
Q 2006 -56 1915 50 
Q 1825 156 1822 413 
z
M 1822 616 
L 1822 1706 
Q 1350 1519 1213 1441 
Q 966 1303 859 1153 
Q 753 1003 753 825 
Q 753 600 887 451 
Q 1022 303 1197 303 
Q 1434 303 1822 616 
z
" transform="scale(0.015625)"/>
       <path id="TimesNewRomanPSMT-70" d="M -6 2578 
L 875 2934 
L 994 2934 
L 994 2266 
Q 1216 2644 1439 2795 
Q 1663 2947 1909 2947 
Q 2341 2947 2628 2609 
Q 2981 2197 2981 1534 
Q 2981 794 2556 309 
Q 2206 -88 1675 -88 
Q 1444 -88 1275 -22 
Q 1150 25 994 166 
L 994 -706 
Q 994 -1000 1030 -1079 
Q 1066 -1159 1155 -1206 
Q 1244 -1253 1478 -1253 
L 1478 -1369 
L -22 -1369 
L -22 -1253 
L 56 -1253 
Q 228 -1256 350 -1188 
Q 409 -1153 442 -1076 
Q 475 -1000 475 -688 
L 475 2019 
Q 475 2297 450 2372 
Q 425 2447 370 2484 
Q 316 2522 222 2522 
Q 147 2522 31 2478 
L -6 2578 
z
M 994 2081 
L 994 1013 
Q 994 666 1022 556 
Q 1066 375 1236 237 
Q 1406 100 1666 100 
Q 1978 100 2172 344 
Q 2425 663 2425 1241 
Q 2425 1897 2138 2250 
Q 1938 2494 1663 2494 
Q 1513 2494 1366 2419 
Q 1253 2363 994 2081 
z
" transform="scale(0.015625)"/>
       <path id="TimesNewRomanPSMT-20" transform="scale(0.015625)"/>
       <path id="TimesNewRomanPSMT-28" d="M 1988 -1253 
L 1988 -1369 
Q 1516 -1131 1200 -813 
Q 750 -359 506 256 
Q 263 872 263 1534 
Q 263 2503 741 3301 
Q 1219 4100 1988 4444 
L 1988 4313 
Q 1603 4100 1356 3731 
Q 1109 3363 987 2797 
Q 866 2231 866 1616 
Q 866 947 969 400 
Q 1050 -31 1165 -292 
Q 1281 -553 1476 -793 
Q 1672 -1034 1988 -1253 
z
" transform="scale(0.015625)"/>
       <path id="TimesNewRomanPSMT-25" d="M 4350 4334 
L 1263 -175 
L 984 -175 
L 4072 4334 
L 4350 4334 
z
M 1138 4334 
Q 1559 4334 1792 3984 
Q 2025 3634 2025 3181 
Q 2025 2638 1762 2341 
Q 1500 2044 1131 2044 
Q 884 2044 678 2180 
Q 472 2316 348 2584 
Q 225 2853 225 3181 
Q 225 3509 350 3786 
Q 475 4063 692 4198 
Q 909 4334 1138 4334 
z
M 1128 4159 
Q 969 4159 845 3971 
Q 722 3784 722 3184 
Q 722 2750 791 2522 
Q 844 2350 956 2256 
Q 1022 2200 1119 2200 
Q 1269 2200 1375 2363 
Q 1531 2603 1531 3166 
Q 1531 3759 1378 4000 
Q 1278 4159 1128 4159 
z
M 4206 2103 
Q 4428 2103 4648 1962 
Q 4869 1822 4989 1553 
Q 5109 1284 5109 963 
Q 5109 409 4843 117 
Q 4578 -175 4216 -175 
Q 3988 -175 3773 -34 
Q 3559 106 3436 367 
Q 3313 628 3313 963 
Q 3313 1291 3436 1562 
Q 3559 1834 3773 1968 
Q 3988 2103 4206 2103 
z
M 4209 1938 
Q 4059 1938 3950 1769 
Q 3809 1550 3809 941 
Q 3809 381 3953 159 
Q 4059 0 4209 0 
Q 4353 0 4466 172 
Q 4616 400 4616 956 
Q 4616 1544 4466 1778 
Q 4363 1938 4209 1938 
z
" transform="scale(0.015625)"/>
       <path id="TimesNewRomanPSMT-29" d="M 144 4313 
L 144 4444 
Q 619 4209 934 3891 
Q 1381 3434 1625 2820 
Q 1869 2206 1869 1541 
Q 1869 572 1392 -226 
Q 916 -1025 144 -1369 
L 144 -1253 
Q 528 -1038 776 -670 
Q 1025 -303 1145 264 
Q 1266 831 1266 1447 
Q 1266 2113 1163 2663 
Q 1084 3094 967 3353 
Q 850 3613 656 3853 
Q 463 4094 144 4313 
z
" transform="scale(0.015625)"/>
      </defs>
      <use xlink:href="#TimesNewRomanPSMT-47"/>
      <use xlink:href="#TimesNewRomanPSMT-61" x="72.216797"/>
      <use xlink:href="#TimesNewRomanPSMT-70" x="116.601562"/>
      <use xlink:href="#TimesNewRomanPSMT-20" x="166.601562"/>
      <use xlink:href="#TimesNewRomanPSMT-28" x="191.601562"/>
      <use xlink:href="#TimesNewRomanPSMT-25" x="224.902344"/>
      <use xlink:href="#TimesNewRomanPSMT-29" x="308.203125"/>
     </g>
    </g>
   </g>
   <g id="line2d_11">
    <path d="M 43.838068 11.410865 
L 50.252614 21.323032 
L 56.667159 29.887536 
L 63.081705 36.951909 
L 69.49625 40.194731 
L 75.910795 43.251276 
L 82.325341 45.785475 
L 88.739886 47.695799 
L 95.154432 50.051646 
L 101.568977 52.480283 
L 107.983523 53.049064 
L 114.398068 54.888142 
L 120.812614 54.628404 
L 127.227159 56.732601 
L 133.641705 57.202489 
L 140.05625 58.441703 
L 146.470795 59.029067 
L 152.885341 58.543659 
L 159.299886 58.144806 
L 165.714432 58.298093 
L 172.128977 57.389323 
L 178.543523 57.767254 
L 184.958068 57.488061 
L 191.372614 58.081098 
L 197.787159 56.630301 
L 204.201705 57.865457 
L 210.61625 58.072721 
L 217.030795 57.856014 
L 223.445341 57.552988 
L 229.859886 57.314124 
L 236.274432 57.395 
" clip-path="url(#p3438905114)" style="fill: none; stroke: #1f77b4; stroke-opacity: 0.18; stroke-width: 0.8; stroke-linecap: square"/>
   </g>
   <g id="line2d_12">
    <path d="M 43.838068 11.410865 
L 50.252614 21.323032 
L 56.667159 29.887536 
L 63.081705 36.951909 
L 69.49625 40.194731 
L 75.910795 43.251276 
L 82.325341 45.785475 
L 88.739886 47.695799 
L 95.154432 50.051646 
L 101.568977 52.480283 
L 107.983523 53.049064 
L 114.398068 54.888142 
L 120.812614 54.888142 
L 127.227159 56.732601 
L 133.641705 57.202489 
L 140.05625 58.441703 
L 146.470795 59.029067 
L 152.885341 59.029067 
L 159.299886 59.029067 
L 165.714432 59.029067 
L 172.128977 59.029067 
L 178.543523 59.029067 
L 184.958068 59.029067 
L 191.372614 59.029067 
L 197.787159 59.029067 
L 204.201705 59.029067 
L 210.61625 59.029067 
L 217.030795 59.029067 
L 223.445341 59.029067 
L 229.859886 59.029067 
L 236.274432 59.029067 
" clip-path="url(#p3438905114)" style="fill: none; stroke: #ff7f0e; stroke-width: 1.4; stroke-linecap: square"/>
   </g>
   <g id="line2d_13">
    <path d="M 43.838068 11.410865 
L 50.252614 30.358782 
L 56.667159 38.169538 
L 63.081705 42.62095 
L 69.49625 48.508817 
L 75.910795 51.696666 
L 82.325341 53.587812 
L 88.739886 56.521037 
L 95.154432 57.660097 
L 101.568977 58.04821 
L 107.983523 58.168695 
L 114.398068 56.231406 
L 120.812614 56.402116 
L 127.227159 54.115646 
L 133.641705 57.475477 
L 140.05625 58.037119 
L 146.470795 57.000222 
L 152.885341 57.647214 
L 159.299886 55.89457 
L 165.714432 56.608261 
L 172.128977 57.721702 
L 178.543523 59.271158 
L 184.958068 55.478653 
L 191.372614 58.156626 
L 197.787159 58.143648 
L 204.201705 59.015051 
L 210.61625 56.890004 
L 217.030795 58.183855 
L 223.445341 55.921215 
L 229.859886 58.369716 
L 236.274432 58.945963 
" clip-path="url(#p3438905114)" style="fill: none; stroke: #2ca02c; stroke-opacity: 0.18; stroke-width: 0.8; stroke-linecap: square"/>
   </g>
   <g id="line2d_14">
    <path d="M 43.838068 11.410865 
L 50.252614 30.358782 
L 56.667159 38.169538 
L 63.081705 42.62095 
L 69.49625 48.508817 
L 75.910795 51.696666 
L 82.325341 53.587812 
L 88.739886 56.521037 
L 95.154432 57.660097 
L 101.568977 58.04821 
L 107.983523 58.168695 
L 114.398068 58.168695 
L 120.812614 58.168695 
L 127.227159 58.168695 
L 133.641705 58.168695 
L 140.05625 58.168695 
L 146.470795 58.168695 
L 152.885341 58.168695 
L 159.299886 58.168695 
L 165.714432 58.168695 
L 172.128977 58.168695 
L 178.543523 59.271158 
L 184.958068 59.271158 
L 191.372614 59.271158 
L 197.787159 59.271158 
L 204.201705 59.271158 
L 210.61625 59.271158 
L 217.030795 59.271158 
L 223.445341 59.271158 
L 229.859886 59.271158 
L 236.274432 59.271158 
" clip-path="url(#p3438905114)" style="fill: none; stroke: #d62728; stroke-width: 1.4; stroke-linecap: square"/>
   </g>
   <g id="line2d_15">
    <path d="M 43.838068 11.410865 
L 50.252614 35.864447 
L 56.667159 39.297995 
L 63.081705 48.719769 
L 69.49625 50.395267 
L 75.910795 56.137731 
L 82.325341 55.047293 
L 88.739886 56.756265 
L 95.154432 55.693556 
L 101.568977 54.010321 
L 107.983523 55.7997 
L 114.398068 56.203903 
L 120.812614 55.615665 
L 127.227159 54.136074 
L 133.641705 56.175953 
L 140.05625 55.782483 
L 146.470795 57.35366 
L 152.885341 57.780593 
L 159.299886 55.896498 
L 165.714432 55.869212 
L 172.128977 55.465676 
L 178.543523 57.526899 
L 184.958068 58.651294 
L 191.372614 57.575904 
L 197.787159 57.53222 
L 204.201705 53.955325 
L 210.61625 57.669771 
L 217.030795 57.374683 
L 223.445341 57.519057 
L 229.859886 58.120365 
L 236.274432 57.307139 
" clip-path="url(#p3438905114)" style="fill: none; stroke: #9467bd; stroke-opacity: 0.18; stroke-width: 0.8; stroke-linecap: square"/>
   </g>
   <g id="line2d_16">
    <path d="M 43.838068 11.410865 
L 50.252614 35.864447 
L 56.667159 39.297995 
L 63.081705 48.719769 
L 69.49625 50.395267 
L 75.910795 56.137731 
L 82.325341 56.137731 
L 88.739886 56.756265 
L 95.154432 56.756265 
L 101.568977 56.756265 
L 107.983523 56.756265 
L 114.398068 56.756265 
L 120.812614 56.756265 
L 127.227159 56.756265 
L 133.641705 56.756265 
L 140.05625 56.756265 
L 146.470795 57.35366 
L 152.885341 57.780593 
L 159.299886 57.780593 
L 165.714432 57.780593 
L 172.128977 57.780593 
L 178.543523 57.780593 
L 184.958068 58.651294 
L 191.372614 58.651294 
L 197.787159 58.651294 
L 204.201705 58.651294 
L 210.61625 58.651294 
L 217.030795 58.651294 
L 223.445341 58.651294 
L 229.859886 58.651294 
L 236.274432 58.651294 
" clip-path="url(#p3438905114)" style="fill: none; stroke: #8c564b; stroke-width: 1.4; stroke-linecap: square"/>
   </g>
   <g id="patch_3">
    <path d="M 34.21625 74.114043 
L 34.21625 7.2 
" style="fill: none; stroke: #000000; stroke-width: 0.8; stroke-linejoin: miter; stroke-linecap: square"/>
   </g>
   <g id="patch_4">
    <path d="M 245.89625 74.114043 
L 245.89625 7.2 
" style="fill: none; stroke: #000000; stroke-width: 0.8; stroke-linejoin: miter; stroke-linecap: square"/>
   </g>
   <g id="patch_5">
    <path d="M 34.21625 74.114043 
L 245.89625 74.114043 
" style="fill: none; stroke: #000000; stroke-width: 0.8; stroke-linejoin: miter; stroke-linecap: square"/>
   </g>
   <g id="patch_6">
    <path d="M 34.21625 7.2 
L 245.89625 7.2 
" style="fill: none; stroke: #000000; stroke-width: 0.8; stroke-linejoin: miter; stroke-linecap: square"/>
   </g>
   <g id="text_5">
    <!-- thin: per-iteration   thick: running best -->
    <g transform="translate(38.44985 71.265293) scale(0.07 -0.07)">
     <defs>
      <path id="TimesNewRomanPSMT-74" d="M 1031 3803 
L 1031 2863 
L 1700 2863 
L 1700 2644 
L 1031 2644 
L 1031 788 
Q 1031 509 1111 412 
Q 1191 316 1316 316 
Q 1419 316 1516 380 
Q 1613 444 1666 569 
L 1788 569 
Q 1678 263 1478 108 
Q 1278 -47 1066 -47 
Q 922 -47 784 33 
Q 647 113 581 261 
Q 516 409 516 719 
L 516 2644 
L 63 2644 
L 63 2747 
Q 234 2816 414 2980 
Q 594 3144 734 3369 
Q 806 3488 934 3803 
L 1031 3803 
z
" transform="scale(0.015625)"/>
      <path id="TimesNewRomanPSMT-68" d="M 1041 4444 
L 1041 2350 
Q 1388 2731 1591 2839 
Q 1794 2947 1997 2947 
Q 2241 2947 2416 2812 
Q 2591 2678 2675 2391 
Q 2734 2191 2734 1659 
L 2734 647 
Q 2734 375 2778 275 
Q 2809 200 2884 156 
Q 2959 113 3159 113 
L 3159 0 
L 1753 0 
L 1753 113 
L 1819 113 
Q 2019 113 2097 173 
Q 2175 234 2206 353 
Q 2216 403 2216 647 
L 2216 1659 
Q 2216 2128 2167 2275 
Q 2119 2422 2012 2495 
Q 1906 2569 1756 2569 
Q 1603 2569 1437 2487 
Q 1272 2406 1041 2159 
L 1041 647 
Q 1041 353 1073 281 
Q 1106 209 1195 161 
Q 1284 113 1503 113 
L 1503 0 
L 84 0 
L 84 113 
Q 275 113 384 172 
Q 447 203 484 290 
Q 522 378 522 647 
L 522 3238 
Q 522 3728 498 3840 
Q 475 3953 426 3993 
Q 378 4034 297 4034 
Q 231 4034 84 3984 
L 41 4094 
L 897 4444 
L 1041 4444 
z
" transform="scale(0.015625)"/>
      <path id="TimesNewRomanPSMT-69" d="M 928 4444 
Q 1059 4444 1151 4351 
Q 1244 4259 1244 4128 
Q 1244 3997 1151 3903 
Q 1059 3809 928 3809 
Q 797 3809 703 3903 
Q 609 3997 609 4128 
Q 609 4259 701 4351 
Q 794 4444 928 4444 
z
M 1188 2947 
L 1188 647 
Q 1188 378 1227 289 
Q 1266 200 1342 156 
Q 1419 113 1622 113 
L 1622 0 
L 231 0 
L 231 113 
Q 441 113 512 153 
Q 584 194 626 287 
Q 669 381 669 647 
L 669 1750 
Q 669 2216 641 2353 
Q 619 2453 572 2492 
Q 525 2531 444 2531 
Q 356 2531 231 2484 
L 188 2597 
L 1050 2947 
L 1188 2947 
z
" transform="scale(0.015625)"/>
      <path id="TimesNewRomanPSMT-6e" d="M 1034 2341 
Q 1538 2947 1994 2947 
Q 2228 2947 2397 2830 
Q 2566 2713 2666 2444 
Q 2734 2256 2734 1869 
L 2734 647 
Q 2734 375 2778 278 
Q 2813 200 2889 156 
Q 2966 113 3172 113 
L 3172 0 
L 1756 0 
L 1756 113 
L 1816 113 
Q 2016 113 2095 173 
Q 2175 234 2206 353 
Q 2219 400 2219 647 
L 2219 1819 
Q 2219 2209 2117 2386 
Q 2016 2563 1775 2563 
Q 1403 2563 1034 2156 
L 1034 647 
Q 1034 356 1069 288 
Q 1113 197 1189 155 
Q 1266 113 1500 113 
L 1500 0 
L 84 0 
L 84 113 
L 147 113 
Q 366 113 442 223 
Q 519 334 519 647 
L 519 1709 
Q 519 2225 495 2337 
Q 472 2450 423 2490 
Q 375 2531 294 2531 
Q 206 2531 84 2484 
L 38 2597 
L 900 2947 
L 1034 2947 
L 1034 2341 
z
" transform="scale(0.015625)"/>
      <path id="TimesNewRomanPSMT-3a" d="M 903 2950 
Q 1047 2950 1148 2848 
Q 1250 2747 1250 2603 
Q 1250 2459 1148 2357 
Q 1047 2256 903 2256 
Q 759 2256 657 2357 
Q 556 2459 556 2603 
Q 556 2747 657 2848 
Q 759 2950 903 2950 
z
M 897 609 
Q 1044 609 1145 506 
Q 1247 403 1247 259 
Q 1247 116 1144 14 
Q 1041 -88 897 -88 
Q 753 -88 651 14 
Q 550 116 550 259 
Q 550 403 651 506 
Q 753 609 897 609 
z
" transform="scale(0.015625)"/>
      <path id="TimesNewRomanPSMT-65" d="M 681 1784 
Q 678 1147 991 784 
Q 1303 422 1725 422 
Q 2006 422 2214 576 
Q 2422 731 2563 1106 
L 2659 1044 
Q 2594 616 2278 264 
Q 1963 -88 1488 -88 
Q 972 -88 605 314 
Q 238 716 238 1394 
Q 238 2128 614 2539 
Q 991 2950 1559 2950 
Q 2041 2950 2350 2633 
Q 2659 2316 2659 1784 
L 681 1784 
z
M 681 1966 
L 2006 1966 
Q 1991 2241 1941 2353 
Q 1863 2528 1708 2628 
Q 1553 2728 1384 2728 
Q 1125 2728 920 2526 
Q 716 2325 681 1966 
z
" transform="scale(0.015625)"/>
      <path id="TimesNewRomanPSMT-72" d="M 1038 2947 
L 1038 2303 
Q 1397 2947 1775 2947 
Q 1947 2947 2059 2842 
Q 2172 2738 2172 2600 
Q 2172 2478 2090 2393 
Q 2009 2309 1897 2309 
Q 1788 2309 1652 2417 
Q 1516 2525 1450 2525 
Q 1394 2525 1328 2463 
Q 1188 2334 1038 2041 
L 1038 669 
Q 1038 431 1097 309 
Q 1138 225 1241 169 
Q 1344 113 1538 113 
L 1538 0 
L 72 0 
L 72 113 
Q 291 113 397 181 
Q 475 231 506 341 
Q 522 394 522 644 
L 522 1753 
Q 522 2253 501 2348 
Q 481 2444 426 2487 
Q 372 2531 291 2531 
Q 194 2531 72 2484 
L 41 2597 
L 906 2947 
L 1038 2947 
z
" transform="scale(0.015625)"/>
      <path id="TimesNewRomanPSMT-2d" d="M 259 1672 
L 1875 1672 
L 1875 1200 
L 259 1200 
L 259 1672 
z
" transform="scale(0.015625)"/>
      <path id="TimesNewRomanPSMT-6f" d="M 1600 2947 
Q 2250 2947 2644 2453 
Q 2978 2031 2978 1484 
Q 2978 1100 2793 706 
Q 2609 313 2286 112 
Q 1963 -88 1566 -88 
Q 919 -88 538 428 
Q 216 863 216 1403 
Q 216 1797 411 2186 
Q 606 2575 925 2761 
Q 1244 2947 1600 2947 
z
M 1503 2744 
Q 1338 2744 1170 2645 
Q 1003 2547 900 2300 
Q 797 2053 797 1666 
Q 797 1041 1045 587 
Q 1294 134 1700 134 
Q 2003 134 2200 384 
Q 2397 634 2397 1244 
Q 2397 2006 2069 2444 
Q 1847 2744 1503 2744 
z
" transform="scale(0.015625)"/>
      <path id="TimesNewRomanPSMT-63" d="M 2631 1088 
Q 2516 522 2178 217 
Q 1841 -88 1431 -88 
Q 944 -88 581 321 
Q 219 731 219 1428 
Q 219 2103 620 2525 
Q 1022 2947 1584 2947 
Q 2006 2947 2278 2723 
Q 2550 2500 2550 2259 
Q 2550 2141 2473 2067 
Q 2397 1994 2259 1994 
Q 2075 1994 1981 2113 
Q 1928 2178 1911 2362 
Q 1894 2547 1784 2644 
Q 1675 2738 1481 2738 
Q 1169 2738 978 2506 
Q 725 2200 725 1697 
Q 725 1184 976 792 
Q 1228 400 1656 400 
Q 1963 400 2206 609 
Q 2378 753 2541 1131 
L 2631 1088 
z
" transform="scale(0.015625)"/>
      <path id="TimesNewRomanPSMT-6b" d="M 1047 4444 
L 1047 1594 
L 1775 2259 
Q 2006 2472 2044 2528 
Q 2069 2566 2069 2603 
Q 2069 2666 2017 2711 
Q 1966 2756 1847 2763 
L 1847 2863 
L 3091 2863 
L 3091 2763 
Q 2834 2756 2664 2684 
Q 2494 2613 2291 2428 
L 1556 1750 
L 2291 822 
Q 2597 438 2703 334 
Q 2853 188 2966 144 
Q 3044 113 3238 113 
L 3238 0 
L 1847 0 
L 1847 113 
Q 1966 116 2008 148 
Q 2050 181 2050 241 
Q 2050 313 1925 472 
L 1047 1594 
L 1047 644 
Q 1047 366 1086 278 
Q 1125 191 1197 153 
Q 1269 116 1509 113 
L 1509 0 
L 53 0 
L 53 113 
Q 272 113 381 166 
Q 447 200 481 272 
Q 528 375 528 628 
L 528 3234 
Q 528 3731 506 3842 
Q 484 3953 434 3995 
Q 384 4038 303 4038 
Q 238 4038 106 3984 
L 53 4094 
L 903 4444 
L 1047 4444 
z
" transform="scale(0.015625)"/>
      <path id="TimesNewRomanPSMT-75" d="M 2709 2863 
L 2709 1128 
Q 2709 631 2732 520 
Q 2756 409 2807 365 
Q 2859 322 2928 322 
Q 3025 322 3147 375 
L 3191 266 
L 2334 -88 
L 2194 -88 
L 2194 519 
Q 1825 119 1631 15 
Q 1438 -88 1222 -88 
Q 981 -88 804 51 
Q 628 191 559 409 
Q 491 628 491 1028 
L 491 2306 
Q 491 2509 447 2587 
Q 403 2666 317 2708 
Q 231 2750 6 2747 
L 6 2863 
L 1009 2863 
L 1009 947 
Q 1009 547 1148 422 
Q 1288 297 1484 297 
Q 1619 297 1789 381 
Q 1959 466 2194 703 
L 2194 2325 
Q 2194 2569 2105 2655 
Q 2016 2741 1734 2747 
L 1734 2863 
L 2709 2863 
z
" transform="scale(0.015625)"/>
      <path id="TimesNewRomanPSMT-67" d="M 966 1044 
Q 703 1172 562 1401 
Q 422 1631 422 1909 
Q 422 2334 742 2640 
Q 1063 2947 1563 2947 
Q 1972 2947 2272 2747 
L 2878 2747 
Q 3013 2747 3034 2739 
Q 3056 2731 3066 2713 
Q 3084 2684 3084 2613 
Q 3084 2531 3069 2500 
Q 3059 2484 3036 2475 
Q 3013 2466 2878 2466 
L 2506 2466 
Q 2681 2241 2681 1891 
Q 2681 1491 2375 1206 
Q 2069 922 1553 922 
Q 1341 922 1119 984 
Q 981 866 932 777 
Q 884 688 884 625 
Q 884 572 936 522 
Q 988 472 1138 450 
Q 1225 438 1575 428 
Q 2219 413 2409 384 
Q 2700 344 2873 169 
Q 3047 -6 3047 -263 
Q 3047 -616 2716 -925 
Q 2228 -1381 1444 -1381 
Q 841 -1381 425 -1109 
Q 191 -953 191 -784 
Q 191 -709 225 -634 
Q 278 -519 444 -313 
Q 466 -284 763 25 
Q 600 122 533 198 
Q 466 275 466 372 
Q 466 481 555 628 
Q 644 775 966 1044 
z
M 1509 2797 
Q 1278 2797 1122 2612 
Q 966 2428 966 2047 
Q 966 1553 1178 1281 
Q 1341 1075 1591 1075 
Q 1828 1075 1981 1253 
Q 2134 1431 2134 1813 
Q 2134 2309 1919 2591 
Q 1759 2797 1509 2797 
z
M 934 0 
Q 788 -159 713 -296 
Q 638 -434 638 -550 
Q 638 -700 819 -813 
Q 1131 -1006 1722 -1006 
Q 2284 -1006 2551 -807 
Q 2819 -609 2819 -384 
Q 2819 -222 2659 -153 
Q 2497 -84 2016 -72 
Q 1313 -53 934 0 
z
" transform="scale(0.015625)"/>
      <path id="TimesNewRomanPSMT-62" d="M 984 2369 
Q 1400 2947 1881 2947 
Q 2322 2947 2650 2570 
Q 2978 2194 2978 1541 
Q 2978 778 2472 313 
Q 2038 -88 1503 -88 
Q 1253 -88 995 3 
Q 738 94 469 275 
L 469 3241 
Q 469 3728 445 3840 
Q 422 3953 372 3993 
Q 322 4034 247 4034 
Q 159 4034 28 3984 
L -16 4094 
L 844 4444 
L 984 4444 
L 984 2369 
z
M 984 2169 
L 984 456 
Q 1144 300 1314 220 
Q 1484 141 1663 141 
Q 1947 141 2192 453 
Q 2438 766 2438 1363 
Q 2438 1913 2192 2208 
Q 1947 2503 1634 2503 
Q 1469 2503 1303 2419 
Q 1178 2356 984 2169 
z
" transform="scale(0.015625)"/>
      <path id="TimesNewRomanPSMT-73" d="M 2050 2947 
L 2050 1972 
L 1947 1972 
Q 1828 2431 1642 2597 
Q 1456 2763 1169 2763 
Q 950 2763 815 2647 
Q 681 2531 681 2391 
Q 681 2216 781 2091 
Q 878 1963 1175 1819 
L 1631 1597 
Q 2266 1288 2266 781 
Q 2266 391 1970 151 
Q 1675 -88 1309 -88 
Q 1047 -88 709 6 
Q 606 38 541 38 
Q 469 38 428 -44 
L 325 -44 
L 325 978 
L 428 978 
Q 516 541 762 319 
Q 1009 97 1316 97 
Q 1531 97 1667 223 
Q 1803 350 1803 528 
Q 1803 744 1651 891 
Q 1500 1038 1047 1263 
Q 594 1488 453 1669 
Q 313 1847 313 2119 
Q 313 2472 555 2709 
Q 797 2947 1181 2947 
Q 1350 2947 1591 2875 
Q 1750 2828 1803 2828 
Q 1853 2828 1881 2850 
Q 1909 2872 1947 2947 
L 2050 2947 
z
" transform="scale(0.015625)"/>
     </defs>
     <use xlink:href="#TimesNewRomanPSMT-74"/>
     <use xlink:href="#TimesNewRomanPSMT-68" x="27.783203"/>
     <use xlink:href="#TimesNewRomanPSMT-69" x="77.783203"/>
     <use xlink:href="#TimesNewRomanPSMT-6e" x="105.566406"/>
     <use xlink:href="#TimesNewRomanPSMT-3a" x="155.566406"/>
     <use xlink:href="#TimesNewRomanPSMT-20" x="183.349609"/>
     <use xlink:href="#TimesNewRomanPSMT-70" x="208.349609"/>
     <use xlink:href="#TimesNewRomanPSMT-65" x="258.349609"/>
     <use xlink:href="#TimesNewRomanPSMT-72" x="302.734375"/>
     <use xlink:href="#TimesNewRomanPSMT-2d" x="334.035156"/>
     <use xlink:href="#TimesNewRomanPSMT-69" x="367.335938"/>
     <use xlink:href="#TimesNewRomanPSMT-74" x="395.119141"/>
     <use xlink:href="#TimesNewRomanPSMT-65" x="422.902344"/>
     <use xlink:href="#TimesNewRomanPSMT-72" x="467.287109"/>
     <use xlink:href="#TimesNewRomanPSMT-61" x="500.587891"/>
     <use xlink:href="#TimesNewRomanPSMT-74" x="544.972656"/>
     <use xlink:href="#TimesNewRomanPSMT-69" x="572.755859"/>
     <use xlink:href="#TimesNewRomanPSMT-6f" x="600.539062"/>
     <use xlink:href="#TimesNewRomanPSMT-6e" x="650.539062"/>
     <use xlink:href="#TimesNewRomanPSMT-20" x="700.539062"/>
     <use xlink:href="#TimesNewRomanPSMT-20" x="725.539062"/>
     <use xlink:href="#TimesNewRomanPSMT-20" x="750.539062"/>
     <use xlink:href="#TimesNewRomanPSMT-74" x="775.539062"/>
     <use xlink:href="#TimesNewRomanPSMT-68" x="803.322266"/>
     <use xlink:href="#TimesNewRomanPSMT-69" x="853.322266"/>
     <use xlink:href="#TimesNewRomanPSMT-63" x="881.105469"/>
     <use xlink:href="#TimesNewRomanPSMT-6b" x="925.490234"/>
     <use xlink:href="#TimesNewRomanPSMT-3a" x="975.490234"/>
     <use xlink:href="#TimesNewRomanPSMT-20" x="1003.273438"/>
     <use xlink:href="#TimesNewRomanPSMT-72" x="1028.273438"/>
     <use xlink:href="#TimesNewRomanPSMT-75" x="1061.574219"/>
     <use xlink:href="#TimesNewRomanPSMT-6e" x="1111.574219"/>
     <use xlink:href="#TimesNewRomanPSMT-6e" x="1161.574219"/>
     <use xlink:href="#TimesNewRomanPSMT-69" x="1211.574219"/>
     <use xlink:href="#TimesNewRomanPSMT-6e" x="1239.357422"/>
     <use xlink:href="#TimesNewRomanPSMT-67" x="1289.357422"/>
     <use xlink:href="#TimesNewRomanPSMT-20" x="1339.357422"/>
     <use xlink:href="#TimesNewRomanPSMT-62" x="1364.357422"/>
     <use xlink:href="#TimesNewRomanPSMT-65" x="1414.357422"/>
     <use xlink:href="#TimesNewRomanPSMT-73" x="1458.742188"/>
     <use xlink:href="#TimesNewRomanPSMT-74" x="1497.658203"/>
    </g>
   </g>
   <g id="legend_1">
    <g id="patch_7">
     <path d="M 219.761562 30.884063 
L 242.89625 30.884063 
Q 244.09625 30.884063 244.09625 29.684063 
L 244.09625 10.2 
Q 244.09625 9 242.89625 9 
L 219.761562 9 
Q 218.561562 9 218.561562 10.2 
L 218.561562 29.684063 
Q 218.561562 30.884063 219.761562 30.884063 
z
" style="fill: #ffffff; opacity: 0.7; stroke: #cccccc; stroke-linejoin: miter"/>
    </g>
    <g id="line2d_17">
     <path d="M 220.061562 12.6 
L 223.661562 12.6 
L 227.261562 12.6 
" style="fill: none; stroke: #ff7f0e; stroke-width: 1.4; stroke-linecap: square"/>
    </g>
    <g id="text_6">
     <!-- γ=0.2 -->
     <g transform="translate(229.061562 14.7) scale(0.06 -0.06)">
      <defs>
       <path id="TimesNewRomanPSMT-3b3" d="M 2128 2863 
L 2772 2863 
L 1519 234 
Q 1566 -188 1566 -503 
Q 1566 -1381 1238 -1381 
Q 1000 -1381 1000 -1013 
Q 1000 -531 1350 194 
Q 1281 644 1157 1278 
Q 1034 1913 904 2188 
Q 775 2463 534 2463 
Q 141 2463 113 1875 
L 0 1875 
Q 0 2906 613 2906 
Q 966 2906 1137 2489 
Q 1309 2072 1491 675 
L 2128 2863 
z
" transform="scale(0.015625)"/>
       <path id="TimesNewRomanPSMT-3d" d="M 116 2759 
L 3488 2759 
L 3488 2503 
L 116 2503 
L 116 2759 
z
M 116 1741 
L 3488 1741 
L 3488 1484 
L 116 1484 
L 116 1741 
z
" transform="scale(0.015625)"/>
       <path id="TimesNewRomanPSMT-2e" d="M 800 606 
Q 947 606 1047 504 
Q 1147 403 1147 259 
Q 1147 116 1045 14 
Q 944 -88 800 -88 
Q 656 -88 554 14 
Q 453 116 453 259 
Q 453 406 554 506 
Q 656 606 800 606 
z
" transform="scale(0.015625)"/>
       <path id="TimesNewRomanPSMT-32" d="M 2934 816 
L 2638 0 
L 138 0 
L 138 116 
Q 1241 1122 1691 1759 
Q 2141 2397 2141 2925 
Q 2141 3328 1894 3587 
Q 1647 3847 1303 3847 
Q 991 3847 742 3664 
Q 494 3481 375 3128 
L 259 3128 
Q 338 3706 661 4015 
Q 984 4325 1469 4325 
Q 1984 4325 2329 3994 
Q 2675 3663 2675 3213 
Q 2675 2891 2525 2569 
Q 2294 2063 1775 1497 
Q 997 647 803 472 
L 1909 472 
Q 2247 472 2383 497 
Q 2519 522 2628 598 
Q 2738 675 2819 816 
L 2934 816 
z
" transform="scale(0.015625)"/>
      </defs>
      <use xlink:href="#TimesNewRomanPSMT-3b3"/>
      <use xlink:href="#TimesNewRomanPSMT-3d" x="44.189453"/>
      <use xlink:href="#TimesNewRomanPSMT-30" x="100.585938"/>
      <use xlink:href="#TimesNewRomanPSMT-2e" x="150.585938"/>
      <use xlink:href="#TimesNewRomanPSMT-32" x="175.585938"/>
     </g>
    </g>
    <g id="line2d_18">
     <path d="M 220.061562 19.294688 
L 223.661562 19.294688 
L 227.261562 19.294688 
" style="fill: none; stroke: #d62728; stroke-width: 1.4; stroke-linecap: square"/>
    </g>
    <g id="text_7">
     <!-- γ=0.4 -->
     <g transform="translate(229.061562 21.394688) scale(0.06 -0.06)">
      <defs>
       <path id="TimesNewRomanPSMT-34" d="M 2978 1563 
L 2978 1119 
L 2409 1119 
L 2409 0 
L 1894 0 
L 1894 1119 
L 100 1119 
L 100 1519 
L 2066 4325 
L 2409 4325 
L 2409 1563 
L 2978 1563 
z
M 1894 1563 
L 1894 3666 
L 406 1563 
L 1894 1563 
z
" transform="scale(0.015625)"/>
      </defs>
      <use xlink:href="#TimesNewRomanPSMT-3b3"/>
      <use xlink:href="#TimesNewRomanPSMT-3d" x="44.189453"/>
      <use xlink:href="#TimesNewRomanPSMT-30" x="100.585938"/>
      <use xlink:href="#TimesNewRomanPSMT-2e" x="150.585938"/>
      <use xlink:href="#TimesNewRomanPSMT-34" x="175.585938"/>
     </g>
    </g>
    <g id="line2d_19">
     <path d="M 220.061562 25.989375 
L 223.661562 25.989375 
L 227.261562 25.989375 
" style="fill: none; stroke: #8c564b; stroke-width: 1.4; stroke-linecap: square"/>
    </g>
    <g id="text_8">
     <!-- γ=0.6 -->
     <g transform="translate(229.061562 28.089375) scale(0.06 -0.06)">
      <defs>
       <path id="TimesNewRomanPSMT-36" d="M 2869 4325 
L 2869 4209 
Q 2456 4169 2195 4045 
Q 1934 3922 1679 3669 
Q 1425 3416 1258 3105 
Q 1091 2794 978 2366 
Q 1428 2675 1881 2675 
Q 2316 2675 2634 2325 
Q 2953 1975 2953 1425 
Q 2953 894 2631 456 
Q 2244 -75 1606 -75 
Q 1172 -75 869 213 
Q 275 772 275 1663 
Q 275 2231 503 2743 
Q 731 3256 1154 3653 
Q 1578 4050 1965 4187 
Q 2353 4325 2688 4325 
L 2869 4325 
z
M 925 2138 
Q 869 1716 869 1456 
Q 869 1156 980 804 
Q 1091 453 1309 247 
Q 1469 100 1697 100 
Q 1969 100 2183 356 
Q 2397 613 2397 1088 
Q 2397 1622 2184 2012 
Q 1972 2403 1581 2403 
Q 1463 2403 1327 2353 
Q 1191 2303 925 2138 
z
" transform="scale(0.015625)"/>
      </defs>
      <use xlink:href="#TimesNewRomanPSMT-3b3"/>
      <use xlink:href="#TimesNewRomanPSMT-3d" x="44.189453"/>
      <use xlink:href="#TimesNewRomanPSMT-30" x="100.585938"/>
      <use xlink:href="#TimesNewRomanPSMT-2e" x="150.585938"/>
      <use xlink:href="#TimesNewRomanPSMT-36" x="175.585938"/>
     </g>
    </g>
   </g>
  </g>
  <g id="axes_2">
   <g id="patch_8">
    <path d="M 34.21625 164.448 
L 245.89625 164.448 
L 245.89625 97.533957 
L 34.21625 97.533957 
z
" style="fill: #ffffff"/>
   </g>
   <g id="matplotlib.axis_3">
    <g id="xtick_8">
     <g id="line2d_20">
      <g>
       <use xlink:href="#mede3608133" x="43.838068" y="164.448" style="stroke: #000000; stroke-width: 0.8"/>
      </g>
     </g>
     <g id="text_9">
      <!-- 0 -->
      <g transform="translate(42.088068 176.308625) scale(0.07 -0.07)">
       <use xlink:href="#TimesNewRomanPSMT-30"/>
      </g>
     </g>
    </g>
    <g id="xtick_9">
     <g id="line2d_21">
      <g>
       <use xlink:href="#mede3608133" x="75.910795" y="164.448" style="stroke: #000000; stroke-width: 0.8"/>
      </g>
     </g>
     <g id="text_10">
      <!-- 5 -->
      <g transform="translate(74.160795 176.308625) scale(0.07 -0.07)">
       <use xlink:href="#TimesNewRomanPSMT-35"/>
      </g>
     </g>
    </g>
    <g id="xtick_10">
     <g id="line2d_22">
      <g>
       <use xlink:href="#mede3608133" x="107.983523" y="164.448" style="stroke: #000000; stroke-width: 0.8"/>
      </g>
     </g>
     <g id="text_11">
      <!-- 10 -->
      <g transform="translate(104.483523 176.308625) scale(0.07 -0.07)">
       <use xlink:href="#TimesNewRomanPSMT-31"/>
       <use xlink:href="#TimesNewRomanPSMT-30" x="50"/>
      </g>
     </g>
    </g>
    <g id="xtick_11">
     <g id="line2d_23">
      <g>
       <use xlink:href="#mede3608133" x="140.05625" y="164.448" style="stroke: #000000; stroke-width: 0.8"/>
      </g>
     </g>
     <g id="text_12">
      <!-- 15 -->
      <g transform="translate(136.55625 176.308625) scale(0.07 -0.07)">
       <use xlink:href="#TimesNewRomanPSMT-31"/>
       <use xlink:href="#TimesNewRomanPSMT-35" x="50"/>
      </g>
     </g>
    </g>
    <g id="xtick_12">
     <g id="line2d_24">
      <g>
       <use xlink:href="#mede3608133" x="172.128977" y="164.448" style="stroke: #000000; stroke-width: 0.8"/>
      </g>
     </g>
     <g id="text_13">
      <!-- 20 -->
      <g transform="translate(168.628977 176.308625) scale(0.07 -0.07)">
       <use xlink:href="#TimesNewRomanPSMT-32"/>
       <use xlink:href="#TimesNewRomanPSMT-30" x="50"/>
      </g>
     </g>
    </g>
    <g id="xtick_13">
     <g id="line2d_25">
      <g>
       <use xlink:href="#mede3608133" x="204.201705" y="164.448" style="stroke: #000000; stroke-width: 0.8"/>
      </g>
     </g>
     <g id="text_14">
      <!-- 25 -->
      <g transform="translate(200.701705 176.308625) scale(0.07 -0.07)">
       <use xlink:href="#TimesNewRomanPSMT-32"/>
       <use xlink:href="#TimesNewRomanPSMT-35" x="50"/>
      </g>
     </g>
    </g>
    <g id="xtick_14">
     <g id="line2d_26">
      <g>
       <use xlink:href="#mede3608133" x="236.274432" y="164.448" style="stroke: #000000; stroke-width: 0.8"/>
      </g>
     </g>
     <g id="text_15">
      <!-- 30 -->
      <g transform="translate(232.774432 176.308625) scale(0.07 -0.07)">
       <defs>
        <path id="TimesNewRomanPSMT-33" d="M 325 3431 
Q 506 3859 782 4092 
Q 1059 4325 1472 4325 
Q 1981 4325 2253 3994 
Q 2459 3747 2459 3466 
Q 2459 3003 1878 2509 
Q 2269 2356 2469 2072 
Q 2669 1788 2669 1403 
Q 2669 853 2319 450 
Q 1863 -75 997 -75 
Q 569 -75 414 31 
Q 259 138 259 259 
Q 259 350 332 419 
Q 406 488 509 488 
Q 588 488 669 463 
Q 722 447 909 348 
Q 1097 250 1169 231 
Q 1284 197 1416 197 
Q 1734 197 1970 444 
Q 2206 691 2206 1028 
Q 2206 1275 2097 1509 
Q 2016 1684 1919 1775 
Q 1784 1900 1550 2001 
Q 1316 2103 1072 2103 
L 972 2103 
L 972 2197 
Q 1219 2228 1467 2375 
Q 1716 2522 1828 2728 
Q 1941 2934 1941 3181 
Q 1941 3503 1739 3701 
Q 1538 3900 1238 3900 
Q 753 3900 428 3381 
L 325 3431 
z
" transform="scale(0.015625)"/>
       </defs>
       <use xlink:href="#TimesNewRomanPSMT-33"/>
       <use xlink:href="#TimesNewRomanPSMT-30" x="50"/>
      </g>
     </g>
    </g>
    <g id="text_16">
     <!-- Iteration -->
     <g transform="translate(126.5075 187.360969) scale(0.08 -0.08)">
      <defs>
       <path id="TimesNewRomanPSMT-49" d="M 1975 116 
L 1975 0 
L 159 0 
L 159 116 
L 309 116 
Q 572 116 691 269 
Q 766 369 766 750 
L 766 3488 
Q 766 3809 725 3913 
Q 694 3991 597 4047 
Q 459 4122 309 4122 
L 159 4122 
L 159 4238 
L 1975 4238 
L 1975 4122 
L 1822 4122 
Q 1563 4122 1444 3969 
Q 1366 3869 1366 3488 
L 1366 750 
Q 1366 428 1406 325 
Q 1438 247 1538 191 
Q 1672 116 1822 116 
L 1975 116 
z
" transform="scale(0.015625)"/>
      </defs>
      <use xlink:href="#TimesNewRomanPSMT-49"/>
      <use xlink:href="#TimesNewRomanPSMT-74" x="33.300781"/>
      <use xlink:href="#TimesNewRomanPSMT-65" x="61.083984"/>
      <use xlink:href="#TimesNewRomanPSMT-72" x="105.46875"/>
      <use xlink:href="#TimesNewRomanPSMT-61" x="138.769531"/>
      <use xlink:href="#TimesNewRomanPSMT-74" x="183.154297"/>
      <use xlink:href="#TimesNewRomanPSMT-69" x="210.9375"/>
      <use xlink:href="#TimesNewRomanPSMT-6f" x="238.720703"/>
      <use xlink:href="#TimesNewRomanPSMT-6e" x="288.720703"/>
     </g>
    </g>
   </g>
   <g id="matplotlib.axis_4">
    <g id="ytick_4">
     <g id="line2d_27">
      <g>
       <use xlink:href="#m52b5f72d03" x="34.21625" y="142.017138" style="stroke: #000000; stroke-width: 0.8"/>
      </g>
     </g>
     <g id="text_17">
      <!-- 2.0 -->
      <g transform="translate(18.46625 144.44745) scale(0.07 -0.07)">
       <use xlink:href="#TimesNewRomanPSMT-32"/>
       <use xlink:href="#TimesNewRomanPSMT-2e" x="50"/>
       <use xlink:href="#TimesNewRomanPSMT-30" x="75"/>
      </g>
     </g>
    </g>
    <g id="ytick_5">
     <g id="line2d_28">
      <g>
       <use xlink:href="#m52b5f72d03" x="34.21625" y="109.595631" style="stroke: #000000; stroke-width: 0.8"/>
      </g>
     </g>
     <g id="text_18">
      <!-- 2.1 -->
      <g transform="translate(18.46625 112.025944) scale(0.07 -0.07)">
       <use xlink:href="#TimesNewRomanPSMT-32"/>
       <use xlink:href="#TimesNewRomanPSMT-2e" x="50"/>
       <use xlink:href="#TimesNewRomanPSMT-31" x="75"/>
      </g>
     </g>
    </g>
    <g id="text_19">
     <!-- Dual LB -->
     <g transform="translate(12.755 144.877854) rotate(-90) scale(0.08 -0.08)">
      <defs>
       <path id="TimesNewRomanPSMT-44" d="M 109 0 
L 109 116 
L 269 116 
Q 538 116 650 288 
Q 719 391 719 750 
L 719 3488 
Q 719 3884 631 3984 
Q 509 4122 269 4122 
L 109 4122 
L 109 4238 
L 1834 4238 
Q 2784 4238 3279 4022 
Q 3775 3806 4076 3303 
Q 4378 2800 4378 2141 
Q 4378 1256 3841 663 
Q 3238 0 2003 0 
L 109 0 
z
M 1319 306 
Q 1716 219 1984 219 
Q 2709 219 3187 728 
Q 3666 1238 3666 2109 
Q 3666 2988 3187 3494 
Q 2709 4000 1959 4000 
Q 1678 4000 1319 3909 
L 1319 306 
z
" transform="scale(0.015625)"/>
       <path id="TimesNewRomanPSMT-6c" d="M 1184 4444 
L 1184 647 
Q 1184 378 1223 290 
Q 1263 203 1344 158 
Q 1425 113 1647 113 
L 1647 0 
L 244 0 
L 244 113 
Q 441 113 512 153 
Q 584 194 625 287 
Q 666 381 666 647 
L 666 3247 
Q 666 3731 644 3842 
Q 622 3953 573 3993 
Q 525 4034 450 4034 
Q 369 4034 244 3984 
L 191 4094 
L 1044 4444 
L 1184 4444 
z
" transform="scale(0.015625)"/>
       <path id="TimesNewRomanPSMT-4c" d="M 3669 1172 
L 3772 1150 
L 3409 0 
L 128 0 
L 128 116 
L 288 116 
Q 556 116 672 291 
Q 738 391 738 753 
L 738 3488 
Q 738 3884 650 3984 
Q 528 4122 288 4122 
L 128 4122 
L 128 4238 
L 2047 4238 
L 2047 4122 
Q 1709 4125 1573 4059 
Q 1438 3994 1388 3894 
Q 1338 3794 1338 3416 
L 1338 753 
Q 1338 494 1388 397 
Q 1425 331 1503 300 
Q 1581 269 1991 269 
L 2300 269 
Q 2788 269 2984 341 
Q 3181 413 3343 595 
Q 3506 778 3669 1172 
z
" transform="scale(0.015625)"/>
       <path id="TimesNewRomanPSMT-42" d="M 2956 2163 
Q 3397 2069 3616 1863 
Q 3919 1575 3919 1159 
Q 3919 844 3719 555 
Q 3519 266 3170 133 
Q 2822 0 2106 0 
L 106 0 
L 106 116 
L 266 116 
Q 531 116 647 284 
Q 719 394 719 750 
L 719 3488 
Q 719 3881 628 3984 
Q 506 4122 266 4122 
L 106 4122 
L 106 4238 
L 1938 4238 
Q 2450 4238 2759 4163 
Q 3228 4050 3475 3764 
Q 3722 3478 3722 3106 
Q 3722 2788 3528 2536 
Q 3334 2284 2956 2163 
z
M 1319 2331 
Q 1434 2309 1582 2298 
Q 1731 2288 1909 2288 
Q 2366 2288 2595 2386 
Q 2825 2484 2947 2687 
Q 3069 2891 3069 3131 
Q 3069 3503 2766 3765 
Q 2463 4028 1881 4028 
Q 1569 4028 1319 3959 
L 1319 2331 
z
M 1319 306 
Q 1681 222 2034 222 
Q 2600 222 2897 476 
Q 3194 731 3194 1106 
Q 3194 1353 3059 1581 
Q 2925 1809 2622 1940 
Q 2319 2072 1872 2072 
Q 1678 2072 1540 2065 
Q 1403 2059 1319 2044 
L 1319 306 
z
" transform="scale(0.015625)"/>
      </defs>
      <use xlink:href="#TimesNewRomanPSMT-44"/>
      <use xlink:href="#TimesNewRomanPSMT-75" x="72.216797"/>
      <use xlink:href="#TimesNewRomanPSMT-61" x="122.216797"/>
      <use xlink:href="#TimesNewRomanPSMT-6c" x="166.601562"/>
      <use xlink:href="#TimesNewRomanPSMT-20" x="194.384766"/>
      <use xlink:href="#TimesNewRomanPSMT-4c" x="219.384766"/>
      <use xlink:href="#TimesNewRomanPSMT-42" x="280.46875"/>
     </g>
    </g>
    <g id="text_20">
     <!-- 1e6 -->
     <g transform="translate(34.21625 94.533957) scale(0.1 -0.1)">
      <use xlink:href="#TimesNewRomanPSMT-31"/>
      <use xlink:href="#TimesNewRomanPSMT-65" x="50"/>
      <use xlink:href="#TimesNewRomanPSMT-36" x="94.384766"/>
     </g>
    </g>
   </g>
   <g id="line2d_29">
    <path d="M 43.838068 161.406453 
L 50.252614 148.807981 
L 56.667159 137.922405 
L 63.081705 128.943511 
L 69.49625 124.82185 
L 75.910795 120.936948 
L 82.325341 117.715953 
L 88.739886 115.287911 
L 95.154432 112.293604 
L 101.568977 109.20678 
L 107.983523 108.483853 
L 114.398068 106.146366 
L 120.812614 106.476495 
L 127.227159 103.802038 
L 133.641705 103.204805 
L 140.05625 101.629752 
L 146.470795 100.883205 
L 152.885341 101.500164 
L 159.299886 102.007111 
L 165.714432 101.812281 
L 172.128977 102.967338 
L 178.543523 102.486983 
L 184.958068 102.84184 
L 191.372614 102.088085 
L 197.787159 103.932063 
L 204.201705 102.362166 
L 210.61625 102.098732 
L 217.030795 102.374168 
L 223.445341 102.759317 
L 229.859886 103.062916 
L 236.274432 102.960122 
" clip-path="url(#p89835df354)" style="fill: none; stroke: #1f77b4; stroke-opacity: 0.18; stroke-width: 0.8; stroke-linecap: square"/>
   </g>
   <g id="line2d_30">
    <path d="M 43.838068 161.406453 
L 50.252614 148.807981 
L 56.667159 137.922405 
L 63.081705 128.943511 
L 69.49625 124.82185 
L 75.910795 120.936948 
L 82.325341 117.715953 
L 88.739886 115.287911 
L 95.154432 112.293604 
L 101.568977 109.20678 
L 107.983523 108.483853 
L 114.398068 106.146366 
L 120.812614 106.146366 
L 127.227159 103.802038 
L 133.641705 103.204805 
L 140.05625 101.629752 
L 146.470795 100.883205 
L 152.885341 100.883205 
L 159.299886 100.883205 
L 165.714432 100.883205 
L 172.128977 100.883205 
L 178.543523 100.883205 
L 184.958068 100.883205 
L 191.372614 100.883205 
L 197.787159 100.883205 
L 204.201705 100.883205 
L 210.61625 100.883205 
L 217.030795 100.883205 
L 223.445341 100.883205 
L 229.859886 100.883205 
L 236.274432 100.883205 
" clip-path="url(#p89835df354)" style="fill: none; stroke: #ff7f0e; stroke-width: 1.4; stroke-linecap: square"/>
   </g>
   <g id="line2d_31">
    <path d="M 43.838068 161.406453 
L 50.252614 137.323446 
L 56.667159 127.395891 
L 63.081705 121.738099 
L 69.49625 114.254557 
L 75.910795 110.202765 
L 82.325341 107.799099 
L 88.739886 104.070938 
L 95.154432 102.623182 
L 101.568977 102.129886 
L 107.983523 101.976747 
L 114.398068 104.439063 
L 120.812614 104.222088 
L 127.227159 107.128216 
L 133.641705 102.857835 
L 140.05625 102.143981 
L 146.470795 103.46189 
L 152.885341 102.639555 
L 159.299886 104.867184 
L 165.714432 103.960076 
L 172.128977 102.54488 
L 178.543523 100.575505 
L 184.958068 105.39582 
L 191.372614 101.992088 
L 197.787159 102.008583 
L 204.201705 100.90102 
L 210.61625 103.601978 
L 217.030795 101.957479 
L 223.445341 104.833319 
L 229.859886 101.721248 
L 236.274432 100.988832 
" clip-path="url(#p89835df354)" style="fill: none; stroke: #2ca02c; stroke-opacity: 0.18; stroke-width: 0.8; stroke-linecap: square"/>
   </g>
   <g id="line2d_32">
    <path d="M 43.838068 161.406453 
L 50.252614 137.323446 
L 56.667159 127.395891 
L 63.081705 121.738099 
L 69.49625 114.254557 
L 75.910795 110.202765 
L 82.325341 107.799099 
L 88.739886 104.070938 
L 95.154432 102.623182 
L 101.568977 102.129886 
L 107.983523 101.976747 
L 114.398068 101.976747 
L 120.812614 101.976747 
L 127.227159 101.976747 
L 133.641705 101.976747 
L 140.05625 101.976747 
L 146.470795 101.976747 
L 152.885341 101.976747 
L 159.299886 101.976747 
L 165.714432 101.976747 
L 172.128977 101.976747 
L 178.543523 100.575505 
L 184.958068 100.575505 
L 191.372614 100.575505 
L 197.787159 100.575505 
L 204.201705 100.575505 
L 210.61625 100.575505 
L 217.030795 100.575505 
L 223.445341 100.575505 
L 229.859886 100.575505 
L 236.274432 100.575505 
" clip-path="url(#p89835df354)" style="fill: none; stroke: #d62728; stroke-width: 1.4; stroke-linecap: square"/>
   </g>
   <g id="line2d_33">
    <path d="M 43.838068 161.406453 
L 50.252614 130.325687 
L 56.667159 125.96161 
L 63.081705 113.986434 
L 69.49625 111.856858 
L 75.910795 104.558125 
L 82.325341 105.944083 
L 88.739886 103.771962 
L 95.154432 105.122676 
L 101.568977 107.262085 
L 107.983523 104.987766 
L 114.398068 104.474019 
L 120.812614 105.221676 
L 127.227159 107.102252 
L 133.641705 104.509544 
L 140.05625 105.009648 
L 146.470795 103.012665 
L 152.885341 102.470029 
L 159.299886 104.864735 
L 165.714432 104.899416 
L 172.128977 105.412313 
L 178.543523 102.792477 
L 184.958068 101.363359 
L 191.372614 102.730191 
L 197.787159 102.785714 
L 204.201705 107.331986 
L 210.61625 102.610885 
L 217.030795 102.985945 
L 223.445341 102.802444 
L 229.859886 102.038176 
L 236.274432 103.071794 
" clip-path="url(#p89835df354)" style="fill: none; stroke: #9467bd; stroke-opacity: 0.18; stroke-width: 0.8; stroke-linecap: square"/>
   </g>
   <g id="line2d_34">
    <path d="M 43.838068 161.406453 
L 50.252614 130.325687 
L 56.667159 125.96161 
L 63.081705 113.986434 
L 69.49625 111.856858 
L 75.910795 104.558125 
L 82.325341 104.558125 
L 88.739886 103.771962 
L 95.154432 103.771962 
L 101.568977 103.771962 
L 107.983523 103.771962 
L 114.398068 103.771962 
L 120.812614 103.771962 
L 127.227159 103.771962 
L 133.641705 103.771962 
L 140.05625 103.771962 
L 146.470795 103.012665 
L 152.885341 102.470029 
L 159.299886 102.470029 
L 165.714432 102.470029 
L 172.128977 102.470029 
L 178.543523 102.470029 
L 184.958068 101.363359 
L 191.372614 101.363359 
L 197.787159 101.363359 
L 204.201705 101.363359 
L 210.61625 101.363359 
L 217.030795 101.363359 
L 223.445341 101.363359 
L 229.859886 101.363359 
L 236.274432 101.363359 
" clip-path="url(#p89835df354)" style="fill: none; stroke: #8c564b; stroke-width: 1.4; stroke-linecap: square"/>
   </g>
   <g id="patch_9">
    <path d="M 34.21625 164.448 
L 34.21625 97.533957 
" style="fill: none; stroke: #000000; stroke-width: 0.8; stroke-linejoin: miter; stroke-linecap: square"/>
   </g>
   <g id="patch_10">
    <path d="M 245.89625 164.448 
L 245.89625 97.533957 
" style="fill: none; stroke: #000000; stroke-width: 0.8; stroke-linejoin: miter; stroke-linecap: square"/>
   </g>
   <g id="patch_11">
    <path d="M 34.21625 164.448 
L 245.89625 164.448 
" style="fill: none; stroke: #000000; stroke-width: 0.8; stroke-linejoin: miter; stroke-linecap: square"/>
   </g>
   <g id="patch_12">
    <path d="M 34.21625 97.533957 
L 245.89625 97.533957 
" style="fill: none; stroke: #000000; stroke-width: 0.8; stroke-linejoin: miter; stroke-linecap: square"/>
   </g>
  </g>
 </g>
 <defs>
  <clipPath id="p3438905114">
   <rect x="34.21625" y="7.2" width="211.68" height="66.914043"/>
  </clipPath>
  <clipPath id="p89835df354">
   <rect x="34.21625" y="97.533957" width="211.68" height="66.914043"/>
  </clipPath>
 </defs>
</svg>
