<?xml version="1.0" encoding="utf-8" standalone="no"?>
<!DOCTYPE svg PUBLIC "-//W3C//DTD SVG 1.1//EN"
  "http://www.w3.org/Graphics/SVG/1.1/DTD/svg11.dtd">
<svg xmlns:xlink="http://www.w3.org/1999/xlink" width="720pt" height="432pt" viewBox="0 0 720 432" xmlns="http://www.w3.org/2000/svg" version="1.1">
 <metadata>
  <rdf:RDF xmlns:dc="http://purl.org/dc/elements/1.1/" xmlns:cc="http://creativecommons.org/ns#" xmlns:rdf="http://www.w3.org/1999/02/22-rdf-syntax-ns#">
   <cc:Work>
    <dc:type rdf:resource="http://purl.org/dc/dcmitype/StillImage"/>
    <dc:date>2025-11-11T23:26:52.732969</dc:date>
    <dc:format>image/svg+xml</dc:format>
    <dc:creator>
     <cc:Agent>
      <dc:title>Matplotlib v3.10.0, https://matplotlib.org/</dc:title>
     </cc:Agent>
    </dc:creator>
   </cc:Work>
  </rdf:RDF>
 </metadata>
 <defs>
  <style type="text/css">*{stroke-linejoin: round; stroke-linecap: butt}</style>
 </defs>
 <g id="figure_1">
  <g id="patch_1">
   <path d="M 0 432 
L 720 432 
L 720 0 
L 0 0 
z
" style="fill: #ffffff"/>
  </g>
  <g id="axes_1">
   <g id="patch_2">
    <path d="M 50.915 390.04 
L 703.846679 390.04 
L 703.846679 26.16 
L 50.915 26.16 
z
" style="fill: #ffffff"/>
   </g>
   <g id="matplotlib.axis_1">
    <g id="xtick_1">
     <g id="line2d_1">
      <defs>
       <path id="m9a2b453e36" d="M 0 0 
L 0 3.5 
" style="stroke: #000000; stroke-width: 0.8"/>
      </defs>
      <g>
       <use xlink:href="#m9a2b453e36" x="78.821849" y="390.04" style="stroke: #000000; stroke-width: 0.8"/>
      </g>
     </g>
     <g id="text_1">
      <!-- 0 -->
      <g transform="translate(75.640599 404.638438) scale(0.1 -0.1)">
       <defs>
        <path id="DejaVuSans-30" d="M 2034 4250 
Q 1547 4250 1301 3770 
Q 1056 3291 1056 2328 
Q 1056 1369 1301 889 
Q 1547 409 2034 409 
Q 2525 409 2770 889 
Q 3016 1369 3016 2328 
Q 3016 3291 2770 3770 
Q 2525 4250 2034 4250 
z
M 2034 4750 
Q 2819 4750 3233 4129 
Q 3647 3509 3647 2328 
Q 3647 1150 3233 529 
Q 2819 -91 2034 -91 
Q 1250 -91 836 529 
Q 422 1150 422 2328 
Q 422 3509 836 4129 
Q 1250 4750 2034 4750 
z
" transform="scale(0.015625)"/>
       </defs>
       <use xlink:href="#DejaVuSans-30"/>
      </g>
     </g>
    </g>
    <g id="xtick_2">
     <g id="line2d_2">
      <g>
       <use xlink:href="#m9a2b453e36" x="167.415021" y="390.04" style="stroke: #000000; stroke-width: 0.8"/>
      </g>
     </g>
     <g id="text_2">
      <!-- 50 -->
      <g transform="translate(161.052521 404.638438) scale(0.1 -0.1)">
       <defs>
        <path id="DejaVuSans-35" d="M 691 4666 
L 3169 4666 
L 3169 4134 
L 1269 4134 
L 1269 2991 
Q 1406 3038 1543 3061 
Q 1681 3084 1819 3084 
Q 2600 3084 3056 2656 
Q 3513 2228 3513 1497 
Q 3513 744 3044 326 
Q 2575 -91 1722 -91 
Q 1428 -91 1123 -41 
Q 819 9 494 109 
L 494 744 
Q 775 591 1075 516 
Q 1375 441 1709 441 
Q 2250 441 2565 725 
Q 2881 1009 2881 1497 
Q 2881 1984 2565 2268 
Q 2250 2553 1709 2553 
Q 1456 2553 1204 2497 
Q 953 2441 691 2322 
L 691 4666 
z
" transform="scale(0.015625)"/>
       </defs>
       <use xlink:href="#DejaVuSans-35"/>
       <use xlink:href="#DejaVuSans-30" transform="translate(63.623047 0)"/>
      </g>
     </g>
    </g>
    <g id="xtick_3">
     <g id="line2d_3">
      <g>
       <use xlink:href="#m9a2b453e36" x="256.008194" y="390.04" style="stroke: #000000; stroke-width: 0.8"/>
      </g>
     </g>
     <g id="text_3">
      <!-- 100 -->
      <g transform="translate(246.464444 404.638438) scale(0.1 -0.1)">
       <defs>
        <path id="DejaVuSans-31" d="M 794 531 
L 1825 531 
L 1825 4091 
L 703 3866 
L 703 4441 
L 1819 4666 
L 2450 4666 
L 2450 531 
L 3481 531 
L 3481 0 
L 794 0 
L 794 531 
z
" transform="scale(0.015625)"/>
       </defs>
       <use xlink:href="#DejaVuSans-31"/>
       <use xlink:href="#DejaVuSans-30" transform="translate(63.623047 0)"/>
       <use xlink:href="#DejaVuSans-30" transform="translate(127.246094 0)"/>
      </g>
     </g>
    </g>
    <g id="xtick_4">
     <g id="line2d_4">
      <g>
       <use xlink:href="#m9a2b453e36" x="344.601366" y="390.04" style="stroke: #000000; stroke-width: 0.8"/>
      </g>
     </g>
     <g id="text_4">
      <!-- 150 -->
      <g transform="translate(335.057616 404.638438) scale(0.1 -0.1)">
       <use xlink:href="#DejaVuSans-31"/>
       <use xlink:href="#DejaVuSans-35" transform="translate(63.623047 0)"/>
       <use xlink:href="#DejaVuSans-30" transform="translate(127.246094 0)"/>
      </g>
     </g>
    </g>
    <g id="xtick_5">
     <g id="line2d_5">
      <g>
       <use xlink:href="#m9a2b453e36" x="433.194538" y="390.04" style="stroke: #000000; stroke-width: 0.8"/>
      </g>
     </g>
     <g id="text_5">
      <!-- 200 -->
      <g transform="translate(423.650788 404.638438) scale(0.1 -0.1)">
       <defs>
        <path id="DejaVuSans-32" d="M 1228 531 
L 3431 531 
L 3431 0 
L 469 0 
L 469 531 
Q 828 903 1448 1529 
Q 2069 2156 2228 2338 
Q 2531 2678 2651 2914 
Q 2772 3150 2772 3378 
Q 2772 3750 2511 3984 
Q 2250 4219 1831 4219 
Q 1534 4219 1204 4116 
Q 875 4013 500 3803 
L 500 4441 
Q 881 4594 1212 4672 
Q 1544 4750 1819 4750 
Q 2544 4750 2975 4387 
Q 3406 4025 3406 3419 
Q 3406 3131 3298 2873 
Q 3191 2616 2906 2266 
Q 2828 2175 2409 1742 
Q 1991 1309 1228 531 
z
" transform="scale(0.015625)"/>
       </defs>
       <use xlink:href="#DejaVuSans-32"/>
       <use xlink:href="#DejaVuSans-30" transform="translate(63.623047 0)"/>
       <use xlink:href="#DejaVuSans-30" transform="translate(127.246094 0)"/>
      </g>
     </g>
    </g>
    <g id="xtick_6">
     <g id="line2d_6">
      <g>
       <use xlink:href="#m9a2b453e36" x="521.78771" y="390.04" style="stroke: #000000; stroke-width: 0.8"/>
      </g>
     </g>
     <g id="text_6">
      <!-- 250 -->
      <g transform="translate(512.24396 404.638438) scale(0.1 -0.1)">
       <use xlink:href="#DejaVuSans-32"/>
       <use xlink:href="#DejaVuSans-35" transform="translate(63.623047 0)"/>
       <use xlink:href="#DejaVuSans-30" transform="translate(127.246094 0)"/>
      </g>
     </g>
    </g>
    <g id="xtick_7">
     <g id="line2d_7">
      <g>
       <use xlink:href="#m9a2b453e36" x="610.380882" y="390.04" style="stroke: #000000; stroke-width: 0.8"/>
      </g>
     </g>
     <g id="text_7">
      <!-- 300 -->
      <g transform="translate(600.837132 404.638438) scale(0.1 -0.1)">
       <defs>
        <path id="DejaVuSans-33" d="M 2597 2516 
Q 3050 2419 3304 2112 
Q 3559 1806 3559 1356 
Q 3559 666 3084 287 
Q 2609 -91 1734 -91 
Q 1441 -91 1130 -33 
Q 819 25 488 141 
L 488 750 
Q 750 597 1062 519 
Q 1375 441 1716 441 
Q 2309 441 2620 675 
Q 2931 909 2931 1356 
Q 2931 1769 2642 2001 
Q 2353 2234 1838 2234 
L 1294 2234 
L 1294 2753 
L 1863 2753 
Q 2328 2753 2575 2939 
Q 2822 3125 2822 3475 
Q 2822 3834 2567 4026 
Q 2313 4219 1838 4219 
Q 1578 4219 1281 4162 
Q 984 4106 628 3988 
L 628 4550 
Q 988 4650 1302 4700 
Q 1616 4750 1894 4750 
Q 2613 4750 3031 4423 
Q 3450 4097 3450 3541 
Q 3450 3153 3228 2886 
Q 3006 2619 2597 2516 
z
" transform="scale(0.015625)"/>
       </defs>
       <use xlink:href="#DejaVuSans-33"/>
       <use xlink:href="#DejaVuSans-30" transform="translate(63.623047 0)"/>
       <use xlink:href="#DejaVuSans-30" transform="translate(127.246094 0)"/>
      </g>
     </g>
    </g>
    <g id="xtick_8">
     <g id="line2d_8">
      <g>
       <use xlink:href="#m9a2b453e36" x="698.974055" y="390.04" style="stroke: #000000; stroke-width: 0.8"/>
      </g>
     </g>
     <g id="text_8">
      <!-- 350 -->
      <g transform="translate(689.430305 404.638438) scale(0.1 -0.1)">
       <use xlink:href="#DejaVuSans-33"/>
       <use xlink:href="#DejaVuSans-35" transform="translate(63.623047 0)"/>
       <use xlink:href="#DejaVuSans-30" transform="translate(127.246094 0)"/>
      </g>
     </g>
    </g>
    <g id="text_9">
     <!-- Time (t) -->
     <g transform="translate(357.696465 418.316562) scale(0.1 -0.1)">
      <defs>
       <path id="DejaVuSans-54" d="M -19 4666 
L 3928 4666 
L 3928 4134 
L 2272 4134 
L 2272 0 
L 1638 0 
L 1638 4134 
L -19 4134 
L -19 4666 
z
" transform="scale(0.015625)"/>
       <path id="DejaVuSans-69" d="M 603 3500 
L 1178 3500 
L 1178 0 
L 603 0 
L 603 3500 
z
M 603 4863 
L 1178 4863 
L 1178 4134 
L 603 4134 
L 603 4863 
z
" transform="scale(0.015625)"/>
       <path id="DejaVuSans-6d" d="M 3328 2828 
Q 3544 3216 3844 3400 
Q 4144 3584 4550 3584 
Q 5097 3584 5394 3201 
Q 5691 2819 5691 2113 
L 5691 0 
L 5113 0 
L 5113 2094 
Q 5113 2597 4934 2840 
Q 4756 3084 4391 3084 
Q 3944 3084 3684 2787 
Q 3425 2491 3425 1978 
L 3425 0 
L 2847 0 
L 2847 2094 
Q 2847 2600 2669 2842 
Q 2491 3084 2119 3084 
Q 1678 3084 1418 2786 
Q 1159 2488 1159 1978 
L 1159 0 
L 581 0 
L 581 3500 
L 1159 3500 
L 1159 2956 
Q 1356 3278 1631 3431 
Q 1906 3584 2284 3584 
Q 2666 3584 2933 3390 
Q 3200 3197 3328 2828 
z
" transform="scale(0.015625)"/>
       <path id="DejaVuSans-65" d="M 3597 1894 
L 3597 1613 
L 953 1613 
Q 991 1019 1311 708 
Q 1631 397 2203 397 
Q 2534 397 2845 478 
Q 3156 559 3463 722 
L 3463 178 
Q 3153 47 2828 -22 
Q 2503 -91 2169 -91 
Q 1331 -91 842 396 
Q 353 884 353 1716 
Q 353 2575 817 3079 
Q 1281 3584 2069 3584 
Q 2775 3584 3186 3129 
Q 3597 2675 3597 1894 
z
M 3022 2063 
Q 3016 2534 2758 2815 
Q 2500 3097 2075 3097 
Q 1594 3097 1305 2825 
Q 1016 2553 972 2059 
L 3022 2063 
z
" transform="scale(0.015625)"/>
       <path id="DejaVuSans-20" transform="scale(0.015625)"/>
       <path id="DejaVuSans-28" d="M 1984 4856 
Q 1566 4138 1362 3434 
Q 1159 2731 1159 2009 
Q 1159 1288 1364 580 
Q 1569 -128 1984 -844 
L 1484 -844 
Q 1016 -109 783 600 
Q 550 1309 550 2009 
Q 550 2706 781 3412 
Q 1013 4119 1484 4856 
L 1984 4856 
z
" transform="scale(0.015625)"/>
       <path id="DejaVuSans-74" d="M 1172 4494 
L 1172 3500 
L 2356 3500 
L 2356 3053 
L 1172 3053 
L 1172 1153 
Q 1172 725 1289 603 
Q 1406 481 1766 481 
L 2356 481 
L 2356 0 
L 1766 0 
Q 1100 0 847 248 
Q 594 497 594 1153 
L 594 3053 
L 172 3053 
L 172 3500 
L 594 3500 
L 594 4494 
L 1172 4494 
z
" transform="scale(0.015625)"/>
       <path id="DejaVuSans-29" d="M 513 4856 
L 1013 4856 
Q 1481 4119 1714 3412 
Q 1947 2706 1947 2009 
Q 1947 1309 1714 600 
Q 1481 -109 1013 -844 
L 513 -844 
Q 928 -128 1133 580 
Q 1338 1288 1338 2009 
Q 1338 2731 1133 3434 
Q 928 4138 513 4856 
z
" transform="scale(0.015625)"/>
      </defs>
      <use xlink:href="#DejaVuSans-54"/>
      <use xlink:href="#DejaVuSans-69" transform="translate(57.958984 0)"/>
      <use xlink:href="#DejaVuSans-6d" transform="translate(85.742188 0)"/>
      <use xlink:href="#DejaVuSans-65" transform="translate(183.154297 0)"/>
      <use xlink:href="#DejaVuSans-20" transform="translate(244.677734 0)"/>
      <use xlink:href="#DejaVuSans-28" transform="translate(276.464844 0)"/>
      <use xlink:href="#DejaVuSans-74" transform="translate(315.478516 0)"/>
      <use xlink:href="#DejaVuSans-29" transform="translate(354.6875 0)"/>
     </g>
    </g>
   </g>
   <g id="matplotlib.axis_2">
    <g id="ytick_1">
     <g id="line2d_9">
      <defs>
       <path id="mdf3af26920" d="M 0 0 
L -3.5 0 
" style="stroke: #000000; stroke-width: 0.8"/>
      </defs>
      <g>
       <use xlink:href="#mdf3af26920" x="50.915" y="321.964985" style="stroke: #000000; stroke-width: 0.8"/>
      </g>
     </g>
     <g id="text_10">
      <!-- 100 -->
      <g transform="translate(24.8275 325.764203) scale(0.1 -0.1)">
       <use xlink:href="#DejaVuSans-31"/>
       <use xlink:href="#DejaVuSans-30" transform="translate(63.623047 0)"/>
       <use xlink:href="#DejaVuSans-30" transform="translate(127.246094 0)"/>
      </g>
     </g>
    </g>
    <g id="ytick_2">
     <g id="line2d_10">
      <g>
       <use xlink:href="#mdf3af26920" x="50.915" y="251.85627" style="stroke: #000000; stroke-width: 0.8"/>
      </g>
     </g>
     <g id="text_11">
      <!-- 200 -->
      <g transform="translate(24.8275 255.655489) scale(0.1 -0.1)">
       <use xlink:href="#DejaVuSans-32"/>
       <use xlink:href="#DejaVuSans-30" transform="translate(63.623047 0)"/>
       <use xlink:href="#DejaVuSans-30" transform="translate(127.246094 0)"/>
      </g>
     </g>
    </g>
    <g id="ytick_3">
     <g id="line2d_11">
      <g>
       <use xlink:href="#mdf3af26920" x="50.915" y="181.747555" style="stroke: #000000; stroke-width: 0.8"/>
      </g>
     </g>
     <g id="text_12">
      <!-- 300 -->
      <g transform="translate(24.8275 185.546774) scale(0.1 -0.1)">
       <use xlink:href="#DejaVuSans-33"/>
       <use xlink:href="#DejaVuSans-30" transform="translate(63.623047 0)"/>
       <use xlink:href="#DejaVuSans-30" transform="translate(127.246094 0)"/>
      </g>
     </g>
    </g>
    <g id="ytick_4">
     <g id="line2d_12">
      <g>
       <use xlink:href="#mdf3af26920" x="50.915" y="111.63884" style="stroke: #000000; stroke-width: 0.8"/>
      </g>
     </g>
     <g id="text_13">
      <!-- 400 -->
      <g transform="translate(24.8275 115.438059) scale(0.1 -0.1)">
       <defs>
        <path id="DejaVuSans-34" d="M 2419 4116 
L 825 1625 
L 2419 1625 
L 2419 4116 
z
M 2253 4666 
L 3047 4666 
L 3047 1625 
L 3713 1625 
L 3713 1100 
L 3047 1100 
L 3047 0 
L 2419 0 
L 2419 1100 
L 313 1100 
L 313 1709 
L 2253 4666 
z
" transform="scale(0.015625)"/>
       </defs>
       <use xlink:href="#DejaVuSans-34"/>
       <use xlink:href="#DejaVuSans-30" transform="translate(63.623047 0)"/>
       <use xlink:href="#DejaVuSans-30" transform="translate(127.246094 0)"/>
      </g>
     </g>
    </g>
    <g id="ytick_5">
     <g id="line2d_13">
      <g>
       <use xlink:href="#mdf3af26920" x="50.915" y="41.530125" style="stroke: #000000; stroke-width: 0.8"/>
      </g>
     </g>
     <g id="text_14">
      <!-- 500 -->
      <g transform="translate(24.8275 45.329344) scale(0.1 -0.1)">
       <use xlink:href="#DejaVuSans-35"/>
       <use xlink:href="#DejaVuSans-30" transform="translate(63.623047 0)"/>
       <use xlink:href="#DejaVuSans-30" transform="translate(127.246094 0)"/>
      </g>
     </g>
    </g>
    <g id="text_15">
     <!-- SoC -->
     <g transform="translate(18.747812 217.825) rotate(-90) scale(0.1 -0.1)">
      <defs>
       <path id="DejaVuSans-53" d="M 3425 4513 
L 3425 3897 
Q 3066 4069 2747 4153 
Q 2428 4238 2131 4238 
Q 1616 4238 1336 4038 
Q 1056 3838 1056 3469 
Q 1056 3159 1242 3001 
Q 1428 2844 1947 2747 
L 2328 2669 
Q 3034 2534 3370 2195 
Q 3706 1856 3706 1288 
Q 3706 609 3251 259 
Q 2797 -91 1919 -91 
Q 1588 -91 1214 -16 
Q 841 59 441 206 
L 441 856 
Q 825 641 1194 531 
Q 1563 422 1919 422 
Q 2459 422 2753 634 
Q 3047 847 3047 1241 
Q 3047 1584 2836 1778 
Q 2625 1972 2144 2069 
L 1759 2144 
Q 1053 2284 737 2584 
Q 422 2884 422 3419 
Q 422 4038 858 4394 
Q 1294 4750 2059 4750 
Q 2388 4750 2728 4690 
Q 3069 4631 3425 4513 
z
" transform="scale(0.015625)"/>
       <path id="DejaVuSans-6f" d="M 1959 3097 
Q 1497 3097 1228 2736 
Q 959 2375 959 1747 
Q 959 1119 1226 758 
Q 1494 397 1959 397 
Q 2419 397 2687 759 
Q 2956 1122 2956 1747 
Q 2956 2369 2687 2733 
Q 2419 3097 1959 3097 
z
M 1959 3584 
Q 2709 3584 3137 3096 
Q 3566 2609 3566 1747 
Q 3566 888 3137 398 
Q 2709 -91 1959 -91 
Q 1206 -91 779 398 
Q 353 888 353 1747 
Q 353 2609 779 3096 
Q 1206 3584 1959 3584 
z
" transform="scale(0.015625)"/>
       <path id="DejaVuSans-43" d="M 4122 4306 
L 4122 3641 
Q 3803 3938 3442 4084 
Q 3081 4231 2675 4231 
Q 1875 4231 1450 3742 
Q 1025 3253 1025 2328 
Q 1025 1406 1450 917 
Q 1875 428 2675 428 
Q 3081 428 3442 575 
Q 3803 722 4122 1019 
L 4122 359 
Q 3791 134 3420 21 
Q 3050 -91 2638 -91 
Q 1578 -91 968 557 
Q 359 1206 359 2328 
Q 359 3453 968 4101 
Q 1578 4750 2638 4750 
Q 3056 4750 3426 4639 
Q 3797 4528 4122 4306 
z
" transform="scale(0.015625)"/>
      </defs>
      <use xlink:href="#DejaVuSans-53"/>
      <use xlink:href="#DejaVuSans-6f" transform="translate(63.476562 0)"/>
      <use xlink:href="#DejaVuSans-43" transform="translate(124.658203 0)"/>
     </g>
    </g>
   </g>
   <g id="line2d_14">
    <path d="M 80.593713 287.157489 
L 674.167966 287.157489 
L 674.167966 287.157489 
" clip-path="url(#p522dc80a8d)" style="fill: none; stroke: #1f77b4; stroke-width: 1.8; stroke-linecap: square"/>
   </g>
   <g id="line2d_15">
    <path d="M 80.593713 287.157489 
L 674.167966 287.157489 
L 674.167966 287.157489 
" clip-path="url(#p522dc80a8d)" style="fill: none; stroke: #ff7f0e; stroke-width: 1.8; stroke-linecap: square"/>
   </g>
   <g id="line2d_16">
    <path d="M 80.593713 287.157489 
L 674.167966 287.157489 
L 674.167966 287.157489 
" clip-path="url(#p522dc80a8d)" style="fill: none; stroke: #2ca02c; stroke-width: 1.8; stroke-linecap: square"/>
   </g>
   <g id="line2d_17">
    <path d="M 80.593713 287.157489 
L 674.167966 287.157489 
L 674.167966 287.157489 
" clip-path="url(#p522dc80a8d)" style="fill: none; stroke: #d62728; stroke-width: 1.8; stroke-linecap: square"/>
   </g>
   <g id="line2d_18">
    <path d="M 80.593713 287.157489 
L 82.365576 287.157489 
L 84.13744 290.899269 
L 85.909303 290.899269 
L 87.681166 294.62063 
L 89.45303 294.62063 
L 91.224893 297.705659 
L 94.76862 297.705659 
L 96.540484 299.067722 
L 98.312347 298.618192 
L 100.084211 286.396779 
L 101.856074 267.123437 
L 103.627937 237.32251 
L 105.399801 220.181177 
L 107.171664 218.379085 
L 108.943528 194.991957 
L 110.715391 186.567292 
L 117.802845 186.567292 
L 119.574708 225.425148 
L 123.118435 225.425148 
L 124.890299 225.834169 
L 126.662162 233.550528 
L 130.205889 233.550528 
L 131.977753 272.120761 
L 133.749616 277.57928 
L 142.608933 277.57928 
L 144.380797 266.338538 
L 146.15266 261.939458 
L 147.924524 261.939458 
L 149.696387 237.968374 
L 153.240114 197.824316 
L 160.327568 197.824316 
L 162.099431 236.682172 
L 163.871295 257.972872 
L 165.643158 296.830728 
L 167.415021 296.830728 
L 169.186885 319.090285 
L 170.958748 319.090285 
L 172.730612 357.948141 
L 181.589929 357.948141 
L 183.361792 346.54774 
L 185.133656 330.643893 
L 186.905519 330.643893 
L 188.677383 300.051274 
L 190.449246 271.455288 
L 192.22111 244.814865 
L 193.992973 223.568196 
L 202.85229 223.568196 
L 204.624154 233.052571 
L 206.396017 270.285549 
L 208.167881 291.593021 
L 211.711608 291.593021 
L 213.483471 296.193178 
L 217.027198 306.11355 
L 218.799061 308.612117 
L 222.342788 308.612117 
L 224.114652 313.831406 
L 225.886515 284.451561 
L 227.658379 284.451561 
L 229.430242 266.40873 
L 231.202105 266.40873 
L 232.973969 246.234167 
L 236.517696 187.862758 
L 238.289559 182.241278 
L 240.061423 182.241278 
L 241.833286 194.680694 
L 243.60515 202.357861 
L 245.377013 241.215716 
L 247.148876 241.215716 
L 248.92074 272.433254 
L 250.692603 290.313691 
L 252.464467 294.840276 
L 254.23633 298.195265 
L 257.780057 298.195265 
L 259.551921 301.834818 
L 266.639374 301.834818 
L 268.411238 271.279789 
L 270.183101 252.205375 
L 273.726828 252.205375 
L 279.042418 182.241278 
L 291.445463 182.241278 
L 294.989189 255.942912 
L 296.761053 255.942912 
L 298.532916 270.314895 
L 302.076643 270.314895 
L 303.848507 278.681853 
L 305.62037 281.62165 
L 310.93596 281.62165 
L 312.707824 254.361252 
L 314.479687 252.418446 
L 316.251551 233.634997 
L 318.023414 218.19092 
L 319.795278 189.530377 
L 321.567141 182.241278 
L 333.970185 182.241278 
L 335.742049 208.034863 
L 337.513912 226.748941 
L 339.285776 236.616623 
L 341.057639 236.616623 
L 342.829502 258.028874 
L 344.601366 274.470448 
L 346.373229 308.826585 
L 351.68882 308.826585 
L 353.460683 290.427835 
L 355.232547 269.352295 
L 357.00441 249.865495 
L 358.776273 235.006 
L 362.32 235.006 
L 364.091864 213.181515 
L 374.723044 213.181515 
L 376.494908 238.950343 
L 378.266771 268.357805 
L 380.038635 268.357805 
L 381.810498 295.746898 
L 383.582362 295.746898 
L 385.354225 310.468008 
L 388.897952 310.468008 
L 390.669815 319.868874 
L 395.985406 319.868874 
L 397.757269 301.838809 
L 399.529133 296.650283 
L 401.300996 280.542867 
L 403.072859 253.383249 
L 406.616586 253.383249 
L 408.38845 236.971598 
L 422.563357 236.971598 
L 424.335221 244.845711 
L 426.107084 244.845711 
L 427.878948 252.735027 
L 429.650811 262.163065 
L 431.422675 268.808767 
L 433.194538 272.322319 
L 436.738265 272.322319 
L 438.510128 266.790303 
L 440.281992 245.626107 
L 443.825719 245.626107 
L 445.597582 236.050868 
L 447.369446 212.341406 
L 449.141309 191.257863 
L 450.913172 182.241278 
L 459.77249 182.241278 
L 461.544353 195.351049 
L 463.316217 195.351049 
L 465.08808 209.544784 
L 468.631807 209.544784 
L 470.40367 224.629072 
L 472.175534 228.913153 
L 473.947397 261.301025 
L 475.719261 300.158881 
L 477.491124 325.114257 
L 481.034851 325.114257 
L 482.806714 314.602612 
L 486.350441 301.212979 
L 488.122305 290.918516 
L 489.894168 290.918516 
L 491.666032 274.499716 
L 512.928393 274.499716 
L 514.700256 311.293341 
L 516.47212 337.899465 
L 518.243983 347.329799 
L 520.015847 353.892011 
L 525.331437 353.892011 
L 527.103301 336.079598 
L 528.875164 334.30875 
L 532.418891 287.157489 
L 546.593798 287.157489 
L 548.365662 326.015345 
L 550.137525 339.183106 
L 555.453116 339.183106 
L 557.224979 361.080317 
L 567.85616 361.080317 
L 569.628023 339.100125 
L 571.399887 308.063872 
L 573.17175 294.116684 
L 574.943614 294.116684 
L 576.715477 266.173955 
L 578.48734 245.802583 
L 585.574794 245.802583 
L 587.346658 248.32132 
L 589.118521 284.743297 
L 590.890385 284.743297 
L 592.662248 300.249641 
L 594.434111 305.240202 
L 599.749702 305.240202 
L 601.521565 308.848997 
L 606.837156 308.848997 
L 608.609019 277.904047 
L 610.380882 277.904047 
L 612.152746 246.429184 
L 613.924609 228.420267 
L 615.696473 227.533246 
L 617.468336 214.727573 
L 629.87138 214.727573 
L 631.643244 253.585428 
L 633.415107 263.894663 
L 635.186971 263.894663 
L 636.958834 272.136727 
L 640.502561 279.900292 
L 642.274424 318.758148 
L 644.046288 353.827656 
L 645.818151 357.591352 
L 649.361878 357.591352 
L 651.133742 337.283285 
L 652.905605 314.154312 
L 654.677469 294.695455 
L 656.449332 266.167953 
L 658.221195 239.705924 
L 670.62424 239.705924 
L 672.396103 278.563779 
L 674.167966 287.157489 
L 674.167966 287.157489 
" clip-path="url(#p522dc80a8d)" style="fill: none; stroke: #9467bd; stroke-width: 1.8; stroke-linecap: square"/>
   </g>
   <g id="line2d_19">
    <path d="M 80.593713 287.157489 
L 674.167966 287.157489 
L 674.167966 287.157489 
" clip-path="url(#p522dc80a8d)" style="fill: none; stroke: #8c564b; stroke-width: 1.8; stroke-linecap: square"/>
   </g>
   <g id="line2d_20">
    <path d="M 80.593713 182.241278 
L 674.167966 182.241278 
L 674.167966 182.241278 
" clip-path="url(#p522dc80a8d)" style="fill: none; stroke: #e377c2; stroke-width: 1.8; stroke-linecap: square"/>
   </g>
   <g id="line2d_21">
    <path d="M 80.593713 182.241278 
L 170.958748 182.241278 
L 172.730612 183.951363 
L 181.589929 183.951363 
L 183.361792 187.421049 
L 185.133656 187.200914 
L 186.905519 183.881681 
L 188.677383 180.929166 
L 190.449246 179.958533 
L 192.22111 182.607711 
L 195.764837 182.607711 
L 197.5367 178.516634 
L 199.308563 170.766173 
L 201.080427 163.771795 
L 202.85229 154.862605 
L 209.939744 154.808817 
L 211.711608 151.508247 
L 213.483471 146.849206 
L 215.255334 142.956819 
L 217.027198 133.928304 
L 218.799061 122.474198 
L 220.570925 112.813908 
L 222.342788 109.512897 
L 224.114652 108.177007 
L 227.658379 108.177007 
L 229.430242 109.266879 
L 236.517696 109.266879 
L 238.289559 108.545152 
L 240.061423 102.85692 
L 241.833286 95.767768 
L 245.377013 74.967335 
L 247.148876 70.505504 
L 248.92074 62.325451 
L 250.692603 56.804137 
L 252.464467 52.147471 
L 254.23633 48.21746 
L 256.008194 45.289567 
L 257.780057 43.353409 
L 259.551921 42.7 
L 261.323784 45.470981 
L 263.095647 53.041531 
L 279.042418 53.041531 
L 280.814282 66.965351 
L 282.586145 66.965351 
L 284.358009 71.138168 
L 286.129872 72.6826 
L 291.445463 72.6826 
L 293.217326 72.081441 
L 294.989189 68.05686 
L 296.761053 65.732876 
L 298.532916 68.963005 
L 302.076643 68.963005 
L 303.848507 70.572315 
L 307.392234 70.629463 
L 332.198322 70.629463 
L 333.970185 84.580531 
L 360.548137 84.580531 
L 362.32 98.545311 
L 381.810498 98.545311 
L 383.582362 112.478243 
L 388.897952 112.478243 
L 390.669815 118.710336 
L 419.01963 118.710336 
L 420.791494 132.635954 
L 440.281992 132.635954 
L 442.053855 136.79449 
L 443.825719 137.574122 
L 459.77249 137.574122 
L 461.544353 148.644632 
L 502.297212 148.644632 
L 504.069076 162.595139 
L 530.647027 162.595139 
L 532.418891 172.015981 
L 544.821935 172.015981 
L 546.593798 182.241278 
L 557.224979 182.241278 
L 558.996843 192.438452 
L 560.768706 192.438452 
L 562.540569 201.557783 
L 564.312433 208.368432 
L 567.85616 208.368432 
L 569.628023 218.694155 
L 576.715477 218.694155 
L 578.48734 222.241743 
L 580.259204 220.748254 
L 583.802931 202.63578 
L 585.574794 192.341929 
L 587.346658 193.027515 
L 589.118521 182.241278 
L 592.662248 158.258335 
L 596.205975 137.14066 
L 599.749702 115.475544 
L 601.521565 105.57416 
L 603.293429 97.360713 
L 605.065292 122.317472 
L 608.609019 122.317472 
L 610.380882 123.772348 
L 612.152746 124.806496 
L 613.924609 128.305699 
L 615.696473 144.646732 
L 617.468336 164.585471 
L 619.2402 166.072532 
L 621.012063 173.122443 
L 628.099517 173.122443 
L 629.87138 178.105491 
L 631.643244 182.241278 
L 633.415107 184.87581 
L 644.046288 184.87581 
L 645.818151 186.420003 
L 649.361878 186.420003 
L 651.133742 205.248173 
L 652.905605 214.625626 
L 656.449332 214.625626 
L 658.221195 215.243817 
L 659.993059 215.243817 
L 661.764922 208.241747 
L 665.308649 192.776585 
L 670.62424 172.15804 
L 672.396103 182.241278 
L 674.167966 182.241278 
L 674.167966 182.241278 
" clip-path="url(#p522dc80a8d)" style="fill: none; stroke: #7f7f7f; stroke-width: 1.8; stroke-linecap: square"/>
   </g>
   <g id="line2d_22">
    <path d="M 80.593713 182.241278 
L 674.167966 182.241278 
L 674.167966 182.241278 
" clip-path="url(#p522dc80a8d)" style="fill: none; stroke: #bcbd22; stroke-width: 1.8; stroke-linecap: square"/>
   </g>
   <g id="line2d_23">
    <path d="M 80.593713 333.320622 
L 674.167966 333.320622 
L 674.167966 333.320622 
" clip-path="url(#p522dc80a8d)" style="fill: none; stroke: #17becf; stroke-width: 1.8; stroke-linecap: square"/>
   </g>
   <g id="line2d_24">
    <path d="M 80.593713 333.320622 
L 674.167966 333.320622 
L 674.167966 333.320622 
" clip-path="url(#p522dc80a8d)" style="fill: none; stroke: #1f77b4; stroke-width: 1.8; stroke-linecap: square"/>
   </g>
   <g id="line2d_25">
    <path d="M 80.593713 333.320622 
L 674.167966 333.320622 
L 674.167966 333.320622 
" clip-path="url(#p522dc80a8d)" style="fill: none; stroke: #ff7f0e; stroke-width: 1.8; stroke-linecap: square"/>
   </g>
   <g id="line2d_26">
    <path d="M 80.593713 335.983195 
L 84.13744 335.983195 
L 85.909303 339.002932 
L 87.681166 339.002932 
L 89.45303 342.680875 
L 96.540484 342.680875 
L 98.312347 316.24199 
L 105.399801 316.24199 
L 107.171664 289.803104 
L 117.802845 289.803104 
L 119.574708 298.41822 
L 121.346572 305.069818 
L 126.662162 305.069818 
L 128.434026 322.881954 
L 130.205889 355.085824 
L 133.749616 355.085824 
L 135.521479 357.304617 
L 140.83707 357.304617 
L 142.608933 335.591923 
L 144.380797 335.591923 
L 146.15266 312.551472 
L 147.924524 298.779414 
L 169.186885 298.779414 
L 170.958748 309.50179 
L 172.730612 309.50179 
L 174.502475 342.142389 
L 176.274339 346.549219 
L 181.589929 346.601936 
L 185.133656 346.601936 
L 186.905519 335.39292 
L 193.992973 335.39292 
L 195.764837 311.028493 
L 225.886515 311.028493 
L 227.658379 292.564665 
L 229.430242 292.564665 
L 231.202105 274.567544 
L 238.289559 274.567544 
L 240.061423 306.592244 
L 241.833286 306.592244 
L 243.60515 311.003616 
L 245.377013 311.003616 
L 247.148876 314.99135 
L 259.551921 314.99135 
L 261.323784 317.708353 
L 270.183101 317.708353 
L 271.954965 294.548995 
L 273.726828 274.567544 
L 289.673599 274.567544 
L 291.445463 294.347585 
L 294.989189 294.347585 
L 296.761053 326.988184 
L 298.532916 326.988184 
L 300.30478 349.460072 
L 302.076643 366.794838 
L 309.164097 366.794838 
L 310.93596 342.201609 
L 312.707824 342.201609 
L 314.479687 315.762724 
L 319.795278 315.762724 
L 321.567141 296.31156 
L 323.339005 274.567544 
L 332.198322 274.567544 
L 333.970185 299.033417 
L 339.285776 299.033417 
L 341.057639 303.902373 
L 342.829502 303.902373 
L 344.601366 336.542972 
L 346.373229 336.542972 
L 348.145093 355.421531 
L 349.916956 360.005446 
L 351.68882 352.349762 
L 358.776273 352.349762 
L 362.32 303.682017 
L 372.951181 303.682017 
L 374.723044 304.758895 
L 378.266771 304.758895 
L 380.038635 313.946468 
L 385.354225 313.946468 
L 387.126088 325.351984 
L 388.897952 346.430114 
L 390.669815 346.430114 
L 392.441679 347.803653 
L 394.213542 339.428695 
L 395.985406 333.035225 
L 397.757269 333.035225 
L 399.529133 311.149503 
L 403.072859 311.149503 
L 404.844723 285.553712 
L 406.616586 274.567544 
L 413.70404 274.567544 
L 415.475904 280.179597 
L 417.247767 289.019891 
L 419.01963 303.326629 
L 424.335221 303.326629 
L 426.107084 311.279532 
L 440.281992 311.279532 
L 442.053855 287.571817 
L 443.825719 274.567544 
L 465.08808 274.567544 
L 466.859943 298.313012 
L 468.631807 317.031684 
L 470.40367 317.031684 
L 472.175534 349.672283 
L 481.034851 349.672283 
L 482.806714 345.035221 
L 488.122305 345.035221 
L 489.894168 329.583524 
L 505.840939 329.583524 
L 507.612803 341.945712 
L 509.384666 341.945712 
L 511.15653 357.137197 
L 512.928393 373.5 
L 521.78771 373.5 
L 523.559574 357.345698 
L 525.331437 338.981644 
L 532.418891 338.981644 
L 534.190754 317.091201 
L 544.821935 317.091201 
L 548.365662 349.893581 
L 553.681252 349.893581 
L 555.453116 369.384859 
L 564.312433 369.384859 
L 566.084296 354.157389 
L 567.85616 336.632931 
L 573.17175 336.632931 
L 574.943614 321.137093 
L 589.118521 321.137093 
L 590.890385 325.714149 
L 608.609019 325.714149 
L 610.380882 305.957611 
L 612.152746 303.514285 
L 613.924609 303.514285 
L 615.696473 277.0754 
L 629.87138 277.0754 
L 631.643244 277.571924 
L 636.958834 277.571924 
L 640.502561 342.853122 
L 642.274424 343.720338 
L 652.905605 343.720338 
L 654.677469 335.522201 
L 658.221195 335.522201 
L 659.993059 310.309111 
L 661.764922 287.238016 
L 670.62424 287.238016 
L 672.396103 300.680023 
L 674.167966 333.320622 
L 674.167966 333.320622 
" clip-path="url(#p522dc80a8d)" style="fill: none; stroke: #2ca02c; stroke-width: 1.8; stroke-linecap: square"/>
   </g>
   <g id="line2d_27">
    <path d="M 80.593713 333.320622 
L 82.365576 332.931096 
L 84.13744 332.718613 
L 85.909303 330.774043 
L 87.681166 330.774043 
L 89.45303 328.013808 
L 91.224893 323.469648 
L 92.996757 319.666177 
L 94.76862 314.927127 
L 103.627937 314.927127 
L 105.399801 317.883101 
L 107.171664 318.851468 
L 108.943528 320.118689 
L 114.259118 320.118689 
L 116.030982 319.431566 
L 117.802845 322.169947 
L 119.574708 324.413386 
L 121.346572 327.625856 
L 123.118435 330.579213 
L 124.890299 331.990493 
L 126.662162 332.554834 
L 130.205889 333.194564 
L 135.521479 334.417008 
L 137.293343 334.417008 
L 139.065206 333.725427 
L 140.83707 334.034481 
L 142.608933 334.13264 
L 144.380797 334.875522 
L 146.15266 335.43805 
L 147.924524 335.43805 
L 149.696387 334.231645 
L 151.46825 334.231645 
L 153.240114 332.749237 
L 156.783841 332.749237 
L 158.555704 333.025292 
L 160.327568 333.025292 
L 162.099431 333.242624 
L 163.871295 333.320622 
L 165.643158 332.683014 
L 167.415021 329.776663 
L 174.502475 329.776663 
L 176.274339 321.67275 
L 211.711608 321.67275 
L 213.483471 309.496169 
L 225.886515 309.496169 
L 227.658379 308.779225 
L 256.008194 308.779225 
L 257.780057 297.199047 
L 268.411238 297.199047 
L 270.183101 297.065485 
L 271.954965 301.290739 
L 273.726828 309.566307 
L 275.498692 315.370731 
L 277.270555 319.594769 
L 279.042418 322.265428 
L 287.901736 322.265428 
L 289.673599 313.481693 
L 296.761053 313.481693 
L 298.532916 307.828811 
L 326.882731 307.828811 
L 328.654595 295.888656 
L 332.198322 295.888656 
L 333.970185 290.513185 
L 339.285776 290.513185 
L 341.057639 288.357063 
L 342.829502 286.972844 
L 344.601366 286.560609 
L 346.373229 286.70827 
L 348.145093 287.154541 
L 351.68882 287.171167 
L 355.232547 291.974027 
L 357.00441 296.841183 
L 360.548137 309.284735 
L 362.32 310.974003 
L 364.091864 312.032175 
L 374.723044 312.032175 
L 376.494908 315.010928 
L 378.266771 318.904382 
L 380.038635 322.342308 
L 381.810498 324.850935 
L 383.582362 326.071919 
L 387.126088 326.90811 
L 388.897952 328.255819 
L 390.669815 328.255819 
L 392.441679 327.753661 
L 394.213542 322.787751 
L 395.985406 322.191463 
L 401.300996 322.191463 
L 403.072859 318.701605 
L 410.160313 318.701605 
L 411.932177 312.906524 
L 413.70404 312.906524 
L 415.475904 310.761174 
L 417.247767 313.002316 
L 419.01963 316.997405 
L 420.791494 322.92261 
L 422.563357 326.940928 
L 424.335221 332.500749 
L 426.107084 334.450122 
L 427.878948 331.968997 
L 433.194538 331.968997 
L 434.966401 327.67079 
L 450.913172 327.67079 
L 452.685036 315.524639 
L 459.77249 315.524639 
L 461.544353 312.220649 
L 463.316217 311.017074 
L 465.08808 312.304437 
L 466.859943 314.60108 
L 468.631807 314.991376 
L 472.175534 316.481181 
L 475.719261 318.712866 
L 479.262988 318.712866 
L 481.034851 318.458961 
L 482.806714 322.19345 
L 484.578578 323.996538 
L 486.350441 325.456611 
L 488.122305 326.205348 
L 489.894168 326.205348 
L 491.666032 324.589344 
L 496.981622 324.589344 
L 498.753485 323.96367 
L 500.525349 324.666285 
L 504.069076 325.573059 
L 507.612803 326.640148 
L 509.384666 328.47546 
L 511.15653 329.832424 
L 512.928393 332.366567 
L 514.700256 332.974085 
L 518.243983 334.832945 
L 521.78771 334.832945 
L 523.559574 334.547803 
L 525.331437 335.418487 
L 527.103301 336.77072 
L 530.647027 344.044439 
L 537.734481 344.044439 
L 539.506345 334.000697 
L 544.821935 334.000697 
L 546.593798 333.320622 
L 674.167966 333.320622 
L 674.167966 333.320622 
" clip-path="url(#p522dc80a8d)" style="fill: none; stroke: #d62728; stroke-width: 1.8; stroke-linecap: square"/>
   </g>
   <g id="line2d_28">
    <path d="M 80.593713 333.320622 
L 82.365576 334.542776 
L 98.312347 334.542776 
L 101.856074 308.103891 
L 103.627937 307.044014 
L 105.399801 293.824571 
L 108.943528 293.824571 
L 110.715391 280.605128 
L 121.346572 280.605128 
L 123.118435 285.634342 
L 126.662162 318.274941 
L 139.065206 318.274941 
L 140.83707 309.440132 
L 142.608933 309.440132 
L 144.380797 296.220689 
L 146.15266 296.220689 
L 147.924524 283.001247 
L 160.327568 283.001247 
L 162.099431 294.549663 
L 163.871295 310.869962 
L 165.643158 311.387618 
L 167.415021 325.766146 
L 169.186885 325.766146 
L 170.958748 342.086445 
L 172.730612 348.744612 
L 174.502475 359.759507 
L 183.361792 359.759507 
L 186.905519 333.320622 
L 208.167881 333.320622 
L 211.711608 342.50751 
L 225.886515 342.50751 
L 232.973969 289.62974 
L 234.745832 287.786986 
L 236.517696 287.786986 
L 238.289559 274.567544 
L 240.061423 281.635349 
L 241.833286 297.955649 
L 243.60515 297.955649 
L 245.377013 309.514865 
L 254.23633 309.514865 
L 256.008194 311.706689 
L 257.780057 314.225871 
L 268.411238 314.225871 
L 273.726828 274.567544 
L 289.673599 274.567544 
L 291.445463 290.887843 
L 294.989189 290.887843 
L 296.761053 300.066217 
L 314.479687 300.066217 
L 316.251551 287.786986 
L 318.023414 274.567544 
L 337.513912 274.567544 
L 341.057639 307.208142 
L 355.232547 307.208142 
L 357.00441 301.117508 
L 358.776273 287.898066 
L 378.266771 287.898066 
L 380.038635 304.218365 
L 381.810498 304.218365 
L 383.582362 317.119434 
L 385.354225 317.119434 
L 387.126088 333.439734 
L 394.213542 333.439734 
L 395.985406 320.220291 
L 399.529133 320.220291 
L 401.300996 307.000849 
L 404.844723 307.000849 
L 406.616586 293.781406 
L 410.160313 293.781406 
L 411.932177 298.900051 
L 413.70404 308.052428 
L 419.01963 308.052428 
L 420.791494 318.006917 
L 422.563357 326.030269 
L 436.738265 326.030269 
L 438.510128 312.810826 
L 442.053855 312.810826 
L 443.825719 301.006429 
L 445.597582 287.786986 
L 449.141309 287.786986 
L 450.913172 274.567544 
L 461.544353 274.567544 
L 463.316217 287.927372 
L 468.631807 287.927372 
L 470.40367 304.247672 
L 473.947397 304.247672 
L 475.719261 314.164229 
L 482.806714 314.164229 
L 484.578578 309.776001 
L 500.525349 309.776001 
L 502.297212 311.555252 
L 505.840939 333.83216 
L 507.612803 333.83216 
L 509.384666 346.540064 
L 527.103301 346.540064 
L 528.875164 333.320622 
L 550.137525 333.320622 
L 553.681252 360.900237 
L 557.224979 360.900237 
L 558.996843 366.016894 
L 560.768706 368.166299 
L 564.312433 368.166299 
L 569.628023 328.507971 
L 571.399887 328.507971 
L 574.943614 302.069086 
L 589.118521 302.069086 
L 590.890385 318.389385 
L 594.434111 318.389385 
L 597.977838 327.276442 
L 599.749702 340.245065 
L 608.609019 340.245065 
L 610.380882 327.025623 
L 612.152746 327.025623 
L 613.924609 313.80618 
L 615.696473 313.80618 
L 619.2402 287.786986 
L 621.012063 274.567544 
L 628.099517 274.567544 
L 629.87138 276.104044 
L 633.415107 276.104044 
L 635.186971 285.111244 
L 638.730698 285.111244 
L 642.274424 317.751843 
L 654.677469 317.751843 
L 656.449332 317.000322 
L 672.396103 317.000322 
L 674.167966 333.320622 
L 674.167966 333.320622 
" clip-path="url(#p522dc80a8d)" style="fill: none; stroke: #9467bd; stroke-width: 1.8; stroke-linecap: square"/>
   </g>
   <g id="line2d_29">
    <path d="M 80.593713 333.320622 
L 674.167966 333.320622 
L 674.167966 333.320622 
" clip-path="url(#p522dc80a8d)" style="fill: none; stroke: #8c564b; stroke-width: 1.8; stroke-linecap: square"/>
   </g>
   <g id="line2d_30">
    <path d="M 80.593713 333.320622 
L 674.167966 333.320622 
L 674.167966 333.320622 
" clip-path="url(#p522dc80a8d)" style="fill: none; stroke: #e377c2; stroke-width: 1.8; stroke-linecap: square"/>
   </g>
   <g id="line2d_31">
    <path d="M 80.593713 333.320622 
L 674.167966 333.320622 
L 674.167966 333.320622 
" clip-path="url(#p522dc80a8d)" style="fill: none; stroke: #7f7f7f; stroke-width: 1.8; stroke-linecap: square"/>
   </g>
   <g id="patch_3">
    <path d="M 50.915 390.04 
L 50.915 26.16 
" style="fill: none; stroke: #000000; stroke-width: 0.8; stroke-linejoin: miter; stroke-linecap: square"/>
   </g>
   <g id="patch_4">
    <path d="M 703.846679 390.04 
L 703.846679 26.16 
" style="fill: none; stroke: #000000; stroke-width: 0.8; stroke-linejoin: miter; stroke-linecap: square"/>
   </g>
   <g id="patch_5">
    <path d="M 50.915 390.04 
L 703.846679 390.04 
" style="fill: none; stroke: #000000; stroke-width: 0.8; stroke-linejoin: miter; stroke-linecap: square"/>
   </g>
   <g id="patch_6">
    <path d="M 50.915 26.16 
L 703.846679 26.16 
" style="fill: none; stroke: #000000; stroke-width: 0.8; stroke-linejoin: miter; stroke-linecap: square"/>
   </g>
   <g id="text_16">
    <!-- SoC by battery (T=336, F = False, L = False) -->
    <g transform="translate(243.668965 20.16) scale(0.12 -0.12)">
     <defs>
      <path id="DejaVuSans-62" d="M 3116 1747 
Q 3116 2381 2855 2742 
Q 2594 3103 2138 3103 
Q 1681 3103 1420 2742 
Q 1159 2381 1159 1747 
Q 1159 1113 1420 752 
Q 1681 391 2138 391 
Q 2594 391 2855 752 
Q 3116 1113 3116 1747 
z
M 1159 2969 
Q 1341 3281 1617 3432 
Q 1894 3584 2278 3584 
Q 2916 3584 3314 3078 
Q 3713 2572 3713 1747 
Q 3713 922 3314 415 
Q 2916 -91 2278 -91 
Q 1894 -91 1617 61 
Q 1341 213 1159 525 
L 1159 0 
L 581 0 
L 581 4863 
L 1159 4863 
L 1159 2969 
z
" transform="scale(0.015625)"/>
      <path id="DejaVuSans-79" d="M 2059 -325 
Q 1816 -950 1584 -1140 
Q 1353 -1331 966 -1331 
L 506 -1331 
L 506 -850 
L 844 -850 
Q 1081 -850 1212 -737 
Q 1344 -625 1503 -206 
L 1606 56 
L 191 3500 
L 800 3500 
L 1894 763 
L 2988 3500 
L 3597 3500 
L 2059 -325 
z
" transform="scale(0.015625)"/>
      <path id="DejaVuSans-61" d="M 2194 1759 
Q 1497 1759 1228 1600 
Q 959 1441 959 1056 
Q 959 750 1161 570 
Q 1363 391 1709 391 
Q 2188 391 2477 730 
Q 2766 1069 2766 1631 
L 2766 1759 
L 2194 1759 
z
M 3341 1997 
L 3341 0 
L 2766 0 
L 2766 531 
Q 2569 213 2275 61 
Q 1981 -91 1556 -91 
Q 1019 -91 701 211 
Q 384 513 384 1019 
Q 384 1609 779 1909 
Q 1175 2209 1959 2209 
L 2766 2209 
L 2766 2266 
Q 2766 2663 2505 2880 
Q 2244 3097 1772 3097 
Q 1472 3097 1187 3025 
Q 903 2953 641 2809 
L 641 3341 
Q 956 3463 1253 3523 
Q 1550 3584 1831 3584 
Q 2591 3584 2966 3190 
Q 3341 2797 3341 1997 
z
" transform="scale(0.015625)"/>
      <path id="DejaVuSans-72" d="M 2631 2963 
Q 2534 3019 2420 3045 
Q 2306 3072 2169 3072 
Q 1681 3072 1420 2755 
Q 1159 2438 1159 1844 
L 1159 0 
L 581 0 
L 581 3500 
L 1159 3500 
L 1159 2956 
Q 1341 3275 1631 3429 
Q 1922 3584 2338 3584 
Q 2397 3584 2469 3576 
Q 2541 3569 2628 3553 
L 2631 2963 
z
" transform="scale(0.015625)"/>
      <path id="DejaVuSans-3d" d="M 678 2906 
L 4684 2906 
L 4684 2381 
L 678 2381 
L 678 2906 
z
M 678 1631 
L 4684 1631 
L 4684 1100 
L 678 1100 
L 678 1631 
z
" transform="scale(0.015625)"/>
      <path id="DejaVuSans-36" d="M 2113 2584 
Q 1688 2584 1439 2293 
Q 1191 2003 1191 1497 
Q 1191 994 1439 701 
Q 1688 409 2113 409 
Q 2538 409 2786 701 
Q 3034 994 3034 1497 
Q 3034 2003 2786 2293 
Q 2538 2584 2113 2584 
z
M 3366 4563 
L 3366 3988 
Q 3128 4100 2886 4159 
Q 2644 4219 2406 4219 
Q 1781 4219 1451 3797 
Q 1122 3375 1075 2522 
Q 1259 2794 1537 2939 
Q 1816 3084 2150 3084 
Q 2853 3084 3261 2657 
Q 3669 2231 3669 1497 
Q 3669 778 3244 343 
Q 2819 -91 2113 -91 
Q 1303 -91 875 529 
Q 447 1150 447 2328 
Q 447 3434 972 4092 
Q 1497 4750 2381 4750 
Q 2619 4750 2861 4703 
Q 3103 4656 3366 4563 
z
" transform="scale(0.015625)"/>
      <path id="DejaVuSans-2c" d="M 750 794 
L 1409 794 
L 1409 256 
L 897 -744 
L 494 -744 
L 750 256 
L 750 794 
z
" transform="scale(0.015625)"/>
      <path id="DejaVuSans-46" d="M 628 4666 
L 3309 4666 
L 3309 4134 
L 1259 4134 
L 1259 2759 
L 3109 2759 
L 3109 2228 
L 1259 2228 
L 1259 0 
L 628 0 
L 628 4666 
z
" transform="scale(0.015625)"/>
      <path id="DejaVuSans-6c" d="M 603 4863 
L 1178 4863 
L 1178 0 
L 603 0 
L 603 4863 
z
" transform="scale(0.015625)"/>
      <path id="DejaVuSans-73" d="M 2834 3397 
L 2834 2853 
Q 2591 2978 2328 3040 
Q 2066 3103 1784 3103 
Q 1356 3103 1142 2972 
Q 928 2841 928 2578 
Q 928 2378 1081 2264 
Q 1234 2150 1697 2047 
L 1894 2003 
Q 2506 1872 2764 1633 
Q 3022 1394 3022 966 
Q 3022 478 2636 193 
Q 2250 -91 1575 -91 
Q 1294 -91 989 -36 
Q 684 19 347 128 
L 347 722 
Q 666 556 975 473 
Q 1284 391 1588 391 
Q 1994 391 2212 530 
Q 2431 669 2431 922 
Q 2431 1156 2273 1281 
Q 2116 1406 1581 1522 
L 1381 1569 
Q 847 1681 609 1914 
Q 372 2147 372 2553 
Q 372 3047 722 3315 
Q 1072 3584 1716 3584 
Q 2034 3584 2315 3537 
Q 2597 3491 2834 3397 
z
" transform="scale(0.015625)"/>
      <path id="DejaVuSans-4c" d="M 628 4666 
L 1259 4666 
L 1259 531 
L 3531 531 
L 3531 0 
L 628 0 
L 628 4666 
z
" transform="scale(0.015625)"/>
     </defs>
     <use xlink:href="#DejaVuSans-53"/>
     <use xlink:href="#DejaVuSans-6f" transform="translate(63.476562 0)"/>
     <use xlink:href="#DejaVuSans-43" transform="translate(124.658203 0)"/>
     <use xlink:href="#DejaVuSans-20" transform="translate(194.482422 0)"/>
     <use xlink:href="#DejaVuSans-62" transform="translate(226.269531 0)"/>
     <use xlink:href="#DejaVuSans-79" transform="translate(289.746094 0)"/>
     <use xlink:href="#DejaVuSans-20" transform="translate(348.925781 0)"/>
     <use xlink:href="#DejaVuSans-62" transform="translate(380.712891 0)"/>
     <use xlink:href="#DejaVuSans-61" transform="translate(444.189453 0)"/>
     <use xlink:href="#DejaVuSans-74" transform="translate(505.46875 0)"/>
     <use xlink:href="#DejaVuSans-74" transform="translate(544.677734 0)"/>
     <use xlink:href="#DejaVuSans-65" transform="translate(583.886719 0)"/>
     <use xlink:href="#DejaVuSans-72" transform="translate(645.410156 0)"/>
     <use xlink:href="#DejaVuSans-79" transform="translate(686.523438 0)"/>
     <use xlink:href="#DejaVuSans-20" transform="translate(745.703125 0)"/>
     <use xlink:href="#DejaVuSans-28" transform="translate(777.490234 0)"/>
     <use xlink:href="#DejaVuSans-54" transform="translate(816.503906 0)"/>
     <use xlink:href="#DejaVuSans-3d" transform="translate(877.587891 0)"/>
     <use xlink:href="#DejaVuSans-33" transform="translate(961.376953 0)"/>
     <use xlink:href="#DejaVuSans-33" transform="translate(1025 0)"/>
     <use xlink:href="#DejaVuSans-36" transform="translate(1088.623047 0)"/>
     <use xlink:href="#DejaVuSans-2c" transform="translate(1152.246094 0)"/>
     <use xlink:href="#DejaVuSans-20" transform="translate(1184.033203 0)"/>
     <use xlink:href="#DejaVuSans-46" transform="translate(1215.820312 0)"/>
     <use xlink:href="#DejaVuSans-20" transform="translate(1273.339844 0)"/>
     <use xlink:href="#DejaVuSans-3d" transform="translate(1305.126953 0)"/>
     <use xlink:href="#DejaVuSans-20" transform="translate(1388.916016 0)"/>
     <use xlink:href="#DejaVuSans-46" transform="translate(1420.703125 0)"/>
     <use xlink:href="#DejaVuSans-61" transform="translate(1469.097656 0)"/>
     <use xlink:href="#DejaVuSans-6c" transform="translate(1530.376953 0)"/>
     <use xlink:href="#DejaVuSans-73" transform="translate(1558.160156 0)"/>
     <use xlink:href="#DejaVuSans-65" transform="translate(1610.259766 0)"/>
     <use xlink:href="#DejaVuSans-2c" transform="translate(1671.783203 0)"/>
     <use xlink:href="#DejaVuSans-20" transform="translate(1703.570312 0)"/>
     <use xlink:href="#DejaVuSans-4c" transform="translate(1735.357422 0)"/>
     <use xlink:href="#DejaVuSans-20" transform="translate(1791.070312 0)"/>
     <use xlink:href="#DejaVuSans-3d" transform="translate(1822.857422 0)"/>
     <use xlink:href="#DejaVuSans-20" transform="translate(1906.646484 0)"/>
     <use xlink:href="#DejaVuSans-46" transform="translate(1938.433594 0)"/>
     <use xlink:href="#DejaVuSans-61" transform="translate(1986.828125 0)"/>
     <use xlink:href="#DejaVuSans-6c" transform="translate(2048.107422 0)"/>
     <use xlink:href="#DejaVuSans-73" transform="translate(2075.890625 0)"/>
     <use xlink:href="#DejaVuSans-65" transform="translate(2127.990234 0)"/>
     <use xlink:href="#DejaVuSans-29" transform="translate(2189.513672 0)"/>
    </g>
   </g>
  </g>
 </g>
 <defs>
  <clipPath id="p522dc80a8d">
   <rect x="50.915" y="26.16" width="652.931679" height="363.88"/>
  </clipPath>
 </defs>
</svg>
