<?xml version="1.0" encoding="utf-8" standalone="no"?>
<!DOCTYPE svg PUBLIC "-//W3C//DTD SVG 1.1//EN"
  "http://www.w3.org/Graphics/SVG/1.1/DTD/svg11.dtd">
<svg xmlns:xlink="http://www.w3.org/1999/xlink" width="720pt" height="432pt" viewBox="0 0 720 432" xmlns="http://www.w3.org/2000/svg" version="1.1">
 <metadata>
  <rdf:RDF xmlns:dc="http://purl.org/dc/elements/1.1/" xmlns:cc="http://creativecommons.org/ns#" xmlns:rdf="http://www.w3.org/1999/02/22-rdf-syntax-ns#">
   <cc:Work>
    <dc:type rdf:resource="http://purl.org/dc/dcmitype/StillImage"/>
    <dc:date>2025-11-12T00:25:36.410725</dc:date>
    <dc:format>image/svg+xml</dc:format>
    <dc:creator>
     <cc:Agent>
      <dc:title>Matplotlib v3.10.0, https://matplotlib.org/</dc:title>
     </cc:Agent>
    </dc:creator>
   </cc:Work>
  </rdf:RDF>
 </metadata>
 <defs>
  <style type="text/css">*{stroke-linejoin: round; stroke-linecap: butt}</style>
 </defs>
 <g id="figure_1">
  <g id="patch_1">
   <path d="M 0 432 
L 720 432 
L 720 0 
L 0 0 
z
" style="fill: #ffffff"/>
  </g>
  <g id="axes_1">
   <g id="patch_2">
    <path d="M 50.915 390.04 
L 709.2 390.04 
L 709.2 26.16 
L 50.915 26.16 
z
" style="fill: #ffffff"/>
   </g>
   <g id="matplotlib.axis_1">
    <g id="xtick_1">
     <g id="line2d_1">
      <defs>
       <path id="m76bdd6a84b" d="M 0 0 
L 0 3.5 
" style="stroke: #000000; stroke-width: 0.8"/>
      </defs>
      <g>
       <use xlink:href="#m76bdd6a84b" x="72.4083" y="390.04" style="stroke: #000000; stroke-width: 0.8"/>
      </g>
     </g>
     <g id="text_1">
      <!-- 0 -->
      <g transform="translate(69.22705 404.638438) scale(0.1 -0.1)">
       <defs>
        <path id="DejaVuSans-30" d="M 2034 4250 
Q 1547 4250 1301 3770 
Q 1056 3291 1056 2328 
Q 1056 1369 1301 889 
Q 1547 409 2034 409 
Q 2525 409 2770 889 
Q 3016 1369 3016 2328 
Q 3016 3291 2770 3770 
Q 2525 4250 2034 4250 
z
M 2034 4750 
Q 2819 4750 3233 4129 
Q 3647 3509 3647 2328 
Q 3647 1150 3233 529 
Q 2819 -91 2034 -91 
Q 1250 -91 836 529 
Q 422 1150 422 2328 
Q 422 3509 836 4129 
Q 1250 4750 2034 4750 
z
" transform="scale(0.015625)"/>
       </defs>
       <use xlink:href="#DejaVuSans-30"/>
      </g>
     </g>
    </g>
    <g id="xtick_2">
     <g id="line2d_2">
      <g>
       <use xlink:href="#m76bdd6a84b" x="156.695752" y="390.04" style="stroke: #000000; stroke-width: 0.8"/>
      </g>
     </g>
     <g id="text_2">
      <!-- 10 -->
      <g transform="translate(150.333252 404.638438) scale(0.1 -0.1)">
       <defs>
        <path id="DejaVuSans-31" d="M 794 531 
L 1825 531 
L 1825 4091 
L 703 3866 
L 703 4441 
L 1819 4666 
L 2450 4666 
L 2450 531 
L 3481 531 
L 3481 0 
L 794 0 
L 794 531 
z
" transform="scale(0.015625)"/>
       </defs>
       <use xlink:href="#DejaVuSans-31"/>
       <use xlink:href="#DejaVuSans-30" transform="translate(63.623047 0)"/>
      </g>
     </g>
    </g>
    <g id="xtick_3">
     <g id="line2d_3">
      <g>
       <use xlink:href="#m76bdd6a84b" x="240.983204" y="390.04" style="stroke: #000000; stroke-width: 0.8"/>
      </g>
     </g>
     <g id="text_3">
      <!-- 20 -->
      <g transform="translate(234.620704 404.638438) scale(0.1 -0.1)">
       <defs>
        <path id="DejaVuSans-32" d="M 1228 531 
L 3431 531 
L 3431 0 
L 469 0 
L 469 531 
Q 828 903 1448 1529 
Q 2069 2156 2228 2338 
Q 2531 2678 2651 2914 
Q 2772 3150 2772 3378 
Q 2772 3750 2511 3984 
Q 2250 4219 1831 4219 
Q 1534 4219 1204 4116 
Q 875 4013 500 3803 
L 500 4441 
Q 881 4594 1212 4672 
Q 1544 4750 1819 4750 
Q 2544 4750 2975 4387 
Q 3406 4025 3406 3419 
Q 3406 3131 3298 2873 
Q 3191 2616 2906 2266 
Q 2828 2175 2409 1742 
Q 1991 1309 1228 531 
z
" transform="scale(0.015625)"/>
       </defs>
       <use xlink:href="#DejaVuSans-32"/>
       <use xlink:href="#DejaVuSans-30" transform="translate(63.623047 0)"/>
      </g>
     </g>
    </g>
    <g id="xtick_4">
     <g id="line2d_4">
      <g>
       <use xlink:href="#m76bdd6a84b" x="325.270656" y="390.04" style="stroke: #000000; stroke-width: 0.8"/>
      </g>
     </g>
     <g id="text_4">
      <!-- 30 -->
      <g transform="translate(318.908156 404.638438) scale(0.1 -0.1)">
       <defs>
        <path id="DejaVuSans-33" d="M 2597 2516 
Q 3050 2419 3304 2112 
Q 3559 1806 3559 1356 
Q 3559 666 3084 287 
Q 2609 -91 1734 -91 
Q 1441 -91 1130 -33 
Q 819 25 488 141 
L 488 750 
Q 750 597 1062 519 
Q 1375 441 1716 441 
Q 2309 441 2620 675 
Q 2931 909 2931 1356 
Q 2931 1769 2642 2001 
Q 2353 2234 1838 2234 
L 1294 2234 
L 1294 2753 
L 1863 2753 
Q 2328 2753 2575 2939 
Q 2822 3125 2822 3475 
Q 2822 3834 2567 4026 
Q 2313 4219 1838 4219 
Q 1578 4219 1281 4162 
Q 984 4106 628 3988 
L 628 4550 
Q 988 4650 1302 4700 
Q 1616 4750 1894 4750 
Q 2613 4750 3031 4423 
Q 3450 4097 3450 3541 
Q 3450 3153 3228 2886 
Q 3006 2619 2597 2516 
z
" transform="scale(0.015625)"/>
       </defs>
       <use xlink:href="#DejaVuSans-33"/>
       <use xlink:href="#DejaVuSans-30" transform="translate(63.623047 0)"/>
      </g>
     </g>
    </g>
    <g id="xtick_5">
     <g id="line2d_5">
      <g>
       <use xlink:href="#m76bdd6a84b" x="409.558108" y="390.04" style="stroke: #000000; stroke-width: 0.8"/>
      </g>
     </g>
     <g id="text_5">
      <!-- 40 -->
      <g transform="translate(403.195608 404.638438) scale(0.1 -0.1)">
       <defs>
        <path id="DejaVuSans-34" d="M 2419 4116 
L 825 1625 
L 2419 1625 
L 2419 4116 
z
M 2253 4666 
L 3047 4666 
L 3047 1625 
L 3713 1625 
L 3713 1100 
L 3047 1100 
L 3047 0 
L 2419 0 
L 2419 1100 
L 313 1100 
L 313 1709 
L 2253 4666 
z
" transform="scale(0.015625)"/>
       </defs>
       <use xlink:href="#DejaVuSans-34"/>
       <use xlink:href="#DejaVuSans-30" transform="translate(63.623047 0)"/>
      </g>
     </g>
    </g>
    <g id="xtick_6">
     <g id="line2d_6">
      <g>
       <use xlink:href="#m76bdd6a84b" x="493.84556" y="390.04" style="stroke: #000000; stroke-width: 0.8"/>
      </g>
     </g>
     <g id="text_6">
      <!-- 50 -->
      <g transform="translate(487.48306 404.638438) scale(0.1 -0.1)">
       <defs>
        <path id="DejaVuSans-35" d="M 691 4666 
L 3169 4666 
L 3169 4134 
L 1269 4134 
L 1269 2991 
Q 1406 3038 1543 3061 
Q 1681 3084 1819 3084 
Q 2600 3084 3056 2656 
Q 3513 2228 3513 1497 
Q 3513 744 3044 326 
Q 2575 -91 1722 -91 
Q 1428 -91 1123 -41 
Q 819 9 494 109 
L 494 744 
Q 775 591 1075 516 
Q 1375 441 1709 441 
Q 2250 441 2565 725 
Q 2881 1009 2881 1497 
Q 2881 1984 2565 2268 
Q 2250 2553 1709 2553 
Q 1456 2553 1204 2497 
Q 953 2441 691 2322 
L 691 4666 
z
" transform="scale(0.015625)"/>
       </defs>
       <use xlink:href="#DejaVuSans-35"/>
       <use xlink:href="#DejaVuSans-30" transform="translate(63.623047 0)"/>
      </g>
     </g>
    </g>
    <g id="xtick_7">
     <g id="line2d_7">
      <g>
       <use xlink:href="#m76bdd6a84b" x="578.133012" y="390.04" style="stroke: #000000; stroke-width: 0.8"/>
      </g>
     </g>
     <g id="text_7">
      <!-- 60 -->
      <g transform="translate(571.770512 404.638438) scale(0.1 -0.1)">
       <defs>
        <path id="DejaVuSans-36" d="M 2113 2584 
Q 1688 2584 1439 2293 
Q 1191 2003 1191 1497 
Q 1191 994 1439 701 
Q 1688 409 2113 409 
Q 2538 409 2786 701 
Q 3034 994 3034 1497 
Q 3034 2003 2786 2293 
Q 2538 2584 2113 2584 
z
M 3366 4563 
L 3366 3988 
Q 3128 4100 2886 4159 
Q 2644 4219 2406 4219 
Q 1781 4219 1451 3797 
Q 1122 3375 1075 2522 
Q 1259 2794 1537 2939 
Q 1816 3084 2150 3084 
Q 2853 3084 3261 2657 
Q 3669 2231 3669 1497 
Q 3669 778 3244 343 
Q 2819 -91 2113 -91 
Q 1303 -91 875 529 
Q 447 1150 447 2328 
Q 447 3434 972 4092 
Q 1497 4750 2381 4750 
Q 2619 4750 2861 4703 
Q 3103 4656 3366 4563 
z
" transform="scale(0.015625)"/>
       </defs>
       <use xlink:href="#DejaVuSans-36"/>
       <use xlink:href="#DejaVuSans-30" transform="translate(63.623047 0)"/>
      </g>
     </g>
    </g>
    <g id="xtick_8">
     <g id="line2d_8">
      <g>
       <use xlink:href="#m76bdd6a84b" x="662.420464" y="390.04" style="stroke: #000000; stroke-width: 0.8"/>
      </g>
     </g>
     <g id="text_8">
      <!-- 70 -->
      <g transform="translate(656.057964 404.638438) scale(0.1 -0.1)">
       <defs>
        <path id="DejaVuSans-37" d="M 525 4666 
L 3525 4666 
L 3525 4397 
L 1831 0 
L 1172 0 
L 2766 4134 
L 525 4134 
L 525 4666 
z
" transform="scale(0.015625)"/>
       </defs>
       <use xlink:href="#DejaVuSans-37"/>
       <use xlink:href="#DejaVuSans-30" transform="translate(63.623047 0)"/>
      </g>
     </g>
    </g>
    <g id="text_9">
     <!-- Time (t) -->
     <g transform="translate(360.373125 418.316562) scale(0.1 -0.1)">
      <defs>
       <path id="DejaVuSans-54" d="M -19 4666 
L 3928 4666 
L 3928 4134 
L 2272 4134 
L 2272 0 
L 1638 0 
L 1638 4134 
L -19 4134 
L -19 4666 
z
" transform="scale(0.015625)"/>
       <path id="DejaVuSans-69" d="M 603 3500 
L 1178 3500 
L 1178 0 
L 603 0 
L 603 3500 
z
M 603 4863 
L 1178 4863 
L 1178 4134 
L 603 4134 
L 603 4863 
z
" transform="scale(0.015625)"/>
       <path id="DejaVuSans-6d" d="M 3328 2828 
Q 3544 3216 3844 3400 
Q 4144 3584 4550 3584 
Q 5097 3584 5394 3201 
Q 5691 2819 5691 2113 
L 5691 0 
L 5113 0 
L 5113 2094 
Q 5113 2597 4934 2840 
Q 4756 3084 4391 3084 
Q 3944 3084 3684 2787 
Q 3425 2491 3425 1978 
L 3425 0 
L 2847 0 
L 2847 2094 
Q 2847 2600 2669 2842 
Q 2491 3084 2119 3084 
Q 1678 3084 1418 2786 
Q 1159 2488 1159 1978 
L 1159 0 
L 581 0 
L 581 3500 
L 1159 3500 
L 1159 2956 
Q 1356 3278 1631 3431 
Q 1906 3584 2284 3584 
Q 2666 3584 2933 3390 
Q 3200 3197 3328 2828 
z
" transform="scale(0.015625)"/>
       <path id="DejaVuSans-65" d="M 3597 1894 
L 3597 1613 
L 953 1613 
Q 991 1019 1311 708 
Q 1631 397 2203 397 
Q 2534 397 2845 478 
Q 3156 559 3463 722 
L 3463 178 
Q 3153 47 2828 -22 
Q 2503 -91 2169 -91 
Q 1331 -91 842 396 
Q 353 884 353 1716 
Q 353 2575 817 3079 
Q 1281 3584 2069 3584 
Q 2775 3584 3186 3129 
Q 3597 2675 3597 1894 
z
M 3022 2063 
Q 3016 2534 2758 2815 
Q 2500 3097 2075 3097 
Q 1594 3097 1305 2825 
Q 1016 2553 972 2059 
L 3022 2063 
z
" transform="scale(0.015625)"/>
       <path id="DejaVuSans-20" transform="scale(0.015625)"/>
       <path id="DejaVuSans-28" d="M 1984 4856 
Q 1566 4138 1362 3434 
Q 1159 2731 1159 2009 
Q 1159 1288 1364 580 
Q 1569 -128 1984 -844 
L 1484 -844 
Q 1016 -109 783 600 
Q 550 1309 550 2009 
Q 550 2706 781 3412 
Q 1013 4119 1484 4856 
L 1984 4856 
z
" transform="scale(0.015625)"/>
       <path id="DejaVuSans-74" d="M 1172 4494 
L 1172 3500 
L 2356 3500 
L 2356 3053 
L 1172 3053 
L 1172 1153 
Q 1172 725 1289 603 
Q 1406 481 1766 481 
L 2356 481 
L 2356 0 
L 1766 0 
Q 1100 0 847 248 
Q 594 497 594 1153 
L 594 3053 
L 172 3053 
L 172 3500 
L 594 3500 
L 594 4494 
L 1172 4494 
z
" transform="scale(0.015625)"/>
       <path id="DejaVuSans-29" d="M 513 4856 
L 1013 4856 
Q 1481 4119 1714 3412 
Q 1947 2706 1947 2009 
Q 1947 1309 1714 600 
Q 1481 -109 1013 -844 
L 513 -844 
Q 928 -128 1133 580 
Q 1338 1288 1338 2009 
Q 1338 2731 1133 3434 
Q 928 4138 513 4856 
z
" transform="scale(0.015625)"/>
      </defs>
      <use xlink:href="#DejaVuSans-54"/>
      <use xlink:href="#DejaVuSans-69" transform="translate(57.958984 0)"/>
      <use xlink:href="#DejaVuSans-6d" transform="translate(85.742188 0)"/>
      <use xlink:href="#DejaVuSans-65" transform="translate(183.154297 0)"/>
      <use xlink:href="#DejaVuSans-20" transform="translate(244.677734 0)"/>
      <use xlink:href="#DejaVuSans-28" transform="translate(276.464844 0)"/>
      <use xlink:href="#DejaVuSans-74" transform="translate(315.478516 0)"/>
      <use xlink:href="#DejaVuSans-29" transform="translate(354.6875 0)"/>
     </g>
    </g>
   </g>
   <g id="matplotlib.axis_2">
    <g id="ytick_1">
     <g id="line2d_9">
      <defs>
       <path id="m6e658e23b1" d="M 0 0 
L -3.5 0 
" style="stroke: #000000; stroke-width: 0.8"/>
      </defs>
      <g>
       <use xlink:href="#m6e658e23b1" x="50.915" y="340.443271" style="stroke: #000000; stroke-width: 0.8"/>
      </g>
     </g>
     <g id="text_10">
      <!-- 50 -->
      <g transform="translate(31.19 344.24249) scale(0.1 -0.1)">
       <use xlink:href="#DejaVuSans-35"/>
       <use xlink:href="#DejaVuSans-30" transform="translate(63.623047 0)"/>
      </g>
     </g>
    </g>
    <g id="ytick_2">
     <g id="line2d_10">
      <g>
       <use xlink:href="#m6e658e23b1" x="50.915" y="280.7264" style="stroke: #000000; stroke-width: 0.8"/>
      </g>
     </g>
     <g id="text_11">
      <!-- 100 -->
      <g transform="translate(24.8275 284.525619) scale(0.1 -0.1)">
       <use xlink:href="#DejaVuSans-31"/>
       <use xlink:href="#DejaVuSans-30" transform="translate(63.623047 0)"/>
       <use xlink:href="#DejaVuSans-30" transform="translate(127.246094 0)"/>
      </g>
     </g>
    </g>
    <g id="ytick_3">
     <g id="line2d_11">
      <g>
       <use xlink:href="#m6e658e23b1" x="50.915" y="221.00953" style="stroke: #000000; stroke-width: 0.8"/>
      </g>
     </g>
     <g id="text_12">
      <!-- 150 -->
      <g transform="translate(24.8275 224.808748) scale(0.1 -0.1)">
       <use xlink:href="#DejaVuSans-31"/>
       <use xlink:href="#DejaVuSans-35" transform="translate(63.623047 0)"/>
       <use xlink:href="#DejaVuSans-30" transform="translate(127.246094 0)"/>
      </g>
     </g>
    </g>
    <g id="ytick_4">
     <g id="line2d_12">
      <g>
       <use xlink:href="#m6e658e23b1" x="50.915" y="161.292659" style="stroke: #000000; stroke-width: 0.8"/>
      </g>
     </g>
     <g id="text_13">
      <!-- 200 -->
      <g transform="translate(24.8275 165.091878) scale(0.1 -0.1)">
       <use xlink:href="#DejaVuSans-32"/>
       <use xlink:href="#DejaVuSans-30" transform="translate(63.623047 0)"/>
       <use xlink:href="#DejaVuSans-30" transform="translate(127.246094 0)"/>
      </g>
     </g>
    </g>
    <g id="ytick_5">
     <g id="line2d_13">
      <g>
       <use xlink:href="#m6e658e23b1" x="50.915" y="101.575788" style="stroke: #000000; stroke-width: 0.8"/>
      </g>
     </g>
     <g id="text_14">
      <!-- 250 -->
      <g transform="translate(24.8275 105.375007) scale(0.1 -0.1)">
       <use xlink:href="#DejaVuSans-32"/>
       <use xlink:href="#DejaVuSans-35" transform="translate(63.623047 0)"/>
       <use xlink:href="#DejaVuSans-30" transform="translate(127.246094 0)"/>
      </g>
     </g>
    </g>
    <g id="ytick_6">
     <g id="line2d_14">
      <g>
       <use xlink:href="#m6e658e23b1" x="50.915" y="41.858917" style="stroke: #000000; stroke-width: 0.8"/>
      </g>
     </g>
     <g id="text_15">
      <!-- 300 -->
      <g transform="translate(24.8275 45.658136) scale(0.1 -0.1)">
       <use xlink:href="#DejaVuSans-33"/>
       <use xlink:href="#DejaVuSans-30" transform="translate(63.623047 0)"/>
       <use xlink:href="#DejaVuSans-30" transform="translate(127.246094 0)"/>
      </g>
     </g>
    </g>
    <g id="text_16">
     <!-- SoC -->
     <g transform="translate(18.747812 217.825) rotate(-90) scale(0.1 -0.1)">
      <defs>
       <path id="DejaVuSans-53" d="M 3425 4513 
L 3425 3897 
Q 3066 4069 2747 4153 
Q 2428 4238 2131 4238 
Q 1616 4238 1336 4038 
Q 1056 3838 1056 3469 
Q 1056 3159 1242 3001 
Q 1428 2844 1947 2747 
L 2328 2669 
Q 3034 2534 3370 2195 
Q 3706 1856 3706 1288 
Q 3706 609 3251 259 
Q 2797 -91 1919 -91 
Q 1588 -91 1214 -16 
Q 841 59 441 206 
L 441 856 
Q 825 641 1194 531 
Q 1563 422 1919 422 
Q 2459 422 2753 634 
Q 3047 847 3047 1241 
Q 3047 1584 2836 1778 
Q 2625 1972 2144 2069 
L 1759 2144 
Q 1053 2284 737 2584 
Q 422 2884 422 3419 
Q 422 4038 858 4394 
Q 1294 4750 2059 4750 
Q 2388 4750 2728 4690 
Q 3069 4631 3425 4513 
z
" transform="scale(0.015625)"/>
       <path id="DejaVuSans-6f" d="M 1959 3097 
Q 1497 3097 1228 2736 
Q 959 2375 959 1747 
Q 959 1119 1226 758 
Q 1494 397 1959 397 
Q 2419 397 2687 759 
Q 2956 1122 2956 1747 
Q 2956 2369 2687 2733 
Q 2419 3097 1959 3097 
z
M 1959 3584 
Q 2709 3584 3137 3096 
Q 3566 2609 3566 1747 
Q 3566 888 3137 398 
Q 2709 -91 1959 -91 
Q 1206 -91 779 398 
Q 353 888 353 1747 
Q 353 2609 779 3096 
Q 1206 3584 1959 3584 
z
" transform="scale(0.015625)"/>
       <path id="DejaVuSans-43" d="M 4122 4306 
L 4122 3641 
Q 3803 3938 3442 4084 
Q 3081 4231 2675 4231 
Q 1875 4231 1450 3742 
Q 1025 3253 1025 2328 
Q 1025 1406 1450 917 
Q 1875 428 2675 428 
Q 3081 428 3442 575 
Q 3803 722 4122 1019 
L 4122 359 
Q 3791 134 3420 21 
Q 3050 -91 2638 -91 
Q 1578 -91 968 557 
Q 359 1206 359 2328 
Q 359 3453 968 4101 
Q 1578 4750 2638 4750 
Q 3056 4750 3426 4639 
Q 3797 4528 4122 4306 
z
" transform="scale(0.015625)"/>
      </defs>
      <use xlink:href="#DejaVuSans-53"/>
      <use xlink:href="#DejaVuSans-6f" transform="translate(63.476562 0)"/>
      <use xlink:href="#DejaVuSans-43" transform="translate(124.658203 0)"/>
     </g>
    </g>
   </g>
   <g id="line2d_15">
    <path d="M 80.837045 221.430071 
L 89.265791 221.430071 
L 97.694536 221.430071 
L 106.123281 221.430071 
L 114.552026 221.430071 
L 122.980771 221.430071 
L 131.409517 221.430071 
L 139.838262 221.430071 
L 148.267007 221.430071 
L 156.695752 221.430071 
L 165.124497 221.430071 
L 173.553243 221.430071 
L 181.981988 221.430071 
L 190.410733 221.430071 
L 198.839478 221.430071 
L 207.268223 221.430071 
L 215.696969 221.430071 
L 224.125714 221.430071 
L 232.554459 221.430071 
L 240.983204 221.430071 
L 249.411949 221.430071 
L 257.840695 221.430071 
L 266.26944 221.430071 
L 274.698185 221.430071 
L 283.12693 221.430071 
L 291.555675 221.430071 
L 299.984421 221.430071 
L 308.413166 221.430071 
L 316.841911 221.430071 
L 325.270656 221.430071 
L 333.699401 221.430071 
L 342.128147 221.430071 
L 350.556892 221.430071 
L 358.985637 221.430071 
L 367.414382 221.430071 
L 375.843127 221.430071 
L 384.271873 221.430071 
L 392.700618 221.430071 
L 401.129363 221.430071 
L 409.558108 221.430071 
L 417.986853 221.430071 
L 426.415599 221.430071 
L 434.844344 221.430071 
L 443.273089 221.430071 
L 451.701834 221.430071 
L 460.130579 221.430071 
L 468.559325 221.430071 
L 476.98807 221.430071 
L 485.416815 221.430071 
L 493.84556 221.430071 
L 502.274305 221.430071 
L 510.703051 221.430071 
L 519.131796 221.430071 
L 527.560541 221.430071 
L 535.989286 221.430071 
L 544.418031 221.430071 
L 552.846777 221.430071 
L 561.275522 221.430071 
L 569.704267 221.430071 
L 578.133012 221.430071 
L 586.561757 221.430071 
L 594.990503 221.430071 
L 603.419248 221.430071 
L 611.847993 221.430071 
L 620.276738 221.430071 
L 628.705483 221.430071 
L 637.134229 221.430071 
L 645.562974 221.430071 
L 653.991719 221.430071 
L 662.420464 221.430071 
L 670.849209 221.430071 
L 679.277955 221.430071 
" clip-path="url(#p637a462171)" style="fill: none; stroke: #1f77b4; stroke-width: 1.8; stroke-linecap: square"/>
   </g>
   <g id="line2d_16">
    <path d="M 80.837045 221.430071 
L 89.265791 221.430071 
L 97.694536 221.430071 
L 106.123281 221.430071 
L 114.552026 221.430071 
L 122.980771 221.430071 
L 131.409517 221.430071 
L 139.838262 221.430071 
L 148.267007 221.430071 
L 156.695752 221.430071 
L 165.124497 221.430071 
L 173.553243 221.430071 
L 181.981988 221.430071 
L 190.410733 221.430071 
L 198.839478 221.430071 
L 207.268223 221.430071 
L 215.696969 221.430071 
L 224.125714 221.430071 
L 232.554459 221.430071 
L 240.983204 221.430071 
L 249.411949 221.430071 
L 257.840695 221.430071 
L 266.26944 221.430071 
L 274.698185 221.430071 
L 283.12693 221.430071 
L 291.555675 221.430071 
L 299.984421 221.430071 
L 308.413166 221.430071 
L 316.841911 221.430071 
L 325.270656 221.430071 
L 333.699401 221.430071 
L 342.128147 221.430071 
L 350.556892 221.430071 
L 358.985637 221.430071 
L 367.414382 221.430071 
L 375.843127 221.430071 
L 384.271873 221.430071 
L 392.700618 221.430071 
L 401.129363 221.430071 
L 409.558108 221.430071 
L 417.986853 221.430071 
L 426.415599 221.430071 
L 434.844344 221.430071 
L 443.273089 221.430071 
L 451.701834 221.430071 
L 460.130579 221.430071 
L 468.559325 221.430071 
L 476.98807 221.430071 
L 485.416815 221.430071 
L 493.84556 221.430071 
L 502.274305 221.430071 
L 510.703051 221.430071 
L 519.131796 221.430071 
L 527.560541 221.430071 
L 535.989286 221.430071 
L 544.418031 221.430071 
L 552.846777 221.430071 
L 561.275522 221.430071 
L 569.704267 221.430071 
L 578.133012 221.430071 
L 586.561757 221.430071 
L 594.990503 221.430071 
L 603.419248 221.430071 
L 611.847993 221.430071 
L 620.276738 221.430071 
L 628.705483 221.430071 
L 637.134229 221.430071 
L 645.562974 221.430071 
L 653.991719 221.430071 
L 662.420464 221.430071 
L 670.849209 221.430071 
L 679.277955 221.430071 
" clip-path="url(#p637a462171)" style="fill: none; stroke: #ff7f0e; stroke-width: 1.8; stroke-linecap: square"/>
   </g>
   <g id="line2d_17">
    <path d="M 80.837045 221.430071 
L 89.265791 221.430071 
L 97.694536 221.430071 
L 106.123281 221.430071 
L 114.552026 221.430071 
L 122.980771 221.430071 
L 131.409517 221.430071 
L 139.838262 221.430071 
L 148.267007 221.430071 
L 156.695752 221.430071 
L 165.124497 221.430071 
L 173.553243 221.430071 
L 181.981988 221.430071 
L 190.410733 221.430071 
L 198.839478 221.430071 
L 207.268223 221.430071 
L 215.696969 221.430071 
L 224.125714 221.430071 
L 232.554459 221.430071 
L 240.983204 221.430071 
L 249.411949 221.430071 
L 257.840695 221.430071 
L 266.26944 221.430071 
L 274.698185 221.430071 
L 283.12693 221.430071 
L 291.555675 221.430071 
L 299.984421 221.430071 
L 308.413166 221.430071 
L 316.841911 221.430071 
L 325.270656 221.430071 
L 333.699401 221.430071 
L 342.128147 221.430071 
L 350.556892 221.430071 
L 358.985637 221.430071 
L 367.414382 221.430071 
L 375.843127 221.430071 
L 384.271873 221.430071 
L 392.700618 221.430071 
L 401.129363 221.430071 
L 409.558108 221.430071 
L 417.986853 221.430071 
L 426.415599 221.430071 
L 434.844344 221.430071 
L 443.273089 221.430071 
L 451.701834 221.430071 
L 460.130579 221.430071 
L 468.559325 221.430071 
L 476.98807 221.430071 
L 485.416815 221.430071 
L 493.84556 221.430071 
L 502.274305 221.430071 
L 510.703051 221.430071 
L 519.131796 221.430071 
L 527.560541 221.430071 
L 535.989286 221.430071 
L 544.418031 221.430071 
L 552.846777 221.430071 
L 561.275522 221.430071 
L 569.704267 221.430071 
L 578.133012 221.430071 
L 586.561757 221.430071 
L 594.990503 221.430071 
L 603.419248 221.430071 
L 611.847993 221.430071 
L 620.276738 221.430071 
L 628.705483 221.430071 
L 637.134229 221.430071 
L 645.562974 221.430071 
L 653.991719 221.430071 
L 662.420464 221.430071 
L 670.849209 221.430071 
L 679.277955 221.430071 
" clip-path="url(#p637a462171)" style="fill: none; stroke: #2ca02c; stroke-width: 1.8; stroke-linecap: square"/>
   </g>
   <g id="line2d_18">
    <path d="M 80.837045 221.430071 
L 89.265791 221.430071 
L 97.694536 221.430071 
L 106.123281 221.430071 
L 114.552026 221.430071 
L 122.980771 221.430071 
L 131.409517 221.430071 
L 139.838262 221.430071 
L 148.267007 221.430071 
L 156.695752 221.430071 
L 165.124497 221.430071 
L 173.553243 221.430071 
L 181.981988 221.430071 
L 190.410733 221.430071 
L 198.839478 221.430071 
L 207.268223 221.430071 
L 215.696969 221.430071 
L 224.125714 221.430071 
L 232.554459 221.430071 
L 240.983204 221.430071 
L 249.411949 221.430071 
L 257.840695 221.430071 
L 266.26944 221.430071 
L 274.698185 221.430071 
L 283.12693 221.430071 
L 291.555675 221.430071 
L 299.984421 221.430071 
L 308.413166 221.430071 
L 316.841911 221.430071 
L 325.270656 221.430071 
L 333.699401 221.430071 
L 342.128147 221.430071 
L 350.556892 221.430071 
L 358.985637 221.430071 
L 367.414382 221.430071 
L 375.843127 221.430071 
L 384.271873 221.430071 
L 392.700618 221.430071 
L 401.129363 221.430071 
L 409.558108 221.430071 
L 417.986853 221.430071 
L 426.415599 221.430071 
L 434.844344 221.430071 
L 443.273089 221.430071 
L 451.701834 221.430071 
L 460.130579 221.430071 
L 468.559325 221.430071 
L 476.98807 221.430071 
L 485.416815 221.430071 
L 493.84556 221.430071 
L 502.274305 221.430071 
L 510.703051 221.430071 
L 519.131796 221.430071 
L 527.560541 221.430071 
L 535.989286 221.430071 
L 544.418031 221.430071 
L 552.846777 221.430071 
L 561.275522 221.430071 
L 569.704267 221.430071 
L 578.133012 221.430071 
L 586.561757 221.430071 
L 594.990503 221.430071 
L 603.419248 221.430071 
L 611.847993 221.430071 
L 620.276738 221.430071 
L 628.705483 221.430071 
L 637.134229 221.430071 
L 645.562974 221.430071 
L 653.991719 221.430071 
L 662.420464 221.430071 
L 670.849209 221.430071 
L 679.277955 221.430071 
" clip-path="url(#p637a462171)" style="fill: none; stroke: #d62728; stroke-width: 1.8; stroke-linecap: square"/>
   </g>
   <g id="line2d_19">
    <path d="M 80.837045 221.430071 
L 89.265791 221.430071 
L 97.694536 221.430071 
L 106.123281 226.68818 
L 114.552026 227.191887 
L 122.980771 227.191887 
L 131.409517 227.191887 
L 139.838262 269.045611 
L 148.267007 314.76004 
L 156.695752 370.201016 
L 165.124497 370.201016 
L 173.553243 370.201016 
L 181.981988 337.369743 
L 190.410733 288.262016 
L 198.839478 259.061264 
L 207.268223 210.9506 
L 215.696969 210.9506 
L 224.125714 210.9506 
L 232.554459 210.9506 
L 240.983204 210.9506 
L 249.411949 210.9506 
L 257.840695 210.9506 
L 266.26944 210.9506 
L 274.698185 221.430071 
L 283.12693 221.430071 
L 291.555675 221.430071 
L 299.984421 194.570369 
L 308.413166 167.288261 
L 316.841911 167.288261 
L 325.270656 167.288261 
L 333.699401 167.288261 
L 342.128147 167.288261 
L 350.556892 167.288261 
L 358.985637 167.288261 
L 367.414382 155.44953 
L 375.843127 155.44953 
L 384.271873 110.291607 
L 392.700618 62.866737 
L 401.129363 62.866737 
L 409.558108 42.7 
L 417.986853 42.7 
L 426.415599 42.7 
L 434.844344 42.7 
L 443.273089 45.613728 
L 451.701834 45.613728 
L 460.130579 76.11892 
L 468.559325 76.11892 
L 476.98807 76.11892 
L 485.416815 76.11892 
L 493.84556 76.11892 
L 502.274305 76.11892 
L 510.703051 76.11892 
L 519.131796 76.11892 
L 527.560541 76.11892 
L 535.989286 89.414643 
L 544.418031 89.414643 
L 552.846777 89.414643 
L 561.275522 155.610966 
L 569.704267 155.610966 
L 578.133012 155.610966 
L 586.561757 143.787531 
L 594.990503 143.787531 
L 603.419248 143.787531 
L 611.847993 100.554555 
L 620.276738 100.554555 
L 628.705483 60.72541 
L 637.134229 60.72541 
L 645.562974 60.72541 
L 653.991719 60.72541 
L 662.420464 109.723989 
L 670.849209 155.233748 
L 679.277955 221.430071 
" clip-path="url(#p637a462171)" style="fill: none; stroke: #9467bd; stroke-width: 1.8; stroke-linecap: square"/>
   </g>
   <g id="line2d_20">
    <path d="M 80.837045 221.430071 
L 89.265791 221.430071 
L 97.694536 221.430071 
L 106.123281 221.430071 
L 114.552026 221.430071 
L 122.980771 221.430071 
L 131.409517 221.430071 
L 139.838262 221.430071 
L 148.267007 221.430071 
L 156.695752 221.430071 
L 165.124497 221.430071 
L 173.553243 221.430071 
L 181.981988 221.430071 
L 190.410733 221.430071 
L 198.839478 221.430071 
L 207.268223 221.430071 
L 215.696969 221.430071 
L 224.125714 221.430071 
L 232.554459 221.430071 
L 240.983204 221.430071 
L 249.411949 221.430071 
L 257.840695 221.430071 
L 266.26944 221.430071 
L 274.698185 221.430071 
L 283.12693 221.430071 
L 291.555675 221.430071 
L 299.984421 221.430071 
L 308.413166 221.430071 
L 316.841911 221.430071 
L 325.270656 221.430071 
L 333.699401 221.430071 
L 342.128147 221.430071 
L 350.556892 221.430071 
L 358.985637 221.430071 
L 367.414382 221.430071 
L 375.843127 221.430071 
L 384.271873 221.430071 
L 392.700618 221.430071 
L 401.129363 221.430071 
L 409.558108 221.430071 
L 417.986853 221.430071 
L 426.415599 221.430071 
L 434.844344 221.430071 
L 443.273089 221.430071 
L 451.701834 221.430071 
L 460.130579 221.430071 
L 468.559325 221.430071 
L 476.98807 221.430071 
L 485.416815 221.430071 
L 493.84556 221.430071 
L 502.274305 221.430071 
L 510.703051 221.430071 
L 519.131796 221.430071 
L 527.560541 221.430071 
L 535.989286 221.430071 
L 544.418031 221.430071 
L 552.846777 221.430071 
L 561.275522 221.430071 
L 569.704267 221.430071 
L 578.133012 221.430071 
L 586.561757 221.430071 
L 594.990503 221.430071 
L 603.419248 221.430071 
L 611.847993 221.430071 
L 620.276738 221.430071 
L 628.705483 221.430071 
L 637.134229 221.430071 
L 645.562974 221.430071 
L 653.991719 221.430071 
L 662.420464 221.430071 
L 670.849209 221.430071 
L 679.277955 221.430071 
" clip-path="url(#p637a462171)" style="fill: none; stroke: #8c564b; stroke-width: 1.8; stroke-linecap: square"/>
   </g>
   <g id="line2d_21">
    <path d="M 80.837045 42.7 
L 89.265791 42.7 
L 97.694536 42.7 
L 106.123281 42.7 
L 114.552026 42.7 
L 122.980771 42.7 
L 131.409517 42.7 
L 139.838262 42.7 
L 148.267007 42.7 
L 156.695752 42.7 
L 165.124497 42.7 
L 173.553243 42.7 
L 181.981988 42.7 
L 190.410733 42.7 
L 198.839478 42.7 
L 207.268223 42.7 
L 215.696969 42.7 
L 224.125714 42.7 
L 232.554459 42.7 
L 240.983204 42.7 
L 249.411949 42.7 
L 257.840695 42.7 
L 266.26944 42.7 
L 274.698185 42.7 
L 283.12693 42.7 
L 291.555675 42.7 
L 299.984421 42.7 
L 308.413166 42.7 
L 316.841911 42.7 
L 325.270656 42.7 
L 333.699401 42.7 
L 342.128147 42.7 
L 350.556892 42.7 
L 358.985637 42.7 
L 367.414382 42.7 
L 375.843127 42.7 
L 384.271873 42.7 
L 392.700618 42.7 
L 401.129363 42.7 
L 409.558108 42.7 
L 417.986853 42.7 
L 426.415599 42.7 
L 434.844344 42.7 
L 443.273089 42.7 
L 451.701834 42.7 
L 460.130579 42.7 
L 468.559325 42.7 
L 476.98807 42.7 
L 485.416815 42.7 
L 493.84556 42.7 
L 502.274305 42.7 
L 510.703051 42.7 
L 519.131796 42.7 
L 527.560541 42.7 
L 535.989286 42.7 
L 544.418031 42.7 
L 552.846777 42.7 
L 561.275522 42.7 
L 569.704267 42.7 
L 578.133012 42.7 
L 586.561757 42.7 
L 594.990503 42.7 
L 603.419248 42.7 
L 611.847993 42.7 
L 620.276738 42.7 
L 628.705483 42.7 
L 637.134229 42.7 
L 645.562974 42.7 
L 653.991719 42.7 
L 662.420464 42.7 
L 670.849209 42.7 
L 679.277955 42.7 
" clip-path="url(#p637a462171)" style="fill: none; stroke: #e377c2; stroke-width: 1.8; stroke-linecap: square"/>
   </g>
   <g id="line2d_22">
    <path d="M 80.837045 42.7 
L 89.265791 42.7 
L 97.694536 42.7 
L 106.123281 42.7 
L 114.552026 42.7 
L 122.980771 42.7 
L 131.409517 42.7 
L 139.838262 42.7 
L 148.267007 42.7 
L 156.695752 42.7 
L 165.124497 42.7 
L 173.553243 42.7 
L 181.981988 42.7 
L 190.410733 42.7 
L 198.839478 42.7 
L 207.268223 42.7 
L 215.696969 42.7 
L 224.125714 42.7 
L 232.554459 42.7 
L 240.983204 42.7 
L 249.411949 42.7 
L 257.840695 42.7 
L 266.26944 42.7 
L 274.698185 42.7 
L 283.12693 42.7 
L 291.555675 42.7 
L 299.984421 42.7 
L 308.413166 42.7 
L 316.841911 42.7 
L 325.270656 42.7 
L 333.699401 42.7 
L 342.128147 42.7 
L 350.556892 42.7 
L 358.985637 42.7 
L 367.414382 42.7 
L 375.843127 42.7 
L 384.271873 42.7 
L 392.700618 42.7 
L 401.129363 42.7 
L 409.558108 42.7 
L 417.986853 42.7 
L 426.415599 42.7 
L 434.844344 42.7 
L 443.273089 42.7 
L 451.701834 42.7 
L 460.130579 42.7 
L 468.559325 42.7 
L 476.98807 42.7 
L 485.416815 42.7 
L 493.84556 42.7 
L 502.274305 42.7 
L 510.703051 42.7 
L 519.131796 42.7 
L 527.560541 42.7 
L 535.989286 42.7 
L 544.418031 42.7 
L 552.846777 42.7 
L 561.275522 42.7 
L 569.704267 42.7 
L 578.133012 42.7 
L 586.561757 42.7 
L 594.990503 42.7 
L 603.419248 42.7 
L 611.847993 42.7 
L 620.276738 42.7 
L 628.705483 42.7 
L 637.134229 42.7 
L 645.562974 42.7 
L 653.991719 42.7 
L 662.420464 42.7 
L 670.849209 42.7 
L 679.277955 42.7 
" clip-path="url(#p637a462171)" style="fill: none; stroke: #7f7f7f; stroke-width: 1.8; stroke-linecap: square"/>
   </g>
   <g id="line2d_23">
    <path d="M 80.837045 42.7 
L 89.265791 42.7 
L 97.694536 42.7 
L 106.123281 42.7 
L 114.552026 42.7 
L 122.980771 42.7 
L 131.409517 42.7 
L 139.838262 42.7 
L 148.267007 42.7 
L 156.695752 42.7 
L 165.124497 42.7 
L 173.553243 42.7 
L 181.981988 42.7 
L 190.410733 42.7 
L 198.839478 42.7 
L 207.268223 42.7 
L 215.696969 42.7 
L 224.125714 42.7 
L 232.554459 42.7 
L 240.983204 42.7 
L 249.411949 42.7 
L 257.840695 42.7 
L 266.26944 42.7 
L 274.698185 42.7 
L 283.12693 42.7 
L 291.555675 42.7 
L 299.984421 42.7 
L 308.413166 42.7 
L 316.841911 42.7 
L 325.270656 42.7 
L 333.699401 42.7 
L 342.128147 42.7 
L 350.556892 42.7 
L 358.985637 42.7 
L 367.414382 42.7 
L 375.843127 42.7 
L 384.271873 42.7 
L 392.700618 42.7 
L 401.129363 42.7 
L 409.558108 42.7 
L 417.986853 42.7 
L 426.415599 42.7 
L 434.844344 42.7 
L 443.273089 42.7 
L 451.701834 42.7 
L 460.130579 42.7 
L 468.559325 42.7 
L 476.98807 42.7 
L 485.416815 42.7 
L 493.84556 42.7 
L 502.274305 42.7 
L 510.703051 42.7 
L 519.131796 42.7 
L 527.560541 42.7 
L 535.989286 42.7 
L 544.418031 42.7 
L 552.846777 42.7 
L 561.275522 42.7 
L 569.704267 42.7 
L 578.133012 42.7 
L 586.561757 42.7 
L 594.990503 42.7 
L 603.419248 42.7 
L 611.847993 42.7 
L 620.276738 42.7 
L 628.705483 42.7 
L 637.134229 42.7 
L 645.562974 42.7 
L 653.991719 42.7 
L 662.420464 42.7 
L 670.849209 42.7 
L 679.277955 42.7 
" clip-path="url(#p637a462171)" style="fill: none; stroke: #bcbd22; stroke-width: 1.8; stroke-linecap: square"/>
   </g>
   <g id="line2d_24">
    <path d="M 80.837045 300.071302 
L 89.265791 300.071302 
L 97.694536 300.071302 
L 106.123281 300.071302 
L 114.552026 300.071302 
L 122.980771 300.071302 
L 131.409517 300.071302 
L 139.838262 300.071302 
L 148.267007 300.071302 
L 156.695752 300.071302 
L 165.124497 300.071302 
L 173.553243 300.071302 
L 181.981988 300.071302 
L 190.410733 300.071302 
L 198.839478 300.071302 
L 207.268223 300.071302 
L 215.696969 300.071302 
L 224.125714 300.071302 
L 232.554459 300.071302 
L 240.983204 300.071302 
L 249.411949 300.071302 
L 257.840695 300.071302 
L 266.26944 300.071302 
L 274.698185 300.071302 
L 283.12693 300.071302 
L 291.555675 300.071302 
L 299.984421 300.071302 
L 308.413166 300.071302 
L 316.841911 300.071302 
L 325.270656 300.071302 
L 333.699401 300.071302 
L 342.128147 300.071302 
L 350.556892 300.071302 
L 358.985637 300.071302 
L 367.414382 300.071302 
L 375.843127 300.071302 
L 384.271873 300.071302 
L 392.700618 300.071302 
L 401.129363 300.071302 
L 409.558108 300.071302 
L 417.986853 300.071302 
L 426.415599 300.071302 
L 434.844344 300.071302 
L 443.273089 300.071302 
L 451.701834 300.071302 
L 460.130579 300.071302 
L 468.559325 300.071302 
L 476.98807 300.071302 
L 485.416815 300.071302 
L 493.84556 300.071302 
L 502.274305 300.071302 
L 510.703051 300.071302 
L 519.131796 300.071302 
L 527.560541 300.071302 
L 535.989286 300.071302 
L 544.418031 300.071302 
L 552.846777 300.071302 
L 561.275522 300.071302 
L 569.704267 300.071302 
L 578.133012 300.071302 
L 586.561757 300.071302 
L 594.990503 300.071302 
L 603.419248 300.071302 
L 611.847993 300.071302 
L 620.276738 300.071302 
L 628.705483 300.071302 
L 637.134229 300.071302 
L 645.562974 300.071302 
L 653.991719 300.071302 
L 662.420464 300.071302 
L 670.849209 300.071302 
L 679.277955 300.071302 
" clip-path="url(#p637a462171)" style="fill: none; stroke: #17becf; stroke-width: 1.8; stroke-linecap: square"/>
   </g>
   <g id="line2d_25">
    <path d="M 80.837045 300.071302 
L 89.265791 300.071302 
L 97.694536 300.071302 
L 106.123281 300.071302 
L 114.552026 300.071302 
L 122.980771 300.071302 
L 131.409517 300.071302 
L 139.838262 300.071302 
L 148.267007 300.071302 
L 156.695752 300.071302 
L 165.124497 300.071302 
L 173.553243 300.071302 
L 181.981988 300.071302 
L 190.410733 300.071302 
L 198.839478 300.071302 
L 207.268223 300.071302 
L 215.696969 300.071302 
L 224.125714 300.071302 
L 232.554459 300.071302 
L 240.983204 300.071302 
L 249.411949 300.071302 
L 257.840695 300.071302 
L 266.26944 300.071302 
L 274.698185 300.071302 
L 283.12693 300.071302 
L 291.555675 300.071302 
L 299.984421 300.071302 
L 308.413166 300.071302 
L 316.841911 300.071302 
L 325.270656 300.071302 
L 333.699401 300.071302 
L 342.128147 300.071302 
L 350.556892 300.071302 
L 358.985637 300.071302 
L 367.414382 300.071302 
L 375.843127 300.071302 
L 384.271873 300.071302 
L 392.700618 300.071302 
L 401.129363 300.071302 
L 409.558108 300.071302 
L 417.986853 300.071302 
L 426.415599 300.071302 
L 434.844344 300.071302 
L 443.273089 300.071302 
L 451.701834 300.071302 
L 460.130579 300.071302 
L 468.559325 300.071302 
L 476.98807 300.071302 
L 485.416815 300.071302 
L 493.84556 300.071302 
L 502.274305 300.071302 
L 510.703051 300.071302 
L 519.131796 300.071302 
L 527.560541 300.071302 
L 535.989286 300.071302 
L 544.418031 300.071302 
L 552.846777 300.071302 
L 561.275522 300.071302 
L 569.704267 300.071302 
L 578.133012 300.071302 
L 586.561757 300.071302 
L 594.990503 300.071302 
L 603.419248 300.071302 
L 611.847993 300.071302 
L 620.276738 300.071302 
L 628.705483 300.071302 
L 637.134229 300.071302 
L 645.562974 300.071302 
L 653.991719 300.071302 
L 662.420464 300.071302 
L 670.849209 300.071302 
L 679.277955 300.071302 
" clip-path="url(#p637a462171)" style="fill: none; stroke: #1f77b4; stroke-width: 1.8; stroke-linecap: square"/>
   </g>
   <g id="line2d_26">
    <path d="M 80.837045 300.071302 
L 89.265791 300.071302 
L 97.694536 300.071302 
L 106.123281 300.071302 
L 114.552026 300.071302 
L 122.980771 300.071302 
L 131.409517 300.071302 
L 139.838262 300.071302 
L 148.267007 300.071302 
L 156.695752 300.071302 
L 165.124497 300.071302 
L 173.553243 300.071302 
L 181.981988 300.071302 
L 190.410733 300.071302 
L 198.839478 300.071302 
L 207.268223 300.071302 
L 215.696969 300.071302 
L 224.125714 300.071302 
L 232.554459 300.071302 
L 240.983204 300.071302 
L 249.411949 300.071302 
L 257.840695 300.071302 
L 266.26944 300.071302 
L 274.698185 300.071302 
L 283.12693 300.071302 
L 291.555675 300.071302 
L 299.984421 300.071302 
L 308.413166 300.071302 
L 316.841911 300.071302 
L 325.270656 300.071302 
L 333.699401 300.071302 
L 342.128147 300.071302 
L 350.556892 300.071302 
L 358.985637 300.071302 
L 367.414382 300.071302 
L 375.843127 300.071302 
L 384.271873 300.071302 
L 392.700618 300.071302 
L 401.129363 300.071302 
L 409.558108 300.071302 
L 417.986853 300.071302 
L 426.415599 300.071302 
L 434.844344 300.071302 
L 443.273089 300.071302 
L 451.701834 300.071302 
L 460.130579 300.071302 
L 468.559325 300.071302 
L 476.98807 300.071302 
L 485.416815 300.071302 
L 493.84556 300.071302 
L 502.274305 300.071302 
L 510.703051 300.071302 
L 519.131796 300.071302 
L 527.560541 300.071302 
L 535.989286 300.071302 
L 544.418031 300.071302 
L 552.846777 300.071302 
L 561.275522 300.071302 
L 569.704267 300.071302 
L 578.133012 300.071302 
L 586.561757 300.071302 
L 594.990503 300.071302 
L 603.419248 300.071302 
L 611.847993 300.071302 
L 620.276738 300.071302 
L 628.705483 300.071302 
L 637.134229 300.071302 
L 645.562974 300.071302 
L 653.991719 300.071302 
L 662.420464 300.071302 
L 670.849209 300.071302 
L 679.277955 300.071302 
" clip-path="url(#p637a462171)" style="fill: none; stroke: #ff7f0e; stroke-width: 1.8; stroke-linecap: square"/>
   </g>
   <g id="line2d_27">
    <path d="M 80.837045 300.071302 
L 89.265791 303.796099 
L 97.694536 343.881722 
L 106.123281 343.881722 
L 114.552026 343.881722 
L 122.980771 368.145601 
L 131.409517 373.5 
L 139.838262 373.5 
L 148.267007 373.5 
L 156.695752 373.5 
L 165.124497 344.720679 
L 173.553243 323.899815 
L 181.981988 323.899815 
L 190.410733 323.899815 
L 198.839478 323.899815 
L 207.268223 323.899815 
L 215.696969 284.02888 
L 224.125714 247.154643 
L 232.554459 247.154643 
L 240.983204 247.154643 
L 249.411949 247.154643 
L 257.840695 247.154643 
L 266.26944 300.071302 
L 274.698185 300.071302 
L 283.12693 300.071302 
L 291.555675 300.071302 
L 299.984421 300.071302 
L 308.413166 300.071302 
L 316.841911 300.071302 
L 325.270656 300.071302 
L 333.699401 300.071302 
L 342.128147 300.071302 
L 350.556892 300.071302 
L 358.985637 300.071302 
L 367.414382 268.948486 
L 375.843127 247.765756 
L 384.271873 247.765756 
L 392.700618 247.765756 
L 401.129363 228.796989 
L 409.558108 228.796989 
L 417.986853 199.982462 
L 426.415599 199.982462 
L 434.844344 199.982462 
L 443.273089 199.982462 
L 451.701834 199.982462 
L 460.130579 199.982462 
L 468.559325 235.253194 
L 476.98807 235.253194 
L 485.416815 235.253194 
L 493.84556 235.253194 
L 502.274305 235.253194 
L 510.703051 235.253194 
L 519.131796 235.253194 
L 527.560541 235.253194 
L 535.989286 235.253194 
L 544.418031 281.18417 
L 552.846777 281.18417 
L 561.275522 281.18417 
L 569.704267 281.18417 
L 578.133012 259.341203 
L 586.561757 259.341203 
L 594.990503 233.040757 
L 603.419248 204.641779 
L 611.847993 204.641779 
L 620.276738 204.641779 
L 628.705483 204.641779 
L 637.134229 204.641779 
L 645.562974 204.641779 
L 653.991719 204.641779 
L 662.420464 205.856193 
L 670.849209 261.461104 
L 679.277955 300.071302 
" clip-path="url(#p637a462171)" style="fill: none; stroke: #2ca02c; stroke-width: 1.8; stroke-linecap: square"/>
   </g>
   <g id="line2d_28">
    <path d="M 80.837045 300.071302 
L 89.265791 300.071302 
L 97.694536 298.756735 
L 106.123281 268.730083 
L 114.552026 268.730083 
L 122.980771 268.730083 
L 131.409517 268.730083 
L 139.838262 238.703431 
L 148.267007 226.710764 
L 156.695752 216.229639 
L 165.124497 216.229639 
L 173.553243 216.229639 
L 181.981988 216.229639 
L 190.410733 216.229639 
L 198.839478 216.229639 
L 207.268223 216.229639 
L 215.696969 216.229639 
L 224.125714 216.229639 
L 232.554459 216.229639 
L 240.983204 216.229639 
L 249.411949 216.229639 
L 257.840695 216.229639 
L 266.26944 216.229639 
L 274.698185 216.229639 
L 283.12693 216.229639 
L 291.555675 216.229639 
L 299.984421 216.229639 
L 308.413166 216.229639 
L 316.841911 216.229639 
L 325.270656 216.229639 
L 333.699401 216.229639 
L 342.128147 216.229639 
L 350.556892 201.160606 
L 358.985637 199.982462 
L 367.414382 199.982462 
L 375.843127 199.982462 
L 384.271873 199.982462 
L 392.700618 199.982462 
L 401.129363 199.982462 
L 409.558108 199.982462 
L 417.986853 199.982462 
L 426.415599 199.982462 
L 434.844344 199.982462 
L 443.273089 199.982462 
L 451.701834 199.982462 
L 460.130579 199.982462 
L 468.559325 199.982462 
L 476.98807 199.982462 
L 485.416815 199.982462 
L 493.84556 199.982462 
L 502.274305 199.982462 
L 510.703051 199.982462 
L 519.131796 199.982462 
L 527.560541 199.982462 
L 535.989286 204.651231 
L 544.418031 212.828322 
L 552.846777 213.560346 
L 561.275522 213.560346 
L 569.704267 222.476268 
L 578.133012 231.387843 
L 586.561757 233.926636 
L 594.990503 242.57706 
L 603.419248 256.070209 
L 611.847993 256.070209 
L 620.276738 256.070209 
L 628.705483 256.070209 
L 637.134229 256.070209 
L 645.562974 256.070209 
L 653.991719 256.070209 
L 662.420464 277.069056 
L 670.849209 283.225027 
L 679.277955 300.071302 
" clip-path="url(#p637a462171)" style="fill: none; stroke: #d62728; stroke-width: 1.8; stroke-linecap: square"/>
   </g>
   <g id="line2d_29">
    <path d="M 80.837045 304.709099 
L 89.265791 304.709099 
L 97.694536 304.709099 
L 106.123281 304.709099 
L 114.552026 332.511555 
L 122.980771 332.511555 
L 131.409517 332.511555 
L 139.838262 332.511555 
L 148.267007 360.31401 
L 156.695752 360.31401 
L 165.124497 343.288668 
L 173.553243 320.768679 
L 181.981988 298.24869 
L 190.410733 294.788836 
L 198.839478 272.268847 
L 207.268223 272.268847 
L 215.696969 272.268847 
L 224.125714 272.268847 
L 232.554459 272.268847 
L 240.983204 272.268847 
L 249.411949 272.268847 
L 257.840695 272.268847 
L 266.26944 300.071302 
L 274.698185 300.071302 
L 283.12693 300.071302 
L 291.555675 283.409505 
L 299.984421 283.409505 
L 308.413166 283.409505 
L 316.841911 283.409505 
L 325.270656 283.409505 
L 333.699401 283.409505 
L 342.128147 283.409505 
L 350.556892 283.409505 
L 358.985637 274.266515 
L 367.414382 274.266515 
L 375.843127 258.612985 
L 384.271873 258.612985 
L 392.700618 258.612985 
L 401.129363 236.092997 
L 409.558108 213.573008 
L 417.986853 213.573008 
L 426.415599 199.982462 
L 434.844344 199.982462 
L 443.273089 227.784918 
L 451.701834 227.784918 
L 460.130579 255.587373 
L 468.559325 283.389829 
L 476.98807 283.389829 
L 485.416815 283.389829 
L 493.84556 283.389829 
L 502.274305 283.389829 
L 510.703051 283.389829 
L 519.131796 283.389829 
L 527.560541 283.389829 
L 535.989286 311.192284 
L 544.418031 311.192284 
L 552.846777 333.080241 
L 561.275522 333.080241 
L 569.704267 357.903647 
L 578.133012 335.383658 
L 586.561757 312.86367 
L 594.990503 290.343681 
L 603.419248 272.268847 
L 611.847993 272.268847 
L 620.276738 272.268847 
L 628.705483 272.268847 
L 637.134229 272.268847 
L 645.562974 272.268847 
L 653.991719 272.268847 
L 662.420464 300.071302 
L 670.849209 300.071302 
L 679.277955 300.071302 
" clip-path="url(#p637a462171)" style="fill: none; stroke: #9467bd; stroke-width: 1.8; stroke-linecap: square"/>
   </g>
   <g id="line2d_30">
    <path d="M 80.837045 300.071302 
L 89.265791 300.071302 
L 97.694536 300.071302 
L 106.123281 300.071302 
L 114.552026 300.071302 
L 122.980771 300.071302 
L 131.409517 300.071302 
L 139.838262 300.071302 
L 148.267007 300.071302 
L 156.695752 300.071302 
L 165.124497 300.071302 
L 173.553243 300.071302 
L 181.981988 300.071302 
L 190.410733 300.071302 
L 198.839478 300.071302 
L 207.268223 300.071302 
L 215.696969 300.071302 
L 224.125714 300.071302 
L 232.554459 300.071302 
L 240.983204 300.071302 
L 249.411949 300.071302 
L 257.840695 300.071302 
L 266.26944 300.071302 
L 274.698185 300.071302 
L 283.12693 300.071302 
L 291.555675 300.071302 
L 299.984421 300.071302 
L 308.413166 300.071302 
L 316.841911 300.071302 
L 325.270656 300.071302 
L 333.699401 300.071302 
L 342.128147 300.071302 
L 350.556892 300.071302 
L 358.985637 300.071302 
L 367.414382 300.071302 
L 375.843127 300.071302 
L 384.271873 300.071302 
L 392.700618 300.071302 
L 401.129363 300.071302 
L 409.558108 300.071302 
L 417.986853 300.071302 
L 426.415599 300.071302 
L 434.844344 300.071302 
L 443.273089 300.071302 
L 451.701834 300.071302 
L 460.130579 300.071302 
L 468.559325 300.071302 
L 476.98807 300.071302 
L 485.416815 300.071302 
L 493.84556 300.071302 
L 502.274305 300.071302 
L 510.703051 300.071302 
L 519.131796 300.071302 
L 527.560541 300.071302 
L 535.989286 300.071302 
L 544.418031 300.071302 
L 552.846777 300.071302 
L 561.275522 300.071302 
L 569.704267 300.071302 
L 578.133012 300.071302 
L 586.561757 300.071302 
L 594.990503 300.071302 
L 603.419248 300.071302 
L 611.847993 300.071302 
L 620.276738 300.071302 
L 628.705483 300.071302 
L 637.134229 300.071302 
L 645.562974 300.071302 
L 653.991719 300.071302 
L 662.420464 300.071302 
L 670.849209 300.071302 
L 679.277955 300.071302 
" clip-path="url(#p637a462171)" style="fill: none; stroke: #8c564b; stroke-width: 1.8; stroke-linecap: square"/>
   </g>
   <g id="line2d_31">
    <path d="M 80.837045 300.071302 
L 89.265791 300.071302 
L 97.694536 300.071302 
L 106.123281 300.071302 
L 114.552026 300.071302 
L 122.980771 300.071302 
L 131.409517 300.071302 
L 139.838262 300.071302 
L 148.267007 300.071302 
L 156.695752 300.071302 
L 165.124497 300.071302 
L 173.553243 300.071302 
L 181.981988 300.071302 
L 190.410733 300.071302 
L 198.839478 300.071302 
L 207.268223 300.071302 
L 215.696969 300.071302 
L 224.125714 300.071302 
L 232.554459 300.071302 
L 240.983204 300.071302 
L 249.411949 300.071302 
L 257.840695 300.071302 
L 266.26944 300.071302 
L 274.698185 300.071302 
L 283.12693 300.071302 
L 291.555675 300.071302 
L 299.984421 300.071302 
L 308.413166 300.071302 
L 316.841911 300.071302 
L 325.270656 300.071302 
L 333.699401 300.071302 
L 342.128147 300.071302 
L 350.556892 300.071302 
L 358.985637 300.071302 
L 367.414382 300.071302 
L 375.843127 300.071302 
L 384.271873 300.071302 
L 392.700618 300.071302 
L 401.129363 300.071302 
L 409.558108 300.071302 
L 417.986853 300.071302 
L 426.415599 300.071302 
L 434.844344 300.071302 
L 443.273089 300.071302 
L 451.701834 300.071302 
L 460.130579 300.071302 
L 468.559325 300.071302 
L 476.98807 300.071302 
L 485.416815 300.071302 
L 493.84556 300.071302 
L 502.274305 300.071302 
L 510.703051 300.071302 
L 519.131796 300.071302 
L 527.560541 300.071302 
L 535.989286 300.071302 
L 544.418031 300.071302 
L 552.846777 300.071302 
L 561.275522 300.071302 
L 569.704267 300.071302 
L 578.133012 300.071302 
L 586.561757 300.071302 
L 594.990503 300.071302 
L 603.419248 300.071302 
L 611.847993 300.071302 
L 620.276738 300.071302 
L 628.705483 300.071302 
L 637.134229 300.071302 
L 645.562974 300.071302 
L 653.991719 300.071302 
L 662.420464 300.071302 
L 670.849209 300.071302 
L 679.277955 300.071302 
" clip-path="url(#p637a462171)" style="fill: none; stroke: #e377c2; stroke-width: 1.8; stroke-linecap: square"/>
   </g>
   <g id="line2d_32">
    <path d="M 80.837045 300.071302 
L 89.265791 300.071302 
L 97.694536 300.071302 
L 106.123281 300.071302 
L 114.552026 300.071302 
L 122.980771 300.071302 
L 131.409517 300.071302 
L 139.838262 300.071302 
L 148.267007 300.071302 
L 156.695752 300.071302 
L 165.124497 300.071302 
L 173.553243 300.071302 
L 181.981988 300.071302 
L 190.410733 300.071302 
L 198.839478 300.071302 
L 207.268223 300.071302 
L 215.696969 300.071302 
L 224.125714 300.071302 
L 232.554459 300.071302 
L 240.983204 300.071302 
L 249.411949 300.071302 
L 257.840695 300.071302 
L 266.26944 300.071302 
L 274.698185 300.071302 
L 283.12693 300.071302 
L 291.555675 300.071302 
L 299.984421 300.071302 
L 308.413166 300.071302 
L 316.841911 300.071302 
L 325.270656 300.071302 
L 333.699401 300.071302 
L 342.128147 300.071302 
L 350.556892 300.071302 
L 358.985637 300.071302 
L 367.414382 300.071302 
L 375.843127 300.071302 
L 384.271873 300.071302 
L 392.700618 300.071302 
L 401.129363 300.071302 
L 409.558108 300.071302 
L 417.986853 300.071302 
L 426.415599 300.071302 
L 434.844344 300.071302 
L 443.273089 300.071302 
L 451.701834 300.071302 
L 460.130579 300.071302 
L 468.559325 300.071302 
L 476.98807 300.071302 
L 485.416815 300.071302 
L 493.84556 300.071302 
L 502.274305 300.071302 
L 510.703051 300.071302 
L 519.131796 300.071302 
L 527.560541 300.071302 
L 535.989286 300.071302 
L 544.418031 300.071302 
L 552.846777 300.071302 
L 561.275522 300.071302 
L 569.704267 300.071302 
L 578.133012 300.071302 
L 586.561757 300.071302 
L 594.990503 300.071302 
L 603.419248 300.071302 
L 611.847993 300.071302 
L 620.276738 300.071302 
L 628.705483 300.071302 
L 637.134229 300.071302 
L 645.562974 300.071302 
L 653.991719 300.071302 
L 662.420464 300.071302 
L 670.849209 300.071302 
L 679.277955 300.071302 
" clip-path="url(#p637a462171)" style="fill: none; stroke: #7f7f7f; stroke-width: 1.8; stroke-linecap: square"/>
   </g>
   <g id="patch_3">
    <path d="M 50.915 390.04 
L 50.915 26.16 
" style="fill: none; stroke: #000000; stroke-width: 0.8; stroke-linejoin: miter; stroke-linecap: square"/>
   </g>
   <g id="patch_4">
    <path d="M 709.2 390.04 
L 709.2 26.16 
" style="fill: none; stroke: #000000; stroke-width: 0.8; stroke-linejoin: miter; stroke-linecap: square"/>
   </g>
   <g id="patch_5">
    <path d="M 50.915 390.04 
L 709.2 390.04 
" style="fill: none; stroke: #000000; stroke-width: 0.8; stroke-linejoin: miter; stroke-linecap: square"/>
   </g>
   <g id="patch_6">
    <path d="M 50.915 26.16 
L 709.2 26.16 
" style="fill: none; stroke: #000000; stroke-width: 0.8; stroke-linejoin: miter; stroke-linecap: square"/>
   </g>
   <g id="text_17">
    <!-- SoC by battery (T=336, F = 24, L = 12) -->
    <g transform="translate(261.205 20.16) scale(0.12 -0.12)">
     <defs>
      <path id="DejaVuSans-62" d="M 3116 1747 
Q 3116 2381 2855 2742 
Q 2594 3103 2138 3103 
Q 1681 3103 1420 2742 
Q 1159 2381 1159 1747 
Q 1159 1113 1420 752 
Q 1681 391 2138 391 
Q 2594 391 2855 752 
Q 3116 1113 3116 1747 
z
M 1159 2969 
Q 1341 3281 1617 3432 
Q 1894 3584 2278 3584 
Q 2916 3584 3314 3078 
Q 3713 2572 3713 1747 
Q 3713 922 3314 415 
Q 2916 -91 2278 -91 
Q 1894 -91 1617 61 
Q 1341 213 1159 525 
L 1159 0 
L 581 0 
L 581 4863 
L 1159 4863 
L 1159 2969 
z
" transform="scale(0.015625)"/>
      <path id="DejaVuSans-79" d="M 2059 -325 
Q 1816 -950 1584 -1140 
Q 1353 -1331 966 -1331 
L 506 -1331 
L 506 -850 
L 844 -850 
Q 1081 -850 1212 -737 
Q 1344 -625 1503 -206 
L 1606 56 
L 191 3500 
L 800 3500 
L 1894 763 
L 2988 3500 
L 3597 3500 
L 2059 -325 
z
" transform="scale(0.015625)"/>
      <path id="DejaVuSans-61" d="M 2194 1759 
Q 1497 1759 1228 1600 
Q 959 1441 959 1056 
Q 959 750 1161 570 
Q 1363 391 1709 391 
Q 2188 391 2477 730 
Q 2766 1069 2766 1631 
L 2766 1759 
L 2194 1759 
z
M 3341 1997 
L 3341 0 
L 2766 0 
L 2766 531 
Q 2569 213 2275 61 
Q 1981 -91 1556 -91 
Q 1019 -91 701 211 
Q 384 513 384 1019 
Q 384 1609 779 1909 
Q 1175 2209 1959 2209 
L 2766 2209 
L 2766 2266 
Q 2766 2663 2505 2880 
Q 2244 3097 1772 3097 
Q 1472 3097 1187 3025 
Q 903 2953 641 2809 
L 641 3341 
Q 956 3463 1253 3523 
Q 1550 3584 1831 3584 
Q 2591 3584 2966 3190 
Q 3341 2797 3341 1997 
z
" transform="scale(0.015625)"/>
      <path id="DejaVuSans-72" d="M 2631 2963 
Q 2534 3019 2420 3045 
Q 2306 3072 2169 3072 
Q 1681 3072 1420 2755 
Q 1159 2438 1159 1844 
L 1159 0 
L 581 0 
L 581 3500 
L 1159 3500 
L 1159 2956 
Q 1341 3275 1631 3429 
Q 1922 3584 2338 3584 
Q 2397 3584 2469 3576 
Q 2541 3569 2628 3553 
L 2631 2963 
z
" transform="scale(0.015625)"/>
      <path id="DejaVuSans-3d" d="M 678 2906 
L 4684 2906 
L 4684 2381 
L 678 2381 
L 678 2906 
z
M 678 1631 
L 4684 1631 
L 4684 1100 
L 678 1100 
L 678 1631 
z
" transform="scale(0.015625)"/>
      <path id="DejaVuSans-2c" d="M 750 794 
L 1409 794 
L 1409 256 
L 897 -744 
L 494 -744 
L 750 256 
L 750 794 
z
" transform="scale(0.015625)"/>
      <path id="DejaVuSans-46" d="M 628 4666 
L 3309 4666 
L 3309 4134 
L 1259 4134 
L 1259 2759 
L 3109 2759 
L 3109 2228 
L 1259 2228 
L 1259 0 
L 628 0 
L 628 4666 
z
" transform="scale(0.015625)"/>
      <path id="DejaVuSans-4c" d="M 628 4666 
L 1259 4666 
L 1259 531 
L 3531 531 
L 3531 0 
L 628 0 
L 628 4666 
z
" transform="scale(0.015625)"/>
     </defs>
     <use xlink:href="#DejaVuSans-53"/>
     <use xlink:href="#DejaVuSans-6f" transform="translate(63.476562 0)"/>
     <use xlink:href="#DejaVuSans-43" transform="translate(124.658203 0)"/>
     <use xlink:href="#DejaVuSans-20" transform="translate(194.482422 0)"/>
     <use xlink:href="#DejaVuSans-62" transform="translate(226.269531 0)"/>
     <use xlink:href="#DejaVuSans-79" transform="translate(289.746094 0)"/>
     <use xlink:href="#DejaVuSans-20" transform="translate(348.925781 0)"/>
     <use xlink:href="#DejaVuSans-62" transform="translate(380.712891 0)"/>
     <use xlink:href="#DejaVuSans-61" transform="translate(444.189453 0)"/>
     <use xlink:href="#DejaVuSans-74" transform="translate(505.46875 0)"/>
     <use xlink:href="#DejaVuSans-74" transform="translate(544.677734 0)"/>
     <use xlink:href="#DejaVuSans-65" transform="translate(583.886719 0)"/>
     <use xlink:href="#DejaVuSans-72" transform="translate(645.410156 0)"/>
     <use xlink:href="#DejaVuSans-79" transform="translate(686.523438 0)"/>
     <use xlink:href="#DejaVuSans-20" transform="translate(745.703125 0)"/>
     <use xlink:href="#DejaVuSans-28" transform="translate(777.490234 0)"/>
     <use xlink:href="#DejaVuSans-54" transform="translate(816.503906 0)"/>
     <use xlink:href="#DejaVuSans-3d" transform="translate(877.587891 0)"/>
     <use xlink:href="#DejaVuSans-33" transform="translate(961.376953 0)"/>
     <use xlink:href="#DejaVuSans-33" transform="translate(1025 0)"/>
     <use xlink:href="#DejaVuSans-36" transform="translate(1088.623047 0)"/>
     <use xlink:href="#DejaVuSans-2c" transform="translate(1152.246094 0)"/>
     <use xlink:href="#DejaVuSans-20" transform="translate(1184.033203 0)"/>
     <use xlink:href="#DejaVuSans-46" transform="translate(1215.820312 0)"/>
     <use xlink:href="#DejaVuSans-20" transform="translate(1273.339844 0)"/>
     <use xlink:href="#DejaVuSans-3d" transform="translate(1305.126953 0)"/>
     <use xlink:href="#DejaVuSans-20" transform="translate(1388.916016 0)"/>
     <use xlink:href="#DejaVuSans-32" transform="translate(1420.703125 0)"/>
     <use xlink:href="#DejaVuSans-34" transform="translate(1484.326172 0)"/>
     <use xlink:href="#DejaVuSans-2c" transform="translate(1547.949219 0)"/>
     <use xlink:href="#DejaVuSans-20" transform="translate(1579.736328 0)"/>
     <use xlink:href="#DejaVuSans-4c" transform="translate(1611.523438 0)"/>
     <use xlink:href="#DejaVuSans-20" transform="translate(1667.236328 0)"/>
     <use xlink:href="#DejaVuSans-3d" transform="translate(1699.023438 0)"/>
     <use xlink:href="#DejaVuSans-20" transform="translate(1782.8125 0)"/>
     <use xlink:href="#DejaVuSans-31" transform="translate(1814.599609 0)"/>
     <use xlink:href="#DejaVuSans-32" transform="translate(1878.222656 0)"/>
     <use xlink:href="#DejaVuSans-29" transform="translate(1941.845703 0)"/>
    </g>
   </g>
  </g>
 </g>
 <defs>
  <clipPath id="p637a462171">
   <rect x="50.915" y="26.16" width="658.285" height="363.88"/>
  </clipPath>
 </defs>
</svg>
