<?xml version="1.0" encoding="utf-8" standalone="no"?>
<!DOCTYPE svg PUBLIC "-//W3C//DTD SVG 1.1//EN"
  "http://www.w3.org/Graphics/SVG/1.1/DTD/svg11.dtd">
<svg xmlns:xlink="http://www.w3.org/1999/xlink" width="735.12pt" height="561.6pt" viewBox="0 0 735.12 561.6" xmlns="http://www.w3.org/2000/svg" version="1.1">
 <metadata>
  <rdf:RDF xmlns:dc="http://purl.org/dc/elements/1.1/" xmlns:cc="http://creativecommons.org/ns#" xmlns:rdf="http://www.w3.org/1999/02/22-rdf-syntax-ns#">
   <cc:Work>
    <dc:type rdf:resource="http://purl.org/dc/dcmitype/StillImage"/>
    <dc:date>2025-11-07T00:06:25.150076</dc:date>
    <dc:format>image/svg+xml</dc:format>
    <dc:creator>
     <cc:Agent>
      <dc:title>Matplotlib v3.10.0, https://matplotlib.org/</dc:title>
     </cc:Agent>
    </dc:creator>
   </cc:Work>
  </rdf:RDF>
 </metadata>
 <defs>
  <style type="text/css">*{stroke-linejoin: round; stroke-linecap: butt}</style>
 </defs>
 <g id="figure_1">
  <g id="patch_1">
   <path d="M 0 561.6 
L 735.12 561.6 
L 735.12 0 
L 0 0 
z
" style="fill: #ffffff"/>
  </g>
  <g id="axes_1">
   <g id="patch_2">
    <path d="M 51.984215 507.052 
L 724.0932 507.052 
L 724.0932 34.008 
L 51.984215 34.008 
z
" style="fill: #ffffff"/>
   </g>
   <g id="matplotlib.axis_1">
    <g id="xtick_1">
     <g id="line2d_1">
      <defs>
       <path id="mf4057f2684" d="M 0 0 
L 0 3.5 
" style="stroke: #000000; stroke-width: 0.8"/>
      </defs>
      <g>
       <use xlink:href="#mf4057f2684" x="73.928875" y="507.052" style="stroke: #000000; stroke-width: 0.8"/>
      </g>
     </g>
     <g id="text_1">
      <!-- 0 -->
      <g transform="translate(70.747625 521.650437) scale(0.1 -0.1)">
       <defs>
        <path id="DejaVuSans-30" d="M 2034 4250 
Q 1547 4250 1301 3770 
Q 1056 3291 1056 2328 
Q 1056 1369 1301 889 
Q 1547 409 2034 409 
Q 2525 409 2770 889 
Q 3016 1369 3016 2328 
Q 3016 3291 2770 3770 
Q 2525 4250 2034 4250 
z
M 2034 4750 
Q 2819 4750 3233 4129 
Q 3647 3509 3647 2328 
Q 3647 1150 3233 529 
Q 2819 -91 2034 -91 
Q 1250 -91 836 529 
Q 422 1150 422 2328 
Q 422 3509 836 4129 
Q 1250 4750 2034 4750 
z
" transform="scale(0.015625)"/>
       </defs>
       <use xlink:href="#DejaVuSans-30"/>
      </g>
     </g>
    </g>
    <g id="xtick_2">
     <g id="line2d_2">
      <g>
       <use xlink:href="#mf4057f2684" x="159.986363" y="507.052" style="stroke: #000000; stroke-width: 0.8"/>
      </g>
     </g>
     <g id="text_2">
      <!-- 10 -->
      <g transform="translate(153.623863 521.650437) scale(0.1 -0.1)">
       <defs>
        <path id="DejaVuSans-31" d="M 794 531 
L 1825 531 
L 1825 4091 
L 703 3866 
L 703 4441 
L 1819 4666 
L 2450 4666 
L 2450 531 
L 3481 531 
L 3481 0 
L 794 0 
L 794 531 
z
" transform="scale(0.015625)"/>
       </defs>
       <use xlink:href="#DejaVuSans-31"/>
       <use xlink:href="#DejaVuSans-30" transform="translate(63.623047 0)"/>
      </g>
     </g>
    </g>
    <g id="xtick_3">
     <g id="line2d_3">
      <g>
       <use xlink:href="#mf4057f2684" x="246.043852" y="507.052" style="stroke: #000000; stroke-width: 0.8"/>
      </g>
     </g>
     <g id="text_3">
      <!-- 20 -->
      <g transform="translate(239.681352 521.650437) scale(0.1 -0.1)">
       <defs>
        <path id="DejaVuSans-32" d="M 1228 531 
L 3431 531 
L 3431 0 
L 469 0 
L 469 531 
Q 828 903 1448 1529 
Q 2069 2156 2228 2338 
Q 2531 2678 2651 2914 
Q 2772 3150 2772 3378 
Q 2772 3750 2511 3984 
Q 2250 4219 1831 4219 
Q 1534 4219 1204 4116 
Q 875 4013 500 3803 
L 500 4441 
Q 881 4594 1212 4672 
Q 1544 4750 1819 4750 
Q 2544 4750 2975 4387 
Q 3406 4025 3406 3419 
Q 3406 3131 3298 2873 
Q 3191 2616 2906 2266 
Q 2828 2175 2409 1742 
Q 1991 1309 1228 531 
z
" transform="scale(0.015625)"/>
       </defs>
       <use xlink:href="#DejaVuSans-32"/>
       <use xlink:href="#DejaVuSans-30" transform="translate(63.623047 0)"/>
      </g>
     </g>
    </g>
    <g id="xtick_4">
     <g id="line2d_4">
      <g>
       <use xlink:href="#mf4057f2684" x="332.10134" y="507.052" style="stroke: #000000; stroke-width: 0.8"/>
      </g>
     </g>
     <g id="text_4">
      <!-- 30 -->
      <g transform="translate(325.73884 521.650437) scale(0.1 -0.1)">
       <defs>
        <path id="DejaVuSans-33" d="M 2597 2516 
Q 3050 2419 3304 2112 
Q 3559 1806 3559 1356 
Q 3559 666 3084 287 
Q 2609 -91 1734 -91 
Q 1441 -91 1130 -33 
Q 819 25 488 141 
L 488 750 
Q 750 597 1062 519 
Q 1375 441 1716 441 
Q 2309 441 2620 675 
Q 2931 909 2931 1356 
Q 2931 1769 2642 2001 
Q 2353 2234 1838 2234 
L 1294 2234 
L 1294 2753 
L 1863 2753 
Q 2328 2753 2575 2939 
Q 2822 3125 2822 3475 
Q 2822 3834 2567 4026 
Q 2313 4219 1838 4219 
Q 1578 4219 1281 4162 
Q 984 4106 628 3988 
L 628 4550 
Q 988 4650 1302 4700 
Q 1616 4750 1894 4750 
Q 2613 4750 3031 4423 
Q 3450 4097 3450 3541 
Q 3450 3153 3228 2886 
Q 3006 2619 2597 2516 
z
" transform="scale(0.015625)"/>
       </defs>
       <use xlink:href="#DejaVuSans-33"/>
       <use xlink:href="#DejaVuSans-30" transform="translate(63.623047 0)"/>
      </g>
     </g>
    </g>
    <g id="xtick_5">
     <g id="line2d_5">
      <g>
       <use xlink:href="#mf4057f2684" x="418.158828" y="507.052" style="stroke: #000000; stroke-width: 0.8"/>
      </g>
     </g>
     <g id="text_5">
      <!-- 40 -->
      <g transform="translate(411.796328 521.650437) scale(0.1 -0.1)">
       <defs>
        <path id="DejaVuSans-34" d="M 2419 4116 
L 825 1625 
L 2419 1625 
L 2419 4116 
z
M 2253 4666 
L 3047 4666 
L 3047 1625 
L 3713 1625 
L 3713 1100 
L 3047 1100 
L 3047 0 
L 2419 0 
L 2419 1100 
L 313 1100 
L 313 1709 
L 2253 4666 
z
" transform="scale(0.015625)"/>
       </defs>
       <use xlink:href="#DejaVuSans-34"/>
       <use xlink:href="#DejaVuSans-30" transform="translate(63.623047 0)"/>
      </g>
     </g>
    </g>
    <g id="xtick_6">
     <g id="line2d_6">
      <g>
       <use xlink:href="#mf4057f2684" x="504.216317" y="507.052" style="stroke: #000000; stroke-width: 0.8"/>
      </g>
     </g>
     <g id="text_6">
      <!-- 50 -->
      <g transform="translate(497.853817 521.650437) scale(0.1 -0.1)">
       <defs>
        <path id="DejaVuSans-35" d="M 691 4666 
L 3169 4666 
L 3169 4134 
L 1269 4134 
L 1269 2991 
Q 1406 3038 1543 3061 
Q 1681 3084 1819 3084 
Q 2600 3084 3056 2656 
Q 3513 2228 3513 1497 
Q 3513 744 3044 326 
Q 2575 -91 1722 -91 
Q 1428 -91 1123 -41 
Q 819 9 494 109 
L 494 744 
Q 775 591 1075 516 
Q 1375 441 1709 441 
Q 2250 441 2565 725 
Q 2881 1009 2881 1497 
Q 2881 1984 2565 2268 
Q 2250 2553 1709 2553 
Q 1456 2553 1204 2497 
Q 953 2441 691 2322 
L 691 4666 
z
" transform="scale(0.015625)"/>
       </defs>
       <use xlink:href="#DejaVuSans-35"/>
       <use xlink:href="#DejaVuSans-30" transform="translate(63.623047 0)"/>
      </g>
     </g>
    </g>
    <g id="xtick_7">
     <g id="line2d_7">
      <g>
       <use xlink:href="#mf4057f2684" x="590.273805" y="507.052" style="stroke: #000000; stroke-width: 0.8"/>
      </g>
     </g>
     <g id="text_7">
      <!-- 60 -->
      <g transform="translate(583.911305 521.650437) scale(0.1 -0.1)">
       <defs>
        <path id="DejaVuSans-36" d="M 2113 2584 
Q 1688 2584 1439 2293 
Q 1191 2003 1191 1497 
Q 1191 994 1439 701 
Q 1688 409 2113 409 
Q 2538 409 2786 701 
Q 3034 994 3034 1497 
Q 3034 2003 2786 2293 
Q 2538 2584 2113 2584 
z
M 3366 4563 
L 3366 3988 
Q 3128 4100 2886 4159 
Q 2644 4219 2406 4219 
Q 1781 4219 1451 3797 
Q 1122 3375 1075 2522 
Q 1259 2794 1537 2939 
Q 1816 3084 2150 3084 
Q 2853 3084 3261 2657 
Q 3669 2231 3669 1497 
Q 3669 778 3244 343 
Q 2819 -91 2113 -91 
Q 1303 -91 875 529 
Q 447 1150 447 2328 
Q 447 3434 972 4092 
Q 1497 4750 2381 4750 
Q 2619 4750 2861 4703 
Q 3103 4656 3366 4563 
z
" transform="scale(0.015625)"/>
       </defs>
       <use xlink:href="#DejaVuSans-36"/>
       <use xlink:href="#DejaVuSans-30" transform="translate(63.623047 0)"/>
      </g>
     </g>
    </g>
    <g id="xtick_8">
     <g id="line2d_8">
      <g>
       <use xlink:href="#mf4057f2684" x="676.331294" y="507.052" style="stroke: #000000; stroke-width: 0.8"/>
      </g>
     </g>
     <g id="text_8">
      <!-- 70 -->
      <g transform="translate(669.968794 521.650437) scale(0.1 -0.1)">
       <defs>
        <path id="DejaVuSans-37" d="M 525 4666 
L 3525 4666 
L 3525 4397 
L 1831 0 
L 1172 0 
L 2766 4134 
L 525 4134 
L 525 4666 
z
" transform="scale(0.015625)"/>
       </defs>
       <use xlink:href="#DejaVuSans-37"/>
       <use xlink:href="#DejaVuSans-30" transform="translate(63.623047 0)"/>
      </g>
     </g>
    </g>
    <g id="text_9">
     <!-- Time (t) -->
     <g transform="translate(368.354332 535.328562) scale(0.1 -0.1)">
      <defs>
       <path id="DejaVuSans-54" d="M -19 4666 
L 3928 4666 
L 3928 4134 
L 2272 4134 
L 2272 0 
L 1638 0 
L 1638 4134 
L -19 4134 
L -19 4666 
z
" transform="scale(0.015625)"/>
       <path id="DejaVuSans-69" d="M 603 3500 
L 1178 3500 
L 1178 0 
L 603 0 
L 603 3500 
z
M 603 4863 
L 1178 4863 
L 1178 4134 
L 603 4134 
L 603 4863 
z
" transform="scale(0.015625)"/>
       <path id="DejaVuSans-6d" d="M 3328 2828 
Q 3544 3216 3844 3400 
Q 4144 3584 4550 3584 
Q 5097 3584 5394 3201 
Q 5691 2819 5691 2113 
L 5691 0 
L 5113 0 
L 5113 2094 
Q 5113 2597 4934 2840 
Q 4756 3084 4391 3084 
Q 3944 3084 3684 2787 
Q 3425 2491 3425 1978 
L 3425 0 
L 2847 0 
L 2847 2094 
Q 2847 2600 2669 2842 
Q 2491 3084 2119 3084 
Q 1678 3084 1418 2786 
Q 1159 2488 1159 1978 
L 1159 0 
L 581 0 
L 581 3500 
L 1159 3500 
L 1159 2956 
Q 1356 3278 1631 3431 
Q 1906 3584 2284 3584 
Q 2666 3584 2933 3390 
Q 3200 3197 3328 2828 
z
" transform="scale(0.015625)"/>
       <path id="DejaVuSans-65" d="M 3597 1894 
L 3597 1613 
L 953 1613 
Q 991 1019 1311 708 
Q 1631 397 2203 397 
Q 2534 397 2845 478 
Q 3156 559 3463 722 
L 3463 178 
Q 3153 47 2828 -22 
Q 2503 -91 2169 -91 
Q 1331 -91 842 396 
Q 353 884 353 1716 
Q 353 2575 817 3079 
Q 1281 3584 2069 3584 
Q 2775 3584 3186 3129 
Q 3597 2675 3597 1894 
z
M 3022 2063 
Q 3016 2534 2758 2815 
Q 2500 3097 2075 3097 
Q 1594 3097 1305 2825 
Q 1016 2553 972 2059 
L 3022 2063 
z
" transform="scale(0.015625)"/>
       <path id="DejaVuSans-20" transform="scale(0.015625)"/>
       <path id="DejaVuSans-28" d="M 1984 4856 
Q 1566 4138 1362 3434 
Q 1159 2731 1159 2009 
Q 1159 1288 1364 580 
Q 1569 -128 1984 -844 
L 1484 -844 
Q 1016 -109 783 600 
Q 550 1309 550 2009 
Q 550 2706 781 3412 
Q 1013 4119 1484 4856 
L 1984 4856 
z
" transform="scale(0.015625)"/>
       <path id="DejaVuSans-74" d="M 1172 4494 
L 1172 3500 
L 2356 3500 
L 2356 3053 
L 1172 3053 
L 1172 1153 
Q 1172 725 1289 603 
Q 1406 481 1766 481 
L 2356 481 
L 2356 0 
L 1766 0 
Q 1100 0 847 248 
Q 594 497 594 1153 
L 594 3053 
L 172 3053 
L 172 3500 
L 594 3500 
L 594 4494 
L 1172 4494 
z
" transform="scale(0.015625)"/>
       <path id="DejaVuSans-29" d="M 513 4856 
L 1013 4856 
Q 1481 4119 1714 3412 
Q 1947 2706 1947 2009 
Q 1947 1309 1714 600 
Q 1481 -109 1013 -844 
L 513 -844 
Q 928 -128 1133 580 
Q 1338 1288 1338 2009 
Q 1338 2731 1133 3434 
Q 928 4138 513 4856 
z
" transform="scale(0.015625)"/>
      </defs>
      <use xlink:href="#DejaVuSans-54"/>
      <use xlink:href="#DejaVuSans-69" transform="translate(57.958984 0)"/>
      <use xlink:href="#DejaVuSans-6d" transform="translate(85.742188 0)"/>
      <use xlink:href="#DejaVuSans-65" transform="translate(183.154297 0)"/>
      <use xlink:href="#DejaVuSans-20" transform="translate(244.677734 0)"/>
      <use xlink:href="#DejaVuSans-28" transform="translate(276.464844 0)"/>
      <use xlink:href="#DejaVuSans-74" transform="translate(315.478516 0)"/>
      <use xlink:href="#DejaVuSans-29" transform="translate(354.6875 0)"/>
     </g>
    </g>
   </g>
   <g id="matplotlib.axis_2">
    <g id="ytick_1">
     <g id="line2d_9">
      <defs>
       <path id="m17adad2300" d="M 0 0 
L -3.5 0 
" style="stroke: #000000; stroke-width: 0.8"/>
      </defs>
      <g>
       <use xlink:href="#m17adad2300" x="51.984215" y="465.016782" style="stroke: #000000; stroke-width: 0.8"/>
      </g>
     </g>
     <g id="text_10">
      <!-- 50 -->
      <g transform="translate(32.259215 468.816001) scale(0.1 -0.1)">
       <use xlink:href="#DejaVuSans-35"/>
       <use xlink:href="#DejaVuSans-30" transform="translate(63.623047 0)"/>
      </g>
     </g>
    </g>
    <g id="ytick_2">
     <g id="line2d_10">
      <g>
       <use xlink:href="#m17adad2300" x="51.984215" y="384.521528" style="stroke: #000000; stroke-width: 0.8"/>
      </g>
     </g>
     <g id="text_11">
      <!-- 100 -->
      <g transform="translate(25.896715 388.320747) scale(0.1 -0.1)">
       <use xlink:href="#DejaVuSans-31"/>
       <use xlink:href="#DejaVuSans-30" transform="translate(63.623047 0)"/>
       <use xlink:href="#DejaVuSans-30" transform="translate(127.246094 0)"/>
      </g>
     </g>
    </g>
    <g id="ytick_3">
     <g id="line2d_11">
      <g>
       <use xlink:href="#m17adad2300" x="51.984215" y="304.026274" style="stroke: #000000; stroke-width: 0.8"/>
      </g>
     </g>
     <g id="text_12">
      <!-- 150 -->
      <g transform="translate(25.896715 307.825493) scale(0.1 -0.1)">
       <use xlink:href="#DejaVuSans-31"/>
       <use xlink:href="#DejaVuSans-35" transform="translate(63.623047 0)"/>
       <use xlink:href="#DejaVuSans-30" transform="translate(127.246094 0)"/>
      </g>
     </g>
    </g>
    <g id="ytick_4">
     <g id="line2d_12">
      <g>
       <use xlink:href="#m17adad2300" x="51.984215" y="223.53102" style="stroke: #000000; stroke-width: 0.8"/>
      </g>
     </g>
     <g id="text_13">
      <!-- 200 -->
      <g transform="translate(25.896715 227.330239) scale(0.1 -0.1)">
       <use xlink:href="#DejaVuSans-32"/>
       <use xlink:href="#DejaVuSans-30" transform="translate(63.623047 0)"/>
       <use xlink:href="#DejaVuSans-30" transform="translate(127.246094 0)"/>
      </g>
     </g>
    </g>
    <g id="ytick_5">
     <g id="line2d_13">
      <g>
       <use xlink:href="#m17adad2300" x="51.984215" y="143.035766" style="stroke: #000000; stroke-width: 0.8"/>
      </g>
     </g>
     <g id="text_14">
      <!-- 250 -->
      <g transform="translate(25.896715 146.834985) scale(0.1 -0.1)">
       <use xlink:href="#DejaVuSans-32"/>
       <use xlink:href="#DejaVuSans-35" transform="translate(63.623047 0)"/>
       <use xlink:href="#DejaVuSans-30" transform="translate(127.246094 0)"/>
      </g>
     </g>
    </g>
    <g id="ytick_6">
     <g id="line2d_14">
      <g>
       <use xlink:href="#m17adad2300" x="51.984215" y="62.540512" style="stroke: #000000; stroke-width: 0.8"/>
      </g>
     </g>
     <g id="text_15">
      <!-- 300 -->
      <g transform="translate(25.896715 66.339731) scale(0.1 -0.1)">
       <use xlink:href="#DejaVuSans-33"/>
       <use xlink:href="#DejaVuSans-30" transform="translate(63.623047 0)"/>
       <use xlink:href="#DejaVuSans-30" transform="translate(127.246094 0)"/>
      </g>
     </g>
    </g>
    <g id="text_16">
     <!-- SoC -->
     <g transform="translate(19.817028 280.255) rotate(-90) scale(0.1 -0.1)">
      <defs>
       <path id="DejaVuSans-53" d="M 3425 4513 
L 3425 3897 
Q 3066 4069 2747 4153 
Q 2428 4238 2131 4238 
Q 1616 4238 1336 4038 
Q 1056 3838 1056 3469 
Q 1056 3159 1242 3001 
Q 1428 2844 1947 2747 
L 2328 2669 
Q 3034 2534 3370 2195 
Q 3706 1856 3706 1288 
Q 3706 609 3251 259 
Q 2797 -91 1919 -91 
Q 1588 -91 1214 -16 
Q 841 59 441 206 
L 441 856 
Q 825 641 1194 531 
Q 1563 422 1919 422 
Q 2459 422 2753 634 
Q 3047 847 3047 1241 
Q 3047 1584 2836 1778 
Q 2625 1972 2144 2069 
L 1759 2144 
Q 1053 2284 737 2584 
Q 422 2884 422 3419 
Q 422 4038 858 4394 
Q 1294 4750 2059 4750 
Q 2388 4750 2728 4690 
Q 3069 4631 3425 4513 
z
" transform="scale(0.015625)"/>
       <path id="DejaVuSans-6f" d="M 1959 3097 
Q 1497 3097 1228 2736 
Q 959 2375 959 1747 
Q 959 1119 1226 758 
Q 1494 397 1959 397 
Q 2419 397 2687 759 
Q 2956 1122 2956 1747 
Q 2956 2369 2687 2733 
Q 2419 3097 1959 3097 
z
M 1959 3584 
Q 2709 3584 3137 3096 
Q 3566 2609 3566 1747 
Q 3566 888 3137 398 
Q 2709 -91 1959 -91 
Q 1206 -91 779 398 
Q 353 888 353 1747 
Q 353 2609 779 3096 
Q 1206 3584 1959 3584 
z
" transform="scale(0.015625)"/>
       <path id="DejaVuSans-43" d="M 4122 4306 
L 4122 3641 
Q 3803 3938 3442 4084 
Q 3081 4231 2675 4231 
Q 1875 4231 1450 3742 
Q 1025 3253 1025 2328 
Q 1025 1406 1450 917 
Q 1875 428 2675 428 
Q 3081 428 3442 575 
Q 3803 722 4122 1019 
L 4122 359 
Q 3791 134 3420 21 
Q 3050 -91 2638 -91 
Q 1578 -91 968 557 
Q 359 1206 359 2328 
Q 359 3453 968 4101 
Q 1578 4750 2638 4750 
Q 3056 4750 3426 4639 
Q 3797 4528 4122 4306 
z
" transform="scale(0.015625)"/>
      </defs>
      <use xlink:href="#DejaVuSans-53"/>
      <use xlink:href="#DejaVuSans-6f" transform="translate(63.476562 0)"/>
      <use xlink:href="#DejaVuSans-43" transform="translate(124.658203 0)"/>
     </g>
    </g>
   </g>
   <g id="line2d_15">
    <path d="M 82.534623 304.593142 
L 91.140372 304.593142 
L 99.746121 304.593142 
L 108.35187 304.593142 
L 116.957619 304.593142 
L 125.563368 304.593142 
L 134.169116 304.593142 
L 142.774865 304.593142 
L 151.380614 304.593142 
L 159.986363 304.593142 
L 168.592112 304.593142 
L 177.197861 304.593142 
L 185.80361 304.593142 
L 194.409358 304.593142 
L 203.015107 304.593142 
L 211.620856 304.593142 
L 220.226605 304.593142 
L 228.832354 304.593142 
L 237.438103 304.593142 
L 246.043852 304.593142 
L 254.6496 304.593142 
L 263.255349 304.593142 
L 271.861098 304.593142 
L 280.466847 304.593142 
L 289.072596 304.593142 
L 297.678345 304.593142 
L 306.284093 304.593142 
L 314.889842 304.593142 
L 323.495591 304.593142 
L 332.10134 304.593142 
L 340.707089 304.593142 
L 349.312838 304.593142 
L 357.918587 304.593142 
L 366.524335 304.593142 
L 375.130084 304.593142 
L 383.735833 304.593142 
L 392.341582 304.593142 
L 400.947331 304.593142 
L 409.55308 304.593142 
L 418.158828 304.593142 
L 426.764577 304.593142 
L 435.370326 304.593142 
L 443.976075 304.593142 
L 452.581824 304.593142 
L 461.187573 304.593142 
L 469.793322 304.593142 
L 478.39907 304.593142 
L 487.004819 304.593142 
L 495.610568 304.593142 
L 504.216317 304.593142 
L 512.822066 304.593142 
L 521.427815 304.593142 
L 530.033563 304.593142 
L 538.639312 304.593142 
L 547.245061 304.593142 
L 555.85081 304.593142 
L 564.456559 304.593142 
L 573.062308 304.593142 
L 581.668057 304.593142 
L 590.273805 304.593142 
L 598.879554 304.593142 
L 607.485303 304.593142 
L 616.091052 304.593142 
L 624.696801 304.593142 
L 633.30255 304.593142 
L 641.908299 304.593142 
L 650.514047 304.593142 
L 659.119796 304.593142 
L 667.725545 304.593142 
L 676.331294 304.593142 
L 684.937043 304.593142 
L 693.542792 304.593142 
" clip-path="url(#pd5e51ed7ea)" style="fill: none; stroke: #1f77b4; stroke-width: 1.8; stroke-linecap: square"/>
   </g>
   <g id="line2d_16">
    <path d="M 82.534623 304.593142 
L 91.140372 304.593142 
L 99.746121 304.593142 
L 108.35187 304.593142 
L 116.957619 304.593142 
L 125.563368 304.593142 
L 134.169116 304.593142 
L 142.774865 304.593142 
L 151.380614 304.593142 
L 159.986363 304.593142 
L 168.592112 304.593142 
L 177.197861 304.593142 
L 185.80361 304.593142 
L 194.409358 304.593142 
L 203.015107 304.593142 
L 211.620856 304.593142 
L 220.226605 304.593142 
L 228.832354 304.593142 
L 237.438103 304.593142 
L 246.043852 304.593142 
L 254.6496 304.593142 
L 263.255349 304.593142 
L 271.861098 304.593142 
L 280.466847 304.593142 
L 289.072596 304.593142 
L 297.678345 304.593142 
L 306.284093 304.593142 
L 314.889842 304.593142 
L 323.495591 304.593142 
L 332.10134 304.593142 
L 340.707089 304.593142 
L 349.312838 304.593142 
L 357.918587 304.593142 
L 366.524335 304.593142 
L 375.130084 304.593142 
L 383.735833 304.593142 
L 392.341582 304.593142 
L 400.947331 304.593142 
L 409.55308 304.593142 
L 418.158828 304.593142 
L 426.764577 304.593142 
L 435.370326 304.593142 
L 443.976075 304.593142 
L 452.581824 304.593142 
L 461.187573 304.593142 
L 469.793322 304.593142 
L 478.39907 304.593142 
L 487.004819 304.593142 
L 495.610568 304.593142 
L 504.216317 304.593142 
L 512.822066 304.593142 
L 521.427815 304.593142 
L 530.033563 304.593142 
L 538.639312 304.593142 
L 547.245061 304.593142 
L 555.85081 304.593142 
L 564.456559 304.593142 
L 573.062308 304.593142 
L 581.668057 304.593142 
L 590.273805 304.593142 
L 598.879554 304.593142 
L 607.485303 304.593142 
L 616.091052 304.593142 
L 624.696801 304.593142 
L 633.30255 304.593142 
L 641.908299 304.593142 
L 650.514047 304.593142 
L 659.119796 304.593142 
L 667.725545 304.593142 
L 676.331294 304.593142 
L 684.937043 304.593142 
L 693.542792 304.593142 
" clip-path="url(#pd5e51ed7ea)" style="fill: none; stroke: #ff7f0e; stroke-width: 1.8; stroke-linecap: square"/>
   </g>
   <g id="line2d_17">
    <path d="M 82.534623 304.593142 
L 91.140372 304.593142 
L 99.746121 304.593142 
L 108.35187 304.593142 
L 116.957619 304.593142 
L 125.563368 304.593142 
L 134.169116 304.593142 
L 142.774865 304.593142 
L 151.380614 304.593142 
L 159.986363 304.593142 
L 168.592112 304.593142 
L 177.197861 304.593142 
L 185.80361 304.593142 
L 194.409358 304.593142 
L 203.015107 304.593142 
L 211.620856 304.593142 
L 220.226605 304.593142 
L 228.832354 304.593142 
L 237.438103 304.593142 
L 246.043852 304.593142 
L 254.6496 304.593142 
L 263.255349 304.593142 
L 271.861098 304.593142 
L 280.466847 304.593142 
L 289.072596 304.593142 
L 297.678345 304.593142 
L 306.284093 304.593142 
L 314.889842 304.593142 
L 323.495591 304.593142 
L 332.10134 304.593142 
L 340.707089 304.593142 
L 349.312838 304.593142 
L 357.918587 304.593142 
L 366.524335 304.593142 
L 375.130084 304.593142 
L 383.735833 304.593142 
L 392.341582 304.593142 
L 400.947331 304.593142 
L 409.55308 304.593142 
L 418.158828 304.593142 
L 426.764577 304.593142 
L 435.370326 304.593142 
L 443.976075 304.593142 
L 452.581824 304.593142 
L 461.187573 304.593142 
L 469.793322 304.593142 
L 478.39907 304.593142 
L 487.004819 304.593142 
L 495.610568 304.593142 
L 504.216317 304.593142 
L 512.822066 304.593142 
L 521.427815 304.593142 
L 530.033563 304.593142 
L 538.639312 304.593142 
L 547.245061 304.593142 
L 555.85081 304.593142 
L 564.456559 304.593142 
L 573.062308 304.593142 
L 581.668057 304.593142 
L 590.273805 304.593142 
L 598.879554 304.593142 
L 607.485303 304.593142 
L 616.091052 304.593142 
L 624.696801 304.593142 
L 633.30255 304.593142 
L 641.908299 304.593142 
L 650.514047 304.593142 
L 659.119796 304.593142 
L 667.725545 304.593142 
L 676.331294 304.593142 
L 684.937043 304.593142 
L 693.542792 304.593142 
" clip-path="url(#pd5e51ed7ea)" style="fill: none; stroke: #2ca02c; stroke-width: 1.8; stroke-linecap: square"/>
   </g>
   <g id="line2d_18">
    <path d="M 82.534623 304.593142 
L 91.140372 304.593142 
L 99.746121 304.593142 
L 108.35187 304.593142 
L 116.957619 304.593142 
L 125.563368 304.593142 
L 134.169116 304.593142 
L 142.774865 304.593142 
L 151.380614 304.593142 
L 159.986363 304.593142 
L 168.592112 304.593142 
L 177.197861 304.593142 
L 185.80361 304.593142 
L 194.409358 304.593142 
L 203.015107 304.593142 
L 211.620856 304.593142 
L 220.226605 304.593142 
L 228.832354 304.593142 
L 237.438103 304.593142 
L 246.043852 304.593142 
L 254.6496 304.593142 
L 263.255349 304.593142 
L 271.861098 304.593142 
L 280.466847 304.593142 
L 289.072596 304.593142 
L 297.678345 304.593142 
L 306.284093 304.593142 
L 314.889842 304.593142 
L 323.495591 304.593142 
L 332.10134 304.593142 
L 340.707089 304.593142 
L 349.312838 304.593142 
L 357.918587 304.593142 
L 366.524335 304.593142 
L 375.130084 304.593142 
L 383.735833 304.593142 
L 392.341582 304.593142 
L 400.947331 304.593142 
L 409.55308 304.593142 
L 418.158828 304.593142 
L 426.764577 304.593142 
L 435.370326 304.593142 
L 443.976075 304.593142 
L 452.581824 304.593142 
L 461.187573 304.593142 
L 469.793322 304.593142 
L 478.39907 304.593142 
L 487.004819 304.593142 
L 495.610568 304.593142 
L 504.216317 304.593142 
L 512.822066 304.593142 
L 521.427815 304.593142 
L 530.033563 304.593142 
L 538.639312 304.593142 
L 547.245061 304.593142 
L 555.85081 304.593142 
L 564.456559 304.593142 
L 573.062308 304.593142 
L 581.668057 304.593142 
L 590.273805 304.593142 
L 598.879554 304.593142 
L 607.485303 304.593142 
L 616.091052 304.593142 
L 624.696801 304.593142 
L 633.30255 304.593142 
L 641.908299 304.593142 
L 650.514047 304.593142 
L 659.119796 304.593142 
L 667.725545 304.593142 
L 676.331294 304.593142 
L 684.937043 304.593142 
L 693.542792 304.593142 
" clip-path="url(#pd5e51ed7ea)" style="fill: none; stroke: #d62728; stroke-width: 1.8; stroke-linecap: square"/>
   </g>
   <g id="line2d_19">
    <path d="M 82.534623 304.593142 
L 91.140372 304.593142 
L 99.746121 304.593142 
L 108.35187 304.593142 
L 116.957619 304.593142 
L 125.563368 304.593142 
L 134.169116 304.593142 
L 142.774865 304.593142 
L 151.380614 368.391094 
L 159.986363 444.883599 
L 168.592112 444.883599 
L 177.197861 444.883599 
L 185.80361 400.895396 
L 194.409358 360.332373 
L 203.015107 360.332373 
L 211.620856 304.593142 
L 220.226605 304.593142 
L 228.832354 304.593142 
L 237.438103 304.593142 
L 246.043852 304.593142 
L 254.6496 304.593142 
L 263.255349 304.593142 
L 271.861098 304.593142 
L 280.466847 304.593142 
L 289.072596 304.593142 
L 297.678345 304.593142 
L 306.284093 304.593142 
L 314.889842 304.593142 
L 323.495591 304.593142 
L 332.10134 304.593142 
L 340.707089 304.593142 
L 349.312838 304.593142 
L 357.918587 331.779196 
L 366.524335 351.975759 
L 375.130084 351.975759 
L 383.735833 351.975759 
L 392.341582 351.975759 
L 400.947331 298.062055 
L 409.55308 298.062055 
L 418.158828 298.062055 
L 426.764577 260.442989 
L 435.370326 260.442989 
L 443.976075 260.442989 
L 452.581824 260.442989 
L 461.187573 260.442989 
L 469.793322 260.442989 
L 478.39907 293.959579 
L 487.004819 293.959579 
L 495.610568 293.959579 
L 504.216317 293.959579 
L 512.822066 293.959579 
L 521.427815 293.959579 
L 530.033563 293.959579 
L 538.639312 293.959579 
L 547.245061 293.959579 
L 555.85081 293.959579 
L 564.456559 295.80336 
L 573.062308 295.80336 
L 581.668057 263.742673 
L 590.273805 232.503519 
L 598.879554 198.250632 
L 607.485303 134.056751 
L 616.091052 104.76953 
L 624.696801 104.76953 
L 633.30255 107.043409 
L 641.908299 105.149984 
L 650.514047 153.814006 
L 659.119796 181.807847 
L 667.725545 181.807847 
L 676.331294 181.807847 
L 684.937043 253.971624 
L 693.542792 293.959579 
" clip-path="url(#pd5e51ed7ea)" style="fill: none; stroke: #9467bd; stroke-width: 1.8; stroke-linecap: square"/>
   </g>
   <g id="line2d_20">
    <path d="M 82.534623 304.593142 
L 91.140372 304.593142 
L 99.746121 304.593142 
L 108.35187 304.593142 
L 116.957619 304.593142 
L 125.563368 304.593142 
L 134.169116 304.593142 
L 142.774865 304.593142 
L 151.380614 304.593142 
L 159.986363 304.593142 
L 168.592112 304.593142 
L 177.197861 304.593142 
L 185.80361 304.593142 
L 194.409358 304.593142 
L 203.015107 304.593142 
L 211.620856 304.593142 
L 220.226605 304.593142 
L 228.832354 304.593142 
L 237.438103 304.593142 
L 246.043852 304.593142 
L 254.6496 304.593142 
L 263.255349 304.593142 
L 271.861098 304.593142 
L 280.466847 304.593142 
L 289.072596 304.593142 
L 297.678345 304.593142 
L 306.284093 304.593142 
L 314.889842 304.593142 
L 323.495591 304.593142 
L 332.10134 304.593142 
L 340.707089 304.593142 
L 349.312838 304.593142 
L 357.918587 304.593142 
L 366.524335 304.593142 
L 375.130084 304.593142 
L 383.735833 304.593142 
L 392.341582 304.593142 
L 400.947331 304.593142 
L 409.55308 304.593142 
L 418.158828 304.593142 
L 426.764577 304.593142 
L 435.370326 304.593142 
L 443.976075 304.593142 
L 452.581824 304.593142 
L 461.187573 304.593142 
L 469.793322 304.593142 
L 478.39907 304.593142 
L 487.004819 304.593142 
L 495.610568 290.231776 
L 504.216317 275.544073 
L 512.822066 261.778541 
L 521.427815 247.273053 
L 530.033563 233.522624 
L 538.639312 219.100414 
L 547.245061 205.907638 
L 555.85081 193.656472 
L 564.456559 193.656472 
L 573.062308 193.656472 
L 581.668057 193.656472 
L 590.273805 193.656472 
L 598.879554 193.656472 
L 607.485303 193.656472 
L 616.091052 193.656472 
L 624.696801 193.656472 
L 633.30255 193.656472 
L 641.908299 193.656472 
L 650.514047 193.656472 
L 659.119796 193.656472 
L 667.725545 193.656472 
L 676.331294 193.656472 
L 684.937043 193.656472 
L 693.542792 193.656472 
" clip-path="url(#pd5e51ed7ea)" style="fill: none; stroke: #8c564b; stroke-width: 1.8; stroke-linecap: square"/>
   </g>
   <g id="line2d_21">
    <path d="M 82.534623 63.674248 
L 91.140372 63.674248 
L 99.746121 63.674248 
L 108.35187 63.674248 
L 116.957619 63.674248 
L 125.563368 63.674248 
L 134.169116 63.674248 
L 142.774865 63.674248 
L 151.380614 63.674248 
L 159.986363 63.674248 
L 168.592112 63.674248 
L 177.197861 63.674248 
L 185.80361 63.674248 
L 194.409358 63.674248 
L 203.015107 63.674248 
L 211.620856 63.674248 
L 220.226605 63.674248 
L 228.832354 63.674248 
L 237.438103 63.674248 
L 246.043852 63.674248 
L 254.6496 63.674248 
L 263.255349 63.674248 
L 271.861098 63.674248 
L 280.466847 63.674248 
L 289.072596 63.674248 
L 297.678345 63.674248 
L 306.284093 63.674248 
L 314.889842 63.674248 
L 323.495591 63.674248 
L 332.10134 63.674248 
L 340.707089 63.674248 
L 349.312838 63.674248 
L 357.918587 63.674248 
L 366.524335 63.674248 
L 375.130084 63.674248 
L 383.735833 63.674248 
L 392.341582 63.674248 
L 400.947331 63.674248 
L 409.55308 63.674248 
L 418.158828 63.674248 
L 426.764577 63.674248 
L 435.370326 63.674248 
L 443.976075 63.674248 
L 452.581824 63.674248 
L 461.187573 63.674248 
L 469.793322 63.674248 
L 478.39907 63.674248 
L 487.004819 63.674248 
L 495.610568 63.674248 
L 504.216317 63.674248 
L 512.822066 63.674248 
L 521.427815 63.674248 
L 530.033563 63.674248 
L 538.639312 63.674248 
L 547.245061 63.674248 
L 555.85081 63.674248 
L 564.456559 63.674248 
L 573.062308 63.674248 
L 581.668057 63.674248 
L 590.273805 63.674248 
L 598.879554 63.674248 
L 607.485303 63.674248 
L 616.091052 63.674248 
L 624.696801 63.674248 
L 633.30255 63.674248 
L 641.908299 63.674248 
L 650.514047 63.674248 
L 659.119796 63.674248 
L 667.725545 63.674248 
L 676.331294 63.674248 
L 684.937043 63.674248 
L 693.542792 63.674248 
" clip-path="url(#pd5e51ed7ea)" style="fill: none; stroke: #e377c2; stroke-width: 1.8; stroke-linecap: square"/>
   </g>
   <g id="line2d_22">
    <path d="M 82.534623 63.674248 
L 91.140372 63.674248 
L 99.746121 63.674248 
L 108.35187 63.674248 
L 116.957619 63.674248 
L 125.563368 63.674248 
L 134.169116 63.674248 
L 142.774865 63.674248 
L 151.380614 63.674248 
L 159.986363 63.674248 
L 168.592112 63.674248 
L 177.197861 63.674248 
L 185.80361 63.674248 
L 194.409358 63.674248 
L 203.015107 63.674248 
L 211.620856 63.674248 
L 220.226605 63.674248 
L 228.832354 63.674248 
L 237.438103 63.674248 
L 246.043852 63.674248 
L 254.6496 63.674248 
L 263.255349 63.674248 
L 271.861098 63.674248 
L 280.466847 63.674248 
L 289.072596 63.674248 
L 297.678345 63.674248 
L 306.284093 63.674248 
L 314.889842 63.674248 
L 323.495591 63.674248 
L 332.10134 63.674248 
L 340.707089 63.674248 
L 349.312838 63.674248 
L 357.918587 63.674248 
L 366.524335 63.674248 
L 375.130084 63.674248 
L 383.735833 63.674248 
L 392.341582 63.674248 
L 400.947331 63.674248 
L 409.55308 63.674248 
L 418.158828 63.674248 
L 426.764577 63.674248 
L 435.370326 63.674248 
L 443.976075 63.674248 
L 452.581824 63.674248 
L 461.187573 63.674248 
L 469.793322 63.674248 
L 478.39907 63.674248 
L 487.004819 63.674248 
L 495.610568 63.674248 
L 504.216317 63.674248 
L 512.822066 63.674248 
L 521.427815 63.674248 
L 530.033563 61.884791 
L 538.639312 61.884791 
L 547.245061 61.884791 
L 555.85081 61.884791 
L 564.456559 66.641667 
L 573.062308 69.443246 
L 581.668057 70.86476 
L 590.273805 70.86476 
L 598.879554 70.86476 
L 607.485303 62.730789 
L 616.091052 55.51 
L 624.696801 55.664764 
L 633.30255 55.664764 
L 641.908299 55.664764 
L 650.514047 55.664764 
L 659.119796 55.664764 
L 667.725545 55.664764 
L 676.331294 55.664764 
L 684.937043 61.884791 
L 693.542792 61.884791 
" clip-path="url(#pd5e51ed7ea)" style="fill: none; stroke: #7f7f7f; stroke-width: 1.8; stroke-linecap: square"/>
   </g>
   <g id="line2d_23">
    <path d="M 82.534623 63.674248 
L 91.140372 63.674248 
L 99.746121 63.674248 
L 108.35187 63.674248 
L 116.957619 63.674248 
L 125.563368 63.674248 
L 134.169116 63.674248 
L 142.774865 63.674248 
L 151.380614 63.674248 
L 159.986363 63.674248 
L 168.592112 63.674248 
L 177.197861 63.674248 
L 185.80361 63.674248 
L 194.409358 63.674248 
L 203.015107 63.674248 
L 211.620856 63.674248 
L 220.226605 63.674248 
L 228.832354 63.674248 
L 237.438103 63.674248 
L 246.043852 63.674248 
L 254.6496 63.674248 
L 263.255349 63.674248 
L 271.861098 63.674248 
L 280.466847 63.674248 
L 289.072596 63.674248 
L 297.678345 63.674248 
L 306.284093 63.674248 
L 314.889842 63.674248 
L 323.495591 63.674248 
L 332.10134 63.674248 
L 340.707089 63.674248 
L 349.312838 63.674248 
L 357.918587 63.674248 
L 366.524335 63.674248 
L 375.130084 63.674248 
L 383.735833 63.674248 
L 392.341582 63.674248 
L 400.947331 63.674248 
L 409.55308 63.674248 
L 418.158828 63.674248 
L 426.764577 63.674248 
L 435.370326 63.674248 
L 443.976075 63.674248 
L 452.581824 63.674248 
L 461.187573 63.674248 
L 469.793322 63.674248 
L 478.39907 63.674248 
L 487.004819 63.674248 
L 495.610568 63.674248 
L 504.216317 63.674248 
L 512.822066 63.674248 
L 521.427815 63.674248 
L 530.033563 63.674248 
L 538.639312 63.674248 
L 547.245061 63.674248 
L 555.85081 63.674248 
L 564.456559 63.674248 
L 573.062308 63.674248 
L 581.668057 63.674248 
L 590.273805 63.674248 
L 598.879554 63.674248 
L 607.485303 63.674248 
L 616.091052 63.674248 
L 624.696801 63.674248 
L 633.30255 63.674248 
L 641.908299 63.674248 
L 650.514047 63.674248 
L 659.119796 63.674248 
L 667.725545 63.674248 
L 676.331294 63.674248 
L 684.937043 63.674248 
L 693.542792 63.674248 
" clip-path="url(#pd5e51ed7ea)" style="fill: none; stroke: #bcbd22; stroke-width: 1.8; stroke-linecap: square"/>
   </g>
   <g id="line2d_24">
    <path d="M 82.534623 410.597455 
L 91.140372 410.597455 
L 99.746121 410.597455 
L 108.35187 410.597455 
L 116.957619 410.597455 
L 125.563368 410.597455 
L 134.169116 410.597455 
L 142.774865 410.597455 
L 151.380614 410.597455 
L 159.986363 410.597455 
L 168.592112 410.597455 
L 177.197861 410.597455 
L 185.80361 410.597455 
L 194.409358 410.597455 
L 203.015107 410.597455 
L 211.620856 410.597455 
L 220.226605 410.597455 
L 228.832354 410.597455 
L 237.438103 410.597455 
L 246.043852 410.597455 
L 254.6496 410.597455 
L 263.255349 410.597455 
L 271.861098 410.597455 
L 280.466847 410.597455 
L 289.072596 410.597455 
L 297.678345 410.597455 
L 306.284093 410.597455 
L 314.889842 410.597455 
L 323.495591 410.597455 
L 332.10134 410.597455 
L 340.707089 410.597455 
L 349.312838 410.597455 
L 357.918587 410.597455 
L 366.524335 410.597455 
L 375.130084 410.597455 
L 383.735833 410.597455 
L 392.341582 410.597455 
L 400.947331 410.597455 
L 409.55308 410.597455 
L 418.158828 410.597455 
L 426.764577 410.597455 
L 435.370326 410.597455 
L 443.976075 410.597455 
L 452.581824 410.597455 
L 461.187573 410.597455 
L 469.793322 410.597455 
L 478.39907 410.597455 
L 487.004819 410.597455 
L 495.610568 410.597455 
L 504.216317 410.597455 
L 512.822066 410.597455 
L 521.427815 410.597455 
L 530.033563 410.597455 
L 538.639312 410.597455 
L 547.245061 410.597455 
L 555.85081 410.597455 
L 564.456559 410.597455 
L 573.062308 410.597455 
L 581.668057 410.597455 
L 590.273805 410.597455 
L 598.879554 410.597455 
L 607.485303 410.597455 
L 616.091052 410.597455 
L 624.696801 410.597455 
L 633.30255 410.597455 
L 641.908299 410.597455 
L 650.514047 410.597455 
L 659.119796 410.597455 
L 667.725545 410.597455 
L 676.331294 410.597455 
L 684.937043 410.597455 
L 693.542792 410.597455 
" clip-path="url(#pd5e51ed7ea)" style="fill: none; stroke: #17becf; stroke-width: 1.8; stroke-linecap: square"/>
   </g>
   <g id="line2d_25">
    <path d="M 82.534623 410.597455 
L 91.140372 410.597455 
L 99.746121 410.597455 
L 108.35187 410.597455 
L 116.957619 410.597455 
L 125.563368 410.597455 
L 134.169116 410.597455 
L 142.774865 410.597455 
L 151.380614 410.597455 
L 159.986363 410.597455 
L 168.592112 410.597455 
L 177.197861 410.597455 
L 185.80361 410.597455 
L 194.409358 410.597455 
L 203.015107 410.597455 
L 211.620856 410.597455 
L 220.226605 410.597455 
L 228.832354 410.597455 
L 237.438103 410.597455 
L 246.043852 410.597455 
L 254.6496 410.597455 
L 263.255349 410.597455 
L 271.861098 410.597455 
L 280.466847 410.597455 
L 289.072596 410.597455 
L 297.678345 410.597455 
L 306.284093 410.597455 
L 314.889842 410.597455 
L 323.495591 410.597455 
L 332.10134 410.597455 
L 340.707089 410.597455 
L 349.312838 410.597455 
L 357.918587 410.597455 
L 366.524335 410.597455 
L 375.130084 410.597455 
L 383.735833 410.597455 
L 392.341582 410.597455 
L 400.947331 410.597455 
L 409.55308 410.597455 
L 418.158828 410.597455 
L 426.764577 410.597455 
L 435.370326 410.597455 
L 443.976075 410.597455 
L 452.581824 410.597455 
L 461.187573 410.597455 
L 469.793322 410.597455 
L 478.39907 410.597455 
L 487.004819 410.597455 
L 495.610568 410.597455 
L 504.216317 410.597455 
L 512.822066 410.597455 
L 521.427815 410.597455 
L 530.033563 410.597455 
L 538.639312 410.597455 
L 547.245061 410.597455 
L 555.85081 410.597455 
L 564.456559 410.597455 
L 573.062308 410.597455 
L 581.668057 410.597455 
L 590.273805 410.597455 
L 598.879554 410.597455 
L 607.485303 410.597455 
L 616.091052 410.597455 
L 624.696801 410.597455 
L 633.30255 410.597455 
L 641.908299 410.597455 
L 650.514047 410.597455 
L 659.119796 410.597455 
L 667.725545 410.597455 
L 676.331294 410.597455 
L 684.937043 410.597455 
L 693.542792 410.597455 
" clip-path="url(#pd5e51ed7ea)" style="fill: none; stroke: #1f77b4; stroke-width: 1.8; stroke-linecap: square"/>
   </g>
   <g id="line2d_26">
    <path d="M 82.534623 410.597455 
L 91.140372 410.597455 
L 99.746121 410.597455 
L 108.35187 410.597455 
L 116.957619 410.597455 
L 125.563368 410.597455 
L 134.169116 410.597455 
L 142.774865 410.597455 
L 151.380614 410.597455 
L 159.986363 410.597455 
L 168.592112 410.597455 
L 177.197861 410.597455 
L 185.80361 410.597455 
L 194.409358 410.597455 
L 203.015107 410.597455 
L 211.620856 410.597455 
L 220.226605 410.597455 
L 228.832354 410.597455 
L 237.438103 410.597455 
L 246.043852 410.597455 
L 254.6496 410.597455 
L 263.255349 410.597455 
L 271.861098 410.597455 
L 280.466847 410.597455 
L 289.072596 410.597455 
L 297.678345 410.597455 
L 306.284093 410.597455 
L 314.889842 410.597455 
L 323.495591 410.597455 
L 332.10134 410.597455 
L 340.707089 410.597455 
L 349.312838 410.597455 
L 357.918587 410.597455 
L 366.524335 410.597455 
L 375.130084 410.597455 
L 383.735833 410.597455 
L 392.341582 410.597455 
L 400.947331 410.597455 
L 409.55308 410.597455 
L 418.158828 410.597455 
L 426.764577 410.597455 
L 435.370326 410.597455 
L 443.976075 410.597455 
L 452.581824 410.597455 
L 461.187573 410.597455 
L 469.793322 410.597455 
L 478.39907 410.597455 
L 487.004819 410.597455 
L 495.610568 410.597455 
L 504.216317 410.597455 
L 512.822066 410.597455 
L 521.427815 410.597455 
L 530.033563 410.597455 
L 538.639312 410.597455 
L 547.245061 410.597455 
L 555.85081 410.597455 
L 564.456559 410.597455 
L 573.062308 410.597455 
L 581.668057 410.597455 
L 590.273805 410.597455 
L 598.879554 410.597455 
L 607.485303 410.597455 
L 616.091052 410.597455 
L 624.696801 410.597455 
L 633.30255 410.597455 
L 641.908299 410.597455 
L 650.514047 410.597455 
L 659.119796 410.597455 
L 667.725545 410.597455 
L 676.331294 410.597455 
L 684.937043 410.597455 
L 693.542792 410.597455 
" clip-path="url(#pd5e51ed7ea)" style="fill: none; stroke: #ff7f0e; stroke-width: 1.8; stroke-linecap: square"/>
   </g>
   <g id="line2d_27">
    <path d="M 82.534623 410.597455 
L 91.140372 410.597455 
L 99.746121 410.597455 
L 108.35187 410.597455 
L 116.957619 410.597455 
L 125.563368 410.597455 
L 134.169116 410.597455 
L 142.774865 410.597455 
L 151.380614 410.597455 
L 159.986363 410.597455 
L 168.592112 410.597455 
L 177.197861 467.129452 
L 185.80361 467.129452 
L 194.409358 467.129452 
L 203.015107 410.597455 
L 211.620856 410.597455 
L 220.226605 367.67056 
L 228.832354 335.64491 
L 237.438103 335.64491 
L 246.043852 335.64491 
L 254.6496 335.64491 
L 263.255349 335.64491 
L 271.861098 335.64491 
L 280.466847 410.597455 
L 289.072596 410.597455 
L 297.678345 410.597455 
L 306.284093 410.597455 
L 314.889842 410.597455 
L 323.495591 410.597455 
L 332.10134 410.597455 
L 340.707089 410.597455 
L 349.312838 410.597455 
L 357.918587 410.597455 
L 366.524335 410.597455 
L 375.130084 410.597455 
L 383.735833 410.597455 
L 392.341582 363.577484 
L 400.947331 363.577484 
L 409.55308 338.064457 
L 418.158828 395.660733 
L 426.764577 395.660733 
L 435.370326 389.76838 
L 443.976075 389.76838 
L 452.581824 389.76838 
L 461.187573 389.76838 
L 469.793322 389.76838 
L 478.39907 389.76838 
L 487.004819 389.76838 
L 495.610568 389.76838 
L 504.216317 389.76838 
L 512.822066 389.76838 
L 521.427815 389.76838 
L 530.033563 389.76838 
L 538.639312 389.76838 
L 547.245061 389.76838 
L 555.85081 389.76838 
L 564.456559 389.76838 
L 573.062308 380.844846 
L 581.668057 351.144306 
L 590.273805 351.144306 
L 598.879554 351.144306 
L 607.485303 351.144306 
L 616.091052 351.144306 
L 624.696801 295.777426 
L 633.30255 295.777426 
L 641.908299 295.777426 
L 650.514047 295.777426 
L 659.119796 295.777426 
L 667.725545 322.041613 
L 676.331294 389.76838 
L 684.937043 389.76838 
L 693.542792 389.76838 
" clip-path="url(#pd5e51ed7ea)" style="fill: none; stroke: #2ca02c; stroke-width: 1.8; stroke-linecap: square"/>
   </g>
   <g id="line2d_28">
    <path d="M 82.534623 410.597455 
L 91.140372 410.597455 
L 99.746121 410.597455 
L 108.35187 410.597455 
L 116.957619 410.597455 
L 125.563368 410.597455 
L 134.169116 410.597455 
L 142.774865 410.597455 
L 151.380614 409.273505 
L 159.986363 409.273505 
L 168.592112 404.963832 
L 177.197861 404.963832 
L 185.80361 401.585997 
L 194.409358 401.585997 
L 203.015107 408.373796 
L 211.620856 410.597455 
L 220.226605 413.507372 
L 228.832354 413.019558 
L 237.438103 407.797072 
L 246.043852 403.807268 
L 254.6496 402.229427 
L 263.255349 408.517567 
L 271.861098 410.597455 
L 280.466847 410.597455 
L 289.072596 410.597455 
L 297.678345 410.597455 
L 306.284093 410.597455 
L 314.889842 410.597455 
L 323.495591 410.597455 
L 332.10134 410.597455 
L 340.707089 410.597455 
L 349.312838 410.597455 
L 357.918587 408.16635 
L 366.524335 406.664763 
L 375.130084 407.374443 
L 383.735833 407.599846 
L 392.341582 409.305723 
L 400.947331 410.597455 
L 409.55308 410.597455 
L 418.158828 410.597455 
L 426.764577 410.597455 
L 435.370326 410.597455 
L 443.976075 409.285386 
L 452.581824 409.285386 
L 461.187573 409.91929 
L 469.793322 409.91929 
L 478.39907 410.41835 
L 487.004819 410.597455 
L 495.610568 397.839743 
L 504.216317 386.195842 
L 512.822066 368.207198 
L 521.427815 355.693374 
L 530.033563 338.664458 
L 538.639312 326.399493 
L 547.245061 305.877454 
L 555.85081 275.682875 
L 564.456559 275.682875 
L 573.062308 275.682875 
L 581.668057 275.682875 
L 590.273805 275.682875 
L 598.879554 275.682875 
L 607.485303 275.682875 
L 616.091052 293.041142 
L 624.696801 293.041142 
L 633.30255 293.041142 
L 641.908299 293.041142 
L 650.514047 293.041142 
L 659.119796 293.041142 
L 667.725545 293.041142 
L 676.331294 293.041142 
L 684.937043 293.041142 
L 693.542792 275.682875 
" clip-path="url(#pd5e51ed7ea)" style="fill: none; stroke: #d62728; stroke-width: 1.8; stroke-linecap: square"/>
   </g>
   <g id="line2d_29">
    <path d="M 82.534623 410.597455 
L 91.140372 410.597455 
L 99.746121 410.597455 
L 108.35187 410.597455 
L 116.957619 410.597455 
L 125.563368 410.597455 
L 134.169116 410.597455 
L 142.774865 410.597455 
L 151.380614 448.073728 
L 159.986363 448.073728 
L 168.592112 485.55 
L 177.197861 485.55 
L 185.80361 455.194219 
L 194.409358 424.838439 
L 203.015107 411.649402 
L 211.620856 410.597455 
L 220.226605 410.597455 
L 228.832354 410.597455 
L 237.438103 410.597455 
L 246.043852 410.597455 
L 254.6496 410.597455 
L 263.255349 410.597455 
L 271.861098 410.597455 
L 280.466847 410.597455 
L 289.072596 410.597455 
L 297.678345 410.597455 
L 306.284093 410.597455 
L 314.889842 410.597455 
L 323.495591 410.597455 
L 332.10134 410.597455 
L 340.707089 410.597455 
L 349.312838 410.597455 
L 357.918587 448.073728 
L 366.524335 485.55 
L 375.130084 485.55 
L 383.735833 457.640449 
L 392.341582 444.108059 
L 400.947331 440.953236 
L 409.55308 410.597455 
L 418.158828 410.597455 
L 426.764577 410.597455 
L 435.370326 380.241675 
L 443.976075 357.715127 
L 452.581824 357.715127 
L 461.187573 357.715127 
L 469.793322 357.715127 
L 478.39907 395.191399 
L 487.004819 395.191399 
L 495.610568 395.191399 
L 504.216317 395.191399 
L 512.822066 395.191399 
L 521.427815 395.191399 
L 530.033563 395.191399 
L 538.639312 395.191399 
L 547.245061 395.191399 
L 555.85081 395.191399 
L 564.456559 432.667672 
L 573.062308 404.185704 
L 581.668057 404.185704 
L 590.273805 373.829924 
L 598.879554 343.474143 
L 607.485303 343.474143 
L 616.091052 313.118363 
L 624.696801 313.118363 
L 633.30255 313.118363 
L 641.908299 282.762582 
L 650.514047 282.762582 
L 659.119796 320.238854 
L 667.725545 357.715127 
L 676.331294 357.715127 
L 684.937043 357.715127 
L 693.542792 395.191399 
" clip-path="url(#pd5e51ed7ea)" style="fill: none; stroke: #9467bd; stroke-width: 1.8; stroke-linecap: square"/>
   </g>
   <g id="line2d_30">
    <path d="M 82.534623 410.597455 
L 91.140372 410.597455 
L 99.746121 410.597455 
L 108.35187 410.597455 
L 116.957619 410.597455 
L 125.563368 410.597455 
L 134.169116 410.597455 
L 142.774865 410.597455 
L 151.380614 410.597455 
L 159.986363 410.597455 
L 168.592112 410.597455 
L 177.197861 410.597455 
L 185.80361 410.597455 
L 194.409358 410.597455 
L 203.015107 410.597455 
L 211.620856 410.597455 
L 220.226605 410.597455 
L 228.832354 410.597455 
L 237.438103 410.597455 
L 246.043852 410.597455 
L 254.6496 410.597455 
L 263.255349 410.597455 
L 271.861098 410.597455 
L 280.466847 410.597455 
L 289.072596 410.597455 
L 297.678345 410.597455 
L 306.284093 410.597455 
L 314.889842 410.597455 
L 323.495591 410.597455 
L 332.10134 410.597455 
L 340.707089 410.597455 
L 349.312838 410.597455 
L 357.918587 410.597455 
L 366.524335 410.597455 
L 375.130084 410.597455 
L 383.735833 410.597455 
L 392.341582 410.597455 
L 400.947331 410.597455 
L 409.55308 410.597455 
L 418.158828 410.597455 
L 426.764577 410.597455 
L 435.370326 410.597455 
L 443.976075 410.597455 
L 452.581824 410.597455 
L 461.187573 410.597455 
L 469.793322 410.597455 
L 478.39907 410.597455 
L 487.004819 410.597455 
L 495.610568 410.597455 
L 504.216317 410.597455 
L 512.822066 410.597455 
L 521.427815 410.597455 
L 530.033563 410.597455 
L 538.639312 410.597455 
L 547.245061 410.597455 
L 555.85081 410.597455 
L 564.456559 410.597455 
L 573.062308 410.597455 
L 581.668057 410.597455 
L 590.273805 410.597455 
L 598.879554 410.597455 
L 607.485303 410.597455 
L 616.091052 410.597455 
L 624.696801 410.597455 
L 633.30255 410.597455 
L 641.908299 410.597455 
L 650.514047 410.597455 
L 659.119796 410.597455 
L 667.725545 410.597455 
L 676.331294 410.597455 
L 684.937043 410.597455 
L 693.542792 410.597455 
" clip-path="url(#pd5e51ed7ea)" style="fill: none; stroke: #8c564b; stroke-width: 1.8; stroke-linecap: square"/>
   </g>
   <g id="line2d_31">
    <path d="M 82.534623 410.597455 
L 91.140372 410.597455 
L 99.746121 410.597455 
L 108.35187 410.597455 
L 116.957619 410.597455 
L 125.563368 410.597455 
L 134.169116 410.597455 
L 142.774865 410.597455 
L 151.380614 410.597455 
L 159.986363 410.597455 
L 168.592112 410.597455 
L 177.197861 410.597455 
L 185.80361 410.597455 
L 194.409358 410.597455 
L 203.015107 410.597455 
L 211.620856 410.597455 
L 220.226605 410.597455 
L 228.832354 410.597455 
L 237.438103 410.597455 
L 246.043852 410.597455 
L 254.6496 410.597455 
L 263.255349 410.597455 
L 271.861098 410.597455 
L 280.466847 410.597455 
L 289.072596 410.597455 
L 297.678345 410.597455 
L 306.284093 410.597455 
L 314.889842 410.597455 
L 323.495591 410.597455 
L 332.10134 410.597455 
L 340.707089 410.597455 
L 349.312838 410.597455 
L 357.918587 410.597455 
L 366.524335 410.597455 
L 375.130084 410.597455 
L 383.735833 410.597455 
L 392.341582 410.597455 
L 400.947331 410.597455 
L 409.55308 410.597455 
L 418.158828 410.597455 
L 426.764577 410.597455 
L 435.370326 410.597455 
L 443.976075 410.597455 
L 452.581824 410.597455 
L 461.187573 410.597455 
L 469.793322 410.597455 
L 478.39907 410.597455 
L 487.004819 410.597455 
L 495.610568 410.597455 
L 504.216317 410.597455 
L 512.822066 410.597455 
L 521.427815 410.597455 
L 530.033563 410.597455 
L 538.639312 410.597455 
L 547.245061 410.597455 
L 555.85081 410.597455 
L 564.456559 410.597455 
L 573.062308 410.597455 
L 581.668057 410.597455 
L 590.273805 410.597455 
L 598.879554 410.597455 
L 607.485303 410.597455 
L 616.091052 410.597455 
L 624.696801 410.597455 
L 633.30255 410.597455 
L 641.908299 410.597455 
L 650.514047 410.597455 
L 659.119796 410.597455 
L 667.725545 410.597455 
L 676.331294 410.597455 
L 684.937043 410.597455 
L 693.542792 410.597455 
" clip-path="url(#pd5e51ed7ea)" style="fill: none; stroke: #e377c2; stroke-width: 1.8; stroke-linecap: square"/>
   </g>
   <g id="line2d_32">
    <path d="M 82.534623 410.597455 
L 91.140372 410.597455 
L 99.746121 410.597455 
L 108.35187 410.597455 
L 116.957619 410.597455 
L 125.563368 410.597455 
L 134.169116 410.597455 
L 142.774865 410.597455 
L 151.380614 410.597455 
L 159.986363 410.597455 
L 168.592112 410.597455 
L 177.197861 410.597455 
L 185.80361 410.597455 
L 194.409358 410.597455 
L 203.015107 410.597455 
L 211.620856 410.597455 
L 220.226605 410.597455 
L 228.832354 410.597455 
L 237.438103 410.597455 
L 246.043852 410.597455 
L 254.6496 410.597455 
L 263.255349 410.597455 
L 271.861098 410.597455 
L 280.466847 410.597455 
L 289.072596 410.597455 
L 297.678345 410.597455 
L 306.284093 410.597455 
L 314.889842 410.597455 
L 323.495591 410.597455 
L 332.10134 410.597455 
L 340.707089 410.597455 
L 349.312838 410.597455 
L 357.918587 410.597455 
L 366.524335 410.597455 
L 375.130084 410.597455 
L 383.735833 410.597455 
L 392.341582 410.597455 
L 400.947331 410.597455 
L 409.55308 410.597455 
L 418.158828 410.597455 
L 426.764577 410.597455 
L 435.370326 410.597455 
L 443.976075 410.597455 
L 452.581824 410.597455 
L 461.187573 410.597455 
L 469.793322 410.597455 
L 478.39907 410.597455 
L 487.004819 410.597455 
L 495.610568 410.597455 
L 504.216317 410.597455 
L 512.822066 410.597455 
L 521.427815 410.597455 
L 530.033563 410.597455 
L 538.639312 410.597455 
L 547.245061 410.597455 
L 555.85081 410.597455 
L 564.456559 410.597455 
L 573.062308 410.597455 
L 581.668057 410.597455 
L 590.273805 410.597455 
L 598.879554 410.597455 
L 607.485303 410.597455 
L 616.091052 410.597455 
L 624.696801 410.597455 
L 633.30255 410.597455 
L 641.908299 410.597455 
L 650.514047 410.597455 
L 659.119796 410.597455 
L 667.725545 410.597455 
L 676.331294 410.597455 
L 684.937043 410.597455 
L 693.542792 410.597455 
" clip-path="url(#pd5e51ed7ea)" style="fill: none; stroke: #7f7f7f; stroke-width: 1.8; stroke-linecap: square"/>
   </g>
   <g id="patch_3">
    <path d="M 51.984215 507.052 
L 51.984215 34.008 
" style="fill: none; stroke: #000000; stroke-width: 0.8; stroke-linejoin: miter; stroke-linecap: square"/>
   </g>
   <g id="patch_4">
    <path d="M 724.0932 507.052 
L 724.0932 34.008 
" style="fill: none; stroke: #000000; stroke-width: 0.8; stroke-linejoin: miter; stroke-linecap: square"/>
   </g>
   <g id="patch_5">
    <path d="M 51.984215 507.052 
L 724.0932 507.052 
" style="fill: none; stroke: #000000; stroke-width: 0.8; stroke-linejoin: miter; stroke-linecap: square"/>
   </g>
   <g id="patch_6">
    <path d="M 51.984215 34.008 
L 724.0932 34.008 
" style="fill: none; stroke: #000000; stroke-width: 0.8; stroke-linejoin: miter; stroke-linecap: square"/>
   </g>
   <g id="text_17">
    <!-- SoC by battery (T=72, F=8, L=8) -->
    <g transform="translate(288.266208 28.008) scale(0.12 -0.12)">
     <defs>
      <path id="DejaVuSans-62" d="M 3116 1747 
Q 3116 2381 2855 2742 
Q 2594 3103 2138 3103 
Q 1681 3103 1420 2742 
Q 1159 2381 1159 1747 
Q 1159 1113 1420 752 
Q 1681 391 2138 391 
Q 2594 391 2855 752 
Q 3116 1113 3116 1747 
z
M 1159 2969 
Q 1341 3281 1617 3432 
Q 1894 3584 2278 3584 
Q 2916 3584 3314 3078 
Q 3713 2572 3713 1747 
Q 3713 922 3314 415 
Q 2916 -91 2278 -91 
Q 1894 -91 1617 61 
Q 1341 213 1159 525 
L 1159 0 
L 581 0 
L 581 4863 
L 1159 4863 
L 1159 2969 
z
" transform="scale(0.015625)"/>
      <path id="DejaVuSans-79" d="M 2059 -325 
Q 1816 -950 1584 -1140 
Q 1353 -1331 966 -1331 
L 506 -1331 
L 506 -850 
L 844 -850 
Q 1081 -850 1212 -737 
Q 1344 -625 1503 -206 
L 1606 56 
L 191 3500 
L 800 3500 
L 1894 763 
L 2988 3500 
L 3597 3500 
L 2059 -325 
z
" transform="scale(0.015625)"/>
      <path id="DejaVuSans-61" d="M 2194 1759 
Q 1497 1759 1228 1600 
Q 959 1441 959 1056 
Q 959 750 1161 570 
Q 1363 391 1709 391 
Q 2188 391 2477 730 
Q 2766 1069 2766 1631 
L 2766 1759 
L 2194 1759 
z
M 3341 1997 
L 3341 0 
L 2766 0 
L 2766 531 
Q 2569 213 2275 61 
Q 1981 -91 1556 -91 
Q 1019 -91 701 211 
Q 384 513 384 1019 
Q 384 1609 779 1909 
Q 1175 2209 1959 2209 
L 2766 2209 
L 2766 2266 
Q 2766 2663 2505 2880 
Q 2244 3097 1772 3097 
Q 1472 3097 1187 3025 
Q 903 2953 641 2809 
L 641 3341 
Q 956 3463 1253 3523 
Q 1550 3584 1831 3584 
Q 2591 3584 2966 3190 
Q 3341 2797 3341 1997 
z
" transform="scale(0.015625)"/>
      <path id="DejaVuSans-72" d="M 2631 2963 
Q 2534 3019 2420 3045 
Q 2306 3072 2169 3072 
Q 1681 3072 1420 2755 
Q 1159 2438 1159 1844 
L 1159 0 
L 581 0 
L 581 3500 
L 1159 3500 
L 1159 2956 
Q 1341 3275 1631 3429 
Q 1922 3584 2338 3584 
Q 2397 3584 2469 3576 
Q 2541 3569 2628 3553 
L 2631 2963 
z
" transform="scale(0.015625)"/>
      <path id="DejaVuSans-3d" d="M 678 2906 
L 4684 2906 
L 4684 2381 
L 678 2381 
L 678 2906 
z
M 678 1631 
L 4684 1631 
L 4684 1100 
L 678 1100 
L 678 1631 
z
" transform="scale(0.015625)"/>
      <path id="DejaVuSans-2c" d="M 750 794 
L 1409 794 
L 1409 256 
L 897 -744 
L 494 -744 
L 750 256 
L 750 794 
z
" transform="scale(0.015625)"/>
      <path id="DejaVuSans-46" d="M 628 4666 
L 3309 4666 
L 3309 4134 
L 1259 4134 
L 1259 2759 
L 3109 2759 
L 3109 2228 
L 1259 2228 
L 1259 0 
L 628 0 
L 628 4666 
z
" transform="scale(0.015625)"/>
      <path id="DejaVuSans-38" d="M 2034 2216 
Q 1584 2216 1326 1975 
Q 1069 1734 1069 1313 
Q 1069 891 1326 650 
Q 1584 409 2034 409 
Q 2484 409 2743 651 
Q 3003 894 3003 1313 
Q 3003 1734 2745 1975 
Q 2488 2216 2034 2216 
z
M 1403 2484 
Q 997 2584 770 2862 
Q 544 3141 544 3541 
Q 544 4100 942 4425 
Q 1341 4750 2034 4750 
Q 2731 4750 3128 4425 
Q 3525 4100 3525 3541 
Q 3525 3141 3298 2862 
Q 3072 2584 2669 2484 
Q 3125 2378 3379 2068 
Q 3634 1759 3634 1313 
Q 3634 634 3220 271 
Q 2806 -91 2034 -91 
Q 1263 -91 848 271 
Q 434 634 434 1313 
Q 434 1759 690 2068 
Q 947 2378 1403 2484 
z
M 1172 3481 
Q 1172 3119 1398 2916 
Q 1625 2713 2034 2713 
Q 2441 2713 2670 2916 
Q 2900 3119 2900 3481 
Q 2900 3844 2670 4047 
Q 2441 4250 2034 4250 
Q 1625 4250 1398 4047 
Q 1172 3844 1172 3481 
z
" transform="scale(0.015625)"/>
      <path id="DejaVuSans-4c" d="M 628 4666 
L 1259 4666 
L 1259 531 
L 3531 531 
L 3531 0 
L 628 0 
L 628 4666 
z
" transform="scale(0.015625)"/>
     </defs>
     <use xlink:href="#DejaVuSans-53"/>
     <use xlink:href="#DejaVuSans-6f" transform="translate(63.476562 0)"/>
     <use xlink:href="#DejaVuSans-43" transform="translate(124.658203 0)"/>
     <use xlink:href="#DejaVuSans-20" transform="translate(194.482422 0)"/>
     <use xlink:href="#DejaVuSans-62" transform="translate(226.269531 0)"/>
     <use xlink:href="#DejaVuSans-79" transform="translate(289.746094 0)"/>
     <use xlink:href="#DejaVuSans-20" transform="translate(348.925781 0)"/>
     <use xlink:href="#DejaVuSans-62" transform="translate(380.712891 0)"/>
     <use xlink:href="#DejaVuSans-61" transform="translate(444.189453 0)"/>
     <use xlink:href="#DejaVuSans-74" transform="translate(505.46875 0)"/>
     <use xlink:href="#DejaVuSans-74" transform="translate(544.677734 0)"/>
     <use xlink:href="#DejaVuSans-65" transform="translate(583.886719 0)"/>
     <use xlink:href="#DejaVuSans-72" transform="translate(645.410156 0)"/>
     <use xlink:href="#DejaVuSans-79" transform="translate(686.523438 0)"/>
     <use xlink:href="#DejaVuSans-20" transform="translate(745.703125 0)"/>
     <use xlink:href="#DejaVuSans-28" transform="translate(777.490234 0)"/>
     <use xlink:href="#DejaVuSans-54" transform="translate(816.503906 0)"/>
     <use xlink:href="#DejaVuSans-3d" transform="translate(877.587891 0)"/>
     <use xlink:href="#DejaVuSans-37" transform="translate(961.376953 0)"/>
     <use xlink:href="#DejaVuSans-32" transform="translate(1025 0)"/>
     <use xlink:href="#DejaVuSans-2c" transform="translate(1088.623047 0)"/>
     <use xlink:href="#DejaVuSans-20" transform="translate(1120.410156 0)"/>
     <use xlink:href="#DejaVuSans-46" transform="translate(1152.197266 0)"/>
     <use xlink:href="#DejaVuSans-3d" transform="translate(1209.716797 0)"/>
     <use xlink:href="#DejaVuSans-38" transform="translate(1293.505859 0)"/>
     <use xlink:href="#DejaVuSans-2c" transform="translate(1357.128906 0)"/>
     <use xlink:href="#DejaVuSans-20" transform="translate(1388.916016 0)"/>
     <use xlink:href="#DejaVuSans-4c" transform="translate(1420.703125 0)"/>
     <use xlink:href="#DejaVuSans-3d" transform="translate(1476.416016 0)"/>
     <use xlink:href="#DejaVuSans-38" transform="translate(1560.205078 0)"/>
     <use xlink:href="#DejaVuSans-29" transform="translate(1623.828125 0)"/>
    </g>
   </g>
  </g>
 </g>
 <defs>
  <clipPath id="pd5e51ed7ea">
   <rect x="51.984215" y="34.008" width="672.108985" height="473.044"/>
  </clipPath>
 </defs>
</svg>
