<?xml version="1.0" encoding="utf-8" standalone="no"?>
<!DOCTYPE svg PUBLIC "-//W3C//DTD SVG 1.1//EN"
  "http://www.w3.org/Graphics/SVG/1.1/DTD/svg11.dtd">
<svg xmlns:xlink="http://www.w3.org/1999/xlink" width="252pt" height="108pt" viewBox="0 0 252 108" xmlns="http://www.w3.org/2000/svg" version="1.1">
 <metadata>
  <rdf:RDF xmlns:dc="http://purl.org/dc/elements/1.1/" xmlns:cc="http://creativecommons.org/ns#" xmlns:rdf="http://www.w3.org/1999/02/22-rdf-syntax-ns#">
   <cc:Work>
    <dc:type rdf:resource="http://purl.org/dc/dcmitype/StillImage"/>
    <dc:date>2026-02-05T17:21:51.702676</dc:date>
    <dc:format>image/svg+xml</dc:format>
    <dc:creator>
     <cc:Agent>
      <dc:title>Matplotlib v3.7.2, https://matplotlib.org/</dc:title>
     </cc:Agent>
    </dc:creator>
   </cc:Work>
  </rdf:RDF>
 </metadata>
 <defs>
  <style type="text/css">*{stroke-linejoin: round; stroke-linecap: butt}</style>
 </defs>
 <g id="figure_1">
  <g id="patch_1">
   <path d="M 0 108 
L 252 108 
L 252 0 
L 0 0 
z
" style="fill: #ffffff"/>
  </g>
  <g id="axes_1">
   <g id="patch_2">
    <path d="M 51.05 66.04 
L 241.2 66.04 
L 241.2 25.44 
L 51.05 25.44 
z
" style="fill: #ffffff"/>
   </g>
   <g id="matplotlib.axis_1">
    <g id="xtick_1">
     <g id="line2d_1">
      <defs>
       <path id="mf5870d3c4d" d="M 0 0 
L 0 3.5 
" style="stroke: #000000; stroke-width: 0.8"/>
      </defs>
      <g>
       <use xlink:href="#mf5870d3c4d" x="57.258483" y="66.04" style="stroke: #000000; stroke-width: 0.8"/>
      </g>
     </g>
     <g id="text_1">
      <!-- 0 -->
      <g transform="translate(54.077233 80.638438) scale(0.1 -0.1)">
       <defs>
        <path id="DejaVuSans-30" d="M 2034 4250 
Q 1547 4250 1301 3770 
Q 1056 3291 1056 2328 
Q 1056 1369 1301 889 
Q 1547 409 2034 409 
Q 2525 409 2770 889 
Q 3016 1369 3016 2328 
Q 3016 3291 2770 3770 
Q 2525 4250 2034 4250 
z
M 2034 4750 
Q 2819 4750 3233 4129 
Q 3647 3509 3647 2328 
Q 3647 1150 3233 529 
Q 2819 -91 2034 -91 
Q 1250 -91 836 529 
Q 422 1150 422 2328 
Q 422 3509 836 4129 
Q 1250 4750 2034 4750 
z
" transform="scale(0.015625)"/>
       </defs>
       <use xlink:href="#DejaVuSans-30"/>
      </g>
     </g>
    </g>
    <g id="xtick_2">
     <g id="line2d_2">
      <g>
       <use xlink:href="#mf5870d3c4d" x="105.952465" y="66.04" style="stroke: #000000; stroke-width: 0.8"/>
      </g>
     </g>
     <g id="text_2">
      <!-- 20 -->
      <g transform="translate(99.589965 80.638438) scale(0.1 -0.1)">
       <defs>
        <path id="DejaVuSans-32" d="M 1228 531 
L 3431 531 
L 3431 0 
L 469 0 
L 469 531 
Q 828 903 1448 1529 
Q 2069 2156 2228 2338 
Q 2531 2678 2651 2914 
Q 2772 3150 2772 3378 
Q 2772 3750 2511 3984 
Q 2250 4219 1831 4219 
Q 1534 4219 1204 4116 
Q 875 4013 500 3803 
L 500 4441 
Q 881 4594 1212 4672 
Q 1544 4750 1819 4750 
Q 2544 4750 2975 4387 
Q 3406 4025 3406 3419 
Q 3406 3131 3298 2873 
Q 3191 2616 2906 2266 
Q 2828 2175 2409 1742 
Q 1991 1309 1228 531 
z
" transform="scale(0.015625)"/>
       </defs>
       <use xlink:href="#DejaVuSans-32"/>
       <use xlink:href="#DejaVuSans-30" x="63.623047"/>
      </g>
     </g>
    </g>
    <g id="xtick_3">
     <g id="line2d_3">
      <g>
       <use xlink:href="#mf5870d3c4d" x="154.646447" y="66.04" style="stroke: #000000; stroke-width: 0.8"/>
      </g>
     </g>
     <g id="text_3">
      <!-- 40 -->
      <g transform="translate(148.283947 80.638438) scale(0.1 -0.1)">
       <defs>
        <path id="DejaVuSans-34" d="M 2419 4116 
L 825 1625 
L 2419 1625 
L 2419 4116 
z
M 2253 4666 
L 3047 4666 
L 3047 1625 
L 3713 1625 
L 3713 1100 
L 3047 1100 
L 3047 0 
L 2419 0 
L 2419 1100 
L 313 1100 
L 313 1709 
L 2253 4666 
z
" transform="scale(0.015625)"/>
       </defs>
       <use xlink:href="#DejaVuSans-34"/>
       <use xlink:href="#DejaVuSans-30" x="63.623047"/>
      </g>
     </g>
    </g>
    <g id="xtick_4">
     <g id="line2d_4">
      <g>
       <use xlink:href="#mf5870d3c4d" x="203.340429" y="66.04" style="stroke: #000000; stroke-width: 0.8"/>
      </g>
     </g>
     <g id="text_4">
      <!-- 60 -->
      <g transform="translate(196.977929 80.638438) scale(0.1 -0.1)">
       <defs>
        <path id="DejaVuSans-36" d="M 2113 2584 
Q 1688 2584 1439 2293 
Q 1191 2003 1191 1497 
Q 1191 994 1439 701 
Q 1688 409 2113 409 
Q 2538 409 2786 701 
Q 3034 994 3034 1497 
Q 3034 2003 2786 2293 
Q 2538 2584 2113 2584 
z
M 3366 4563 
L 3366 3988 
Q 3128 4100 2886 4159 
Q 2644 4219 2406 4219 
Q 1781 4219 1451 3797 
Q 1122 3375 1075 2522 
Q 1259 2794 1537 2939 
Q 1816 3084 2150 3084 
Q 2853 3084 3261 2657 
Q 3669 2231 3669 1497 
Q 3669 778 3244 343 
Q 2819 -91 2113 -91 
Q 1303 -91 875 529 
Q 447 1150 447 2328 
Q 447 3434 972 4092 
Q 1497 4750 2381 4750 
Q 2619 4750 2861 4703 
Q 3103 4656 3366 4563 
z
" transform="scale(0.015625)"/>
       </defs>
       <use xlink:href="#DejaVuSans-36"/>
       <use xlink:href="#DejaVuSans-30" x="63.623047"/>
      </g>
     </g>
    </g>
    <g id="text_5">
     <!-- Time (t) -->
     <g transform="translate(126.440625 94.316563) scale(0.1 -0.1)">
      <defs>
       <path id="DejaVuSans-54" d="M -19 4666 
L 3928 4666 
L 3928 4134 
L 2272 4134 
L 2272 0 
L 1638 0 
L 1638 4134 
L -19 4134 
L -19 4666 
z
" transform="scale(0.015625)"/>
       <path id="DejaVuSans-69" d="M 603 3500 
L 1178 3500 
L 1178 0 
L 603 0 
L 603 3500 
z
M 603 4863 
L 1178 4863 
L 1178 4134 
L 603 4134 
L 603 4863 
z
" transform="scale(0.015625)"/>
       <path id="DejaVuSans-6d" d="M 3328 2828 
Q 3544 3216 3844 3400 
Q 4144 3584 4550 3584 
Q 5097 3584 5394 3201 
Q 5691 2819 5691 2113 
L 5691 0 
L 5113 0 
L 5113 2094 
Q 5113 2597 4934 2840 
Q 4756 3084 4391 3084 
Q 3944 3084 3684 2787 
Q 3425 2491 3425 1978 
L 3425 0 
L 2847 0 
L 2847 2094 
Q 2847 2600 2669 2842 
Q 2491 3084 2119 3084 
Q 1678 3084 1418 2786 
Q 1159 2488 1159 1978 
L 1159 0 
L 581 0 
L 581 3500 
L 1159 3500 
L 1159 2956 
Q 1356 3278 1631 3431 
Q 1906 3584 2284 3584 
Q 2666 3584 2933 3390 
Q 3200 3197 3328 2828 
z
" transform="scale(0.015625)"/>
       <path id="DejaVuSans-65" d="M 3597 1894 
L 3597 1613 
L 953 1613 
Q 991 1019 1311 708 
Q 1631 397 2203 397 
Q 2534 397 2845 478 
Q 3156 559 3463 722 
L 3463 178 
Q 3153 47 2828 -22 
Q 2503 -91 2169 -91 
Q 1331 -91 842 396 
Q 353 884 353 1716 
Q 353 2575 817 3079 
Q 1281 3584 2069 3584 
Q 2775 3584 3186 3129 
Q 3597 2675 3597 1894 
z
M 3022 2063 
Q 3016 2534 2758 2815 
Q 2500 3097 2075 3097 
Q 1594 3097 1305 2825 
Q 1016 2553 972 2059 
L 3022 2063 
z
" transform="scale(0.015625)"/>
       <path id="DejaVuSans-20" transform="scale(0.015625)"/>
       <path id="DejaVuSans-28" d="M 1984 4856 
Q 1566 4138 1362 3434 
Q 1159 2731 1159 2009 
Q 1159 1288 1364 580 
Q 1569 -128 1984 -844 
L 1484 -844 
Q 1016 -109 783 600 
Q 550 1309 550 2009 
Q 550 2706 781 3412 
Q 1013 4119 1484 4856 
L 1984 4856 
z
" transform="scale(0.015625)"/>
       <path id="DejaVuSans-74" d="M 1172 4494 
L 1172 3500 
L 2356 3500 
L 2356 3053 
L 1172 3053 
L 1172 1153 
Q 1172 725 1289 603 
Q 1406 481 1766 481 
L 2356 481 
L 2356 0 
L 1766 0 
Q 1100 0 847 248 
Q 594 497 594 1153 
L 594 3053 
L 172 3053 
L 172 3500 
L 594 3500 
L 594 4494 
L 1172 4494 
z
" transform="scale(0.015625)"/>
       <path id="DejaVuSans-29" d="M 513 4856 
L 1013 4856 
Q 1481 4119 1714 3412 
Q 1947 2706 1947 2009 
Q 1947 1309 1714 600 
Q 1481 -109 1013 -844 
L 513 -844 
Q 928 -128 1133 580 
Q 1338 1288 1338 2009 
Q 1338 2731 1133 3434 
Q 928 4138 513 4856 
z
" transform="scale(0.015625)"/>
      </defs>
      <use xlink:href="#DejaVuSans-54"/>
      <use xlink:href="#DejaVuSans-69" x="57.958984"/>
      <use xlink:href="#DejaVuSans-6d" x="85.742188"/>
      <use xlink:href="#DejaVuSans-65" x="183.154297"/>
      <use xlink:href="#DejaVuSans-20" x="244.677734"/>
      <use xlink:href="#DejaVuSans-28" x="276.464844"/>
      <use xlink:href="#DejaVuSans-74" x="315.478516"/>
      <use xlink:href="#DejaVuSans-29" x="354.6875"/>
     </g>
    </g>
   </g>
   <g id="matplotlib.axis_2">
    <g id="ytick_1">
     <g id="line2d_5">
      <defs>
       <path id="mae5be3804b" d="M 0 0 
L -3.5 0 
" style="stroke: #000000; stroke-width: 0.8"/>
      </defs>
      <g>
       <use xlink:href="#mae5be3804b" x="51.05" y="64.194545" style="stroke: #000000; stroke-width: 0.8"/>
      </g>
     </g>
     <g id="text_6">
      <!-- 0 -->
      <g transform="translate(37.6875 67.993764) scale(0.1 -0.1)">
       <use xlink:href="#DejaVuSans-30"/>
      </g>
     </g>
    </g>
    <g id="ytick_2">
     <g id="line2d_6">
      <g>
       <use xlink:href="#mae5be3804b" x="51.05" y="40.31791" style="stroke: #000000; stroke-width: 0.8"/>
      </g>
     </g>
     <g id="text_7">
      <!-- 200 -->
      <g transform="translate(24.9625 44.117128) scale(0.1 -0.1)">
       <use xlink:href="#DejaVuSans-32"/>
       <use xlink:href="#DejaVuSans-30" x="63.623047"/>
       <use xlink:href="#DejaVuSans-30" x="127.246094"/>
      </g>
     </g>
    </g>
    <g id="text_8">
     <!-- SoC -->
     <g transform="translate(18.882812 55.465) rotate(-90) scale(0.1 -0.1)">
      <defs>
       <path id="DejaVuSans-53" d="M 3425 4513 
L 3425 3897 
Q 3066 4069 2747 4153 
Q 2428 4238 2131 4238 
Q 1616 4238 1336 4038 
Q 1056 3838 1056 3469 
Q 1056 3159 1242 3001 
Q 1428 2844 1947 2747 
L 2328 2669 
Q 3034 2534 3370 2195 
Q 3706 1856 3706 1288 
Q 3706 609 3251 259 
Q 2797 -91 1919 -91 
Q 1588 -91 1214 -16 
Q 841 59 441 206 
L 441 856 
Q 825 641 1194 531 
Q 1563 422 1919 422 
Q 2459 422 2753 634 
Q 3047 847 3047 1241 
Q 3047 1584 2836 1778 
Q 2625 1972 2144 2069 
L 1759 2144 
Q 1053 2284 737 2584 
Q 422 2884 422 3419 
Q 422 4038 858 4394 
Q 1294 4750 2059 4750 
Q 2388 4750 2728 4690 
Q 3069 4631 3425 4513 
z
" transform="scale(0.015625)"/>
       <path id="DejaVuSans-6f" d="M 1959 3097 
Q 1497 3097 1228 2736 
Q 959 2375 959 1747 
Q 959 1119 1226 758 
Q 1494 397 1959 397 
Q 2419 397 2687 759 
Q 2956 1122 2956 1747 
Q 2956 2369 2687 2733 
Q 2419 3097 1959 3097 
z
M 1959 3584 
Q 2709 3584 3137 3096 
Q 3566 2609 3566 1747 
Q 3566 888 3137 398 
Q 2709 -91 1959 -91 
Q 1206 -91 779 398 
Q 353 888 353 1747 
Q 353 2609 779 3096 
Q 1206 3584 1959 3584 
z
" transform="scale(0.015625)"/>
       <path id="DejaVuSans-43" d="M 4122 4306 
L 4122 3641 
Q 3803 3938 3442 4084 
Q 3081 4231 2675 4231 
Q 1875 4231 1450 3742 
Q 1025 3253 1025 2328 
Q 1025 1406 1450 917 
Q 1875 428 2675 428 
Q 3081 428 3442 575 
Q 3803 722 4122 1019 
L 4122 359 
Q 3791 134 3420 21 
Q 3050 -91 2638 -91 
Q 1578 -91 968 557 
Q 359 1206 359 2328 
Q 359 3453 968 4101 
Q 1578 4750 2638 4750 
Q 3056 4750 3426 4639 
Q 3797 4528 4122 4306 
z
" transform="scale(0.015625)"/>
      </defs>
      <use xlink:href="#DejaVuSans-53"/>
      <use xlink:href="#DejaVuSans-6f" x="63.476562"/>
      <use xlink:href="#DejaVuSans-43" x="124.658203"/>
     </g>
    </g>
   </g>
   <g id="line2d_7">
    <path d="M 59.693182 46.329105 
L 62.127881 46.329105 
L 64.56258 46.329105 
L 66.997279 46.329105 
L 69.431978 46.329105 
L 71.866677 46.329105 
L 74.301376 46.329105 
L 76.736076 46.329105 
L 79.170775 46.329105 
L 81.605474 46.329105 
L 84.040173 46.329105 
L 86.474872 46.329105 
L 88.909571 46.329105 
L 91.34427 46.329105 
L 93.778969 46.329105 
L 96.213668 46.329105 
L 98.648367 46.329105 
L 101.083067 46.329105 
L 103.517766 46.329105 
L 105.952465 46.329105 
L 108.387164 46.329105 
L 110.821863 46.329105 
L 113.256562 46.329105 
L 115.691261 46.329105 
L 118.12596 46.329105 
L 120.560659 46.329105 
L 122.995359 46.329105 
L 125.430058 46.329105 
L 127.864757 46.329105 
L 130.299456 46.329105 
L 132.734155 46.329105 
L 135.168854 46.329105 
L 137.603553 46.329105 
L 140.038252 46.329105 
L 142.472951 46.329105 
L 144.90765 46.329105 
L 147.34235 46.329105 
L 149.777049 46.329105 
L 152.211748 46.329105 
L 154.646447 46.329105 
L 157.081146 46.329105 
L 159.515845 46.329105 
L 161.950544 46.329105 
L 164.385243 46.329105 
L 166.819942 46.329105 
L 169.254641 46.329105 
L 171.689341 46.329105 
L 174.12404 46.329105 
L 176.558739 46.329105 
L 178.993438 46.329105 
L 181.428137 46.329105 
L 183.862836 46.329105 
L 186.297535 46.329105 
L 188.732234 46.329105 
L 191.166933 46.329105 
L 193.601633 46.329105 
L 196.036332 46.329105 
L 198.471031 46.329105 
L 200.90573 46.329105 
L 203.340429 46.329105 
L 205.775128 46.329105 
L 208.209827 46.329105 
L 210.644526 46.329105 
L 213.079225 46.329105 
L 215.513924 46.329105 
L 217.948624 46.329105 
L 220.383323 46.329105 
L 222.818022 46.329105 
L 225.252721 46.329105 
L 227.68742 46.329105 
L 230.122119 46.329105 
L 232.556818 46.329105 
" clip-path="url(#p93a58a928f)" style="fill: none; stroke: #1f77b4; stroke-width: 1.8; stroke-linecap: square"/>
   </g>
   <g id="line2d_8">
    <path d="M 59.693182 46.329105 
L 62.127881 46.329105 
L 64.56258 46.329105 
L 66.997279 46.329105 
L 69.431978 46.329105 
L 71.866677 46.329105 
L 74.301376 46.329105 
L 76.736076 46.329105 
L 79.170775 46.329105 
L 81.605474 46.329105 
L 84.040173 46.329105 
L 86.474872 46.329105 
L 88.909571 46.329105 
L 91.34427 46.329105 
L 93.778969 46.329105 
L 96.213668 46.329105 
L 98.648367 46.329105 
L 101.083067 46.329105 
L 103.517766 46.329105 
L 105.952465 46.329105 
L 108.387164 46.329105 
L 110.821863 46.329105 
L 113.256562 46.329105 
L 115.691261 46.329105 
L 118.12596 46.329105 
L 120.560659 46.329105 
L 122.995359 46.329105 
L 125.430058 46.329105 
L 127.864757 46.329105 
L 130.299456 46.329105 
L 132.734155 46.329105 
L 135.168854 46.329105 
L 137.603553 46.329105 
L 140.038252 46.329105 
L 142.472951 46.329105 
L 144.90765 46.329105 
L 147.34235 46.329105 
L 149.777049 46.329105 
L 152.211748 46.329105 
L 154.646447 46.329105 
L 157.081146 46.329105 
L 159.515845 46.329105 
L 161.950544 46.329105 
L 164.385243 46.329105 
L 166.819942 46.329105 
L 169.254641 46.329105 
L 171.689341 46.329105 
L 174.12404 46.329105 
L 176.558739 46.329105 
L 178.993438 46.329105 
L 181.428137 46.329105 
L 183.862836 46.329105 
L 186.297535 46.329105 
L 188.732234 46.329105 
L 191.166933 46.329105 
L 193.601633 46.329105 
L 196.036332 46.329105 
L 198.471031 46.329105 
L 200.90573 46.329105 
L 203.340429 46.329105 
L 205.775128 46.329105 
L 208.209827 46.329105 
L 210.644526 46.329105 
L 213.079225 46.329105 
L 215.513924 46.329105 
L 217.948624 46.329105 
L 220.383323 46.329105 
L 222.818022 46.329105 
L 225.252721 46.329105 
L 227.68742 46.329105 
L 230.122119 46.329105 
L 232.556818 46.329105 
" clip-path="url(#p93a58a928f)" style="fill: none; stroke: #ff7f0e; stroke-width: 1.8; stroke-linecap: square"/>
   </g>
   <g id="line2d_9">
    <path d="M 59.693182 46.329105 
L 62.127881 46.329105 
L 64.56258 46.329105 
L 66.997279 46.329105 
L 69.431978 46.329105 
L 71.866677 46.329105 
L 74.301376 46.329105 
L 76.736076 46.329105 
L 79.170775 46.329105 
L 81.605474 46.329105 
L 84.040173 46.329105 
L 86.474872 46.329105 
L 88.909571 46.329105 
L 91.34427 46.329105 
L 93.778969 46.329105 
L 96.213668 46.329105 
L 98.648367 46.329105 
L 101.083067 46.329105 
L 103.517766 46.329105 
L 105.952465 46.329105 
L 108.387164 46.329105 
L 110.821863 46.329105 
L 113.256562 46.329105 
L 115.691261 46.329105 
L 118.12596 46.329105 
L 120.560659 46.329105 
L 122.995359 46.329105 
L 125.430058 46.329105 
L 127.864757 46.329105 
L 130.299456 46.329105 
L 132.734155 46.329105 
L 135.168854 46.329105 
L 137.603553 46.329105 
L 140.038252 46.329105 
L 142.472951 46.329105 
L 144.90765 46.329105 
L 147.34235 46.329105 
L 149.777049 46.329105 
L 152.211748 46.329105 
L 154.646447 46.329105 
L 157.081146 46.329105 
L 159.515845 46.329105 
L 161.950544 46.329105 
L 164.385243 46.329105 
L 166.819942 46.329105 
L 169.254641 46.329105 
L 171.689341 46.329105 
L 174.12404 46.329105 
L 176.558739 46.329105 
L 178.993438 46.329105 
L 181.428137 46.329105 
L 183.862836 46.329105 
L 186.297535 46.329105 
L 188.732234 46.329105 
L 191.166933 46.329105 
L 193.601633 46.329105 
L 196.036332 46.329105 
L 198.471031 46.329105 
L 200.90573 46.329105 
L 203.340429 46.329105 
L 205.775128 46.329105 
L 208.209827 46.329105 
L 210.644526 46.329105 
L 213.079225 46.329105 
L 215.513924 46.329105 
L 217.948624 46.329105 
L 220.383323 46.329105 
L 222.818022 46.329105 
L 225.252721 46.329105 
L 227.68742 46.329105 
L 230.122119 46.329105 
L 232.556818 46.329105 
" clip-path="url(#p93a58a928f)" style="fill: none; stroke: #2ca02c; stroke-width: 1.8; stroke-linecap: square"/>
   </g>
   <g id="line2d_10">
    <path d="M 59.693182 46.329105 
L 62.127881 46.329105 
L 64.56258 46.329105 
L 66.997279 46.329105 
L 69.431978 46.329105 
L 71.866677 46.329105 
L 74.301376 46.329105 
L 76.736076 46.329105 
L 79.170775 46.329105 
L 81.605474 46.329105 
L 84.040173 46.329105 
L 86.474872 46.329105 
L 88.909571 46.329105 
L 91.34427 46.329105 
L 93.778969 46.329105 
L 96.213668 46.329105 
L 98.648367 46.329105 
L 101.083067 46.329105 
L 103.517766 46.329105 
L 105.952465 46.329105 
L 108.387164 46.329105 
L 110.821863 46.329105 
L 113.256562 46.329105 
L 115.691261 46.329105 
L 118.12596 46.329105 
L 120.560659 46.329105 
L 122.995359 46.329105 
L 125.430058 46.329105 
L 127.864757 46.329105 
L 130.299456 46.329105 
L 132.734155 46.329105 
L 135.168854 46.329105 
L 137.603553 46.329105 
L 140.038252 46.329105 
L 142.472951 46.329105 
L 144.90765 46.329105 
L 147.34235 46.329105 
L 149.777049 46.329105 
L 152.211748 46.329105 
L 154.646447 46.329105 
L 157.081146 46.329105 
L 159.515845 46.329105 
L 161.950544 46.329105 
L 164.385243 46.329105 
L 166.819942 46.329105 
L 169.254641 46.329105 
L 171.689341 46.329105 
L 174.12404 46.329105 
L 176.558739 46.329105 
L 178.993438 46.329105 
L 181.428137 46.329105 
L 183.862836 46.329105 
L 186.297535 46.329105 
L 188.732234 46.329105 
L 191.166933 46.329105 
L 193.601633 46.329105 
L 196.036332 46.329105 
L 198.471031 46.329105 
L 200.90573 46.329105 
L 203.340429 46.329105 
L 205.775128 46.329105 
L 208.209827 46.329105 
L 210.644526 46.329105 
L 213.079225 46.329105 
L 215.513924 46.329105 
L 217.948624 46.329105 
L 220.383323 46.329105 
L 222.818022 46.329105 
L 225.252721 46.329105 
L 227.68742 46.329105 
L 230.122119 46.329105 
L 232.556818 46.329105 
" clip-path="url(#p93a58a928f)" style="fill: none; stroke: #d62728; stroke-width: 1.8; stroke-linecap: square"/>
   </g>
   <g id="line2d_11">
    <path d="M 59.693182 46.329105 
L 62.127881 46.575104 
L 64.56258 46.575104 
L 66.997279 47.117817 
L 69.431978 47.776559 
L 71.866677 47.776559 
L 74.301376 47.776559 
L 76.736076 47.776559 
L 79.170775 47.776559 
L 81.605474 47.776559 
L 84.040173 43.197967 
L 86.474872 41.116836 
L 88.909571 41.116836 
L 91.34427 35.861855 
L 93.778969 30.691934 
L 96.213668 29.89824 
L 98.648367 29.89824 
L 101.083067 28.463664 
L 103.517766 28.463664 
L 105.952465 28.463664 
L 108.387164 28.463664 
L 110.821863 28.463664 
L 113.256562 35.080494 
L 115.691261 35.080494 
L 118.12596 35.842112 
L 120.560659 35.842112 
L 122.995359 39.683448 
L 125.430058 42.482951 
L 127.864757 47.756013 
L 130.299456 47.756013 
L 132.734155 47.756013 
L 135.168854 48.040747 
L 137.603553 50.291655 
L 140.038252 50.291655 
L 142.472951 50.291655 
L 144.90765 46.594338 
L 147.34235 46.594338 
L 149.777049 41.920783 
L 152.211748 37.32468 
L 154.646447 33.242785 
L 157.081146 32.03698 
L 159.515845 28.658164 
L 161.950544 28.658164 
L 164.385243 28.658164 
L 166.819942 28.658164 
L 169.254641 28.658164 
L 171.689341 35.274994 
L 174.12404 41.668976 
L 176.558739 42.768358 
L 178.993438 45.145508 
L 181.428137 45.145508 
L 183.862836 49.690617 
L 186.297535 56.307447 
L 188.732234 62.924277 
L 191.166933 62.924277 
L 193.601633 62.933254 
L 196.036332 62.933254 
L 198.471031 64.194545 
L 200.90573 63.512983 
L 203.340429 63.512983 
L 205.775128 59.353408 
L 208.209827 59.353408 
L 210.644526 54.483999 
L 213.079225 49.947148 
L 215.513924 46.329105 
L 217.948624 46.329105 
L 220.383323 46.329105 
L 222.818022 46.329105 
L 225.252721 46.329105 
L 227.68742 46.329105 
L 230.122119 46.329105 
L 232.556818 46.329105 
" clip-path="url(#p93a58a928f)" style="fill: none; stroke: #9467bd; stroke-width: 1.8; stroke-linecap: square"/>
   </g>
   <g id="line2d_12">
    <path d="M 59.693182 46.329105 
L 62.127881 46.329105 
L 64.56258 46.329105 
L 66.997279 46.329105 
L 69.431978 46.329105 
L 71.866677 46.329105 
L 74.301376 46.329105 
L 76.736076 46.329105 
L 79.170775 46.329105 
L 81.605474 46.329105 
L 84.040173 46.329105 
L 86.474872 46.329105 
L 88.909571 46.329105 
L 91.34427 46.329105 
L 93.778969 46.329105 
L 96.213668 46.329105 
L 98.648367 46.329105 
L 101.083067 46.329105 
L 103.517766 46.329105 
L 105.952465 46.329105 
L 108.387164 46.329105 
L 110.821863 46.329105 
L 113.256562 46.329105 
L 115.691261 46.329105 
L 118.12596 46.329105 
L 120.560659 46.329105 
L 122.995359 46.329105 
L 125.430058 46.329105 
L 127.864757 46.329105 
L 130.299456 46.329105 
L 132.734155 46.329105 
L 135.168854 46.329105 
L 137.603553 46.329105 
L 140.038252 46.329105 
L 142.472951 46.329105 
L 144.90765 46.329105 
L 147.34235 46.329105 
L 149.777049 46.329105 
L 152.211748 46.329105 
L 154.646447 46.329105 
L 157.081146 46.329105 
L 159.515845 46.329105 
L 161.950544 46.329105 
L 164.385243 46.329105 
L 166.819942 46.329105 
L 169.254641 46.329105 
L 171.689341 46.329105 
L 174.12404 46.329105 
L 176.558739 46.329105 
L 178.993438 46.329105 
L 181.428137 46.329105 
L 183.862836 46.329105 
L 186.297535 46.329105 
L 188.732234 46.329105 
L 191.166933 46.329105 
L 193.601633 46.329105 
L 196.036332 46.329105 
L 198.471031 46.329105 
L 200.90573 46.329105 
L 203.340429 46.329105 
L 205.775128 46.329105 
L 208.209827 46.329105 
L 210.644526 46.329105 
L 213.079225 46.329105 
L 215.513924 46.329105 
L 217.948624 46.329105 
L 220.383323 46.329105 
L 222.818022 46.329105 
L 225.252721 46.329105 
L 227.68742 46.329105 
L 230.122119 46.329105 
L 232.556818 46.329105 
" clip-path="url(#p93a58a928f)" style="fill: none; stroke: #8c564b; stroke-width: 1.8; stroke-linecap: square"/>
   </g>
   <g id="line2d_13">
    <path d="M 59.693182 28.463664 
L 62.127881 28.463664 
L 64.56258 28.463664 
L 66.997279 28.463664 
L 69.431978 28.463664 
L 71.866677 28.463664 
L 74.301376 28.463664 
L 76.736076 28.463664 
L 79.170775 28.463664 
L 81.605474 28.463664 
L 84.040173 28.463664 
L 86.474872 28.463664 
L 88.909571 28.463664 
L 91.34427 28.463664 
L 93.778969 28.463664 
L 96.213668 28.463664 
L 98.648367 28.463664 
L 101.083067 28.463664 
L 103.517766 28.463664 
L 105.952465 28.463664 
L 108.387164 28.463664 
L 110.821863 28.463664 
L 113.256562 28.463664 
L 115.691261 28.463664 
L 118.12596 28.463664 
L 120.560659 28.463664 
L 122.995359 28.463664 
L 125.430058 28.463664 
L 127.864757 28.463664 
L 130.299456 28.463664 
L 132.734155 28.463664 
L 135.168854 28.463664 
L 137.603553 28.463664 
L 140.038252 28.463664 
L 142.472951 28.463664 
L 144.90765 28.463664 
L 147.34235 28.463664 
L 149.777049 28.463664 
L 152.211748 28.463664 
L 154.646447 28.463664 
L 157.081146 28.463664 
L 159.515845 28.463664 
L 161.950544 28.463664 
L 164.385243 28.463664 
L 166.819942 28.463664 
L 169.254641 28.463664 
L 171.689341 28.463664 
L 174.12404 28.463664 
L 176.558739 28.463664 
L 178.993438 28.463664 
L 181.428137 28.463664 
L 183.862836 28.463664 
L 186.297535 28.463664 
L 188.732234 28.463664 
L 191.166933 28.463664 
L 193.601633 28.463664 
L 196.036332 28.463664 
L 198.471031 28.463664 
L 200.90573 28.463664 
L 203.340429 28.463664 
L 205.775128 28.463664 
L 208.209827 28.463664 
L 210.644526 28.463664 
L 213.079225 28.463664 
L 215.513924 28.463664 
L 217.948624 28.463664 
L 220.383323 28.463664 
L 222.818022 28.463664 
L 225.252721 28.463664 
L 227.68742 28.463664 
L 230.122119 28.463664 
L 232.556818 28.463664 
" clip-path="url(#p93a58a928f)" style="fill: none; stroke: #e377c2; stroke-width: 1.8; stroke-linecap: square"/>
   </g>
   <g id="line2d_14">
    <path d="M 59.693182 28.463664 
L 62.127881 28.463664 
L 64.56258 28.463664 
L 66.997279 28.463664 
L 69.431978 28.463664 
L 71.866677 28.463664 
L 74.301376 28.463664 
L 76.736076 28.463664 
L 79.170775 28.463664 
L 81.605474 28.463664 
L 84.040173 28.463664 
L 86.474872 28.463664 
L 88.909571 28.463664 
L 91.34427 28.463664 
L 93.778969 28.463664 
L 96.213668 28.463664 
L 98.648367 28.463664 
L 101.083067 28.463664 
L 103.517766 28.463664 
L 105.952465 28.463664 
L 108.387164 28.463664 
L 110.821863 28.463664 
L 113.256562 28.463664 
L 115.691261 28.463664 
L 118.12596 28.463664 
L 120.560659 28.463664 
L 122.995359 28.463664 
L 125.430058 28.463664 
L 127.864757 28.463664 
L 130.299456 28.463664 
L 132.734155 28.463664 
L 135.168854 28.463664 
L 137.603553 28.463664 
L 140.038252 28.463664 
L 142.472951 28.463664 
L 144.90765 28.463664 
L 147.34235 28.463664 
L 149.777049 28.463664 
L 152.211748 28.463664 
L 154.646447 28.463664 
L 157.081146 28.463664 
L 159.515845 28.463664 
L 161.950544 28.463664 
L 164.385243 28.463664 
L 166.819942 28.463664 
L 169.254641 28.463664 
L 171.689341 28.463664 
L 174.12404 28.463664 
L 176.558739 28.463664 
L 178.993438 28.926402 
L 181.428137 29.879104 
L 183.862836 30.385811 
L 186.297535 30.385811 
L 188.732234 30.385811 
L 191.166933 30.978811 
L 193.601633 30.978811 
L 196.036332 31.870276 
L 198.471031 32.614325 
L 200.90573 32.614325 
L 203.340429 32.576839 
L 205.775128 32.011631 
L 208.209827 31.508868 
L 210.644526 31.343586 
L 213.079225 31.794695 
L 215.513924 32.009973 
L 217.948624 32.009973 
L 220.383323 31.313332 
L 222.818022 29.993561 
L 225.252721 28.802538 
L 227.68742 27.285455 
L 230.122119 28.224323 
L 232.556818 28.463664 
" clip-path="url(#p93a58a928f)" style="fill: none; stroke: #7f7f7f; stroke-width: 1.8; stroke-linecap: square"/>
   </g>
   <g id="line2d_15">
    <path d="M 59.693182 28.463664 
L 62.127881 28.463664 
L 64.56258 28.463664 
L 66.997279 28.463664 
L 69.431978 28.463664 
L 71.866677 28.463664 
L 74.301376 28.463664 
L 76.736076 28.463664 
L 79.170775 28.463664 
L 81.605474 28.463664 
L 84.040173 28.463664 
L 86.474872 28.463664 
L 88.909571 28.463664 
L 91.34427 28.463664 
L 93.778969 28.463664 
L 96.213668 28.463664 
L 98.648367 28.463664 
L 101.083067 28.463664 
L 103.517766 28.463664 
L 105.952465 28.463664 
L 108.387164 28.463664 
L 110.821863 28.463664 
L 113.256562 28.463664 
L 115.691261 28.463664 
L 118.12596 28.463664 
L 120.560659 28.463664 
L 122.995359 28.463664 
L 125.430058 28.463664 
L 127.864757 28.463664 
L 130.299456 28.463664 
L 132.734155 28.463664 
L 135.168854 28.463664 
L 137.603553 28.463664 
L 140.038252 28.463664 
L 142.472951 28.463664 
L 144.90765 28.463664 
L 147.34235 28.463664 
L 149.777049 28.463664 
L 152.211748 28.463664 
L 154.646447 28.463664 
L 157.081146 28.463664 
L 159.515845 28.463664 
L 161.950544 28.463664 
L 164.385243 28.463664 
L 166.819942 28.463664 
L 169.254641 28.463664 
L 171.689341 28.463664 
L 174.12404 28.463664 
L 176.558739 28.463664 
L 178.993438 28.463664 
L 181.428137 28.463664 
L 183.862836 28.463664 
L 186.297535 28.463664 
L 188.732234 28.463664 
L 191.166933 28.463664 
L 193.601633 28.463664 
L 196.036332 28.463664 
L 198.471031 28.463664 
L 200.90573 28.463664 
L 203.340429 28.463664 
L 205.775128 28.463664 
L 208.209827 28.463664 
L 210.644526 28.463664 
L 213.079225 28.463664 
L 215.513924 28.463664 
L 217.948624 28.463664 
L 220.383323 28.463664 
L 222.818022 28.463664 
L 225.252721 28.463664 
L 227.68742 28.463664 
L 230.122119 28.463664 
L 232.556818 28.463664 
" clip-path="url(#p93a58a928f)" style="fill: none; stroke: #bcbd22; stroke-width: 1.8; stroke-linecap: square"/>
   </g>
   <g id="line2d_16">
    <path d="M 59.693182 54.189899 
L 62.127881 54.189899 
L 64.56258 54.189899 
L 66.997279 54.189899 
L 69.431978 54.189899 
L 71.866677 54.189899 
L 74.301376 54.189899 
L 76.736076 54.189899 
L 79.170775 54.189899 
L 81.605474 54.189899 
L 84.040173 54.189899 
L 86.474872 54.189899 
L 88.909571 54.189899 
L 91.34427 54.189899 
L 93.778969 54.189899 
L 96.213668 54.189899 
L 98.648367 54.189899 
L 101.083067 54.189899 
L 103.517766 54.189899 
L 105.952465 54.189899 
L 108.387164 54.189899 
L 110.821863 54.189899 
L 113.256562 54.189899 
L 115.691261 54.189899 
L 118.12596 54.189899 
L 120.560659 54.189899 
L 122.995359 54.189899 
L 125.430058 54.189899 
L 127.864757 54.189899 
L 130.299456 54.189899 
L 132.734155 54.189899 
L 135.168854 54.189899 
L 137.603553 54.189899 
L 140.038252 54.189899 
L 142.472951 54.189899 
L 144.90765 54.189899 
L 147.34235 54.189899 
L 149.777049 54.189899 
L 152.211748 54.189899 
L 154.646447 54.189899 
L 157.081146 54.189899 
L 159.515845 54.189899 
L 161.950544 54.189899 
L 164.385243 54.189899 
L 166.819942 54.189899 
L 169.254641 54.189899 
L 171.689341 54.189899 
L 174.12404 54.189899 
L 176.558739 54.189899 
L 178.993438 54.189899 
L 181.428137 54.189899 
L 183.862836 54.189899 
L 186.297535 54.189899 
L 188.732234 54.189899 
L 191.166933 54.189899 
L 193.601633 54.189899 
L 196.036332 54.189899 
L 198.471031 54.189899 
L 200.90573 54.189899 
L 203.340429 54.189899 
L 205.775128 54.189899 
L 208.209827 54.189899 
L 210.644526 54.189899 
L 213.079225 54.189899 
L 215.513924 54.189899 
L 217.948624 54.189899 
L 220.383323 54.189899 
L 222.818022 54.189899 
L 225.252721 54.189899 
L 227.68742 54.189899 
L 230.122119 54.189899 
L 232.556818 54.189899 
" clip-path="url(#p93a58a928f)" style="fill: none; stroke: #17becf; stroke-width: 1.8; stroke-linecap: square"/>
   </g>
   <g id="line2d_17">
    <path d="M 59.693182 54.189899 
L 62.127881 54.189899 
L 64.56258 54.189899 
L 66.997279 54.189899 
L 69.431978 54.189899 
L 71.866677 54.189899 
L 74.301376 54.189899 
L 76.736076 54.189899 
L 79.170775 54.189899 
L 81.605474 54.189899 
L 84.040173 54.189899 
L 86.474872 54.189899 
L 88.909571 54.189899 
L 91.34427 54.189899 
L 93.778969 54.189899 
L 96.213668 54.189899 
L 98.648367 54.189899 
L 101.083067 54.189899 
L 103.517766 54.189899 
L 105.952465 54.189899 
L 108.387164 54.189899 
L 110.821863 54.189899 
L 113.256562 54.189899 
L 115.691261 54.189899 
L 118.12596 54.189899 
L 120.560659 54.189899 
L 122.995359 54.189899 
L 125.430058 54.189899 
L 127.864757 54.189899 
L 130.299456 54.189899 
L 132.734155 54.189899 
L 135.168854 54.189899 
L 137.603553 54.189899 
L 140.038252 54.189899 
L 142.472951 54.189899 
L 144.90765 54.189899 
L 147.34235 54.189899 
L 149.777049 54.189899 
L 152.211748 54.189899 
L 154.646447 54.189899 
L 157.081146 54.189899 
L 159.515845 54.189899 
L 161.950544 54.189899 
L 164.385243 54.189899 
L 166.819942 54.189899 
L 169.254641 54.189899 
L 171.689341 54.189899 
L 174.12404 54.189899 
L 176.558739 54.189899 
L 178.993438 54.189899 
L 181.428137 54.189899 
L 183.862836 54.189899 
L 186.297535 54.189899 
L 188.732234 54.189899 
L 191.166933 54.189899 
L 193.601633 54.189899 
L 196.036332 54.189899 
L 198.471031 54.189899 
L 200.90573 54.189899 
L 203.340429 54.189899 
L 205.775128 54.189899 
L 208.209827 54.189899 
L 210.644526 54.189899 
L 213.079225 54.189899 
L 215.513924 54.189899 
L 217.948624 54.189899 
L 220.383323 54.189899 
L 222.818022 54.189899 
L 225.252721 54.189899 
L 227.68742 54.189899 
L 230.122119 54.189899 
L 232.556818 54.189899 
" clip-path="url(#p93a58a928f)" style="fill: none; stroke: #1f77b4; stroke-width: 1.8; stroke-linecap: square"/>
   </g>
   <g id="line2d_18">
    <path d="M 59.693182 54.189899 
L 62.127881 54.189899 
L 64.56258 54.189899 
L 66.997279 54.189899 
L 69.431978 54.189899 
L 71.866677 54.189899 
L 74.301376 54.189899 
L 76.736076 54.189899 
L 79.170775 54.189899 
L 81.605474 54.189899 
L 84.040173 54.189899 
L 86.474872 54.189899 
L 88.909571 54.189899 
L 91.34427 54.189899 
L 93.778969 54.189899 
L 96.213668 54.189899 
L 98.648367 54.189899 
L 101.083067 54.189899 
L 103.517766 54.189899 
L 105.952465 54.189899 
L 108.387164 54.189899 
L 110.821863 54.189899 
L 113.256562 54.189899 
L 115.691261 54.189899 
L 118.12596 54.189899 
L 120.560659 54.189899 
L 122.995359 54.189899 
L 125.430058 54.189899 
L 127.864757 54.189899 
L 130.299456 54.189899 
L 132.734155 54.189899 
L 135.168854 54.189899 
L 137.603553 54.189899 
L 140.038252 54.189899 
L 142.472951 54.189899 
L 144.90765 54.189899 
L 147.34235 54.189899 
L 149.777049 54.189899 
L 152.211748 54.189899 
L 154.646447 54.189899 
L 157.081146 54.189899 
L 159.515845 54.189899 
L 161.950544 54.189899 
L 164.385243 54.189899 
L 166.819942 54.189899 
L 169.254641 54.189899 
L 171.689341 54.189899 
L 174.12404 54.189899 
L 176.558739 54.189899 
L 178.993438 54.189899 
L 181.428137 54.189899 
L 183.862836 54.189899 
L 186.297535 54.189899 
L 188.732234 54.189899 
L 191.166933 54.189899 
L 193.601633 54.189899 
L 196.036332 54.189899 
L 198.471031 54.189899 
L 200.90573 54.189899 
L 203.340429 54.189899 
L 205.775128 54.189899 
L 208.209827 54.189899 
L 210.644526 54.189899 
L 213.079225 54.189899 
L 215.513924 54.189899 
L 217.948624 54.189899 
L 220.383323 54.189899 
L 222.818022 54.189899 
L 225.252721 54.189899 
L 227.68742 54.189899 
L 230.122119 54.189899 
L 232.556818 54.189899 
" clip-path="url(#p93a58a928f)" style="fill: none; stroke: #ff7f0e; stroke-width: 1.8; stroke-linecap: square"/>
   </g>
   <g id="line2d_19">
    <path d="M 59.693182 54.189899 
L 62.127881 54.189899 
L 64.56258 54.189899 
L 66.997279 54.189899 
L 69.431978 54.189899 
L 71.866677 54.189899 
L 74.301376 54.189899 
L 76.736076 54.189899 
L 79.170775 54.189899 
L 81.605474 56.719211 
L 84.040173 56.719211 
L 86.474872 56.719211 
L 88.909571 53.437325 
L 91.34427 53.437325 
L 93.778969 53.437325 
L 96.213668 49.422064 
L 98.648367 45.439597 
L 101.083067 45.439597 
L 103.517766 45.439597 
L 105.952465 45.439597 
L 108.387164 45.439597 
L 110.821863 45.439597 
L 113.256562 46.870488 
L 115.691261 46.870488 
L 118.12596 46.870488 
L 120.560659 46.870488 
L 122.995359 46.870488 
L 125.430058 46.870488 
L 127.864757 46.870488 
L 130.299456 50.427396 
L 132.734155 51.258323 
L 135.168854 51.258323 
L 137.603553 51.258323 
L 140.038252 53.210106 
L 142.472951 51.705689 
L 144.90765 51.705689 
L 147.34235 49.791549 
L 149.777049 49.791549 
L 152.211748 49.791549 
L 154.646447 49.791549 
L 157.081146 49.791549 
L 159.515845 49.791549 
L 161.950544 49.791549 
L 164.385243 49.791549 
L 166.819942 49.791549 
L 169.254641 49.791549 
L 171.689341 51.751098 
L 174.12404 51.751098 
L 176.558739 57.309235 
L 178.993438 57.309235 
L 181.428137 58.259885 
L 183.862836 58.259885 
L 186.297535 59.344958 
L 188.732234 60.137636 
L 191.166933 60.888054 
L 193.601633 60.888054 
L 196.036332 60.888054 
L 198.471031 60.888054 
L 200.90573 59.627979 
L 203.340429 56.919839 
L 205.775128 56.919839 
L 208.209827 52.417748 
L 210.644526 52.417748 
L 213.079225 52.417748 
L 215.513924 52.417748 
L 217.948624 48.285663 
L 220.383323 48.285663 
L 222.818022 48.285663 
L 225.252721 48.285663 
L 227.68742 48.285663 
L 230.122119 48.631762 
L 232.556818 54.189899 
" clip-path="url(#p93a58a928f)" style="fill: none; stroke: #2ca02c; stroke-width: 1.8; stroke-linecap: square"/>
   </g>
   <g id="line2d_20">
    <path d="M 59.693182 54.189899 
L 62.127881 54.123569 
L 64.56258 54.087387 
L 66.997279 53.854819 
L 69.431978 53.62857 
L 71.866677 53.253766 
L 74.301376 52.479973 
L 76.736076 52.479973 
L 79.170775 51.672994 
L 81.605474 51.672994 
L 84.040173 51.071445 
L 86.474872 51.071445 
L 88.909571 51.071445 
L 91.34427 51.071445 
L 93.778969 51.574797 
L 96.213668 51.739694 
L 98.648367 51.95548 
L 101.083067 51.919306 
L 103.517766 51.919306 
L 105.952465 51.919306 
L 108.387164 51.919306 
L 110.821863 52.385605 
L 113.256562 52.767625 
L 115.691261 53.314654 
L 118.12596 53.81756 
L 120.560659 54.057877 
L 122.995359 54.153975 
L 125.430058 54.2003 
L 127.864757 54.26291 
L 130.299456 54.326504 
L 132.734155 54.374203 
L 135.168854 54.471071 
L 137.603553 54.290791 
L 140.038252 54.290791 
L 142.472951 54.343418 
L 144.90765 54.360133 
L 147.34235 54.486633 
L 149.777049 54.582422 
L 152.211748 54.582422 
L 154.646447 54.376992 
L 157.081146 54.376992 
L 159.515845 54.124563 
L 161.950544 54.124563 
L 164.385243 54.124563 
L 166.819942 54.17157 
L 169.254641 54.139609 
L 171.689341 54.176617 
L 174.12404 54.189899 
L 176.558739 54.189899 
L 178.993438 54.189899 
L 181.428137 54.189899 
L 183.862836 54.189899 
L 186.297535 54.189899 
L 188.732234 54.189899 
L 191.166933 54.189899 
L 193.601633 54.189899 
L 196.036332 54.189899 
L 198.471031 54.189899 
L 200.90573 54.189899 
L 203.340429 54.189899 
L 205.775128 54.189899 
L 208.209827 54.189899 
L 210.644526 54.189899 
L 213.079225 54.189899 
L 215.513924 54.189899 
L 217.948624 54.189899 
L 220.383323 54.189899 
L 222.818022 54.189899 
L 225.252721 54.189899 
L 227.68742 54.189899 
L 230.122119 54.189899 
L 232.556818 54.189899 
" clip-path="url(#p93a58a928f)" style="fill: none; stroke: #d62728; stroke-width: 1.8; stroke-linecap: square"/>
   </g>
   <g id="line2d_21">
    <path d="M 59.693182 54.673341 
L 62.127881 54.673341 
L 64.56258 55.333261 
L 66.997279 55.333261 
L 69.431978 55.333261 
L 71.866677 55.982736 
L 74.301376 56.536755 
L 76.736076 56.536755 
L 79.170775 56.536755 
L 81.605474 56.536755 
L 84.040173 56.536755 
L 86.474872 54.285709 
L 88.909571 52.034664 
L 91.34427 52.034664 
L 93.778969 52.034664 
L 96.213668 52.034664 
L 98.648367 52.034664 
L 101.083067 49.783618 
L 103.517766 49.783618 
L 105.952465 49.783618 
L 108.387164 49.783618 
L 110.821863 49.783618 
L 113.256562 49.783618 
L 115.691261 50.688114 
L 118.12596 50.688114 
L 120.560659 53.305917 
L 122.995359 53.305917 
L 125.430058 53.305917 
L 127.864757 53.305917 
L 130.299456 56.084985 
L 132.734155 56.084985 
L 135.168854 56.084985 
L 137.603553 56.084985 
L 140.038252 56.084985 
L 142.472951 56.084985 
L 144.90765 56.084985 
L 147.34235 53.83394 
L 149.777049 53.83394 
L 152.211748 53.83394 
L 154.646447 53.83394 
L 157.081146 51.582894 
L 159.515845 51.582894 
L 161.950544 51.582894 
L 164.385243 51.582894 
L 166.819942 51.582894 
L 169.254641 51.582894 
L 171.689341 51.582894 
L 174.12404 51.582894 
L 176.558739 51.582894 
L 178.993438 51.582894 
L 181.428137 54.361963 
L 183.862836 54.361963 
L 186.297535 54.361963 
L 188.732234 54.361963 
L 191.166933 54.361963 
L 193.601633 54.361963 
L 196.036332 54.361963 
L 198.471031 56.301025 
L 200.90573 56.301025 
L 203.340429 54.04998 
L 205.775128 54.04998 
L 208.209827 53.34265 
L 210.644526 53.34265 
L 213.079225 53.34265 
L 215.513924 53.34265 
L 217.948624 53.325882 
L 220.383323 53.325882 
L 222.818022 53.325882 
L 225.252721 53.325882 
L 227.68742 53.325882 
L 230.122119 53.325882 
L 232.556818 54.189899 
" clip-path="url(#p93a58a928f)" style="fill: none; stroke: #9467bd; stroke-width: 1.8; stroke-linecap: square"/>
   </g>
   <g id="line2d_22">
    <path d="M 59.693182 54.189899 
L 62.127881 54.189899 
L 64.56258 54.189899 
L 66.997279 54.189899 
L 69.431978 54.189899 
L 71.866677 54.189899 
L 74.301376 54.189899 
L 76.736076 54.189899 
L 79.170775 54.189899 
L 81.605474 54.189899 
L 84.040173 54.189899 
L 86.474872 54.189899 
L 88.909571 54.189899 
L 91.34427 54.189899 
L 93.778969 54.189899 
L 96.213668 54.189899 
L 98.648367 54.189899 
L 101.083067 54.189899 
L 103.517766 54.189899 
L 105.952465 54.189899 
L 108.387164 54.189899 
L 110.821863 54.189899 
L 113.256562 54.189899 
L 115.691261 54.189899 
L 118.12596 54.189899 
L 120.560659 54.189899 
L 122.995359 54.189899 
L 125.430058 54.189899 
L 127.864757 54.189899 
L 130.299456 54.189899 
L 132.734155 54.189899 
L 135.168854 54.189899 
L 137.603553 54.189899 
L 140.038252 54.189899 
L 142.472951 54.189899 
L 144.90765 54.189899 
L 147.34235 54.189899 
L 149.777049 54.189899 
L 152.211748 54.189899 
L 154.646447 54.189899 
L 157.081146 54.189899 
L 159.515845 54.189899 
L 161.950544 54.189899 
L 164.385243 54.189899 
L 166.819942 54.189899 
L 169.254641 54.189899 
L 171.689341 54.189899 
L 174.12404 54.189899 
L 176.558739 54.189899 
L 178.993438 54.189899 
L 181.428137 54.189899 
L 183.862836 54.189899 
L 186.297535 54.189899 
L 188.732234 54.189899 
L 191.166933 54.189899 
L 193.601633 54.189899 
L 196.036332 54.189899 
L 198.471031 54.189899 
L 200.90573 54.189899 
L 203.340429 54.189899 
L 205.775128 54.189899 
L 208.209827 54.189899 
L 210.644526 54.189899 
L 213.079225 54.189899 
L 215.513924 54.189899 
L 217.948624 54.189899 
L 220.383323 54.189899 
L 222.818022 54.189899 
L 225.252721 54.189899 
L 227.68742 54.189899 
L 230.122119 54.189899 
L 232.556818 54.189899 
" clip-path="url(#p93a58a928f)" style="fill: none; stroke: #8c564b; stroke-width: 1.8; stroke-linecap: square"/>
   </g>
   <g id="line2d_23">
    <path d="M 59.693182 54.189899 
L 62.127881 54.189899 
L 64.56258 54.189899 
L 66.997279 54.189899 
L 69.431978 54.189899 
L 71.866677 54.189899 
L 74.301376 54.189899 
L 76.736076 54.189899 
L 79.170775 54.189899 
L 81.605474 54.189899 
L 84.040173 54.189899 
L 86.474872 54.189899 
L 88.909571 54.189899 
L 91.34427 54.189899 
L 93.778969 54.189899 
L 96.213668 54.189899 
L 98.648367 54.189899 
L 101.083067 54.189899 
L 103.517766 54.189899 
L 105.952465 54.189899 
L 108.387164 54.189899 
L 110.821863 54.189899 
L 113.256562 54.189899 
L 115.691261 54.189899 
L 118.12596 54.189899 
L 120.560659 54.189899 
L 122.995359 54.189899 
L 125.430058 54.189899 
L 127.864757 54.189899 
L 130.299456 54.189899 
L 132.734155 54.189899 
L 135.168854 54.189899 
L 137.603553 54.189899 
L 140.038252 54.189899 
L 142.472951 54.189899 
L 144.90765 54.189899 
L 147.34235 54.189899 
L 149.777049 54.189899 
L 152.211748 54.189899 
L 154.646447 54.189899 
L 157.081146 54.189899 
L 159.515845 54.189899 
L 161.950544 54.189899 
L 164.385243 54.189899 
L 166.819942 54.189899 
L 169.254641 54.189899 
L 171.689341 54.189899 
L 174.12404 54.189899 
L 176.558739 54.189899 
L 178.993438 54.189899 
L 181.428137 54.189899 
L 183.862836 54.189899 
L 186.297535 54.189899 
L 188.732234 54.189899 
L 191.166933 54.189899 
L 193.601633 54.189899 
L 196.036332 54.189899 
L 198.471031 54.189899 
L 200.90573 54.189899 
L 203.340429 54.189899 
L 205.775128 54.189899 
L 208.209827 54.189899 
L 210.644526 54.189899 
L 213.079225 54.189899 
L 215.513924 54.189899 
L 217.948624 54.189899 
L 220.383323 54.189899 
L 222.818022 54.189899 
L 225.252721 54.189899 
L 227.68742 54.189899 
L 230.122119 54.189899 
L 232.556818 54.189899 
" clip-path="url(#p93a58a928f)" style="fill: none; stroke: #e377c2; stroke-width: 1.8; stroke-linecap: square"/>
   </g>
   <g id="line2d_24">
    <path d="M 59.693182 54.189899 
L 62.127881 54.189899 
L 64.56258 54.189899 
L 66.997279 54.189899 
L 69.431978 54.189899 
L 71.866677 54.189899 
L 74.301376 54.189899 
L 76.736076 54.189899 
L 79.170775 54.189899 
L 81.605474 54.189899 
L 84.040173 54.189899 
L 86.474872 54.189899 
L 88.909571 54.189899 
L 91.34427 54.189899 
L 93.778969 54.189899 
L 96.213668 54.189899 
L 98.648367 54.189899 
L 101.083067 54.189899 
L 103.517766 54.189899 
L 105.952465 54.189899 
L 108.387164 54.189899 
L 110.821863 54.189899 
L 113.256562 54.189899 
L 115.691261 54.189899 
L 118.12596 54.189899 
L 120.560659 54.189899 
L 122.995359 54.189899 
L 125.430058 54.189899 
L 127.864757 54.189899 
L 130.299456 54.189899 
L 132.734155 54.189899 
L 135.168854 54.189899 
L 137.603553 54.189899 
L 140.038252 54.189899 
L 142.472951 54.189899 
L 144.90765 54.189899 
L 147.34235 54.189899 
L 149.777049 54.189899 
L 152.211748 54.189899 
L 154.646447 54.189899 
L 157.081146 54.189899 
L 159.515845 54.189899 
L 161.950544 54.189899 
L 164.385243 54.189899 
L 166.819942 54.189899 
L 169.254641 54.189899 
L 171.689341 54.189899 
L 174.12404 54.189899 
L 176.558739 54.189899 
L 178.993438 54.189899 
L 181.428137 54.189899 
L 183.862836 54.189899 
L 186.297535 54.189899 
L 188.732234 54.189899 
L 191.166933 54.189899 
L 193.601633 54.189899 
L 196.036332 54.189899 
L 198.471031 54.189899 
L 200.90573 54.189899 
L 203.340429 54.189899 
L 205.775128 54.189899 
L 208.209827 54.189899 
L 210.644526 54.189899 
L 213.079225 54.189899 
L 215.513924 54.189899 
L 217.948624 54.189899 
L 220.383323 54.189899 
L 222.818022 54.189899 
L 225.252721 54.189899 
L 227.68742 54.189899 
L 230.122119 54.189899 
L 232.556818 54.189899 
" clip-path="url(#p93a58a928f)" style="fill: none; stroke: #7f7f7f; stroke-width: 1.8; stroke-linecap: square"/>
   </g>
   <g id="patch_3">
    <path d="M 51.05 66.04 
L 51.05 25.44 
" style="fill: none; stroke: #000000; stroke-width: 0.8; stroke-linejoin: miter; stroke-linecap: square"/>
   </g>
   <g id="patch_4">
    <path d="M 241.2 66.04 
L 241.2 25.44 
" style="fill: none; stroke: #000000; stroke-width: 0.8; stroke-linejoin: miter; stroke-linecap: square"/>
   </g>
   <g id="patch_5">
    <path d="M 51.05 66.04 
L 241.2 66.04 
" style="fill: none; stroke: #000000; stroke-width: 0.8; stroke-linejoin: miter; stroke-linecap: square"/>
   </g>
   <g id="patch_6">
    <path d="M 51.05 25.44 
L 241.2 25.44 
" style="fill: none; stroke: #000000; stroke-width: 0.8; stroke-linejoin: miter; stroke-linecap: square"/>
   </g>
   <g id="text_9">
    <!-- SoC by battery (T=72, F=24, L=12) -->
    <g transform="translate(38.7175 19.44) scale(0.12 -0.12)">
     <defs>
      <path id="DejaVuSans-62" d="M 3116 1747 
Q 3116 2381 2855 2742 
Q 2594 3103 2138 3103 
Q 1681 3103 1420 2742 
Q 1159 2381 1159 1747 
Q 1159 1113 1420 752 
Q 1681 391 2138 391 
Q 2594 391 2855 752 
Q 3116 1113 3116 1747 
z
M 1159 2969 
Q 1341 3281 1617 3432 
Q 1894 3584 2278 3584 
Q 2916 3584 3314 3078 
Q 3713 2572 3713 1747 
Q 3713 922 3314 415 
Q 2916 -91 2278 -91 
Q 1894 -91 1617 61 
Q 1341 213 1159 525 
L 1159 0 
L 581 0 
L 581 4863 
L 1159 4863 
L 1159 2969 
z
" transform="scale(0.015625)"/>
      <path id="DejaVuSans-79" d="M 2059 -325 
Q 1816 -950 1584 -1140 
Q 1353 -1331 966 -1331 
L 506 -1331 
L 506 -850 
L 844 -850 
Q 1081 -850 1212 -737 
Q 1344 -625 1503 -206 
L 1606 56 
L 191 3500 
L 800 3500 
L 1894 763 
L 2988 3500 
L 3597 3500 
L 2059 -325 
z
" transform="scale(0.015625)"/>
      <path id="DejaVuSans-61" d="M 2194 1759 
Q 1497 1759 1228 1600 
Q 959 1441 959 1056 
Q 959 750 1161 570 
Q 1363 391 1709 391 
Q 2188 391 2477 730 
Q 2766 1069 2766 1631 
L 2766 1759 
L 2194 1759 
z
M 3341 1997 
L 3341 0 
L 2766 0 
L 2766 531 
Q 2569 213 2275 61 
Q 1981 -91 1556 -91 
Q 1019 -91 701 211 
Q 384 513 384 1019 
Q 384 1609 779 1909 
Q 1175 2209 1959 2209 
L 2766 2209 
L 2766 2266 
Q 2766 2663 2505 2880 
Q 2244 3097 1772 3097 
Q 1472 3097 1187 3025 
Q 903 2953 641 2809 
L 641 3341 
Q 956 3463 1253 3523 
Q 1550 3584 1831 3584 
Q 2591 3584 2966 3190 
Q 3341 2797 3341 1997 
z
" transform="scale(0.015625)"/>
      <path id="DejaVuSans-72" d="M 2631 2963 
Q 2534 3019 2420 3045 
Q 2306 3072 2169 3072 
Q 1681 3072 1420 2755 
Q 1159 2438 1159 1844 
L 1159 0 
L 581 0 
L 581 3500 
L 1159 3500 
L 1159 2956 
Q 1341 3275 1631 3429 
Q 1922 3584 2338 3584 
Q 2397 3584 2469 3576 
Q 2541 3569 2628 3553 
L 2631 2963 
z
" transform="scale(0.015625)"/>
      <path id="DejaVuSans-3d" d="M 678 2906 
L 4684 2906 
L 4684 2381 
L 678 2381 
L 678 2906 
z
M 678 1631 
L 4684 1631 
L 4684 1100 
L 678 1100 
L 678 1631 
z
" transform="scale(0.015625)"/>
      <path id="DejaVuSans-37" d="M 525 4666 
L 3525 4666 
L 3525 4397 
L 1831 0 
L 1172 0 
L 2766 4134 
L 525 4134 
L 525 4666 
z
" transform="scale(0.015625)"/>
      <path id="DejaVuSans-2c" d="M 750 794 
L 1409 794 
L 1409 256 
L 897 -744 
L 494 -744 
L 750 256 
L 750 794 
z
" transform="scale(0.015625)"/>
      <path id="DejaVuSans-46" d="M 628 4666 
L 3309 4666 
L 3309 4134 
L 1259 4134 
L 1259 2759 
L 3109 2759 
L 3109 2228 
L 1259 2228 
L 1259 0 
L 628 0 
L 628 4666 
z
" transform="scale(0.015625)"/>
      <path id="DejaVuSans-4c" d="M 628 4666 
L 1259 4666 
L 1259 531 
L 3531 531 
L 3531 0 
L 628 0 
L 628 4666 
z
" transform="scale(0.015625)"/>
      <path id="DejaVuSans-31" d="M 794 531 
L 1825 531 
L 1825 4091 
L 703 3866 
L 703 4441 
L 1819 4666 
L 2450 4666 
L 2450 531 
L 3481 531 
L 3481 0 
L 794 0 
L 794 531 
z
" transform="scale(0.015625)"/>
     </defs>
     <use xlink:href="#DejaVuSans-53"/>
     <use xlink:href="#DejaVuSans-6f" x="63.476562"/>
     <use xlink:href="#DejaVuSans-43" x="124.658203"/>
     <use xlink:href="#DejaVuSans-20" x="194.482422"/>
     <use xlink:href="#DejaVuSans-62" x="226.269531"/>
     <use xlink:href="#DejaVuSans-79" x="289.746094"/>
     <use xlink:href="#DejaVuSans-20" x="348.925781"/>
     <use xlink:href="#DejaVuSans-62" x="380.712891"/>
     <use xlink:href="#DejaVuSans-61" x="444.189453"/>
     <use xlink:href="#DejaVuSans-74" x="505.46875"/>
     <use xlink:href="#DejaVuSans-74" x="544.677734"/>
     <use xlink:href="#DejaVuSans-65" x="583.886719"/>
     <use xlink:href="#DejaVuSans-72" x="645.410156"/>
     <use xlink:href="#DejaVuSans-79" x="686.523438"/>
     <use xlink:href="#DejaVuSans-20" x="745.703125"/>
     <use xlink:href="#DejaVuSans-28" x="777.490234"/>
     <use xlink:href="#DejaVuSans-54" x="816.503906"/>
     <use xlink:href="#DejaVuSans-3d" x="877.587891"/>
     <use xlink:href="#DejaVuSans-37" x="961.376953"/>
     <use xlink:href="#DejaVuSans-32" x="1025"/>
     <use xlink:href="#DejaVuSans-2c" x="1088.623047"/>
     <use xlink:href="#DejaVuSans-20" x="1120.410156"/>
     <use xlink:href="#DejaVuSans-46" x="1152.197266"/>
     <use xlink:href="#DejaVuSans-3d" x="1209.716797"/>
     <use xlink:href="#DejaVuSans-32" x="1293.505859"/>
     <use xlink:href="#DejaVuSans-34" x="1357.128906"/>
     <use xlink:href="#DejaVuSans-2c" x="1420.751953"/>
     <use xlink:href="#DejaVuSans-20" x="1452.539062"/>
     <use xlink:href="#DejaVuSans-4c" x="1484.326172"/>
     <use xlink:href="#DejaVuSans-3d" x="1540.039062"/>
     <use xlink:href="#DejaVuSans-31" x="1623.828125"/>
     <use xlink:href="#DejaVuSans-32" x="1687.451172"/>
     <use xlink:href="#DejaVuSans-29" x="1751.074219"/>
    </g>
   </g>
  </g>
 </g>
 <defs>
  <clipPath id="p93a58a928f">
   <rect x="51.05" y="25.44" width="190.15" height="40.6"/>
  </clipPath>
 </defs>
</svg>
