<?xml version="1.0" encoding="utf-8" standalone="no"?>
<!DOCTYPE svg PUBLIC "-//W3C//DTD SVG 1.1//EN"
  "http://www.w3.org/Graphics/SVG/1.1/DTD/svg11.dtd">
<svg xmlns:xlink="http://www.w3.org/1999/xlink" width="453.11625pt" height="337.752812pt" viewBox="0 0 453.11625 337.752812" xmlns="http://www.w3.org/2000/svg" version="1.1">
 <metadata>
  <rdf:RDF xmlns:dc="http://purl.org/dc/elements/1.1/" xmlns:cc="http://creativecommons.org/ns#" xmlns:rdf="http://www.w3.org/1999/02/22-rdf-syntax-ns#">
   <cc:Work>
    <dc:type rdf:resource="http://purl.org/dc/dcmitype/StillImage"/>
    <dc:date>2025-11-10T22:30:04.030547</dc:date>
    <dc:format>image/svg+xml</dc:format>
    <dc:creator>
     <cc:Agent>
      <dc:title>Matplotlib v3.10.0, https://matplotlib.org/</dc:title>
     </cc:Agent>
    </dc:creator>
   </cc:Work>
  </rdf:RDF>
 </metadata>
 <defs>
  <style type="text/css">*{stroke-linejoin: round; stroke-linecap: butt}</style>
 </defs>
 <g id="figure_1">
  <g id="patch_1">
   <path d="M 0 337.752812 
L 453.11625 337.752812 
L 453.11625 0 
L 0 0 
z
" style="fill: #ffffff"/>
  </g>
  <g id="axes_1">
   <g id="patch_2">
    <path d="M 56.50625 300.196562 
L 445.91625 300.196562 
L 445.91625 32.916562 
L 56.50625 32.916562 
z
" style="fill: #ffffff"/>
   </g>
   <g id="matplotlib.axis_1">
    <g id="xtick_1">
     <g id="line2d_1">
      <defs>
       <path id="m7dee9ee0f9" d="M 0 0 
L 0 3.5 
" style="stroke: #000000; stroke-width: 0.8"/>
      </defs>
      <g>
       <use xlink:href="#m7dee9ee0f9" x="74.206705" y="300.196562" style="stroke: #000000; stroke-width: 0.8"/>
      </g>
     </g>
     <g id="text_1">
      <!-- 0 -->
      <g transform="translate(71.025455 314.795) scale(0.1 -0.1)">
       <defs>
        <path id="DejaVuSans-30" d="M 2034 4250 
Q 1547 4250 1301 3770 
Q 1056 3291 1056 2328 
Q 1056 1369 1301 889 
Q 1547 409 2034 409 
Q 2525 409 2770 889 
Q 3016 1369 3016 2328 
Q 3016 3291 2770 3770 
Q 2525 4250 2034 4250 
z
M 2034 4750 
Q 2819 4750 3233 4129 
Q 3647 3509 3647 2328 
Q 3647 1150 3233 529 
Q 2819 -91 2034 -91 
Q 1250 -91 836 529 
Q 422 1150 422 2328 
Q 422 3509 836 4129 
Q 1250 4750 2034 4750 
z
" transform="scale(0.015625)"/>
       </defs>
       <use xlink:href="#DejaVuSans-30"/>
      </g>
     </g>
    </g>
    <g id="xtick_2">
     <g id="line2d_2">
      <g>
       <use xlink:href="#m7dee9ee0f9" x="133.20822" y="300.196562" style="stroke: #000000; stroke-width: 0.8"/>
      </g>
     </g>
     <g id="text_2">
      <!-- 5 -->
      <g transform="translate(130.02697 314.795) scale(0.1 -0.1)">
       <defs>
        <path id="DejaVuSans-35" d="M 691 4666 
L 3169 4666 
L 3169 4134 
L 1269 4134 
L 1269 2991 
Q 1406 3038 1543 3061 
Q 1681 3084 1819 3084 
Q 2600 3084 3056 2656 
Q 3513 2228 3513 1497 
Q 3513 744 3044 326 
Q 2575 -91 1722 -91 
Q 1428 -91 1123 -41 
Q 819 9 494 109 
L 494 744 
Q 775 591 1075 516 
Q 1375 441 1709 441 
Q 2250 441 2565 725 
Q 2881 1009 2881 1497 
Q 2881 1984 2565 2268 
Q 2250 2553 1709 2553 
Q 1456 2553 1204 2497 
Q 953 2441 691 2322 
L 691 4666 
z
" transform="scale(0.015625)"/>
       </defs>
       <use xlink:href="#DejaVuSans-35"/>
      </g>
     </g>
    </g>
    <g id="xtick_3">
     <g id="line2d_3">
      <g>
       <use xlink:href="#m7dee9ee0f9" x="192.209735" y="300.196562" style="stroke: #000000; stroke-width: 0.8"/>
      </g>
     </g>
     <g id="text_3">
      <!-- 10 -->
      <g transform="translate(185.847235 314.795) scale(0.1 -0.1)">
       <defs>
        <path id="DejaVuSans-31" d="M 794 531 
L 1825 531 
L 1825 4091 
L 703 3866 
L 703 4441 
L 1819 4666 
L 2450 4666 
L 2450 531 
L 3481 531 
L 3481 0 
L 794 0 
L 794 531 
z
" transform="scale(0.015625)"/>
       </defs>
       <use xlink:href="#DejaVuSans-31"/>
       <use xlink:href="#DejaVuSans-30" transform="translate(63.623047 0)"/>
      </g>
     </g>
    </g>
    <g id="xtick_4">
     <g id="line2d_4">
      <g>
       <use xlink:href="#m7dee9ee0f9" x="251.21125" y="300.196562" style="stroke: #000000; stroke-width: 0.8"/>
      </g>
     </g>
     <g id="text_4">
      <!-- 15 -->
      <g transform="translate(244.84875 314.795) scale(0.1 -0.1)">
       <use xlink:href="#DejaVuSans-31"/>
       <use xlink:href="#DejaVuSans-35" transform="translate(63.623047 0)"/>
      </g>
     </g>
    </g>
    <g id="xtick_5">
     <g id="line2d_5">
      <g>
       <use xlink:href="#m7dee9ee0f9" x="310.212765" y="300.196562" style="stroke: #000000; stroke-width: 0.8"/>
      </g>
     </g>
     <g id="text_5">
      <!-- 20 -->
      <g transform="translate(303.850265 314.795) scale(0.1 -0.1)">
       <defs>
        <path id="DejaVuSans-32" d="M 1228 531 
L 3431 531 
L 3431 0 
L 469 0 
L 469 531 
Q 828 903 1448 1529 
Q 2069 2156 2228 2338 
Q 2531 2678 2651 2914 
Q 2772 3150 2772 3378 
Q 2772 3750 2511 3984 
Q 2250 4219 1831 4219 
Q 1534 4219 1204 4116 
Q 875 4013 500 3803 
L 500 4441 
Q 881 4594 1212 4672 
Q 1544 4750 1819 4750 
Q 2544 4750 2975 4387 
Q 3406 4025 3406 3419 
Q 3406 3131 3298 2873 
Q 3191 2616 2906 2266 
Q 2828 2175 2409 1742 
Q 1991 1309 1228 531 
z
" transform="scale(0.015625)"/>
       </defs>
       <use xlink:href="#DejaVuSans-32"/>
       <use xlink:href="#DejaVuSans-30" transform="translate(63.623047 0)"/>
      </g>
     </g>
    </g>
    <g id="xtick_6">
     <g id="line2d_6">
      <g>
       <use xlink:href="#m7dee9ee0f9" x="369.21428" y="300.196562" style="stroke: #000000; stroke-width: 0.8"/>
      </g>
     </g>
     <g id="text_6">
      <!-- 25 -->
      <g transform="translate(362.85178 314.795) scale(0.1 -0.1)">
       <use xlink:href="#DejaVuSans-32"/>
       <use xlink:href="#DejaVuSans-35" transform="translate(63.623047 0)"/>
      </g>
     </g>
    </g>
    <g id="xtick_7">
     <g id="line2d_7">
      <g>
       <use xlink:href="#m7dee9ee0f9" x="428.215795" y="300.196562" style="stroke: #000000; stroke-width: 0.8"/>
      </g>
     </g>
     <g id="text_7">
      <!-- 30 -->
      <g transform="translate(421.853295 314.795) scale(0.1 -0.1)">
       <defs>
        <path id="DejaVuSans-33" d="M 2597 2516 
Q 3050 2419 3304 2112 
Q 3559 1806 3559 1356 
Q 3559 666 3084 287 
Q 2609 -91 1734 -91 
Q 1441 -91 1130 -33 
Q 819 25 488 141 
L 488 750 
Q 750 597 1062 519 
Q 1375 441 1716 441 
Q 2309 441 2620 675 
Q 2931 909 2931 1356 
Q 2931 1769 2642 2001 
Q 2353 2234 1838 2234 
L 1294 2234 
L 1294 2753 
L 1863 2753 
Q 2328 2753 2575 2939 
Q 2822 3125 2822 3475 
Q 2822 3834 2567 4026 
Q 2313 4219 1838 4219 
Q 1578 4219 1281 4162 
Q 984 4106 628 3988 
L 628 4550 
Q 988 4650 1302 4700 
Q 1616 4750 1894 4750 
Q 2613 4750 3031 4423 
Q 3450 4097 3450 3541 
Q 3450 3153 3228 2886 
Q 3006 2619 2597 2516 
z
" transform="scale(0.015625)"/>
       </defs>
       <use xlink:href="#DejaVuSans-33"/>
       <use xlink:href="#DejaVuSans-30" transform="translate(63.623047 0)"/>
      </g>
     </g>
    </g>
    <g id="text_8">
     <!-- Iteration -->
     <g transform="translate(230.002656 328.473125) scale(0.1 -0.1)">
      <defs>
       <path id="DejaVuSans-49" d="M 628 4666 
L 1259 4666 
L 1259 0 
L 628 0 
L 628 4666 
z
" transform="scale(0.015625)"/>
       <path id="DejaVuSans-74" d="M 1172 4494 
L 1172 3500 
L 2356 3500 
L 2356 3053 
L 1172 3053 
L 1172 1153 
Q 1172 725 1289 603 
Q 1406 481 1766 481 
L 2356 481 
L 2356 0 
L 1766 0 
Q 1100 0 847 248 
Q 594 497 594 1153 
L 594 3053 
L 172 3053 
L 172 3500 
L 594 3500 
L 594 4494 
L 1172 4494 
z
" transform="scale(0.015625)"/>
       <path id="DejaVuSans-65" d="M 3597 1894 
L 3597 1613 
L 953 1613 
Q 991 1019 1311 708 
Q 1631 397 2203 397 
Q 2534 397 2845 478 
Q 3156 559 3463 722 
L 3463 178 
Q 3153 47 2828 -22 
Q 2503 -91 2169 -91 
Q 1331 -91 842 396 
Q 353 884 353 1716 
Q 353 2575 817 3079 
Q 1281 3584 2069 3584 
Q 2775 3584 3186 3129 
Q 3597 2675 3597 1894 
z
M 3022 2063 
Q 3016 2534 2758 2815 
Q 2500 3097 2075 3097 
Q 1594 3097 1305 2825 
Q 1016 2553 972 2059 
L 3022 2063 
z
" transform="scale(0.015625)"/>
       <path id="DejaVuSans-72" d="M 2631 2963 
Q 2534 3019 2420 3045 
Q 2306 3072 2169 3072 
Q 1681 3072 1420 2755 
Q 1159 2438 1159 1844 
L 1159 0 
L 581 0 
L 581 3500 
L 1159 3500 
L 1159 2956 
Q 1341 3275 1631 3429 
Q 1922 3584 2338 3584 
Q 2397 3584 2469 3576 
Q 2541 3569 2628 3553 
L 2631 2963 
z
" transform="scale(0.015625)"/>
       <path id="DejaVuSans-61" d="M 2194 1759 
Q 1497 1759 1228 1600 
Q 959 1441 959 1056 
Q 959 750 1161 570 
Q 1363 391 1709 391 
Q 2188 391 2477 730 
Q 2766 1069 2766 1631 
L 2766 1759 
L 2194 1759 
z
M 3341 1997 
L 3341 0 
L 2766 0 
L 2766 531 
Q 2569 213 2275 61 
Q 1981 -91 1556 -91 
Q 1019 -91 701 211 
Q 384 513 384 1019 
Q 384 1609 779 1909 
Q 1175 2209 1959 2209 
L 2766 2209 
L 2766 2266 
Q 2766 2663 2505 2880 
Q 2244 3097 1772 3097 
Q 1472 3097 1187 3025 
Q 903 2953 641 2809 
L 641 3341 
Q 956 3463 1253 3523 
Q 1550 3584 1831 3584 
Q 2591 3584 2966 3190 
Q 3341 2797 3341 1997 
z
" transform="scale(0.015625)"/>
       <path id="DejaVuSans-69" d="M 603 3500 
L 1178 3500 
L 1178 0 
L 603 0 
L 603 3500 
z
M 603 4863 
L 1178 4863 
L 1178 4134 
L 603 4134 
L 603 4863 
z
" transform="scale(0.015625)"/>
       <path id="DejaVuSans-6f" d="M 1959 3097 
Q 1497 3097 1228 2736 
Q 959 2375 959 1747 
Q 959 1119 1226 758 
Q 1494 397 1959 397 
Q 2419 397 2687 759 
Q 2956 1122 2956 1747 
Q 2956 2369 2687 2733 
Q 2419 3097 1959 3097 
z
M 1959 3584 
Q 2709 3584 3137 3096 
Q 3566 2609 3566 1747 
Q 3566 888 3137 398 
Q 2709 -91 1959 -91 
Q 1206 -91 779 398 
Q 353 888 353 1747 
Q 353 2609 779 3096 
Q 1206 3584 1959 3584 
z
" transform="scale(0.015625)"/>
       <path id="DejaVuSans-6e" d="M 3513 2113 
L 3513 0 
L 2938 0 
L 2938 2094 
Q 2938 2591 2744 2837 
Q 2550 3084 2163 3084 
Q 1697 3084 1428 2787 
Q 1159 2491 1159 1978 
L 1159 0 
L 581 0 
L 581 3500 
L 1159 3500 
L 1159 2956 
Q 1366 3272 1645 3428 
Q 1925 3584 2291 3584 
Q 2894 3584 3203 3211 
Q 3513 2838 3513 2113 
z
" transform="scale(0.015625)"/>
      </defs>
      <use xlink:href="#DejaVuSans-49"/>
      <use xlink:href="#DejaVuSans-74" transform="translate(29.492188 0)"/>
      <use xlink:href="#DejaVuSans-65" transform="translate(68.701172 0)"/>
      <use xlink:href="#DejaVuSans-72" transform="translate(130.224609 0)"/>
      <use xlink:href="#DejaVuSans-61" transform="translate(171.337891 0)"/>
      <use xlink:href="#DejaVuSans-74" transform="translate(232.617188 0)"/>
      <use xlink:href="#DejaVuSans-69" transform="translate(271.826172 0)"/>
      <use xlink:href="#DejaVuSans-6f" transform="translate(299.609375 0)"/>
      <use xlink:href="#DejaVuSans-6e" transform="translate(360.791016 0)"/>
     </g>
    </g>
   </g>
   <g id="matplotlib.axis_2">
    <g id="ytick_1">
     <g id="line2d_8">
      <defs>
       <path id="me2046cfc12" d="M 0 0 
L -3.5 0 
" style="stroke: #000000; stroke-width: 0.8"/>
      </defs>
      <g>
       <use xlink:href="#me2046cfc12" x="56.50625" y="284.261239" style="stroke: #000000; stroke-width: 0.8"/>
      </g>
     </g>
     <g id="text_9">
      <!-- 1.095 -->
      <g transform="translate(20.878125 288.060457) scale(0.1 -0.1)">
       <defs>
        <path id="DejaVuSans-2e" d="M 684 794 
L 1344 794 
L 1344 0 
L 684 0 
L 684 794 
z
" transform="scale(0.015625)"/>
        <path id="DejaVuSans-39" d="M 703 97 
L 703 672 
Q 941 559 1184 500 
Q 1428 441 1663 441 
Q 2288 441 2617 861 
Q 2947 1281 2994 2138 
Q 2813 1869 2534 1725 
Q 2256 1581 1919 1581 
Q 1219 1581 811 2004 
Q 403 2428 403 3163 
Q 403 3881 828 4315 
Q 1253 4750 1959 4750 
Q 2769 4750 3195 4129 
Q 3622 3509 3622 2328 
Q 3622 1225 3098 567 
Q 2575 -91 1691 -91 
Q 1453 -91 1209 -44 
Q 966 3 703 97 
z
M 1959 2075 
Q 2384 2075 2632 2365 
Q 2881 2656 2881 3163 
Q 2881 3666 2632 3958 
Q 2384 4250 1959 4250 
Q 1534 4250 1286 3958 
Q 1038 3666 1038 3163 
Q 1038 2656 1286 2365 
Q 1534 2075 1959 2075 
z
" transform="scale(0.015625)"/>
       </defs>
       <use xlink:href="#DejaVuSans-31"/>
       <use xlink:href="#DejaVuSans-2e" transform="translate(63.623047 0)"/>
       <use xlink:href="#DejaVuSans-30" transform="translate(95.410156 0)"/>
       <use xlink:href="#DejaVuSans-39" transform="translate(159.033203 0)"/>
       <use xlink:href="#DejaVuSans-35" transform="translate(222.65625 0)"/>
      </g>
     </g>
    </g>
    <g id="ytick_2">
     <g id="line2d_9">
      <g>
       <use xlink:href="#me2046cfc12" x="56.50625" y="253.072508" style="stroke: #000000; stroke-width: 0.8"/>
      </g>
     </g>
     <g id="text_10">
      <!-- 1.100 -->
      <g transform="translate(20.878125 256.871727) scale(0.1 -0.1)">
       <use xlink:href="#DejaVuSans-31"/>
       <use xlink:href="#DejaVuSans-2e" transform="translate(63.623047 0)"/>
       <use xlink:href="#DejaVuSans-31" transform="translate(95.410156 0)"/>
       <use xlink:href="#DejaVuSans-30" transform="translate(159.033203 0)"/>
       <use xlink:href="#DejaVuSans-30" transform="translate(222.65625 0)"/>
      </g>
     </g>
    </g>
    <g id="ytick_3">
     <g id="line2d_10">
      <g>
       <use xlink:href="#me2046cfc12" x="56.50625" y="221.883778" style="stroke: #000000; stroke-width: 0.8"/>
      </g>
     </g>
     <g id="text_11">
      <!-- 1.105 -->
      <g transform="translate(20.878125 225.682997) scale(0.1 -0.1)">
       <use xlink:href="#DejaVuSans-31"/>
       <use xlink:href="#DejaVuSans-2e" transform="translate(63.623047 0)"/>
       <use xlink:href="#DejaVuSans-31" transform="translate(95.410156 0)"/>
       <use xlink:href="#DejaVuSans-30" transform="translate(159.033203 0)"/>
       <use xlink:href="#DejaVuSans-35" transform="translate(222.65625 0)"/>
      </g>
     </g>
    </g>
    <g id="ytick_4">
     <g id="line2d_11">
      <g>
       <use xlink:href="#me2046cfc12" x="56.50625" y="190.695048" style="stroke: #000000; stroke-width: 0.8"/>
      </g>
     </g>
     <g id="text_12">
      <!-- 1.110 -->
      <g transform="translate(20.878125 194.494267) scale(0.1 -0.1)">
       <use xlink:href="#DejaVuSans-31"/>
       <use xlink:href="#DejaVuSans-2e" transform="translate(63.623047 0)"/>
       <use xlink:href="#DejaVuSans-31" transform="translate(95.410156 0)"/>
       <use xlink:href="#DejaVuSans-31" transform="translate(159.033203 0)"/>
       <use xlink:href="#DejaVuSans-30" transform="translate(222.65625 0)"/>
      </g>
     </g>
    </g>
    <g id="ytick_5">
     <g id="line2d_12">
      <g>
       <use xlink:href="#me2046cfc12" x="56.50625" y="159.506318" style="stroke: #000000; stroke-width: 0.8"/>
      </g>
     </g>
     <g id="text_13">
      <!-- 1.115 -->
      <g transform="translate(20.878125 163.305536) scale(0.1 -0.1)">
       <use xlink:href="#DejaVuSans-31"/>
       <use xlink:href="#DejaVuSans-2e" transform="translate(63.623047 0)"/>
       <use xlink:href="#DejaVuSans-31" transform="translate(95.410156 0)"/>
       <use xlink:href="#DejaVuSans-31" transform="translate(159.033203 0)"/>
       <use xlink:href="#DejaVuSans-35" transform="translate(222.65625 0)"/>
      </g>
     </g>
    </g>
    <g id="ytick_6">
     <g id="line2d_13">
      <g>
       <use xlink:href="#me2046cfc12" x="56.50625" y="128.317587" style="stroke: #000000; stroke-width: 0.8"/>
      </g>
     </g>
     <g id="text_14">
      <!-- 1.120 -->
      <g transform="translate(20.878125 132.116806) scale(0.1 -0.1)">
       <use xlink:href="#DejaVuSans-31"/>
       <use xlink:href="#DejaVuSans-2e" transform="translate(63.623047 0)"/>
       <use xlink:href="#DejaVuSans-31" transform="translate(95.410156 0)"/>
       <use xlink:href="#DejaVuSans-32" transform="translate(159.033203 0)"/>
       <use xlink:href="#DejaVuSans-30" transform="translate(222.65625 0)"/>
      </g>
     </g>
    </g>
    <g id="ytick_7">
     <g id="line2d_14">
      <g>
       <use xlink:href="#me2046cfc12" x="56.50625" y="97.128857" style="stroke: #000000; stroke-width: 0.8"/>
      </g>
     </g>
     <g id="text_15">
      <!-- 1.125 -->
      <g transform="translate(20.878125 100.928076) scale(0.1 -0.1)">
       <use xlink:href="#DejaVuSans-31"/>
       <use xlink:href="#DejaVuSans-2e" transform="translate(63.623047 0)"/>
       <use xlink:href="#DejaVuSans-31" transform="translate(95.410156 0)"/>
       <use xlink:href="#DejaVuSans-32" transform="translate(159.033203 0)"/>
       <use xlink:href="#DejaVuSans-35" transform="translate(222.65625 0)"/>
      </g>
     </g>
    </g>
    <g id="ytick_8">
     <g id="line2d_15">
      <g>
       <use xlink:href="#me2046cfc12" x="56.50625" y="65.940127" style="stroke: #000000; stroke-width: 0.8"/>
      </g>
     </g>
     <g id="text_16">
      <!-- 1.130 -->
      <g transform="translate(20.878125 69.739346) scale(0.1 -0.1)">
       <use xlink:href="#DejaVuSans-31"/>
       <use xlink:href="#DejaVuSans-2e" transform="translate(63.623047 0)"/>
       <use xlink:href="#DejaVuSans-31" transform="translate(95.410156 0)"/>
       <use xlink:href="#DejaVuSans-33" transform="translate(159.033203 0)"/>
       <use xlink:href="#DejaVuSans-30" transform="translate(222.65625 0)"/>
      </g>
     </g>
    </g>
    <g id="ytick_9">
     <g id="line2d_16">
      <g>
       <use xlink:href="#me2046cfc12" x="56.50625" y="34.751397" style="stroke: #000000; stroke-width: 0.8"/>
      </g>
     </g>
     <g id="text_17">
      <!-- 1.135 -->
      <g transform="translate(20.878125 38.550616) scale(0.1 -0.1)">
       <use xlink:href="#DejaVuSans-31"/>
       <use xlink:href="#DejaVuSans-2e" transform="translate(63.623047 0)"/>
       <use xlink:href="#DejaVuSans-31" transform="translate(95.410156 0)"/>
       <use xlink:href="#DejaVuSans-33" transform="translate(159.033203 0)"/>
       <use xlink:href="#DejaVuSans-35" transform="translate(222.65625 0)"/>
      </g>
     </g>
    </g>
    <g id="text_18">
     <!-- Value -->
     <g transform="translate(14.798438 180.287812) rotate(-90) scale(0.1 -0.1)">
      <defs>
       <path id="DejaVuSans-56" d="M 1831 0 
L 50 4666 
L 709 4666 
L 2188 738 
L 3669 4666 
L 4325 4666 
L 2547 0 
L 1831 0 
z
" transform="scale(0.015625)"/>
       <path id="DejaVuSans-6c" d="M 603 4863 
L 1178 4863 
L 1178 0 
L 603 0 
L 603 4863 
z
" transform="scale(0.015625)"/>
       <path id="DejaVuSans-75" d="M 544 1381 
L 544 3500 
L 1119 3500 
L 1119 1403 
Q 1119 906 1312 657 
Q 1506 409 1894 409 
Q 2359 409 2629 706 
Q 2900 1003 2900 1516 
L 2900 3500 
L 3475 3500 
L 3475 0 
L 2900 0 
L 2900 538 
Q 2691 219 2414 64 
Q 2138 -91 1772 -91 
Q 1169 -91 856 284 
Q 544 659 544 1381 
z
M 1991 3584 
L 1991 3584 
z
" transform="scale(0.015625)"/>
      </defs>
      <use xlink:href="#DejaVuSans-56"/>
      <use xlink:href="#DejaVuSans-61" transform="translate(60.658203 0)"/>
      <use xlink:href="#DejaVuSans-6c" transform="translate(121.9375 0)"/>
      <use xlink:href="#DejaVuSans-75" transform="translate(149.720703 0)"/>
      <use xlink:href="#DejaVuSans-65" transform="translate(213.099609 0)"/>
     </g>
    </g>
    <g id="text_19">
     <!-- 1e9 -->
     <g transform="translate(56.50625 29.916562) scale(0.1 -0.1)">
      <use xlink:href="#DejaVuSans-31"/>
      <use xlink:href="#DejaVuSans-65" transform="translate(63.623047 0)"/>
      <use xlink:href="#DejaVuSans-39" transform="translate(125.146484 0)"/>
     </g>
    </g>
   </g>
   <g id="line2d_17">
    <path d="M 74.206705 156.704837 
L 86.007008 192.248597 
L 97.807311 168.440118 
L 109.607614 181.150539 
L 121.407917 155.093812 
L 133.20822 164.247365 
L 145.008523 155.532416 
L 156.808826 150.784508 
L 168.609129 157.428364 
L 180.409432 150.394275 
L 192.209735 151.054094 
L 204.010038 141.411743 
L 215.810341 159.391246 
L 227.610644 149.658545 
L 239.410947 146.95205 
L 251.21125 133.116897 
L 263.011553 157.762977 
L 274.811856 140.906942 
L 286.612159 161.537929 
L 298.412462 136.141735 
L 310.212765 146.298563 
L 322.013068 133.424941 
L 333.813371 134.564455 
L 345.613674 134.867938 
L 357.413977 143.981477 
L 369.21428 135.769642 
L 381.014583 140.341019 
L 392.814886 135.058844 
L 404.615189 131.005586 
L 416.415492 144.085334 
L 428.215795 123.713626 
" clip-path="url(#pe60f499e1b)" style="fill: none; stroke: #1f77b4; stroke-opacity: 0.2; stroke-width: 1.2; stroke-linecap: square"/>
   </g>
   <g id="line2d_18">
    <path d="M 74.206705 156.704837 
L 86.007008 156.704837 
L 97.807311 156.704837 
L 109.607614 156.704837 
L 121.407917 155.093812 
L 133.20822 155.093812 
L 145.008523 155.093812 
L 156.808826 150.784508 
L 168.609129 150.784508 
L 180.409432 150.394275 
L 192.209735 150.394275 
L 204.010038 141.411743 
L 215.810341 141.411743 
L 227.610644 141.411743 
L 239.410947 141.411743 
L 251.21125 133.116897 
L 263.011553 133.116897 
L 274.811856 133.116897 
L 286.612159 133.116897 
L 298.412462 133.116897 
L 310.212765 133.116897 
L 322.013068 133.116897 
L 333.813371 133.116897 
L 345.613674 133.116897 
L 357.413977 133.116897 
L 369.21428 133.116897 
L 381.014583 133.116897 
L 392.814886 133.116897 
L 404.615189 131.005586 
L 416.415492 131.005586 
L 428.215795 123.713626 
" clip-path="url(#pe60f499e1b)" style="fill: none; stroke: #1f77b4; stroke-width: 2.4; stroke-linecap: square"/>
   </g>
   <g id="line2d_19">
    <path d="M 74.206705 156.704837 
L 86.007008 239.965957 
L 97.807311 202.31908 
L 109.607614 217.473155 
L 121.407917 181.163702 
L 133.20822 176.944259 
L 145.008523 177.631666 
L 156.808826 158.933592 
L 168.609129 175.164643 
L 180.409432 150.070752 
L 192.209735 194.556703 
L 204.010038 149.677334 
L 215.810341 156.361496 
L 227.610644 172.252156 
L 239.410947 137.898042 
L 251.21125 154.496917 
L 263.011553 138.943858 
L 274.811856 177.607189 
L 286.612159 127.59515 
L 298.412462 159.213645 
L 310.212765 156.52282 
L 322.013068 149.511996 
L 333.813371 121.676193 
L 345.613674 127.791463 
L 357.413977 103.37333 
L 369.21428 132.534833 
L 381.014583 126.403119 
L 392.814886 113.102205 
L 404.615189 86.254933 
L 416.415492 56.172057 
L 428.215795 109.428262 
" clip-path="url(#pe60f499e1b)" style="fill: none; stroke: #ff7f0e; stroke-opacity: 0.2; stroke-width: 1.2; stroke-linecap: square"/>
   </g>
   <g id="line2d_20">
    <path d="M 74.206705 156.704837 
L 86.007008 156.704837 
L 97.807311 156.704837 
L 109.607614 156.704837 
L 121.407917 156.704837 
L 133.20822 156.704837 
L 145.008523 156.704837 
L 156.808826 156.704837 
L 168.609129 156.704837 
L 180.409432 150.070752 
L 192.209735 150.070752 
L 204.010038 149.677334 
L 215.810341 149.677334 
L 227.610644 149.677334 
L 239.410947 137.898042 
L 251.21125 137.898042 
L 263.011553 137.898042 
L 274.811856 137.898042 
L 286.612159 127.59515 
L 298.412462 127.59515 
L 310.212765 127.59515 
L 322.013068 127.59515 
L 333.813371 121.676193 
L 345.613674 121.676193 
L 357.413977 103.37333 
L 369.21428 103.37333 
L 381.014583 103.37333 
L 392.814886 103.37333 
L 404.615189 86.254933 
L 416.415492 56.172057 
L 428.215795 56.172057 
" clip-path="url(#pe60f499e1b)" style="fill: none; stroke: #ff7f0e; stroke-width: 2.4; stroke-linecap: square"/>
   </g>
   <g id="line2d_21">
    <path d="M 74.206705 156.704837 
L 86.007008 288.047472 
L 97.807311 247.946726 
L 109.607614 241.190973 
L 121.407917 247.536523 
L 133.20822 194.157075 
L 145.008523 210.907161 
L 156.808826 171.390199 
L 168.609129 191.794627 
L 180.409432 197.896129 
L 192.209735 166.675556 
L 204.010038 203.7091 
L 215.810341 170.899766 
L 227.610644 176.238632 
L 239.410947 175.350254 
L 251.21125 128.837801 
L 263.011553 209.537363 
L 274.811856 178.709801 
L 286.612159 172.76395 
L 298.412462 141.523469 
L 310.212765 136.897023 
L 322.013068 132.253312 
L 333.813371 90.972055 
L 345.613674 113.201331 
L 357.413977 86.245705 
L 369.21428 107.772287 
L 381.014583 101.529569 
L 392.814886 69.316338 
L 404.615189 45.065653 
L 416.415492 52.101096 
L 428.215795 127.202196 
" clip-path="url(#pe60f499e1b)" style="fill: none; stroke: #2ca02c; stroke-opacity: 0.2; stroke-width: 1.2; stroke-linecap: square"/>
   </g>
   <g id="line2d_22">
    <path d="M 74.206705 156.704837 
L 86.007008 156.704837 
L 97.807311 156.704837 
L 109.607614 156.704837 
L 121.407917 156.704837 
L 133.20822 156.704837 
L 145.008523 156.704837 
L 156.808826 156.704837 
L 168.609129 156.704837 
L 180.409432 156.704837 
L 192.209735 156.704837 
L 204.010038 156.704837 
L 215.810341 156.704837 
L 227.610644 156.704837 
L 239.410947 156.704837 
L 251.21125 128.837801 
L 263.011553 128.837801 
L 274.811856 128.837801 
L 286.612159 128.837801 
L 298.412462 128.837801 
L 310.212765 128.837801 
L 322.013068 128.837801 
L 333.813371 90.972055 
L 345.613674 90.972055 
L 357.413977 86.245705 
L 369.21428 86.245705 
L 381.014583 86.245705 
L 392.814886 69.316338 
L 404.615189 45.065653 
L 416.415492 45.065653 
L 428.215795 45.065653 
" clip-path="url(#pe60f499e1b)" style="fill: none; stroke: #2ca02c; stroke-width: 2.4; stroke-linecap: square"/>
   </g>
   <g id="patch_3">
    <path d="M 56.50625 300.196563 
L 56.50625 32.916563 
" style="fill: none; stroke: #000000; stroke-width: 0.8; stroke-linejoin: miter; stroke-linecap: square"/>
   </g>
   <g id="patch_4">
    <path d="M 445.91625 300.196563 
L 445.91625 32.916563 
" style="fill: none; stroke: #000000; stroke-width: 0.8; stroke-linejoin: miter; stroke-linecap: square"/>
   </g>
   <g id="patch_5">
    <path d="M 56.50625 300.196562 
L 445.91625 300.196562 
" style="fill: none; stroke: #000000; stroke-width: 0.8; stroke-linejoin: miter; stroke-linecap: square"/>
   </g>
   <g id="patch_6">
    <path d="M 56.50625 32.916562 
L 445.91625 32.916562 
" style="fill: none; stroke: #000000; stroke-width: 0.8; stroke-linejoin: miter; stroke-linecap: square"/>
   </g>
   <g id="text_20">
    <!-- Dual convergence across Polyak settings (T=72, window=12) -->
    <g transform="translate(66.3925 16.318125) scale(0.12 -0.12)">
     <defs>
      <path id="DejaVuSans-44" d="M 1259 4147 
L 1259 519 
L 2022 519 
Q 2988 519 3436 956 
Q 3884 1394 3884 2338 
Q 3884 3275 3436 3711 
Q 2988 4147 2022 4147 
L 1259 4147 
z
M 628 4666 
L 1925 4666 
Q 3281 4666 3915 4102 
Q 4550 3538 4550 2338 
Q 4550 1131 3912 565 
Q 3275 0 1925 0 
L 628 0 
L 628 4666 
z
" transform="scale(0.015625)"/>
      <path id="DejaVuSans-20" transform="scale(0.015625)"/>
      <path id="DejaVuSans-63" d="M 3122 3366 
L 3122 2828 
Q 2878 2963 2633 3030 
Q 2388 3097 2138 3097 
Q 1578 3097 1268 2742 
Q 959 2388 959 1747 
Q 959 1106 1268 751 
Q 1578 397 2138 397 
Q 2388 397 2633 464 
Q 2878 531 3122 666 
L 3122 134 
Q 2881 22 2623 -34 
Q 2366 -91 2075 -91 
Q 1284 -91 818 406 
Q 353 903 353 1747 
Q 353 2603 823 3093 
Q 1294 3584 2113 3584 
Q 2378 3584 2631 3529 
Q 2884 3475 3122 3366 
z
" transform="scale(0.015625)"/>
      <path id="DejaVuSans-76" d="M 191 3500 
L 800 3500 
L 1894 563 
L 2988 3500 
L 3597 3500 
L 2284 0 
L 1503 0 
L 191 3500 
z
" transform="scale(0.015625)"/>
      <path id="DejaVuSans-67" d="M 2906 1791 
Q 2906 2416 2648 2759 
Q 2391 3103 1925 3103 
Q 1463 3103 1205 2759 
Q 947 2416 947 1791 
Q 947 1169 1205 825 
Q 1463 481 1925 481 
Q 2391 481 2648 825 
Q 2906 1169 2906 1791 
z
M 3481 434 
Q 3481 -459 3084 -895 
Q 2688 -1331 1869 -1331 
Q 1566 -1331 1297 -1286 
Q 1028 -1241 775 -1147 
L 775 -588 
Q 1028 -725 1275 -790 
Q 1522 -856 1778 -856 
Q 2344 -856 2625 -561 
Q 2906 -266 2906 331 
L 2906 616 
Q 2728 306 2450 153 
Q 2172 0 1784 0 
Q 1141 0 747 490 
Q 353 981 353 1791 
Q 353 2603 747 3093 
Q 1141 3584 1784 3584 
Q 2172 3584 2450 3431 
Q 2728 3278 2906 2969 
L 2906 3500 
L 3481 3500 
L 3481 434 
z
" transform="scale(0.015625)"/>
      <path id="DejaVuSans-73" d="M 2834 3397 
L 2834 2853 
Q 2591 2978 2328 3040 
Q 2066 3103 1784 3103 
Q 1356 3103 1142 2972 
Q 928 2841 928 2578 
Q 928 2378 1081 2264 
Q 1234 2150 1697 2047 
L 1894 2003 
Q 2506 1872 2764 1633 
Q 3022 1394 3022 966 
Q 3022 478 2636 193 
Q 2250 -91 1575 -91 
Q 1294 -91 989 -36 
Q 684 19 347 128 
L 347 722 
Q 666 556 975 473 
Q 1284 391 1588 391 
Q 1994 391 2212 530 
Q 2431 669 2431 922 
Q 2431 1156 2273 1281 
Q 2116 1406 1581 1522 
L 1381 1569 
Q 847 1681 609 1914 
Q 372 2147 372 2553 
Q 372 3047 722 3315 
Q 1072 3584 1716 3584 
Q 2034 3584 2315 3537 
Q 2597 3491 2834 3397 
z
" transform="scale(0.015625)"/>
      <path id="DejaVuSans-50" d="M 1259 4147 
L 1259 2394 
L 2053 2394 
Q 2494 2394 2734 2622 
Q 2975 2850 2975 3272 
Q 2975 3691 2734 3919 
Q 2494 4147 2053 4147 
L 1259 4147 
z
M 628 4666 
L 2053 4666 
Q 2838 4666 3239 4311 
Q 3641 3956 3641 3272 
Q 3641 2581 3239 2228 
Q 2838 1875 2053 1875 
L 1259 1875 
L 1259 0 
L 628 0 
L 628 4666 
z
" transform="scale(0.015625)"/>
      <path id="DejaVuSans-79" d="M 2059 -325 
Q 1816 -950 1584 -1140 
Q 1353 -1331 966 -1331 
L 506 -1331 
L 506 -850 
L 844 -850 
Q 1081 -850 1212 -737 
Q 1344 -625 1503 -206 
L 1606 56 
L 191 3500 
L 800 3500 
L 1894 763 
L 2988 3500 
L 3597 3500 
L 2059 -325 
z
" transform="scale(0.015625)"/>
      <path id="DejaVuSans-6b" d="M 581 4863 
L 1159 4863 
L 1159 1991 
L 2875 3500 
L 3609 3500 
L 1753 1863 
L 3688 0 
L 2938 0 
L 1159 1709 
L 1159 0 
L 581 0 
L 581 4863 
z
" transform="scale(0.015625)"/>
      <path id="DejaVuSans-28" d="M 1984 4856 
Q 1566 4138 1362 3434 
Q 1159 2731 1159 2009 
Q 1159 1288 1364 580 
Q 1569 -128 1984 -844 
L 1484 -844 
Q 1016 -109 783 600 
Q 550 1309 550 2009 
Q 550 2706 781 3412 
Q 1013 4119 1484 4856 
L 1984 4856 
z
" transform="scale(0.015625)"/>
      <path id="DejaVuSans-54" d="M -19 4666 
L 3928 4666 
L 3928 4134 
L 2272 4134 
L 2272 0 
L 1638 0 
L 1638 4134 
L -19 4134 
L -19 4666 
z
" transform="scale(0.015625)"/>
      <path id="DejaVuSans-3d" d="M 678 2906 
L 4684 2906 
L 4684 2381 
L 678 2381 
L 678 2906 
z
M 678 1631 
L 4684 1631 
L 4684 1100 
L 678 1100 
L 678 1631 
z
" transform="scale(0.015625)"/>
      <path id="DejaVuSans-37" d="M 525 4666 
L 3525 4666 
L 3525 4397 
L 1831 0 
L 1172 0 
L 2766 4134 
L 525 4134 
L 525 4666 
z
" transform="scale(0.015625)"/>
      <path id="DejaVuSans-2c" d="M 750 794 
L 1409 794 
L 1409 256 
L 897 -744 
L 494 -744 
L 750 256 
L 750 794 
z
" transform="scale(0.015625)"/>
      <path id="DejaVuSans-77" d="M 269 3500 
L 844 3500 
L 1563 769 
L 2278 3500 
L 2956 3500 
L 3675 769 
L 4391 3500 
L 4966 3500 
L 4050 0 
L 3372 0 
L 2619 2869 
L 1863 0 
L 1184 0 
L 269 3500 
z
" transform="scale(0.015625)"/>
      <path id="DejaVuSans-64" d="M 2906 2969 
L 2906 4863 
L 3481 4863 
L 3481 0 
L 2906 0 
L 2906 525 
Q 2725 213 2448 61 
Q 2172 -91 1784 -91 
Q 1150 -91 751 415 
Q 353 922 353 1747 
Q 353 2572 751 3078 
Q 1150 3584 1784 3584 
Q 2172 3584 2448 3432 
Q 2725 3281 2906 2969 
z
M 947 1747 
Q 947 1113 1208 752 
Q 1469 391 1925 391 
Q 2381 391 2643 752 
Q 2906 1113 2906 1747 
Q 2906 2381 2643 2742 
Q 2381 3103 1925 3103 
Q 1469 3103 1208 2742 
Q 947 2381 947 1747 
z
" transform="scale(0.015625)"/>
      <path id="DejaVuSans-29" d="M 513 4856 
L 1013 4856 
Q 1481 4119 1714 3412 
Q 1947 2706 1947 2009 
Q 1947 1309 1714 600 
Q 1481 -109 1013 -844 
L 513 -844 
Q 928 -128 1133 580 
Q 1338 1288 1338 2009 
Q 1338 2731 1133 3434 
Q 928 4138 513 4856 
z
" transform="scale(0.015625)"/>
     </defs>
     <use xlink:href="#DejaVuSans-44"/>
     <use xlink:href="#DejaVuSans-75" transform="translate(77.001953 0)"/>
     <use xlink:href="#DejaVuSans-61" transform="translate(140.380859 0)"/>
     <use xlink:href="#DejaVuSans-6c" transform="translate(201.660156 0)"/>
     <use xlink:href="#DejaVuSans-20" transform="translate(229.443359 0)"/>
     <use xlink:href="#DejaVuSans-63" transform="translate(261.230469 0)"/>
     <use xlink:href="#DejaVuSans-6f" transform="translate(316.210938 0)"/>
     <use xlink:href="#DejaVuSans-6e" transform="translate(377.392578 0)"/>
     <use xlink:href="#DejaVuSans-76" transform="translate(440.771484 0)"/>
     <use xlink:href="#DejaVuSans-65" transform="translate(499.951172 0)"/>
     <use xlink:href="#DejaVuSans-72" transform="translate(561.474609 0)"/>
     <use xlink:href="#DejaVuSans-67" transform="translate(600.837891 0)"/>
     <use xlink:href="#DejaVuSans-65" transform="translate(664.314453 0)"/>
     <use xlink:href="#DejaVuSans-6e" transform="translate(725.837891 0)"/>
     <use xlink:href="#DejaVuSans-63" transform="translate(789.216797 0)"/>
     <use xlink:href="#DejaVuSans-65" transform="translate(844.197266 0)"/>
     <use xlink:href="#DejaVuSans-20" transform="translate(905.720703 0)"/>
     <use xlink:href="#DejaVuSans-61" transform="translate(937.507812 0)"/>
     <use xlink:href="#DejaVuSans-63" transform="translate(998.787109 0)"/>
     <use xlink:href="#DejaVuSans-72" transform="translate(1053.767578 0)"/>
     <use xlink:href="#DejaVuSans-6f" transform="translate(1092.630859 0)"/>
     <use xlink:href="#DejaVuSans-73" transform="translate(1153.8125 0)"/>
     <use xlink:href="#DejaVuSans-73" transform="translate(1205.912109 0)"/>
     <use xlink:href="#DejaVuSans-20" transform="translate(1258.011719 0)"/>
     <use xlink:href="#DejaVuSans-50" transform="translate(1289.798828 0)"/>
     <use xlink:href="#DejaVuSans-6f" transform="translate(1346.476562 0)"/>
     <use xlink:href="#DejaVuSans-6c" transform="translate(1407.658203 0)"/>
     <use xlink:href="#DejaVuSans-79" transform="translate(1435.441406 0)"/>
     <use xlink:href="#DejaVuSans-61" transform="translate(1494.621094 0)"/>
     <use xlink:href="#DejaVuSans-6b" transform="translate(1555.900391 0)"/>
     <use xlink:href="#DejaVuSans-20" transform="translate(1613.810547 0)"/>
     <use xlink:href="#DejaVuSans-73" transform="translate(1645.597656 0)"/>
     <use xlink:href="#DejaVuSans-65" transform="translate(1697.697266 0)"/>
     <use xlink:href="#DejaVuSans-74" transform="translate(1759.220703 0)"/>
     <use xlink:href="#DejaVuSans-74" transform="translate(1798.429688 0)"/>
     <use xlink:href="#DejaVuSans-69" transform="translate(1837.638672 0)"/>
     <use xlink:href="#DejaVuSans-6e" transform="translate(1865.421875 0)"/>
     <use xlink:href="#DejaVuSans-67" transform="translate(1928.800781 0)"/>
     <use xlink:href="#DejaVuSans-73" transform="translate(1992.277344 0)"/>
     <use xlink:href="#DejaVuSans-20" transform="translate(2044.376953 0)"/>
     <use xlink:href="#DejaVuSans-28" transform="translate(2076.164062 0)"/>
     <use xlink:href="#DejaVuSans-54" transform="translate(2115.177734 0)"/>
     <use xlink:href="#DejaVuSans-3d" transform="translate(2176.261719 0)"/>
     <use xlink:href="#DejaVuSans-37" transform="translate(2260.050781 0)"/>
     <use xlink:href="#DejaVuSans-32" transform="translate(2323.673828 0)"/>
     <use xlink:href="#DejaVuSans-2c" transform="translate(2387.296875 0)"/>
     <use xlink:href="#DejaVuSans-20" transform="translate(2419.083984 0)"/>
     <use xlink:href="#DejaVuSans-77" transform="translate(2450.871094 0)"/>
     <use xlink:href="#DejaVuSans-69" transform="translate(2532.658203 0)"/>
     <use xlink:href="#DejaVuSans-6e" transform="translate(2560.441406 0)"/>
     <use xlink:href="#DejaVuSans-64" transform="translate(2623.820312 0)"/>
     <use xlink:href="#DejaVuSans-6f" transform="translate(2687.296875 0)"/>
     <use xlink:href="#DejaVuSans-77" transform="translate(2748.478516 0)"/>
     <use xlink:href="#DejaVuSans-3d" transform="translate(2830.265625 0)"/>
     <use xlink:href="#DejaVuSans-31" transform="translate(2914.054688 0)"/>
     <use xlink:href="#DejaVuSans-32" transform="translate(2977.677734 0)"/>
     <use xlink:href="#DejaVuSans-29" transform="translate(3041.300781 0)"/>
    </g>
   </g>
   <g id="legend_1">
    <g id="patch_7">
     <path d="M 341.429062 295.696562 
L 439.61625 295.696562 
Q 441.41625 295.696562 441.41625 293.896562 
L 441.41625 247.017812 
Q 441.41625 245.217812 439.61625 245.217812 
L 341.429062 245.217812 
Q 339.629062 245.217812 339.629062 247.017812 
L 339.629062 293.896562 
Q 339.629062 295.696562 341.429062 295.696562 
z
" style="fill: #ffffff; opacity: 0.9; stroke: #cccccc; stroke-linejoin: miter"/>
    </g>
    <g id="line2d_23">
     <path d="M 345.029062 255.822344 
L 354.029062 255.822344 
L 363.029062 255.822344 
" style="fill: none; stroke: #1f77b4; stroke-width: 2.4; stroke-linecap: square"/>
    </g>
    <g id="text_21">
     <!-- γ=0.2, ĥγ=1.0 -->
     <g transform="translate(370.229062 258.972344) scale(0.09 -0.09)">
      <defs>
       <path id="DejaVuSans-3b3" d="M 1128 2950 
L 1894 788 
L 2988 3500 
L 3597 3500 
L 2181 0 
L 2181 -1331 
L 1606 -1331 
L 1606 0 
L 688 2613 
Q 550 3006 253 3006 
L 100 3006 
L 100 3500 
L 319 3500 
Q 934 3500 1128 2950 
z
" transform="scale(0.015625)"/>
       <path id="DejaVuSans-125" d="M 575 5941 
L 1163 5941 
L 1822 5110 
L 1388 5110 
L 869 5666 
L 350 5110 
L -84 5110 
L 575 5941 
z
M 3513 2113 
L 3513 0 
L 2938 0 
L 2938 2094 
Q 2938 2591 2744 2837 
Q 2550 3084 2163 3084 
Q 1697 3084 1428 2787 
Q 1159 2491 1159 1978 
L 1159 0 
L 581 0 
L 581 4863 
L 1159 4863 
L 1159 2956 
Q 1366 3272 1645 3428 
Q 1925 3584 2291 3584 
Q 2894 3584 3203 3211 
Q 3513 2838 3513 2113 
z
" transform="scale(0.015625)"/>
      </defs>
      <use xlink:href="#DejaVuSans-3b3"/>
      <use xlink:href="#DejaVuSans-3d" transform="translate(59.179688 0)"/>
      <use xlink:href="#DejaVuSans-30" transform="translate(142.96875 0)"/>
      <use xlink:href="#DejaVuSans-2e" transform="translate(206.591797 0)"/>
      <use xlink:href="#DejaVuSans-32" transform="translate(238.378906 0)"/>
      <use xlink:href="#DejaVuSans-2c" transform="translate(302.001953 0)"/>
      <use xlink:href="#DejaVuSans-20" transform="translate(333.789062 0)"/>
      <use xlink:href="#DejaVuSans-125" transform="translate(365.576172 0)"/>
      <use xlink:href="#DejaVuSans-3b3" transform="translate(428.955078 0)"/>
      <use xlink:href="#DejaVuSans-3d" transform="translate(488.134766 0)"/>
      <use xlink:href="#DejaVuSans-31" transform="translate(571.923828 0)"/>
      <use xlink:href="#DejaVuSans-2e" transform="translate(635.546875 0)"/>
      <use xlink:href="#DejaVuSans-30" transform="translate(667.333984 0)"/>
     </g>
    </g>
    <g id="line2d_24">
     <path d="M 345.029062 270.548594 
L 354.029062 270.548594 
L 363.029062 270.548594 
" style="fill: none; stroke: #ff7f0e; stroke-width: 2.4; stroke-linecap: square"/>
    </g>
    <g id="text_22">
     <!-- γ=0.4, ĥγ=1.0 -->
     <g transform="translate(370.229062 273.698594) scale(0.09 -0.09)">
      <defs>
       <path id="DejaVuSans-34" d="M 2419 4116 
L 825 1625 
L 2419 1625 
L 2419 4116 
z
M 2253 4666 
L 3047 4666 
L 3047 1625 
L 3713 1625 
L 3713 1100 
L 3047 1100 
L 3047 0 
L 2419 0 
L 2419 1100 
L 313 1100 
L 313 1709 
L 2253 4666 
z
" transform="scale(0.015625)"/>
      </defs>
      <use xlink:href="#DejaVuSans-3b3"/>
      <use xlink:href="#DejaVuSans-3d" transform="translate(59.179688 0)"/>
      <use xlink:href="#DejaVuSans-30" transform="translate(142.96875 0)"/>
      <use xlink:href="#DejaVuSans-2e" transform="translate(206.591797 0)"/>
      <use xlink:href="#DejaVuSans-34" transform="translate(238.378906 0)"/>
      <use xlink:href="#DejaVuSans-2c" transform="translate(302.001953 0)"/>
      <use xlink:href="#DejaVuSans-20" transform="translate(333.789062 0)"/>
      <use xlink:href="#DejaVuSans-125" transform="translate(365.576172 0)"/>
      <use xlink:href="#DejaVuSans-3b3" transform="translate(428.955078 0)"/>
      <use xlink:href="#DejaVuSans-3d" transform="translate(488.134766 0)"/>
      <use xlink:href="#DejaVuSans-31" transform="translate(571.923828 0)"/>
      <use xlink:href="#DejaVuSans-2e" transform="translate(635.546875 0)"/>
      <use xlink:href="#DejaVuSans-30" transform="translate(667.333984 0)"/>
     </g>
    </g>
    <g id="line2d_25">
     <path d="M 345.029062 285.274844 
L 354.029062 285.274844 
L 363.029062 285.274844 
" style="fill: none; stroke: #2ca02c; stroke-width: 2.4; stroke-linecap: square"/>
    </g>
    <g id="text_23">
     <!-- γ=0.6, ĥγ=1.0 -->
     <g transform="translate(370.229062 288.424844) scale(0.09 -0.09)">
      <defs>
       <path id="DejaVuSans-36" d="M 2113 2584 
Q 1688 2584 1439 2293 
Q 1191 2003 1191 1497 
Q 1191 994 1439 701 
Q 1688 409 2113 409 
Q 2538 409 2786 701 
Q 3034 994 3034 1497 
Q 3034 2003 2786 2293 
Q 2538 2584 2113 2584 
z
M 3366 4563 
L 3366 3988 
Q 3128 4100 2886 4159 
Q 2644 4219 2406 4219 
Q 1781 4219 1451 3797 
Q 1122 3375 1075 2522 
Q 1259 2794 1537 2939 
Q 1816 3084 2150 3084 
Q 2853 3084 3261 2657 
Q 3669 2231 3669 1497 
Q 3669 778 3244 343 
Q 2819 -91 2113 -91 
Q 1303 -91 875 529 
Q 447 1150 447 2328 
Q 447 3434 972 4092 
Q 1497 4750 2381 4750 
Q 2619 4750 2861 4703 
Q 3103 4656 3366 4563 
z
" transform="scale(0.015625)"/>
      </defs>
      <use xlink:href="#DejaVuSans-3b3"/>
      <use xlink:href="#DejaVuSans-3d" transform="translate(59.179688 0)"/>
      <use xlink:href="#DejaVuSans-30" transform="translate(142.96875 0)"/>
      <use xlink:href="#DejaVuSans-2e" transform="translate(206.591797 0)"/>
      <use xlink:href="#DejaVuSans-36" transform="translate(238.378906 0)"/>
      <use xlink:href="#DejaVuSans-2c" transform="translate(302.001953 0)"/>
      <use xlink:href="#DejaVuSans-20" transform="translate(333.789062 0)"/>
      <use xlink:href="#DejaVuSans-125" transform="translate(365.576172 0)"/>
      <use xlink:href="#DejaVuSans-3b3" transform="translate(428.955078 0)"/>
      <use xlink:href="#DejaVuSans-3d" transform="translate(488.134766 0)"/>
      <use xlink:href="#DejaVuSans-31" transform="translate(571.923828 0)"/>
      <use xlink:href="#DejaVuSans-2e" transform="translate(635.546875 0)"/>
      <use xlink:href="#DejaVuSans-30" transform="translate(667.333984 0)"/>
     </g>
    </g>
   </g>
  </g>
 </g>
 <defs>
  <clipPath id="pe60f499e1b">
   <rect x="56.50625" y="32.916562" width="389.41" height="267.28"/>
  </clipPath>
 </defs>
</svg>
