<?xml version="1.0" encoding="utf-8" standalone="no"?>
<!DOCTYPE svg PUBLIC "-//W3C//DTD SVG 1.1//EN"
  "http://www.w3.org/Graphics/SVG/1.1/DTD/svg11.dtd">
<svg xmlns:xlink="http://www.w3.org/1999/xlink" width="720pt" height="432pt" viewBox="0 0 720 432" xmlns="http://www.w3.org/2000/svg" version="1.1">
 <metadata>
  <rdf:RDF xmlns:dc="http://purl.org/dc/elements/1.1/" xmlns:cc="http://creativecommons.org/ns#" xmlns:rdf="http://www.w3.org/1999/02/22-rdf-syntax-ns#">
   <cc:Work>
    <dc:type rdf:resource="http://purl.org/dc/dcmitype/StillImage"/>
    <dc:date>2025-11-12T13:09:12.571330</dc:date>
    <dc:format>image/svg+xml</dc:format>
    <dc:creator>
     <cc:Agent>
      <dc:title>Matplotlib v3.10.0, https://matplotlib.org/</dc:title>
     </cc:Agent>
    </dc:creator>
   </cc:Work>
  </rdf:RDF>
 </metadata>
 <defs>
  <style type="text/css">*{stroke-linejoin: round; stroke-linecap: butt}</style>
 </defs>
 <g id="figure_1">
  <g id="patch_1">
   <path d="M 0 432 
L 720 432 
L 720 0 
L 0 0 
z
" style="fill: #ffffff"/>
  </g>
  <g id="axes_1">
   <g id="patch_2">
    <path d="M 51.05 390.04 
L 703.779179 390.04 
L 703.779179 25.44 
L 51.05 25.44 
z
" style="fill: #ffffff"/>
   </g>
   <g id="matplotlib.axis_1">
    <g id="xtick_1">
     <g id="line2d_1">
      <defs>
       <path id="m3bbce8f4c5" d="M 0 0 
L 0 3.5 
" style="stroke: #000000; stroke-width: 0.8"/>
      </defs>
      <g>
       <use xlink:href="#m3bbce8f4c5" x="78.948194" y="390.04" style="stroke: #000000; stroke-width: 0.8"/>
      </g>
     </g>
     <g id="text_1">
      <!-- 0 -->
      <g transform="translate(75.766944 404.638438) scale(0.1 -0.1)">
       <defs>
        <path id="DejaVuSans-30" d="M 2034 4250 
Q 1547 4250 1301 3770 
Q 1056 3291 1056 2328 
Q 1056 1369 1301 889 
Q 1547 409 2034 409 
Q 2525 409 2770 889 
Q 3016 1369 3016 2328 
Q 3016 3291 2770 3770 
Q 2525 4250 2034 4250 
z
M 2034 4750 
Q 2819 4750 3233 4129 
Q 3647 3509 3647 2328 
Q 3647 1150 3233 529 
Q 2819 -91 2034 -91 
Q 1250 -91 836 529 
Q 422 1150 422 2328 
Q 422 3509 836 4129 
Q 1250 4750 2034 4750 
z
" transform="scale(0.015625)"/>
       </defs>
       <use xlink:href="#DejaVuSans-30"/>
      </g>
     </g>
    </g>
    <g id="xtick_2">
     <g id="line2d_2">
      <g>
       <use xlink:href="#m3bbce8f4c5" x="167.51389" y="390.04" style="stroke: #000000; stroke-width: 0.8"/>
      </g>
     </g>
     <g id="text_2">
      <!-- 50 -->
      <g transform="translate(161.15139 404.638438) scale(0.1 -0.1)">
       <defs>
        <path id="DejaVuSans-35" d="M 691 4666 
L 3169 4666 
L 3169 4134 
L 1269 4134 
L 1269 2991 
Q 1406 3038 1543 3061 
Q 1681 3084 1819 3084 
Q 2600 3084 3056 2656 
Q 3513 2228 3513 1497 
Q 3513 744 3044 326 
Q 2575 -91 1722 -91 
Q 1428 -91 1123 -41 
Q 819 9 494 109 
L 494 744 
Q 775 591 1075 516 
Q 1375 441 1709 441 
Q 2250 441 2565 725 
Q 2881 1009 2881 1497 
Q 2881 1984 2565 2268 
Q 2250 2553 1709 2553 
Q 1456 2553 1204 2497 
Q 953 2441 691 2322 
L 691 4666 
z
" transform="scale(0.015625)"/>
       </defs>
       <use xlink:href="#DejaVuSans-35"/>
       <use xlink:href="#DejaVuSans-30" transform="translate(63.623047 0)"/>
      </g>
     </g>
    </g>
    <g id="xtick_3">
     <g id="line2d_3">
      <g>
       <use xlink:href="#m3bbce8f4c5" x="256.079586" y="390.04" style="stroke: #000000; stroke-width: 0.8"/>
      </g>
     </g>
     <g id="text_3">
      <!-- 100 -->
      <g transform="translate(246.535836 404.638438) scale(0.1 -0.1)">
       <defs>
        <path id="DejaVuSans-31" d="M 794 531 
L 1825 531 
L 1825 4091 
L 703 3866 
L 703 4441 
L 1819 4666 
L 2450 4666 
L 2450 531 
L 3481 531 
L 3481 0 
L 794 0 
L 794 531 
z
" transform="scale(0.015625)"/>
       </defs>
       <use xlink:href="#DejaVuSans-31"/>
       <use xlink:href="#DejaVuSans-30" transform="translate(63.623047 0)"/>
       <use xlink:href="#DejaVuSans-30" transform="translate(127.246094 0)"/>
      </g>
     </g>
    </g>
    <g id="xtick_4">
     <g id="line2d_4">
      <g>
       <use xlink:href="#m3bbce8f4c5" x="344.645282" y="390.04" style="stroke: #000000; stroke-width: 0.8"/>
      </g>
     </g>
     <g id="text_4">
      <!-- 150 -->
      <g transform="translate(335.101532 404.638438) scale(0.1 -0.1)">
       <use xlink:href="#DejaVuSans-31"/>
       <use xlink:href="#DejaVuSans-35" transform="translate(63.623047 0)"/>
       <use xlink:href="#DejaVuSans-30" transform="translate(127.246094 0)"/>
      </g>
     </g>
    </g>
    <g id="xtick_5">
     <g id="line2d_5">
      <g>
       <use xlink:href="#m3bbce8f4c5" x="433.210978" y="390.04" style="stroke: #000000; stroke-width: 0.8"/>
      </g>
     </g>
     <g id="text_5">
      <!-- 200 -->
      <g transform="translate(423.667228 404.638438) scale(0.1 -0.1)">
       <defs>
        <path id="DejaVuSans-32" d="M 1228 531 
L 3431 531 
L 3431 0 
L 469 0 
L 469 531 
Q 828 903 1448 1529 
Q 2069 2156 2228 2338 
Q 2531 2678 2651 2914 
Q 2772 3150 2772 3378 
Q 2772 3750 2511 3984 
Q 2250 4219 1831 4219 
Q 1534 4219 1204 4116 
Q 875 4013 500 3803 
L 500 4441 
Q 881 4594 1212 4672 
Q 1544 4750 1819 4750 
Q 2544 4750 2975 4387 
Q 3406 4025 3406 3419 
Q 3406 3131 3298 2873 
Q 3191 2616 2906 2266 
Q 2828 2175 2409 1742 
Q 1991 1309 1228 531 
z
" transform="scale(0.015625)"/>
       </defs>
       <use xlink:href="#DejaVuSans-32"/>
       <use xlink:href="#DejaVuSans-30" transform="translate(63.623047 0)"/>
       <use xlink:href="#DejaVuSans-30" transform="translate(127.246094 0)"/>
      </g>
     </g>
    </g>
    <g id="xtick_6">
     <g id="line2d_6">
      <g>
       <use xlink:href="#m3bbce8f4c5" x="521.776674" y="390.04" style="stroke: #000000; stroke-width: 0.8"/>
      </g>
     </g>
     <g id="text_6">
      <!-- 250 -->
      <g transform="translate(512.232924 404.638438) scale(0.1 -0.1)">
       <use xlink:href="#DejaVuSans-32"/>
       <use xlink:href="#DejaVuSans-35" transform="translate(63.623047 0)"/>
       <use xlink:href="#DejaVuSans-30" transform="translate(127.246094 0)"/>
      </g>
     </g>
    </g>
    <g id="xtick_7">
     <g id="line2d_7">
      <g>
       <use xlink:href="#m3bbce8f4c5" x="610.34237" y="390.04" style="stroke: #000000; stroke-width: 0.8"/>
      </g>
     </g>
     <g id="text_7">
      <!-- 300 -->
      <g transform="translate(600.79862 404.638438) scale(0.1 -0.1)">
       <defs>
        <path id="DejaVuSans-33" d="M 2597 2516 
Q 3050 2419 3304 2112 
Q 3559 1806 3559 1356 
Q 3559 666 3084 287 
Q 2609 -91 1734 -91 
Q 1441 -91 1130 -33 
Q 819 25 488 141 
L 488 750 
Q 750 597 1062 519 
Q 1375 441 1716 441 
Q 2309 441 2620 675 
Q 2931 909 2931 1356 
Q 2931 1769 2642 2001 
Q 2353 2234 1838 2234 
L 1294 2234 
L 1294 2753 
L 1863 2753 
Q 2328 2753 2575 2939 
Q 2822 3125 2822 3475 
Q 2822 3834 2567 4026 
Q 2313 4219 1838 4219 
Q 1578 4219 1281 4162 
Q 984 4106 628 3988 
L 628 4550 
Q 988 4650 1302 4700 
Q 1616 4750 1894 4750 
Q 2613 4750 3031 4423 
Q 3450 4097 3450 3541 
Q 3450 3153 3228 2886 
Q 3006 2619 2597 2516 
z
" transform="scale(0.015625)"/>
       </defs>
       <use xlink:href="#DejaVuSans-33"/>
       <use xlink:href="#DejaVuSans-30" transform="translate(63.623047 0)"/>
       <use xlink:href="#DejaVuSans-30" transform="translate(127.246094 0)"/>
      </g>
     </g>
    </g>
    <g id="xtick_8">
     <g id="line2d_8">
      <g>
       <use xlink:href="#m3bbce8f4c5" x="698.908066" y="390.04" style="stroke: #000000; stroke-width: 0.8"/>
      </g>
     </g>
     <g id="text_8">
      <!-- 350 -->
      <g transform="translate(689.364316 404.638438) scale(0.1 -0.1)">
       <use xlink:href="#DejaVuSans-33"/>
       <use xlink:href="#DejaVuSans-35" transform="translate(63.623047 0)"/>
       <use xlink:href="#DejaVuSans-30" transform="translate(127.246094 0)"/>
      </g>
     </g>
    </g>
    <g id="text_9">
     <!-- Time (t) -->
     <g transform="translate(357.730215 418.316562) scale(0.1 -0.1)">
      <defs>
       <path id="DejaVuSans-54" d="M -19 4666 
L 3928 4666 
L 3928 4134 
L 2272 4134 
L 2272 0 
L 1638 0 
L 1638 4134 
L -19 4134 
L -19 4666 
z
" transform="scale(0.015625)"/>
       <path id="DejaVuSans-69" d="M 603 3500 
L 1178 3500 
L 1178 0 
L 603 0 
L 603 3500 
z
M 603 4863 
L 1178 4863 
L 1178 4134 
L 603 4134 
L 603 4863 
z
" transform="scale(0.015625)"/>
       <path id="DejaVuSans-6d" d="M 3328 2828 
Q 3544 3216 3844 3400 
Q 4144 3584 4550 3584 
Q 5097 3584 5394 3201 
Q 5691 2819 5691 2113 
L 5691 0 
L 5113 0 
L 5113 2094 
Q 5113 2597 4934 2840 
Q 4756 3084 4391 3084 
Q 3944 3084 3684 2787 
Q 3425 2491 3425 1978 
L 3425 0 
L 2847 0 
L 2847 2094 
Q 2847 2600 2669 2842 
Q 2491 3084 2119 3084 
Q 1678 3084 1418 2786 
Q 1159 2488 1159 1978 
L 1159 0 
L 581 0 
L 581 3500 
L 1159 3500 
L 1159 2956 
Q 1356 3278 1631 3431 
Q 1906 3584 2284 3584 
Q 2666 3584 2933 3390 
Q 3200 3197 3328 2828 
z
" transform="scale(0.015625)"/>
       <path id="DejaVuSans-65" d="M 3597 1894 
L 3597 1613 
L 953 1613 
Q 991 1019 1311 708 
Q 1631 397 2203 397 
Q 2534 397 2845 478 
Q 3156 559 3463 722 
L 3463 178 
Q 3153 47 2828 -22 
Q 2503 -91 2169 -91 
Q 1331 -91 842 396 
Q 353 884 353 1716 
Q 353 2575 817 3079 
Q 1281 3584 2069 3584 
Q 2775 3584 3186 3129 
Q 3597 2675 3597 1894 
z
M 3022 2063 
Q 3016 2534 2758 2815 
Q 2500 3097 2075 3097 
Q 1594 3097 1305 2825 
Q 1016 2553 972 2059 
L 3022 2063 
z
" transform="scale(0.015625)"/>
       <path id="DejaVuSans-20" transform="scale(0.015625)"/>
       <path id="DejaVuSans-28" d="M 1984 4856 
Q 1566 4138 1362 3434 
Q 1159 2731 1159 2009 
Q 1159 1288 1364 580 
Q 1569 -128 1984 -844 
L 1484 -844 
Q 1016 -109 783 600 
Q 550 1309 550 2009 
Q 550 2706 781 3412 
Q 1013 4119 1484 4856 
L 1984 4856 
z
" transform="scale(0.015625)"/>
       <path id="DejaVuSans-74" d="M 1172 4494 
L 1172 3500 
L 2356 3500 
L 2356 3053 
L 1172 3053 
L 1172 1153 
Q 1172 725 1289 603 
Q 1406 481 1766 481 
L 2356 481 
L 2356 0 
L 1766 0 
Q 1100 0 847 248 
Q 594 497 594 1153 
L 594 3053 
L 172 3053 
L 172 3500 
L 594 3500 
L 594 4494 
L 1172 4494 
z
" transform="scale(0.015625)"/>
       <path id="DejaVuSans-29" d="M 513 4856 
L 1013 4856 
Q 1481 4119 1714 3412 
Q 1947 2706 1947 2009 
Q 1947 1309 1714 600 
Q 1481 -109 1013 -844 
L 513 -844 
Q 928 -128 1133 580 
Q 1338 1288 1338 2009 
Q 1338 2731 1133 3434 
Q 928 4138 513 4856 
z
" transform="scale(0.015625)"/>
      </defs>
      <use xlink:href="#DejaVuSans-54"/>
      <use xlink:href="#DejaVuSans-69" transform="translate(57.958984 0)"/>
      <use xlink:href="#DejaVuSans-6d" transform="translate(85.742188 0)"/>
      <use xlink:href="#DejaVuSans-65" transform="translate(183.154297 0)"/>
      <use xlink:href="#DejaVuSans-20" transform="translate(244.677734 0)"/>
      <use xlink:href="#DejaVuSans-28" transform="translate(276.464844 0)"/>
      <use xlink:href="#DejaVuSans-74" transform="translate(315.478516 0)"/>
      <use xlink:href="#DejaVuSans-29" transform="translate(354.6875 0)"/>
     </g>
    </g>
   </g>
   <g id="matplotlib.axis_2">
    <g id="ytick_1">
     <g id="line2d_9">
      <defs>
       <path id="mf1cd88fd18" d="M 0 0 
L -3.5 0 
" style="stroke: #000000; stroke-width: 0.8"/>
      </defs>
      <g>
       <use xlink:href="#mf1cd88fd18" x="51.05" y="373.467273" style="stroke: #000000; stroke-width: 0.8"/>
      </g>
     </g>
     <g id="text_10">
      <!-- 0 -->
      <g transform="translate(37.6875 377.266491) scale(0.1 -0.1)">
       <use xlink:href="#DejaVuSans-30"/>
      </g>
     </g>
    </g>
    <g id="ytick_2">
     <g id="line2d_10">
      <g>
       <use xlink:href="#mf1cd88fd18" x="51.05" y="323.237192" style="stroke: #000000; stroke-width: 0.8"/>
      </g>
     </g>
     <g id="text_11">
      <!-- 50 -->
      <g transform="translate(31.325 327.036411) scale(0.1 -0.1)">
       <use xlink:href="#DejaVuSans-35"/>
       <use xlink:href="#DejaVuSans-30" transform="translate(63.623047 0)"/>
      </g>
     </g>
    </g>
    <g id="ytick_3">
     <g id="line2d_11">
      <g>
       <use xlink:href="#mf1cd88fd18" x="51.05" y="273.007111" style="stroke: #000000; stroke-width: 0.8"/>
      </g>
     </g>
     <g id="text_12">
      <!-- 100 -->
      <g transform="translate(24.9625 276.80633) scale(0.1 -0.1)">
       <use xlink:href="#DejaVuSans-31"/>
       <use xlink:href="#DejaVuSans-30" transform="translate(63.623047 0)"/>
       <use xlink:href="#DejaVuSans-30" transform="translate(127.246094 0)"/>
      </g>
     </g>
    </g>
    <g id="ytick_4">
     <g id="line2d_12">
      <g>
       <use xlink:href="#mf1cd88fd18" x="51.05" y="222.777031" style="stroke: #000000; stroke-width: 0.8"/>
      </g>
     </g>
     <g id="text_13">
      <!-- 150 -->
      <g transform="translate(24.9625 226.576249) scale(0.1 -0.1)">
       <use xlink:href="#DejaVuSans-31"/>
       <use xlink:href="#DejaVuSans-35" transform="translate(63.623047 0)"/>
       <use xlink:href="#DejaVuSans-30" transform="translate(127.246094 0)"/>
      </g>
     </g>
    </g>
    <g id="ytick_5">
     <g id="line2d_13">
      <g>
       <use xlink:href="#mf1cd88fd18" x="51.05" y="172.54695" style="stroke: #000000; stroke-width: 0.8"/>
      </g>
     </g>
     <g id="text_14">
      <!-- 200 -->
      <g transform="translate(24.9625 176.346169) scale(0.1 -0.1)">
       <use xlink:href="#DejaVuSans-32"/>
       <use xlink:href="#DejaVuSans-30" transform="translate(63.623047 0)"/>
       <use xlink:href="#DejaVuSans-30" transform="translate(127.246094 0)"/>
      </g>
     </g>
    </g>
    <g id="ytick_6">
     <g id="line2d_14">
      <g>
       <use xlink:href="#mf1cd88fd18" x="51.05" y="122.316869" style="stroke: #000000; stroke-width: 0.8"/>
      </g>
     </g>
     <g id="text_15">
      <!-- 250 -->
      <g transform="translate(24.9625 126.116088) scale(0.1 -0.1)">
       <use xlink:href="#DejaVuSans-32"/>
       <use xlink:href="#DejaVuSans-35" transform="translate(63.623047 0)"/>
       <use xlink:href="#DejaVuSans-30" transform="translate(127.246094 0)"/>
      </g>
     </g>
    </g>
    <g id="ytick_7">
     <g id="line2d_15">
      <g>
       <use xlink:href="#mf1cd88fd18" x="51.05" y="72.086788" style="stroke: #000000; stroke-width: 0.8"/>
      </g>
     </g>
     <g id="text_16">
      <!-- 300 -->
      <g transform="translate(24.9625 75.886007) scale(0.1 -0.1)">
       <use xlink:href="#DejaVuSans-33"/>
       <use xlink:href="#DejaVuSans-30" transform="translate(63.623047 0)"/>
       <use xlink:href="#DejaVuSans-30" transform="translate(127.246094 0)"/>
      </g>
     </g>
    </g>
    <g id="text_17">
     <!-- SoC -->
     <g transform="translate(18.882812 217.465) rotate(-90) scale(0.1 -0.1)">
      <defs>
       <path id="DejaVuSans-53" d="M 3425 4513 
L 3425 3897 
Q 3066 4069 2747 4153 
Q 2428 4238 2131 4238 
Q 1616 4238 1336 4038 
Q 1056 3838 1056 3469 
Q 1056 3159 1242 3001 
Q 1428 2844 1947 2747 
L 2328 2669 
Q 3034 2534 3370 2195 
Q 3706 1856 3706 1288 
Q 3706 609 3251 259 
Q 2797 -91 1919 -91 
Q 1588 -91 1214 -16 
Q 841 59 441 206 
L 441 856 
Q 825 641 1194 531 
Q 1563 422 1919 422 
Q 2459 422 2753 634 
Q 3047 847 3047 1241 
Q 3047 1584 2836 1778 
Q 2625 1972 2144 2069 
L 1759 2144 
Q 1053 2284 737 2584 
Q 422 2884 422 3419 
Q 422 4038 858 4394 
Q 1294 4750 2059 4750 
Q 2388 4750 2728 4690 
Q 3069 4631 3425 4513 
z
" transform="scale(0.015625)"/>
       <path id="DejaVuSans-6f" d="M 1959 3097 
Q 1497 3097 1228 2736 
Q 959 2375 959 1747 
Q 959 1119 1226 758 
Q 1494 397 1959 397 
Q 2419 397 2687 759 
Q 2956 1122 2956 1747 
Q 2956 2369 2687 2733 
Q 2419 3097 1959 3097 
z
M 1959 3584 
Q 2709 3584 3137 3096 
Q 3566 2609 3566 1747 
Q 3566 888 3137 398 
Q 2709 -91 1959 -91 
Q 1206 -91 779 398 
Q 353 888 353 1747 
Q 353 2609 779 3096 
Q 1206 3584 1959 3584 
z
" transform="scale(0.015625)"/>
       <path id="DejaVuSans-43" d="M 4122 4306 
L 4122 3641 
Q 3803 3938 3442 4084 
Q 3081 4231 2675 4231 
Q 1875 4231 1450 3742 
Q 1025 3253 1025 2328 
Q 1025 1406 1450 917 
Q 1875 428 2675 428 
Q 3081 428 3442 575 
Q 3803 722 4122 1019 
L 4122 359 
Q 3791 134 3420 21 
Q 3050 -91 2638 -91 
Q 1578 -91 968 557 
Q 359 1206 359 2328 
Q 359 3453 968 4101 
Q 1578 4750 2638 4750 
Q 3056 4750 3426 4639 
Q 3797 4528 4122 4306 
z
" transform="scale(0.015625)"/>
      </defs>
      <use xlink:href="#DejaVuSans-53"/>
      <use xlink:href="#DejaVuSans-6f" transform="translate(63.476562 0)"/>
      <use xlink:href="#DejaVuSans-43" transform="translate(124.658203 0)"/>
     </g>
    </g>
   </g>
   <g id="line2d_16">
    <path d="M 80.719508 223.130764 
L 674.109671 223.130764 
L 674.109671 223.130764 
" clip-path="url(#p8f444e2b0d)" style="fill: none; stroke: #1f77b4; stroke-width: 1.8; stroke-linecap: square"/>
   </g>
   <g id="line2d_17">
    <path d="M 80.719508 223.130764 
L 674.109671 223.130764 
L 674.109671 223.130764 
" clip-path="url(#p8f444e2b0d)" style="fill: none; stroke: #ff7f0e; stroke-width: 1.8; stroke-linecap: square"/>
   </g>
   <g id="line2d_18">
    <path d="M 80.719508 223.130764 
L 674.109671 223.130764 
L 674.109671 223.130764 
" clip-path="url(#p8f444e2b0d)" style="fill: none; stroke: #2ca02c; stroke-width: 1.8; stroke-linecap: square"/>
   </g>
   <g id="line2d_19">
    <path d="M 80.719508 223.130764 
L 674.109671 223.130764 
L 674.109671 223.130764 
" clip-path="url(#p8f444e2b0d)" style="fill: none; stroke: #d62728; stroke-width: 1.8; stroke-linecap: square"/>
   </g>
   <g id="line2d_20">
    <path d="M 80.719508 223.130764 
L 82.490822 223.130764 
L 84.262136 233.462592 
L 89.576078 233.462592 
L 91.347392 237.966377 
L 93.118706 249.785421 
L 94.890019 273.292066 
L 96.661333 319.925533 
L 100.203961 319.925533 
L 101.975275 292.309928 
L 105.517903 242.473942 
L 107.289217 202.006273 
L 117.9171 202.006273 
L 119.688414 223.130764 
L 132.087612 223.130764 
L 133.858926 224.760555 
L 140.944181 224.760555 
L 142.715495 207.356876 
L 144.486809 207.356876 
L 146.258123 186.332561 
L 160.428634 186.332561 
L 162.199948 200.826209 
L 174.599146 200.826209 
L 176.37046 204.102494 
L 178.141774 212.737632 
L 181.684402 212.737632 
L 183.455715 180.518111 
L 185.227029 143.439623 
L 186.998343 108.693265 
L 190.540971 108.693265 
L 192.312285 72.794254 
L 204.711482 72.794254 
L 206.482796 128.474443 
L 215.339366 128.474443 
L 217.11068 141.902502 
L 218.881994 167.898329 
L 220.653308 223.578518 
L 222.424622 239.731712 
L 224.195936 247.299669 
L 225.967249 205.205291 
L 227.738563 197.678197 
L 229.509877 197.678197 
L 231.281191 171.875439 
L 233.052505 126.774487 
L 234.823819 119.039797 
L 236.595133 78.377883 
L 238.366447 78.377883 
L 240.137761 120.416534 
L 241.909075 120.416534 
L 243.680389 162.136311 
L 245.451703 217.8165 
L 247.223017 223.130764 
L 256.079586 223.130764 
L 257.8509 225.49966 
L 259.622214 225.49966 
L 261.393528 241.382635 
L 268.478784 241.382635 
L 270.250097 217.972121 
L 272.021411 172.871169 
L 273.792725 147.94745 
L 277.335353 147.94745 
L 279.106667 136.609497 
L 296.819806 136.609497 
L 298.59112 181.295578 
L 300.362434 181.295578 
L 302.133748 203.205533 
L 309.219004 203.205533 
L 310.990318 166.201058 
L 314.532945 166.201058 
L 316.304259 124.974477 
L 318.075573 124.974477 
L 319.846887 107.16201 
L 321.618201 72.794254 
L 330.474771 72.794254 
L 332.246085 87.47088 
L 334.017399 137.65756 
L 335.788712 141.386412 
L 357.044479 141.386412 
L 358.815793 120.154663 
L 360.587107 120.154663 
L 362.358421 85.407565 
L 364.129735 72.794254 
L 371.214991 72.794254 
L 372.986305 81.119447 
L 374.757619 126.070838 
L 376.528933 153.139718 
L 380.07156 153.139718 
L 381.842874 171.399581 
L 383.614188 199.48792 
L 396.013386 199.48792 
L 397.7847 184.896804 
L 399.556014 164.628831 
L 401.327327 121.896673 
L 403.098641 121.896673 
L 404.869955 107.241124 
L 406.641269 72.794254 
L 413.726525 72.794254 
L 415.497839 116.031149 
L 417.269153 143.142956 
L 419.040467 143.142956 
L 420.811781 192.734828 
L 422.583094 192.734828 
L 424.354408 240.839987 
L 426.125722 240.839987 
L 427.897036 265.558278 
L 436.753606 265.558278 
L 438.52492 230.307488 
L 440.296234 230.307488 
L 443.838862 158.330491 
L 447.381489 135.031912 
L 449.152803 102.995796 
L 458.009373 102.995796 
L 459.780687 128.181284 
L 481.036454 128.181284 
L 482.807768 101.883819 
L 484.579082 101.883819 
L 486.350396 76.194103 
L 488.121709 72.794254 
L 514.691418 72.794254 
L 516.462732 128.474443 
L 518.234046 162.780082 
L 520.00536 190.327198 
L 521.776674 190.327198 
L 523.547988 184.965299 
L 525.319302 159.683013 
L 527.090616 159.683013 
L 528.86193 153.610298 
L 530.633244 139.831172 
L 534.175871 72.794254 
L 543.032441 72.794254 
L 544.803755 88.726553 
L 546.575069 144.406741 
L 548.346383 154.80928 
L 550.117697 174.366397 
L 553.660324 174.366397 
L 555.431638 202.99191 
L 557.202952 235.081051 
L 567.830836 235.081051 
L 569.60215 222.527998 
L 571.373464 222.527998 
L 573.144778 183.534533 
L 574.916092 161.326224 
L 576.687405 121.284324 
L 578.458719 92.063936 
L 582.001347 92.063936 
L 583.772661 138.383699 
L 585.543975 167.450575 
L 587.315289 223.130764 
L 589.086603 223.130764 
L 592.629231 332.910576 
L 594.400545 332.910576 
L 596.171859 373.467273 
L 606.799742 373.467273 
L 608.571056 367.003156 
L 610.34237 367.003156 
L 612.113684 340.828759 
L 613.884998 318.814965 
L 615.656312 283.46676 
L 617.427626 283.46676 
L 620.970253 216.342593 
L 628.055509 216.342593 
L 629.826823 223.130764 
L 643.997334 223.130764 
L 645.768648 268.098079 
L 647.539962 268.098079 
L 649.311276 267.097471 
L 651.08259 267.097471 
L 652.853904 230.53874 
L 654.625218 230.53874 
L 656.396532 228.747045 
L 658.167846 213.145364 
L 659.93916 180.826053 
L 661.710474 151.454305 
L 668.795729 151.454305 
L 670.567043 199.320129 
L 672.338357 199.320129 
L 674.109671 223.130764 
L 674.109671 223.130764 
" clip-path="url(#p8f444e2b0d)" style="fill: none; stroke: #9467bd; stroke-width: 1.8; stroke-linecap: square"/>
   </g>
   <g id="line2d_21">
    <path d="M 80.719508 223.130764 
L 674.109671 223.130764 
L 674.109671 223.130764 
" clip-path="url(#p8f444e2b0d)" style="fill: none; stroke: #8c564b; stroke-width: 1.8; stroke-linecap: square"/>
   </g>
   <g id="line2d_22">
    <path d="M 80.719508 72.794254 
L 674.109671 72.794254 
L 674.109671 72.794254 
" clip-path="url(#p8f444e2b0d)" style="fill: none; stroke: #e377c2; stroke-width: 1.8; stroke-linecap: square"/>
   </g>
   <g id="line2d_23">
    <path d="M 80.719508 72.794254 
L 248.99433 72.794254 
L 250.765644 64.882654 
L 252.536958 58.210027 
L 254.308272 52.578636 
L 256.079586 48.3832 
L 257.8509 45.608841 
L 259.622214 44.672559 
L 289.734551 44.672559 
L 291.505864 51.971124 
L 293.277178 51.109712 
L 295.048492 45.34281 
L 296.819806 42.012727 
L 332.246085 42.012727 
L 334.017399 47.61112 
L 459.780687 47.61112 
L 461.552001 63.474273 
L 546.575069 63.474273 
L 548.346383 73.276054 
L 550.117697 73.276054 
L 551.889011 80.678576 
L 553.660324 80.678576 
L 555.431638 86.621681 
L 557.202952 86.621681 
L 560.74558 103.902152 
L 564.288208 103.902152 
L 566.059522 115.431236 
L 567.830836 115.431236 
L 569.60215 123.248024 
L 574.916092 123.248024 
L 576.687405 129.460204 
L 578.458719 129.460204 
L 580.230033 127.320154 
L 583.772661 101.366433 
L 585.543975 86.616171 
L 587.315289 87.598561 
L 589.086603 72.142749 
L 613.884998 72.142749 
L 615.656312 72.794254 
L 674.109671 72.794254 
L 674.109671 72.794254 
" clip-path="url(#p8f444e2b0d)" style="fill: none; stroke: #7f7f7f; stroke-width: 1.8; stroke-linecap: square"/>
   </g>
   <g id="line2d_24">
    <path d="M 80.719508 72.794254 
L 674.109671 72.794254 
L 674.109671 72.794254 
" clip-path="url(#p8f444e2b0d)" style="fill: none; stroke: #bcbd22; stroke-width: 1.8; stroke-linecap: square"/>
   </g>
   <g id="line2d_25">
    <path d="M 80.719508 289.278828 
L 674.109671 289.278828 
L 674.109671 289.278828 
" clip-path="url(#p8f444e2b0d)" style="fill: none; stroke: #17becf; stroke-width: 1.8; stroke-linecap: square"/>
   </g>
   <g id="line2d_26">
    <path d="M 80.719508 289.278828 
L 674.109671 289.278828 
L 674.109671 289.278828 
" clip-path="url(#p8f444e2b0d)" style="fill: none; stroke: #1f77b4; stroke-width: 1.8; stroke-linecap: square"/>
   </g>
   <g id="line2d_27">
    <path d="M 80.719508 289.278828 
L 674.109671 289.278828 
L 674.109671 289.278828 
" clip-path="url(#p8f444e2b0d)" style="fill: none; stroke: #ff7f0e; stroke-width: 1.8; stroke-linecap: square"/>
   </g>
   <g id="line2d_28">
    <path d="M 80.719508 289.278828 
L 82.490822 292.411893 
L 84.262136 292.411893 
L 86.03345 296.834684 
L 87.804764 320.64405 
L 89.576078 341.053301 
L 93.118706 341.053301 
L 94.890019 362.45869 
L 96.661333 362.45869 
L 98.432647 324.57389 
L 100.203961 307.060687 
L 107.289217 307.060687 
L 109.060531 273.523761 
L 110.831845 242.507469 
L 117.9171 242.507469 
L 119.688414 289.278828 
L 123.231042 289.278828 
L 125.002356 305.027561 
L 132.087612 305.027561 
L 133.858926 323.413855 
L 135.63024 335.560997 
L 139.172867 335.560997 
L 140.944181 299.424123 
L 142.715495 299.424123 
L 144.486809 280.370434 
L 146.258123 280.370434 
L 148.029437 245.52151 
L 149.800751 228.564878 
L 151.572065 205.090382 
L 158.657321 205.090382 
L 160.428634 220.904157 
L 162.199948 250.048906 
L 174.599146 250.048906 
L 176.37046 296.820264 
L 186.998343 296.820264 
L 188.769657 258.935464 
L 190.540971 239.140785 
L 194.083599 239.140785 
L 195.854913 205.090382 
L 204.711482 205.090382 
L 206.482796 225.809642 
L 208.25411 258.580575 
L 211.796738 270.984311 
L 217.11068 270.984311 
L 218.881994 317.75567 
L 220.653308 317.75567 
L 222.424622 364.527028 
L 225.967249 364.527028 
L 229.509877 288.757427 
L 233.052505 288.757427 
L 234.823819 250.872627 
L 240.137761 250.872627 
L 241.909075 275.536933 
L 243.680389 275.536933 
L 245.451703 289.278828 
L 257.8509 289.278828 
L 259.622214 333.442789 
L 264.936156 333.442789 
L 266.70747 297.52018 
L 268.478784 275.608191 
L 273.792725 275.608191 
L 275.564039 239.043845 
L 277.335353 205.090382 
L 289.734551 205.090382 
L 291.505864 234.867433 
L 295.048492 234.867433 
L 296.819806 281.638792 
L 300.362434 281.638792 
L 302.133748 308.849441 
L 307.44769 308.849441 
L 309.219004 281.26673 
L 310.990318 281.26673 
L 312.761632 260.827573 
L 314.532945 222.942772 
L 316.304259 222.942772 
L 318.075573 205.090382 
L 334.017399 205.090382 
L 337.560026 298.633099 
L 342.873968 298.633099 
L 344.645282 334.835247 
L 346.416596 334.835247 
L 348.18791 360.430499 
L 349.959224 360.430499 
L 351.730538 344.832244 
L 355.273166 277.630567 
L 357.044479 240.866841 
L 358.815793 240.866841 
L 360.587107 205.090382 
L 383.614188 205.090382 
L 385.385502 234.621742 
L 387.156816 268.206338 
L 394.242072 268.206338 
L 396.013386 233.088816 
L 401.327327 233.088816 
L 403.098641 212.782621 
L 406.641269 212.782621 
L 408.412583 205.090382 
L 411.955211 205.090382 
L 413.726525 247.473178 
L 415.497839 253.487792 
L 427.897036 253.487792 
L 429.66835 279.321231 
L 431.439664 307.028245 
L 434.982292 307.028245 
L 436.753606 302.435102 
L 438.52492 302.435102 
L 440.296234 286.697935 
L 449.152803 286.697935 
L 450.924117 272.443728 
L 470.40857 272.443728 
L 472.179884 278.552534 
L 479.26514 278.552534 
L 481.036454 256.008067 
L 482.807768 256.008067 
L 484.579082 230.931792 
L 488.121709 230.931792 
L 489.893023 205.090382 
L 518.234046 205.090382 
L 520.00536 229.607736 
L 521.776674 229.932091 
L 525.319302 229.932091 
L 527.090616 205.090382 
L 543.032441 205.090382 
L 544.803755 241.105827 
L 546.575069 255.080516 
L 548.346383 301.851875 
L 550.117697 301.851875 
L 551.889011 321.983445 
L 557.202952 321.983445 
L 558.974266 329.161663 
L 560.74558 332.067837 
L 562.516894 332.067837 
L 564.288208 343.857896 
L 566.059522 305.973095 
L 567.830836 280.859983 
L 571.373464 205.090382 
L 583.772661 205.090382 
L 585.543975 244.243357 
L 587.315289 258.941027 
L 589.086603 289.278828 
L 592.629231 289.278828 
L 594.400545 304.956108 
L 596.171859 304.956108 
L 597.943172 321.724338 
L 599.714486 368.495697 
L 601.4858 373.467273 
L 606.799742 373.467273 
L 608.571056 335.582472 
L 610.34237 307.271915 
L 615.656312 307.271915 
L 617.427626 274.390965 
L 628.055509 274.390965 
L 629.826823 289.278828 
L 642.22602 289.278828 
L 643.997334 290.156769 
L 645.768648 290.156769 
L 647.539962 317.964525 
L 649.311276 317.964525 
L 651.08259 282.390506 
L 652.853904 282.390506 
L 654.625218 261.180066 
L 656.396532 223.295266 
L 667.024415 223.295266 
L 668.795729 227.021173 
L 670.567043 227.021173 
L 672.338357 273.792531 
L 674.109671 289.278828 
L 674.109671 289.278828 
" clip-path="url(#p8f444e2b0d)" style="fill: none; stroke: #2ca02c; stroke-width: 1.8; stroke-linecap: square"/>
   </g>
   <g id="line2d_29">
    <path d="M 80.719508 289.278828 
L 82.490822 289.278828 
L 84.262136 265.183838 
L 86.03345 262.397425 
L 91.347392 262.397425 
L 93.118706 237.140892 
L 94.890019 227.053413 
L 96.661333 218.237349 
L 135.63024 218.237349 
L 137.401554 216.720308 
L 139.172867 215.729327 
L 146.258123 215.729327 
L 148.029437 214.926739 
L 149.800751 213.198058 
L 153.343379 209.064928 
L 155.114693 206.819298 
L 156.886007 205.090382 
L 174.599146 205.090382 
L 176.37046 209.546625 
L 178.141774 218.62206 
L 179.913088 221.535204 
L 181.684402 221.535204 
L 183.455715 231.143552 
L 185.227029 238.26068 
L 186.998343 240.329582 
L 188.769657 247.255916 
L 190.540971 259.154743 
L 201.168855 259.154743 
L 202.940169 275.039408 
L 204.711482 275.108799 
L 206.482796 289.278828 
L 257.8509 289.278828 
L 261.393528 240.036213 
L 270.250097 240.036213 
L 272.021411 246.090662 
L 273.792725 257.948888 
L 275.564039 266.266161 
L 277.335353 272.318868 
L 279.106667 276.145709 
L 341.102654 276.145709 
L 342.873968 274.162234 
L 344.645282 272.714119 
L 346.416596 272.925706 
L 353.501852 272.94953 
L 355.273166 276.465728 
L 357.044479 283.439971 
L 360.587107 301.270583 
L 362.358421 301.270583 
L 364.129735 302.786859 
L 365.901049 298.830341 
L 367.672363 288.11734 
L 369.443677 274.741847 
L 371.214991 262.339701 
L 372.986305 254.72096 
L 374.757619 254.72096 
L 376.528933 258.989274 
L 378.300247 264.568281 
L 380.07156 269.494553 
L 381.842874 269.494553 
L 383.614188 271.244125 
L 387.156816 272.44232 
L 388.92813 272.44232 
L 390.699444 270.432464 
L 392.470758 263.750595 
L 394.242072 256.634846 
L 396.013386 248.469955 
L 397.7847 238.793994 
L 413.726525 238.793994 
L 415.497839 230.879725 
L 417.269153 234.091101 
L 419.040467 239.815743 
L 420.811781 248.306086 
L 422.583094 248.306086 
L 424.354408 249.567571 
L 426.125722 252.360866 
L 427.897036 245.431907 
L 429.66835 228.888385 
L 452.695431 228.888385 
L 454.466745 211.241132 
L 461.552001 211.241132 
L 463.323315 208.194065 
L 465.094629 210.038753 
L 468.637256 210.038753 
L 470.40857 211.077127 
L 472.179884 211.077127 
L 475.722512 214.274951 
L 479.26514 211.641303 
L 481.036454 211.277478 
L 482.807768 216.628701 
L 486.350396 216.628701 
L 488.121709 217.70158 
L 491.664337 213.187537 
L 493.435651 210.801847 
L 495.206965 208.705552 
L 496.978279 208.072589 
L 498.749593 205.090382 
L 534.175871 205.090382 
L 535.947185 205.517611 
L 537.718499 213.609425 
L 541.261127 213.609425 
L 543.032441 226.917016 
L 546.575069 289.278828 
L 674.109671 289.278828 
L 674.109671 289.278828 
" clip-path="url(#p8f444e2b0d)" style="fill: none; stroke: #d62728; stroke-width: 1.8; stroke-linecap: square"/>
   </g>
   <g id="line2d_30">
    <path d="M 80.719508 293.179851 
L 82.490822 293.179851 
L 84.262136 316.565531 
L 91.347392 316.565531 
L 93.118706 339.95121 
L 94.890019 356.876961 
L 96.661333 356.876961 
L 98.432647 356.233755 
L 105.517903 280.464155 
L 119.688414 280.464155 
L 121.459728 289.278828 
L 133.858926 289.278828 
L 135.63024 312.664507 
L 137.401554 312.664507 
L 139.172867 307.059416 
L 140.944181 307.059416 
L 146.258123 250.232215 
L 148.029437 250.232215 
L 149.800751 231.289815 
L 151.572065 231.289815 
L 153.343379 220.576615 
L 174.599146 220.576615 
L 176.37046 224.20069 
L 178.141774 224.20069 
L 179.913088 235.580426 
L 181.684402 230.904932 
L 186.998343 230.904932 
L 188.769657 228.26746 
L 190.540971 209.32506 
L 192.312285 209.32506 
L 194.083599 205.090382 
L 202.940169 205.090382 
L 204.711482 228.285959 
L 206.482796 240.043174 
L 211.796738 240.043174 
L 213.568052 246.289447 
L 215.339366 252.983728 
L 217.11068 276.369407 
L 218.881994 276.764806 
L 220.653308 290.064215 
L 227.738563 290.064215 
L 229.509877 283.150239 
L 231.281191 264.207839 
L 233.052505 261.449869 
L 236.595133 261.449869 
L 238.366447 242.507469 
L 240.137761 242.507469 
L 243.680389 289.278828 
L 259.622214 289.278828 
L 261.393528 312.664507 
L 263.164842 322.742362 
L 264.936156 322.742362 
L 266.70747 319.051051 
L 270.250097 281.16625 
L 272.021411 277.787317 
L 273.792725 258.844917 
L 277.335353 258.844917 
L 279.106667 239.902517 
L 289.734551 239.902517 
L 291.505864 258.312195 
L 295.048492 258.312195 
L 296.819806 260.081648 
L 298.59112 260.081648 
L 300.362434 283.467327 
L 310.990318 283.467327 
L 312.761632 264.524927 
L 314.532945 261.917583 
L 316.304259 261.917583 
L 319.846887 224.032783 
L 321.618201 224.032783 
L 323.389515 205.090382 
L 330.474771 205.090382 
L 332.246085 216.613376 
L 335.788712 216.613376 
L 337.560026 220.366232 
L 346.416596 220.366232 
L 348.18791 243.751912 
L 355.273166 243.751912 
L 357.044479 242.975183 
L 358.815793 224.032783 
L 362.358421 224.032783 
L 364.129735 205.090382 
L 374.757619 205.090382 
L 376.528933 228.476062 
L 380.07156 228.476062 
L 381.842874 244.746994 
L 385.385502 291.518353 
L 387.156816 311.682239 
L 392.470758 311.682239 
L 394.242072 299.802383 
L 396.013386 299.802383 
L 399.556014 261.917583 
L 401.327327 261.917583 
L 404.869955 224.032783 
L 406.641269 224.032783 
L 408.412583 205.090382 
L 415.497839 205.090382 
L 417.269153 228.476062 
L 424.354408 228.476062 
L 426.125722 241.061984 
L 429.66835 287.833343 
L 431.439664 307.340301 
L 438.52492 307.340301 
L 440.296234 288.397901 
L 443.838862 288.397901 
L 447.381489 250.5131 
L 449.152803 250.5131 
L 450.924117 231.5707 
L 486.350396 231.5707 
L 488.121709 212.6283 
L 489.893023 212.6283 
L 491.664337 205.090382 
L 514.691418 205.090382 
L 516.462732 211.403274 
L 518.234046 234.788953 
L 520.00536 238.531904 
L 521.776674 261.917583 
L 523.547988 242.975183 
L 527.090616 242.975183 
L 530.633244 205.090382 
L 541.261127 205.090382 
L 543.032441 219.909038 
L 544.803755 219.909038 
L 548.346383 266.680396 
L 551.889011 266.680396 
L 553.660324 287.775892 
L 560.74558 287.775892 
L 562.516894 310.44876 
L 564.288208 310.44876 
L 566.059522 307.555232 
L 567.830836 288.612832 
L 569.60215 288.612832 
L 571.373464 282.024566 
L 573.144778 282.024566 
L 574.916092 263.082166 
L 585.543975 263.082166 
L 587.315289 265.893148 
L 590.857917 312.664507 
L 608.571056 312.664507 
L 613.884998 255.837306 
L 628.055509 255.837306 
L 629.826823 269.811553 
L 631.598137 289.278828 
L 647.539962 289.278828 
L 649.311276 270.336427 
L 652.853904 270.336427 
L 654.625218 251.394027 
L 656.396532 251.394027 
L 658.167846 232.451627 
L 665.253101 232.451627 
L 667.024415 247.934238 
L 668.795729 271.319917 
L 670.567043 271.319917 
L 672.338357 274.926587 
L 674.109671 289.278828 
L 674.109671 289.278828 
" clip-path="url(#p8f444e2b0d)" style="fill: none; stroke: #9467bd; stroke-width: 1.8; stroke-linecap: square"/>
   </g>
   <g id="line2d_31">
    <path d="M 80.719508 289.278828 
L 674.109671 289.278828 
L 674.109671 289.278828 
" clip-path="url(#p8f444e2b0d)" style="fill: none; stroke: #8c564b; stroke-width: 1.8; stroke-linecap: square"/>
   </g>
   <g id="line2d_32">
    <path d="M 80.719508 289.278828 
L 674.109671 289.278828 
L 674.109671 289.278828 
" clip-path="url(#p8f444e2b0d)" style="fill: none; stroke: #e377c2; stroke-width: 1.8; stroke-linecap: square"/>
   </g>
   <g id="line2d_33">
    <path d="M 80.719508 289.278828 
L 674.109671 289.278828 
L 674.109671 289.278828 
" clip-path="url(#p8f444e2b0d)" style="fill: none; stroke: #7f7f7f; stroke-width: 1.8; stroke-linecap: square"/>
   </g>
   <g id="patch_3">
    <path d="M 51.05 390.04 
L 51.05 25.44 
" style="fill: none; stroke: #000000; stroke-width: 0.8; stroke-linejoin: miter; stroke-linecap: square"/>
   </g>
   <g id="patch_4">
    <path d="M 703.779179 390.04 
L 703.779179 25.44 
" style="fill: none; stroke: #000000; stroke-width: 0.8; stroke-linejoin: miter; stroke-linecap: square"/>
   </g>
   <g id="patch_5">
    <path d="M 51.05 390.04 
L 703.779179 390.04 
" style="fill: none; stroke: #000000; stroke-width: 0.8; stroke-linejoin: miter; stroke-linecap: square"/>
   </g>
   <g id="patch_6">
    <path d="M 51.05 25.44 
L 703.779179 25.44 
" style="fill: none; stroke: #000000; stroke-width: 0.8; stroke-linejoin: miter; stroke-linecap: square"/>
   </g>
   <g id="text_18">
    <!-- SoC by battery (T=72, F=24, L=12) -->
    <g transform="translate(270.00709 19.44) scale(0.12 -0.12)">
     <defs>
      <path id="DejaVuSans-62" d="M 3116 1747 
Q 3116 2381 2855 2742 
Q 2594 3103 2138 3103 
Q 1681 3103 1420 2742 
Q 1159 2381 1159 1747 
Q 1159 1113 1420 752 
Q 1681 391 2138 391 
Q 2594 391 2855 752 
Q 3116 1113 3116 1747 
z
M 1159 2969 
Q 1341 3281 1617 3432 
Q 1894 3584 2278 3584 
Q 2916 3584 3314 3078 
Q 3713 2572 3713 1747 
Q 3713 922 3314 415 
Q 2916 -91 2278 -91 
Q 1894 -91 1617 61 
Q 1341 213 1159 525 
L 1159 0 
L 581 0 
L 581 4863 
L 1159 4863 
L 1159 2969 
z
" transform="scale(0.015625)"/>
      <path id="DejaVuSans-79" d="M 2059 -325 
Q 1816 -950 1584 -1140 
Q 1353 -1331 966 -1331 
L 506 -1331 
L 506 -850 
L 844 -850 
Q 1081 -850 1212 -737 
Q 1344 -625 1503 -206 
L 1606 56 
L 191 3500 
L 800 3500 
L 1894 763 
L 2988 3500 
L 3597 3500 
L 2059 -325 
z
" transform="scale(0.015625)"/>
      <path id="DejaVuSans-61" d="M 2194 1759 
Q 1497 1759 1228 1600 
Q 959 1441 959 1056 
Q 959 750 1161 570 
Q 1363 391 1709 391 
Q 2188 391 2477 730 
Q 2766 1069 2766 1631 
L 2766 1759 
L 2194 1759 
z
M 3341 1997 
L 3341 0 
L 2766 0 
L 2766 531 
Q 2569 213 2275 61 
Q 1981 -91 1556 -91 
Q 1019 -91 701 211 
Q 384 513 384 1019 
Q 384 1609 779 1909 
Q 1175 2209 1959 2209 
L 2766 2209 
L 2766 2266 
Q 2766 2663 2505 2880 
Q 2244 3097 1772 3097 
Q 1472 3097 1187 3025 
Q 903 2953 641 2809 
L 641 3341 
Q 956 3463 1253 3523 
Q 1550 3584 1831 3584 
Q 2591 3584 2966 3190 
Q 3341 2797 3341 1997 
z
" transform="scale(0.015625)"/>
      <path id="DejaVuSans-72" d="M 2631 2963 
Q 2534 3019 2420 3045 
Q 2306 3072 2169 3072 
Q 1681 3072 1420 2755 
Q 1159 2438 1159 1844 
L 1159 0 
L 581 0 
L 581 3500 
L 1159 3500 
L 1159 2956 
Q 1341 3275 1631 3429 
Q 1922 3584 2338 3584 
Q 2397 3584 2469 3576 
Q 2541 3569 2628 3553 
L 2631 2963 
z
" transform="scale(0.015625)"/>
      <path id="DejaVuSans-3d" d="M 678 2906 
L 4684 2906 
L 4684 2381 
L 678 2381 
L 678 2906 
z
M 678 1631 
L 4684 1631 
L 4684 1100 
L 678 1100 
L 678 1631 
z
" transform="scale(0.015625)"/>
      <path id="DejaVuSans-37" d="M 525 4666 
L 3525 4666 
L 3525 4397 
L 1831 0 
L 1172 0 
L 2766 4134 
L 525 4134 
L 525 4666 
z
" transform="scale(0.015625)"/>
      <path id="DejaVuSans-2c" d="M 750 794 
L 1409 794 
L 1409 256 
L 897 -744 
L 494 -744 
L 750 256 
L 750 794 
z
" transform="scale(0.015625)"/>
      <path id="DejaVuSans-46" d="M 628 4666 
L 3309 4666 
L 3309 4134 
L 1259 4134 
L 1259 2759 
L 3109 2759 
L 3109 2228 
L 1259 2228 
L 1259 0 
L 628 0 
L 628 4666 
z
" transform="scale(0.015625)"/>
      <path id="DejaVuSans-34" d="M 2419 4116 
L 825 1625 
L 2419 1625 
L 2419 4116 
z
M 2253 4666 
L 3047 4666 
L 3047 1625 
L 3713 1625 
L 3713 1100 
L 3047 1100 
L 3047 0 
L 2419 0 
L 2419 1100 
L 313 1100 
L 313 1709 
L 2253 4666 
z
" transform="scale(0.015625)"/>
      <path id="DejaVuSans-4c" d="M 628 4666 
L 1259 4666 
L 1259 531 
L 3531 531 
L 3531 0 
L 628 0 
L 628 4666 
z
" transform="scale(0.015625)"/>
     </defs>
     <use xlink:href="#DejaVuSans-53"/>
     <use xlink:href="#DejaVuSans-6f" transform="translate(63.476562 0)"/>
     <use xlink:href="#DejaVuSans-43" transform="translate(124.658203 0)"/>
     <use xlink:href="#DejaVuSans-20" transform="translate(194.482422 0)"/>
     <use xlink:href="#DejaVuSans-62" transform="translate(226.269531 0)"/>
     <use xlink:href="#DejaVuSans-79" transform="translate(289.746094 0)"/>
     <use xlink:href="#DejaVuSans-20" transform="translate(348.925781 0)"/>
     <use xlink:href="#DejaVuSans-62" transform="translate(380.712891 0)"/>
     <use xlink:href="#DejaVuSans-61" transform="translate(444.189453 0)"/>
     <use xlink:href="#DejaVuSans-74" transform="translate(505.46875 0)"/>
     <use xlink:href="#DejaVuSans-74" transform="translate(544.677734 0)"/>
     <use xlink:href="#DejaVuSans-65" transform="translate(583.886719 0)"/>
     <use xlink:href="#DejaVuSans-72" transform="translate(645.410156 0)"/>
     <use xlink:href="#DejaVuSans-79" transform="translate(686.523438 0)"/>
     <use xlink:href="#DejaVuSans-20" transform="translate(745.703125 0)"/>
     <use xlink:href="#DejaVuSans-28" transform="translate(777.490234 0)"/>
     <use xlink:href="#DejaVuSans-54" transform="translate(816.503906 0)"/>
     <use xlink:href="#DejaVuSans-3d" transform="translate(877.587891 0)"/>
     <use xlink:href="#DejaVuSans-37" transform="translate(961.376953 0)"/>
     <use xlink:href="#DejaVuSans-32" transform="translate(1025 0)"/>
     <use xlink:href="#DejaVuSans-2c" transform="translate(1088.623047 0)"/>
     <use xlink:href="#DejaVuSans-20" transform="translate(1120.410156 0)"/>
     <use xlink:href="#DejaVuSans-46" transform="translate(1152.197266 0)"/>
     <use xlink:href="#DejaVuSans-3d" transform="translate(1209.716797 0)"/>
     <use xlink:href="#DejaVuSans-32" transform="translate(1293.505859 0)"/>
     <use xlink:href="#DejaVuSans-34" transform="translate(1357.128906 0)"/>
     <use xlink:href="#DejaVuSans-2c" transform="translate(1420.751953 0)"/>
     <use xlink:href="#DejaVuSans-20" transform="translate(1452.539062 0)"/>
     <use xlink:href="#DejaVuSans-4c" transform="translate(1484.326172 0)"/>
     <use xlink:href="#DejaVuSans-3d" transform="translate(1540.039062 0)"/>
     <use xlink:href="#DejaVuSans-31" transform="translate(1623.828125 0)"/>
     <use xlink:href="#DejaVuSans-32" transform="translate(1687.451172 0)"/>
     <use xlink:href="#DejaVuSans-29" transform="translate(1751.074219 0)"/>
    </g>
   </g>
  </g>
 </g>
 <defs>
  <clipPath id="p8f444e2b0d">
   <rect x="51.05" y="25.44" width="652.729179" height="364.6"/>
  </clipPath>
 </defs>
</svg>
