<?xml version="1.0" encoding="utf-8" standalone="no"?>
<!DOCTYPE svg PUBLIC "-//W3C//DTD SVG 1.1//EN"
  "http://www.w3.org/Graphics/SVG/1.1/DTD/svg11.dtd">
<svg xmlns:xlink="http://www.w3.org/1999/xlink" width="720pt" height="432pt" viewBox="0 0 720 432" xmlns="http://www.w3.org/2000/svg" version="1.1">
 <metadata>
  <rdf:RDF xmlns:dc="http://purl.org/dc/elements/1.1/" xmlns:cc="http://creativecommons.org/ns#" xmlns:rdf="http://www.w3.org/1999/02/22-rdf-syntax-ns#">
   <cc:Work>
    <dc:type rdf:resource="http://purl.org/dc/dcmitype/StillImage"/>
    <dc:date>2025-11-12T13:00:03.408317</dc:date>
    <dc:format>image/svg+xml</dc:format>
    <dc:creator>
     <cc:Agent>
      <dc:title>Matplotlib v3.10.0, https://matplotlib.org/</dc:title>
     </cc:Agent>
    </dc:creator>
   </cc:Work>
  </rdf:RDF>
 </metadata>
 <defs>
  <style type="text/css">*{stroke-linejoin: round; stroke-linecap: butt}</style>
 </defs>
 <g id="figure_1">
  <g id="patch_1">
   <path d="M 0 432 
L 720 432 
L 720 0 
L 0 0 
z
" style="fill: #ffffff"/>
  </g>
  <g id="axes_1">
   <g id="patch_2">
    <path d="M 51.05 390.04 
L 703.779179 390.04 
L 703.779179 25.44 
L 51.05 25.44 
z
" style="fill: #ffffff"/>
   </g>
   <g id="matplotlib.axis_1">
    <g id="xtick_1">
     <g id="line2d_1">
      <defs>
       <path id="mf6c5949c3e" d="M 0 0 
L 0 3.5 
" style="stroke: #000000; stroke-width: 0.8"/>
      </defs>
      <g>
       <use xlink:href="#mf6c5949c3e" x="78.948194" y="390.04" style="stroke: #000000; stroke-width: 0.8"/>
      </g>
     </g>
     <g id="text_1">
      <!-- 0 -->
      <g transform="translate(75.766944 404.638438) scale(0.1 -0.1)">
       <defs>
        <path id="DejaVuSans-30" d="M 2034 4250 
Q 1547 4250 1301 3770 
Q 1056 3291 1056 2328 
Q 1056 1369 1301 889 
Q 1547 409 2034 409 
Q 2525 409 2770 889 
Q 3016 1369 3016 2328 
Q 3016 3291 2770 3770 
Q 2525 4250 2034 4250 
z
M 2034 4750 
Q 2819 4750 3233 4129 
Q 3647 3509 3647 2328 
Q 3647 1150 3233 529 
Q 2819 -91 2034 -91 
Q 1250 -91 836 529 
Q 422 1150 422 2328 
Q 422 3509 836 4129 
Q 1250 4750 2034 4750 
z
" transform="scale(0.015625)"/>
       </defs>
       <use xlink:href="#DejaVuSans-30"/>
      </g>
     </g>
    </g>
    <g id="xtick_2">
     <g id="line2d_2">
      <g>
       <use xlink:href="#mf6c5949c3e" x="167.51389" y="390.04" style="stroke: #000000; stroke-width: 0.8"/>
      </g>
     </g>
     <g id="text_2">
      <!-- 50 -->
      <g transform="translate(161.15139 404.638438) scale(0.1 -0.1)">
       <defs>
        <path id="DejaVuSans-35" d="M 691 4666 
L 3169 4666 
L 3169 4134 
L 1269 4134 
L 1269 2991 
Q 1406 3038 1543 3061 
Q 1681 3084 1819 3084 
Q 2600 3084 3056 2656 
Q 3513 2228 3513 1497 
Q 3513 744 3044 326 
Q 2575 -91 1722 -91 
Q 1428 -91 1123 -41 
Q 819 9 494 109 
L 494 744 
Q 775 591 1075 516 
Q 1375 441 1709 441 
Q 2250 441 2565 725 
Q 2881 1009 2881 1497 
Q 2881 1984 2565 2268 
Q 2250 2553 1709 2553 
Q 1456 2553 1204 2497 
Q 953 2441 691 2322 
L 691 4666 
z
" transform="scale(0.015625)"/>
       </defs>
       <use xlink:href="#DejaVuSans-35"/>
       <use xlink:href="#DejaVuSans-30" transform="translate(63.623047 0)"/>
      </g>
     </g>
    </g>
    <g id="xtick_3">
     <g id="line2d_3">
      <g>
       <use xlink:href="#mf6c5949c3e" x="256.079586" y="390.04" style="stroke: #000000; stroke-width: 0.8"/>
      </g>
     </g>
     <g id="text_3">
      <!-- 100 -->
      <g transform="translate(246.535836 404.638438) scale(0.1 -0.1)">
       <defs>
        <path id="DejaVuSans-31" d="M 794 531 
L 1825 531 
L 1825 4091 
L 703 3866 
L 703 4441 
L 1819 4666 
L 2450 4666 
L 2450 531 
L 3481 531 
L 3481 0 
L 794 0 
L 794 531 
z
" transform="scale(0.015625)"/>
       </defs>
       <use xlink:href="#DejaVuSans-31"/>
       <use xlink:href="#DejaVuSans-30" transform="translate(63.623047 0)"/>
       <use xlink:href="#DejaVuSans-30" transform="translate(127.246094 0)"/>
      </g>
     </g>
    </g>
    <g id="xtick_4">
     <g id="line2d_4">
      <g>
       <use xlink:href="#mf6c5949c3e" x="344.645282" y="390.04" style="stroke: #000000; stroke-width: 0.8"/>
      </g>
     </g>
     <g id="text_4">
      <!-- 150 -->
      <g transform="translate(335.101532 404.638438) scale(0.1 -0.1)">
       <use xlink:href="#DejaVuSans-31"/>
       <use xlink:href="#DejaVuSans-35" transform="translate(63.623047 0)"/>
       <use xlink:href="#DejaVuSans-30" transform="translate(127.246094 0)"/>
      </g>
     </g>
    </g>
    <g id="xtick_5">
     <g id="line2d_5">
      <g>
       <use xlink:href="#mf6c5949c3e" x="433.210978" y="390.04" style="stroke: #000000; stroke-width: 0.8"/>
      </g>
     </g>
     <g id="text_5">
      <!-- 200 -->
      <g transform="translate(423.667228 404.638438) scale(0.1 -0.1)">
       <defs>
        <path id="DejaVuSans-32" d="M 1228 531 
L 3431 531 
L 3431 0 
L 469 0 
L 469 531 
Q 828 903 1448 1529 
Q 2069 2156 2228 2338 
Q 2531 2678 2651 2914 
Q 2772 3150 2772 3378 
Q 2772 3750 2511 3984 
Q 2250 4219 1831 4219 
Q 1534 4219 1204 4116 
Q 875 4013 500 3803 
L 500 4441 
Q 881 4594 1212 4672 
Q 1544 4750 1819 4750 
Q 2544 4750 2975 4387 
Q 3406 4025 3406 3419 
Q 3406 3131 3298 2873 
Q 3191 2616 2906 2266 
Q 2828 2175 2409 1742 
Q 1991 1309 1228 531 
z
" transform="scale(0.015625)"/>
       </defs>
       <use xlink:href="#DejaVuSans-32"/>
       <use xlink:href="#DejaVuSans-30" transform="translate(63.623047 0)"/>
       <use xlink:href="#DejaVuSans-30" transform="translate(127.246094 0)"/>
      </g>
     </g>
    </g>
    <g id="xtick_6">
     <g id="line2d_6">
      <g>
       <use xlink:href="#mf6c5949c3e" x="521.776674" y="390.04" style="stroke: #000000; stroke-width: 0.8"/>
      </g>
     </g>
     <g id="text_6">
      <!-- 250 -->
      <g transform="translate(512.232924 404.638438) scale(0.1 -0.1)">
       <use xlink:href="#DejaVuSans-32"/>
       <use xlink:href="#DejaVuSans-35" transform="translate(63.623047 0)"/>
       <use xlink:href="#DejaVuSans-30" transform="translate(127.246094 0)"/>
      </g>
     </g>
    </g>
    <g id="xtick_7">
     <g id="line2d_7">
      <g>
       <use xlink:href="#mf6c5949c3e" x="610.34237" y="390.04" style="stroke: #000000; stroke-width: 0.8"/>
      </g>
     </g>
     <g id="text_7">
      <!-- 300 -->
      <g transform="translate(600.79862 404.638438) scale(0.1 -0.1)">
       <defs>
        <path id="DejaVuSans-33" d="M 2597 2516 
Q 3050 2419 3304 2112 
Q 3559 1806 3559 1356 
Q 3559 666 3084 287 
Q 2609 -91 1734 -91 
Q 1441 -91 1130 -33 
Q 819 25 488 141 
L 488 750 
Q 750 597 1062 519 
Q 1375 441 1716 441 
Q 2309 441 2620 675 
Q 2931 909 2931 1356 
Q 2931 1769 2642 2001 
Q 2353 2234 1838 2234 
L 1294 2234 
L 1294 2753 
L 1863 2753 
Q 2328 2753 2575 2939 
Q 2822 3125 2822 3475 
Q 2822 3834 2567 4026 
Q 2313 4219 1838 4219 
Q 1578 4219 1281 4162 
Q 984 4106 628 3988 
L 628 4550 
Q 988 4650 1302 4700 
Q 1616 4750 1894 4750 
Q 2613 4750 3031 4423 
Q 3450 4097 3450 3541 
Q 3450 3153 3228 2886 
Q 3006 2619 2597 2516 
z
" transform="scale(0.015625)"/>
       </defs>
       <use xlink:href="#DejaVuSans-33"/>
       <use xlink:href="#DejaVuSans-30" transform="translate(63.623047 0)"/>
       <use xlink:href="#DejaVuSans-30" transform="translate(127.246094 0)"/>
      </g>
     </g>
    </g>
    <g id="xtick_8">
     <g id="line2d_8">
      <g>
       <use xlink:href="#mf6c5949c3e" x="698.908066" y="390.04" style="stroke: #000000; stroke-width: 0.8"/>
      </g>
     </g>
     <g id="text_8">
      <!-- 350 -->
      <g transform="translate(689.364316 404.638438) scale(0.1 -0.1)">
       <use xlink:href="#DejaVuSans-33"/>
       <use xlink:href="#DejaVuSans-35" transform="translate(63.623047 0)"/>
       <use xlink:href="#DejaVuSans-30" transform="translate(127.246094 0)"/>
      </g>
     </g>
    </g>
    <g id="text_9">
     <!-- Time (t) -->
     <g transform="translate(357.730215 418.316562) scale(0.1 -0.1)">
      <defs>
       <path id="DejaVuSans-54" d="M -19 4666 
L 3928 4666 
L 3928 4134 
L 2272 4134 
L 2272 0 
L 1638 0 
L 1638 4134 
L -19 4134 
L -19 4666 
z
" transform="scale(0.015625)"/>
       <path id="DejaVuSans-69" d="M 603 3500 
L 1178 3500 
L 1178 0 
L 603 0 
L 603 3500 
z
M 603 4863 
L 1178 4863 
L 1178 4134 
L 603 4134 
L 603 4863 
z
" transform="scale(0.015625)"/>
       <path id="DejaVuSans-6d" d="M 3328 2828 
Q 3544 3216 3844 3400 
Q 4144 3584 4550 3584 
Q 5097 3584 5394 3201 
Q 5691 2819 5691 2113 
L 5691 0 
L 5113 0 
L 5113 2094 
Q 5113 2597 4934 2840 
Q 4756 3084 4391 3084 
Q 3944 3084 3684 2787 
Q 3425 2491 3425 1978 
L 3425 0 
L 2847 0 
L 2847 2094 
Q 2847 2600 2669 2842 
Q 2491 3084 2119 3084 
Q 1678 3084 1418 2786 
Q 1159 2488 1159 1978 
L 1159 0 
L 581 0 
L 581 3500 
L 1159 3500 
L 1159 2956 
Q 1356 3278 1631 3431 
Q 1906 3584 2284 3584 
Q 2666 3584 2933 3390 
Q 3200 3197 3328 2828 
z
" transform="scale(0.015625)"/>
       <path id="DejaVuSans-65" d="M 3597 1894 
L 3597 1613 
L 953 1613 
Q 991 1019 1311 708 
Q 1631 397 2203 397 
Q 2534 397 2845 478 
Q 3156 559 3463 722 
L 3463 178 
Q 3153 47 2828 -22 
Q 2503 -91 2169 -91 
Q 1331 -91 842 396 
Q 353 884 353 1716 
Q 353 2575 817 3079 
Q 1281 3584 2069 3584 
Q 2775 3584 3186 3129 
Q 3597 2675 3597 1894 
z
M 3022 2063 
Q 3016 2534 2758 2815 
Q 2500 3097 2075 3097 
Q 1594 3097 1305 2825 
Q 1016 2553 972 2059 
L 3022 2063 
z
" transform="scale(0.015625)"/>
       <path id="DejaVuSans-20" transform="scale(0.015625)"/>
       <path id="DejaVuSans-28" d="M 1984 4856 
Q 1566 4138 1362 3434 
Q 1159 2731 1159 2009 
Q 1159 1288 1364 580 
Q 1569 -128 1984 -844 
L 1484 -844 
Q 1016 -109 783 600 
Q 550 1309 550 2009 
Q 550 2706 781 3412 
Q 1013 4119 1484 4856 
L 1984 4856 
z
" transform="scale(0.015625)"/>
       <path id="DejaVuSans-74" d="M 1172 4494 
L 1172 3500 
L 2356 3500 
L 2356 3053 
L 1172 3053 
L 1172 1153 
Q 1172 725 1289 603 
Q 1406 481 1766 481 
L 2356 481 
L 2356 0 
L 1766 0 
Q 1100 0 847 248 
Q 594 497 594 1153 
L 594 3053 
L 172 3053 
L 172 3500 
L 594 3500 
L 594 4494 
L 1172 4494 
z
" transform="scale(0.015625)"/>
       <path id="DejaVuSans-29" d="M 513 4856 
L 1013 4856 
Q 1481 4119 1714 3412 
Q 1947 2706 1947 2009 
Q 1947 1309 1714 600 
Q 1481 -109 1013 -844 
L 513 -844 
Q 928 -128 1133 580 
Q 1338 1288 1338 2009 
Q 1338 2731 1133 3434 
Q 928 4138 513 4856 
z
" transform="scale(0.015625)"/>
      </defs>
      <use xlink:href="#DejaVuSans-54"/>
      <use xlink:href="#DejaVuSans-69" transform="translate(57.958984 0)"/>
      <use xlink:href="#DejaVuSans-6d" transform="translate(85.742188 0)"/>
      <use xlink:href="#DejaVuSans-65" transform="translate(183.154297 0)"/>
      <use xlink:href="#DejaVuSans-20" transform="translate(244.677734 0)"/>
      <use xlink:href="#DejaVuSans-28" transform="translate(276.464844 0)"/>
      <use xlink:href="#DejaVuSans-74" transform="translate(315.478516 0)"/>
      <use xlink:href="#DejaVuSans-29" transform="translate(354.6875 0)"/>
     </g>
    </g>
   </g>
   <g id="matplotlib.axis_2">
    <g id="ytick_1">
     <g id="line2d_9">
      <defs>
       <path id="m10d16f006a" d="M 0 0 
L -3.5 0 
" style="stroke: #000000; stroke-width: 0.8"/>
      </defs>
      <g>
       <use xlink:href="#m10d16f006a" x="51.05" y="373.467273" style="stroke: #000000; stroke-width: 0.8"/>
      </g>
     </g>
     <g id="text_10">
      <!-- 0 -->
      <g transform="translate(37.6875 377.266491) scale(0.1 -0.1)">
       <use xlink:href="#DejaVuSans-30"/>
      </g>
     </g>
    </g>
    <g id="ytick_2">
     <g id="line2d_10">
      <g>
       <use xlink:href="#m10d16f006a" x="51.05" y="321.036645" style="stroke: #000000; stroke-width: 0.8"/>
      </g>
     </g>
     <g id="text_11">
      <!-- 50 -->
      <g transform="translate(31.325 324.835864) scale(0.1 -0.1)">
       <use xlink:href="#DejaVuSans-35"/>
       <use xlink:href="#DejaVuSans-30" transform="translate(63.623047 0)"/>
      </g>
     </g>
    </g>
    <g id="ytick_3">
     <g id="line2d_11">
      <g>
       <use xlink:href="#m10d16f006a" x="51.05" y="268.606018" style="stroke: #000000; stroke-width: 0.8"/>
      </g>
     </g>
     <g id="text_12">
      <!-- 100 -->
      <g transform="translate(24.9625 272.405237) scale(0.1 -0.1)">
       <use xlink:href="#DejaVuSans-31"/>
       <use xlink:href="#DejaVuSans-30" transform="translate(63.623047 0)"/>
       <use xlink:href="#DejaVuSans-30" transform="translate(127.246094 0)"/>
      </g>
     </g>
    </g>
    <g id="ytick_4">
     <g id="line2d_12">
      <g>
       <use xlink:href="#m10d16f006a" x="51.05" y="216.175391" style="stroke: #000000; stroke-width: 0.8"/>
      </g>
     </g>
     <g id="text_13">
      <!-- 150 -->
      <g transform="translate(24.9625 219.974609) scale(0.1 -0.1)">
       <use xlink:href="#DejaVuSans-31"/>
       <use xlink:href="#DejaVuSans-35" transform="translate(63.623047 0)"/>
       <use xlink:href="#DejaVuSans-30" transform="translate(127.246094 0)"/>
      </g>
     </g>
    </g>
    <g id="ytick_5">
     <g id="line2d_13">
      <g>
       <use xlink:href="#m10d16f006a" x="51.05" y="163.744763" style="stroke: #000000; stroke-width: 0.8"/>
      </g>
     </g>
     <g id="text_14">
      <!-- 200 -->
      <g transform="translate(24.9625 167.543982) scale(0.1 -0.1)">
       <use xlink:href="#DejaVuSans-32"/>
       <use xlink:href="#DejaVuSans-30" transform="translate(63.623047 0)"/>
       <use xlink:href="#DejaVuSans-30" transform="translate(127.246094 0)"/>
      </g>
     </g>
    </g>
    <g id="ytick_6">
     <g id="line2d_14">
      <g>
       <use xlink:href="#m10d16f006a" x="51.05" y="111.314136" style="stroke: #000000; stroke-width: 0.8"/>
      </g>
     </g>
     <g id="text_15">
      <!-- 250 -->
      <g transform="translate(24.9625 115.113355) scale(0.1 -0.1)">
       <use xlink:href="#DejaVuSans-32"/>
       <use xlink:href="#DejaVuSans-35" transform="translate(63.623047 0)"/>
       <use xlink:href="#DejaVuSans-30" transform="translate(127.246094 0)"/>
      </g>
     </g>
    </g>
    <g id="ytick_7">
     <g id="line2d_15">
      <g>
       <use xlink:href="#m10d16f006a" x="51.05" y="58.883508" style="stroke: #000000; stroke-width: 0.8"/>
      </g>
     </g>
     <g id="text_16">
      <!-- 300 -->
      <g transform="translate(24.9625 62.682727) scale(0.1 -0.1)">
       <use xlink:href="#DejaVuSans-33"/>
       <use xlink:href="#DejaVuSans-30" transform="translate(63.623047 0)"/>
       <use xlink:href="#DejaVuSans-30" transform="translate(127.246094 0)"/>
      </g>
     </g>
    </g>
    <g id="text_17">
     <!-- SoC -->
     <g transform="translate(18.882812 217.465) rotate(-90) scale(0.1 -0.1)">
      <defs>
       <path id="DejaVuSans-53" d="M 3425 4513 
L 3425 3897 
Q 3066 4069 2747 4153 
Q 2428 4238 2131 4238 
Q 1616 4238 1336 4038 
Q 1056 3838 1056 3469 
Q 1056 3159 1242 3001 
Q 1428 2844 1947 2747 
L 2328 2669 
Q 3034 2534 3370 2195 
Q 3706 1856 3706 1288 
Q 3706 609 3251 259 
Q 2797 -91 1919 -91 
Q 1588 -91 1214 -16 
Q 841 59 441 206 
L 441 856 
Q 825 641 1194 531 
Q 1563 422 1919 422 
Q 2459 422 2753 634 
Q 3047 847 3047 1241 
Q 3047 1584 2836 1778 
Q 2625 1972 2144 2069 
L 1759 2144 
Q 1053 2284 737 2584 
Q 422 2884 422 3419 
Q 422 4038 858 4394 
Q 1294 4750 2059 4750 
Q 2388 4750 2728 4690 
Q 3069 4631 3425 4513 
z
" transform="scale(0.015625)"/>
       <path id="DejaVuSans-6f" d="M 1959 3097 
Q 1497 3097 1228 2736 
Q 959 2375 959 1747 
Q 959 1119 1226 758 
Q 1494 397 1959 397 
Q 2419 397 2687 759 
Q 2956 1122 2956 1747 
Q 2956 2369 2687 2733 
Q 2419 3097 1959 3097 
z
M 1959 3584 
Q 2709 3584 3137 3096 
Q 3566 2609 3566 1747 
Q 3566 888 3137 398 
Q 2709 -91 1959 -91 
Q 1206 -91 779 398 
Q 353 888 353 1747 
Q 353 2609 779 3096 
Q 1206 3584 1959 3584 
z
" transform="scale(0.015625)"/>
       <path id="DejaVuSans-43" d="M 4122 4306 
L 4122 3641 
Q 3803 3938 3442 4084 
Q 3081 4231 2675 4231 
Q 1875 4231 1450 3742 
Q 1025 3253 1025 2328 
Q 1025 1406 1450 917 
Q 1875 428 2675 428 
Q 3081 428 3442 575 
Q 3803 722 4122 1019 
L 4122 359 
Q 3791 134 3420 21 
Q 3050 -91 2638 -91 
Q 1578 -91 968 557 
Q 359 1206 359 2328 
Q 359 3453 968 4101 
Q 1578 4750 2638 4750 
Q 3056 4750 3426 4639 
Q 3797 4528 4122 4306 
z
" transform="scale(0.015625)"/>
      </defs>
      <use xlink:href="#DejaVuSans-53"/>
      <use xlink:href="#DejaVuSans-6f" transform="translate(63.476562 0)"/>
      <use xlink:href="#DejaVuSans-43" transform="translate(124.658203 0)"/>
     </g>
    </g>
   </g>
   <g id="line2d_16">
    <path d="M 80.719508 216.54462 
L 674.109671 216.54462 
L 674.109671 216.54462 
" clip-path="url(#p70683ba9f2)" style="fill: none; stroke: #1f77b4; stroke-width: 1.8; stroke-linecap: square"/>
   </g>
   <g id="line2d_17">
    <path d="M 80.719508 216.54462 
L 674.109671 216.54462 
L 674.109671 216.54462 
" clip-path="url(#p70683ba9f2)" style="fill: none; stroke: #ff7f0e; stroke-width: 1.8; stroke-linecap: square"/>
   </g>
   <g id="line2d_18">
    <path d="M 80.719508 216.54462 
L 674.109671 216.54462 
L 674.109671 216.54462 
" clip-path="url(#p70683ba9f2)" style="fill: none; stroke: #2ca02c; stroke-width: 1.8; stroke-linecap: square"/>
   </g>
   <g id="line2d_19">
    <path d="M 80.719508 216.54462 
L 674.109671 216.54462 
L 674.109671 216.54462 
" clip-path="url(#p70683ba9f2)" style="fill: none; stroke: #d62728; stroke-width: 1.8; stroke-linecap: square"/>
   </g>
   <g id="line2d_20">
    <path d="M 80.719508 216.54462 
L 84.262136 216.54462 
L 87.804764 308.561303 
L 96.661333 308.561303 
L 98.432647 268.34541 
L 100.203961 268.34541 
L 101.975275 243.309595 
L 105.517903 199.058669 
L 109.060531 199.058669 
L 110.831845 173.713198 
L 119.688414 173.713198 
L 121.459728 216.54462 
L 137.401554 216.553652 
L 139.172867 210.798403 
L 140.944181 192.875325 
L 142.715495 192.875325 
L 144.486809 175.035668 
L 146.258123 175.035668 
L 148.029437 138.661243 
L 162.199948 138.661243 
L 163.971262 189.235927 
L 165.742576 216.105922 
L 171.056518 216.105922 
L 172.827832 242.687695 
L 179.913088 242.687695 
L 181.684402 214.038306 
L 183.455715 173.819008 
L 185.227029 173.819008 
L 186.998343 136.834052 
L 194.083599 136.834052 
L 195.854913 100.416358 
L 202.940169 100.416358 
L 206.482796 216.54462 
L 224.195936 216.54462 
L 225.967249 196.209583 
L 227.738563 168.581346 
L 229.509877 156.224205 
L 231.281191 152.75764 
L 233.052505 106.744201 
L 234.823819 106.744201 
L 236.595133 67.456653 
L 241.909075 67.456653 
L 243.680389 112.252842 
L 247.223017 112.252842 
L 248.99433 170.372343 
L 257.8509 170.372343 
L 259.622214 216.47204 
L 261.393528 233.052107 
L 264.936156 233.052107 
L 266.70747 231.217353 
L 268.478784 192.160131 
L 270.250097 145.083335 
L 272.021411 110.444301 
L 273.792725 110.444301 
L 275.564039 75.021189 
L 277.335353 59.621968 
L 287.963237 59.621968 
L 289.734551 117.741469 
L 291.505864 151.37625 
L 295.048492 151.37625 
L 296.819806 209.495751 
L 298.59112 209.495751 
L 300.362434 267.615252 
L 309.219004 267.615252 
L 310.990318 241.651986 
L 312.761632 240.418055 
L 314.532945 217.089344 
L 316.304259 172.514603 
L 318.075573 172.514603 
L 319.846887 153.934748 
L 321.618201 118.076916 
L 323.389515 97.366864 
L 330.474771 97.366864 
L 334.017399 184.767226 
L 349.959224 184.767226 
L 351.730538 168.302542 
L 353.501852 168.302542 
L 355.273166 136.946936 
L 357.044479 136.946936 
L 358.815793 128.776242 
L 360.587107 91.424434 
L 362.358421 74.776794 
L 383.614188 74.776794 
L 387.156816 186.490362 
L 394.242072 186.490362 
L 396.013386 149.825065 
L 397.7847 128.678467 
L 399.556014 120.417891 
L 401.327327 75.648517 
L 404.869955 75.648517 
L 406.641269 59.621968 
L 417.269153 59.621968 
L 420.811781 175.86097 
L 427.897036 175.86097 
L 431.439664 292.099972 
L 438.52492 292.099972 
L 440.296234 260.295944 
L 442.067548 260.295944 
L 443.838862 224.898404 
L 445.610175 192.852948 
L 447.381489 176.851478 
L 470.40857 176.851478 
L 472.179884 234.970979 
L 479.26514 234.970979 
L 481.036454 211.849818 
L 486.350396 211.849818 
L 488.121709 199.10877 
L 509.377477 199.10877 
L 514.691418 373.467273 
L 521.776674 373.467273 
L 523.547988 350.288239 
L 525.319302 323.169316 
L 527.090616 307.717407 
L 528.86193 278.142091 
L 530.633244 278.142091 
L 532.404557 251.665388 
L 534.175871 216.54462 
L 562.516894 216.54462 
L 564.288208 197.280031 
L 566.059522 174.857168 
L 569.60215 84.993658 
L 573.144778 84.993658 
L 574.916092 81.574114 
L 576.687405 59.621968 
L 585.543975 59.621968 
L 589.086603 175.86097 
L 590.857917 177.657624 
L 592.629231 177.657624 
L 594.400545 184.714969 
L 596.171859 224.039716 
L 597.943172 224.039716 
L 599.714486 275.831564 
L 601.4858 304.391734 
L 608.571056 304.391734 
L 610.34237 294.613164 
L 612.113684 283.426713 
L 613.884998 236.722106 
L 615.656312 195.850617 
L 617.427626 195.850617 
L 620.970253 131.478781 
L 628.055509 131.478781 
L 629.826823 158.42512 
L 631.598137 216.54462 
L 647.539962 216.54462 
L 649.311276 209.656352 
L 651.08259 172.522318 
L 652.853904 172.522318 
L 654.625218 153.730276 
L 656.396532 111.915985 
L 658.167846 111.915985 
L 659.93916 98.38617 
L 667.024415 98.38617 
L 670.567043 183.329024 
L 672.338357 191.350611 
L 674.109671 216.54462 
L 674.109671 216.54462 
" clip-path="url(#p70683ba9f2)" style="fill: none; stroke: #9467bd; stroke-width: 1.8; stroke-linecap: square"/>
   </g>
   <g id="line2d_21">
    <path d="M 80.719508 216.54462 
L 674.109671 216.54462 
L 674.109671 216.54462 
" clip-path="url(#p70683ba9f2)" style="fill: none; stroke: #8c564b; stroke-width: 1.8; stroke-linecap: square"/>
   </g>
   <g id="line2d_22">
    <path d="M 80.719508 59.621968 
L 674.109671 59.621968 
L 674.109671 59.621968 
" clip-path="url(#p70683ba9f2)" style="fill: none; stroke: #e377c2; stroke-width: 1.8; stroke-linecap: square"/>
   </g>
   <g id="line2d_23">
    <path d="M 80.719508 59.621968 
L 183.455715 59.621968 
L 185.227029 59.292713 
L 310.990318 59.292713 
L 312.761632 59.621968 
L 567.830836 59.621968 
L 573.144778 105.782995 
L 574.916092 105.782995 
L 576.687405 119.450463 
L 578.458719 119.450463 
L 580.230033 117.216659 
L 583.772661 90.125922 
L 585.543975 74.729461 
L 587.315289 75.754889 
L 589.086603 59.621968 
L 613.884998 59.621968 
L 615.656312 81.753341 
L 619.198939 81.753341 
L 620.970253 79.370602 
L 622.741567 71.677729 
L 624.512881 62.065216 
L 626.284195 53.15426 
L 628.055509 45.982971 
L 629.826823 53.436091 
L 631.598137 59.621968 
L 633.369451 63.562423 
L 649.311276 63.562423 
L 651.08259 91.528923 
L 652.853904 105.531283 
L 656.396532 105.531283 
L 658.167846 106.455908 
L 659.93916 106.455908 
L 661.710474 95.982947 
L 665.253101 72.851782 
L 670.567043 42.012727 
L 672.338357 59.621968 
L 674.109671 59.621968 
L 674.109671 59.621968 
" clip-path="url(#p70683ba9f2)" style="fill: none; stroke: #7f7f7f; stroke-width: 1.8; stroke-linecap: square"/>
   </g>
   <g id="line2d_24">
    <path d="M 80.719508 59.621968 
L 674.109671 59.621968 
L 674.109671 59.621968 
" clip-path="url(#p70683ba9f2)" style="fill: none; stroke: #bcbd22; stroke-width: 1.8; stroke-linecap: square"/>
   </g>
   <g id="line2d_25">
    <path d="M 80.719508 285.590587 
L 674.109671 285.590587 
L 674.109671 285.590587 
" clip-path="url(#p70683ba9f2)" style="fill: none; stroke: #17becf; stroke-width: 1.8; stroke-linecap: square"/>
   </g>
   <g id="line2d_26">
    <path d="M 80.719508 285.590587 
L 674.109671 285.590587 
L 674.109671 285.590587 
" clip-path="url(#p70683ba9f2)" style="fill: none; stroke: #1f77b4; stroke-width: 1.8; stroke-linecap: square"/>
   </g>
   <g id="line2d_27">
    <path d="M 80.719508 285.590587 
L 674.109671 285.590587 
L 674.109671 285.590587 
" clip-path="url(#p70683ba9f2)" style="fill: none; stroke: #ff7f0e; stroke-width: 1.8; stroke-linecap: square"/>
   </g>
   <g id="line2d_28">
    <path d="M 80.719508 305.462851 
L 82.490822 305.462851 
L 84.262136 332.128085 
L 87.804764 332.128085 
L 89.576078 353.992509 
L 91.347392 373.467273 
L 94.890019 373.467273 
L 96.661333 360.134359 
L 98.432647 360.134359 
L 100.203961 322.080212 
L 105.517903 322.080212 
L 109.060531 245.181161 
L 117.9171 245.181161 
L 119.688414 285.590587 
L 128.544984 285.590587 
L 130.316298 334.410968 
L 132.087612 373.467273 
L 140.944181 373.467273 
L 142.715495 340.868071 
L 146.258123 297.006839 
L 148.029437 297.006839 
L 149.800751 259.534655 
L 151.572065 234.791623 
L 153.343379 223.583883 
L 158.657321 223.583883 
L 160.428634 240.146098 
L 162.199948 285.590587 
L 172.827832 285.590587 
L 174.599146 334.410968 
L 183.455715 334.410968 
L 185.227029 310.295328 
L 186.998343 310.295328 
L 188.769657 284.286484 
L 190.540971 244.741975 
L 192.312285 224.737524 
L 201.168855 224.737524 
L 202.940169 267.528934 
L 204.711482 285.590587 
L 206.482796 285.590587 
L 208.25411 313.297782 
L 220.653308 313.297782 
L 222.424622 307.835257 
L 227.738563 307.835257 
L 229.509877 277.301715 
L 231.281191 237.757207 
L 233.052505 237.757207 
L 234.823819 213.733083 
L 236.595133 213.733083 
L 238.366447 197.713902 
L 245.451703 197.713902 
L 247.223017 245.720826 
L 248.99433 245.720826 
L 250.765644 282.947182 
L 264.936156 282.947182 
L 266.70747 243.402673 
L 268.478784 240.452875 
L 272.021411 240.452875 
L 273.792725 210.568886 
L 277.335353 210.568886 
L 279.106667 197.713902 
L 289.734551 197.713902 
L 291.505864 246.534283 
L 293.277178 246.534283 
L 295.048492 295.354664 
L 310.990318 295.354664 
L 312.761632 255.810155 
L 316.304259 255.810155 
L 318.075573 236.938888 
L 342.873968 236.938888 
L 344.645282 270.599425 
L 346.416596 319.419805 
L 351.730538 319.419805 
L 353.501852 304.554488 
L 355.273166 304.554488 
L 357.044479 285.135846 
L 358.815793 250.772639 
L 362.358421 250.772639 
L 364.129735 217.713015 
L 372.986305 217.713015 
L 374.757619 264.614438 
L 376.528933 285.590587 
L 387.156816 285.590587 
L 388.92813 315.846208 
L 397.7847 315.846208 
L 399.556014 282.873567 
L 401.327327 282.873567 
L 403.098641 261.670011 
L 404.869955 225.924155 
L 406.641269 225.924155 
L 408.412583 197.713902 
L 419.040467 197.713902 
L 420.811781 223.124047 
L 422.583094 271.944428 
L 426.125722 271.944428 
L 427.897036 320.764809 
L 436.753606 320.764809 
L 438.52492 308.636488 
L 440.296234 308.636488 
L 442.067548 290.925171 
L 443.838862 290.925171 
L 445.610175 287.32916 
L 447.381489 287.32916 
L 450.924117 219.253329 
L 459.780687 219.253329 
L 461.552001 227.006131 
L 468.637256 227.006131 
L 470.40857 275.826511 
L 472.179884 275.826511 
L 475.722512 373.467273 
L 481.036454 373.467273 
L 482.807768 351.31384 
L 484.579082 325.291948 
L 486.350396 318.40966 
L 488.121709 307.813036 
L 489.893023 280.836566 
L 491.664337 251.308466 
L 493.435651 236.770207 
L 502.292221 236.770207 
L 504.063535 285.590587 
L 514.691418 285.590587 
L 516.462732 334.410968 
L 525.319302 334.410968 
L 527.090616 319.870797 
L 528.86193 319.870797 
L 530.633244 285.590587 
L 555.431638 285.590587 
L 557.202952 304.601194 
L 564.288208 304.601194 
L 566.059522 285.185582 
L 569.60215 285.185582 
L 571.373464 258.504398 
L 573.144778 237.25841 
L 574.916092 197.713902 
L 582.001347 197.713902 
L 583.772661 246.534283 
L 585.543975 285.590587 
L 590.857917 285.590587 
L 592.629231 309.848802 
L 597.943172 309.848802 
L 599.714486 316.618035 
L 601.4858 365.438416 
L 606.799742 365.438416 
L 612.113684 246.804891 
L 615.656312 246.804891 
L 617.427626 208.51117 
L 628.055509 208.51117 
L 629.826823 257.33155 
L 631.598137 285.590587 
L 651.08259 285.590587 
L 652.853904 247.421611 
L 654.625218 244.196621 
L 656.396532 244.196621 
L 658.167846 208.395417 
L 659.93916 208.395417 
L 661.710474 197.713902 
L 670.567043 197.713902 
L 672.338357 246.534283 
L 674.109671 285.590587 
L 674.109671 285.590587 
" clip-path="url(#p70683ba9f2)" style="fill: none; stroke: #2ca02c; stroke-width: 1.8; stroke-linecap: square"/>
   </g>
   <g id="line2d_29">
    <path d="M 80.719508 285.590587 
L 82.490822 285.007976 
L 87.804764 285.007976 
L 89.576078 281.715859 
L 94.890019 281.715859 
L 96.661333 272.513569 
L 98.432647 270.828398 
L 100.203961 267.21763 
L 103.746589 267.21763 
L 105.517903 271.638866 
L 107.289217 273.087248 
L 112.603159 273.087248 
L 114.374473 270.488488 
L 116.145787 270.488488 
L 117.9171 274.584271 
L 119.688414 277.939771 
L 121.459728 282.744646 
L 123.231042 282.744646 
L 125.002356 284.855491 
L 128.544984 284.855491 
L 132.087612 285.964019 
L 133.858926 286.38299 
L 142.715495 286.38299 
L 144.486809 287.494114 
L 146.258123 288.335485 
L 151.572065 288.335485 
L 153.343379 286.118255 
L 155.114693 286.118255 
L 156.886007 284.313597 
L 158.657321 284.726491 
L 160.428634 284.445756 
L 162.199948 284.770819 
L 163.971262 284.887479 
L 185.227029 284.887479 
L 186.998343 258.524474 
L 206.482796 258.524474 
L 208.25411 255.457047 
L 210.025424 255.457047 
L 211.796738 244.5117 
L 241.909075 244.5117 
L 243.680389 231.797177 
L 256.079586 231.797177 
L 257.8509 208.990661 
L 264.936156 208.990661 
L 266.70747 202.842788 
L 270.250097 202.842788 
L 272.021411 209.162479 
L 273.792725 221.540205 
L 275.564039 230.221853 
L 277.335353 236.539725 
L 279.106667 240.534217 
L 291.505864 240.534217 
L 293.277178 224.925018 
L 328.703457 224.925018 
L 330.474771 207.596359 
L 341.102654 207.596359 
L 342.873968 206.479655 
L 344.645282 206.479655 
L 346.416596 206.700511 
L 348.18791 207.367995 
L 351.730538 207.392864 
L 355.273166 214.576478 
L 357.044479 221.856258 
L 360.587107 240.468017 
L 362.358421 242.994646 
L 364.129735 244.57735 
L 365.901049 244.57735 
L 367.672363 233.395019 
L 374.757619 233.395019 
L 376.528933 237.850325 
L 378.300247 243.673745 
L 380.07156 248.815834 
L 381.842874 252.567974 
L 383.614188 254.394194 
L 387.156816 255.64488 
L 388.92813 257.660642 
L 390.699444 257.660642 
L 392.470758 256.909567 
L 394.242072 255.880982 
L 396.013386 254.989117 
L 413.726525 254.989117 
L 415.497839 246.728129 
L 417.269153 250.080193 
L 419.040467 256.055628 
L 420.811781 264.917927 
L 422.583094 270.928105 
L 424.354408 279.243902 
L 426.125722 282.159569 
L 427.897036 282.159569 
L 429.66835 270.116228 
L 438.52492 270.116228 
L 440.296234 265.182413 
L 456.238059 265.182413 
L 458.009373 258.496502 
L 465.094629 258.496502 
L 466.865942 261.93158 
L 468.637256 261.93158 
L 472.179884 264.159874 
L 475.722512 267.497793 
L 477.493826 266.174735 
L 479.26514 266.174735 
L 481.036454 265.794972 
L 482.807768 265.794972 
L 484.579082 268.491841 
L 486.350396 270.675665 
L 488.121709 271.795546 
L 493.435651 271.795546 
L 495.206965 269.607414 
L 498.749593 269.607414 
L 500.520907 270.658311 
L 502.292221 271.264343 
L 504.063535 272.01457 
L 511.14879 272.01457 
L 512.920104 275.804874 
L 514.691418 276.713536 
L 516.462732 278.165016 
L 518.234046 278.165016 
L 520.00536 276.949876 
L 521.776674 275.955544 
L 525.319302 275.955544 
L 527.090616 277.978071 
L 530.633244 288.857338 
L 541.261127 288.857338 
L 543.032441 285.590587 
L 674.109671 285.590587 
L 674.109671 285.590587 
" clip-path="url(#p70683ba9f2)" style="fill: none; stroke: #d62728; stroke-width: 1.8; stroke-linecap: square"/>
   </g>
   <g id="line2d_30">
    <path d="M 80.719508 310.000778 
L 82.490822 330.051499 
L 87.804764 330.051499 
L 89.576078 354.461689 
L 94.890019 354.461689 
L 96.661333 339.719534 
L 100.203961 339.719534 
L 105.517903 280.402772 
L 119.688414 280.402772 
L 121.459728 285.590587 
L 130.316298 285.590587 
L 132.087612 296.938747 
L 139.172867 296.938747 
L 140.944181 277.166493 
L 144.486809 277.166493 
L 146.258123 257.394239 
L 163.971262 257.394239 
L 165.742576 281.06142 
L 171.056518 281.06142 
L 172.827832 305.471611 
L 174.599146 307.489828 
L 183.455715 307.489828 
L 185.227029 287.717574 
L 186.998343 287.717574 
L 188.769657 267.94532 
L 190.540971 264.700249 
L 192.312285 244.927994 
L 201.168855 244.927994 
L 202.940169 261.180397 
L 204.711482 261.180397 
L 206.482796 285.590587 
L 208.25411 307.037224 
L 222.424622 307.037224 
L 227.738563 247.831444 
L 233.052505 247.831444 
L 234.823819 228.05919 
L 236.595133 228.05919 
L 238.366447 208.286935 
L 254.308272 208.286935 
L 256.079586 209.429256 
L 257.8509 233.839446 
L 259.622214 233.839446 
L 261.393528 258.249637 
L 268.478784 258.249637 
L 270.250097 257.030665 
L 273.792725 217.486156 
L 275.564039 217.486156 
L 277.335353 197.713902 
L 287.963237 197.713902 
L 289.734551 211.183498 
L 291.505864 211.183498 
L 293.277178 235.593688 
L 295.048492 235.593688 
L 298.59112 284.414069 
L 300.362434 284.414069 
L 303.905062 333.23445 
L 309.219004 333.23445 
L 310.990318 322.366238 
L 312.761632 322.366238 
L 314.532945 302.593984 
L 316.304259 302.593984 
L 319.846887 263.049475 
L 341.102654 263.049475 
L 344.645282 311.869856 
L 351.730538 311.869856 
L 353.501852 292.097602 
L 355.273166 292.097602 
L 357.044479 272.325348 
L 360.587107 272.325348 
L 362.358421 252.553094 
L 392.470758 252.553094 
L 394.242072 237.25841 
L 401.327327 237.25841 
L 403.098641 217.486156 
L 404.869955 217.486156 
L 406.641269 197.713902 
L 417.269153 197.713902 
L 419.040467 222.124092 
L 420.811781 222.856398 
L 422.583094 222.856398 
L 426.125722 271.676779 
L 427.897036 271.676779 
L 429.66835 296.086969 
L 440.296234 296.086969 
L 442.067548 276.314715 
L 445.610175 276.314715 
L 447.381489 256.542461 
L 459.780687 256.542461 
L 461.552001 280.952651 
L 484.579082 280.952651 
L 486.350396 261.180397 
L 502.292221 261.180397 
L 504.063535 285.590587 
L 530.633244 285.590587 
L 532.404557 279.00412 
L 543.032441 279.00412 
L 544.803755 285.590587 
L 562.516894 285.590587 
L 564.288208 265.818333 
L 567.830836 265.818333 
L 569.60215 257.030665 
L 573.144778 217.486156 
L 574.916092 217.486156 
L 576.687405 197.713902 
L 583.772661 197.713902 
L 585.543975 222.124092 
L 587.315289 241.587859 
L 589.086603 241.587859 
L 590.857917 249.269134 
L 592.629231 273.679324 
L 596.171859 273.679324 
L 597.943172 292.337893 
L 606.799742 292.337893 
L 608.571056 285.590587 
L 647.539962 285.590587 
L 649.311276 271.676779 
L 652.853904 271.676779 
L 654.625218 251.904525 
L 658.167846 251.904525 
L 661.710474 212.360016 
L 668.795729 212.360016 
L 674.109671 285.590587 
L 674.109671 285.590587 
" clip-path="url(#p70683ba9f2)" style="fill: none; stroke: #9467bd; stroke-width: 1.8; stroke-linecap: square"/>
   </g>
   <g id="line2d_31">
    <path d="M 80.719508 285.590587 
L 674.109671 285.590587 
L 674.109671 285.590587 
" clip-path="url(#p70683ba9f2)" style="fill: none; stroke: #8c564b; stroke-width: 1.8; stroke-linecap: square"/>
   </g>
   <g id="line2d_32">
    <path d="M 80.719508 285.590587 
L 674.109671 285.590587 
L 674.109671 285.590587 
" clip-path="url(#p70683ba9f2)" style="fill: none; stroke: #e377c2; stroke-width: 1.8; stroke-linecap: square"/>
   </g>
   <g id="line2d_33">
    <path d="M 80.719508 285.590587 
L 674.109671 285.590587 
L 674.109671 285.590587 
" clip-path="url(#p70683ba9f2)" style="fill: none; stroke: #7f7f7f; stroke-width: 1.8; stroke-linecap: square"/>
   </g>
   <g id="patch_3">
    <path d="M 51.05 390.04 
L 51.05 25.44 
" style="fill: none; stroke: #000000; stroke-width: 0.8; stroke-linejoin: miter; stroke-linecap: square"/>
   </g>
   <g id="patch_4">
    <path d="M 703.779179 390.04 
L 703.779179 25.44 
" style="fill: none; stroke: #000000; stroke-width: 0.8; stroke-linejoin: miter; stroke-linecap: square"/>
   </g>
   <g id="patch_5">
    <path d="M 51.05 390.04 
L 703.779179 390.04 
" style="fill: none; stroke: #000000; stroke-width: 0.8; stroke-linejoin: miter; stroke-linecap: square"/>
   </g>
   <g id="patch_6">
    <path d="M 51.05 25.44 
L 703.779179 25.44 
" style="fill: none; stroke: #000000; stroke-width: 0.8; stroke-linejoin: miter; stroke-linecap: square"/>
   </g>
   <g id="text_18">
    <!-- SoC by battery (T=72, F=12, L=12) -->
    <g transform="translate(270.00709 19.44) scale(0.12 -0.12)">
     <defs>
      <path id="DejaVuSans-62" d="M 3116 1747 
Q 3116 2381 2855 2742 
Q 2594 3103 2138 3103 
Q 1681 3103 1420 2742 
Q 1159 2381 1159 1747 
Q 1159 1113 1420 752 
Q 1681 391 2138 391 
Q 2594 391 2855 752 
Q 3116 1113 3116 1747 
z
M 1159 2969 
Q 1341 3281 1617 3432 
Q 1894 3584 2278 3584 
Q 2916 3584 3314 3078 
Q 3713 2572 3713 1747 
Q 3713 922 3314 415 
Q 2916 -91 2278 -91 
Q 1894 -91 1617 61 
Q 1341 213 1159 525 
L 1159 0 
L 581 0 
L 581 4863 
L 1159 4863 
L 1159 2969 
z
" transform="scale(0.015625)"/>
      <path id="DejaVuSans-79" d="M 2059 -325 
Q 1816 -950 1584 -1140 
Q 1353 -1331 966 -1331 
L 506 -1331 
L 506 -850 
L 844 -850 
Q 1081 -850 1212 -737 
Q 1344 -625 1503 -206 
L 1606 56 
L 191 3500 
L 800 3500 
L 1894 763 
L 2988 3500 
L 3597 3500 
L 2059 -325 
z
" transform="scale(0.015625)"/>
      <path id="DejaVuSans-61" d="M 2194 1759 
Q 1497 1759 1228 1600 
Q 959 1441 959 1056 
Q 959 750 1161 570 
Q 1363 391 1709 391 
Q 2188 391 2477 730 
Q 2766 1069 2766 1631 
L 2766 1759 
L 2194 1759 
z
M 3341 1997 
L 3341 0 
L 2766 0 
L 2766 531 
Q 2569 213 2275 61 
Q 1981 -91 1556 -91 
Q 1019 -91 701 211 
Q 384 513 384 1019 
Q 384 1609 779 1909 
Q 1175 2209 1959 2209 
L 2766 2209 
L 2766 2266 
Q 2766 2663 2505 2880 
Q 2244 3097 1772 3097 
Q 1472 3097 1187 3025 
Q 903 2953 641 2809 
L 641 3341 
Q 956 3463 1253 3523 
Q 1550 3584 1831 3584 
Q 2591 3584 2966 3190 
Q 3341 2797 3341 1997 
z
" transform="scale(0.015625)"/>
      <path id="DejaVuSans-72" d="M 2631 2963 
Q 2534 3019 2420 3045 
Q 2306 3072 2169 3072 
Q 1681 3072 1420 2755 
Q 1159 2438 1159 1844 
L 1159 0 
L 581 0 
L 581 3500 
L 1159 3500 
L 1159 2956 
Q 1341 3275 1631 3429 
Q 1922 3584 2338 3584 
Q 2397 3584 2469 3576 
Q 2541 3569 2628 3553 
L 2631 2963 
z
" transform="scale(0.015625)"/>
      <path id="DejaVuSans-3d" d="M 678 2906 
L 4684 2906 
L 4684 2381 
L 678 2381 
L 678 2906 
z
M 678 1631 
L 4684 1631 
L 4684 1100 
L 678 1100 
L 678 1631 
z
" transform="scale(0.015625)"/>
      <path id="DejaVuSans-37" d="M 525 4666 
L 3525 4666 
L 3525 4397 
L 1831 0 
L 1172 0 
L 2766 4134 
L 525 4134 
L 525 4666 
z
" transform="scale(0.015625)"/>
      <path id="DejaVuSans-2c" d="M 750 794 
L 1409 794 
L 1409 256 
L 897 -744 
L 494 -744 
L 750 256 
L 750 794 
z
" transform="scale(0.015625)"/>
      <path id="DejaVuSans-46" d="M 628 4666 
L 3309 4666 
L 3309 4134 
L 1259 4134 
L 1259 2759 
L 3109 2759 
L 3109 2228 
L 1259 2228 
L 1259 0 
L 628 0 
L 628 4666 
z
" transform="scale(0.015625)"/>
      <path id="DejaVuSans-4c" d="M 628 4666 
L 1259 4666 
L 1259 531 
L 3531 531 
L 3531 0 
L 628 0 
L 628 4666 
z
" transform="scale(0.015625)"/>
     </defs>
     <use xlink:href="#DejaVuSans-53"/>
     <use xlink:href="#DejaVuSans-6f" transform="translate(63.476562 0)"/>
     <use xlink:href="#DejaVuSans-43" transform="translate(124.658203 0)"/>
     <use xlink:href="#DejaVuSans-20" transform="translate(194.482422 0)"/>
     <use xlink:href="#DejaVuSans-62" transform="translate(226.269531 0)"/>
     <use xlink:href="#DejaVuSans-79" transform="translate(289.746094 0)"/>
     <use xlink:href="#DejaVuSans-20" transform="translate(348.925781 0)"/>
     <use xlink:href="#DejaVuSans-62" transform="translate(380.712891 0)"/>
     <use xlink:href="#DejaVuSans-61" transform="translate(444.189453 0)"/>
     <use xlink:href="#DejaVuSans-74" transform="translate(505.46875 0)"/>
     <use xlink:href="#DejaVuSans-74" transform="translate(544.677734 0)"/>
     <use xlink:href="#DejaVuSans-65" transform="translate(583.886719 0)"/>
     <use xlink:href="#DejaVuSans-72" transform="translate(645.410156 0)"/>
     <use xlink:href="#DejaVuSans-79" transform="translate(686.523438 0)"/>
     <use xlink:href="#DejaVuSans-20" transform="translate(745.703125 0)"/>
     <use xlink:href="#DejaVuSans-28" transform="translate(777.490234 0)"/>
     <use xlink:href="#DejaVuSans-54" transform="translate(816.503906 0)"/>
     <use xlink:href="#DejaVuSans-3d" transform="translate(877.587891 0)"/>
     <use xlink:href="#DejaVuSans-37" transform="translate(961.376953 0)"/>
     <use xlink:href="#DejaVuSans-32" transform="translate(1025 0)"/>
     <use xlink:href="#DejaVuSans-2c" transform="translate(1088.623047 0)"/>
     <use xlink:href="#DejaVuSans-20" transform="translate(1120.410156 0)"/>
     <use xlink:href="#DejaVuSans-46" transform="translate(1152.197266 0)"/>
     <use xlink:href="#DejaVuSans-3d" transform="translate(1209.716797 0)"/>
     <use xlink:href="#DejaVuSans-31" transform="translate(1293.505859 0)"/>
     <use xlink:href="#DejaVuSans-32" transform="translate(1357.128906 0)"/>
     <use xlink:href="#DejaVuSans-2c" transform="translate(1420.751953 0)"/>
     <use xlink:href="#DejaVuSans-20" transform="translate(1452.539062 0)"/>
     <use xlink:href="#DejaVuSans-4c" transform="translate(1484.326172 0)"/>
     <use xlink:href="#DejaVuSans-3d" transform="translate(1540.039062 0)"/>
     <use xlink:href="#DejaVuSans-31" transform="translate(1623.828125 0)"/>
     <use xlink:href="#DejaVuSans-32" transform="translate(1687.451172 0)"/>
     <use xlink:href="#DejaVuSans-29" transform="translate(1751.074219 0)"/>
    </g>
   </g>
  </g>
 </g>
 <defs>
  <clipPath id="p70683ba9f2">
   <rect x="51.05" y="25.44" width="652.729179" height="364.6"/>
  </clipPath>
 </defs>
</svg>
